<svg width="21" height="22" viewBox="0 0 21 22" fill="none" xmlns="http://www.w3.org/2000/svg">
<g style="mix-blend-mode:multiply" clip-path="url(#clip0_3_318)">
<path d="M1.09082 6.88394V15.1159C1.09082 15.6451 1.36802 16.1239 1.83002 16.3927L8.96162 20.5087C9.41522 20.7691 9.97802 20.7691 10.4316 20.5087L17.5632 16.3927C18.0168 16.1323 18.3024 15.6451 18.3024 15.1159V6.88394C18.3024 6.35474 18.0252 5.87594 17.5632 5.60714L10.4316 1.49114C9.97802 1.23074 9.41522 1.23074 8.96162 1.49114L1.83002 5.60714C1.37642 5.86754 1.09922 6.35474 1.09922 6.88394H1.09082Z" fill="#858585"/>
<path d="M11.2465 12.5959L10.2301 15.3847C10.2049 15.4603 10.2049 15.5443 10.2301 15.6283L11.9773 20.4247L14.0017 19.2571L11.5741 12.5959C11.5153 12.4447 11.3053 12.4447 11.2465 12.5959Z" fill="#C5C5C5"/>
<path d="M13.2877 7.90875C13.2289 7.75755 13.0189 7.75755 12.9601 7.90875L11.9437 10.6975C11.9185 10.7731 11.9185 10.8571 11.9437 10.9411L14.8081 18.7951L16.8325 17.6275L13.2877 7.91715V7.90875Z" fill="#C5C5C5"/>
<path d="M9.69245 1.802C9.74285 1.802 9.79325 1.8188 9.83525 1.844L17.5465 6.296C17.6389 6.3464 17.6893 6.4472 17.6893 6.548V15.452C17.6893 15.5528 17.6305 15.6536 17.5465 15.704L9.83525 20.156C9.79325 20.1812 9.74285 20.198 9.69245 20.198C9.64205 20.198 9.59165 20.1812 9.54965 20.156L1.83845 15.704C1.74605 15.6536 1.69565 15.5528 1.69565 15.452V6.5396C1.69565 6.4388 1.75445 6.338 1.83845 6.2876L9.54965 1.8356C9.59165 1.8104 9.64205 1.7936 9.69245 1.7936V1.802ZM9.69245 0.5C9.41525 0.5 9.14645 0.5672 8.89445 0.71L1.18325 5.162C0.687654 5.4476 0.385254 5.9684 0.385254 6.5396V15.4436C0.385254 16.0148 0.687654 16.5356 1.18325 16.8212L8.89445 21.2732C9.13805 21.416 9.41525 21.4832 9.69245 21.4832C9.96965 21.4832 10.2385 21.416 10.4905 21.2732L18.2017 16.8212C18.6973 16.5356 18.9997 16.0148 18.9997 15.4436V6.5396C18.9997 5.9684 18.6973 5.4476 18.2017 5.162L10.4821 0.71C10.2385 0.5672 9.96125 0.5 9.68405 0.5H9.69245Z" fill="#ABABAB"/>
<path d="M4.58521 18.8036L5.29921 16.8548L6.72721 18.0392L5.39161 19.2656L4.58521 18.8036Z" fill="#858585"/>
<path d="M9.03719 5.90965H7.07999C6.93719 5.90965 6.80279 6.00205 6.75239 6.13645L2.56079 17.6276L4.58519 18.7952L9.20519 6.13645C9.24719 6.01885 9.16319 5.90125 9.04559 5.90125L9.03719 5.90965Z" fill="#E3F2FD"/>
<path d="M12.4644 5.90965H10.5072C10.3644 5.90965 10.23 6.00205 10.1796 6.13645L5.3916 19.2572L7.416 20.4248L12.624 6.13645C12.666 6.01885 12.582 5.90125 12.4644 5.90125V5.90965Z" fill="#E3F2FD"/>
</g>
<defs>
<clipPath id="clip0_3_318">
<rect width="21" height="21" fill="white" transform="translate(0 0.5)"/>
</clipPath>
</defs>
</svg>
