<svg width="21" height="22" viewBox="0 0 21 22" fill="none" xmlns="http://www.w3.org/2000/svg">
<g style="mix-blend-mode:multiply" clip-path="url(#clip0_3_338)">
<path d="M4.89969 3.73736L10.5 0.5L16.1003 3.73736L14.0003 4.87472L10.5 2.86208L6.91233 4.87472L4.89969 3.73736ZM16.0121 7.76264L13.9994 6.62528L10.5 8.63792L6.91233 6.62528L4.89969 7.76264V10.1256L8.39997 12.1382V16.2508L10.4126 17.4756L12.4253 16.2508V12.2256L15.9255 10.2129V7.76264H16.0121ZM16.0121 14.2374V11.8753L14.0003 13.1V15.3747L16.0121 14.2374ZM17.4997 15.0253L13.9994 17.0379V19.4L19.5997 16.1626V9.68792L17.4997 11V15.0253ZM15.4879 5.75L17.5005 6.97472V9.33764L19.5132 8.11292V5.75L17.5005 4.52528L15.4879 5.75ZM8.39997 17.9124V20.2744L10.4126 21.4992L12.4253 20.2744V17.9124L10.4126 19.1371L8.39997 17.9124ZM4.89969 14.2374L6.91233 15.3747V13.0126L4.89969 11.7879V14.2374ZM8.39997 5.75L10.4126 6.97472L12.5126 5.75L10.5 4.52528L8.39997 5.75ZM3.41205 6.97472L5.51205 5.75L3.41205 4.52528L1.40025 5.75V8.11208L3.41289 9.3368V6.97472H3.41205ZM3.41205 11L1.39941 9.77528V16.25L6.99969 19.4874V17.1253L3.49941 15.1126V11H3.41205Z" fill="#858585"/>
</g>
<defs>
<clipPath id="clip0_3_338">
<rect width="21" height="21" fill="white" transform="translate(0 0.5)"/>
</clipPath>
</defs>
</svg>
