<svg width="22" height="22" viewBox="0 0 22 22" fill="none" xmlns="http://www.w3.org/2000/svg">
<path d="M20.35 11.2286V15.4449C20.3485 15.7078 20.2788 15.9658 20.1477 16.1938C20.0166 16.4216 19.8285 16.6117 19.602 16.7451L15.9497 18.8489C15.7235 18.9837 15.465 19.0549 15.2016 19.0549C14.9384 19.0549 14.6799 18.9837 14.4537 18.8489L10.8013 16.7451C10.5748 16.6117 10.3868 16.4216 10.2557 16.1938C10.1246 15.9658 10.0548 15.7078 10.0534 15.4449V14.2616L11.9233 13.1761V15.2331L15.1958 17.1323L18.4683 15.2331V11.4434L15.1958 9.54415L7.52886 13.9854C7.3005 14.114 7.04288 14.1816 6.78081 14.1816C6.51879 14.1816 6.26117 14.114 6.03286 13.9854L2.38049 11.8729C2.15745 11.7374 1.97307 11.5467 1.84509 11.3192C1.71716 11.0917 1.64999 10.8351 1.65002 10.5741V6.35789C1.65154 6.09494 1.72128 5.83693 1.8524 5.60901C1.98348 5.3811 2.17151 5.19112 2.39801 5.05763L6.05035 2.95388C6.27706 2.82039 6.53529 2.75 6.79835 2.75C7.06142 2.75 7.3197 2.82039 7.54635 2.95388L11.1987 5.05763C11.4252 5.19112 11.6133 5.3811 11.7443 5.60901C11.8755 5.83693 11.9452 6.09494 11.9467 6.35789V7.54122L10.065 8.61938V6.5741L6.79252 4.67488L3.52 6.5741V10.3594L6.79252 12.2586L14.4595 7.81737C14.6878 7.68867 14.9454 7.62113 15.2075 7.62113C15.4696 7.62113 15.7272 7.68867 15.9555 7.81737L19.6079 9.92987C19.8331 10.064 20.0198 10.254 20.1498 10.4816C20.2799 10.7092 20.3489 10.9665 20.35 11.2286Z" fill="#7B3FE4"/>
</svg>
