<svg width="21" height="15" viewBox="0 0 21 15" fill="none" xmlns="http://www.w3.org/2000/svg">
<path d="M4.13855 14.1613C3.0765 14.2161 2.02847 13.8522 1.15232 13.1246C0.773805 12.7752 0.471421 12.3195 0.271318 11.7971C0.071215 11.2747 -0.0205825 10.7012 0.00386564 10.1262C0.0085315 9.79123 0.0341467 9.45712 0.0804947 9.12678C0.213231 8.23694 0.402075 7.16953 0.647024 5.92455C1.34127 2.531 3.13288 0.834217 6.02186 0.834217C6.74596 0.819886 7.46492 0.983645 8.13504 1.31554C8.72988 1.59734 9.2417 2.08713 9.60507 2.72231C9.97151 3.37678 10.1588 4.15375 10.1405 4.94369C10.1352 5.2725 10.1096 5.60037 10.0639 5.92455C9.91059 7.02284 9.72688 8.09025 9.51272 9.12678C9.15578 10.8172 8.53816 12.082 7.65987 12.9212C6.78247 13.7479 5.6087 14.1613 4.13855 14.1613ZM4.35305 11.4958C4.88344 11.5135 5.4009 11.2963 5.80803 10.885C6.25797 10.3918 6.56407 9.73609 6.68074 9.01555C6.91565 7.85606 7.09412 6.84419 7.21615 5.97996C7.25722 5.71754 7.27773 5.45102 7.27739 5.18395C7.27739 4.06086 6.79251 3.49945 5.82275 3.49972C5.28807 3.48421 4.76651 3.70091 4.35272 4.11047C3.91109 4.60892 3.61093 5.26318 3.49506 5.97996C3.31124 6.80671 3.12753 7.81857 2.94392 9.01555C2.90237 9.27162 2.88186 9.53202 2.88269 9.79296C2.88269 10.9282 3.37281 11.4958 4.35305 11.4958Z" fill="#FF1100"/>
<path d="M10.8462 13.9768C10.7976 13.9802 10.7489 13.9703 10.7038 13.9479C10.6588 13.9255 10.6184 13.8911 10.5859 13.8473C10.5349 13.7478 10.5184 13.6281 10.54 13.514L12.6532 1.48249C12.6719 1.34973 12.7317 1.23056 12.8205 1.1492C12.9026 1.06735 13.0053 1.0217 13.1117 1.01977H17.1851C18.1441 0.962891 19.0948 1.25983 19.911 1.87119C20.2466 2.13688 20.5191 2.50364 20.7017 2.93537C20.8843 3.36709 20.9707 3.84887 20.9524 4.33324C20.9509 4.65723 20.92 4.98004 20.8603 5.29589C20.6915 6.54302 20.1391 7.667 19.3137 8.44271C18.5481 9.12142 17.4965 9.46078 16.1591 9.46078H14.0921L13.3877 13.5144C13.369 13.6472 13.3092 13.7663 13.2204 13.8477C13.1384 13.9295 13.0359 13.9751 12.9296 13.9772L10.8462 13.9768ZM16.2672 6.90571C16.6685 6.9164 17.0614 6.76684 17.3852 6.4802C17.7184 6.18448 17.9478 5.74869 18.0284 5.25868C18.0568 5.0755 18.0722 4.8897 18.0742 4.70333C18.0829 4.55278 18.0641 4.40176 18.0191 4.26097C17.9741 4.12019 17.9041 3.9931 17.8139 3.88872C17.5583 3.6606 17.2419 3.5551 16.9258 3.59264H15.0883L14.5064 6.90571H16.2672Z" fill="#FF1100"/>
</svg>
