<svg xmlns="http://www.w3.org/2000/svg" width="21" height="21" viewBox="0 0 21 21" fill="none">
  <g style="mix-blend-mode:plus-darker">
    <path d="M1.09082 6.384V14.616C1.09082 15.1452 1.36802 15.624 1.83002 15.8928L8.96162 20.0088C9.41522 20.2692 9.97802 20.2692 10.4316 20.0088L17.5632 15.8928C18.0168 15.6324 18.3024 15.1452 18.3024 14.616V6.384C18.3024 5.8548 18.0252 5.376 17.5632 5.1072L10.4316 0.991198C9.97802 0.730798 9.41522 0.730798 8.96162 0.991198L1.83002 5.1072C1.37642 5.3676 1.09922 5.8548 1.09922 6.384H1.09082Z" fill="#213147"/>
    <path d="M11.2462 12.0958L10.2298 14.8846C10.2046 14.9602 10.2046 15.0442 10.2298 15.1282L11.977 19.9246L14.0014 18.757L11.5738 12.0958C11.515 11.9446 11.305 11.9446 11.2462 12.0958Z" fill="#12AAFF"/>
    <path d="M13.2872 7.40881C13.2284 7.25761 13.0184 7.25761 12.9596 7.40881L11.9432 10.1976C11.918 10.2732 11.918 10.3572 11.9432 10.4412L14.8076 18.2952L16.832 17.1276L13.2872 7.41721V7.40881Z" fill="#12AAFF"/>
    <path d="M9.69245 1.302C9.74286 1.302 9.79325 1.3188 9.83525 1.344L17.5465 5.796C17.6389 5.8464 17.6893 5.9472 17.6893 6.048V14.952C17.6893 15.0528 17.6305 15.1536 17.5465 15.204L9.83525 19.656C9.79325 19.6812 9.74286 19.698 9.69245 19.698C9.64205 19.698 9.59165 19.6812 9.54965 19.656L1.83845 15.204C1.74605 15.1536 1.69565 15.0528 1.69565 14.952V6.0396C1.69565 5.9388 1.75445 5.838 1.83845 5.7876L9.54965 1.3356C9.59165 1.3104 9.64205 1.2936 9.69245 1.2936V1.302ZM9.69245 0C9.41525 0 9.14645 0.0672 8.89445 0.21L1.18325 4.662C0.687654 4.9476 0.385254 5.4684 0.385254 6.0396V14.9436C0.385254 15.5148 0.687654 16.0356 1.18325 16.3212L8.89445 20.7732C9.13805 20.916 9.41525 20.9832 9.69245 20.9832C9.96966 20.9832 10.2385 20.916 10.4905 20.7732L18.2017 16.3212C18.6973 16.0356 18.9997 15.5148 18.9997 14.9436V6.0396C18.9997 5.4684 18.6973 4.9476 18.2017 4.662L10.4821 0.21C10.2385 0.0672 9.96126 0 9.68405 0H9.69245Z" fill="#9DCCED"/>
    <path d="M4.58545 18.3038L5.29945 16.355L6.72745 17.5394L5.39185 18.7658L4.58545 18.3038Z" fill="#213147"/>
    <path d="M9.03744 5.40977H7.08024C6.93744 5.40977 6.80304 5.50217 6.75264 5.63657L2.56104 17.1278L4.58544 18.2954L9.20544 5.63657C9.24744 5.51897 9.16344 5.40137 9.04584 5.40137L9.03744 5.40977Z" fill="white"/>
    <path d="M12.4644 5.40977H10.5072C10.3644 5.40977 10.23 5.50217 10.1796 5.63657L5.3916 18.7574L7.416 19.925L12.624 5.63657C12.666 5.51897 12.582 5.40137 12.4644 5.40137V5.40977Z" fill="white"/>
    </g>
</svg>