<svg width="20" height="18" viewBox="0 0 20 18" fill="none" xmlns="http://www.w3.org/2000/svg">
<path d="M19.3499 9.22864V13.4449C19.3484 13.7078 19.2787 13.9658 19.1476 14.1938C19.0164 14.4216 18.8284 14.6117 18.6019 14.7451L14.9496 16.8489C14.7234 16.9837 14.4649 17.0549 14.2015 17.0549C13.9382 17.0549 13.6797 16.9837 13.4536 16.8489L9.80119 14.7451C9.57464 14.6117 9.38665 14.4216 9.25553 14.1938C9.12447 13.9658 9.05473 13.7078 9.05324 13.4449V12.2616L10.9232 11.1761V13.2331L14.1957 15.1323L17.4682 13.2331V9.44336L14.1957 7.54415L6.52874 11.9854C6.30038 12.114 6.04276 12.1816 5.78069 12.1816C5.51867 12.1816 5.26105 12.114 5.03274 11.9854L1.38036 9.8729C1.15733 9.73738 0.972945 9.5467 0.844971 9.31922C0.717035 9.09174 0.649864 8.83511 0.649902 8.57414V4.35789C0.651415 4.09494 0.721155 3.83693 0.852275 3.60901C0.983356 3.3811 1.17139 3.19112 1.39789 3.05763L5.05023 0.953885C5.27694 0.820394 5.53517 0.75 5.79823 0.75C6.0613 0.75 6.31958 0.820394 6.54623 0.953885L10.1986 3.05763C10.4251 3.19112 10.6132 3.3811 10.7442 3.60901C10.8753 3.83693 10.9451 4.09494 10.9466 4.35789V5.54122L9.0649 6.61938V4.5741L5.7924 2.67488L2.51988 4.5741V8.35936L5.7924 10.2586L13.4594 5.81737C13.6877 5.68867 13.9453 5.62113 14.2074 5.62113C14.4695 5.62113 14.727 5.68867 14.9554 5.81737L18.6077 7.92987C18.833 8.06396 19.0197 8.25404 19.1497 8.48157C19.2798 8.70916 19.3487 8.96651 19.3499 9.22864Z" fill="#BABABA"/>
</svg>
