<svg width="24" height="14" viewBox="0 0 24 14" fill="none" xmlns="http://www.w3.org/2000/svg">
<path d="M4.91627 13.5454C3.57869 13.5454 2.48278 13.2061 1.62853 12.5272C0.785518 11.8364 0.364014 10.8545 0.364014 9.58177C0.364014 9.31511 0.392114 8.98784 0.448315 8.59995C0.594436 7.72725 0.802379 6.67877 1.07214 5.45453C1.83647 2.1212 3.80911 0.454529 6.99007 0.454529C7.85556 0.454529 8.63113 0.612105 9.31678 0.927257C10.0024 1.23029 10.5419 1.69089 10.9354 2.30907C11.3287 2.91514 11.5254 3.64241 11.5254 4.49089C11.5254 4.74544 11.4974 5.06665 11.4412 5.45453C11.2725 6.53332 11.0702 7.58181 10.8342 8.59995C10.4408 10.2606 9.76076 11.503 8.79413 12.3273C7.82743 13.1394 6.53485 13.5454 4.91627 13.5454ZM5.15231 10.9273C5.78176 10.9273 6.31566 10.7272 6.75405 10.3272C7.20362 9.92724 7.52397 9.31511 7.71504 8.49091C7.9736 7.35147 8.17026 6.35756 8.30519 5.50907C8.35014 5.25453 8.37262 4.99392 8.37262 4.72726C8.37262 3.62422 7.83867 3.07271 6.77088 3.07271C6.14144 3.07271 5.60191 3.27271 5.15231 3.67271C4.71394 4.07271 4.39922 4.68483 4.20814 5.50907C4.00581 6.32119 3.80349 7.31515 3.60117 8.49091C3.55621 8.73328 3.53373 8.98784 3.53373 9.2545C3.53373 10.3696 4.07325 10.9273 5.15231 10.9273Z" fill="#9E9E9E"/>
<path d="M12.8723 13.3637C12.7486 13.3637 12.6531 13.3213 12.5857 13.2364C12.5295 13.1394 12.5126 13.0304 12.5351 12.9092L14.8618 1.09096C14.8843 0.957625 14.9461 0.848535 15.0473 0.763687C15.1484 0.678838 15.2552 0.636414 15.3676 0.636414H19.8524C21.1001 0.636414 22.1004 0.915201 22.8535 1.47278C23.6178 2.03035 24 2.83641 24 3.89096C24 4.19399 23.9663 4.50914 23.8989 4.83641C23.6178 6.23035 23.0502 7.26062 22.196 7.92734C21.353 8.594 20.1952 8.92729 18.7227 8.92729H16.4466L15.6711 12.9092C15.6486 13.0425 15.5867 13.1515 15.4856 13.2364C15.3844 13.3213 15.2777 13.3637 15.1652 13.3637H12.8723ZM18.8408 6.41823C19.3129 6.41823 19.7232 6.27884 20.0716 6.00005C20.4313 5.72126 20.6673 5.32126 20.7797 4.80005C20.8134 4.59399 20.8303 4.41217 20.8303 4.25459C20.8303 3.90308 20.7347 3.63641 20.5437 3.45459C20.3526 3.26066 20.0266 3.16369 19.5658 3.16369H17.5426L16.9019 6.41823H18.8408Z" fill="#9E9E9E"/>
</svg>
