<?xml version="1.0" encoding="UTF-8"?>
<!DOCTYPE svg PUBLIC "-//W3C//DTD SVG 1.1//EN" "http://www.w3.org/Graphics/SVG/1.1/DTD/svg11.dtd">
<svg xmlns="http://www.w3.org/2000/svg" version="1.1" width="24px" height="25px" style="shape-rendering:geometricPrecision; text-rendering:geometricPrecision; image-rendering:optimizeQuality; fill-rule:evenodd; clip-rule:evenodd" xmlns:xlink="http://www.w3.org/1999/xlink">
<g><path style="opacity:1" fill="#b1b7a0" d="M 8.5,-0.5 C 10.5,-0.5 12.5,-0.5 14.5,-0.5C 16.0188,0.409824 17.6854,1.24316 19.5,2C 20.7332,3.66668 22.0665,5.16668 23.5,6.5C 23.5,7.83333 23.5,9.16667 23.5,10.5C 22.5326,9.19376 21.1993,8.52709 19.5,8.5C 19.385,10.9468 18.385,12.9468 16.5,14.5C 15.8333,14.5 15.1667,14.5 14.5,14.5C 12.5,10.5 10.5,10.5 8.5,14.5C 7.83333,14.5 7.16667,14.5 6.5,14.5C 5.29211,11.9558 3.29211,10.6225 0.5,10.5C 0.784479,12.4147 0.451145,14.0813 -0.5,15.5C -0.5,12.5 -0.5,9.5 -0.5,6.5C 0.933498,5.16668 2.26683,3.66668 3.5,2C 5.31456,1.24316 6.98123,0.409824 8.5,-0.5 Z"/></g>
<g><path style="opacity:1" fill="#fdf6ef" d="M 10.5,3.5 C 13.5628,5.05121 16.2295,7.21788 18.5,10C 16.088,13.162 13.7546,12.9953 11.5,9.5C 9.24536,12.9953 6.91203,13.162 4.5,10C 6.70587,7.9633 8.70587,5.79663 10.5,3.5 Z"/></g>
<g><path style="opacity:1" fill="#d2c3a6" d="M 6.5,14.5 C 5.54885,15.9187 5.21552,17.5853 5.5,19.5C 4.57683,18.6971 3.57683,18.5304 2.5,19C 3.7101,20.0391 4.7101,21.2058 5.5,22.5C 2.88507,21.5501 0.88507,19.8835 -0.5,17.5C -0.5,16.8333 -0.5,16.1667 -0.5,15.5C 0.451145,14.0813 0.784479,12.4147 0.5,10.5C 3.29211,10.6225 5.29211,11.9558 6.5,14.5 Z"/></g>
<g><path style="opacity:1" fill="#7f7a6b" d="M 14.5,14.5 C 15.1667,14.5 15.8333,14.5 16.5,14.5C 17.3007,16.0418 17.634,17.7085 17.5,19.5C 16.8826,19.3893 16.3826,19.056 16,18.5C 13.9935,19.6687 11.8268,20.3354 9.5,20.5C 9.33982,18.8008 9.50649,17.1341 10,15.5C 11.0432,19.2259 11.5432,18.8926 11.5,14.5C 12.5,14.5 13.5,14.5 14.5,14.5 Z"/></g>
<g><path style="opacity:1" fill="#d6c6a7" d="M 23.5,10.5 C 23.5,12.8333 23.5,15.1667 23.5,17.5C 22.1667,18.8333 20.8333,20.1667 19.5,21.5C 19.5,20.1667 18.8333,19.5 17.5,19.5C 17.634,17.7085 17.3007,16.0418 16.5,14.5C 18.385,12.9468 19.385,10.9468 19.5,8.5C 21.1993,8.52709 22.5326,9.19376 23.5,10.5 Z"/></g>
<g><path style="opacity:1" fill="#847d6d" d="M 6.5,14.5 C 7.16667,14.5 7.83333,14.5 8.5,14.5C 8.5,16.5 8.5,18.5 8.5,20.5C 7.20895,20.7373 6.20895,20.404 5.5,19.5C 5.21552,17.5853 5.54885,15.9187 6.5,14.5 Z"/></g>
<g><path style="opacity:1" fill="#e0c5a7" d="M 14.5,14.5 C 13.5,14.5 12.5,14.5 11.5,14.5C 11.5432,18.8926 11.0432,19.2259 10,15.5C 9.50649,17.1341 9.33982,18.8008 9.5,20.5C 11.8268,20.3354 13.9935,19.6687 16,18.5C 16.3826,19.056 16.8826,19.3893 17.5,19.5C 18.8333,19.5 19.5,20.1667 19.5,21.5C 17.9275,22.6873 16.2608,23.6873 14.5,24.5C 12.5,24.5 10.5,24.5 8.5,24.5C 7.5,23.8333 6.5,23.1667 5.5,22.5C 4.7101,21.2058 3.7101,20.0391 2.5,19C 3.57683,18.5304 4.57683,18.6971 5.5,19.5C 6.20895,20.404 7.20895,20.7373 8.5,20.5C 8.5,18.5 8.5,16.5 8.5,14.5C 10.5,10.5 12.5,10.5 14.5,14.5 Z"/></g>
</svg>
