<?xml version="1.0" encoding="UTF-8"?>
<!DOCTYPE svg PUBLIC "-//W3C//DTD SVG 1.1//EN" "http://www.w3.org/Graphics/SVG/1.1/DTD/svg11.dtd">
<svg xmlns="http://www.w3.org/2000/svg" version="1.1" width="24px" height="24px" style="shape-rendering:geometricPrecision; text-rendering:geometricPrecision; image-rendering:optimizeQuality; fill-rule:evenodd; clip-rule:evenodd" xmlns:xlink="http://www.w3.org/1999/xlink">
<g><path style="opacity:0.823" fill="#f0b80b" d="M 6.5,-0.5 C 9.83333,-0.5 13.1667,-0.5 16.5,-0.5C 19.1667,1.5 21.5,3.83333 23.5,6.5C 23.5,9.83333 23.5,13.1667 23.5,16.5C 21.5,19.1667 19.1667,21.5 16.5,23.5C 13.1667,23.5 9.83333,23.5 6.5,23.5C 3.83333,21.5 1.5,19.1667 -0.5,16.5C -0.5,13.1667 -0.5,9.83333 -0.5,6.5C 1.5,3.83333 3.83333,1.5 6.5,-0.5 Z"/></g>
<g><path style="opacity:0.898" fill="#fef8e8" d="M 12.5,4.5 C 12.1412,6.37099 11.1412,7.87099 9.5,9C 8.18398,9.52811 7.51731,9.02811 7.5,7.5C 8.6485,4.91306 10.3152,3.91306 12.5,4.5 Z"/></g>
<g><path style="opacity:0.898" fill="#fefffe" d="M 15.5,7.5 C 13.8333,11.1667 11.1667,13.8333 7.5,15.5C 9.16667,11.8333 11.8333,9.16667 15.5,7.5 Z"/></g>
<g><path style="opacity:0.898" fill="#fef7e6" d="M 4.5,10.5 C 7.16667,11.1667 7.16667,11.8333 4.5,12.5C 3.16667,11.8333 3.16667,11.1667 4.5,10.5 Z"/></g>
<g><path style="opacity:0.898" fill="#f7d26c" d="M 12.5,4.5 C 13.5,5.5 14.5,6.5 15.5,7.5C 11.8333,9.16667 9.16667,11.8333 7.5,15.5C 6.5,14.5 5.5,13.5 4.5,12.5C 7.16667,11.8333 7.16667,11.1667 4.5,10.5C 5.5,9.5 6.5,8.5 7.5,7.5C 7.51731,9.02811 8.18398,9.52811 9.5,9C 11.1412,7.87099 12.1412,6.37099 12.5,4.5 Z"/></g>
<g><path style="opacity:0.898" fill="#fef6e0" d="M 17.5,9.5 C 19.0847,10.0024 19.5847,11.0024 19,12.5C 16.8333,14.6667 14.6667,16.8333 12.5,19C 11.5632,19.6917 10.8966,19.525 10.5,18.5C 12.4273,15.2327 14.7606,12.2327 17.5,9.5 Z"/></g>
<g><path style="opacity:0.898" fill="#f6cc5a" d="M 15.5,7.5 C 16.1667,8.16667 16.8333,8.83333 17.5,9.5C 14.7606,12.2327 12.4273,15.2327 10.5,18.5C 9.5,17.5 8.5,16.5 7.5,15.5C 11.1667,13.8333 13.8333,11.1667 15.5,7.5 Z"/></g>
</svg>
