<?xml version="1.0" encoding="UTF-8"?>
<svg xmlns="http://www.w3.org/2000/svg" xmlns:xlink="http://www.w3.org/1999/xlink" width="70px" height="70px" viewBox="0 0 70 70" version="1.1">
<defs>
<clipPath id="clip1">
  <path d="M 35 0 C 54.328125 0 70 15.671875 70 35 C 70 54.328125 54.328125 70 35 70 C 15.671875 70 0 54.328125 0 35 C 0 15.671875 15.671875 0 35 0 Z M 35 0 "/>
</clipPath>
<clipPath id="clip2">
  <path d="M 1 4 L 65 4 L 65 70 L 1 70 Z M 1 4 "/>
</clipPath>
<clipPath id="clip3">
  <path d="M 35 0 C 54.328125 0 70 15.671875 70 35 C 70 54.328125 54.328125 70 35 70 C 15.671875 70 0 54.328125 0 35 C 0 15.671875 15.671875 0 35 0 Z M 35 0 "/>
</clipPath>
<clipPath id="clip4">
  <path d="M 14 5 L 66 5 L 66 54 L 14 54 Z M 14 5 "/>
</clipPath>
<clipPath id="clip5">
  <path d="M 35 0 C 54.328125 0 70 15.671875 70 35 C 70 54.328125 54.328125 70 35 70 C 15.671875 70 0 54.328125 0 35 C 0 15.671875 15.671875 0 35 0 Z M 35 0 "/>
</clipPath>
<clipPath id="clip6">
  <path d="M 5 16 L 56 16 L 56 66 L 5 66 Z M 5 16 "/>
</clipPath>
<clipPath id="clip7">
  <path d="M 35 0 C 54.328125 0 70 15.671875 70 35 C 70 54.328125 54.328125 70 35 70 C 15.671875 70 0 54.328125 0 35 C 0 15.671875 15.671875 0 35 0 Z M 35 0 "/>
</clipPath>
<clipPath id="clip8">
  <path d="M 19 10 L 36 10 L 36 36 L 19 36 Z M 19 10 "/>
</clipPath>
<clipPath id="clip9">
  <path d="M 35 0 C 54.328125 0 70 15.671875 70 35 C 70 54.328125 54.328125 70 35 70 C 15.671875 70 0 54.328125 0 35 C 0 15.671875 15.671875 0 35 0 Z M 35 0 "/>
</clipPath>
<clipPath id="clip10">
  <path d="M 34 10 L 50 10 L 50 36 L 34 36 Z M 34 10 "/>
</clipPath>
<clipPath id="clip11">
  <path d="M 35 0 C 54.328125 0 70 15.671875 70 35 C 70 54.328125 54.328125 70 35 70 C 15.671875 70 0 54.328125 0 35 C 0 15.671875 15.671875 0 35 0 Z M 35 0 "/>
</clipPath>
<clipPath id="clip12">
  <path d="M 19 38 L 35 38 L 35 60 L 19 60 Z M 19 38 "/>
</clipPath>
<clipPath id="clip13">
  <path d="M 35 0 C 54.328125 0 70 15.671875 70 35 C 70 54.328125 54.328125 70 35 70 C 15.671875 70 0 54.328125 0 35 C 0 15.671875 15.671875 0 35 0 Z M 35 0 "/>
</clipPath>
<clipPath id="clip14">
  <path d="M 34 38 L 50 38 L 50 60 L 34 60 Z M 34 38 "/>
</clipPath>
<clipPath id="clip15">
  <path d="M 35 0 C 54.328125 0 70 15.671875 70 35 C 70 54.328125 54.328125 70 35 70 C 15.671875 70 0 54.328125 0 35 C 0 15.671875 15.671875 0 35 0 Z M 35 0 "/>
</clipPath>
<clipPath id="clip16">
  <path d="M 28 29 L 42 29 L 42 43 L 28 43 Z M 28 29 "/>
</clipPath>
<clipPath id="clip17">
  <path d="M 35 0 C 54.328125 0 70 15.671875 70 35 C 70 54.328125 54.328125 70 35 70 C 15.671875 70 0 54.328125 0 35 C 0 15.671875 15.671875 0 35 0 Z M 35 0 "/>
</clipPath>
<clipPath id="clip18">
  <path d="M 34 29 L 42 29 L 42 43 L 34 43 Z M 34 29 "/>
</clipPath>
<clipPath id="clip19">
  <path d="M 35 0 C 54.328125 0 70 15.671875 70 35 C 70 54.328125 54.328125 70 35 70 C 15.671875 70 0 54.328125 0 35 C 0 15.671875 15.671875 0 35 0 Z M 35 0 "/>
</clipPath>
</defs>
<g id="surface1">
<g clip-path="url(#clip1)" clip-rule="nonzero">
<path style=" stroke:none;fill-rule:nonzero;fill:rgb(32.156863%,30.980392%,100%);fill-opacity:1;" d="M 35 70 C 54.328125 70 70 54.328125 70 35 C 70 15.671875 54.328125 0 35 0 C 15.671875 0 0 15.671875 0 35 C 0 54.328125 15.671875 70 35 70 Z M 35 70 "/>
</g>
<g clip-path="url(#clip2)" clip-rule="nonzero">
<g clip-path="url(#clip3)" clip-rule="nonzero">
<path style=" stroke:none;fill-rule:nonzero;fill:rgb(0.392157%,57.254902%,81.568627%);fill-opacity:1;" d="M 50.078125 52.972656 C 42.949219 51.785156 24.65625 44.839844 20.894531 26.4375 C 19.011719 17.519531 20.789062 4.480469 20.789062 4.480469 C 6.847656 10.886719 -1.394531 26.21875 1.800781 41.964844 C 5.5625 60.367188 23.644531 72.363281 42.15625 68.625 C 51.695312 66.753906 59.339844 61.089844 64.320312 53.519531 C 61.835938 54.648438 57.207031 54.164062 50.078125 52.972656 Z M 50.078125 52.972656 "/>
</g>
</g>
<g clip-path="url(#clip4)" clip-rule="nonzero">
<g clip-path="url(#clip5)" clip-rule="nonzero">
<path style=" stroke:none;fill-rule:evenodd;fill:rgb(71.764706%,98.039216%,95.686275%);fill-opacity:1;" d="M 62.621094 48.121094 L 64.519531 49.46875 C 64.949219 49.773438 64.90625 50.421875 64.441406 50.664062 L 58.292969 53.867188 C 57.804688 54.121094 57.226562 53.738281 57.269531 53.191406 L 57.808594 46.007812 C 57.851562 45.460938 58.472656 45.171875 58.917969 45.488281 L 60.617188 46.695312 C 64.964844 36.820312 63.359375 24.882812 55.578125 16.445312 C 45.183594 5.167969 27.671875 4.371094 16.296875 14.597656 C 16.15625 14.726562 15.933594 14.71875 15.800781 14.578125 L 14.640625 13.320312 C 14.511719 13.175781 14.519531 12.953125 14.664062 12.824219 C 27.015625 1.695312 46.054688 2.554688 57.351562 14.808594 C 65.925781 24.105469 67.59375 37.308594 62.621094 48.121094 Z M 62.621094 48.121094 "/>
</g>
</g>
<g clip-path="url(#clip6)" clip-rule="nonzero">
<g clip-path="url(#clip7)" clip-rule="nonzero">
<path style=" stroke:none;fill-rule:evenodd;fill:rgb(89.411765%,76.078431%,100%);fill-opacity:1;" d="M 7.792969 22.105469 L 5.894531 20.757812 C 5.46875 20.453125 5.511719 19.804688 5.976562 19.5625 L 12.125 16.359375 C 12.613281 16.105469 13.1875 16.488281 13.148438 17.035156 L 12.605469 24.21875 C 12.566406 24.765625 11.945312 25.054688 11.5 24.738281 L 9.796875 23.53125 C 5.453125 33.40625 7.058594 45.34375 14.835938 53.785156 C 25.230469 65.058594 42.746094 65.855469 54.117188 55.628906 C 54.261719 55.5 54.484375 55.507812 54.617188 55.652344 L 55.773438 56.910156 C 55.90625 57.050781 55.898438 57.273438 55.753906 57.402344 C 43.402344 68.53125 24.359375 67.675781 13.0625 55.417969 C 4.492188 46.121094 2.824219 32.917969 7.792969 22.105469 Z M 7.792969 22.105469 "/>
</g>
</g>
<g clip-path="url(#clip8)" clip-rule="nonzero">
<g clip-path="url(#clip9)" clip-rule="nonzero">
<path style=" stroke:none;fill-rule:nonzero;fill:rgb(67.058824%,60%,100%);fill-opacity:1;" d="M 34.804688 10.769531 L 35.128906 11.875 L 35.128906 24.429688 L 19.933594 35.445312 Z M 34.804688 10.769531 "/>
</g>
</g>
<g clip-path="url(#clip10)" clip-rule="nonzero">
<g clip-path="url(#clip11)" clip-rule="nonzero">
<path style=" stroke:none;fill-rule:nonzero;fill:rgb(71.764706%,98.039216%,95.686275%);fill-opacity:1;" d="M 34.804688 10.769531 L 49.675781 35.445312 L 34.804688 24.6875 Z M 34.804688 10.769531 "/>
</g>
</g>
<g clip-path="url(#clip12)" clip-rule="nonzero">
<g clip-path="url(#clip13)" clip-rule="nonzero">
<path style=" stroke:none;fill-rule:nonzero;fill:rgb(0%,76.078431%,100%);fill-opacity:1;" d="M 34.804688 47.050781 L 34.988281 47.273438 L 34.988281 58.683594 L 34.804688 59.21875 L 19.921875 38.265625 Z M 34.804688 47.050781 "/>
</g>
</g>
<g clip-path="url(#clip14)" clip-rule="nonzero">
<g clip-path="url(#clip15)" clip-rule="nonzero">
<path style=" stroke:none;fill-rule:nonzero;fill:rgb(89.411765%,76.078431%,100%);fill-opacity:1;" d="M 34.804688 59.21875 L 34.804688 47.050781 L 49.675781 38.265625 Z M 34.804688 59.21875 "/>
</g>
</g>
<g clip-path="url(#clip16)" clip-rule="nonzero">
<g clip-path="url(#clip17)" clip-rule="nonzero">
<path style=" stroke:none;fill-rule:nonzero;fill:rgb(67.843137%,61.176471%,100%);fill-opacity:1;" d="M 41.132812 34.46875 L 41.132812 37.421875 L 28.585938 37.421875 L 28.585938 34.46875 Z M 36.457031 29.425781 L 36.457031 42.753906 L 33.277344 42.753906 L 33.277344 29.425781 Z M 36.457031 29.425781 "/>
</g>
</g>
<g clip-path="url(#clip18)" clip-rule="nonzero">
<g clip-path="url(#clip19)" clip-rule="nonzero">
<path style=" stroke:none;fill-rule:evenodd;fill:rgb(71.764706%,98.039216%,95.686275%);fill-opacity:1;" d="M 34.582031 29.425781 L 36.457031 29.425781 L 36.457031 34.46875 L 41.132812 34.46875 L 41.132812 37.421875 L 36.457031 37.421875 L 36.457031 42.753906 L 34.582031 42.753906 Z M 34.582031 29.425781 "/>
</g>
</g>
</g>
</svg>
