<?xml version="1.0" encoding="UTF-8"?>
<!DOCTYPE svg PUBLIC "-//W3C//DTD SVG 1.1//EN" "http://www.w3.org/Graphics/SVG/1.1/DTD/svg11.dtd">
<svg xmlns="http://www.w3.org/2000/svg" version="1.1" width="414px" height="414px" style="shape-rendering:geometricPrecision; text-rendering:geometricPrecision; image-rendering:optimizeQuality; fill-rule:evenodd; clip-rule:evenodd" xmlns:xlink="http://www.w3.org/1999/xlink">
<g><path style="opacity:1" fill="#524ffe" d="M 186.5,-0.5 C 199.833,-0.5 213.167,-0.5 226.5,-0.5C 307.834,10.6721 365.334,53.6721 399,128.5C 406.329,147.345 411.163,166.679 413.5,186.5C 413.5,199.833 413.5,213.167 413.5,226.5C 402.328,307.834 359.328,365.334 284.5,399C 265.655,406.329 246.321,411.163 226.5,413.5C 213.167,413.5 199.833,413.5 186.5,413.5C 105.166,402.328 47.6658,359.328 14,284.5C 6.6706,265.655 1.83727,246.321 -0.5,226.5C -0.5,213.167 -0.5,199.833 -0.5,186.5C 10.6721,105.166 53.6721,47.6658 128.5,14C 147.345,6.6706 166.679,1.83727 186.5,-0.5 Z"/></g>
<g><path style="opacity:1" fill="#b5f6f4" d="M 118.5,69.5 C 109.981,74.3393 101.981,80.006 94.5,86.5C 90.9668,83.8011 87.9668,80.6345 85.5,77C 87.8209,73.3458 90.8209,70.3458 94.5,68C 103.06,61.8958 111.726,56.0624 120.5,50.5C 162.496,28.6207 206.496,23.454 252.5,35C 307.184,50.5925 346.684,84.0925 371,135.5C 391.82,184.708 391.654,233.875 370.5,283C 373.689,286.848 377.523,290.015 382,292.5C 382.808,294.579 382.641,296.579 381.5,298.5C 369.167,305 356.833,311.5 344.5,318C 342.299,318.825 340.466,318.325 339,316.5C 338.825,300.746 339.825,285.079 342,269.5C 343.133,267.789 344.633,267.289 346.5,268C 350.304,270.305 353.97,272.805 357.5,275.5C 382.452,214.673 375.285,158.006 336,105.5C 297.653,60.4828 248.82,39.9828 189.5,44C 163.594,46.6876 139.927,55.1876 118.5,69.5 Z"/></g>
<g><path style="opacity:1" fill="#0592d0" d="M 120.5,50.5 C 111.726,56.0624 103.06,61.8958 94.5,68C 90.8209,70.3458 87.8209,73.3458 85.5,77C 87.9668,80.6345 90.9668,83.8011 94.5,86.5C 101.981,80.006 109.981,74.3393 118.5,69.5C 117.353,98.6583 118.853,127.658 123,156.5C 125.136,166.072 127.969,175.406 131.5,184.5C 127.569,192.19 123.236,199.69 118.5,207C 119.167,207.667 119.833,207.667 120.5,207C 125.712,202.948 131.045,199.115 136.5,195.5C 146.717,218.231 161.051,238.064 179.5,255C 188.57,262.186 197.57,269.353 206.5,276.5C 206.5,277.167 206.167,277.5 205.5,277.5C 175.933,260.125 146.6,243.125 117.5,226.5C 146.861,267.361 176.027,308.361 205,349.5C 205.399,349.272 205.565,348.938 205.5,348.5C 218.167,331.167 230.833,313.833 243.5,296.5C 284.178,313.058 326.511,320.558 370.5,319C 373.545,318.086 376.545,317.419 379.5,317C 326.673,390.389 255.34,419.722 165.5,405C 88.0566,384.889 37.2232,336.723 13,260.5C -6.7903,168.638 21.043,95.1378 96.5,40C 104.514,34.9914 112.848,30.4914 121.5,26.5C 121.833,26.8333 122.167,27.1667 122.5,27.5C 121.02,35.077 120.353,42.7436 120.5,50.5 Z"/></g>
<g><path style="opacity:1" fill="#b6f8f4" d="M 206.5,64.5 C 234.822,111.806 263.155,159.139 291.5,206.5C 291.333,206.833 291.167,207.167 291,207.5C 262.318,186.97 233.818,166.303 205.5,145.5C 205.169,118.328 205.502,91.3282 206.5,64.5 Z"/></g>
<g><path style="opacity:1" fill="#aa98fe" d="M 206.5,64.5 C 205.502,91.3282 205.169,118.328 205.5,145.5C 182.285,161.934 159.285,178.601 136.5,195.5C 131.045,199.115 125.712,202.948 120.5,207C 119.833,207.667 119.167,207.667 118.5,207C 123.236,199.69 127.569,192.19 131.5,184.5C 156.392,144.397 181.059,104.064 205.5,63.5C 206.107,63.6236 206.44,63.9569 206.5,64.5 Z"/></g>
<g><path style="opacity:1" fill="#e2c1fe" d="M 70.5,96.5 C 72.4672,96.2606 74.3005,96.5939 76,97.5C 75.9994,112.848 75.3327,128.181 74,143.5C 72.9384,144.899 71.605,145.899 70,146.5C 65.5007,144.584 61.5007,141.917 58,138.5C 44.5311,167.449 40.1978,197.782 45,229.5C 57.7937,297.964 97.2937,343.131 163.5,365C 222.298,379.179 274.798,367.012 321,328.5C 325.303,330.774 327.969,334.107 329,338.5C 288.701,374.264 241.535,389.431 187.5,384C 122.591,374.06 75.4243,339.894 46,281.5C 24.2788,231.323 24.1122,181.157 45.5,131C 40.8663,127.368 36.533,123.368 32.5,119C 33.1007,117.395 34.1007,116.062 35.5,115C 47.2282,108.804 58.8948,102.638 70.5,96.5 Z"/></g>
<g><path style="opacity:1" fill="#ac9bff" d="M 203.5,173.5 C 203.5,199.833 203.5,226.167 203.5,252.5C 201.167,252.5 198.833,252.5 196.5,252.5C 196.5,241.833 196.5,231.167 196.5,220.5C 187.167,220.5 177.833,220.5 168.5,220.5C 168.5,214.833 168.5,209.167 168.5,203.5C 177.833,203.5 187.167,203.5 196.5,203.5C 196.5,193.5 196.5,183.5 196.5,173.5C 198.833,173.5 201.167,173.5 203.5,173.5 Z"/></g>
<g><path style="opacity:1" fill="#b6f5f4" d="M 203.5,173.5 C 207.5,173.5 211.5,173.5 215.5,173.5C 215.5,183.5 215.5,193.5 215.5,203.5C 224.5,203.5 233.5,203.5 242.5,203.5C 242.5,209.167 242.5,214.833 242.5,220.5C 233.167,220.5 223.833,220.5 214.5,220.5C 214.5,231.167 214.5,241.833 214.5,252.5C 210.833,252.5 207.167,252.5 203.5,252.5C 203.5,226.167 203.5,199.833 203.5,173.5 Z"/></g>
<g><path style="opacity:1" fill="#6c64ff" d="M 168.5,220.5 C 177.833,220.5 187.167,220.5 196.5,220.5C 196.5,231.167 196.5,241.833 196.5,252.5C 195.506,242.347 195.172,232.014 195.5,221.5C 186.318,221.827 177.318,221.493 168.5,220.5 Z"/></g>
<g><path style="opacity:1" fill="#89acf8" d="M 242.5,220.5 C 233.682,221.493 224.682,221.827 215.5,221.5C 215.828,232.014 215.494,242.347 214.5,252.5C 214.5,241.833 214.5,231.167 214.5,220.5C 223.833,220.5 233.167,220.5 242.5,220.5 Z"/></g>
<g><path style="opacity:1" fill="#00c1fe" d="M 205.5,277.5 C 205.5,301.167 205.5,324.833 205.5,348.5C 205.565,348.938 205.399,349.272 205,349.5C 176.027,308.361 146.861,267.361 117.5,226.5C 146.6,243.125 175.933,260.125 205.5,277.5 Z"/></g>
<g><path style="opacity:1" fill="#e2c1fe" d="M 243.5,296.5 C 230.833,313.833 218.167,331.167 205.5,348.5C 205.5,324.833 205.5,301.167 205.5,277.5C 206.167,277.5 206.5,277.167 206.5,276.5C 234.466,260.222 262.466,243.888 290.5,227.5C 291.521,228.002 291.688,228.668 291,229.5C 274.666,251.511 258.832,273.845 243.5,296.5 Z"/></g>
</svg>
