<svg width="70" height="70" viewBox="0 0 170 170" fill="none" xmlns="http://www.w3.org/2000/svg">
  <g clip-path="url(#clip0_366_825)">
    <path d="M85 170C131.944 170 170 131.944 170 85C170 38.0558 131.944 0 85 0C38.0558 0 0 38.0558 0 85C0 131.944 38.0558 170 85 170Z" fill="#524FFF"/>
    <path d="M121.616 128.651C104.301 125.766 59.8757 108.894 50.7403 64.2049C46.1706 42.5512 50.4852 10.8796 50.4852 10.8796C16.632 26.4381 -3.38881 63.6768 4.37555 101.915C13.5109 146.604 57.4257 175.737 102.376 166.656C125.545 162.118 144.11 148.358 156.204 129.974C150.175 132.72 138.931 131.537 121.616 128.651Z" fill="#0192D0"/>
    <path fill-rule="evenodd" clip-rule="evenodd" d="M152.084 116.865L156.695 120.14C157.734 120.877 157.626 122.452 156.496 123.041L141.569 130.818C140.383 131.436 138.981 130.511 139.081 129.178L140.395 111.732C140.495 110.409 142.001 109.702 143.082 110.471L147.217 113.407C157.772 89.42 153.871 60.4297 134.98 39.9357C109.735 12.5484 67.2009 10.6163 39.5828 35.4503C39.2328 35.7651 38.6912 35.7461 38.3721 35.4L35.5573 32.3463C35.2383 32.0002 35.2627 31.458 35.6125 31.1429C65.6096 4.11644 111.85 6.19953 139.287 35.9656C160.101 58.546 164.154 90.6104 152.084 116.865Z" fill="#B7FAF4"/>
    <path fill-rule="evenodd" clip-rule="evenodd" d="M18.9276 53.6877L14.3167 50.4126C13.2779 49.6748 13.3862 48.0998 14.5161 47.5111L29.4432 39.734C30.6285 39.1165 32.0311 40.0411 31.9307 41.3738L30.6165 58.82C30.5169 60.1428 29.011 60.8499 27.9295 60.0818L23.7952 57.1451C13.2402 81.1323 17.141 110.123 36.0318 130.617C61.2766 158.004 103.811 159.936 131.429 135.102C131.779 134.787 132.321 134.806 132.64 135.152L135.454 138.206C135.773 138.552 135.749 139.094 135.399 139.409C105.402 166.436 59.1622 164.353 31.7247 134.587C10.9107 112.006 6.85784 79.9419 18.9276 53.6877Z" fill="#E4C2FF"/>
    <path d="M84.5227 26.1539L85.3115 28.8351V59.3284L48.4072 86.0782L84.5227 26.1539Z" fill="#AB99FF"/>
    <path d="M84.5222 26.1539L120.638 86.0781L84.5222 59.9531V26.1539Z" fill="#B7FAF4"/>
    <path d="M84.5223 114.264L84.9668 114.806V142.521L84.5223 143.82L48.3854 92.9271L84.5223 114.264Z" fill="#00C2FF"/>
    <path d="M84.5222 143.819V114.264L120.638 92.9267L84.5222 143.819Z" fill="#E4C2FF"/>
    <path d="M99.8961 83.7093V90.8846H69.4238V83.7093H99.8961ZM88.5377 71.4654V103.831H80.8128V71.4654H88.5377Z" fill="#AD9CFF"/>
    <path fill-rule="evenodd" clip-rule="evenodd" d="M83.9881 71.4654H88.5376V83.7093H99.896V90.8846H88.5376V103.831H83.9881V90.8846V83.7093V71.4654Z" fill="#B7FAF4"/>
  </g>
  <defs>
    <clipPath id="clip0_366_825">
      <rect width="170" height="170" rx="85" fill="white"/>
    </clipPath>
  </defs>
</svg>
