<svg
  xmlns="http://www.w3.org/2000/svg"
  width="41"
  height="40"
  viewBox="0 0 41 40"
  fill="none"
>
  <path
    d="M20.9143 40C31.96 40 40.9143 31.0457 40.9143 20C40.9143 8.9543 31.96 0 20.9143 0C9.86861 0 0.914307 8.9543 0.914307 20C0.914307 31.0457 9.86861 40 20.9143 40Z"
    fill="#004CA8"
  />
  <path
    d="M31.3749 30.0226C22.5066 31.8142 13.8425 26.0665 12.0402 17.2497C11.1386 12.9775 12.0645 8.7106 14.2673 5.26489C7.58827 8.33449 3.63829 15.6814 5.17015 23.2257C6.9725 32.0425 15.6366 37.7902 24.5049 35.9986C29.0761 35.1032 32.7388 32.3884 35.1248 28.7615C33.9354 29.3032 32.7463 29.754 31.3749 30.0226Z"
    fill="#002C7F"
  />
  <path
    d="M19.8654 28.9599C17.208 28.6647 15.4386 27.0374 14.9932 24.7868C14.8689 24.1584 15.402 23.6337 16.0426 23.6337C16.6831 23.6337 17.1768 24.1636 17.346 24.7814C17.7431 26.232 18.9566 27.07 20.8963 27.07C23.3017 27.07 24.5903 25.7814 24.5903 24.235C24.5903 19.8538 15.0546 22.0874 15.0546 15.6444C15.0546 13.4967 17.0305 11.2631 19.8654 10.9195V9.33021C19.8654 8.7846 20.3077 8.34229 20.8533 8.34229C21.399 8.34229 21.8413 8.78459 21.8413 9.33021V10.9195C24.1096 11.2854 25.817 12.9601 26.2734 15.0942C26.4073 15.7206 25.8751 16.2457 25.2346 16.2457C24.5941 16.2457 24.0955 15.7136 23.9003 15.1036C23.4616 13.7324 22.2445 12.8094 20.8104 12.8094C18.6627 12.8094 17.2882 14.2699 17.2882 15.6444C17.2882 20.0256 26.8239 17.792 26.8239 24.235C26.8239 26.5545 24.9339 28.6163 21.8413 29.0458V30.6351C21.8413 31.1807 21.399 31.623 20.8533 31.623C20.3077 31.623 19.8654 31.1807 19.8654 30.6351V28.9599Z"
    fill="white"
  />
  <path
    fill-rule="evenodd"
    clip-rule="evenodd"
    d="M36.3104 27.2103L37.3599 27.9558C37.5964 28.1237 37.5717 28.4822 37.3145 28.6162L33.9168 30.3864C33.647 30.527 33.3278 30.3165 33.3506 30.0132L33.6497 26.0421C33.6724 25.741 34.0152 25.58 34.2614 25.7549L35.2024 26.4233C37.6049 20.9633 36.717 14.3646 32.4171 9.69972C26.6709 3.46582 16.9893 3.02603 10.7028 8.67876C10.6231 8.7504 10.4999 8.74608 10.4272 8.66729L9.78654 7.97221C9.71391 7.89343 9.71948 7.77002 9.79909 7.6983C16.627 1.54653 27.1522 2.02069 33.3975 8.79604C38.1352 13.9358 39.0577 21.2343 36.3104 27.2103Z"
    fill="#BEE179"
  />
  <path
    fill-rule="evenodd"
    clip-rule="evenodd"
    d="M6.00129 12.8296L4.95175 12.0842C4.71532 11.9162 4.73997 11.5577 4.99716 11.4237L8.39486 9.6535C8.66466 9.51293 8.98391 9.72339 8.96106 10.0268L8.66193 13.9979C8.63925 14.299 8.29649 14.4599 8.05032 14.2851L7.10925 13.6166C4.70673 19.0766 5.59463 25.6753 9.89456 30.3402C15.6408 36.5741 25.3224 37.0139 31.6089 31.3612C31.6885 31.2895 31.8118 31.2938 31.8844 31.3726L32.5251 32.0677C32.5978 32.1465 32.5922 32.2699 32.5126 32.3416C25.6846 38.4934 15.1595 38.0192 8.91418 31.2439C4.1765 26.1041 3.25398 18.8056 6.00129 12.8296Z"
    fill="#BEE179"
  />
</svg>
