<?xml version="1.0" encoding="UTF-8"?>
<!DOCTYPE svg PUBLIC "-//W3C//DTD SVG 1.1//EN" "http://www.w3.org/Graphics/SVG/1.1/DTD/svg11.dtd">
<svg xmlns="http://www.w3.org/2000/svg" version="1.1" width="414px" height="415px" style="shape-rendering:geometricPrecision; text-rendering:geometricPrecision; image-rendering:optimizeQuality; fill-rule:evenodd; clip-rule:evenodd" xmlns:xlink="http://www.w3.org/1999/xlink">
<g><path style="opacity:0.987" fill="#524ffe" d="M 189.5,-0.5 C 200.833,-0.5 212.167,-0.5 223.5,-0.5C 287.134,6.39102 337.967,35.391 376,86.5C 396.709,116.798 409.209,150.132 413.5,186.5C 413.5,199.833 413.5,213.167 413.5,226.5C 402.781,306.71 360.781,363.876 287.5,398C 264.608,407.408 240.941,412.908 216.5,414.5C 209.833,414.5 203.167,414.5 196.5,414.5C 112.722,406.866 52.5554,365.199 16,289.5C 7.49768,269.152 1.99768,248.152 -0.5,226.5C -0.5,213.167 -0.5,199.833 -0.5,186.5C 7.9123,121.486 38.9123,70.3191 92.5,33C 122.245,14.1412 154.579,2.97452 189.5,-0.5 Z"/></g>
<g><path style="opacity:1" fill="#8460ed" d="M 120.5,50.5 C 111.404,56.413 102.404,62.5797 93.5,69C 90.7284,71.6877 88.0617,74.3543 85.5,77C 88.0523,80.7157 91.0523,83.8823 94.5,86.5C 101.938,80.0654 109.938,74.3987 118.5,69.5C 118.1,92.5292 118.6,115.529 120,138.5C 122.067,153.912 125.734,168.912 131,183.5C 131.383,184.056 131.883,184.389 132.5,184.5C 127.172,192.169 122.672,200.169 119,208.5C 124.711,203.949 130.544,199.616 136.5,195.5C 151.953,229.624 175.619,256.624 207.5,276.5C 207.158,277.338 206.492,277.672 205.5,277.5C 176.202,260.359 146.869,243.526 117.5,227C 146.722,267.222 175.555,307.722 204,348.5C 204.977,349.774 205.811,349.774 206.5,348.5C 218.833,331.167 231.167,313.833 243.5,296.5C 274.615,310.114 306.948,317.448 340.5,318.5C 341.5,318.5 342.5,318.5 343.5,318.5C 343.918,319.222 344.584,319.722 345.5,320C 356.002,321.125 366.336,320.292 376.5,317.5C 377.167,317.833 377.833,318.167 378.5,318.5C 340.955,373.12 288.955,403.287 222.5,409C 144.768,411.716 83.6018,381.549 39,318.5C 4.26839,262.202 -2.73161,202.535 18,139.5C 37.6902,88.3081 72.1902,50.6415 121.5,26.5C 121.833,27.1667 122.167,27.8333 122.5,28.5C 121.305,35.7839 120.638,43.1173 120.5,50.5 Z"/></g>
<g><path style="opacity:1" fill="#fbfbff" d="M 343.5,318.5 C 342.5,318.5 341.5,318.5 340.5,318.5C 339.883,318.389 339.383,318.056 339,317.5C 338.577,301.421 339.577,285.421 342,269.5C 344.064,268.409 346.231,268.242 348.5,269C 351.167,271 353.833,273 356.5,275C 357.332,275.688 357.998,275.521 358.5,274.5C 383.291,209.504 373.458,150.504 329,97.5C 276.763,45.5487 215.597,31.3821 145.5,55C 135.833,58.8298 126.833,63.6631 118.5,69.5C 109.938,74.3987 101.938,80.0654 94.5,86.5C 91.0523,83.8823 88.0523,80.7157 85.5,77C 88.0617,74.3543 90.7284,71.6877 93.5,69C 102.404,62.5797 111.404,56.413 120.5,50.5C 180.961,21.2124 240.627,22.7124 299.5,55C 354.738,90.6202 383.738,141.454 386.5,207.5C 386.544,233.987 381.211,259.32 370.5,283.5C 374.135,286.962 377.968,290.295 382,293.5C 382.667,295.167 382.667,296.833 382,298.5C 369.274,305.397 356.441,312.064 343.5,318.5 Z"/></g>
<g><path style="opacity:1" fill="#524ffe" d="M 340.5,318.5 C 306.948,317.448 274.615,310.114 243.5,296.5C 259.412,273.687 275.578,251.02 292,228.5C 292.667,227.833 292.667,227.167 292,226.5C 264.053,243.556 235.886,260.223 207.5,276.5C 175.619,256.624 151.953,229.624 136.5,195.5C 156.955,180.885 177.289,166.051 197.5,151C 200.286,148.94 203.286,147.44 206.5,146.5C 234.265,166.417 261.932,186.583 289.5,207C 290.332,207.688 290.998,207.521 291.5,206.5C 263.407,159.306 235.073,112.306 206.5,65.5C 206.103,64.475 205.437,64.3083 204.5,65C 180.363,104.778 156.363,144.611 132.5,184.5C 131.883,184.389 131.383,184.056 131,183.5C 125.734,168.912 122.067,153.912 120,138.5C 118.6,115.529 118.1,92.5292 118.5,69.5C 126.833,63.6631 135.833,58.8298 145.5,55C 215.597,31.3821 276.763,45.5487 329,97.5C 373.458,150.504 383.291,209.504 358.5,274.5C 357.998,275.521 357.332,275.688 356.5,275C 353.833,273 351.167,271 348.5,269C 346.231,268.242 344.064,268.409 342,269.5C 339.577,285.421 338.577,301.421 339,317.5C 339.383,318.056 339.883,318.389 340.5,318.5 Z"/></g>
<g><path style="opacity:1" fill="#fdfdff" d="M 206.5,65.5 C 235.073,112.306 263.407,159.306 291.5,206.5C 290.998,207.521 290.332,207.688 289.5,207C 261.932,186.583 234.265,166.417 206.5,146.5C 205.173,119.402 205.173,92.4023 206.5,65.5 Z"/></g>
<g><path style="opacity:1" fill="#dcb4fe" d="M 206.5,65.5 C 205.173,92.4023 205.173,119.402 206.5,146.5C 203.286,147.44 200.286,148.94 197.5,151C 177.289,166.051 156.955,180.885 136.5,195.5C 130.544,199.616 124.711,203.949 119,208.5C 122.672,200.169 127.172,192.169 132.5,184.5C 156.363,144.611 180.363,104.778 204.5,65C 205.437,64.3083 206.103,64.475 206.5,65.5 Z"/></g>
<g><path style="opacity:1" fill="#ecd7fe" d="M 70.5,96.5 C 75.3306,95.6671 77.664,97.6671 77.5,102.5C 75.9512,116.467 74.7846,130.467 74,144.5C 72.1917,146.396 70.025,146.896 67.5,146C 64.3372,143.584 61.0039,141.418 57.5,139.5C 36.4244,190.776 39.2577,240.776 66,289.5C 98.3927,341.485 145.393,368.819 207,371.5C 250.286,370.744 288.286,356.411 321,328.5C 325.763,330.89 328.43,334.556 329,339.5C 287.149,375.43 238.649,390.264 183.5,384C 109.144,369.971 59.977,327.138 36,255.5C 24.5815,212.75 27.7481,171.25 45.5,131C 42.1134,127.947 38.4467,125.28 34.5,123C 31.6397,119.97 31.973,117.303 35.5,115C 47.2282,108.804 58.8948,102.638 70.5,96.5 Z"/></g>
<g><path style="opacity:1" fill="#fcfbff" d="M 196.5,174.5 C 202.5,174.5 208.5,174.5 214.5,174.5C 214.173,184.348 214.506,194.014 215.5,203.5C 224.5,203.5 233.5,203.5 242.5,203.5C 242.5,209.5 242.5,215.5 242.5,221.5C 233.5,221.5 224.5,221.5 215.5,221.5C 215.5,231.833 215.5,242.167 215.5,252.5C 209.167,252.5 202.833,252.5 196.5,252.5C 196.5,242.167 196.5,231.833 196.5,221.5C 187.167,221.5 177.833,221.5 168.5,221.5C 168.5,215.5 168.5,209.5 168.5,203.5C 177.833,203.5 187.167,203.5 196.5,203.5C 196.5,193.833 196.5,184.167 196.5,174.5 Z"/></g>
<g><path style="opacity:1" fill="#bdbcff" d="M 196.5,174.5 C 202.645,173.51 208.978,173.177 215.5,173.5C 215.5,183.5 215.5,193.5 215.5,203.5C 214.506,194.014 214.173,184.348 214.5,174.5C 208.5,174.5 202.5,174.5 196.5,174.5 Z"/></g>
<g><path style="opacity:1" fill="#a694fe" d="M 205.5,277.5 C 205.169,301.339 205.502,325.006 206.5,348.5C 205.811,349.774 204.977,349.774 204,348.5C 175.555,307.722 146.722,267.222 117.5,227C 146.869,243.526 176.202,260.359 205.5,277.5 Z"/></g>
<g><path style="opacity:1" fill="#e2c0fe" d="M 243.5,296.5 C 231.167,313.833 218.833,331.167 206.5,348.5C 205.502,325.006 205.169,301.339 205.5,277.5C 206.492,277.672 207.158,277.338 207.5,276.5C 235.886,260.223 264.053,243.556 292,226.5C 292.667,227.167 292.667,227.833 292,228.5C 275.578,251.02 259.412,273.687 243.5,296.5 Z"/></g>
</svg>
