<svg width="31" height="31" viewBox="0 0 31 31" fill="none" xmlns="http://www.w3.org/2000/svg">
<mask id="path-1-outside-1_2859_27912" maskUnits="userSpaceOnUse" x="0" y="0" width="28" height="28" fill="black">
<rect fill="white" width="28" height="28"/>
<path d="M14 26C14 26.5523 13.5516 27.004 13.001 26.9616C10.7818 26.7905 8.63753 26.0519 6.77759 24.8091C4.63975 23.3806 2.9735 21.3503 1.98957 18.9749C1.00563 16.5994 0.748183 13.9856 1.24979 11.4638C1.7514 8.94207 2.98953 6.62569 4.80761 4.80761C6.6257 2.98953 8.94207 1.7514 11.4638 1.24979C13.9856 0.748183 16.5994 1.00563 18.9749 1.98957C21.3503 2.97351 23.3806 4.63975 24.8091 6.77759C26.0519 8.63753 26.7905 10.7818 26.9616 13.001C27.004 13.5516 26.5523 14 26 14L15 14C14.4477 14 14 14.4477 14 15L14 26Z"/>
</mask>
<path d="M14 26C14 26.5523 13.5516 27.004 13.001 26.9616C10.7818 26.7905 8.63753 26.0519 6.77759 24.8091C4.63975 23.3806 2.9735 21.3503 1.98957 18.9749C1.00563 16.5994 0.748183 13.9856 1.24979 11.4638C1.7514 8.94207 2.98953 6.62569 4.80761 4.80761C6.6257 2.98953 8.94207 1.7514 11.4638 1.24979C13.9856 0.748183 16.5994 1.00563 18.9749 1.98957C21.3503 2.97351 23.3806 4.63975 24.8091 6.77759C26.0519 8.63753 26.7905 10.7818 26.9616 13.001C27.004 13.5516 26.5523 14 26 14L15 14C14.4477 14 14 14.4477 14 15L14 26Z" stroke-width="2" mask="url(#path-1-outside-1_2859_27912)"/>
<mask id="path-2-outside-2_2859_27912" maskUnits="userSpaceOnUse" x="16" y="16" width="15" height="15" fill="black">
<rect fill="white" x="16" y="16" width="15" height="15"/>
<path d="M29 17C29.5523 17 30.004 17.4484 29.9616 17.9991C29.7241 21.0814 28.3938 23.991 26.1924 26.1924C23.991 28.3938 21.0814 29.7241 17.9991 29.9616C17.4484 30.004 17 29.5523 17 29L17 18C17 17.4477 17.4477 17 18 17L29 17Z"/>
</mask>
<path d="M29 17C29.5523 17 30.004 17.4484 29.9616 17.9991C29.7241 21.0814 28.3938 23.991 26.1924 26.1924C23.991 28.3938 21.0814 29.7241 17.9991 29.9616C17.4484 30.004 17 29.5523 17 29L17 18C17 17.4477 17.4477 17 18 17L29 17Z" stroke-width="2" mask="url(#path-2-outside-2_2859_27912)"/>
</svg>
