<svg width="76" height="89" viewBox="0 0 76 89" fill="none" xmlns="http://www.w3.org/2000/svg">
<path d="M0.673492 28.4343C0.559967 28.4965 0.467785 28.5484 0.397736 28.5886L0.398243 46.3114L0.398716 58.6238L0.39896 62.6848C0.399006 63.2249 0.399055 63.6356 0.399086 63.8965C0.399109 64.112 0.399124 64.2252 0.399113 64.2246C0.423412 65.4037 1.00759 66.5011 2.10802 67.4977C3.21181 68.4975 4.81749 69.378 6.82785 70.1064C10.8469 71.5627 16.4053 72.3834 22.5641 72.3834C28.7158 72.3834 34.2683 71.569 38.2859 70.1201C40.2956 69.3954 41.9018 68.5188 43.0077 67.5224C44.1103 66.529 44.6981 65.4345 44.7277 64.2572C44.7276 64.2579 44.7277 64.1499 44.7277 63.9437C44.7278 63.6835 44.7279 63.2673 44.7279 62.7161L44.7284 58.6509L44.7294 46.3285L44.7306 28.5874C44.6606 28.547 44.5683 28.4949 44.4545 28.4323C44.1593 28.27 43.7218 28.0388 43.157 27.7617C42.0272 27.2074 40.39 26.4704 38.366 25.7342C34.3159 24.261 28.7286 22.7953 22.5641 22.7953C16.3997 22.7953 10.8125 24.2625 6.76233 25.7365C4.73831 26.4731 3.1011 27.2103 1.97128 27.7643C1.40641 28.0413 0.968781 28.2723 0.673492 28.4343Z" fill="url(#paint0_linear_102_460)" stroke="#0F172A" stroke-width="0.7"/>
<path d="M0.513924 29.1414C0.513924 30.2611 1.07707 31.3627 2.16993 32.4012C3.26358 33.4405 4.86482 34.3925 6.87241 35.1994C10.8857 36.8124 16.454 37.818 22.6225 37.818C28.7909 37.818 34.3593 36.8124 38.3726 35.1994C40.3802 34.3925 41.9814 33.4405 43.0751 32.4012C44.1679 31.3627 44.7311 30.2611 44.7311 29.1414C44.7311 28.0217 44.1679 26.92 43.0751 25.8815C41.9814 24.8423 40.3802 23.8902 38.3726 23.0833C34.3593 21.4703 28.7909 20.4647 22.6225 20.4647C16.454 20.4647 10.8857 21.4703 6.87241 23.0833C4.86482 23.8902 3.26358 24.8423 2.16993 25.8815C1.07707 26.92 0.513924 28.0217 0.513924 29.1414Z" fill="url(#paint1_linear_102_460)" stroke="#0F172A" stroke-width="0.7"/>
<path d="M4.70925 28.4095C4.70925 29.0861 5.12914 29.7891 6.02503 30.4807C6.91612 31.1687 8.22748 31.8033 9.87925 32.3427C13.1789 33.4201 17.7595 34.0924 22.8348 34.0924C27.9101 34.0924 32.4906 33.4201 35.7903 32.3427C37.4421 31.8033 38.7534 31.1687 39.6445 30.4807C40.5404 29.7891 40.9603 29.0861 40.9603 28.4095C40.9603 27.7329 40.5404 27.03 39.6445 26.3383C38.7534 25.6504 37.4421 25.0157 35.7903 24.4764C32.4906 23.3989 27.9101 22.7267 22.8348 22.7267C17.7595 22.7267 13.1789 23.3989 9.87925 24.4764C8.22748 25.0157 6.91612 25.6504 6.02503 26.3383C5.12914 27.03 4.70925 27.7329 4.70925 28.4095Z" fill="#0F172A" stroke="#0F172A" stroke-width="0.7"/>
<path d="M4.70925 29.1642C4.70925 29.8408 5.12914 30.5437 6.02503 31.2354C6.91612 31.9233 8.22748 32.558 9.87925 33.0973C13.1789 34.1748 17.7595 34.847 22.8348 34.847C27.9101 34.847 32.4906 34.1748 35.7903 33.0973C37.4421 32.558 38.7534 31.9233 39.6445 31.2354C40.5404 30.5437 40.9603 29.8408 40.9603 29.1642C40.9603 28.4876 40.5404 27.7846 39.6445 27.093C38.7534 26.405 37.4421 25.7704 35.7903 25.231C32.4906 24.1536 27.9101 23.4813 22.8348 23.4813C17.7595 23.4813 13.1789 24.1536 9.87925 25.231C8.22748 25.7704 6.91612 26.405 6.02503 27.093C5.12914 27.7846 4.70925 28.4876 4.70925 29.1642Z" fill="#FFDE76" stroke="#0F172A" stroke-width="0.7"/>
<path d="M0.397976 29.1418C0.397976 30.2612 0.962414 31.3628 2.0582 32.4014C3.15475 33.4407 4.76024 34.3928 6.77312 35.1998C10.797 36.8129 16.3799 37.8185 22.5644 37.8185C28.7489 37.8185 34.3318 36.8129 38.3557 35.1998C40.3686 34.3928 41.974 33.4407 43.0706 32.4014C44.1664 31.3628 44.7308 30.2612 44.7308 29.1418C44.7308 28.0225 44.1664 26.9209 43.0706 25.8823C41.974 24.843 40.3686 23.8909 38.3557 23.0839C34.3318 21.4708 28.7489 20.4652 22.5644 20.4652C16.3799 20.4652 10.797 21.4708 6.77312 23.0839C4.76024 23.8909 3.15475 24.843 2.0582 25.8823C0.962414 26.9209 0.397976 28.0225 0.397976 29.1418Z" fill="url(#paint2_linear_102_460)" stroke="#0F172A" stroke-width="0.7"/>
<path d="M4.60454 28.411C4.60454 29.0872 5.02531 29.7901 5.92372 30.4819C6.81723 31.17 8.1321 31.8047 9.78823 32.3441C13.0966 33.4216 17.6891 34.0938 22.7777 34.0938C27.8662 34.0938 32.4587 33.4216 35.7671 32.3441C37.4232 31.8047 38.7381 31.17 39.6316 30.4819C40.53 29.7901 40.9508 29.0872 40.9508 28.411C40.9508 27.7348 40.53 27.0319 39.6316 26.3401C38.7381 25.652 37.4232 25.0173 35.7671 24.4779C32.4587 23.4004 27.8662 22.7282 22.7777 22.7282C17.6891 22.7282 13.0966 23.4004 9.78823 24.4779C8.1321 25.0173 6.81723 25.652 5.92372 26.3401C5.02531 27.0319 4.60454 27.7348 4.60454 28.411Z" fill="#0F172A" stroke="#0F172A" stroke-width="0.7"/>
<path d="M4.60454 29.1647C4.60454 29.8409 5.02531 30.5438 5.92372 31.2356C6.81723 31.9236 8.1321 32.5583 9.78823 33.0977C13.0966 34.1752 17.6891 34.8475 22.7777 34.8475C27.8662 34.8475 32.4587 34.1752 35.7671 33.0977C37.4232 32.5583 38.7381 31.9236 39.6316 31.2356C40.53 30.5438 40.9508 29.8409 40.9508 29.1647C40.9508 28.4885 40.53 27.7855 39.6316 27.0937C38.7381 26.4057 37.4232 25.771 35.7671 25.2316C32.4587 24.1541 27.8662 23.4818 22.7777 23.4818C17.6891 23.4818 13.0966 24.1541 9.78823 25.2316C8.1321 25.771 6.81723 26.4057 5.92372 27.0937C5.02531 27.7855 4.60454 28.4885 4.60454 29.1647Z" fill="#FFDE76" stroke="#0F172A" stroke-width="0.7"/>
<g filter="url(#filter0_d_102_460)">
<mask id="path-8-inside-1_102_460" fill="white">
<path fill-rule="evenodd" clip-rule="evenodd" d="M21.3891 24.5359C21.0025 24.5359 20.6891 24.8493 20.6891 25.2359V27.625H14.7566C14.37 27.625 14.0566 27.9384 14.0566 28.325V29.0514C14.0566 29.438 14.37 29.7514 14.7566 29.7514H20.6891V31.6327C20.6891 32.0193 21.0025 32.3327 21.3891 32.3327H24.9635C25.3501 32.3327 25.6635 32.0193 25.6635 31.6327V29.7514H31.5961C31.9827 29.7514 32.2961 29.438 32.2961 29.0514V28.325C32.2961 27.9384 31.9827 27.625 31.5961 27.625H25.6635V25.2359C25.6635 24.8493 25.3501 24.5359 24.9635 24.5359H21.3891Z"/>
</mask>
<path fill-rule="evenodd" clip-rule="evenodd" d="M21.3891 24.5359C21.0025 24.5359 20.6891 24.8493 20.6891 25.2359V27.625H14.7566C14.37 27.625 14.0566 27.9384 14.0566 28.325V29.0514C14.0566 29.438 14.37 29.7514 14.7566 29.7514H20.6891V31.6327C20.6891 32.0193 21.0025 32.3327 21.3891 32.3327H24.9635C25.3501 32.3327 25.6635 32.0193 25.6635 31.6327V29.7514H31.5961C31.9827 29.7514 32.2961 29.438 32.2961 29.0514V28.325C32.2961 27.9384 31.9827 27.625 31.5961 27.625H25.6635V25.2359C25.6635 24.8493 25.3501 24.5359 24.9635 24.5359H21.3891Z" fill="url(#paint3_linear_102_460)"/>
<path d="M20.6891 27.625V28.125H21.1891V27.625H20.6891ZM20.6891 29.7514H21.1891V29.2514H20.6891V29.7514ZM25.6635 29.7514V29.2514H25.1635V29.7514H25.6635ZM25.6635 27.625H25.1635V28.125H25.6635V27.625ZM21.1891 25.2359C21.1891 25.1254 21.2787 25.0359 21.3891 25.0359V24.0359C20.7264 24.0359 20.1891 24.5731 20.1891 25.2359H21.1891ZM21.1891 27.625V25.2359H20.1891V27.625H21.1891ZM14.7566 28.125H20.6891V27.125H14.7566V28.125ZM14.5566 28.325C14.5566 28.2145 14.6462 28.125 14.7566 28.125V27.125C14.0939 27.125 13.5566 27.6622 13.5566 28.325H14.5566ZM14.5566 29.0514V28.325H13.5566V29.0514H14.5566ZM14.7566 29.2514C14.6462 29.2514 14.5566 29.1618 14.5566 29.0514H13.5566C13.5566 29.7141 14.0939 30.2514 14.7566 30.2514V29.2514ZM20.6891 29.2514H14.7566V30.2514H20.6891V29.2514ZM21.1891 31.6327V29.7514H20.1891V31.6327H21.1891ZM21.3891 31.8327C21.2787 31.8327 21.1891 31.7432 21.1891 31.6327H20.1891C20.1891 32.2955 20.7264 32.8327 21.3891 32.8327V31.8327ZM24.9635 31.8327H21.3891V32.8327H24.9635V31.8327ZM25.1635 31.6327C25.1635 31.7432 25.074 31.8327 24.9635 31.8327V32.8327C25.6263 32.8327 26.1635 32.2955 26.1635 31.6327H25.1635ZM25.1635 29.7514V31.6327H26.1635V29.7514H25.1635ZM31.5961 29.2514H25.6635V30.2514H31.5961V29.2514ZM31.7961 29.0514C31.7961 29.1618 31.7066 29.2514 31.5961 29.2514V30.2514C32.2589 30.2514 32.7961 29.7141 32.7961 29.0514H31.7961ZM31.7961 28.325V29.0514H32.7961V28.325H31.7961ZM31.5961 28.125C31.7066 28.125 31.7961 28.2145 31.7961 28.325H32.7961C32.7961 27.6622 32.2589 27.125 31.5961 27.125V28.125ZM25.6635 28.125H31.5961V27.125H25.6635V28.125ZM25.1635 25.2359V27.625H26.1635V25.2359H25.1635ZM24.9635 25.0359C25.074 25.0359 25.1635 25.1254 25.1635 25.2359H26.1635C26.1635 24.5731 25.6263 24.0359 24.9635 24.0359V25.0359ZM21.3891 25.0359H24.9635V24.0359H21.3891V25.0359Z" fill="#0F172A" mask="url(#path-8-inside-1_102_460)"/>
</g>
<path d="M31.1081 10.8543C30.9863 10.9291 30.8891 10.9905 30.8174 11.0368L30.8179 39.6906L30.8184 59.5088L30.8186 66.0438C30.8187 67.213 30.8188 68.0082 30.8188 68.3437L30.8188 68.5236C30.8684 71.2164 33.2198 73.5435 37.2619 75.2128C41.2764 76.8707 46.8297 77.8182 52.9838 77.8182C59.1308 77.8182 64.6781 76.8778 68.6913 75.2281C72.732 73.5672 75.087 71.2491 75.1473 68.5605L75.1473 68.3962C75.1474 68.0701 75.1475 67.2681 75.1476 66.0788L75.1481 59.5392L75.1491 39.7098L75.1502 11.0355C75.0787 10.989 74.9814 10.9273 74.8593 10.8521C74.5643 10.6704 74.1269 10.4116 73.5622 10.1013C72.4329 9.4807 70.7964 8.65559 68.7733 7.83141C64.7247 6.18205 59.1418 4.54214 52.9838 4.54214C46.8259 4.54214 41.2431 6.18375 37.1944 7.83398C35.1713 8.65859 33.5348 9.48393 32.4053 10.1042C31.8407 10.4144 31.4032 10.673 31.1081 10.8543Z" fill="url(#paint4_linear_102_460)" stroke="#0F172A" stroke-width="0.7"/>
<path d="M30.9656 9.91626C30.9656 11.0361 31.5284 12.1377 32.6204 13.1762C33.7133 14.2154 35.3133 15.1674 37.3194 15.9743C41.3297 17.5873 46.8939 18.5929 53.0578 18.5929C59.2217 18.5929 64.7859 17.5873 68.7962 15.9743C70.8023 15.1674 72.4024 14.2154 73.4952 13.1762C74.5872 12.1377 75.15 11.0361 75.15 9.91626C75.15 8.79646 74.5872 7.69478 73.4952 6.65633C72.4024 5.6171 70.8023 4.66508 68.7962 3.8582C64.7859 2.24519 59.2217 1.23965 53.0578 1.23965C46.8939 1.23965 41.3297 2.24519 37.3194 3.8582C35.3133 4.66508 33.7133 5.6171 32.6204 6.65633C31.5284 7.69478 30.9656 8.79646 30.9656 9.91626Z" fill="url(#paint5_linear_102_460)" stroke="#0F172A" stroke-width="0.7"/>
<path d="M35.1581 9.18419C35.1581 9.86091 35.5777 10.5639 36.4729 11.2555C37.3633 11.9434 38.6737 12.578 40.3242 13.1174C43.6214 14.1948 48.1985 14.867 53.2701 14.867C58.3417 14.867 62.9188 14.1948 66.2161 13.1174C67.8666 12.578 69.1769 11.9434 70.0674 11.2555C70.9625 10.5639 71.3822 9.86091 71.3822 9.18419C71.3822 8.50747 70.9625 7.8045 70.0674 7.11292C69.1769 6.42501 67.8666 5.79037 66.2161 5.25103C62.9188 4.1736 58.3417 3.50137 53.2701 3.50137C48.1985 3.50137 43.6214 4.1736 40.3242 5.25103C38.6737 5.79037 37.3633 6.42501 36.4729 7.11292C35.5777 7.8045 35.1581 8.50747 35.1581 9.18419Z" fill="#0F172A" stroke="#0F172A" stroke-width="0.7"/>
<path d="M35.1581 9.94005C35.1581 10.6168 35.5777 11.3197 36.4729 12.0113C37.3633 12.6992 38.6737 13.3339 40.3242 13.8732C43.6214 14.9506 48.1985 15.6229 53.2701 15.6229C58.3417 15.6229 62.9188 14.9506 66.2161 13.8732C67.8666 13.3339 69.1769 12.6992 70.0674 12.0113C70.9625 11.3197 71.3822 10.6168 71.3822 9.94005C71.3822 9.26333 70.9625 8.56036 70.0674 7.86878C69.1769 7.18087 67.8666 6.54623 66.2161 6.00689C62.9188 4.92946 58.3417 4.25723 53.2701 4.25723C48.1985 4.25723 43.6214 4.92946 40.3242 6.00689C38.6737 6.54623 37.3633 7.18087 36.4729 7.86878C35.5777 8.56036 35.1581 9.26333 35.1581 9.94005Z" fill="#FFDE76" stroke="#0F172A" stroke-width="0.7"/>
<path d="M30.85 9.91626C30.85 11.0357 31.4141 12.1373 32.509 13.1759C33.6048 14.2152 35.209 15.1673 37.2204 15.9742C41.2413 17.5873 46.82 18.5929 53 18.5929C59.18 18.5929 64.7587 17.5873 68.7796 15.9742C70.791 15.1673 72.3952 14.2152 73.491 13.1759C74.5859 12.1373 75.15 11.0357 75.15 9.91626C75.15 8.7968 74.5859 7.6952 73.491 6.65664C72.3952 5.61733 70.791 4.66525 68.7796 3.85832C64.7587 2.24522 59.18 1.23965 53 1.23965C46.82 1.23965 41.2413 2.24522 37.2204 3.85832C35.209 4.66525 33.6048 5.61733 32.509 6.65664C31.4141 7.6952 30.85 8.7968 30.85 9.91626Z" fill="url(#paint6_linear_102_460)" stroke="#0F172A" stroke-width="0.7"/>
<path d="M35.0537 9.18517C35.0537 9.86149 35.4742 10.5644 36.3719 11.2562C37.2647 11.9442 38.5786 12.5789 40.2335 13.1182C43.5394 14.1957 48.1285 14.868 53.2133 14.868C58.2981 14.868 62.8872 14.1957 66.1931 13.1182C67.848 12.5789 69.1619 11.9442 70.0547 11.2562C70.9524 10.5644 71.3729 9.86149 71.3729 9.18517C71.3729 8.50885 70.9524 7.80591 70.0547 7.11416C69.1619 6.42616 67.848 5.79146 66.1931 5.25209C62.8872 4.17459 58.2981 3.50234 53.2133 3.50234C48.1285 3.50234 43.5394 4.17459 40.2335 5.25209C38.5786 5.79146 37.2647 6.42616 36.3719 7.11416C35.4742 7.80591 35.0537 8.50885 35.0537 9.18517Z" fill="#0F172A" stroke="#0F172A" stroke-width="0.7"/>
<path d="M35.0537 9.93908C35.0537 10.6154 35.4742 11.3183 36.3719 12.0101C37.2647 12.6981 38.5786 13.3328 40.2335 13.8722C43.5394 14.9497 48.1285 15.6219 53.2133 15.6219C58.2981 15.6219 62.8872 14.9497 66.1931 13.8722C67.848 13.3328 69.1619 12.6981 70.0547 12.0101C70.9524 11.3183 71.3729 10.6154 71.3729 9.93908C71.3729 9.26275 70.9524 8.55981 70.0547 7.86806C69.1619 7.18007 67.848 6.54537 66.1931 6.00599C62.8872 4.9285 58.2981 4.25625 53.2133 4.25625C48.1285 4.25625 43.5394 4.9285 40.2335 6.00599C38.5786 6.54537 37.2647 7.18007 36.3719 7.86806C35.4742 8.55981 35.0537 9.26275 35.0537 9.93908Z" fill="#FFDE76" stroke="#0F172A" stroke-width="0.7"/>
<g filter="url(#filter1_d_102_460)">
<mask id="path-17-inside-2_102_460" fill="white">
<path fill-rule="evenodd" clip-rule="evenodd" d="M51.8261 5.30762C51.4395 5.30762 51.1261 5.62102 51.1261 6.00762V8.39648H45.1978C44.8112 8.39648 44.4978 8.70988 44.4978 9.09648L44.4978 9.8229C44.4978 10.2095 44.8112 10.5229 45.1978 10.5229H51.1261V12.4045C51.1261 12.7911 51.4395 13.1045 51.8261 13.1045H55.3969C55.7835 13.1045 56.0969 12.7911 56.0969 12.4045V10.5229H62.024C62.4106 10.5229 62.724 10.2095 62.724 9.8229V9.09648C62.724 8.70989 62.4106 8.39648 62.024 8.39648H56.0969V6.00762C56.0969 5.62102 55.7835 5.30762 55.3969 5.30762H51.8261Z"/>
</mask>
<path fill-rule="evenodd" clip-rule="evenodd" d="M51.8261 5.30762C51.4395 5.30762 51.1261 5.62102 51.1261 6.00762V8.39648H45.1978C44.8112 8.39648 44.4978 8.70988 44.4978 9.09648L44.4978 9.8229C44.4978 10.2095 44.8112 10.5229 45.1978 10.5229H51.1261V12.4045C51.1261 12.7911 51.4395 13.1045 51.8261 13.1045H55.3969C55.7835 13.1045 56.0969 12.7911 56.0969 12.4045V10.5229H62.024C62.4106 10.5229 62.724 10.2095 62.724 9.8229V9.09648C62.724 8.70989 62.4106 8.39648 62.024 8.39648H56.0969V6.00762C56.0969 5.62102 55.7835 5.30762 55.3969 5.30762H51.8261Z" fill="url(#paint7_linear_102_460)"/>
<path d="M51.1261 8.39648V8.89648H51.6261V8.39648H51.1261ZM44.4978 9.09648H44.9978H44.4978ZM44.4978 9.8229H44.9978H44.4978ZM51.1261 10.5229H51.6261V10.0229H51.1261V10.5229ZM56.0969 10.5229V10.0229H55.5969V10.5229H56.0969ZM56.0969 8.39648H55.5969V8.89648H56.0969V8.39648ZM51.6261 6.00762C51.6261 5.89716 51.7156 5.80762 51.8261 5.80762V4.80762C51.1633 4.80762 50.6261 5.34487 50.6261 6.00762H51.6261ZM51.6261 8.39648V6.00762H50.6261V8.39648H51.6261ZM45.1978 8.89648H51.1261V7.89648H45.1978V8.89648ZM44.9978 9.09648C44.9978 8.98603 45.0873 8.89648 45.1978 8.89648V7.89648C44.5351 7.89648 43.9978 8.43374 43.9978 9.09648H44.9978ZM44.9978 9.8229L44.9978 9.09648H43.9978L43.9978 9.8229H44.9978ZM45.1978 10.0229C45.0873 10.0229 44.9978 9.93335 44.9978 9.8229H43.9978C43.9978 10.4856 44.5351 11.0229 45.1978 11.0229V10.0229ZM51.1261 10.0229H45.1978V11.0229H51.1261V10.0229ZM51.6261 12.4045V10.5229H50.6261V12.4045H51.6261ZM51.8261 12.6045C51.7156 12.6045 51.6261 12.5149 51.6261 12.4045H50.6261C50.6261 13.0672 51.1633 13.6045 51.8261 13.6045V12.6045ZM55.3969 12.6045H51.8261V13.6045H55.3969V12.6045ZM55.5969 12.4045C55.5969 12.5149 55.5073 12.6045 55.3969 12.6045V13.6045C56.0596 13.6045 56.5969 13.0672 56.5969 12.4045H55.5969ZM55.5969 10.5229V12.4045H56.5969V10.5229H55.5969ZM62.024 10.0229H56.0969V11.0229H62.024V10.0229ZM62.224 9.8229C62.224 9.93335 62.1344 10.0229 62.024 10.0229V11.0229C62.6867 11.0229 63.224 10.4856 63.224 9.8229H62.224ZM62.224 9.09648V9.8229H63.224V9.09648H62.224ZM62.024 8.89648C62.1344 8.89648 62.224 8.98603 62.224 9.09648H63.224C63.224 8.43374 62.6867 7.89648 62.024 7.89648V8.89648ZM56.0969 8.89648H62.024V7.89648H56.0969V8.89648ZM55.5969 6.00762V8.39648H56.5969V6.00762H55.5969ZM55.3969 5.80762C55.5073 5.80762 55.5969 5.89716 55.5969 6.00762H56.5969C56.5969 5.34488 56.0596 4.80762 55.3969 4.80762V5.80762ZM51.8261 5.80762H55.3969V4.80762H51.8261V5.80762Z" fill="#0F172A" mask="url(#path-17-inside-2_102_460)"/>
</g>
<path d="M9.90542 75.1512V75.1474C10.5554 74.3294 11.5851 73.6444 12.9483 73.0806C14.3587 72.4974 16.0997 72.0548 18.0842 71.725C22.0534 71.0653 26.9478 70.8646 32.014 70.8646C37.0801 70.8646 41.9745 71.0653 45.9437 71.725C47.9282 72.0548 49.6693 72.4974 51.0797 73.0806C52.4429 73.6444 53.4726 74.3294 54.1226 75.1474L54.1225 79.5413C54.1225 80.661 53.5594 81.7626 52.4665 82.8011C51.3729 83.8404 49.7716 84.7924 47.7641 85.5993C43.7508 87.2123 38.1824 88.2179 32.014 88.2179C25.8455 88.2179 20.2772 87.2123 16.2639 85.5993C14.2563 84.7924 12.6551 83.8404 11.5614 82.8011C10.4686 81.7626 9.90542 80.661 9.90542 79.5413V79.5407V79.5401V79.5394V79.5386V79.5377V79.5367V79.5356V79.5344V79.5331V79.5317V79.5302V79.5286V79.5269V79.5252V79.5233V79.5213V79.5193V79.5171V79.5149V79.5125V79.5101V79.5076V79.505V79.5023V79.4995V79.4966V79.4936V79.4906V79.4874V79.4842V79.4809V79.4775V79.474V79.4704V79.4667V79.463V79.4591V79.4552V79.4512V79.4471V79.4429V79.4386V79.4343V79.4299V79.4254V79.4208V79.4161V79.4113V79.4065V79.4016V79.3966V79.3915V79.3863V79.3811V79.3758V79.3704V79.3649V79.3594V79.3538V79.3481V79.3423V79.3364V79.3305V79.3245V79.3184V79.3123V79.3061V79.2998V79.2934V79.2869V79.2804V79.2738V79.2672V79.2604V79.2536V79.2468V79.2398V79.2328V79.2257V79.2186V79.2114V79.2041V79.1967V79.1893V79.1818V79.1743V79.1667V79.159V79.1512V79.1434V79.1356V79.1276V79.1196V79.1115V79.1034V79.0952V79.087V79.0787V79.0703V79.0618V79.0533V79.0448V79.0362V79.0275V79.0188V79.01V79.0011V78.9922V78.9832V78.9742V78.9651V78.956V78.9468V78.9376V78.9283V78.9189V78.9095V78.9V78.8905V78.8809V78.8713V78.8616V78.8519V78.8421V78.8323V78.8224V78.8125V78.8025V78.7925V78.7824V78.7723V78.7621V78.7519V78.7416V78.7313V78.7209V78.7105V78.7001V78.6896V78.679V78.6684V78.6578V78.6471V78.6364V78.6256V78.6148V78.604V78.5931V78.5821V78.5712V78.5602V78.5491V78.538V78.5269V78.5157V78.5045V78.4932V78.4819V78.4706V78.4592V78.4478V78.4364V78.4249V78.4134V78.4019V78.3903V78.3787V78.367V78.3554V78.3436V78.3319V78.3201V78.3083V78.2964V78.2846V78.2727V78.2607V78.2488V78.2368V78.2247V78.2127V78.2006V78.1885V78.1764V78.1642V78.152V78.1398V78.1275V78.1153V78.103V78.0906V78.0783V78.0659V78.0535V78.0411V78.0287V78.0162V78.0037V77.9912V77.9787V77.9661V77.9535V77.9409V77.9283V77.9157V77.903V77.8904V77.8777V77.865V77.8523V77.8395V77.8268V77.814V77.8012V77.7884V77.7756V77.7627V77.7499V77.737V77.7241V77.7113V77.6984V77.6854V77.6725V77.6596V77.6466V77.6337V77.6207V77.6077V77.5947V77.5817V77.5687V77.5557V77.5426V77.5296V77.5166V77.5035V77.4905V77.4774V77.4643V77.4513V77.4382V77.4251V77.412V77.3989V77.3858V77.3727V77.3596V77.3465V77.3334V77.3203V77.3072V77.2941V77.281V77.2679V77.2548V77.2417V77.2286V77.2155V77.2024V77.1893V77.1762V77.1631V77.15V77.1369V77.1238V77.1108V77.0977V77.0846V77.0716V77.0585V77.0455V77.0324V77.0194V77.0064V76.9934V76.9804V76.9674V76.9544V76.9414V76.9284V76.9155V76.9025V76.8896V76.8767V76.8638V76.8509V76.838V76.8251V76.8123V76.7994V76.7866V76.7738V76.761V76.7482V76.7355V76.7227V76.71V76.6973V76.6846V76.6719V76.6592V76.6466V76.634V76.6214V76.6088V76.5962V76.5837V76.5712V76.5587V76.5462V76.5338V76.5213V76.5089V76.4966V76.4842V76.4719V76.4596V76.4473V76.435V76.4228V76.4106V76.3984V76.3863V76.3741V76.3621V76.35V76.3379V76.3259V76.314V76.302V76.2901V76.2782V76.2664V76.2545V76.2427V76.231V76.2193V76.2076V76.1959V76.1843V76.1727V76.1611V76.1496V76.1381V76.1267V76.1152V76.1039V76.0925V76.0812V76.07V76.0587V76.0475V76.0364V76.0253V76.0142V76.0032V75.9922V75.9812V75.9703V75.9595V75.9486V75.9379V75.9271V75.9164V75.9058V75.8952V75.8846V75.8741V75.8636V75.8532V75.8428V75.8325V75.8222V75.8119V75.8018V75.7916V75.7815V75.7715V75.7615V75.7515V75.7416V75.7318V75.722V75.7122V75.7025V75.6929V75.6833V75.6738V75.6643V75.6549V75.6455V75.6362V75.6269V75.6177V75.6085V75.5994V75.5904V75.5814V75.5725V75.5636V75.5548V75.546V75.5373V75.5287V75.5201V75.5116V75.5031V75.4947V75.4864V75.4781V75.4699V75.4617V75.4536V75.4456V75.4377V75.4298V75.4219V75.4141V75.4064V75.3988V75.3912V75.3837V75.3763V75.3689V75.3616V75.3543V75.3472V75.3401V75.333V75.3261V75.3192V75.3123V75.3056V75.2989V75.2923V75.2857V75.2793V75.2729V75.2666V75.2603V75.2541V75.248V75.242V75.236V75.2302V75.2244V75.2186V75.213V75.2074V75.2019V75.1965V75.1911V75.1859V75.1807V75.1756V75.1706V75.1656V75.1607V75.156V75.1512Z" fill="#0497EC" stroke="#0F172A" stroke-width="0.7"/>
<path d="M18.0005 86.0415L13.5979 84.0415L10.9028 82.0415V78.5927L11.352 76.3756L13.5979 75.8214L27.9713 75.2671L28.0005 87.5415H24.5005L21.0005 87.0415L18.0005 86.0415Z" fill="#0F172A" stroke="#0F172A" stroke-width="0.7"/>
<path d="M50.8795 84.041V76.7869L47.2861 76.2168V85.6805L49.0005 85.041L50.8795 84.041Z" fill="#0F172A" stroke="#0F172A" stroke-width="0.7"/>
<path d="M9.90577 75.7417C9.90577 76.8614 10.4689 77.9631 11.5618 79.0016C12.6554 80.0408 14.2567 80.9928 16.2643 81.7997C20.2775 83.4128 25.8459 84.4183 32.0143 84.4183C38.1828 84.4183 43.7511 83.4128 47.7644 81.7997C49.772 80.9928 51.3732 80.0408 52.4669 79.0016C53.5598 77.9631 54.1229 76.8614 54.1229 75.7417C54.1229 74.622 53.5598 73.5203 52.4669 72.4819C51.3732 71.4426 49.772 70.4906 47.7644 69.6837C43.7511 68.0706 38.1828 67.0651 32.0143 67.0651C25.8459 67.0651 20.2775 68.0706 16.2643 69.6837C14.2567 70.4906 12.6554 71.4426 11.5618 72.4819C10.4689 73.5203 9.90577 74.622 9.90577 75.7417Z" fill="url(#paint8_linear_102_460)" stroke="#0F172A" stroke-width="0.7"/>
<path d="M14.1011 75.0096C14.1011 75.6862 14.521 76.3892 15.4169 77.0808C16.308 77.7688 17.6193 78.4034 19.2711 78.9428C22.5708 80.0202 27.1513 80.6925 32.2266 80.6925C37.3019 80.6925 41.8825 80.0202 45.1822 78.9428C46.8339 78.4034 48.1453 77.7688 49.0364 77.0808C49.9323 76.3892 50.3521 75.6862 50.3521 75.0096C50.3521 74.333 49.9323 73.6301 49.0364 72.9384C48.1453 72.2505 46.8339 71.6158 45.1822 71.0765C41.8825 69.999 37.3019 69.3268 32.2266 69.3268C27.1513 69.3268 22.5708 69.999 19.2711 71.0765C17.6193 71.6158 16.308 72.2505 15.4169 72.9384C14.521 73.6301 14.1011 74.333 14.1011 75.0096Z" fill="#0F172A" stroke="#0F172A" stroke-width="0.7"/>
<path d="M14.1011 75.7643C14.1011 76.4409 14.521 77.1438 15.4169 77.8355C16.308 78.5234 17.6193 79.1581 19.2711 79.6974C22.5708 80.7749 27.1513 81.4471 32.2266 81.4471C37.3019 81.4471 41.8825 80.7749 45.1822 79.6974C46.8339 79.1581 48.1453 78.5234 49.0364 77.8355C49.9323 77.1438 50.3521 76.4409 50.3521 75.7643C50.3521 75.0877 49.9323 74.3847 49.0364 73.6931C48.1453 73.0051 46.8339 72.3705 45.1822 71.8311C41.8825 70.7537 37.3019 70.0814 32.2266 70.0814C27.1513 70.0814 22.5708 70.7537 19.2711 71.8311C17.6193 72.3705 16.308 73.0051 15.4169 73.6931C14.521 74.3847 14.1011 75.0877 14.1011 75.7643Z" fill="#FFDE76" stroke="#0F172A" stroke-width="0.7"/>
<g filter="url(#filter2_d_102_460)">
<mask id="path-25-inside-3_102_460" fill="white">
<path fill-rule="evenodd" clip-rule="evenodd" d="M30.0675 71.1333C29.6809 71.1333 29.3675 71.4467 29.3675 71.8333V74.2233H23.4517C23.0651 74.2233 22.7517 74.5367 22.7517 74.9233L22.7517 75.6497C22.7517 76.0363 23.0651 76.3497 23.4517 76.3497H29.3675V78.2301C29.3675 78.6167 29.6809 78.9301 30.0675 78.9301H33.6291C34.0157 78.9301 34.3291 78.6167 34.3291 78.2301V76.3497H40.2443C40.6309 76.3497 40.9443 76.0363 40.9443 75.6497V74.9233C40.9443 74.5367 40.6309 74.2233 40.2443 74.2233H34.3291V71.8333C34.3291 71.4467 34.0157 71.1333 33.6291 71.1333H30.0675Z"/>
</mask>
<path fill-rule="evenodd" clip-rule="evenodd" d="M30.0675 71.1333C29.6809 71.1333 29.3675 71.4467 29.3675 71.8333V74.2233H23.4517C23.0651 74.2233 22.7517 74.5367 22.7517 74.9233L22.7517 75.6497C22.7517 76.0363 23.0651 76.3497 23.4517 76.3497H29.3675V78.2301C29.3675 78.6167 29.6809 78.9301 30.0675 78.9301H33.6291C34.0157 78.9301 34.3291 78.6167 34.3291 78.2301V76.3497H40.2443C40.6309 76.3497 40.9443 76.0363 40.9443 75.6497V74.9233C40.9443 74.5367 40.6309 74.2233 40.2443 74.2233H34.3291V71.8333C34.3291 71.4467 34.0157 71.1333 33.6291 71.1333H30.0675Z" fill="url(#paint9_linear_102_460)"/>
<path d="M29.3675 74.2233V74.9233H30.0675V74.2233H29.3675ZM22.7517 74.9233H23.4517H22.7517ZM22.7517 75.6497L22.0517 75.6497L22.7517 75.6497ZM29.3675 76.3497H30.0675V75.6497H29.3675V76.3497ZM34.3291 76.3497V75.6497H33.6291V76.3497H34.3291ZM34.3291 74.2233H33.6291V74.9233H34.3291V74.2233ZM30.0675 71.8333L30.0675 71.8333V70.4333C29.2943 70.4333 28.6675 71.0601 28.6675 71.8333H30.0675ZM30.0675 74.2233V71.8333H28.6675V74.2233H30.0675ZM23.4517 74.9233H29.3675V73.5233H23.4517V74.9233ZM23.4517 74.9233L23.4517 74.9233V73.5233C22.6785 73.5233 22.0517 74.1501 22.0517 74.9233H23.4517ZM23.4517 75.6497L23.4517 74.9233H22.0517L22.0517 75.6497L23.4517 75.6497ZM23.4517 75.6497L23.4517 75.6497L22.0517 75.6497C22.0517 76.4229 22.6785 77.0497 23.4517 77.0497V75.6497ZM29.3675 75.6497H23.4517V77.0497H29.3675V75.6497ZM30.0675 78.2301V76.3497H28.6675V78.2301H30.0675ZM30.0675 78.2301L30.0675 78.2301H28.6675C28.6675 79.0033 29.2943 79.6301 30.0675 79.6301V78.2301ZM33.6291 78.2301H30.0675V79.6301H33.6291V78.2301ZM33.6291 78.2301V78.2301V79.6301C34.4023 79.6301 35.0291 79.0033 35.0291 78.2301H33.6291ZM33.6291 76.3497V78.2301H35.0291V76.3497H33.6291ZM40.2443 75.6497H34.3291V77.0497H40.2443V75.6497ZM40.2443 75.6497L40.2443 75.6497V77.0497C41.0175 77.0497 41.6443 76.4229 41.6443 75.6497H40.2443ZM40.2443 74.9233V75.6497H41.6443V74.9233H40.2443ZM40.2443 74.9233H40.2443H41.6443C41.6443 74.1501 41.0175 73.5233 40.2443 73.5233V74.9233ZM34.3291 74.9233H40.2443V73.5233H34.3291V74.9233ZM33.6291 71.8333V74.2233H35.0291V71.8333H33.6291ZM33.6291 71.8333H35.0291C35.0291 71.0601 34.4023 70.4333 33.6291 70.4333V71.8333ZM30.0675 71.8333H33.6291V70.4333H30.0675V71.8333Z" fill="#0F172A" mask="url(#path-25-inside-3_102_460)"/>
</g>
<path d="M9.90591 71.2684V71.2646C10.5558 70.4466 11.5856 69.7616 12.9488 69.1978C14.3592 68.6146 16.1002 68.1719 18.0847 67.8422C22.0539 67.1825 26.9483 66.9818 32.0145 66.9818C37.0806 66.9818 41.975 67.1825 45.9442 67.8422C47.9287 68.1719 49.6697 68.6146 51.0802 69.1978C52.4434 69.7616 53.4731 70.4466 54.123 71.2646L54.123 75.6585C54.123 76.7782 53.5599 77.8798 52.467 78.9183C51.3734 79.9576 49.7721 80.9096 47.7645 81.7165C43.7513 83.3295 38.1829 84.3351 32.0145 84.3351C25.846 84.3351 20.2777 83.3295 16.2644 81.7165C14.2568 80.9096 12.6556 79.9576 11.5619 78.9183C10.4691 77.8798 9.90591 76.7782 9.90591 75.6585V75.6579V75.6573V75.6566V75.6558V75.6549V75.6539V75.6528V75.6516V75.6503V75.6489V75.6474V75.6458V75.6441V75.6423V75.6405V75.6385V75.6365V75.6343V75.6321V75.6297V75.6273V75.6248V75.6222V75.6195V75.6167V75.6138V75.6108V75.6078V75.6046V75.6014V75.5981V75.5947V75.5912V75.5876V75.5839V75.5802V75.5763V75.5724V75.5684V75.5643V75.5601V75.5558V75.5515V75.5471V75.5425V75.538V75.5333V75.5285V75.5237V75.5188V75.5138V75.5087V75.5035V75.4983V75.493V75.4876V75.4821V75.4766V75.4709V75.4652V75.4595V75.4536V75.4477V75.4417V75.4356V75.4295V75.4232V75.4169V75.4106V75.4041V75.3976V75.391V75.3844V75.3776V75.3708V75.364V75.357V75.35V75.3429V75.3358V75.3286V75.3213V75.3139V75.3065V75.299V75.2915V75.2839V75.2762V75.2684V75.2606V75.2527V75.2448V75.2368V75.2287V75.2206V75.2124V75.2042V75.1958V75.1875V75.179V75.1705V75.162V75.1534V75.1447V75.1359V75.1271V75.1183V75.1094V75.1004V75.0914V75.0823V75.0732V75.064V75.0547V75.0454V75.0361V75.0267V75.0172V75.0077V74.9981V74.9885V74.9788V74.9691V74.9593V74.9495V74.9396V74.9297V74.9197V74.9097V74.8996V74.8895V74.8793V74.8691V74.8588V74.8485V74.8381V74.8277V74.8173V74.8068V74.7962V74.7856V74.775V74.7643V74.7536V74.7428V74.732V74.7212V74.7103V74.6993V74.6884V74.6773V74.6663V74.6552V74.6441V74.6329V74.6217V74.6104V74.5991V74.5878V74.5764V74.565V74.5536V74.5421V74.5306V74.5191V74.5075V74.4959V74.4842V74.4725V74.4608V74.4491V74.4373V74.4255V74.4136V74.4018V74.3899V74.3779V74.366V74.354V74.3419V74.3299V74.3178V74.3057V74.2935V74.2814V74.2692V74.257V74.2447V74.2324V74.2201V74.2078V74.1955V74.1831V74.1707V74.1583V74.1458V74.1334V74.1209V74.1084V74.0958V74.0833V74.0707V74.0581V74.0455V74.0329V74.0202V74.0076V73.9949V73.9822V73.9694V73.9567V73.944V73.9312V73.9184V73.9056V73.8928V73.8799V73.8671V73.8542V73.8413V73.8284V73.8155V73.8026V73.7897V73.7768V73.7638V73.7508V73.7379V73.7249V73.7119V73.6989V73.6859V73.6729V73.6598V73.6468V73.6338V73.6207V73.6077V73.5946V73.5815V73.5685V73.5554V73.5423V73.5292V73.5161V73.503V73.4899V73.4768V73.4637V73.4506V73.4375V73.4244V73.4113V73.3982V73.3851V73.372V73.3589V73.3458V73.3327V73.3196V73.3065V73.2934V73.2803V73.2672V73.2541V73.241V73.228V73.2149V73.2018V73.1888V73.1757V73.1627V73.1496V73.1366V73.1236V73.1106V73.0976V73.0846V73.0716V73.0586V73.0456V73.0327V73.0197V73.0068V72.9939V72.981V72.9681V72.9552V72.9423V72.9295V72.9166V72.9038V72.891V72.8782V72.8654V72.8527V72.8399V72.8272V72.8145V72.8018V72.7891V72.7764V72.7638V72.7512V72.7386V72.726V72.7134V72.7009V72.6884V72.6759V72.6634V72.651V72.6385V72.6261V72.6137V72.6014V72.5891V72.5768V72.5645V72.5522V72.54V72.5278V72.5156V72.5035V72.4913V72.4792V72.4672V72.4551V72.4431V72.4312V72.4192V72.4073V72.3954V72.3835V72.3717V72.3599V72.3482V72.3364V72.3247V72.3131V72.3015V72.2899V72.2783V72.2668V72.2553V72.2438V72.2324V72.2211V72.2097V72.1984V72.1871V72.1759V72.1647V72.1536V72.1425V72.1314V72.1204V72.1094V72.0984V72.0875V72.0767V72.0658V72.055V72.0443V72.0336V72.023V72.0124V72.0018V71.9913V71.9808V71.9704V71.96V71.9497V71.9394V71.9291V71.9189V71.9088V71.8987V71.8887V71.8787V71.8687V71.8588V71.849V71.8392V71.8294V71.8197V71.8101V71.8005V71.791V71.7815V71.772V71.7627V71.7533V71.7441V71.7349V71.7257V71.7166V71.7076V71.6986V71.6896V71.6808V71.672V71.6632V71.6545V71.6459V71.6373V71.6288V71.6203V71.6119V71.6036V71.5953V71.5871V71.5789V71.5708V71.5628V71.5548V71.5469V71.5391V71.5313V71.5236V71.516V71.5084V71.5009V71.4935V71.4861V71.4788V71.4715V71.4644V71.4573V71.4502V71.4433V71.4364V71.4295V71.4228V71.4161V71.4095V71.4029V71.3965V71.3901V71.3837V71.3775V71.3713V71.3652V71.3592V71.3532V71.3473V71.3415V71.3358V71.3302V71.3246V71.3191V71.3137V71.3083V71.3031V71.2979V71.2928V71.2877V71.2828V71.2779V71.2731V71.2684Z" fill="#0497EC" stroke="#0F172A" stroke-width="0.7"/>
<path d="M17.755 82.5071L13.4771 80.6218L10.9033 78.5103V74.7096L11.3525 72.4926L13.5983 71.9383L27.9718 71.384V84.2113L24.5282 84.0153L20.7512 83.2474L17.755 82.5071Z" fill="#0F172A" stroke="#0F172A" stroke-width="0.7"/>
<path d="M50.88 80.4104V72.9041L47.2866 72.334V82.0969L49.0833 81.3606L50.88 80.4104Z" fill="#0F172A" stroke="#0F172A" stroke-width="0.7"/>
<path d="M9.90577 71.8589C9.90577 72.9786 10.4689 74.0803 11.5618 75.1187C12.6554 76.158 14.2567 77.11 16.2643 77.9169C20.2775 79.53 25.8459 80.5355 32.0143 80.5355C38.1828 80.5355 43.7511 79.53 47.7644 77.9169C49.772 77.11 51.3732 76.158 52.4669 75.1187C53.5598 74.0803 54.1229 72.9786 54.1229 71.8589C54.1229 70.7392 53.5598 69.6375 52.4669 68.599C51.3732 67.5598 49.772 66.6078 47.7644 65.8009C43.7511 64.1878 38.1828 63.1823 32.0143 63.1823C25.8459 63.1823 20.2775 64.1878 16.2643 65.8009C14.2567 66.6078 12.6554 67.5598 11.5618 68.599C10.4689 69.6375 9.90577 70.7392 9.90577 71.8589Z" fill="url(#paint10_linear_102_460)" stroke="#0F172A" stroke-width="0.7"/>
<path d="M14.1016 71.1268C14.1016 71.8034 14.5215 72.5064 15.4174 73.198C16.3085 73.886 17.6198 74.5206 19.2716 75.06C22.5713 76.1374 27.1518 76.8096 32.2271 76.8096C37.3024 76.8096 41.8829 76.1374 45.1826 75.06C46.8344 74.5206 48.1458 73.886 49.0369 73.198C49.9327 72.5064 50.3526 71.8034 50.3526 71.1268C50.3526 70.4502 49.9327 69.7472 49.0369 69.0556C48.1458 68.3677 46.8344 67.733 45.1826 67.1937C41.8829 66.1162 37.3024 65.444 32.2271 65.444C27.1518 65.444 22.5713 66.1162 19.2716 67.1937C17.6198 67.733 16.3085 68.3677 15.4174 69.0556C14.5215 69.7472 14.1016 70.4502 14.1016 71.1268Z" fill="#0F172A" stroke="#0F172A" stroke-width="0.7"/>
<path d="M14.1016 71.8812C14.1016 72.5578 14.5215 73.2608 15.4174 73.9524C16.3085 74.6403 17.6198 75.275 19.2716 75.8144C22.5713 76.8918 27.1518 77.564 32.2271 77.564C37.3024 77.564 41.8829 76.8918 45.1826 75.8144C46.8344 75.275 48.1458 74.6403 49.0369 73.9524C49.9327 73.2608 50.3526 72.5578 50.3526 71.8812C50.3526 71.2046 49.9327 70.5016 49.0369 69.81C48.1458 69.1221 46.8344 68.4874 45.1826 67.9481C41.8829 66.8706 37.3024 66.1984 32.2271 66.1984C27.1518 66.1984 22.5713 66.8706 19.2716 67.9481C17.6198 68.4874 16.3085 69.1221 15.4174 69.81C14.5215 70.5016 14.1016 71.2046 14.1016 71.8812Z" fill="#FFDE76" stroke="#0F172A" stroke-width="0.7"/>
<g filter="url(#filter3_d_102_460)">
<mask id="path-33-inside-4_102_460" fill="white">
<path fill-rule="evenodd" clip-rule="evenodd" d="M30.0675 67.2502C29.6809 67.2502 29.3675 67.5636 29.3675 67.9502V70.3393H23.4517C23.0651 70.3393 22.7517 70.6527 22.7517 71.0393L22.7517 71.7657C22.7517 72.1523 23.0651 72.4657 23.4517 72.4657H29.3675V74.3471C29.3675 74.7337 29.6809 75.0471 30.0675 75.0471H33.6291C34.0157 75.0471 34.3291 74.7337 34.3291 74.3471V72.4657H40.2443C40.6309 72.4657 40.9443 72.1523 40.9443 71.7657V71.0393C40.9443 70.6527 40.6309 70.3393 40.2443 70.3393H34.3291V67.9502C34.3291 67.5636 34.0157 67.2502 33.6291 67.2502H30.0675Z"/>
</mask>
<path fill-rule="evenodd" clip-rule="evenodd" d="M30.0675 67.2502C29.6809 67.2502 29.3675 67.5636 29.3675 67.9502V70.3393H23.4517C23.0651 70.3393 22.7517 70.6527 22.7517 71.0393L22.7517 71.7657C22.7517 72.1523 23.0651 72.4657 23.4517 72.4657H29.3675V74.3471C29.3675 74.7337 29.6809 75.0471 30.0675 75.0471H33.6291C34.0157 75.0471 34.3291 74.7337 34.3291 74.3471V72.4657H40.2443C40.6309 72.4657 40.9443 72.1523 40.9443 71.7657V71.0393C40.9443 70.6527 40.6309 70.3393 40.2443 70.3393H34.3291V67.9502C34.3291 67.5636 34.0157 67.2502 33.6291 67.2502H30.0675Z" fill="url(#paint11_linear_102_460)"/>
<path d="M29.3675 70.3393V70.8393H29.8675V70.3393H29.3675ZM22.7517 71.0393H23.2517H22.7517ZM22.7517 71.7657H22.2517H22.7517ZM29.3675 72.4657H29.8675V71.9657H29.3675V72.4657ZM34.3291 72.4657V71.9657H33.8291V72.4657H34.3291ZM34.3291 70.3393H33.8291V70.8393H34.3291V70.3393ZM29.8675 67.9502C29.8675 67.8398 29.957 67.7502 30.0675 67.7502V66.7502C29.4048 66.7502 28.8675 67.2875 28.8675 67.9502H29.8675ZM29.8675 70.3393V67.9502H28.8675V70.3393H29.8675ZM23.4517 70.8393H29.3675V69.8393H23.4517V70.8393ZM23.2517 71.0393C23.2517 70.9289 23.3413 70.8393 23.4517 70.8393V69.8393C22.789 69.8393 22.2517 70.3766 22.2517 71.0393H23.2517ZM23.2517 71.7657L23.2517 71.0393H22.2517L22.2517 71.7657L23.2517 71.7657ZM23.4517 71.9657C23.3413 71.9657 23.2517 71.8762 23.2517 71.7657L22.2517 71.7657C22.2517 72.4285 22.789 72.9657 23.4517 72.9657V71.9657ZM29.3675 71.9657H23.4517V72.9657H29.3675V71.9657ZM29.8675 74.3471V72.4657H28.8675V74.3471H29.8675ZM30.0675 74.5471C29.957 74.5471 29.8675 74.4575 29.8675 74.3471H28.8675C28.8675 75.0098 29.4048 75.5471 30.0675 75.5471V74.5471ZM33.6291 74.5471H30.0675V75.5471H33.6291V74.5471ZM33.8291 74.3471C33.8291 74.4575 33.7396 74.5471 33.6291 74.5471V75.5471C34.2919 75.5471 34.8291 75.0098 34.8291 74.3471H33.8291ZM33.8291 72.4657V74.3471H34.8291V72.4657H33.8291ZM40.2443 71.9657H34.3291V72.9657H40.2443V71.9657ZM40.4443 71.7657C40.4443 71.8762 40.3548 71.9657 40.2443 71.9657V72.9657C40.9071 72.9657 41.4443 72.4285 41.4443 71.7657H40.4443ZM40.4443 71.0393V71.7657H41.4443V71.0393H40.4443ZM40.2443 70.8393C40.3548 70.8393 40.4443 70.9289 40.4443 71.0393H41.4443C41.4443 70.3766 40.9071 69.8393 40.2443 69.8393V70.8393ZM34.3291 70.8393H40.2443V69.8393H34.3291V70.8393ZM33.8291 67.9502V70.3393H34.8291V67.9502H33.8291ZM33.6291 67.7502C33.7396 67.7502 33.8291 67.8398 33.8291 67.9502H34.8291C34.8291 67.2875 34.2919 66.7502 33.6291 66.7502V67.7502ZM30.0675 67.7502H33.6291V66.7502H30.0675V67.7502Z" fill="#0F172A" mask="url(#path-33-inside-4_102_460)"/>
</g>
<defs>
<filter id="filter0_d_102_460" x="14.0566" y="24.5359" width="18.2395" height="8.79688" filterUnits="userSpaceOnUse" color-interpolation-filters="sRGB">
<feFlood flood-opacity="0" result="BackgroundImageFix"/>
<feColorMatrix in="SourceAlpha" type="matrix" values="0 0 0 0 0 0 0 0 0 0 0 0 0 0 0 0 0 0 127 0" result="hardAlpha"/>
<feOffset dy="1"/>
<feComposite in2="hardAlpha" operator="out"/>
<feColorMatrix type="matrix" values="0 0 0 0 0.0588235 0 0 0 0 0.0901961 0 0 0 0 0.164706 0 0 0 1 0"/>
<feBlend mode="normal" in2="BackgroundImageFix" result="effect1_dropShadow_102_460"/>
<feBlend mode="normal" in="SourceGraphic" in2="effect1_dropShadow_102_460" result="shape"/>
</filter>
<filter id="filter1_d_102_460" x="44.4978" y="5.30762" width="18.2261" height="8.79688" filterUnits="userSpaceOnUse" color-interpolation-filters="sRGB">
<feFlood flood-opacity="0" result="BackgroundImageFix"/>
<feColorMatrix in="SourceAlpha" type="matrix" values="0 0 0 0 0 0 0 0 0 0 0 0 0 0 0 0 0 0 127 0" result="hardAlpha"/>
<feOffset dy="1"/>
<feComposite in2="hardAlpha" operator="out"/>
<feColorMatrix type="matrix" values="0 0 0 0 0.0588235 0 0 0 0 0.0901961 0 0 0 0 0.164706 0 0 0 1 0"/>
<feBlend mode="normal" in2="BackgroundImageFix" result="effect1_dropShadow_102_460"/>
<feBlend mode="normal" in="SourceGraphic" in2="effect1_dropShadow_102_460" result="shape"/>
</filter>
<filter id="filter2_d_102_460" x="22.7517" y="71.1333" width="18.1926" height="9.79688" filterUnits="userSpaceOnUse" color-interpolation-filters="sRGB">
<feFlood flood-opacity="0" result="BackgroundImageFix"/>
<feColorMatrix in="SourceAlpha" type="matrix" values="0 0 0 0 0 0 0 0 0 0 0 0 0 0 0 0 0 0 127 0" result="hardAlpha"/>
<feOffset dy="2"/>
<feComposite in2="hardAlpha" operator="out"/>
<feColorMatrix type="matrix" values="0 0 0 0 0 0 0 0 0 0 0 0 0 0 0 0 0 0 1 0"/>
<feBlend mode="normal" in2="BackgroundImageFix" result="effect1_dropShadow_102_460"/>
<feBlend mode="normal" in="SourceGraphic" in2="effect1_dropShadow_102_460" result="shape"/>
</filter>
<filter id="filter3_d_102_460" x="22.7517" y="67.2502" width="18.1926" height="8.79688" filterUnits="userSpaceOnUse" color-interpolation-filters="sRGB">
<feFlood flood-opacity="0" result="BackgroundImageFix"/>
<feColorMatrix in="SourceAlpha" type="matrix" values="0 0 0 0 0 0 0 0 0 0 0 0 0 0 0 0 0 0 127 0" result="hardAlpha"/>
<feOffset dy="1"/>
<feComposite in2="hardAlpha" operator="out"/>
<feColorMatrix type="matrix" values="0 0 0 0 0.0588235 0 0 0 0 0.0901961 0 0 0 0 0.164706 0 0 0 1 0"/>
<feBlend mode="normal" in2="BackgroundImageFix" result="effect1_dropShadow_102_460"/>
<feBlend mode="normal" in="SourceGraphic" in2="effect1_dropShadow_102_460" result="shape"/>
</filter>
<linearGradient id="paint0_linear_102_460" x1="45.0806" y1="26.1135" x2="0.0477333" y2="26.1135" gradientUnits="userSpaceOnUse">
<stop stop-color="#0497EC"/>
<stop offset="0.0322656" stop-color="#0497EC"/>
<stop offset="0.0334375" stop-color="#0F172A"/>
<stop offset="0.409285" stop-color="#0F172A"/>
<stop offset="0.410703" stop-color="#0497EC"/>
<stop offset="0.839123" stop-color="#0497EC"/>
<stop offset="0.841059" stop-color="#0F172A"/>
<stop offset="0.92"/>
<stop offset="0.920978" stop-color="#0497EC"/>
<stop offset="0.9999" stop-color="#0497EC"/>
</linearGradient>
<linearGradient id="paint1_linear_102_460" x1="0.848328" y1="37.6076" x2="7.97213" y2="18.7349" gradientUnits="userSpaceOnUse">
<stop offset="0.0102275" stop-color="white"/>
<stop offset="0.431088" stop-color="white"/>
<stop offset="0.432344" stop-color="#FFDE76"/>
<stop offset="0.869792" stop-color="#FFDE76"/>
</linearGradient>
<linearGradient id="paint2_linear_102_460" x1="0.734143" y1="37.6081" x2="7.84419" y2="18.7233" gradientUnits="userSpaceOnUse">
<stop offset="0.0102275" stop-color="white"/>
<stop offset="0.431088" stop-color="white"/>
<stop offset="0.432344" stop-color="#FFDE76"/>
<stop offset="0.869792" stop-color="#FFDE76"/>
</linearGradient>
<linearGradient id="paint3_linear_102_460" x1="10.7202" y1="42.4648" x2="25.0796" y2="4.89101" gradientUnits="userSpaceOnUse">
<stop offset="0.0102275" stop-color="white"/>
<stop offset="0.431088" stop-color="white"/>
<stop offset="0.432344" stop-color="#FFDE76"/>
<stop offset="0.869792" stop-color="#FFDE76"/>
</linearGradient>
<linearGradient id="paint4_linear_102_460" x1="75.5002" y1="9.58827" x2="30.4674" y2="9.58827" gradientUnits="userSpaceOnUse">
<stop stop-color="#0497EC"/>
<stop offset="0.0322656" stop-color="#0497EC"/>
<stop offset="0.0334375" stop-color="#0F172A"/>
<stop offset="0.409285" stop-color="#0F172A"/>
<stop offset="0.410703" stop-color="#0497EC"/>
<stop offset="0.839123" stop-color="#0497EC"/>
<stop offset="0.841059" stop-color="#0F172A"/>
<stop offset="0.92"/>
<stop offset="0.920978" stop-color="#0497EC"/>
<stop offset="0.9999" stop-color="#0497EC"/>
</linearGradient>
<linearGradient id="paint5_linear_102_460" x1="31.2995" y1="18.3825" x2="38.4272" y2="-0.486726" gradientUnits="userSpaceOnUse">
<stop offset="0.0102275" stop-color="white"/>
<stop offset="0.431088" stop-color="white"/>
<stop offset="0.432344" stop-color="#FFDE76"/>
<stop offset="0.869792" stop-color="#FFDE76"/>
</linearGradient>
<linearGradient id="paint6_linear_102_460" x1="31.1857" y1="18.3825" x2="38.2996" y2="-0.498826" gradientUnits="userSpaceOnUse">
<stop offset="0.0102275" stop-color="white"/>
<stop offset="0.431088" stop-color="white"/>
<stop offset="0.432344" stop-color="#FFDE76"/>
<stop offset="0.869792" stop-color="#FFDE76"/>
</linearGradient>
<linearGradient id="paint7_linear_102_460" x1="41.1637" y1="23.2365" x2="55.531" y2="-14.3303" gradientUnits="userSpaceOnUse">
<stop offset="0.0102275" stop-color="white"/>
<stop offset="0.431088" stop-color="white"/>
<stop offset="0.432344" stop-color="#FFDE76"/>
<stop offset="0.869792" stop-color="#FFDE76"/>
</linearGradient>
<linearGradient id="paint8_linear_102_460" x1="10.2402" y1="84.2079" x2="17.364" y2="65.3353" gradientUnits="userSpaceOnUse">
<stop offset="0.0102275" stop-color="white"/>
<stop offset="0.431088" stop-color="white"/>
<stop offset="0.432344" stop-color="#FFDE76"/>
<stop offset="0.869792" stop-color="#FFDE76"/>
</linearGradient>
<linearGradient id="paint9_linear_102_460" x1="19.4238" y1="89.0622" x2="33.8107" y2="51.5131" gradientUnits="userSpaceOnUse">
<stop offset="0.0102275" stop-color="white"/>
<stop offset="0.431088" stop-color="white"/>
<stop offset="0.432344" stop-color="#FFDE76"/>
<stop offset="0.869792" stop-color="#FFDE76"/>
</linearGradient>
<linearGradient id="paint10_linear_102_460" x1="10.2402" y1="80.3251" x2="17.364" y2="61.4525" gradientUnits="userSpaceOnUse">
<stop offset="0.0102275" stop-color="white"/>
<stop offset="0.431088" stop-color="white"/>
<stop offset="0.432344" stop-color="#FFDE76"/>
<stop offset="0.869792" stop-color="#FFDE76"/>
</linearGradient>
<linearGradient id="paint11_linear_102_460" x1="19.4238" y1="85.1791" x2="33.8107" y2="47.6301" gradientUnits="userSpaceOnUse">
<stop offset="0.0102275" stop-color="white"/>
<stop offset="0.431088" stop-color="white"/>
<stop offset="0.432344" stop-color="#FFDE76"/>
<stop offset="0.869792" stop-color="#FFDE76"/>
</linearGradient>
</defs>
</svg>
