<svg width="16" height="17" viewBox="0 0 16 17" fill="none" xmlns="http://www.w3.org/2000/svg">
<rect x="0.6" y="1.1" width="14.8" height="14.8" rx="7.4" stroke="#687386" stroke-width="1.2"/>
<path d="M7.11112 10.558C7.09245 10.1287 7.11578 9.76 7.18112 9.452C7.24645 9.144 7.36312 8.86867 7.53112 8.626C7.70845 8.38333 7.94178 8.15467 8.23112 7.94L8.88912 7.478C9.25312 7.21667 9.50978 6.97867 9.65912 6.764C9.80845 6.54 9.88312 6.29267 9.88312 6.022C9.88312 5.76067 9.79912 5.532 9.63112 5.336C9.47245 5.14 9.25778 4.98133 8.98712 4.86C8.71645 4.73867 8.40845 4.678 8.06312 4.678C7.62445 4.678 7.21378 4.78533 6.83112 5C6.44845 5.21467 6.12178 5.518 5.85112 5.91L4.74512 5.336C4.98778 4.944 5.28178 4.608 5.62712 4.328C5.98178 4.048 6.36912 3.838 6.78912 3.698C7.20912 3.54867 7.65712 3.474 8.13312 3.474C8.73045 3.474 9.26245 3.586 9.72912 3.81C10.1958 4.02467 10.5645 4.31867 10.8351 4.692C11.1151 5.06533 11.2551 5.49467 11.2551 5.98C11.2551 6.29733 11.2038 6.58667 11.1011 6.848C10.9985 7.10933 10.8258 7.366 10.5831 7.618C10.3405 7.86067 10.0045 8.13133 9.57512 8.43L9.14112 8.738C8.81445 8.95267 8.58578 9.20467 8.45512 9.494C8.32445 9.774 8.27312 10.1287 8.30112 10.558H7.11112ZM7.71312 13.526C7.47045 13.526 7.26045 13.442 7.08312 13.274C6.91512 13.0967 6.83112 12.8867 6.83112 12.644C6.83112 12.4013 6.91512 12.196 7.08312 12.028C7.26045 11.8507 7.47045 11.762 7.71312 11.762C7.95578 11.762 8.16112 11.8507 8.32912 12.028C8.50645 12.196 8.59512 12.4013 8.59512 12.644C8.59512 12.8867 8.50645 13.0967 8.32912 13.274C8.16112 13.442 7.95578 13.526 7.71312 13.526Z" fill="#687386"/>
</svg>
