<svg width="96" height="10" viewBox="0 0 66 10" fill="none" xmlns="http://www.w3.org/2000/svg">
<path d="M65.2406 3.61727C65.5633 3.54197 65.8859 3.74253 65.9613 4.06523C66.0365 4.38794 65.836 4.71058 65.5133 4.78588L65.2406 3.61727ZM1.03174 4.49573C0.869284 4.20691 0.971716 3.84108 1.26053 3.67863L5.96704 1.03122C6.25585 0.868757 6.62168 0.971189 6.78414 1.26C6.9466 1.54882 6.84417 1.91465 6.55535 2.07711L2.37179 4.43036L4.72504 8.61392C4.8875 8.90274 4.78507 9.26857 4.49626 9.43103C4.20744 9.59348 3.84161 9.49105 3.67915 9.20224L1.03174 4.49573ZM65.5133 4.78588C60.5279 5.94913 46.9258 8.26479 32.229 8.26479V7.06479C46.8211 7.06479 60.3311 4.76283 65.2406 3.61727L65.5133 4.78588ZM32.229 8.26479C17.5312 8.26479 5.56982 5.94889 1.39291 4.77935L1.71647 3.62379C5.78532 4.76307 17.6377 7.06479 32.229 7.06479V8.26479Z" fill="#0497EC"/>
</svg>
