<svg width="91" height="90" viewBox="0 0 91 90" fill="none" xmlns="http://www.w3.org/2000/svg">
<path d="M77.828 84.7633L76.4866 15.0086L90.2174 0.623974V71.1372L77.828 84.7633Z" fill="#0F172A" stroke="#0F172A" stroke-width="0.5"/>
<path d="M7.40211 13.3656L76.3619 14.0698L89.3002 0.500389L20.727 0.500389L7.40211 13.3656Z" fill="url(#paint0_linear_102_422)" stroke="#0F172A"/>
<rect x="5.57153" y="13.3782" width="72.1971" height="72.197" rx="2.5" fill="#FFDE76" stroke="#0F172A"/>
<rect x="11.6707" y="20.1548" width="59.9975" height="59.9975" rx="7.5" fill="#FFDE76" stroke="#0F172A"/>
<rect x="12.3486" y="20.8318" width="59.3198" height="58.642" rx="6.5" fill="#FFDE76" stroke="#0F172A"/>
<g filter="url(#filter0_d_102_422)">
<rect x="19.7784" y="30.1072" width="3.5665" height="56.431" rx="1.78325" transform="rotate(-45 19.7784 30.1072)" fill="#BAC0CB" stroke="#0F172A" stroke-width="0.5"/>
<rect x="22.3008" y="70.0109" width="3.5665" height="56.431" rx="1.78325" transform="rotate(-135 22.3008 70.0109)" fill="#BAC0CB" stroke="#0F172A" stroke-width="0.5"/>
</g>
<g filter="url(#filter1_d_102_422)">
<circle cx="40.9921" cy="49.4757" r="6.5275" fill="url(#paint1_linear_102_422)" stroke="#0F172A" stroke-width="0.5"/>
<mask id="path-9-inside-1_102_422" fill="white">
<path d="M56.8068 33.9418C65.2765 42.4115 65.2765 56.1436 56.8068 64.6133C48.3371 73.083 34.605 73.083 26.1353 64.6133C17.6656 56.1436 17.6656 42.4115 26.1353 33.9418C34.605 25.4722 48.3371 25.4721 56.8068 33.9418ZM29.5131 61.2356C36.1173 67.8398 46.8248 67.8398 53.429 61.2356C60.0332 54.6314 60.0332 43.9238 53.429 37.3196C46.8248 30.7154 36.1173 30.7154 29.5131 37.3196C22.9088 43.9238 22.9088 54.6314 29.5131 61.2356Z"/>
</mask>
<path d="M56.8068 33.9418C65.2765 42.4115 65.2765 56.1436 56.8068 64.6133C48.3371 73.083 34.605 73.083 26.1353 64.6133C17.6656 56.1436 17.6656 42.4115 26.1353 33.9418C34.605 25.4722 48.3371 25.4721 56.8068 33.9418ZM29.5131 61.2356C36.1173 67.8398 46.8248 67.8398 53.429 61.2356C60.0332 54.6314 60.0332 43.9238 53.429 37.3196C46.8248 30.7154 36.1173 30.7154 29.5131 37.3196C22.9088 43.9238 22.9088 54.6314 29.5131 61.2356Z" fill="url(#paint2_linear_102_422)" stroke="#0F172A" mask="url(#path-9-inside-1_102_422)"/>
</g>
<defs>
<filter id="filter0_d_102_422" x="20.2671" y="28.074" width="41.9478" height="42.4482" filterUnits="userSpaceOnUse" color-interpolation-filters="sRGB">
<feFlood flood-opacity="0" result="BackgroundImageFix"/>
<feColorMatrix in="SourceAlpha" type="matrix" values="0 0 0 0 0 0 0 0 0 0 0 0 0 0 0 0 0 0 127 0" result="hardAlpha"/>
<feOffset dx="0.5" dy="1"/>
<feComposite in2="hardAlpha" operator="out"/>
<feColorMatrix type="matrix" values="0 0 0 0 0.0588235 0 0 0 0 0.0901961 0 0 0 0 0.164706 0 0 0 1 0"/>
<feBlend mode="normal" in2="BackgroundImageFix" result="effect1_dropShadow_102_422"/>
<feBlend mode="normal" in="SourceGraphic" in2="effect1_dropShadow_102_422" result="shape"/>
</filter>
<filter id="filter1_d_102_422" x="19.783" y="27.5896" width="43.8762" height="44.376" filterUnits="userSpaceOnUse" color-interpolation-filters="sRGB">
<feFlood flood-opacity="0" result="BackgroundImageFix"/>
<feColorMatrix in="SourceAlpha" type="matrix" values="0 0 0 0 0 0 0 0 0 0 0 0 0 0 0 0 0 0 127 0" result="hardAlpha"/>
<feOffset dx="0.5" dy="1"/>
<feComposite in2="hardAlpha" operator="out"/>
<feColorMatrix type="matrix" values="0 0 0 0 0.0588235 0 0 0 0 0.0901961 0 0 0 0 0.164706 0 0 0 1 0"/>
<feBlend mode="normal" in2="BackgroundImageFix" result="effect1_dropShadow_102_422"/>
<feBlend mode="normal" in="SourceGraphic" in2="effect1_dropShadow_102_422" result="shape"/>
</filter>
<linearGradient id="paint0_linear_102_422" x1="32.859" y1="-23.7209" x2="46.5025" y2="50.2909" gradientUnits="userSpaceOnUse">
<stop offset="0.0102275" stop-color="white"/>
<stop offset="0.431088" stop-color="white"/>
<stop offset="0.432344" stop-color="#FFDE76"/>
<stop offset="0.869792" stop-color="#FFDE76"/>
</linearGradient>
<linearGradient id="paint1_linear_102_422" x1="50.4806" y1="61.3364" x2="24.1982" y2="35.3103" gradientUnits="userSpaceOnUse">
<stop offset="0.0102275" stop-color="#BAC0CB"/>
<stop offset="0.430988" stop-color="#BAC0CB"/>
<stop offset="0.432344" stop-color="white"/>
<stop offset="0.869792" stop-color="white"/>
</linearGradient>
<linearGradient id="paint2_linear_102_422" x1="89.7898" y1="53.2038" x2="27.4172" y2="-9.60193" gradientUnits="userSpaceOnUse">
<stop offset="0.0102275" stop-color="#BAC0CB"/>
<stop offset="0.430988" stop-color="#BAC0CB"/>
<stop offset="0.432344" stop-color="white"/>
<stop offset="0.869792" stop-color="white"/>
</linearGradient>
</defs>
</svg>
