<svg width="33" height="33" viewBox="0 0 33 33" fill="none" xmlns="http://www.w3.org/2000/svg">
<path d="M14.4666 29.0396L14.4666 29.0395C12.5924 28.9687 10.7513 28.5233 9.05201 27.7295C7.35268 26.9358 5.82951 25.8098 4.57234 24.4179C3.31517 23.026 2.34946 21.3965 1.73216 19.6254C1.11486 17.8544 0.858474 15.9776 0.978127 14.1059C1.20752 10.5105 2.80928 7.14063 5.45242 4.69255C8.09556 2.24448 11.5781 0.905274 15.1805 0.951654C18.7829 0.998034 22.2298 2.42645 24.809 4.94177C27.3883 7.45708 28.9027 10.8671 29.0395 14.4672M14.4666 29.0396L28.9895 14.4691M14.4666 29.0396H14.4685H14.507M14.4666 29.0396H14.507M29.0395 14.4672L28.9895 14.4691M29.0395 14.4672C29.0395 14.4671 29.0395 14.467 29.0395 14.467L28.9895 14.4691M29.0395 14.4672C29.0452 14.6067 29.0224 14.746 28.9724 14.8764C28.9225 15.0069 28.8464 15.1257 28.749 15.2258M28.9895 14.4691C28.995 14.6019 28.9733 14.7344 28.9257 14.8586C28.8782 14.9827 28.8058 15.0958 28.713 15.1911M28.749 15.2258L28.713 15.1911M28.749 15.2258C28.6503 15.328 28.5321 15.4093 28.4014 15.465C28.2708 15.5207 28.1302 15.5496 27.9882 15.5501H27.988H15.55M28.749 15.2258C28.7489 15.2258 28.7489 15.2259 28.7488 15.2259L28.713 15.1911M28.713 15.1911L15.55 15.5501M15.55 15.5501V15.5001H27.988L15.55 15.5501ZM15.55 15.5501V27.9881V27.9883C15.5494 28.1301 15.5204 28.2705 15.4648 28.4009C15.4091 28.5314 15.3278 28.6494 15.2258 28.748M15.55 15.5501H15.5V27.9881C15.4995 28.1232 15.4718 28.257 15.4188 28.3813C15.3657 28.5057 15.2883 28.6181 15.191 28.7121L15.2258 28.748M14.507 29.0396C14.7754 29.0399 15.0334 28.9353 15.2258 28.748M14.507 29.0396L15.2258 28.748M2.07592 14.1737L2.07593 14.1737C2.27466 11.0303 3.61304 8.06735 5.84018 5.84021C8.06732 3.61306 11.0303 2.27468 14.1737 2.07595C14.4516 2.05868 14.7284 2.05005 15.004 2.05005C18.3515 2.05051 21.5688 3.3472 23.981 5.66815C26.3815 7.97779 27.7992 11.1231 27.9406 14.4501H15.5C15.2215 14.4501 14.9545 14.5607 14.7576 14.7576C14.5607 14.9545 14.45 15.2216 14.45 15.5001V15.5001L14.456 27.9385C12.7464 27.8667 11.0677 27.4567 9.51718 26.7322C7.95093 26.0003 6.54709 24.9622 5.38842 23.6791C4.22975 22.3961 3.33973 20.894 2.77081 19.2615C2.2019 17.6289 1.96563 15.899 2.07592 14.1737Z" fill="#0F172A" stroke="#0F172A" stroke-width="0.1"/>
<path d="M17.7742 31.7574C17.9668 31.945 18.2251 32.05 18.494 32.05H18.532V32.05L18.5341 32.05C22.0719 31.9042 25.4256 30.4335 27.9295 27.9298C30.4333 25.4261 31.9041 22.0724 32.05 18.5346L32.05 18.5345C32.0555 18.3945 32.0323 18.2548 31.982 18.1241C31.9317 17.9934 31.8553 17.8744 31.7574 17.7742C31.6587 17.6721 31.5404 17.5907 31.4096 17.535C31.2789 17.4794 31.1383 17.4504 30.9962 17.45H30.996H18.5C18.2215 17.45 17.9545 17.5606 17.7575 17.7575C17.5606 17.9545 17.45 18.2215 17.45 18.5L17.45 30.996L17.45 30.9962C17.4504 31.1383 17.4794 31.2789 17.535 31.4096C17.5907 31.5404 17.672 31.6586 17.7742 31.7574ZM17.7742 31.7574C17.7741 31.7574 17.7741 31.7573 17.7741 31.7573L17.809 31.7215L17.7742 31.7574C17.7742 31.7574 17.7742 31.7574 17.7742 31.7574ZM18.55 30.9438V18.55L30.9478 18.5535C30.799 21.7923 29.4453 24.8594 27.1511 27.1523C24.8569 29.4451 21.7889 30.797 18.55 30.9438Z" fill="#0F172A" stroke="#0F172A" stroke-width="0.1"/>
</svg>
