<svg width="32" height="32" viewBox="0 0 32 32" fill="none" xmlns="http://www.w3.org/2000/svg">
<path d="M25.2795 15.873H30.9998V21.5298"  stroke-width="1.3" stroke-miterlimit="10" stroke-linecap="round" stroke-linejoin="round"/>
<path d="M30.9998 26.6144V31" stroke-width="1.3" stroke-miterlimit="10" stroke-linecap="round" stroke-linejoin="round"/>
<path d="M25.915 26.6144V31"  stroke-width="1.3" stroke-miterlimit="10" stroke-linecap="round" stroke-linejoin="round"/>
<path d="M20.8303 26.6144V31" stroke-width="1.3" stroke-miterlimit="10" stroke-linecap="round" stroke-linejoin="round"/>
<path d="M15.7456 30.4915V31" stroke-width="1.3" stroke-miterlimit="10" stroke-linecap="round" stroke-linejoin="round"/>
<path d="M30.9109 16.0384L24.7841 22.1653H17.843L9.0083 31"  stroke-width="1.3" stroke-miterlimit="10" stroke-linecap="round" stroke-linejoin="round"/>
<path d="M13.1396 6.08476V7.80688" stroke-width="1.3" stroke-miterlimit="10" stroke-linecap="round" stroke-linejoin="round"/>
<path d="M10.7881 16.6357C11.1858 17.5206 12.1066 18.1702 13.1398 18.1702C14.5438 18.1702 15.6821 17.0319 15.6821 15.6278C15.6821 14.2237 14.5438 13.0764 13.1398 13.0764C11.7357 13.0764 10.5974 11.9472 10.5974 10.5431C10.5974 9.13896 11.7357 8.00075 13.1398 8.00075C14.1917 8.00075 15.0412 8.60621 15.4279 9.51707" stroke-width="1.3" stroke-miterlimit="10" stroke-linecap="round" stroke-linejoin="round"/>
<path d="M13.1396 18.2187V20.0044" stroke-width="1.3" stroke-miterlimit="10" stroke-linecap="round" stroke-linejoin="round"/>
<path d="M8.75418 24.356C4.21938 22.6173 1 18.2227 1 13.0762C1 6.40668 6.4067 0.999979 13.0762 0.999979C19.0303 0.999979 23.978 5.30902 24.9709 10.9787" stroke-width="1.3" stroke-miterlimit="10" stroke-linecap="round" stroke-linejoin="round"/>
</svg>
