<svg width="16" height="16" viewBox="0 0 16 16" fill="none" xmlns="http://www.w3.org/2000/svg">
<path d="M8 15.5C12.1353 15.5 15.5 12.1356 15.5 8C15.5 5.995 14.7203 4.1113 13.3044 2.69559C11.8884 1.27972 10.005 0.5 8 0.5C3.86441 0.5 0.5 3.86441 0.5 8C0.5 10.005 1.27972 11.8887 2.69559 13.3044C4.1113 14.7203 5.995 15.5 8 15.5ZM8 14.25C6.53943 14.25 5.15622 13.7535 4.04309 12.8407L12.8407 4.04309C13.7535 5.15622 14.25 6.53943 14.25 8C14.25 11.4462 11.4462 14.25 8 14.25ZM8 1.75C9.46027 1.75 10.8438 2.24652 11.9566 3.1593L3.1593 11.9569C2.24652 10.8438 1.75 9.46057 1.75 8C1.75 4.5538 4.5538 1.75 8 1.75Z" fill="#0F172A"/>
</svg>
