<svg width="30" height="30" viewBox="0 0 30 30" fill="none" xmlns="http://www.w3.org/2000/svg">
<path d="M18.5044 17.1751L18.4479 17.2451L18.5115 17.3087L18.9008 17.6975C19.2017 17.9984 19.2017 18.4862 18.9008 18.787C18.7503 18.9376 18.5533 19.0127 18.3558 19.0127C18.1586 19.0127 17.9616 18.9376 17.8111 18.787L17.8111 18.787L17.4323 18.4084L17.3616 18.3378L17.2909 18.4084L16.6642 19.0349L16.6641 19.0349C16.5139 19.1854 16.3167 19.2606 16.1194 19.2606H16.1193C15.922 19.2608 15.7251 19.1855 15.5747 19.0349L15.5747 19.0349C15.2736 18.734 15.2736 18.2463 15.5747 17.9454L15.5747 17.9454L17.2414 16.2787C17.2414 16.2787 17.2414 16.2787 17.2414 16.2787C17.5925 15.9278 17.5921 15.3569 17.2412 15.0057L17.2411 15.0056C16.89 14.6547 16.319 14.6544 15.9679 15.0054L15.1185 15.8548C14.6431 16.3303 14.0181 16.5683 13.3928 16.5683C12.7674 16.5683 12.1423 16.3303 11.6665 15.8544L11.6665 15.8544C11.2053 15.3931 10.9513 14.7804 10.9513 14.1283C10.9513 13.5632 11.1419 13.0281 11.4925 12.5953L11.5492 12.5253L11.4855 12.4616L11.0964 12.0728C11.0964 12.0728 11.0964 12.0728 11.0964 12.0728C11.0964 12.0728 11.0964 12.0728 11.0964 12.0728C10.7955 11.7717 10.7955 11.2841 11.0964 10.983L11.0257 10.9124L11.0964 10.9831C11.3974 10.6822 11.8853 10.6822 12.1861 10.983L12.5649 11.3618L12.6356 11.4326L12.7063 11.3618L13.1032 10.965L13.1032 10.9649C13.4041 10.6639 13.8919 10.6639 14.1927 10.9649L14.1927 10.965C14.4938 11.2658 14.4938 11.7536 14.1927 12.0544L14.1927 12.0545L12.7556 13.4916L12.7555 13.4917C12.586 13.6614 12.4921 13.8878 12.4921 14.1279L12.4921 14.128C12.4924 14.3682 12.586 14.5946 12.756 14.7646L12.7561 14.7647C13.1072 15.1156 13.6782 15.1159 14.0291 14.7648L14.8784 13.9155C14.8784 13.9155 14.8784 13.9155 14.8784 13.9155C15.8302 12.9639 17.3789 12.9641 18.3307 13.9159C19.2204 14.8059 19.2783 16.2174 18.5044 17.1751ZM11.5958 15.9251C12.0911 16.4206 12.7421 16.6683 13.3928 16.6683C14.0435 16.6683 14.6942 16.4206 15.1893 15.9255L16.0386 15.0761C16.3506 14.7642 16.8583 14.7644 17.1705 15.0764L11.5958 15.9251Z" stroke="#F4FAFE" stroke-width="0.2"/>
<path d="M21.857 8.06352L21.857 8.06357C22.2355 8.44176 22.8511 8.44206 23.2296 8.06355C23.6081 7.68506 23.6081 7.06945 23.2296 6.69097L23.2296 6.69095C22.8511 6.31272 22.2355 6.31272 21.857 6.69095L21.857 6.69099C21.4788 7.06947 21.4788 7.68504 21.857 8.06352ZM20.0319 7.37714C20.0319 6.70627 20.293 6.07596 20.7675 5.60146C21.7465 4.62244 23.3401 4.62223 24.3191 5.60124C25.2983 6.58048 25.2983 8.17381 24.3191 9.15305C23.8296 9.64252 23.1869 9.88731 22.5434 9.88731C21.9 9.88731 21.257 9.64251 20.7675 9.15305C20.293 8.67856 20.0319 8.04825 20.0319 7.37714Z" stroke="#F4FAFE" stroke-width="0.2"/>
<path d="M28.6528 0.36176L28.6498 0.461714C29.0569 0.474071 29.3841 0.801425 29.3963 1.20886L29.754 13.1984L29.754 13.1985C29.7605 13.4093 29.6801 13.6135 29.5316 13.7634L29.5316 13.7634L14.8834 28.5627C14.0296 29.4252 12.8945 29.8999 11.6865 29.8999C10.4783 29.8999 9.34315 29.4252 8.48958 28.5627L8.4185 28.633L8.48957 28.5627L1.56292 21.5648C-0.193626 19.7904 -0.193632 16.9022 1.56292 15.1275L16.2114 0.328196L16.2114 0.328179C16.3615 0.176403 16.5676 0.094255 16.7823 0.100313C16.7824 0.100314 16.7824 0.100315 16.7824 0.100316L28.6497 0.461714L28.6528 0.36176ZM17.114 1.65203L17.0705 1.65071L17.0399 1.68164L2.65812 16.2115C1.49275 17.3887 1.49275 19.3036 2.65811 20.4808L9.58452 27.4786C10.1461 28.0461 10.8928 28.359 11.6865 28.359C12.4799 28.359 13.2266 28.0461 13.7882 27.4786L28.1739 12.9448L28.204 12.9144L28.2027 12.8715L27.8805 2.07402L27.8777 1.97991L27.7836 1.97705L17.114 1.65203Z" stroke="#F4FAFE" stroke-width="0.2"/>
</svg>
