<svg width="70" height="68" viewBox="0 0 70 68" fill="none" xmlns="http://www.w3.org/2000/svg">
<path d="M33.7036 67.4073C52.3176 67.4073 67.4073 52.3176 67.4073 33.7036C67.4073 15.0896 52.3176 0 33.7036 0C15.0896 0 0 15.0896 0 33.7036C0 52.3176 15.0896 67.4073 33.7036 67.4073Z" fill="#0B1630"/>
<path d="M45.8753 47.1547C40.2374 46.215 25.772 40.7214 22.7974 26.1703C21.3095 19.1196 22.7143 8.80705 22.7143 8.80705C11.6914 13.8731 5.17246 25.9983 7.70062 38.4492C10.6752 53.0003 24.9743 62.4862 39.6104 59.5294C47.1546 58.0517 53.1994 53.5712 57.1373 47.5855C55.1743 48.4794 51.5133 48.0943 45.8753 47.1547Z" fill="#2E374B"/>
<path fill-rule="evenodd" clip-rule="evenodd" d="M33.5501 20.5591L44.182 27.017V33.8595C44.182 39.9505 40.0013 45.7431 34.1097 47.1817L33.5501 47.3184L32.9904 47.1817C27.0988 45.7431 22.9181 39.9505 22.9181 33.8595V27.017L33.5501 20.5591ZM33.5501 44.8898C28.807 43.7316 25.2773 38.961 25.2773 33.8595V28.3444L33.5501 23.3195L41.8228 28.3444V33.8595C41.8228 38.961 38.2931 43.7316 33.5501 44.8898Z" fill="white"/>
<path fill-rule="evenodd" clip-rule="evenodd" d="M33.4462 23.0499L33.5502 22.9824L41.8229 28.3444V33.8595C41.8229 38.9544 38.3024 43.7193 33.5686 44.8853V23.0499H33.4462Z" fill="white"/>
<path fill-rule="evenodd" clip-rule="evenodd" d="M59.3927 46.0211L61.1785 47.2896C61.5809 47.5754 61.5389 48.1854 61.1013 48.4134L55.3199 51.4255C54.8608 51.6647 54.3176 51.3066 54.3565 50.7904L54.8655 44.0333C54.904 43.521 55.4873 43.2471 55.9061 43.5447L57.5074 44.682C61.5955 35.3916 60.0846 24.1633 52.7681 16.2258C42.9905 5.61842 26.5166 4.87009 15.8198 14.4886C15.6842 14.6105 15.4744 14.6031 15.3509 14.4691L14.2607 13.2863C14.1371 13.1523 14.1466 12.9423 14.282 12.8203C25.9002 2.35263 43.8094 3.15944 54.4362 14.6881C62.4977 23.4338 64.0674 35.8526 59.3927 46.0211Z" fill="white"/>
<path fill-rule="evenodd" clip-rule="evenodd" d="M8.15175 21.3211L6.38559 20.0253C5.98772 19.7334 6.03903 19.1241 6.48012 18.9028L12.3071 15.9799C12.7698 15.7478 13.3075 16.1142 13.2607 16.6297L12.6479 23.3782C12.6014 23.8899 12.0141 24.1547 11.5998 23.8508L10.0162 22.689C5.78585 31.9155 7.12391 43.1656 14.3176 51.2147C23.931 61.9711 40.3915 63.3205 51.2348 53.8676C51.3723 53.7478 51.5819 53.7584 51.7034 53.8943L52.7753 55.0937C52.8968 55.2296 52.8841 55.4394 52.7468 55.5594C40.9691 65.8472 23.0744 64.4172 12.626 52.7265C4.69994 43.858 3.32128 31.4165 8.15175 21.3211Z" fill="white"/>
<ellipse cx="59.6296" cy="14.5181" rx="10.3703" ry="10.3703" fill="#0B1630"/>
<path d="M56.1007 20.0421L56.6047 18.6665L57.6127 19.5025L56.6699 20.3682L56.1007 20.0421Z" fill="#213147"/>
<path d="M53.634 11.6284V17.4392C53.634 17.8127 53.8297 18.1507 54.1558 18.3405L59.1899 21.2459C59.5101 21.4297 59.9073 21.4297 60.2275 21.2459L65.2616 18.3405C65.5818 18.1566 65.7834 17.8127 65.7834 17.4392V11.6284C65.7834 11.2548 65.5877 10.9168 65.2616 10.7271L60.2275 7.8217C59.9073 7.63789 59.5101 7.63789 59.1899 7.8217L54.1558 10.7271C53.8356 10.9109 53.64 11.2548 53.64 11.6284H53.634Z" fill="#213147"/>
<path d="M60.8027 15.6604L60.0852 17.6289C60.0675 17.6823 60.0675 17.7416 60.0852 17.8009L61.3186 21.1866L62.7475 20.3624L61.0339 15.6604C60.9924 15.5536 60.8442 15.5536 60.8027 15.6604Z" fill="#12AAFF"/>
<path d="M62.2435 12.3518C62.202 12.245 62.0538 12.245 62.0123 12.3518L61.2948 14.3203C61.277 14.3737 61.277 14.433 61.2948 14.4923L63.3168 20.0363L64.7457 19.2121L62.2435 12.3577V12.3518Z" fill="#12AAFF"/>
<path d="M59.7059 8.04113C59.7415 8.04113 59.777 8.05299 59.8067 8.07077L65.2499 11.2134C65.3151 11.2489 65.3507 11.3201 65.3507 11.3912V17.6764C65.3507 17.7476 65.3092 17.8187 65.2499 17.8543L59.8067 20.9969C59.777 21.0147 59.7415 21.0265 59.7059 21.0265C59.6703 21.0265 59.6347 21.0147 59.6051 20.9969L54.1619 17.8543C54.0967 17.8187 54.0611 17.7476 54.0611 17.6764V11.3853C54.0611 11.3142 54.1026 11.243 54.1619 11.2074L59.6051 8.06485C59.6347 8.04706 59.6703 8.0352 59.7059 8.0352V8.04113ZM59.7059 7.12207C59.5102 7.12207 59.3205 7.16951 59.1426 7.27031L53.6994 10.4129C53.3496 10.6145 53.1361 10.9821 53.1361 11.3853V17.6705C53.1361 18.0737 53.3496 18.4413 53.6994 18.6429L59.1426 21.7855C59.3145 21.8863 59.5102 21.9337 59.7059 21.9337C59.9016 21.9337 60.0913 21.8863 60.2692 21.7855L65.7124 18.6429C66.0622 18.4413 66.2757 18.0737 66.2757 17.6705V11.3853C66.2757 10.9821 66.0622 10.6145 65.7124 10.4129L60.2633 7.27031C60.0913 7.16951 59.8956 7.12207 59.7 7.12207H59.7059Z" fill="#9DCCED"/>
<path d="M59.2433 10.9405H57.8618C57.761 10.9405 57.6661 11.0057 57.6305 11.1006L54.6718 19.212L56.1007 20.0362L59.3619 11.1006C59.3916 11.0176 59.3323 10.9346 59.2493 10.9346L59.2433 10.9405Z" fill="white"/>
<path d="M61.6626 10.9405H60.2811C60.1803 10.9405 60.0854 11.0057 60.0498 11.1006L56.67 20.3623L58.099 21.1865L61.7753 11.1006C61.8049 11.0176 61.7456 10.9346 61.6626 10.9346V10.9405Z" fill="white"/>
</svg>
