<svg width="7" height="10" viewBox="0 0 7 10" fill="none" xmlns="http://www.w3.org/2000/svg">
<path fill-rule="evenodd" clip-rule="evenodd" d="M1.10452 0.205184C0.830938 0.478763 0.830938 0.922322 1.10452 1.1959L4.90359 4.99498L1.09434 8.80422C0.820766 9.0778 0.820765 9.52136 1.09434 9.79494C1.36792 10.0685 1.81148 10.0685 2.08506 9.79494L6.26437 5.61563C6.31482 5.58604 6.36236 5.5496 6.40565 5.50632C6.62278 5.28918 6.66758 4.96498 6.54005 4.70366C6.50611 4.62755 6.45792 4.55625 6.39548 4.49381C6.3696 4.46793 6.3422 4.4445 6.31356 4.42351L2.09523 0.205184C1.82165 -0.0683946 1.3781 -0.0683947 1.10452 0.205184Z" fill="#BAC0CB"/>
</svg>
