<svg width="23" height="24" viewBox="0 0 23 24" fill="none" xmlns="http://www.w3.org/2000/svg">
<path d="M11.0741 23.074C17.1901 23.074 22.1481 18.116 22.1481 12C22.1481 5.88393 17.1901 0.925903 11.0741 0.925903C4.95803 0.925903 0 5.88393 0 12C0 18.116 4.95803 23.074 11.0741 23.074Z" fill="#0F172A"/>
<path d="M15.0733 16.4196C13.2209 16.1109 8.46793 14.3058 7.49057 9.52474C7.00168 7.20809 7.46328 3.81967 7.46328 3.81967C3.84147 5.48422 1.69951 9.46824 2.53019 13.5593C3.50755 18.3403 8.20582 21.4571 13.0148 20.4856C15.4937 20.0001 17.4798 18.5279 18.7737 16.5612C18.1287 16.8549 16.9258 16.7284 15.0733 16.4196Z" fill="#70002F"/>
<path fill-rule="evenodd" clip-rule="evenodd" d="M19.5294 16.0237L20.1162 16.4405C20.2484 16.5344 20.2346 16.7348 20.0908 16.8097L18.1912 17.7994C18.0403 17.878 17.8618 17.7604 17.8746 17.5908L18.0419 15.3706C18.0545 15.2022 18.2462 15.1122 18.3838 15.21L18.9099 15.5837C20.2532 12.5311 19.7567 8.84185 17.3527 6.23379C14.1401 2.74851 8.72722 2.50263 5.21256 5.66299C5.16801 5.70304 5.09909 5.70062 5.05849 5.65658L4.70028 5.26797C4.65968 5.22392 4.66279 5.15492 4.7073 5.11483C8.5247 1.67546 14.4092 1.94056 17.9008 5.72856C20.5496 8.60213 21.0654 12.6826 19.5294 16.0237Z" fill="white"/>
<path fill-rule="evenodd" clip-rule="evenodd" d="M2.69306 7.90795L2.11275 7.4822C1.98202 7.38629 1.99888 7.18609 2.14381 7.11339L4.0584 6.15299C4.21043 6.07673 4.38709 6.19713 4.37171 6.36652L4.17037 8.58387C4.1551 8.752 3.96211 8.83902 3.826 8.73916L3.30567 8.35741C1.91569 11.389 2.35534 15.0855 4.719 17.7302C7.87769 21.2644 13.2861 21.7078 16.849 18.6018C16.8941 18.5625 16.963 18.5659 17.0029 18.6106L17.3551 19.0047C17.395 19.0493 17.3908 19.1183 17.3457 19.1577C13.4759 22.538 7.59622 22.0681 4.16318 18.2269C1.55889 15.313 1.1059 11.225 2.69306 7.90795Z" fill="white"/>
<path fill-rule="evenodd" clip-rule="evenodd" d="M11.0236 7.68103L14.517 9.80293V12.0512C14.517 14.0525 13.1433 15.9558 11.2075 16.4285L11.0236 16.4734L10.8398 16.4285C8.90394 15.9558 7.53027 14.0525 7.53027 12.0512V9.80293L11.0236 7.68103ZM11.0236 15.6754C9.46522 15.2949 8.30546 13.7274 8.30546 12.0512V10.2391L11.0236 8.58801L13.7418 10.2391V12.0512C13.7418 13.7274 12.5821 15.2949 11.0236 15.6754Z" fill="white"/>
<path fill-rule="evenodd" clip-rule="evenodd" d="M10.9897 8.49944L11.0239 8.47729L13.7421 10.2391V12.0512C13.7421 13.7252 12.5853 15.2908 11.03 15.674V8.49944H10.9897Z" fill="white"/>
<ellipse cx="19.5925" cy="5.6961" rx="3.40741" ry="3.4074" fill="#0F172A"/>
<path d="M17.9411 7.51188C17.6654 7.52681 17.3933 7.42763 17.1659 7.22929C17.0676 7.13404 16.9891 7.00983 16.9371 6.86742C16.8852 6.72501 16.8614 6.56868 16.8677 6.41196C16.8689 6.32064 16.8756 6.22956 16.8876 6.13951C16.9221 5.89695 16.9711 5.60598 17.0347 5.26661C17.2149 4.34155 17.68 3.87902 18.43 3.87902C18.618 3.87511 18.8047 3.91975 18.9787 4.01023C19.1331 4.08704 19.266 4.22055 19.3603 4.3937C19.4554 4.5721 19.504 4.7839 19.4993 4.99923C19.4979 5.08886 19.4913 5.17824 19.4794 5.26661C19.4396 5.56599 19.3919 5.85696 19.3363 6.13951C19.2436 6.60031 19.0833 6.94509 18.8553 7.17383C18.6275 7.3992 18.3228 7.51188 17.9411 7.51188ZM17.9968 6.78529C18.1345 6.79012 18.2688 6.73091 18.3745 6.6188C18.4913 6.48435 18.5708 6.3056 18.6011 6.10919C18.6621 5.79312 18.7084 5.51729 18.7401 5.28171C18.7508 5.21018 18.7561 5.13753 18.756 5.06472C18.756 4.75858 18.6301 4.60554 18.3784 4.60562C18.2395 4.60139 18.1041 4.66046 17.9967 4.7721C17.8821 4.90797 17.8041 5.08632 17.7741 5.28171C17.7263 5.50708 17.6786 5.7829 17.631 6.10919C17.6202 6.17899 17.6149 6.24997 17.6151 6.3211C17.6151 6.63056 17.7423 6.78529 17.9968 6.78529Z" fill="#FF1100"/>
<path d="M19.6825 7.46158C19.6698 7.46252 19.6572 7.45983 19.6455 7.45373C19.6338 7.44762 19.6233 7.43825 19.6149 7.4263C19.6017 7.39918 19.5974 7.36654 19.603 7.33545L20.1516 4.05574C20.1565 4.01955 20.172 3.98707 20.195 3.96489C20.2163 3.94258 20.243 3.93014 20.2706 3.92961H21.3281C21.5771 3.9141 21.8239 3.99505 22.0358 4.1617C22.1229 4.23412 22.1937 4.3341 22.2411 4.45179C22.2885 4.56947 22.3109 4.7008 22.3062 4.83284C22.3058 4.92115 22.2978 5.00915 22.2823 5.09525C22.2384 5.43521 22.095 5.74159 21.8807 5.95305C21.682 6.13806 21.409 6.23057 21.0618 6.23057H20.5252L20.3423 7.33556C20.3374 7.37175 20.3219 7.40423 20.2988 7.42641C20.2776 7.4487 20.2509 7.46114 20.2234 7.4617L19.6825 7.46158ZM21.0898 5.53407C21.194 5.53699 21.296 5.49622 21.3801 5.41808C21.4666 5.33747 21.5261 5.21868 21.5471 5.0851C21.5544 5.03517 21.5584 4.98452 21.559 4.93372C21.5612 4.89268 21.5563 4.85151 21.5447 4.81314C21.533 4.77476 21.5148 4.74012 21.4914 4.71166C21.425 4.64948 21.3429 4.62072 21.2608 4.63095H20.7838L20.6327 5.53407H21.0898Z" fill="#FF1100"/>
</svg>
