<svg width="96" height="10" viewBox="0 0 66 10" fill="none" xmlns="http://www.w3.org/2000/svg">
<path d="M1.69054 6.85905C1.36784 6.93435 1.0452 6.73379 0.969902 6.41108C0.894608 6.08838 1.09517 5.76574 1.41787 5.69044L1.69054 6.85905ZM65.8994 5.98059C66.0619 6.2694 65.9594 6.63523 65.6706 6.79769L60.9641 9.4451C60.6753 9.60756 60.3095 9.50513 60.147 9.21631C59.9846 8.9275 60.087 8.56167 60.3758 8.39921L64.5594 6.04596L62.2061 1.8624C62.0437 1.57358 62.1461 1.20775 62.4349 1.04529C62.7237 0.882835 63.0895 0.985267 63.252 1.27408L65.8994 5.98059ZM1.41787 5.69044C6.40324 4.52719 20.0053 2.21152 34.7022 2.21152V3.41152C20.1101 3.41152 6.60009 5.71349 1.69054 6.85905L1.41787 5.69044ZM34.7022 2.21152C49.3999 2.21152 61.3613 4.52743 65.5382 5.69697L65.2147 6.85253C61.1458 5.71325 49.2934 3.41152 34.7022 3.41152V2.21152Z" fill="#0497EC"/>
</svg>
