<svg width="70" height="68" viewBox="0 0 70 68" fill="none" xmlns="http://www.w3.org/2000/svg">
<path d="M33.7037 67.7419C52.3177 67.7419 67.4074 52.5774 67.4074 33.871C67.4074 15.1645 52.3177 0 33.7037 0C15.0897 0 0 15.1645 0 33.871C0 52.5774 15.0897 67.7419 33.7037 67.7419Z" fill="#0B1630"/>
<path d="M45.8754 47.3887C40.2374 46.4444 25.772 40.9235 22.7974 26.3002C21.3095 19.2145 22.7144 8.85073 22.7144 8.85073C11.6915 13.9419 5.17246 26.1274 7.70062 38.6401C10.6752 53.2634 24.9743 62.7964 39.6104 59.8249C47.1547 58.3399 53.1995 53.8371 57.1374 47.8217C55.1744 48.72 51.5134 48.3331 45.8754 47.3887Z" fill="#70002F"/>
<path fill-rule="evenodd" clip-rule="evenodd" d="M59.4368 46.1777L61.2227 47.4525C61.625 47.7397 61.5831 48.3527 61.1454 48.5819L55.364 51.609C54.9049 51.8494 54.3617 51.4895 54.4006 50.9707L54.9096 44.1801C54.9482 43.6652 55.5314 43.39 55.9503 43.689L57.5516 44.832C61.6396 35.4954 60.1288 24.2114 52.8122 16.2345C43.0346 5.57445 26.5606 4.8224 15.8639 14.4886C15.7283 14.6111 15.5185 14.6038 15.395 14.469L14.3048 13.2804C14.1812 13.1457 14.1907 12.9347 14.3261 12.812C25.9443 2.29245 43.8535 3.10326 54.4804 14.6892C62.5418 23.4782 64.1116 35.9587 59.4368 46.1777Z" fill="white"/>
<path fill-rule="evenodd" clip-rule="evenodd" d="M8.19582 21.3551L6.42966 20.0528C6.03179 19.7595 6.0831 19.1472 6.52419 18.9248L12.3512 15.9874C12.8139 15.7541 13.3516 16.1223 13.3048 16.6404L12.692 23.4224C12.6455 23.9366 12.0581 24.2028 11.6439 23.8974L10.0603 22.7297C5.82992 32.0021 7.16798 43.3081 14.3617 51.3971C23.9751 62.2069 40.4356 63.563 51.279 54.0632C51.4164 53.9428 51.626 53.9534 51.7475 54.09L52.8194 55.2953C52.9409 55.4319 52.9282 55.6428 52.7909 55.7633C41.0132 66.1022 23.1185 64.6652 12.6701 52.9164C4.744 44.0039 3.36534 31.5006 8.19582 21.3551Z" fill="white"/>
<path fill-rule="evenodd" clip-rule="evenodd" d="M33.5501 20.6614L44.1821 27.1514V34.0278C44.1821 40.1491 40.0013 45.9704 34.1097 47.4162L33.5501 47.5535L32.9904 47.4162C27.0988 45.9704 22.9181 40.1491 22.9181 34.0278V27.1514L33.5501 20.6614ZM33.5501 45.1129C28.807 43.9489 25.2773 39.1547 25.2773 34.0278V28.4853L33.5501 23.4355L41.8228 28.4853V34.0278C41.8228 39.1547 38.2931 43.9489 33.5501 45.1129Z" fill="white"/>
<path fill-rule="evenodd" clip-rule="evenodd" d="M33.4463 23.1644L33.5503 23.0967L41.823 28.4852V34.0278C41.823 39.148 38.3024 43.9365 33.5687 45.1083V23.1644H33.4463Z" fill="white"/>
<ellipse cx="59.6298" cy="14.5903" rx="10.3704" ry="10.4218" fill="#0B1630"/>
<path d="M54.6031 20.1439C53.7639 20.1895 52.9359 19.8862 52.2436 19.2795C51.9445 18.9882 51.7056 18.6083 51.5475 18.1727C51.3894 17.7372 51.3169 17.259 51.3362 16.7797C51.3399 16.5003 51.3601 16.2218 51.3967 15.9464C51.5016 15.2045 51.6508 14.3145 51.8444 13.2765C52.3929 10.4471 53.8085 9.03246 56.0911 9.03246C56.6633 9.02051 57.2313 9.15705 57.7608 9.43377C58.2308 9.66871 58.6352 10.0771 58.9223 10.6067C59.2118 11.1523 59.3598 11.8001 59.3454 12.4587C59.3412 12.7329 59.321 13.0062 59.2848 13.2765C59.1637 14.1922 59.0186 15.0822 58.8493 15.9464C58.5673 17.3558 58.0793 18.4103 57.3854 19.1099C56.6921 19.7992 55.7647 20.1439 54.6031 20.1439ZM54.7726 17.9215C55.1916 17.9363 55.6005 17.7552 55.9222 17.4123C56.2777 17.0011 56.5196 16.4544 56.6117 15.8536C56.7973 14.8869 56.9384 14.0433 57.0348 13.3227C57.0672 13.1039 57.0834 12.8817 57.0832 12.659C57.0832 11.7227 56.7 11.2546 55.9338 11.2548C55.5114 11.2419 55.0993 11.4226 54.7723 11.764C54.4234 12.1796 54.1862 12.7251 54.0947 13.3227C53.9494 14.012 53.8043 14.8556 53.6592 15.8536C53.6264 16.0671 53.6102 16.2842 53.6108 16.5018C53.6108 17.4483 53.9981 17.9215 54.7726 17.9215Z" fill="#FF0420"/>
<path d="M59.9029 19.99C59.8645 19.9928 59.826 19.9846 59.7904 19.9659C59.7548 19.9473 59.723 19.9186 59.6972 19.8821C59.657 19.7991 59.644 19.6993 59.661 19.6042L61.3307 9.57292C61.3455 9.46223 61.3927 9.36288 61.4629 9.29504C61.5277 9.2268 61.6088 9.18874 61.6929 9.18713H64.9114C65.6692 9.13971 66.4204 9.38728 67.0652 9.897C67.3304 10.1185 67.5457 10.4243 67.69 10.7843C67.8342 11.1442 67.9025 11.5459 67.888 11.9497C67.8869 12.2198 67.8625 12.489 67.8153 12.7523C67.6819 13.7921 67.2454 14.7292 66.5933 15.376C65.9883 15.9419 65.1575 16.2248 64.1008 16.2248H62.4676L61.911 19.6045C61.8962 19.7152 61.849 19.8145 61.7788 19.8824C61.7141 19.9506 61.633 19.9886 61.5491 19.9903L59.9029 19.99ZM64.1862 14.0945C64.5032 14.1034 64.8137 13.9787 65.0695 13.7397C65.3328 13.4932 65.5141 13.1299 65.5777 12.7213C65.6002 12.5686 65.6123 12.4137 65.6139 12.2583C65.6208 12.1328 65.606 12.0069 65.5704 11.8895C65.5349 11.7721 65.4795 11.6661 65.4082 11.5791C65.2063 11.3889 64.9563 11.301 64.7065 11.3323H63.2547L62.7949 14.0945H64.1862Z" fill="#FF0420"/>
</svg>
