<svg width="24" height="24" viewBox="0 0 24 24" fill="none" xmlns="http://www.w3.org/2000/svg">
<g filter="url(#filter0_d_105_1026)">
<rect x="0.916992" width="23" height="23" rx="11.5" fill="#0F172A"/>
<path fill-rule="evenodd" clip-rule="evenodd" d="M17.212 6.70518H8.55777V4.6001H17.212C18.3746 4.6001 19.3171 5.54257 19.3171 6.70518H17.212V6.70518H17.212ZM17.212 7.40688H17.212V16.295H17.212V18.4001H17.212V18.4001C18.3746 18.4001 19.3171 17.4576 19.3171 16.295V7.64077H17.212V7.40688ZM7.62217 16.295H16.2764L16.2764 18.4001H16.5103V18.4001H7.62217C6.45957 18.4001 5.51709 17.4576 5.51709 16.295H7.62217ZM7.62217 4.6001V6.70518V15.3594H5.51709V6.70518C5.51709 5.54258 6.45957 4.6001 7.62217 4.6001Z" fill="#0497EC"/>
<path fill-rule="evenodd" clip-rule="evenodd" d="M12.5338 8.81006C12.1472 8.81006 11.8321 9.12346 11.8321 9.51006V10.6812H10.6609C10.2743 10.6812 9.96094 10.9963 9.96094 11.3829C9.96094 11.7695 10.2743 12.0846 10.6609 12.0846H11.8321V13.2558C11.8321 13.6424 12.1472 13.9558 12.5338 13.9558C12.9204 13.9558 13.2355 13.6424 13.2355 13.2558V12.0846H14.4067C14.7933 12.0846 15.1067 11.7695 15.1067 11.3829C15.1067 10.9963 14.7933 10.6812 14.4067 10.6812H13.2355V9.51006C13.2355 9.12346 12.9204 8.81006 12.5338 8.81006Z" fill="#0497EC"/>
</g>
<defs>
<filter id="filter0_d_105_1026" x="0.916992" y="0" width="23" height="24" filterUnits="userSpaceOnUse" color-interpolation-filters="sRGB">
<feFlood flood-opacity="0" result="BackgroundImageFix"/>
<feColorMatrix in="SourceAlpha" type="matrix" values="0 0 0 0 0 0 0 0 0 0 0 0 0 0 0 0 0 0 127 0" result="hardAlpha"/>
<feOffset dy="1"/>
<feComposite in2="hardAlpha" operator="out"/>
<feColorMatrix type="matrix" values="0 0 0 0 0.0588235 0 0 0 0 0.0901961 0 0 0 0 0.164706 0 0 0 1 0"/>
<feBlend mode="normal" in2="BackgroundImageFix" result="effect1_dropShadow_105_1026"/>
<feBlend mode="normal" in="SourceGraphic" in2="effect1_dropShadow_105_1026" result="shape"/>
</filter>
</defs>
</svg>
