<svg width="16" height="16" viewBox="0 0 16 16" xmlns="http://www.w3.org/2000/svg">
<g clip-path="url(#clip0_105_986)">
<path d="M14.9671 2.56921C14.6448 2.53982 14.3598 2.77728 14.3304 3.09954L14.2528 3.95117C12.9356 1.88264 10.6492 0.5 7.99988 0.5C5.14985 0.5 2.6382 2.12662 1.39139 4.56799C1.2442 4.85618 1.35852 5.20912 1.64671 5.35631C1.93496 5.5035 2.28784 5.38921 2.43503 5.10099C3.49022 3.03485 5.60917 1.67188 7.99988 1.67188C10.1789 1.67188 12.1454 2.80657 13.2719 4.58422L12.4365 3.98753C12.1731 3.79947 11.8072 3.86047 11.6191 4.12379C11.4311 4.38714 11.4921 4.75306 11.7554 4.94114L14.2888 6.75055C14.6601 7.01524 15.1723 6.77293 15.2129 6.32694L15.4974 3.20595C15.5268 2.88365 15.2894 2.59859 14.9671 2.56921Z" />
<path d="M14.3531 10.6438C14.0649 10.4966 13.712 10.6109 13.5648 10.8991C12.5096 12.9653 10.3907 14.3282 7.99997 14.3282C5.82095 14.3282 3.85449 13.1935 2.72791 11.4159L3.56337 12.0126C3.82672 12.2006 4.19263 12.1396 4.38072 11.8763C4.56878 11.613 4.50778 11.2471 4.24446 11.059L1.71101 9.24957C1.34425 8.98754 0.827976 9.22259 0.78696 9.67317L0.502458 12.7942C0.473073 13.1164 0.710525 13.4015 1.03276 13.4309C1.35544 13.4602 1.64011 13.2225 1.66947 12.9005L1.74711 12.0489C3.06424 14.1175 5.35068 15.5001 7.99997 15.5001C10.85 15.5001 13.3616 13.8735 14.6085 11.4321C14.7557 11.1439 14.6413 10.791 14.3531 10.6438Z"/>
</g>
<defs>
<clipPath id="clip0_105_986">
<rect width="15" height="15" fill="white" transform="translate(0.5 0.5)"/>
</clipPath>
</defs>
</svg>
