<svg width="15" height="16" viewBox="0 0 15 16" fill="none" xmlns="http://www.w3.org/2000/svg">
<path d="M7.5 0.5C6.01664 0.5 4.5666 0.939867 3.33323 1.76398C2.09986 2.58809 1.13856 3.75943 0.570907 5.12987C0.00324965 6.50032 -0.145275 8.00832 0.144114 9.46318C0.433503 10.918 1.14781 12.2544 2.1967 13.3033C3.2456 14.3522 4.58197 15.0665 6.03683 15.3559C7.49168 15.6453 8.99968 15.4968 10.3701 14.9291C11.7406 14.3614 12.9119 13.4001 13.736 12.1668C14.5601 10.9334 15 9.48336 15 8C14.9979 6.01154 14.207 4.10513 12.8009 2.69907C11.3949 1.29302 9.48847 0.502151 7.5 0.5ZM7.5 14.25C6.26387 14.25 5.0555 13.8834 4.02769 13.1967C2.99988 12.5099 2.1988 11.5338 1.72576 10.3918C1.25271 9.24973 1.12894 7.99307 1.3701 6.78069C1.61125 5.5683 2.20651 4.45466 3.08059 3.58058C3.95466 2.7065 5.06831 2.11125 6.28069 1.87009C7.49307 1.62893 8.74974 1.75271 9.89178 2.22575C11.0338 2.6988 12.0099 3.49988 12.6967 4.52769C13.3834 5.55549 13.75 6.76387 13.75 8C13.7482 9.65705 13.0891 11.2457 11.9174 12.4174C10.7457 13.5891 9.15705 14.2482 7.5 14.25Z" fill="#0F172A"/>
<path d="M7.5 6.125C7.33424 6.125 7.17527 6.19085 7.05806 6.30806C6.94085 6.42527 6.875 6.58424 6.875 6.75V11.75C6.875 11.9158 6.94085 12.0747 7.05806 12.1919C7.17527 12.3092 7.33424 12.375 7.5 12.375C7.66576 12.375 7.82473 12.3092 7.94194 12.1919C8.05915 12.0747 8.125 11.9158 8.125 11.75V6.75C8.125 6.58424 8.05915 6.42527 7.94194 6.30806C7.82473 6.19085 7.66576 6.125 7.5 6.125Z" fill="#0F172A"/>
<path d="M7.5 4.875C7.84518 4.875 8.125 4.59518 8.125 4.25C8.125 3.90482 7.84518 3.625 7.5 3.625C7.15482 3.625 6.875 3.90482 6.875 4.25C6.875 4.59518 7.15482 4.875 7.5 4.875Z" fill="#0F172A"/>
</svg>
