<svg width="30" height="32" viewBox="0 0 30 32" fill="none" xmlns="http://www.w3.org/2000/svg">
<path d="M29.3709 13.9677L28.818 8.99204C28.787 8.7123 28.5504 8.5 28.2685 8.5C27.5652 8.5 26.9516 8.76979 26.4944 9.28007C25.2112 10.7125 25.4561 13.6294 25.5042 14.0927V14.6295C23.5869 14.719 23.1225 15.3089 22.3546 16.5197C22.0881 16.9404 21.7575 17.4606 21.2572 18.0743L18.3403 20.0712C17.9981 20.3377 15 22.7266 15 24.5676C15 26.1664 15.2267 27.2168 15.3925 27.9842C15.4821 28.3994 15.5529 28.7278 15.5529 28.9904V30.6489C15.5529 31.3798 16.6586 31.3809 16.6586 30.6489V28.9904C16.6586 28.61 16.5729 28.212 16.4734 27.7509C16.318 27.0322 16.1057 26.0481 16.1057 24.5676C16.1057 23.5835 17.8931 21.8226 18.9921 20.9635L21.9466 18.9423C21.9897 18.913 22.0279 18.8781 22.061 18.8383C22.6332 18.1456 22.9965 17.5729 23.2889 17.1123C23.8899 16.1642 24.111 15.8159 25.3815 15.7391C25.2234 16.4732 24.9237 17.6895 24.4881 18.7178C24.1309 19.0622 22.7034 20.4449 21.7841 21.4246C21.2837 21.9575 22.0892 22.7144 22.5907 22.1809C23.6052 21.0984 25.3173 19.4537 25.3345 19.4371C25.387 19.3868 25.429 19.3265 25.4583 19.2602C26.0615 17.8814 26.5535 15.744 26.6005 15.2177C26.6149 15.0629 26.6121 14.049 26.6071 14.0025C26.5209 13.2109 26.4805 10.9513 27.3192 10.017C27.4569 9.86389 27.6089 9.75553 27.7831 9.68808L28.2657 14.0302C28.2021 14.6483 27.7162 19.3967 27.7206 20.1022C27.6332 20.4057 26.6143 21.345 25.8702 22.0311C23.9827 23.7709 21.6342 25.9359 21.6342 27.8847V30.6489C21.6342 31.3798 22.7399 31.3809 22.7399 30.6489V27.8847C22.7399 26.4202 24.9818 24.3536 26.6188 22.8449C28.1065 21.4738 28.8213 20.786 28.8213 20.1447C28.8213 19.5438 29.2183 15.5671 29.3714 14.0855C29.3753 14.0462 29.3753 14.007 29.3709 13.9677Z" fill="#0F172A"/>
<path d="M11.6322 20.0512L8.74303 18.0742C8.2427 17.4606 7.91265 16.9403 7.64562 16.5196C6.87771 15.3089 6.41331 14.719 4.49602 14.6294V14.0926C4.54412 13.6293 4.78903 10.7125 3.50586 9.28001C3.04865 8.76973 2.43498 8.50049 1.73175 8.50049C1.4498 8.50049 1.21318 8.71223 1.18222 8.99253L0.629366 13.9682C0.624943 14.0075 0.624943 14.0467 0.628813 14.086C0.781954 15.5671 1.1789 19.5437 1.1789 20.1447C1.1789 20.786 1.89374 21.4737 3.38147 22.8448C5.01846 24.3535 7.26028 26.4201 7.26028 27.8846V30.6489C7.26028 30.954 7.50796 31.2017 7.81313 31.2017C8.11831 31.2017 8.36599 30.954 8.36599 30.6489V27.8846C8.36599 25.9358 6.01747 23.7708 4.13058 22.0316C3.38699 21.3455 2.36753 20.4067 2.28461 20.1447C2.28461 19.3989 1.79865 14.6488 1.73507 14.0307L2.21771 9.68857C3.60703 10.2243 3.39031 13.1411 3.39031 14.0633C3.39087 14.2092 3.38644 15.1928 3.39805 15.2613C3.41353 15.3536 3.78726 17.5347 4.54246 19.2607C4.57176 19.3276 4.61322 19.3873 4.6663 19.4376C4.68343 19.4542 6.39507 21.0989 7.4101 22.1814C7.91154 22.7165 8.71594 21.9569 8.21672 21.4251C7.29732 20.4449 5.86986 19.0622 5.51271 18.7183C5.07707 17.69 4.77742 16.4737 4.6193 15.7395C5.88976 15.8164 6.1109 16.1647 6.71185 17.1128C6.88987 17.3931 7.77665 18.7542 8.05362 18.9428L10.9799 20.9441C12.1071 21.8215 13.8945 23.5812 13.8945 24.5675C13.8945 26.048 13.6822 27.0321 13.5269 27.7508C13.4274 28.2119 13.3417 28.6099 13.3417 28.9903V30.6489C13.3417 30.954 13.5893 31.2017 13.8945 31.2017C14.1997 31.2017 14.4474 30.954 14.4474 30.6489V28.9903C14.4474 28.7277 14.5181 28.3993 14.6077 27.9841C14.7735 27.2168 15.0002 26.1663 15.0002 24.5675C15.0002 22.7265 12.0021 20.3376 11.6322 20.0512Z" fill="#0F172A"/>
<mask id="path-3-inside-1_569_2241" fill="white">
<path fill-rule="evenodd" clip-rule="evenodd" d="M20.2119 2.28814H10.8051V0H20.2119C21.4756 0 22.5 1.02443 22.5 2.28814L20.2119 2.28813L20.2119 2.28814ZM20.2119 3.05085H20.2119V12.7119V15C21.4756 15 22.5 13.9756 22.5 12.7119V3.30508H20.2119V3.05085ZM9.78814 12.7119L19.195 12.7119V15L19.4492 15H9.78814C8.52443 15 7.5 13.9756 7.5 12.7119H9.78814ZM9.78814 0V2.28814V11.6949H7.5V2.28814C7.5 1.02443 8.52443 0 9.78814 0Z"/>
</mask>
<path fill-rule="evenodd" clip-rule="evenodd" d="M20.2119 2.28814H10.8051V0H20.2119C21.4756 0 22.5 1.02443 22.5 2.28814L20.2119 2.28813L20.2119 2.28814ZM20.2119 3.05085H20.2119V12.7119V15C21.4756 15 22.5 13.9756 22.5 12.7119V3.30508H20.2119V3.05085ZM9.78814 12.7119L19.195 12.7119V15L19.4492 15H9.78814C8.52443 15 7.5 13.9756 7.5 12.7119H9.78814ZM9.78814 0V2.28814V11.6949H7.5V2.28814C7.5 1.02443 8.52443 0 9.78814 0Z" fill="#0F172A"/>
<path d="M10.8051 2.28814H10.6051V2.48814H10.8051V2.28814ZM20.2119 2.28814V2.48814H20.2399L20.2668 2.48044L20.2119 2.28814ZM10.8051 0V-0.2H10.6051V0H10.8051ZM22.5 2.28814V2.48814L22.7 2.48814V2.28814H22.5ZM20.2119 2.28813V2.08813H20.1839L20.1569 2.09583L20.2119 2.28813ZM20.2119 3.05085V2.85085H20.0119V3.05085H20.2119ZM20.2119 3.05085H20.4119V2.85085H20.2119V3.05085ZM20.2119 15H20.0119V15.2H20.2119V15ZM22.5 3.30508H22.7V3.10508H22.5V3.30508ZM20.2119 3.30508H20.0119V3.50508H20.2119V3.30508ZM19.195 12.7119H19.395V12.5119H19.195V12.7119ZM9.78814 12.7119V12.9119H9.78814L9.78814 12.7119ZM19.195 15H18.995V15.2L19.1949 15.2L19.195 15ZM19.4492 15V15.2L19.4492 14.8L19.4492 15ZM7.5 12.7119V12.5119H7.3V12.7119H7.5ZM9.78814 0H9.98814V-0.2H9.78814V0ZM9.78814 11.6949V11.8949H9.98814V11.6949H9.78814ZM7.5 11.6949H7.3V11.8949H7.5V11.6949ZM10.8051 2.48814H20.2119V2.08814H10.8051V2.48814ZM10.6051 0V2.28814H11.0051V0H10.6051ZM20.2119 -0.2H10.8051V0.2H20.2119V-0.2ZM22.7 2.28814C22.7 0.913976 21.586 -0.2 20.2119 -0.2V0.2C21.3651 0.2 22.3 1.13489 22.3 2.28814H22.7ZM20.2119 2.48813L22.5 2.48814V2.08814L20.2119 2.08813V2.48813ZM20.2668 2.48044L20.2668 2.48044L20.1569 2.09583L20.1569 2.09583L20.2668 2.48044ZM20.2119 3.25085H20.2119V2.85085H20.2119V3.25085ZM20.4119 12.7119V3.05085H20.0119V12.7119H20.4119ZM20.4119 15V12.7119H20.0119V15H20.4119ZM22.3 12.7119C22.3 13.8651 21.3651 14.8 20.2119 14.8V15.2C21.586 15.2 22.7 14.086 22.7 12.7119H22.3ZM22.3 3.30508V12.7119H22.7V3.30508H22.3ZM22.5 3.10508H20.2119V3.50508H22.5V3.10508ZM20.4119 3.30508V3.05085H20.0119V3.30508H20.4119ZM19.195 12.5119L9.78814 12.5119L9.78814 12.9119L19.195 12.9119V12.5119ZM19.395 15V12.7119H18.995V15H19.395ZM19.4492 14.8L19.195 14.8L19.1949 15.2L19.4491 15.2L19.4492 14.8ZM9.78814 15.2H19.4492V14.8H9.78814V15.2ZM7.3 12.7119C7.3 14.086 8.41398 15.2 9.78814 15.2V14.8C8.63489 14.8 7.7 13.8651 7.7 12.7119H7.3ZM9.78814 12.5119H7.5V12.9119H9.78814V12.5119ZM9.98814 2.28814V0H9.58814V2.28814H9.98814ZM9.98814 11.6949V2.28814H9.58814V11.6949H9.98814ZM7.5 11.8949H9.78814V11.4949H7.5V11.8949ZM7.3 2.28814V11.6949H7.7V2.28814H7.3ZM9.78814 -0.2C8.41398 -0.2 7.3 0.913976 7.3 2.28814H7.7C7.7 1.13489 8.63489 0.2 9.78814 0.2V-0.2Z" fill="#E3F2FD" mask="url(#path-3-inside-1_569_2241)"/>
<mask id="path-5-inside-2_569_2241" fill="white">
<path fill-rule="evenodd" clip-rule="evenodd" d="M15.065 4.57617C14.6784 4.57617 14.365 4.88957 14.365 5.27617V6.61007H13.0311C12.6445 6.61007 12.3311 6.92347 12.3311 7.31007V7.4355C12.3311 7.8221 12.6445 8.1355 13.0311 8.1355H14.365V9.46939C14.365 9.85599 14.6784 10.1694 15.065 10.1694H15.1904C15.577 10.1694 15.8904 9.85599 15.8904 9.46939V8.1355H17.2243C17.6109 8.1355 17.9243 7.8221 17.9243 7.4355V7.31007C17.9243 6.92347 17.6109 6.61007 17.2243 6.61007H15.8904V5.27617C15.8904 4.88957 15.577 4.57617 15.1904 4.57617H15.065Z"/>
</mask>
<path fill-rule="evenodd" clip-rule="evenodd" d="M15.065 4.57617C14.6784 4.57617 14.365 4.88957 14.365 5.27617V6.61007H13.0311C12.6445 6.61007 12.3311 6.92347 12.3311 7.31007V7.4355C12.3311 7.8221 12.6445 8.1355 13.0311 8.1355H14.365V9.46939C14.365 9.85599 14.6784 10.1694 15.065 10.1694H15.1904C15.577 10.1694 15.8904 9.85599 15.8904 9.46939V8.1355H17.2243C17.6109 8.1355 17.9243 7.8221 17.9243 7.4355V7.31007C17.9243 6.92347 17.6109 6.61007 17.2243 6.61007H15.8904V5.27617C15.8904 4.88957 15.577 4.57617 15.1904 4.57617H15.065Z" fill="#0F172A"/>
<path d="M14.365 6.61007V6.81007H14.565V6.61007H14.365ZM14.365 8.1355H14.565V7.9355H14.365V8.1355ZM15.8904 8.1355V7.9355H15.6904V8.1355H15.8904ZM15.8904 6.61007H15.6904V6.81007H15.8904V6.61007ZM14.565 5.27617C14.565 5.00003 14.7888 4.77617 15.065 4.77617V4.37617C14.5679 4.37617 14.165 4.77912 14.165 5.27617H14.565ZM14.565 6.61007V5.27617H14.165V6.61007H14.565ZM13.0311 6.81007H14.365V6.41007H13.0311V6.81007ZM12.5311 7.31007C12.5311 7.03393 12.7549 6.81007 13.0311 6.81007V6.41007C12.534 6.41007 12.1311 6.81302 12.1311 7.31007H12.5311ZM12.5311 7.4355V7.31007H12.1311V7.4355H12.5311ZM13.0311 7.9355C12.7549 7.9355 12.5311 7.71164 12.5311 7.4355H12.1311C12.1311 7.93255 12.534 8.3355 13.0311 8.3355V7.9355ZM14.365 7.9355H13.0311V8.3355H14.365V7.9355ZM14.565 9.46939V8.1355H14.165V9.46939H14.565ZM15.065 9.96939C14.7888 9.96939 14.565 9.74553 14.565 9.46939H14.165C14.165 9.96645 14.5679 10.3694 15.065 10.3694V9.96939ZM15.1904 9.96939H15.065V10.3694H15.1904V9.96939ZM15.6904 9.46939C15.6904 9.74553 15.4665 9.96939 15.1904 9.96939V10.3694C15.6875 10.3694 16.0904 9.96645 16.0904 9.46939H15.6904ZM15.6904 8.1355V9.46939H16.0904V8.1355H15.6904ZM17.2243 7.9355H15.8904V8.3355H17.2243V7.9355ZM17.7243 7.4355C17.7243 7.71164 17.5004 7.9355 17.2243 7.9355V8.3355C17.7213 8.3355 18.1243 7.93255 18.1243 7.4355H17.7243ZM17.7243 7.31007V7.4355H18.1243V7.31007H17.7243ZM17.2243 6.81007C17.5004 6.81007 17.7243 7.03393 17.7243 7.31007H18.1243C18.1243 6.81302 17.7213 6.41007 17.2243 6.41007V6.81007ZM15.8904 6.81007H17.2243V6.41007H15.8904V6.81007ZM15.6904 5.27617V6.61007H16.0904V5.27617H15.6904ZM15.1904 4.77617C15.4665 4.77617 15.6904 5.00003 15.6904 5.27617H16.0904C16.0904 4.77912 15.6875 4.37617 15.1904 4.37617V4.77617ZM15.065 4.77617H15.1904V4.37617H15.065V4.77617Z" fill="#E3F2FD" mask="url(#path-5-inside-2_569_2241)"/>
</svg>
