<svg width="70" height="71" viewBox="0 0 70 71" fill="none" xmlns="http://www.w3.org/2000/svg">
<rect y="0.5" width="70" height="70" rx="35" fill="#0B1630"/>
<path fill-rule="evenodd" clip-rule="evenodd" d="M49.5932 20.9068H23.2542V14.5H49.5932C53.1316 14.5 56 17.3684 56 20.9068L49.5933 20.9068V20.9068H49.5932ZM49.5933 23.0424H49.5932V50.0932H49.5933V56.5H49.5932V56.5C53.1316 56.5 56 53.6316 56 50.0932V23.7542H49.5933V23.0424ZM20.4068 50.0932H46.7459V56.5H47.4576V56.5H20.4068C16.8684 56.5 14 53.6316 14 50.0932H20.4068ZM20.4068 14.5V20.9068V47.2458H14V20.9068C14 17.3684 16.8684 14.5 20.4068 14.5Z" fill="#0497EC"/>
<path fill-rule="evenodd" clip-rule="evenodd" d="M33.9204 27.3135C33.5338 27.3135 33.2204 27.6269 33.2204 28.0135V33.0084H28.2254C27.8388 33.0084 27.5254 33.3218 27.5254 33.7084V36.5796C27.5254 36.9662 27.8388 37.2796 28.2254 37.2796H33.2204V42.2745C33.2204 42.6611 33.5338 42.9745 33.9204 42.9745H36.7916C37.1782 42.9745 37.4916 42.6611 37.4916 42.2745V37.2796H42.4864C42.873 37.2796 43.1864 36.9662 43.1864 36.5796V33.7084C43.1864 33.3218 42.873 33.0084 42.4864 33.0084H37.4916V28.0135C37.4916 27.6269 37.1782 27.3135 36.7916 27.3135H33.9204Z" fill="#0497EC"/>
</svg>
