<svg width="25" height="30" viewBox="0 0 25 30" fill="none" xmlns="http://www.w3.org/2000/svg">
<path d="M12.432 27.5695L12.5 27.5853L12.568 27.5695C18.2835 26.2387 22.5262 20.7666 22.5262 14.9112V8.72813V8.5552L22.3766 8.46853L12.6504 2.83507L12.5 2.74798L12.3496 2.83507L2.62341 8.46853L2.47378 8.5552V8.72813V14.9112C2.47378 20.7666 6.71652 26.2387 12.432 27.5695ZM0.3 7.41296L12.5 0.346688L24.7 7.41296V14.9112C24.7 21.6042 19.8772 27.9742 13.09 29.5546L12.5 29.692L11.91 29.5546C5.12279 27.9742 0.3 21.6042 0.3 14.9112V7.41296Z" fill="#0F172A" stroke="#F4FAFE" stroke-width="0.6"/>
<mask id="path-2-inside-1_569_2234" fill="white">
<path fill-rule="evenodd" clip-rule="evenodd" d="M11.5781 10.5933C11.1915 10.5933 10.8781 10.9067 10.8781 11.2933V14.377L7.79277 14.377C7.40617 14.377 7.09277 14.6904 7.09277 15.077V16.5152C7.09277 16.9018 7.40617 17.2152 7.79277 17.2152H10.8781V20.3C10.8781 20.6866 11.1915 21 11.5781 21H13.0163C13.4029 21 13.7163 20.6866 13.7163 20.3V17.2152H16.7996C17.1862 17.2152 17.4996 16.9018 17.4996 16.5152V15.077C17.4996 14.6904 17.1862 14.377 16.7996 14.377L13.7163 14.377V11.2933C13.7163 10.9067 13.4029 10.5933 13.0163 10.5933H11.5781Z"/>
</mask>
<path fill-rule="evenodd" clip-rule="evenodd" d="M11.5781 10.5933C11.1915 10.5933 10.8781 10.9067 10.8781 11.2933V14.377L7.79277 14.377C7.40617 14.377 7.09277 14.6904 7.09277 15.077V16.5152C7.09277 16.9018 7.40617 17.2152 7.79277 17.2152H10.8781V20.3C10.8781 20.6866 11.1915 21 11.5781 21H13.0163C13.4029 21 13.7163 20.6866 13.7163 20.3V17.2152H16.7996C17.1862 17.2152 17.4996 16.9018 17.4996 16.5152V15.077C17.4996 14.6904 17.1862 14.377 16.7996 14.377L13.7163 14.377V11.2933C13.7163 10.9067 13.4029 10.5933 13.0163 10.5933H11.5781Z" fill="#0F172A"/>
<path d="M10.8781 14.377V15.177H11.6781V14.377H10.8781ZM7.79277 14.377L7.79277 13.577H7.79277V14.377ZM10.8781 17.2152H11.6781V16.4152H10.8781V17.2152ZM13.7163 17.2152V16.4152H12.9163V17.2152H13.7163ZM16.7996 14.377V15.177V14.377ZM13.7163 14.377H12.9163V15.177L13.7163 15.177V14.377ZM11.6781 11.2933C11.6781 11.3485 11.6333 11.3933 11.5781 11.3933V9.79326C10.7497 9.79326 10.0781 10.4648 10.0781 11.2933H11.6781ZM11.6781 14.377V11.2933H10.0781V14.377H11.6781ZM7.79277 15.177L10.8781 15.177V13.577L7.79277 13.577L7.79277 15.177ZM7.89277 15.077C7.89277 15.1322 7.848 15.177 7.79277 15.177V13.577C6.96435 13.577 6.29277 14.2486 6.29277 15.077H7.89277ZM7.89277 16.5152V15.077H6.29277V16.5152H7.89277ZM7.79277 16.4152C7.848 16.4152 7.89277 16.46 7.89277 16.5152H6.29277C6.29277 17.3436 6.96435 18.0152 7.79277 18.0152V16.4152ZM10.8781 16.4152H7.79277V18.0152H10.8781V16.4152ZM11.6781 20.3V17.2152H10.0781V20.3H11.6781ZM11.5781 20.2C11.6333 20.2 11.6781 20.2448 11.6781 20.3H10.0781C10.0781 21.1285 10.7497 21.8 11.5781 21.8V20.2ZM13.0163 20.2H11.5781V21.8H13.0163V20.2ZM12.9163 20.3C12.9163 20.2448 12.9611 20.2 13.0163 20.2V21.8C13.8448 21.8 14.5163 21.1285 14.5163 20.3H12.9163ZM12.9163 17.2152V20.3H14.5163V17.2152H12.9163ZM16.7996 16.4152H13.7163V18.0152H16.7996V16.4152ZM16.6996 16.5152C16.6996 16.46 16.7443 16.4152 16.7996 16.4152V18.0152C17.628 18.0152 18.2996 17.3436 18.2996 16.5152H16.6996ZM16.6996 15.077V16.5152H18.2996V15.077H16.6996ZM16.7996 15.177C16.7443 15.177 16.6996 15.1322 16.6996 15.077H18.2996C18.2996 14.2486 17.628 13.577 16.7996 13.577V15.177ZM13.7163 15.177H16.7996V13.577L13.7163 13.577V15.177ZM12.9163 11.2933V14.377H14.5163V11.2933H12.9163ZM13.0163 11.3933C12.9611 11.3933 12.9163 11.3485 12.9163 11.2933H14.5163C14.5163 10.4648 13.8448 9.79326 13.0163 9.79326V11.3933ZM11.5781 11.3933H13.0163V9.79326H11.5781V11.3933Z" fill="#F4FAFE" mask="url(#path-2-inside-1_569_2234)"/>
</svg>
