<svg width="29" height="30" viewBox="0 0 29 30" fill="none" xmlns="http://www.w3.org/2000/svg">
<path d="M13.3464 17.3077H4.40407C3.56252 17.3077 2.75543 16.9734 2.16037 16.3783C1.5653 15.7833 1.23099 14.9762 1.23099 14.1346V0.576923C1.23099 0.423914 1.17021 0.277171 1.06202 0.168977C0.953823 0.0607829 0.807081 0 0.654071 0C0.501062 0 0.354319 0.0607829 0.246125 0.168977C0.137931 0.277171 0.0771484 0.423914 0.0771484 0.576923V14.1346C0.0771484 15.2822 0.533019 16.3828 1.34447 17.1942C2.15593 18.0057 3.2565 18.4615 4.40407 18.4615H13.3464C13.4994 18.4615 13.6461 18.4008 13.7543 18.2926C13.8625 18.1844 13.9233 18.0376 13.9233 17.8846C13.9233 17.7316 13.8625 17.5849 13.7543 17.4767C13.6461 17.3685 13.4994 17.3077 13.3464 17.3077Z" fill="#0F172A"/>
<path d="M23.7312 14.1346C23.8842 14.1346 24.031 14.0738 24.1392 13.9656C24.2474 13.8574 24.3081 13.7107 24.3081 13.5577V0.576923C24.3081 0.423913 24.2474 0.277171 24.1392 0.168977C24.031 0.0607829 23.8842 0 23.7312 0C23.5782 0 23.4315 0.0607829 23.3233 0.168977C23.2151 0.277171 23.1543 0.423913 23.1543 0.576923V13.5577C23.1543 13.7107 23.2151 13.8574 23.3233 13.9656C23.4315 14.0738 23.5782 14.1346 23.7312 14.1346Z" fill="#0F172A"/>
<path d="M2.96169 4.34756C3.95202 4.32142 4.92688 4.59707 5.75688 5.13795C6.75884 5.77577 7.92708 6.10296 9.11457 6.07833C10.3049 6.10398 11.4762 5.77678 12.4809 5.13795C13.3109 4.59707 14.2858 4.32142 15.2761 4.34756C16.2656 4.3209 17.2397 4.59663 18.0684 5.13795C19.07 5.77412 20.2369 6.10119 21.4232 6.07833C21.5762 6.07833 21.723 6.01755 21.8312 5.90935C21.9394 5.80116 22.0001 5.65442 22.0001 5.50141C22.0001 5.3484 21.9394 5.20166 21.8312 5.09346C21.723 4.98527 21.5762 4.92449 21.4232 4.92449C20.4326 4.94978 19.4577 4.67311 18.628 4.13122C17.6248 3.49646 16.4573 3.17046 15.2703 3.19372C14.0805 3.16875 12.9097 3.49482 11.904 4.13122C11.0743 4.67311 10.0994 4.94978 9.1088 4.92449C8.11901 4.95029 7.14489 4.67355 6.3165 4.13122C5.31413 3.497 4.14763 3.17102 2.96169 3.19372C2.80868 3.19372 2.66194 3.2545 2.55374 3.36269C2.44555 3.47089 2.38477 3.61763 2.38477 3.77064C2.38477 3.92365 2.44555 4.07039 2.55374 4.17859C2.66194 4.28678 2.80868 4.34756 2.96169 4.34756Z" fill="#0F172A"/>
<path d="M2.96169 8.65427C3.95202 8.62812 4.92688 8.90378 5.75688 9.44466C6.75884 10.0825 7.92708 10.4097 9.11457 10.385C10.3049 10.4107 11.4762 10.0835 12.4809 9.44466C13.3093 8.90491 14.282 8.6293 15.2703 8.65427C16.2598 8.62761 17.2339 8.90334 18.0626 9.44466C19.0659 10.0819 20.2349 10.409 21.4232 10.385C21.5762 10.385 21.723 10.3243 21.8312 10.2161C21.9394 10.1079 22.0001 9.96113 22.0001 9.80812C22.0001 9.65511 21.9394 9.50836 21.8312 9.40017C21.723 9.29198 21.5762 9.23119 21.4232 9.23119C20.4329 9.25734 19.458 8.98168 18.628 8.44081C17.6259 7.80346 16.4578 7.47631 15.2703 7.50042C14.08 7.47477 12.9087 7.80197 11.904 8.44081C11.0756 8.98055 10.103 9.25616 9.11457 9.23119C8.12508 9.25785 7.15099 8.98213 6.32227 8.44081C5.31899 7.80355 4.15 7.47643 2.96169 7.50042C2.80868 7.50042 2.66194 7.56121 2.55374 7.6694C2.44555 7.77759 2.38477 7.92434 2.38477 8.07735C2.38477 8.23036 2.44555 8.3771 2.55374 8.48529C2.66194 8.59349 2.80868 8.65427 2.96169 8.65427Z" fill="#0F172A"/>
<path d="M21.4229 15C19.9395 15 18.4894 15.4399 17.2561 16.264C16.0227 17.0881 15.0614 18.2594 14.4938 19.6299C13.9261 21.0003 13.7776 22.5083 14.067 23.9632C14.3564 25.418 15.0707 26.7544 16.1196 27.8033C17.1684 28.8522 18.5048 29.5665 19.9597 29.8559C21.4145 30.1453 22.9225 29.9968 24.293 29.4291C25.6634 28.8614 26.8348 27.9001 27.6589 26.6668C28.483 25.4334 28.9229 23.9834 28.9229 22.5C28.9229 20.5109 28.1327 18.6032 26.7262 17.1967C25.3196 15.7902 23.412 15 21.4229 15ZM21.4229 28.8462C20.1677 28.8462 18.9407 28.474 17.8971 27.7766C16.8535 27.0793 16.0401 26.0882 15.5598 24.9286C15.0794 23.769 14.9538 22.493 15.1986 21.2619C15.4435 20.0309 16.0479 18.9001 16.9354 18.0126C17.823 17.1251 18.9537 16.5207 20.1848 16.2758C21.4158 16.0309 22.6918 16.1566 23.8514 16.6369C25.011 17.1172 26.0022 17.9306 26.6995 18.9743C27.3968 20.0179 27.769 21.2448 27.769 22.5C27.769 24.1831 27.1004 25.7973 25.9103 26.9874C24.7201 28.1775 23.106 28.8462 21.4229 28.8462Z" fill="#0F172A"/>
<path d="M24.8848 21.923H22.0001V19.0383C22.0001 18.8853 21.9394 18.7386 21.8312 18.6304C21.723 18.5222 21.5762 18.4614 21.4232 18.4614C21.2702 18.4614 21.1235 18.5222 21.0153 18.6304C20.9071 18.7386 20.8463 18.8853 20.8463 19.0383V21.923H17.9617C17.8087 21.923 17.6619 21.9837 17.5537 22.0919C17.4455 22.2001 17.3848 22.3469 17.3848 22.4999C17.3848 22.6529 17.4455 22.7996 17.5537 22.9078C17.6619 23.016 17.8087 23.0768 17.9617 23.0768H20.8463V25.9614C20.8463 26.1144 20.9071 26.2612 21.0153 26.3694C21.1235 26.4776 21.2702 26.5383 21.4232 26.5383C21.5762 26.5383 21.723 26.4776 21.8312 26.3694C21.9394 26.2612 22.0001 26.1144 22.0001 25.9614V23.0768H24.8848C25.0378 23.0768 25.1845 23.016 25.2927 22.9078C25.4009 22.7996 25.4617 22.6529 25.4617 22.4999C25.4617 22.3469 25.4009 22.2001 25.2927 22.0919C25.1845 21.9837 25.0378 21.923 24.8848 21.923Z" fill="#0F172A"/>
</svg>
