<svg width="213" height="214" viewBox="0 0 213 214" fill="none" xmlns="http://www.w3.org/2000/svg">
<mask id="path-1-inside-1_1958_60961" fill="white">
<path d="M1.7112 123.572C-1.22025 104.769 0.951625 85.5234 7.99991 67.8467L37.611 79.6536C32.6772 92.0273 31.1569 105.499 33.2089 118.661L1.7112 123.572Z"/>
</mask>
<path d="M1.7112 123.572C-1.22025 104.769 0.951625 85.5234 7.99991 67.8467L37.611 79.6536C32.6772 92.0273 31.1569 105.499 33.2089 118.661L1.7112 123.572Z" fill="#FF6B6C" stroke="white" stroke-width="2" mask="url(#path-1-inside-1_1958_60961)"/>
<mask id="path-2-inside-2_1958_60961" fill="white">
<path d="M212.964 107.42C212.936 121.375 210.159 135.187 204.792 148.068C199.426 160.949 191.575 172.647 181.687 182.494C171.8 192.341 160.07 200.144 147.167 205.458C134.264 210.772 120.44 213.492 106.486 213.463L106.551 181.585C116.319 181.605 125.996 179.701 135.028 175.981C144.06 172.262 152.271 166.8 159.192 159.907C166.113 153.014 171.609 144.825 175.366 135.808C179.122 126.792 181.066 117.123 181.086 107.355L212.964 107.42Z"/>
</mask>
<path d="M212.964 107.42C212.936 121.375 210.159 135.187 204.792 148.068C199.426 160.949 191.575 172.647 181.687 182.494C171.8 192.341 160.07 200.144 147.167 205.458C134.264 210.772 120.44 213.492 106.486 213.463L106.551 181.585C116.319 181.605 125.996 179.701 135.028 175.981C144.06 172.262 152.271 166.8 159.192 159.907C166.113 153.014 171.609 144.825 175.366 135.808C179.122 126.792 181.066 117.123 181.086 107.355L212.964 107.42Z" fill="#FFB45C" stroke="white" stroke-width="2" mask="url(#path-2-inside-2_1958_60961)"/>
<mask id="path-3-inside-3_1958_60961" fill="white">
<path d="M5.51274 139.633C3.81391 134.332 2.53425 128.905 1.6856 123.404L33.1911 118.544C33.7852 122.395 34.681 126.194 35.8702 129.904L5.51274 139.633Z"/>
</mask>
<path d="M5.51274 139.633C3.81391 134.332 2.53425 128.905 1.6856 123.404L33.1911 118.544C33.7852 122.395 34.681 126.194 35.8702 129.904L5.51274 139.633Z" fill="#A8D8FA" stroke="white" stroke-width="2" mask="url(#path-3-inside-3_1958_60961)"/>
<mask id="path-4-inside-4_1958_60961" fill="white">
<path d="M7.91045 68.0682C16.1748 47.2054 30.8318 29.4945 49.7807 17.4739L66.8571 44.3925C53.5929 52.807 43.333 65.2046 37.548 79.8085L7.91045 68.0682Z"/>
</mask>
<path d="M7.91045 68.0682C16.1748 47.2054 30.8318 29.4945 49.7807 17.4739L66.8571 44.3925C53.5929 52.807 43.333 65.2046 37.548 79.8085L7.91045 68.0682Z" fill="#FFDE76" stroke="white" stroke-width="2" mask="url(#path-4-inside-4_1958_60961)"/>
<mask id="path-5-inside-5_1958_60961" fill="white">
<path d="M106.389 213.463C83.9495 213.397 62.1065 206.228 43.9911 192.985C25.8756 179.742 12.4178 161.103 5.54627 139.741L35.8931 129.98C40.7031 144.933 50.1236 157.98 62.8045 167.25C75.4853 176.521 90.7754 181.538 106.483 181.585L106.389 213.463Z"/>
</mask>
<path d="M106.389 213.463C83.9495 213.397 62.1065 206.228 43.9911 192.985C25.8756 179.742 12.4178 161.103 5.54627 139.741L35.8931 129.98C40.7031 144.933 50.1236 157.98 62.8045 167.25C75.4853 176.521 90.7754 181.538 106.483 181.585L106.389 213.463Z" fill="#BEE179" stroke="white" stroke-width="2" mask="url(#path-5-inside-5_1958_60961)"/>
<mask id="path-6-inside-6_1958_60961" fill="white">
<path d="M49.6365 17.5665C65.6894 7.34647 84.1924 1.62502 103.212 0.999861C122.232 0.374704 141.071 4.86877 157.76 14.0126C174.45 23.1563 188.377 36.6143 198.088 52.9803C207.799 69.3463 212.936 88.0199 212.963 107.05L181.085 107.096C181.066 93.7749 177.47 80.7034 170.672 69.2471C163.875 57.7909 154.126 48.3704 142.443 41.9697C130.76 35.5691 117.573 32.4232 104.259 32.8608C90.9455 33.2984 77.9935 37.3035 66.7564 44.4574L49.6365 17.5665Z"/>
</mask>
<path d="M49.6365 17.5665C65.6894 7.34647 84.1924 1.62502 103.212 0.999861C122.232 0.374704 141.071 4.86877 157.76 14.0126C174.45 23.1563 188.377 36.6143 198.088 52.9803C207.799 69.3463 212.936 88.0199 212.963 107.05L181.085 107.096C181.066 93.7749 177.47 80.7034 170.672 69.2471C163.875 57.7909 154.126 48.3704 142.443 41.9697C130.76 35.5691 117.573 32.4232 104.259 32.8608C90.9455 33.2984 77.9935 37.3035 66.7564 44.4574L49.6365 17.5665Z" fill="#0497EC" stroke="white" stroke-width="2" mask="url(#path-6-inside-6_1958_60961)"/>
</svg>
