<svg width="294" height="294" viewBox="0 0 294 294" fill="none" xmlns="http://www.w3.org/2000/svg">
<mask id="path-1-inside-1_569_2400" fill="white">
<path d="M41.7112 163.072C38.7798 144.269 40.9516 125.023 47.9999 107.347L77.611 119.154C72.6772 131.527 71.1569 144.999 73.2089 158.161L41.7112 163.072Z"/>
</mask>
<path d="M41.7112 163.072C38.7798 144.269 40.9516 125.023 47.9999 107.347L77.611 119.154C72.6772 131.527 71.1569 144.999 73.2089 158.161L41.7112 163.072Z" fill="#FF6B6C" stroke="white" stroke-width="2" mask="url(#path-1-inside-1_569_2400)"/>
<mask id="path-2-inside-2_569_2400" fill="white">
<path d="M252.964 146.92C252.936 160.875 250.159 174.687 244.792 187.568C239.426 200.449 231.575 212.147 221.687 221.994C211.8 231.841 200.07 239.644 187.167 244.958C174.264 250.272 160.44 252.992 146.486 252.963L146.551 221.085C156.319 221.105 165.996 219.201 175.028 215.481C184.06 211.762 192.271 206.3 199.192 199.407C206.113 192.514 211.609 184.325 215.366 175.308C219.122 166.292 221.066 156.623 221.086 146.855L252.964 146.92Z"/>
</mask>
<path d="M252.964 146.92C252.936 160.875 250.159 174.687 244.792 187.568C239.426 200.449 231.575 212.147 221.687 221.994C211.8 231.841 200.07 239.644 187.167 244.958C174.264 250.272 160.44 252.992 146.486 252.963L146.551 221.085C156.319 221.105 165.996 219.201 175.028 215.481C184.06 211.762 192.271 206.3 199.192 199.407C206.113 192.514 211.609 184.325 215.366 175.308C219.122 166.292 221.066 156.623 221.086 146.855L252.964 146.92Z" fill="#FFB45C" stroke="white" stroke-width="2" mask="url(#path-2-inside-2_569_2400)"/>
<mask id="path-3-inside-3_569_2400" fill="white">
<path d="M45.5127 179.133C43.8139 173.832 42.5342 168.405 41.6856 162.904L73.1911 158.044C73.7852 161.895 74.681 165.694 75.8702 169.404L45.5127 179.133Z"/>
</mask>
<path d="M45.5127 179.133C43.8139 173.832 42.5342 168.405 41.6856 162.904L73.1911 158.044C73.7852 161.895 74.681 165.694 75.8702 169.404L45.5127 179.133Z" fill="#A8D8FA" stroke="white" stroke-width="2" mask="url(#path-3-inside-3_569_2400)"/>
<mask id="path-4-inside-4_569_2400" fill="white">
<path d="M47.9104 107.568C56.1748 86.7054 70.8318 68.9945 89.7807 56.9739L106.857 83.8925C93.5929 92.307 83.333 104.705 77.548 119.309L47.9104 107.568Z"/>
</mask>
<path d="M47.9104 107.568C56.1748 86.7054 70.8318 68.9945 89.7807 56.9739L106.857 83.8925C93.5929 92.307 83.333 104.705 77.548 119.309L47.9104 107.568Z" fill="#FFDE76" stroke="white" stroke-width="2" mask="url(#path-4-inside-4_569_2400)"/>
<mask id="path-5-inside-5_569_2400" fill="white">
<path d="M146.389 252.963C123.95 252.897 102.107 245.728 83.9911 232.485C65.8756 219.242 52.4178 200.603 45.5463 179.241L75.8931 169.48C80.7031 184.433 90.1236 197.48 102.804 206.75C115.485 216.021 130.775 221.038 146.483 221.085L146.389 252.963Z"/>
</mask>
<path d="M146.389 252.963C123.95 252.897 102.107 245.728 83.9911 232.485C65.8756 219.242 52.4178 200.603 45.5463 179.241L75.8931 169.48C80.7031 184.433 90.1236 197.48 102.804 206.75C115.485 216.021 130.775 221.038 146.483 221.085L146.389 252.963Z" fill="#BEE179" stroke="white" stroke-width="2" mask="url(#path-5-inside-5_569_2400)"/>
<mask id="path-6-inside-6_569_2400" fill="white">
<path d="M89.6365 57.0665C105.689 46.8465 124.192 41.125 143.212 40.4999C162.232 39.8747 181.071 44.3688 197.76 53.5126C214.45 62.6563 228.377 76.1143 238.088 92.4803C247.799 108.846 252.936 127.52 252.963 146.55L221.085 146.596C221.066 133.275 217.47 120.203 210.672 108.747C203.875 97.2909 194.126 87.8704 182.443 81.4697C170.76 75.0691 157.573 71.9232 144.259 72.3608C130.946 72.7984 117.993 76.8035 106.756 83.9574L89.6365 57.0665Z"/>
</mask>
<path d="M89.6365 57.0665C105.689 46.8465 124.192 41.125 143.212 40.4999C162.232 39.8747 181.071 44.3688 197.76 53.5126C214.45 62.6563 228.377 76.1143 238.088 92.4803C247.799 108.846 252.936 127.52 252.963 146.55L221.085 146.596C221.066 133.275 217.47 120.203 210.672 108.747C203.875 97.2909 194.126 87.8704 182.443 81.4697C170.76 75.0691 157.573 71.9232 144.259 72.3608C130.946 72.7984 117.993 76.8035 106.756 83.9574L89.6365 57.0665Z" fill="#0497EC" stroke="white" stroke-width="2" mask="url(#path-6-inside-6_569_2400)"/>
</svg>
