<svg width="213" height="214" viewBox="0 0 213 214" fill="none" xmlns="http://www.w3.org/2000/svg">
<mask id="path-1-inside-1_1958_60961" fill="white">
<path d="M11.9974 59.0152C20.6273 42.0543 33.6537 27.7223 49.7156 17.5163L66.8119 44.4223C55.5686 51.5665 46.4501 61.5989 40.4092 73.4715L11.9974 59.0152Z"/>
</mask>
<path d="M11.9974 59.0152C20.6273 42.0543 33.6537 27.7223 49.7156 17.5163L66.8119 44.4223C55.5686 51.5665 46.4501 61.5989 40.4092 73.4715L11.9974 59.0152Z" fill="#FF6B6C" stroke="white" stroke-width="2" mask="url(#path-1-inside-1_1958_60961)"/>
<mask id="path-2-inside-2_1958_60961" fill="white">
<path d="M5.6256 74.4254C7.34278 69.1302 9.47339 63.9781 11.9978 59.0168L40.4097 73.473C38.6426 76.9459 37.1512 80.5524 35.9492 84.259L5.6256 74.4254Z"/>
</mask>
<path d="M5.6256 74.4254C7.34278 69.1302 9.47339 63.9781 11.9978 59.0168L40.4097 73.473C38.6426 76.9459 37.1512 80.5524 35.9492 84.259L5.6256 74.4254Z" fill="#A8D8FA" stroke="white" stroke-width="2" mask="url(#path-2-inside-2_1958_60961)"/>
<mask id="path-3-inside-3_1958_60961" fill="white">
<path d="M192.842 169.422C176.34 192.268 151.439 207.623 123.616 212.108C95.7936 216.594 67.3284 209.844 44.4827 193.342L63.1486 167.5C79.1405 179.052 99.0662 183.777 118.542 180.637C138.018 177.497 155.449 166.748 167 150.756L192.842 169.422Z"/>
</mask>
<path d="M192.842 169.422C176.34 192.268 151.439 207.623 123.616 212.108C95.7936 216.594 67.3284 209.844 44.4827 193.342L63.1486 167.5C79.1405 179.052 99.0662 183.777 118.542 180.637C138.018 177.497 155.449 166.748 167 150.756L192.842 169.422Z" fill="#FFDE76" stroke="white" stroke-width="2" mask="url(#path-3-inside-3_1958_60961)"/>
<mask id="path-4-inside-4_1958_60961" fill="white">
<path d="M44.3106 193.218C26.146 180.042 12.6189 161.454 5.668 140.117C-1.28289 118.781 -1.3007 95.7917 5.61711 74.4446L35.9427 84.272C31.1002 99.215 31.1127 115.307 35.9783 130.243C40.8439 145.178 50.3129 158.19 63.0281 167.413L44.3106 193.218Z"/>
</mask>
<path d="M44.3106 193.218C26.146 180.042 12.6189 161.454 5.668 140.117C-1.28289 118.781 -1.3007 95.7917 5.61711 74.4446L35.9427 84.272C31.1002 99.215 31.1127 115.307 35.9783 130.243C40.8439 145.178 50.3129 158.19 63.0281 167.413L44.3106 193.218Z" fill="#BEE179" stroke="white" stroke-width="2" mask="url(#path-4-inside-4_1958_60961)"/>
<mask id="path-5-inside-5_1958_60961" fill="white">
<path d="M49.6365 17.5665C70.4953 4.28686 95.3323 -1.30247 119.869 1.76132C144.406 4.82511 167.106 16.3502 184.059 34.3512C201.012 52.3522 211.156 75.7019 212.744 100.378C214.332 125.054 207.265 149.512 192.76 169.538L166.943 150.837C177.096 136.819 182.044 119.699 180.932 102.426C179.82 85.1523 172.719 68.8074 160.852 56.2068C148.985 43.6061 133.095 35.5385 115.919 33.3939C98.7435 31.2492 81.3576 35.1617 66.7564 44.4574L49.6365 17.5665Z"/>
</mask>
<path d="M49.6365 17.5665C70.4953 4.28686 95.3323 -1.30247 119.869 1.76132C144.406 4.82511 167.106 16.3502 184.059 34.3512C201.012 52.3522 211.156 75.7019 212.744 100.378C214.332 125.054 207.265 149.512 192.76 169.538L166.943 150.837C177.096 136.819 182.044 119.699 180.932 102.426C179.82 85.1523 172.719 68.8074 160.852 56.2068C148.985 43.6061 133.095 35.5385 115.919 33.3939C98.7435 31.2492 81.3576 35.1617 66.7564 44.4574L49.6365 17.5665Z" fill="#0497EC" stroke="white" stroke-width="2" mask="url(#path-5-inside-5_1958_60961)"/>
</svg>