<svg width="20" height="20" viewBox="0 0 20 20" fill="none" xmlns="http://www.w3.org/2000/svg">
    <path d="M9.16797 12.4998H10.8346V14.1665H9.16797V12.4998ZM9.16797 5.83317H10.8346V10.8332H9.16797V5.83317ZM10.0013 1.6665C5.39297 1.6665 1.66797 5.4165 1.66797 9.99984C1.66797 12.21 2.54594 14.3296 4.10875 15.8924C4.88257 16.6662 5.80123 17.28 6.81227 17.6988C7.82332 18.1176 8.90695 18.3332 10.0013 18.3332C12.2114 18.3332 14.3311 17.4552 15.8939 15.8924C17.4567 14.3296 18.3346 12.21 18.3346 9.99984C18.3346 8.90549 18.1191 7.82186 17.7003 6.81081C17.2815 5.79976 16.6677 4.8811 15.8939 4.10728C15.12 3.33346 14.2014 2.71963 13.1903 2.30084C12.1793 1.88205 11.0957 1.6665 10.0013 1.6665ZM10.0013 16.6665C8.23319 16.6665 6.5375 15.9641 5.28726 14.7139C4.03701 13.4636 3.33464 11.7679 3.33464 9.99984C3.33464 8.23173 4.03701 6.53604 5.28726 5.28579C6.5375 4.03555 8.23319 3.33317 10.0013 3.33317C11.7694 3.33317 13.4651 4.03555 14.7153 5.28579C15.9656 6.53604 16.668 8.23173 16.668 9.99984C16.668 11.7679 15.9656 13.4636 14.7153 14.7139C13.4651 15.9641 11.7694 16.6665 10.0013 16.6665Z" fill="#ADB3BD"/>
</svg>
