<svg width="130" height="130" viewBox="0 0 130 130" fill="none" xmlns="http://www.w3.org/2000/svg">
    <path d="M49.3607 72.4355C51.5815 74.548 51.5815 78.0146 49.3607 80.1271C47.2482 82.2396 43.7815 82.2396 41.669 80.1271C36.5956 75.0462 33.7461 68.1594 33.7461 60.9792C33.7461 53.799 36.5956 46.9123 41.669 41.8313L60.844 22.6563C65.925 17.5829 72.8117 14.7334 79.9919 14.7334C87.1721 14.7334 94.0589 17.5829 99.1398 22.6563C104.213 27.7373 107.063 34.624 107.063 41.8042C107.063 48.9844 104.213 55.8712 99.1398 60.9521L91.069 69.023C91.1232 64.5813 90.419 60.1396 88.9023 55.9146L91.4482 53.3146C92.9667 51.8125 94.1722 50.0242 94.9949 48.0531C95.8176 46.0819 96.2412 43.9672 96.2412 41.8313C96.2412 39.6954 95.8176 37.5807 94.9949 35.6096C94.1722 33.6385 92.9667 31.8501 91.4482 30.348C89.9461 28.8295 88.1577 27.624 86.1866 26.8012C84.2155 25.9785 82.1008 25.5549 79.9648 25.5549C77.8289 25.5549 75.7142 25.9785 73.7431 26.8012C71.772 27.624 69.9836 28.8295 68.4815 30.348L49.3607 49.4688C47.8422 50.9709 46.6367 52.7593 45.8139 54.7304C44.9912 56.7015 44.5676 58.8162 44.5676 60.9521C44.5676 63.0881 44.9912 65.2028 45.8139 67.1739C46.6367 69.145 47.8422 70.9334 49.3607 72.4355ZM64.6357 49.4688C66.7482 47.3563 70.2148 47.3563 72.3273 49.4688C77.4007 54.5498 80.2503 61.4365 80.2503 68.6167C80.2503 75.7969 77.4007 82.6837 72.3273 87.7646L53.1523 106.94C48.0714 112.013 41.1846 114.863 34.0044 114.863C26.8242 114.863 19.9375 112.013 14.8565 106.94C9.78314 101.859 6.93359 94.9719 6.93359 87.7917C6.93359 80.6115 9.78314 73.7248 14.8565 68.6438L22.9273 60.573C22.8732 65.0146 23.5773 69.4563 25.094 73.7355L22.5482 76.2813C21.0297 77.7834 19.8242 79.5718 19.0014 81.5429C18.1787 83.514 17.7551 85.6287 17.7551 87.7646C17.7551 89.9006 18.1787 92.0153 19.0014 93.9864C19.8242 95.9575 21.0297 97.7459 22.5482 99.248C24.0503 100.766 25.8386 101.972 27.8098 102.795C29.7809 103.617 31.8956 104.041 34.0315 104.041C36.1674 104.041 38.2821 103.617 40.2533 102.795C42.2244 101.972 44.0127 100.766 45.5148 99.248L64.6357 80.1271C66.1542 78.625 67.3597 76.8367 68.1824 74.8656C69.0051 72.8944 69.4288 70.7797 69.4288 68.6438C69.4288 66.5079 69.0051 64.3932 68.1824 62.4221C67.3597 60.451 66.1542 58.6626 64.6357 57.1605C64.1096 56.6675 63.6903 56.0719 63.4036 55.4104C63.1169 54.7489 62.969 54.0356 62.969 53.3146C62.969 52.5937 63.1169 51.8804 63.4036 51.2189C63.6903 50.5574 64.1096 49.9618 64.6357 49.4688Z" fill="#707A8B"/>
    <path d="M96.6081 108.5C93.2929 108.5 90.1134 107.183 87.7692 104.839C85.425 102.495 84.1081 99.3151 84.1081 95.9999C84.1081 93.9166 84.6289 91.8958 85.5664 90.1666L82.5247 87.1249C80.8367 89.7772 79.9405 92.856 79.9414 95.9999C79.9414 100.42 81.6974 104.659 84.823 107.785C87.9486 110.911 92.1878 112.667 96.6081 112.667V118.917L104.941 110.583L96.6081 102.25M96.6081 79.3333V73.0833L88.2747 81.4166L96.6081 89.7499V83.4999C99.9233 83.4999 103.103 84.8169 105.447 87.1611C107.791 89.5053 109.108 92.6847 109.108 95.9999C109.108 98.0833 108.587 100.104 107.65 101.833L110.691 104.875C112.379 102.223 113.276 99.1438 113.275 95.9999C113.275 91.5796 111.519 87.3404 108.393 84.2148C105.268 81.0892 101.028 79.3333 96.6081 79.3333Z" fill="#707A8B"/>
</svg>
