<svg xmlns="http://www.w3.org/2000/svg" width="24" height="20" viewBox="0 0 24 20" fill="none">
<path fill-rule="evenodd" clip-rule="evenodd" d="M3.94824 1.2485L0.766259 4.43048C0.570996 4.62574 0.570996 4.94232 0.766259 5.13759C0.961521 5.33285 1.2781 5.33285 1.47337 5.13759L3.80179 2.80916L3.80179 8.86554L3.80179 14.1991C3.80179 14.801 4.13632 16.1404 5.34791 17.352C6.5595 18.5636 7.89895 18.8981 8.50081 18.8981H12.6998C12.976 18.8981 13.1998 18.6743 13.1998 18.3981C13.1998 18.122 12.976 17.8981 12.6998 17.8981H8.50081C8.16955 17.8981 7.0829 17.6728 6.05502 16.6449C5.02713 15.617 4.80179 14.5304 4.80179 14.1991V8.86554L4.80179 2.80916L7.13022 5.13759C7.32548 5.33285 7.64206 5.33285 7.83733 5.13759C8.03259 4.94232 8.03259 4.62574 7.83733 4.43048L4.65535 1.2485C4.46008 1.05324 4.1435 1.05324 3.94824 1.2485ZM23.2337 15.5697L20.0517 18.7517C19.8565 18.9469 19.5399 18.9469 19.3446 18.7517L16.1627 15.5697C15.9674 15.3744 15.9674 15.0579 16.1627 14.8626C16.3579 14.6673 16.6745 14.6673 16.8698 14.8626L19.1982 17.191V11.1346V5.80108C19.1982 5.46982 18.9729 4.38317 17.945 3.35529C16.9171 2.3274 15.8304 2.10206 15.4992 2.10206L11.3002 2.10206C11.024 2.10206 10.8002 1.8782 10.8002 1.60206C10.8002 1.32592 11.024 1.10206 11.3002 1.10206L15.4992 1.10206C16.101 1.10206 17.4405 1.43659 18.6521 2.64818C19.8637 3.85977 20.1982 5.19922 20.1982 5.80108V11.1346V17.191L22.5266 14.8626C22.7219 14.6673 23.0385 14.6673 23.2337 14.8626C23.429 15.0578 23.429 15.3744 23.2337 15.5697Z" fill="#687386"/>
<path d="M0.766259 4.43048L0.943035 4.60725L0.943035 4.60725L0.766259 4.43048ZM3.94824 1.2485L3.77146 1.07172V1.07172L3.94824 1.2485ZM0.766259 5.13759L0.589482 5.31436H0.589482L0.766259 5.13759ZM1.47337 5.13759L1.65014 5.31436H1.65014L1.47337 5.13759ZM3.80179 2.80916H4.05179V2.2056L3.62502 2.63238L3.80179 2.80916ZM3.80179 8.86554H4.05179H3.80179ZM3.80179 14.1991H3.55179H3.80179ZM6.05502 16.6449L5.87824 16.8217L6.05502 16.6449ZM4.80179 8.86554L4.55179 8.86554V8.86554H4.80179ZM4.80179 2.80916L4.97857 2.63238L4.55179 2.2056V2.80916H4.80179ZM7.13022 5.13759L6.95344 5.31436L6.95344 5.31436L7.13022 5.13759ZM7.83733 5.13759L8.0141 5.31436V5.31436L7.83733 5.13759ZM7.83733 4.43048L7.66055 4.60726L7.83733 4.43048ZM4.65535 1.2485L4.83212 1.07172V1.07172L4.65535 1.2485ZM20.0517 18.7517L20.2285 18.9285L20.0517 18.7517ZM23.2337 15.5697L23.0569 15.3929V15.3929L23.2337 15.5697ZM19.3446 18.7517L19.1679 18.9285H19.1679L19.3446 18.7517ZM16.1627 15.5697L16.3394 15.3929L16.1627 15.5697ZM16.1627 14.8626L15.9859 14.6858H15.9859L16.1627 14.8626ZM16.8698 14.8626L17.0465 14.6858L16.8698 14.8626ZM19.1982 17.191L19.0214 17.3678L19.4482 17.7946V17.191H19.1982ZM15.4992 2.10206V1.85206V2.10206ZM11.3002 2.10206V2.35206V2.10206ZM11.3002 1.10206V0.852062V1.10206ZM15.4992 1.10206V1.35206V1.10206ZM18.6521 2.64818L18.8288 2.4714V2.4714L18.6521 2.64818ZM20.1982 17.191H19.9482V17.7946L20.375 17.3678L20.1982 17.191ZM22.5266 14.8626L22.7034 15.0394L22.5266 14.8626ZM23.2337 14.8626L23.0569 15.0394V15.0394L23.2337 14.8626ZM0.943035 4.60725L4.12502 1.42527L3.77146 1.07172L0.589482 4.2537L0.943035 4.60725ZM0.943035 4.96081C0.845404 4.86318 0.845404 4.70489 0.943035 4.60725L0.589482 4.2537C0.296589 4.54659 0.296589 5.02147 0.589482 5.31436L0.943035 4.96081ZM1.29659 4.96081C1.19896 5.05844 1.04067 5.05844 0.943035 4.96081L0.589482 5.31436C0.882375 5.60725 1.35725 5.60725 1.65014 5.31436L1.29659 4.96081ZM3.62502 2.63238L1.29659 4.96081L1.65014 5.31436L3.97857 2.98593L3.62502 2.63238ZM4.05179 8.86554L4.05179 2.80916H3.55179L3.55179 8.86554L4.05179 8.86554ZM4.05179 14.1991L4.05179 8.86554L3.55179 8.86554L3.55179 14.1991H4.05179ZM5.52469 17.1752C4.35902 16.0095 4.05179 14.7333 4.05179 14.1991H3.55179C3.55179 14.8686 3.91363 16.2713 5.17113 17.5288L5.52469 17.1752ZM8.50081 18.6481C7.96661 18.6481 6.69036 18.3409 5.52469 17.1752L5.17113 17.5288C6.42864 18.7863 7.8313 19.1481 8.50081 19.1481V18.6481ZM12.6998 18.6481H8.50081V19.1481H12.6998V18.6481ZM12.9498 18.3981C12.9498 18.5362 12.8379 18.6481 12.6998 18.6481V19.1481C13.114 19.1481 13.4498 18.8123 13.4498 18.3981H12.9498ZM12.6998 18.1481C12.8379 18.1481 12.9498 18.26 12.9498 18.3981H13.4498C13.4498 17.9839 13.114 17.6481 12.6998 17.6481V18.1481ZM8.50081 18.1481H12.6998V17.6481H8.50081V18.1481ZM5.87824 16.8217C6.95206 17.8955 8.10191 18.1481 8.50081 18.1481V17.6481C8.23718 17.6481 7.21375 17.4501 6.23179 16.4681L5.87824 16.8217ZM4.55179 14.1991C4.55179 14.598 4.80442 15.7478 5.87824 16.8217L6.23179 16.4681C5.24984 15.4862 5.05179 14.4627 5.05179 14.1991H4.55179ZM4.55179 8.86554V14.1991H5.05179V8.86554H4.55179ZM4.55179 2.80916L4.55179 8.86554L5.05179 8.86554L5.05179 2.80916H4.55179ZM7.307 4.96081L4.97857 2.63238L4.62502 2.98593L6.95344 5.31436L7.307 4.96081ZM7.66055 4.96081C7.56292 5.05844 7.40463 5.05844 7.307 4.96081L6.95344 5.31436C7.24634 5.60725 7.72121 5.60725 8.0141 5.31436L7.66055 4.96081ZM7.66055 4.60726C7.75818 4.70489 7.75818 4.86318 7.66055 4.96081L8.0141 5.31436C8.307 5.02147 8.307 4.54659 8.0141 4.2537L7.66055 4.60726ZM4.47857 1.42527L7.66055 4.60726L8.0141 4.2537L4.83212 1.07172L4.47857 1.42527ZM4.12502 1.42527C4.22265 1.32764 4.38094 1.32764 4.47857 1.42527L4.83212 1.07172C4.53923 0.778827 4.06436 0.778828 3.77146 1.07172L4.12502 1.42527ZM20.2285 18.9285L23.4105 15.7465L23.0569 15.3929L19.875 18.5749L20.2285 18.9285ZM19.1679 18.9285C19.4608 19.2213 19.9356 19.2213 20.2285 18.9285L19.875 18.5749C19.7773 18.6725 19.619 18.6725 19.5214 18.5749L19.1679 18.9285ZM15.9859 15.7465L19.1679 18.9285L19.5214 18.5749L16.3394 15.3929L15.9859 15.7465ZM15.9859 14.6858C15.693 14.9787 15.693 15.4536 15.9859 15.7465L16.3394 15.3929C16.2418 15.2953 16.2418 15.137 16.3394 15.0394L15.9859 14.6858ZM17.0465 14.6858C16.7536 14.3929 16.2788 14.3929 15.9859 14.6858L16.3394 15.0394C16.4371 14.9417 16.5954 14.9417 16.693 15.0394L17.0465 14.6858ZM19.375 17.0142L17.0465 14.6858L16.693 15.0394L19.0214 17.3678L19.375 17.0142ZM18.9482 11.1346V17.191H19.4482V11.1346H18.9482ZM18.9482 5.80108V11.1346H19.4482V5.80108H18.9482ZM19.4482 5.80108C19.4482 5.40218 19.1956 4.25233 18.1217 3.17851L17.7682 3.53206C18.7501 4.51402 18.9482 5.53745 18.9482 5.80108H19.4482ZM18.1217 3.17851C17.0479 2.10469 15.8981 1.85206 15.4992 1.85206V2.35206C15.7628 2.35206 16.7862 2.55011 17.7682 3.53206L18.1217 3.17851ZM15.4992 1.85206L11.3002 1.85206V2.35206L15.4992 2.35206V1.85206ZM11.3002 1.85206C11.1621 1.85206 11.0502 1.74013 11.0502 1.60206H10.5502C10.5502 2.01628 10.8859 2.35206 11.3002 2.35206V1.85206ZM11.0502 1.60206C11.0502 1.46399 11.1621 1.35206 11.3002 1.35206V0.852062C10.8859 0.852062 10.5502 1.18785 10.5502 1.60206H11.0502ZM11.3002 1.35206L15.4992 1.35206V0.852062L11.3002 0.852062V1.35206ZM15.4992 1.35206C16.0334 1.35206 17.3096 1.65929 18.4753 2.82496L18.8288 2.4714C17.5713 1.2139 16.1687 0.852062 15.4992 0.852062V1.35206ZM18.4753 2.82496C19.641 3.99063 19.9482 5.26688 19.9482 5.80108H20.4482C20.4482 5.13157 20.0864 3.72891 18.8288 2.4714L18.4753 2.82496ZM20.4482 11.1346V5.80108H19.9482V11.1346H20.4482ZM20.4482 17.191V11.1346H19.9482V17.191H20.4482ZM22.3498 14.6858L20.0214 17.0142L20.375 17.3678L22.7034 15.0394L22.3498 14.6858ZM23.4105 14.6858C23.1176 14.3929 22.6427 14.3929 22.3498 14.6858L22.7034 15.0394C22.801 14.9417 22.9593 14.9417 23.0569 15.0394L23.4105 14.6858ZM23.4105 15.7465C23.7034 15.4536 23.7034 14.9787 23.4105 14.6858L23.0569 15.0394C23.1546 15.137 23.1546 15.2953 23.0569 15.3929L23.4105 15.7465Z" fill="#687386"/>
</svg>