<svg xmlns="http://www.w3.org/2000/svg" width="68" height="16" viewBox="0 0 68 16" fill="none">
<path fill-rule="evenodd" clip-rule="evenodd" d="M3.50324 2.46152L4.61662 3.59464C5.77806 2.69491 7.25004 2.27922 8.71797 2.43659C10.1859 2.59387 11.5332 3.31173 12.4718 4.43648L11.3501 5.5723C11.9444 6.33811 12.2397 7.28954 12.1816 8.25238C12.1237 9.21532 11.7164 10.1255 11.0342 10.8164C10.3522 11.5075 9.44075 11.933 8.46678 12.0154C7.49291 12.0977 6.52134 11.8313 5.73 11.2651L5.15944 11.8501C6.05177 12.52 7.15047 12.8666 8.2711 12.8322C9.3918 12.7976 10.4663 12.3839 11.3146 11.6604C12.163 10.937 12.7334 9.94774 12.9305 8.85857C13.1274 7.76938 12.939 6.64647 12.3966 5.67804L12.9534 5.10813C13.5624 6.10019 13.8431 7.25493 13.7566 8.41175C13.67 9.56849 13.2205 10.67 12.4704 11.5631L13.0438 12.1441C14.043 10.9847 14.5906 9.51183 14.5884 7.98987C14.586 6.46792 14.034 4.99672 13.0313 3.84024C12.0286 2.68393 10.6409 1.91819 9.11756 1.68055C7.59417 1.44297 6.0349 1.74906 4.71964 2.544L4.16295 1.98498C5.33569 1.23181 6.70511 0.831468 8.10438 0.832689C9.78682 0.822663 11.4187 1.40007 12.7112 2.46293L13.2832 1.88193C11.723 0.580644 9.72072 -0.0885707 7.68022 0.00942284C5.6397 0.107329 3.71272 0.965034 2.28782 2.40966C0.862932 3.85426 0.0459679 5.7783 0.00188172 7.79381C-0.0422045 9.8093 0.689768 11.7663 2.05025 13.2702L2.62364 12.6893C1.9869 11.9671 1.50355 11.126 1.20246 10.216C0.901276 9.30608 0.788365 8.34566 0.870353 7.39171C0.95243 6.43793 1.22773 5.51005 1.67999 4.66315C2.13224 3.81626 2.75229 3.06761 3.50324 2.46152ZM51.0696 10.619L53.2574 7.64765L51.1876 4.79817H52.4263L53.936 6.8654L55.4262 4.79817H56.6144L54.5505 7.60843L56.7661 10.619H55.5021L53.8984 8.40366L52.3168 10.619H51.0696ZM48.9697 10.6773C48.7787 10.6773 48.6158 10.6135 48.4809 10.486C48.3461 10.353 48.2787 10.1866 48.2787 9.98707C48.2787 9.77641 48.3461 9.6101 48.4809 9.48814C48.6158 9.36063 48.7787 9.29688 48.9697 9.29688C49.1607 9.29688 49.3236 9.36063 49.4584 9.48814C49.5933 9.6101 49.6607 9.77641 49.6607 9.98707C49.6607 10.1866 49.5933 10.353 49.4584 10.486C49.3236 10.6135 49.1607 10.6773 48.9697 10.6773ZM58.9914 8.58189V10.619H60.0869V8.56813L62.3959 4.79817H61.3172L59.5742 7.62987L57.8454 4.79817H56.6741L58.9914 8.58189ZM6.62522 6.85632H10.0115L8.30793 10.0495L6.62522 6.85632ZM5.27384 6.04743L8.10471 11.4133L10.9356 6.04743H5.27384ZM13.5862 3.30588L14.1595 2.72498H14.1637C15.5261 4.22871 16.2597 6.18649 16.2163 8.20321C16.173 10.2199 15.3559 12.1452 13.93 13.5907C12.5042 15.036 10.5757 15.8938 8.53408 15.9908C6.49224 16.0877 4.48919 15.4167 2.9293 14.1132L3.50268 13.5323C4.68965 14.498 6.15758 15.0654 7.69344 15.152C9.22931 15.2387 10.7532 14.8402 12.0441 14.0143L11.4873 13.4554C10.1722 14.2516 8.61227 14.5588 7.08816 14.3217C5.56396 14.0846 4.17564 13.3186 3.17262 12.1615C2.1695 11.0047 1.61758 9.53247 1.61617 8.00991C1.61467 6.48727 2.16367 5.01413 3.16449 3.85523L3.74212 4.43899C2.99123 5.33175 2.54127 6.4333 2.45469 7.5903C2.36811 8.74722 2.64933 9.90204 3.25912 10.8939L3.8158 10.324C3.2721 9.35576 3.08232 8.23241 3.27828 7.14254C3.47433 6.05258 4.0441 5.06218 4.89224 4.33769C5.74039 3.61311 6.81525 3.19838 7.93641 3.16308C9.05763 3.12776 10.1571 3.47406 11.0503 4.14371L10.47 4.73149C9.78457 4.23446 8.95436 3.97039 8.1039 3.97893C7.34534 3.97807 6.60154 4.18635 5.95641 4.58041C5.31147 4.97448 4.79072 5.53855 4.45332 6.20908C4.11584 6.8795 3.97491 7.62971 4.04647 8.37504C4.11804 9.12028 4.39916 9.83108 4.85832 10.4271L4.28211 11.0107L3.73796 11.5601C4.67711 12.6841 6.02444 13.4011 7.49219 13.5582C8.95983 13.7152 10.4316 13.2998 11.5931 12.4006L12.1665 12.9843L12.7093 13.5336C13.4596 12.9271 14.0789 12.1782 14.5306 11.3312C14.9822 10.4842 15.2571 9.55637 15.3388 8.60268C15.4205 7.64898 15.3076 6.68883 15.0065 5.779C14.7054 4.86915 14.2224 4.02819 13.5862 3.30588ZM20.4703 5.77716C19.9954 6.41219 19.7803 7.2005 19.8679 7.98496C19.9554 8.76953 20.3393 9.49262 20.9429 10.0105C21.5465 10.5283 22.3257 10.8027 23.1251 10.7792C23.9245 10.7556 24.6857 10.4359 25.2569 9.88347C25.8281 9.33099 26.1675 8.58654 26.2076 7.79822C26.2476 7.01001 25.9852 6.23573 25.4728 5.62973C24.9605 5.02372 24.2354 4.63045 23.4425 4.52818C22.6494 4.42592 21.8463 4.62224 21.1934 5.07785L21.8715 5.76573C22.3397 5.48456 22.8964 5.38326 23.4354 5.48091C23.9744 5.57864 24.4583 5.86851 24.7947 6.29546C25.1311 6.72239 25.2967 7.25647 25.2599 7.79614C25.223 8.3357 24.9862 8.84311 24.5948 9.22166C24.2034 9.6002 23.6845 9.8234 23.1371 9.84885C22.5897 9.8743 22.0519 9.7002 21.6261 9.35967C21.2003 9.01914 20.9164 8.53597 20.8284 8.00205C20.7403 7.46833 20.8541 6.92126 21.1484 6.46493L20.4703 5.77716ZM37.4362 4.59384C36.8531 4.59366 36.2814 4.75198 35.7836 5.05137C35.2857 5.35077 34.8811 5.7797 34.6139 6.29102C34.3469 6.80245 34.2278 7.37663 34.2694 7.95038C34.311 8.52422 34.5121 9.07564 34.8505 9.54416L35.5316 8.85201C35.2501 8.38925 35.1506 7.84052 35.2522 7.3101C35.354 6.77977 35.6494 6.30472 36.0828 5.97543C36.5164 5.64613 37.0574 5.48554 37.6029 5.52417C38.1485 5.5628 38.6608 5.79801 39.0421 6.18501C39.4233 6.57202 39.6472 7.08395 39.671 7.62317C39.6948 8.16241 39.517 8.69161 39.1713 9.10991C38.8255 9.52812 38.3359 9.80641 37.7958 9.89177C37.2558 9.97712 36.7026 9.86351 36.2418 9.57268L35.5665 10.2577C35.9718 10.5534 36.4425 10.7497 36.94 10.8307C37.4372 10.9117 37.947 10.8749 38.4271 10.7233C38.9073 10.5718 39.344 10.3098 39.7014 9.95907C40.0588 9.60816 40.3266 9.1787 40.4826 8.70564C40.6387 8.23267 40.6789 7.72989 40.5994 7.2387C40.5199 6.74743 40.3235 6.28188 40.0259 5.8803C39.7285 5.47874 39.3385 5.15268 38.8883 4.92905C38.438 4.70535 37.9403 4.59053 37.4362 4.59384ZM32.7067 6.20236L31.9021 6.99607C31.9725 7.20329 32.0099 7.42195 32.0099 7.64444C32.0099 8.17704 31.799 8.68862 31.4225 9.07014C31.0459 9.45174 30.5334 9.6731 29.9937 9.6873H28.4126V7.80687L28.4131 7.80643V5.60175H29.9937C30.4964 5.61482 30.9755 5.80802 31.3433 6.14298L32.0753 5.42058C31.8094 5.18589 31.5036 4.99897 31.1712 4.86933C30.7966 4.72338 30.3962 4.65259 29.9937 4.66131H27.4588V6.8788V8.74686V9.6873V10.6277H28.4126H29.9937C30.3962 10.6363 30.7966 10.5656 31.1712 10.4196C31.5456 10.2735 31.8866 10.0552 32.1744 9.77737C32.4623 9.49944 32.691 9.16769 32.8471 8.80135C33.0032 8.4351 33.0835 8.0419 33.0835 7.64444C33.0835 7.24715 33.0032 6.85377 32.8471 6.48753C32.8055 6.38988 32.7584 6.29476 32.7067 6.20236ZM43.1973 8.07678C42.9245 8.00973 42.6747 7.91497 42.4474 7.79248C42.22 7.67007 42.0382 7.50033 41.9019 7.28299C41.7656 7.0658 41.6972 6.77558 41.6972 6.41211C41.6972 6.03305 41.7996 5.70123 42.0042 5.41692C42.2086 5.13252 42.4986 4.91335 42.8735 4.75938C43.2486 4.60534 43.6935 4.52836 44.2087 4.52836C44.6026 4.52836 45.0023 4.5777 45.4076 4.67639C45.8128 4.77525 46.1444 4.91544 46.402 5.09704L45.9362 5.99747C45.6634 5.80784 45.3794 5.6776 45.0838 5.60646C44.7883 5.5354 44.4929 5.49983 44.1973 5.49983C43.7201 5.49983 43.3641 5.58091 43.1291 5.74272C42.8943 5.90471 42.7768 6.11203 42.7768 6.36477C42.7768 6.57803 42.8469 6.742 42.9872 6.8564C43.1273 6.97104 43.3092 7.05989 43.5326 7.123C43.756 7.18638 44.0043 7.23965 44.277 7.28299C44.5498 7.32649 44.8224 7.38184 45.0952 7.44881C45.368 7.51602 45.616 7.60878 45.8395 7.72726C46.0629 7.84575 46.2447 8.01166 46.385 8.22491C46.5251 8.43806 46.5953 8.72246 46.5953 9.0779C46.5953 9.45148 46.4917 9.77502 46.2858 10.0488L45.4906 9.2487C45.4988 9.20153 45.5043 9.15305 45.5043 9.10161C45.5043 8.90424 45.4361 8.75027 45.2997 8.63954C45.1634 8.529 44.9833 8.44609 44.7599 8.39073C44.5364 8.33562 44.2884 8.2861 44.0157 8.2426C43.7429 8.19928 43.4701 8.14391 43.1973 8.07678ZM44.7123 9.90099C44.5324 9.93657 44.3194 9.9547 44.0722 9.9547C43.6782 9.9547 43.2919 9.89149 42.9131 9.76508C42.5343 9.63884 42.216 9.48478 41.9586 9.30301L41.5041 10.2034C41.7615 10.409 42.1157 10.5826 42.5665 10.7248C43.0172 10.867 43.4928 10.938 43.9926 10.938C44.5306 10.938 44.9927 10.861 45.3792 10.707C45.3984 10.6993 45.4169 10.6912 45.4354 10.683C45.444 10.6792 45.4526 10.6754 45.4613 10.6717L44.7123 9.90099ZM62.9692 9.8956V10.619H68V9.70434H64.4196L67.8904 5.52163V4.79817H63.0282V5.71288H66.4399L62.9692 9.8956Z" fill="#BAC0CB"/>
</svg>