<svg width="28" height="28" viewBox="0 0 28 28" fill="none" xmlns="http://www.w3.org/2000/svg">
    <path d="M13.9991 9.3335C15.2368 9.3335 16.4238 9.82516 17.2989 10.7003C18.1741 11.5755 18.6658 12.7625 18.6658 14.0002C18.6658 15.2378 18.1741 16.4248 17.2989 17.3C16.4238 18.1752 15.2368 18.6668 13.9991 18.6668C12.7614 18.6668 11.5744 18.1752 10.6993 17.3C9.8241 16.4248 9.33244 15.2378 9.33244 14.0002C9.33244 12.7625 9.8241 11.5755 10.6993 10.7003C11.5744 9.82516 12.7614 9.3335 13.9991 9.3335ZM13.9991 11.6668C13.3803 11.6668 12.7868 11.9127 12.3492 12.3502C11.9116 12.7878 11.6658 13.3813 11.6658 14.0002C11.6658 14.619 11.9116 15.2125 12.3492 15.6501C12.7868 16.0877 13.3803 16.3335 13.9991 16.3335C14.6179 16.3335 15.2114 16.0877 15.649 15.6501C16.0866 15.2125 16.3324 14.619 16.3324 14.0002C16.3324 13.3813 16.0866 12.7878 15.649 12.3502C15.2114 11.9127 14.6179 11.6668 13.9991 11.6668ZM11.6658 25.6668C11.3741 25.6668 11.1291 25.4568 11.0824 25.1768L10.6508 22.0852C9.91577 21.7935 9.28577 21.3968 8.6791 20.9302L5.7741 22.1085C5.51744 22.2018 5.20244 22.1085 5.06244 21.8518L2.7291 17.8152C2.6577 17.695 2.63252 17.5529 2.65829 17.4154C2.68406 17.278 2.759 17.1547 2.8691 17.0685L5.33077 15.1318L5.2491 14.0002L5.33077 12.8335L2.8691 10.9318C2.759 10.8457 2.68406 10.7223 2.65829 10.5849C2.63252 10.4475 2.6577 10.3054 2.7291 10.1852L5.06244 6.1485C5.20244 5.89183 5.51744 5.78683 5.7741 5.89183L8.6791 7.0585C9.28577 6.6035 9.91577 6.20683 10.6508 5.91516L11.0824 2.8235C11.1291 2.5435 11.3741 2.3335 11.6658 2.3335H16.3324C16.6241 2.3335 16.8691 2.5435 16.9158 2.8235L17.3474 5.91516C18.0824 6.20683 18.7124 6.6035 19.3191 7.0585L22.2241 5.89183C22.4808 5.78683 22.7958 5.89183 22.9358 6.1485L25.2691 10.1852C25.4208 10.4418 25.3508 10.7568 25.1291 10.9318L22.6674 12.8335L22.7491 14.0002L22.6674 15.1668L25.1291 17.0685C25.3508 17.2435 25.4208 17.5585 25.2691 17.8152L22.9358 21.8518C22.7958 22.1085 22.4808 22.2135 22.2241 22.1085L19.3191 20.9418C18.7124 21.3968 18.0824 21.7935 17.3474 22.0852L16.9158 25.1768C16.8691 25.4568 16.6241 25.6668 16.3324 25.6668H11.6658ZM13.1241 4.66683L12.6924 7.71183C11.2924 8.0035 10.0558 8.75016 9.15744 9.7885L6.34577 8.57516L5.47077 10.0918L7.93244 11.9002C7.46577 13.2613 7.46577 14.7391 7.93244 16.1002L5.4591 17.9202L6.3341 19.4368L9.1691 18.2235C10.0674 19.2502 11.2924 19.9968 12.6808 20.2768L13.1124 23.3335H14.8858L15.3174 20.2885C16.7058 19.9968 17.9308 19.2502 18.8291 18.2235L21.6641 19.4368L22.5391 17.9202L20.0658 16.1118C20.5324 14.7468 20.5324 13.2652 20.0658 11.9002L22.5274 10.0918L21.6524 8.57516L18.8408 9.7885C17.924 8.72721 16.6805 8.00078 15.3058 7.7235L14.8741 4.66683H13.1241Z" fill="#ADB3BD"/>
</svg>
