<svg width="18" height="18" viewBox="0 0 18 18" fill="none" xmlns="http://www.w3.org/2000/svg">
    <path d="M8.16797 11.4998H9.83464V13.1665H8.16797V11.4998ZM8.16797 4.83317H9.83464V9.83317H8.16797V4.83317ZM9.0013 0.666504C4.39297 0.666504 0.667969 4.4165 0.667969 8.99984C0.667969 11.21 1.54594 13.3296 3.10875 14.8924C3.88257 15.6662 4.80123 16.28 5.81227 16.6988C6.82332 17.1176 7.90695 17.3332 9.0013 17.3332C11.2114 17.3332 13.3311 16.4552 14.8939 14.8924C16.4567 13.3296 17.3346 11.21 17.3346 8.99984C17.3346 7.90549 17.1191 6.82186 16.7003 5.81081C16.2815 4.79976 15.6677 3.8811 14.8939 3.10728C14.12 2.33346 13.2014 1.71963 12.1903 1.30084C11.1793 0.882052 10.0957 0.666504 9.0013 0.666504ZM9.0013 15.6665C7.23319 15.6665 5.5375 14.9641 4.28726 13.7139C3.03701 12.4636 2.33464 10.7679 2.33464 8.99984C2.33464 7.23173 3.03701 5.53604 4.28726 4.28579C5.5375 3.03555 7.23319 2.33317 9.0013 2.33317C10.7694 2.33317 12.4651 3.03555 13.7153 4.28579C14.9656 5.53604 15.668 7.23173 15.668 8.99984C15.668 10.7679 14.9656 12.4636 13.7153 13.7139C12.4651 14.9641 10.7694 15.6665 9.0013 15.6665Z" fill="#FE7F2D"/>
</svg>
