<svg
  width="18"
  height="18"
  viewBox="0 0 18 18"
  fill="none"
  xmlns="http://www.w3.org/2000/svg"
>
  <path
    d="M8.16797 13.9998H9.83464V12.3332H8.16797V13.9998ZM9.0013 0.666504C7.90695 0.666504 6.82332 0.882052 5.81227 1.30084C4.80123 1.71963 3.88257 2.33346 3.10875 3.10728C1.54594 4.67008 0.667969 6.7897 0.667969 8.99984C0.667969 11.21 1.54594 13.3296 3.10875 14.8924C3.88257 15.6662 4.80123 16.28 5.81227 16.6988C6.82332 17.1176 7.90695 17.3332 9.0013 17.3332C11.2114 17.3332 13.3311 16.4552 14.8939 14.8924C16.4567 13.3296 17.3346 11.21 17.3346 8.99984C17.3346 7.90549 17.1191 6.82186 16.7003 5.81081C16.2815 4.79976 15.6677 3.8811 14.8939 3.10728C14.12 2.33346 13.2014 1.71963 12.1903 1.30084C11.1793 0.882052 10.0957 0.666504 9.0013 0.666504ZM9.0013 15.6665C5.3263 15.6665 2.33464 12.6748 2.33464 8.99984C2.33464 5.32484 5.3263 2.33317 9.0013 2.33317C12.6763 2.33317 15.668 5.32484 15.668 8.99984C15.668 12.6748 12.6763 15.6665 9.0013 15.6665ZM9.0013 3.99984C8.11725 3.99984 7.2694 4.35103 6.64428 4.97615C6.01916 5.60127 5.66797 6.44912 5.66797 7.33317H7.33464C7.33464 6.89114 7.51023 6.46722 7.82279 6.15466C8.13535 5.8421 8.55928 5.6665 9.0013 5.6665C9.44333 5.6665 9.86725 5.8421 10.1798 6.15466C10.4924 6.46722 10.668 6.89114 10.668 7.33317C10.668 8.99984 8.16797 8.7915 8.16797 11.4998H9.83464C9.83464 9.62484 12.3346 9.4165 12.3346 7.33317C12.3346 6.44912 11.9834 5.60127 11.3583 4.97615C10.7332 4.35103 9.88536 3.99984 9.0013 3.99984Z"
    fill="#29323E"
  />
</svg>
