<svg width="17" height="16" viewBox="0 0 17 16" fill="none" xmlns="http://www.w3.org/2000/svg">
    <path d="M8.50182 15.4665C7.52129 15.4665 6.55035 15.2734 5.64445 14.8982C4.73856 14.5229 3.91544 13.9729 3.22209 13.2796C2.52875 12.5863 1.97876 11.7631 1.60352 10.8572C1.22829 9.95134 1.03516 8.98041 1.03516 7.99987C1.03516 7.01933 1.22829 6.0484 1.60352 5.1425C1.97876 4.2366 2.52875 3.41348 3.22209 2.72014C3.91544 2.02679 4.73856 1.4768 5.64445 1.10157C6.55035 0.726334 7.52129 0.533203 8.50182 0.533203C10.4821 0.533203 12.3813 1.31987 13.7816 2.72014C15.1818 4.12041 15.9685 6.01959 15.9685 7.99987C15.9685 9.98015 15.1818 11.8793 13.7816 13.2796C12.3813 14.6799 10.4821 15.4665 8.50182 15.4665Z" fill="white" stroke="#E0E0E0"/>
</svg>
