<svg width="100" height="100" viewBox="0 0 100 100" fill="none" xmlns="http://www.w3.org/2000/svg">
    <path fill-rule="evenodd" clip-rule="evenodd" d="M50 94C74.3005 94 94 74.3005 94 50C94 25.6995 74.3005 6 50 6C25.6995 6 6 25.6995 6 50C6 74.3005 25.6995 94 50 94ZM50 100C77.6142 100 100 77.6142 100 50C100 22.3858 77.6142 0 50 0C22.3858 0 0 22.3858 0 50C0 77.6142 22.3858 100 50 100Z" fill="#22ABAC"/>
    <path fill-rule="evenodd" clip-rule="evenodd" d="M77.6523 32.4101C78.8065 33.5988 78.7786 35.4981 77.5899 36.6523L43.8337 69.43C42.2082 71.0084 39.5975 70.9229 38.0788 69.2415L24.7737 54.5109C23.6631 53.2813 23.7596 51.3843 24.9892 50.2737C26.2187 49.1631 28.1158 49.2596 29.2263 50.4891L41.1415 63.681L73.4101 32.3477C74.5988 31.1935 76.4981 31.2214 77.6523 32.4101Z" fill="#22ABAC"/>
</svg>
