<svg
  width="14"
  height="14"
  viewBox="0 0 14 14"
  fill="none"
  xmlns="http://www.w3.org/2000/svg"
>
  <path
    d="M6.33203 8.99992H7.66536V10.3333H6.33203V8.99992ZM6.33203 3.66659H7.66536V7.66659H6.33203V3.66659ZM6.9987 0.333252C3.31203 0.333252 0.332031 3.33325 0.332031 6.99992C0.332031 8.76803 1.03441 10.4637 2.28465 11.714C2.90371 12.333 3.63864 12.8241 4.44747 13.1591C5.25631 13.4941 6.12322 13.6666 6.9987 13.6666C8.76681 13.6666 10.4625 12.9642 11.7127 11.714C12.963 10.4637 13.6654 8.76803 13.6654 6.99992C13.6654 6.12444 13.4929 5.25753 13.1579 4.4487C12.8229 3.63986 12.3318 2.90493 11.7127 2.28587C11.0937 1.66682 10.3588 1.17575 9.54992 0.840722C8.74108 0.50569 7.87418 0.333252 6.9987 0.333252ZM6.9987 12.3333C5.58421 12.3333 4.22766 11.7713 3.22746 10.7712C2.22727 9.77096 1.66536 8.41441 1.66536 6.99992C1.66536 5.58543 2.22727 4.22888 3.22746 3.22868C4.22766 2.22849 5.58421 1.66659 6.9987 1.66659C8.41319 1.66659 9.76974 2.22849 10.7699 3.22868C11.7701 4.22888 12.332 5.58543 12.332 6.99992C12.332 8.41441 11.7701 9.77096 10.7699 10.7712C9.76974 11.7713 8.41319 12.3333 6.9987 12.3333Z"
    fill="#FE7F2D"
  />
</svg>
