<svg width="135" height="130" viewBox="0 0 135 130" fill="none" xmlns="http://www.w3.org/2000/svg">
    <g clip-path="url(#clip0_6700_126516)">
        <path d="M65 130C100.899 130 130 100.898 130 65C130 29.1015 100.899 0 65 0C29.1015 0 0 29.1015 0 65C0 100.898 29.1015 130 65 130Z" fill="#001845"/>
        <path d="M88.4741 90.9417C77.6009 89.1295 49.7033 78.5346 43.9666 50.4718C41.097 36.874 43.8064 16.9855 43.8064 16.9855C22.5479 26.7557 9.97555 50.1401 14.8513 74.1526C20.588 102.215 48.1648 120.51 76.3916 114.807C90.9413 111.957 102.599 103.316 110.194 91.7725C106.408 93.4966 99.3473 92.7539 88.4741 90.9417Z" fill="url(#paint0_linear_6700_126516)"/>
        <path fill-rule="evenodd" clip-rule="evenodd" d="M114.628 88.6167L118.072 91.0631C118.848 91.6142 118.767 92.7907 117.923 93.2304L106.773 99.0395C105.888 99.5008 104.84 98.8102 104.915 97.8147L105.897 84.7831C105.971 83.7951 107.096 83.2669 107.904 83.8407L110.992 86.0342C118.876 68.1168 115.963 46.4624 101.852 31.1542C82.9953 10.6971 51.2241 9.25386 30.5946 27.8038C30.3331 28.0389 29.9285 28.0247 29.6902 27.7662L27.5877 25.4852C27.3494 25.2267 27.3677 24.8217 27.6289 24.5863C50.0354 4.39876 84.5746 5.95475 105.069 28.1887C120.616 45.0553 123.644 69.006 114.628 88.6167Z" fill="url(#paint1_linear_6700_126516)"/>
        <path fill-rule="evenodd" clip-rule="evenodd" d="M15.8062 40.9813L12.4001 38.4823C11.6327 37.9194 11.7317 36.7443 12.5824 36.3176L23.8202 30.6805C24.7125 30.2328 25.7495 30.9395 25.6592 31.9337L24.4774 44.9487C24.3878 45.9355 23.255 46.4463 22.4561 45.8602L19.4019 43.6194C11.2434 61.4135 13.824 83.1102 27.6976 98.6334C46.2377 119.378 77.983 121.98 98.8952 103.75C99.1602 103.519 99.5645 103.539 99.7988 103.801L101.866 106.114C102.1 106.376 102.076 106.781 101.811 107.012C79.0969 126.853 44.5857 124.095 24.4352 101.549C9.14913 84.4456 6.49028 60.4512 15.8062 40.9813Z" fill="url(#paint2_linear_6700_126516)"/>
        <path fill-rule="evenodd" clip-rule="evenodd" d="M64.7038 39.6504L85.2083 52.105V65.3012C85.2083 77.0483 77.1455 88.2196 65.7831 90.9941L64.7038 91.2577L63.6244 90.9941C52.262 88.2196 44.1992 77.0483 44.1992 65.3012V52.105L64.7038 39.6504ZM64.7038 86.574C55.5565 84.3403 48.7492 75.1399 48.7492 65.3012V54.6649L64.7038 44.974L80.6583 54.6649V65.3012C80.6583 75.1399 73.851 84.3403 64.7038 86.574Z" fill="white"/>
        <path fill-rule="evenodd" clip-rule="evenodd" d="M64.5039 44.4542L64.7045 44.3242L80.659 54.6651V65.3015C80.659 75.1274 73.8693 84.3168 64.7399 86.5655V44.4542H64.5039Z" fill="white"/>
    </g>
    <circle cx="115" cy="28" r="20" fill="#021334"/>
    <path d="M123.272 37.9786C119.31 37.3183 109.145 33.4578 107.055 23.2325C106.009 18.2778 106.997 11.031 106.997 11.031C99.2507 14.591 94.6697 23.1117 96.4462 31.8611C98.5365 42.0865 108.585 48.7524 118.87 46.6746C124.171 45.6362 128.419 42.4876 131.186 38.2813C129.807 38.9095 127.234 38.6389 123.272 37.9786Z" fill="url(#paint3_linear_6700_126516)"/>
    <g clip-path="url(#clip1_6700_126516)">
        <path d="M105.306 38.6577C103.688 38.7453 102.091 38.1632 100.756 36.999C100.179 36.4399 99.7184 35.7109 99.4134 34.875C99.1085 34.0391 98.9686 33.1216 99.0059 32.2016C99.013 31.6656 99.052 31.131 99.1227 30.6025C99.3249 29.1787 99.6127 27.4709 99.9859 25.4789C101.044 20.0492 103.774 17.3344 108.176 17.3344C109.28 17.3115 110.375 17.5735 111.396 18.1045C112.303 18.5554 113.083 19.3391 113.636 20.3553C114.195 21.4025 114.48 22.6456 114.452 23.9096C114.444 24.4356 114.405 24.9602 114.335 25.4789C114.102 27.2362 113.822 28.944 113.496 30.6025C112.952 33.3072 112.011 35.3309 110.672 36.6735C109.335 37.9963 107.547 38.6577 105.306 38.6577ZM105.633 34.3929C106.441 34.4213 107.23 34.0737 107.85 33.4157C108.536 32.6265 109.002 31.5774 109.18 30.4245C109.538 28.5693 109.81 26.9504 109.996 25.5676C110.059 25.1477 110.09 24.7213 110.089 24.294C110.089 22.497 109.35 21.5988 107.873 21.5992C107.058 21.5744 106.263 21.9211 105.633 22.5764C104.96 23.3739 104.502 24.4207 104.326 25.5676C104.046 26.8904 103.766 28.5094 103.486 30.4245C103.423 30.8342 103.391 31.2509 103.393 31.6684C103.393 33.4847 104.14 34.3929 105.633 34.3929Z" fill="#FF0420"/>
        <path d="M115.528 38.3623C115.453 38.3678 115.379 38.352 115.311 38.3162C115.242 38.2803 115.18 38.2253 115.131 38.1552C115.053 37.996 115.028 37.8044 115.061 37.6219L118.281 18.3715C118.31 18.1591 118.401 17.9684 118.536 17.8382C118.661 17.7072 118.818 17.6342 118.98 17.6311H125.187C126.648 17.5401 128.097 18.0152 129.341 18.9934C129.852 19.4185 130.267 20.0053 130.545 20.6961C130.824 21.3868 130.955 22.1577 130.927 22.9327C130.925 23.451 130.878 23.9675 130.787 24.4729C130.53 26.4683 129.688 28.2667 128.43 29.5078C127.264 30.5938 125.661 31.1367 123.623 31.1367H120.474L119.4 37.6226C119.372 37.835 119.281 38.0256 119.145 38.1558C119.02 38.2867 118.864 38.3597 118.702 38.3629L115.528 38.3623ZM123.788 27.0486C124.4 27.0657 124.998 26.8264 125.492 26.3678C125.999 25.8947 126.349 25.1974 126.472 24.4134C126.515 24.1203 126.539 23.823 126.542 23.5248C126.555 23.2839 126.526 23.0423 126.458 22.817C126.389 22.5918 126.282 22.3885 126.145 22.2214C125.756 21.8564 125.273 21.6877 124.792 21.7477H121.992L121.105 27.0486H123.788Z" fill="#FF0420"/>
    </g>
    <defs>
        <linearGradient id="paint0_linear_6700_126516" x1="29.7058" y1="99.1421" x2="73.1986" y2="62.1215" gradientUnits="userSpaceOnUse">
            <stop stop-color="#E40724"/>
            <stop offset="1" stop-color="#E60724" stop-opacity="0"/>
        </linearGradient>
        <linearGradient id="paint1_linear_6700_126516" x1="111.54" y1="95.6988" x2="45.0994" y2="16.8426" gradientUnits="userSpaceOnUse">
            <stop stop-color="white"/>
            <stop offset="1" stop-color="white" stop-opacity="0"/>
        </linearGradient>
        <linearGradient id="paint2_linear_6700_126516" x1="21.0641" y1="96.3475" x2="81.7468" y2="122.115" gradientUnits="userSpaceOnUse">
            <stop stop-color="white"/>
            <stop offset="1" stop-color="white" stop-opacity="0"/>
        </linearGradient>
        <linearGradient id="paint3_linear_6700_126516" x1="101.859" y1="40.9666" x2="117.706" y2="27.4773" gradientUnits="userSpaceOnUse">
            <stop stop-color="white" stop-opacity="0.46"/>
            <stop offset="1" stop-color="white" stop-opacity="0"/>
        </linearGradient>
        <clipPath id="clip0_6700_126516">
            <rect width="130" height="130" rx="65" fill="white"/>
        </clipPath>
        <clipPath id="clip1_6700_126516">
            <rect width="32" height="32" fill="white" transform="translate(99 12)"/>
        </clipPath>
    </defs>
</svg>
