<svg width="117" height="101" viewBox="0 0 117 101" fill="none" xmlns="http://www.w3.org/2000/svg">
    <path d="M43.3607 58.4355C45.5815 60.548 45.5815 64.0146 43.3607 66.1271C41.2482 68.2396 37.7815 68.2396 35.669 66.1271C30.5956 61.0462 27.7461 54.1594 27.7461 46.9792C27.7461 39.799 30.5956 32.9123 35.669 27.8313L54.844 8.65631C59.925 3.58294 66.8117 0.733398 73.9919 0.733398C81.1721 0.733398 88.0589 3.58294 93.1398 8.65631C98.2132 13.7373 101.063 20.624 101.063 27.8042C101.063 34.9844 98.2132 41.8712 93.1398 46.9521L85.069 55.023C85.1232 50.5813 84.419 46.1396 82.9023 41.9146L85.4482 39.3146C86.9667 37.8125 88.1722 36.0242 88.9949 34.0531C89.8176 32.0819 90.2412 29.9672 90.2412 27.8313C90.2412 25.6954 89.8176 23.5807 88.9949 21.6096C88.1722 19.6385 86.9667 17.8501 85.4482 16.348C83.9461 14.8295 82.1577 13.624 80.1866 12.8012C78.2155 11.9785 76.1008 11.5549 73.9648 11.5549C71.8289 11.5549 69.7142 11.9785 67.7431 12.8012C65.772 13.624 63.9836 14.8295 62.4815 16.348L43.3607 35.4688C41.8422 36.9709 40.6367 38.7593 39.8139 40.7304C38.9912 42.7015 38.5676 44.8162 38.5676 46.9521C38.5676 49.0881 38.9912 51.2028 39.8139 53.1739C40.6367 55.145 41.8422 56.9334 43.3607 58.4355ZM58.6357 35.4688C60.7482 33.3563 64.2148 33.3563 66.3273 35.4688C71.4007 40.5498 74.2503 47.4365 74.2503 54.6167C74.2503 61.7969 71.4007 68.6837 66.3273 73.7646L47.1523 92.9396C42.0714 98.013 35.1846 100.863 28.0044 100.863C20.8242 100.863 13.9375 98.013 8.8565 92.9396C3.78314 87.8587 0.933594 80.9719 0.933594 73.7917C0.933594 66.6115 3.78314 59.7248 8.8565 54.6438L16.9273 46.573C16.8732 51.0146 17.5773 55.4563 19.094 59.7355L16.5482 62.2813C15.0297 63.7834 13.8242 65.5718 13.0014 67.5429C12.1787 69.514 11.7551 71.6287 11.7551 73.7646C11.7551 75.9006 12.1787 78.0153 13.0014 79.9864C13.8242 81.9575 15.0297 83.7459 16.5482 85.248C18.0503 86.7665 19.8386 87.972 21.8098 88.7947C23.7809 89.6174 25.8956 90.0411 28.0315 90.0411C30.1674 90.0411 32.2821 89.6174 34.2533 88.7947C36.2244 87.972 38.0127 86.7665 39.5148 85.248L58.6357 66.1271C60.1542 64.625 61.3597 62.8367 62.1824 60.8656C63.0051 58.8944 63.4288 56.7797 63.4288 54.6438C63.4288 52.5079 63.0051 50.3932 62.1824 48.4221C61.3597 46.451 60.1542 44.6626 58.6357 43.1605C58.1096 42.6675 57.6903 42.0719 57.4036 41.4104C57.1169 40.7489 56.969 40.0356 56.969 39.3146C56.969 38.5937 57.1169 37.8804 57.4036 37.2189C57.6903 36.5574 58.1096 35.9618 58.6357 35.4688Z" fill="#707A8B"/>
    <path d="M116.863 70.1532L105.308 58.5977L105.308 67.2643L85.0855 67.2643L85.0855 73.0421L105.308 73.0421L105.308 81.7088M76.4188 90.3754L96.6411 90.3754L96.6411 84.5977L76.4188 84.5977L76.4188 75.931L64.8633 87.4865L76.4188 99.0421L76.4188 90.3754Z" fill="#707A8B"/>
</svg>
