<svg width="28" height="28" viewBox="0 0 28 28" fill="none" xmlns="http://www.w3.org/2000/svg">
<path d="M16.3332 14V23.1933C16.3799 23.5433 16.2632 23.9167 15.9949 24.1617C15.887 24.2698 15.7588 24.3556 15.6176 24.4142C15.4765 24.4727 15.3252 24.5028 15.1724 24.5028C15.0196 24.5028 14.8683 24.4727 14.7272 24.4142C14.586 24.3556 14.4578 24.2698 14.3499 24.1617L12.0049 21.8167C11.8777 21.6923 11.7809 21.5401 11.7222 21.3722C11.6635 21.2042 11.6445 21.0249 11.6666 20.8483V14H11.6316L4.91158 5.39C4.72212 5.14679 4.63663 4.83847 4.67379 4.53242C4.71096 4.22637 4.86775 3.94747 5.10991 3.75667C5.33158 3.59333 5.57658 3.5 5.83324 3.5H22.1666C22.4232 3.5 22.6682 3.59333 22.8899 3.75667C23.1321 3.94747 23.2889 4.22637 23.326 4.53242C23.3632 4.83847 23.2777 5.14679 23.0882 5.39L16.3682 14H16.3332Z" fill="#E5E7EA"/>
</svg>
