<svg viewBox="0 0 24 24" fill="none" xmlns="http://www.w3.org/2000/svg">
<path d="M2 11.6C2 8.23969 2 6.55953 2.65396 5.27606C3.2292 4.14708 4.14708 3.2292 5.27606 2.65396C6.55953 2 8.23969 2 11.6 2H12.4C15.7603 2 17.4405 2 18.7239 2.65396C19.8529 3.2292 20.7708 4.14708 21.346 5.27606C22 6.55953 22 8.23969 22 11.6V12.4C22 15.7603 22 17.4405 21.346 18.7239C20.7708 19.8529 19.8529 20.7708 18.7239 21.346C17.4405 22 15.7603 22 12.4 22H11.6C8.23969 22 6.55953 22 5.27606 21.346C4.14708 20.7708 3.2292 19.8529 2.65396 18.7239C2 17.4405 2 15.7603 2 12.4V11.6Z" fill="black"/>
<path fill-rule="evenodd" clip-rule="evenodd" d="M17.7933 10.9133L15.7433 11.9239L15.7293 11.9515L17.1216 12.9621L16.38 15.2325L14.3019 16.25L15.5474 12.4638H11.1114L11.5382 11.1486H15.9742L16.5619 9.34894H5.5L7.676 7.75H17.0867L18.5 8.76751L17.7933 10.9133ZM9.90796 10.6779L8.62755 14.6234H14.8337L14.3019 16.25H6.3536L8.48761 9.62581L9.90796 10.6779Z" fill="#FCFC03"/>
</svg>
