<svg width="23" height="24" viewBox="0 0 23 24" fill="none" xmlns="http://www.w3.org/2000/svg">
<rect y="0.5" width="23" height="23" rx="11.5" fill="#0F172A"/>
<path fill-rule="evenodd" clip-rule="evenodd" d="M16.295 7.20506H7.64078V5.09998H16.295C17.4576 5.09998 18.4001 6.04245 18.4001 7.20506L16.295 7.20506L16.295 7.20506ZM16.295 7.90676H16.295V16.7949V18.9C17.4576 18.9 18.4001 17.9575 18.4001 16.7949V8.14065H16.295V7.90676ZM6.70518 16.7949L15.3595 16.7949V18.9L15.5933 18.9H6.70518C5.54258 18.9 4.6001 17.9575 4.6001 16.7949H6.70518ZM6.70518 5.09998V7.20506V15.8593H4.6001V7.20506C4.6001 6.04245 5.54258 5.09998 6.70518 5.09998Z" fill="#0497EC"/>
<path fill-rule="evenodd" clip-rule="evenodd" d="M11.6168 9.31018C11.2302 9.31018 10.9152 9.62358 10.9152 10.0102V11.1814L9.74395 11.1814C9.35735 11.1814 9.04395 11.4965 9.04395 11.8831C9.04395 12.2697 9.35735 12.5848 9.74395 12.5848H10.9152V13.7559C10.9152 14.1425 11.2302 14.4559 11.6168 14.4559C12.0034 14.4559 12.3185 14.1425 12.3185 13.7559V12.5848H13.4897C13.8763 12.5848 14.1897 12.2697 14.1897 11.8831C14.1897 11.4965 13.8763 11.1814 13.4897 11.1814L12.3185 11.1814V10.0102C12.3185 9.62358 12.0034 9.31018 11.6168 9.31018Z" fill="#0497EC"/>
</svg>
