<svg width="24" height="24" viewBox="0 0 24 24" fill="none" xmlns="http://www.w3.org/2000/svg">
<path d="M12.3569 23.5C18.7082 23.5 23.8569 18.3513 23.8569 12C23.8569 5.64872 18.7082 0.5 12.3569 0.5C6.00566 0.5 0.856934 5.64872 0.856934 12C0.856934 18.3513 6.00566 23.5 12.3569 23.5Z" fill="#0497EC"/>
<path d="M18.3715 17.763C13.2722 18.7932 8.29036 15.4882 7.25401 10.4186C6.73561 7.9621 7.268 5.50862 8.53459 3.52733C4.69417 5.29235 2.42293 9.51684 3.30375 13.8548C4.3401 18.9244 9.32195 22.2294 14.4212 21.1992C17.0497 20.6844 19.1557 19.1233 20.5277 17.0379C19.8438 17.3493 19.16 17.6086 18.3715 17.763Z" fill="#2479D6"/>
<path d="M11.7537 17.152C10.2257 16.9822 9.20828 16.0465 8.95215 14.7524C8.88065 14.3911 9.18723 14.0894 9.55552 14.0894C9.92382 14.0894 10.2077 14.3941 10.305 14.7493C10.5334 15.5834 11.2311 16.0652 12.3464 16.0652C13.7295 16.0652 14.4705 15.3243 14.4705 14.4351C14.4705 11.9159 8.98747 13.2002 8.98747 9.49551C8.98747 8.2606 10.1236 6.97629 11.7537 6.77871V5.86487C11.7537 5.55114 12.008 5.29681 12.3217 5.29681C12.6355 5.29681 12.8898 5.55114 12.8898 5.86487V6.77871C14.1941 6.98908 15.1758 7.95204 15.4382 9.17918C15.5153 9.53932 15.2092 9.84129 14.8409 9.84129C14.4727 9.84129 14.186 9.53531 14.0737 9.18454C13.8214 8.39613 13.1217 7.86543 12.297 7.86543C11.0621 7.86543 10.2718 8.70517 10.2718 9.49551C10.2718 12.0147 15.7548 10.7304 15.7548 14.4351C15.7548 15.7689 14.6681 16.9544 12.8898 17.2014V18.1152C12.8898 18.4289 12.6355 18.6832 12.3217 18.6832C12.008 18.6832 11.7537 18.4289 11.7537 18.1152V17.152Z" fill="white"/>
<path fill-rule="evenodd" clip-rule="evenodd" d="M21.2098 16.146L21.8132 16.5746C21.9492 16.6712 21.935 16.8773 21.7871 16.9544L19.8335 17.9722C19.6783 18.0531 19.4947 17.932 19.5079 17.7576L19.6799 15.4742C19.6929 15.3011 19.89 15.2086 20.0316 15.3091L20.5727 15.6934C21.9541 12.554 21.4436 8.75967 18.9711 6.07738C15.667 2.49289 10.1001 2.24001 6.4854 5.49033C6.43959 5.53152 6.36871 5.52904 6.32695 5.48374L5.95854 5.08407C5.91679 5.03877 5.91999 4.9678 5.96576 4.92656C9.89183 1.3893 15.9438 1.66194 19.5348 5.55777C22.259 8.51313 22.7895 12.7098 21.2098 16.146Z" fill="white"/>
<path fill-rule="evenodd" clip-rule="evenodd" d="M3.78203 7.87709L3.17855 7.44844C3.04259 7.35187 3.05677 7.14573 3.20465 7.06868L5.15833 6.0508C5.31346 5.96998 5.49703 6.09099 5.4839 6.26543L5.31189 8.54881C5.29885 8.72194 5.10177 8.81449 4.96022 8.71395L4.41911 8.3296C3.03766 11.4691 3.5482 15.2634 6.02066 17.9457C9.32474 21.5302 14.8917 21.783 18.5064 18.5327C18.5522 18.4915 18.6231 18.494 18.6648 18.5393L19.0332 18.939C19.075 18.9843 19.0718 19.0552 19.026 19.0965C15.1 22.6337 9.048 22.3611 5.45694 18.4653C2.73277 15.5099 2.20232 11.3133 3.78203 7.87709Z" fill="white"/>
</svg>
