<svg width="24" height="24" viewBox="0 0 24 24" fill="none" xmlns="http://www.w3.org/2000/svg">
<g clip-path="url(#clip0_1625_2877)">
<path d="M11.9287 23.5C18.28 23.5 23.4287 18.3513 23.4287 12C23.4287 5.64872 18.28 0.5 11.9287 0.5C5.57744 0.5 0.428711 5.64872 0.428711 12C0.428711 18.3513 5.57744 23.5 11.9287 23.5Z" fill="#524FFF"/>
<path d="M16.8826 17.9058C14.54 17.5153 8.52944 15.2327 7.29348 9.18654C6.67523 6.25692 7.25896 1.97194 7.25896 1.97194C2.67883 4.07692 -0.0298701 9.1151 1.0206 14.2886C2.25657 20.3347 8.19798 24.2762 14.2794 23.0476C17.4142 22.4336 19.9258 20.5719 21.5621 18.0848C20.7464 18.4562 19.2252 18.2962 16.8826 17.9058Z" fill="#8460ED"/>
<path fill-rule="evenodd" clip-rule="evenodd" d="M21.0046 16.311L21.6285 16.7541C21.769 16.854 21.7543 17.0671 21.6015 17.1467L19.5819 18.1989C19.4216 18.2824 19.2318 18.1574 19.2454 17.977L19.4232 15.6167C19.4367 15.4377 19.6404 15.342 19.7867 15.446L20.3461 15.8433C21.7741 12.5979 21.2463 8.67574 18.6905 5.90302C15.275 2.19767 9.52042 1.93627 5.78385 5.29617C5.7365 5.33875 5.66322 5.33618 5.62006 5.28936L5.23923 4.87621C5.19607 4.82938 5.19937 4.75603 5.24669 4.7134C9.30512 1.05688 15.5611 1.33871 19.2732 5.36588C22.0893 8.42088 22.6376 12.759 21.0046 16.311Z" fill="white"/>
<path fill-rule="evenodd" clip-rule="evenodd" d="M2.98952 7.76361L2.36569 7.32051C2.22515 7.22069 2.2398 7.0076 2.39268 6.92795L4.41222 5.87575C4.57258 5.7922 4.76234 5.9173 4.74876 6.09761L4.57096 8.45798C4.55748 8.63694 4.35375 8.73261 4.20743 8.62868L3.64807 8.23137C2.22005 11.4767 2.7478 15.3989 5.30362 18.1716C8.7191 21.877 14.4737 22.1384 18.2103 18.7785C18.2576 18.7359 18.3309 18.7385 18.3741 18.7853L18.7549 19.1984C18.7981 19.2453 18.7948 19.3186 18.7475 19.3612C14.689 23.0178 8.43303 22.7359 4.7209 18.7088C1.90488 15.6538 1.35655 11.3156 2.98952 7.76361Z" fill="#EEDAFF"/>
<path d="M11.8645 4.03845L11.9712 4.40121V8.52677L6.97826 12.1459L11.8645 4.03845Z" fill="#DEB5FF"/>
<path d="M11.8643 4.03845L16.7505 12.1459L11.8643 8.61129V4.03845Z" fill="white"/>
<path d="M11.8642 15.9592L11.9243 16.0325V19.7822L11.8642 19.9579L6.97507 13.0724L11.8642 15.9592Z" fill="#A795FF"/>
<path d="M11.8643 19.9579V15.9592L16.7505 13.0724L11.8643 19.9579Z" fill="#E4C2FF"/>
<path d="M13.944 11.8253V12.7961H9.82129V11.8253H13.944ZM12.4073 10.1688V14.5477H11.3621V10.1688H12.4073Z" fill="white"/>
</g>
<defs>
<clipPath id="clip0_1625_2877">
<rect x="0.428711" y="0.5" width="23" height="23" rx="11.5" fill="white"/>
</clipPath>
</defs>
</svg>
