<svg width="1920" height="1080" viewBox="0 0 1920 1080" fill="none" xmlns="http://www.w3.org/2000/svg">
<g clip-path="url(#clip0_5290_24030)">
<line x1="962.881" y1="-980.293" x2="-860.04" y2="842.628" stroke="#E3F2FD" stroke-width="2"/>
<line x1="1012.38" y1="-930.795" x2="-810.543" y2="892.126" stroke="#E3F2FD" stroke-width="2"/>
<line x1="1061.88" y1="-881.298" x2="-761.045" y2="941.623" stroke="#E3F2FD" stroke-width="2"/>
<line x1="1111.37" y1="-831.8" x2="-711.548" y2="991.121" stroke="#E3F2FD" stroke-width="2"/>
<line x1="1160.87" y1="-782.303" x2="-662.05" y2="1040.62" stroke="#E3F2FD" stroke-width="2"/>
<line x1="1210.37" y1="-732.805" x2="-612.553" y2="1090.12" stroke="#E3F2FD" stroke-width="2"/>
<line x1="1259.87" y1="-683.308" x2="-563.055" y2="1139.61" stroke="#E3F2FD" stroke-width="2"/>
<line x1="1309.36" y1="-633.81" x2="-513.558" y2="1189.11" stroke="#E3F2FD" stroke-width="2"/>
<line x1="1358.86" y1="-584.313" x2="-464.06" y2="1238.61" stroke="#E3F2FD" stroke-width="2"/>
<line x1="1408.36" y1="-534.816" x2="-414.563" y2="1288.11" stroke="#E3F2FD" stroke-width="2"/>
<line x1="1457.86" y1="-485.318" x2="-365.065" y2="1337.6" stroke="#E3F2FD" stroke-width="2"/>
<line x1="1507.35" y1="-435.82" x2="-315.568" y2="1387.1" stroke="#E3F2FD" stroke-width="2"/>
<line x1="1556.85" y1="-386.323" x2="-266.071" y2="1436.6" stroke="#E3F2FD" stroke-width="2"/>
<line x1="1606.35" y1="-336.826" x2="-216.573" y2="1486.1" stroke="#E3F2FD" stroke-width="2"/>
<line x1="1655.85" y1="-287.328" x2="-167.075" y2="1535.59" stroke="#E3F2FD" stroke-width="2"/>
<line x1="1705.34" y1="-237.83" x2="-117.578" y2="1585.09" stroke="#E3F2FD" stroke-width="2"/>
<line x1="1754.84" y1="-188.333" x2="-68.0804" y2="1634.59" stroke="#E3F2FD" stroke-width="2"/>
<line x1="1804.34" y1="-138.835" x2="-18.5828" y2="1684.09" stroke="#E3F2FD" stroke-width="2"/>
<line x1="1853.84" y1="-89.3378" x2="30.9148" y2="1733.58" stroke="#E3F2FD" stroke-width="2"/>
<line x1="1903.33" y1="-39.8403" x2="80.4123" y2="1783.08" stroke="#E3F2FD" stroke-width="2"/>
<line x1="1952.83" y1="9.65706" x2="129.91" y2="1832.58" stroke="#E3F2FD" stroke-width="2"/>
<line x1="2002.33" y1="59.1546" x2="179.407" y2="1882.08" stroke="#E3F2FD" stroke-width="2"/>
<line x1="2051.83" y1="108.652" x2="228.905" y2="1931.57" stroke="#E3F2FD" stroke-width="2"/>
<line x1="2101.32" y1="158.149" x2="278.402" y2="1981.07" stroke="#E3F2FD" stroke-width="2"/>
<line x1="2150.82" y1="207.647" x2="327.9" y2="2030.57" stroke="#E3F2FD" stroke-width="2"/>
<line x1="2200.32" y1="257.144" x2="377.397" y2="2080.07" stroke="#E3F2FD" stroke-width="2"/>
<line x1="2249.82" y1="306.642" x2="426.895" y2="2129.56" stroke="#E3F2FD" stroke-width="2"/>
<line x1="2299.31" y1="356.139" x2="476.392" y2="2179.06" stroke="#E3F2FD" stroke-width="2"/>
<line x1="2348.81" y1="405.637" x2="525.889" y2="2228.56" stroke="#E3F2FD" stroke-width="2"/>
<line x1="2398.31" y1="455.134" x2="575.387" y2="2278.06" stroke="#E3F2FD" stroke-width="2"/>
<line x1="2447.81" y1="504.632" x2="624.884" y2="2327.55" stroke="#E3F2FD" stroke-width="2"/>
<line x1="2497.3" y1="554.129" x2="674.382" y2="2377.05" stroke="#E3F2FD" stroke-width="2"/>
<line x1="-575.077" y1="558.372" x2="998.236" y2="2131.68" stroke="#E3F2FD" stroke-width="2"/>
<line x1="-525.579" y1="508.874" x2="1047.73" y2="2082.19" stroke="#E3F2FD" stroke-width="2"/>
<line x1="-476.081" y1="459.377" x2="1097.23" y2="2032.69" stroke="#E3F2FD" stroke-width="2"/>
<line x1="-426.584" y1="409.88" x2="1146.73" y2="1983.19" stroke="#E3F2FD" stroke-width="2"/>
<line x1="-377.087" y1="360.382" x2="1196.23" y2="1933.69" stroke="#E3F2FD" stroke-width="2"/>
<line x1="-327.589" y1="310.885" x2="1245.72" y2="1884.2" stroke="#E3F2FD" stroke-width="2"/>
<line x1="-278.092" y1="261.387" x2="1295.22" y2="1834.7" stroke="#E3F2FD" stroke-width="2"/>
<line x1="-228.594" y1="211.89" x2="1344.72" y2="1785.2" stroke="#E3F2FD" stroke-width="2"/>
<line x1="-179.097" y1="162.392" x2="1394.22" y2="1735.7" stroke="#E3F2FD" stroke-width="2"/>
<line x1="-129.6" y1="112.895" x2="1443.71" y2="1686.21" stroke="#E3F2FD" stroke-width="2"/>
<line x1="-80.102" y1="63.3971" x2="1493.21" y2="1636.71" stroke="#E3F2FD" stroke-width="2"/>
<line x1="-30.6044" y1="13.8998" x2="1542.71" y2="1587.21" stroke="#E3F2FD" stroke-width="2"/>
<line x1="18.8931" y1="-35.5977" x2="1592.21" y2="1537.71" stroke="#E3F2FD" stroke-width="2"/>
<line x1="68.3907" y1="-85.0953" x2="1641.7" y2="1488.22" stroke="#E3F2FD" stroke-width="2"/>
<line x1="117.888" y1="-134.593" x2="1691.2" y2="1438.72" stroke="#E3F2FD" stroke-width="2"/>
<line x1="167.386" y1="-184.09" x2="1740.7" y2="1389.22" stroke="#E3F2FD" stroke-width="2"/>
<line x1="216.883" y1="-233.588" x2="1790.2" y2="1339.72" stroke="#E3F2FD" stroke-width="2"/>
<line x1="266.38" y1="-283.085" x2="1839.69" y2="1290.23" stroke="#E3F2FD" stroke-width="2"/>
<line x1="315.878" y1="-332.583" x2="1889.19" y2="1240.73" stroke="#E3F2FD" stroke-width="2"/>
<line x1="365.376" y1="-382.08" x2="1938.69" y2="1191.23" stroke="#E3F2FD" stroke-width="2"/>
<line x1="414.873" y1="-431.577" x2="1988.19" y2="1141.74" stroke="#E3F2FD" stroke-width="2"/>
<line x1="464.371" y1="-481.075" x2="2037.68" y2="1092.24" stroke="#E3F2FD" stroke-width="2"/>
<line x1="513.868" y1="-530.573" x2="2087.18" y2="1042.74" stroke="#E3F2FD" stroke-width="2"/>
<line x1="563.365" y1="-580.07" x2="2136.68" y2="993.243" stroke="#E3F2FD" stroke-width="2"/>
<line x1="612.863" y1="-629.567" x2="2186.18" y2="943.745" stroke="#E3F2FD" stroke-width="2"/>
<line x1="662.36" y1="-679.065" x2="2235.67" y2="894.248" stroke="#E3F2FD" stroke-width="2"/>
<line x1="711.858" y1="-728.562" x2="2285.17" y2="844.75" stroke="#E3F2FD" stroke-width="2"/>
<line x1="761.355" y1="-778.06" x2="2334.67" y2="795.253" stroke="#E3F2FD" stroke-width="2"/>
<line x1="810.853" y1="-827.557" x2="2384.17" y2="745.755" stroke="#E3F2FD" stroke-width="2"/>
<line x1="860.35" y1="-877.055" x2="2433.66" y2="696.258" stroke="#E3F2FD" stroke-width="2"/>
<line x1="909.848" y1="-926.552" x2="2483.16" y2="646.76" stroke="#E3F2FD" stroke-width="2"/>
<path d="M1652 846L1654.16 851.839L1660 854L1654.16 856.161L1652 862L1649.84 856.161L1644 854L1649.84 851.839L1652 846Z" fill="#FFFFFF"/>
<path d="M1800 402L1802.16 407.839L1808 410L1802.16 412.161L1800 418L1797.84 412.161L1792 410L1797.84 407.839L1800 402Z" fill="#FFFFFF"/>
<path d="M1553 550L1555.16 555.839L1561 558L1555.16 560.161L1553 566L1550.84 560.161L1545 558L1550.84 555.839L1553 550Z" fill="#FFFFFF"/>
<path d="M1256 729L1258.16 734.839L1264 737L1258.16 739.161L1256 745L1253.84 739.161L1248 737L1253.84 734.839L1256 729Z" fill="#FFFFFF"/>
<path d="M711 896L713.161 901.839L719 904L713.161 906.161L711 912L708.839 906.161L703 904L708.839 901.839L711 896Z" fill="#FFFFFF"/>
<path d="M1889 996L1891.16 1001.84L1897 1004L1891.16 1006.16L1889 1012L1886.84 1006.16L1881 1004L1886.84 1001.84L1889 996Z" fill="#FFFFFF"/>
<path d="M1652 136L1654.16 141.839L1660 144L1654.16 146.161L1652 152L1649.84 146.161L1644 144L1649.84 141.839L1652 136Z" fill="#FFFFFF"/>
<path d="M277 154L279.161 159.839L285 162L279.161 164.161L277 170L274.839 164.161L269 162L274.839 159.839L277 154Z" fill="#FFFFFF"/>
<path d="M810 205L812.161 210.839L818 213L812.161 215.161L810 221L807.839 215.161L802 213L807.839 210.839L810 205Z" fill="#FFFFFF"/>
<path d="M613 503L615.161 508.839L621 511L615.161 513.161L613 519L610.839 513.161L605 511L610.839 508.839L613 503Z" fill="#FFFFFF"/>
<path d="M1058 454L1060.16 459.839L1066 462L1060.16 464.161L1058 470L1055.84 464.161L1050 462L1055.84 459.839L1058 454Z" fill="#FFFFFF"/>
<path d="M1058 1044L1060.16 1049.84L1066 1052L1060.16 1054.16L1058 1060L1055.84 1054.16L1050 1052L1055.84 1049.84L1058 1044Z" fill="#FFFFFF"/>
<path d="M1008 7L1010.16 12.8393L1016 15L1010.16 17.1607L1008 23L1005.84 17.1607L1000 15L1005.84 12.8393L1008 7Z" fill="#FFFFFF"/>
<path d="M1305 105L1307.16 110.839L1313 113L1307.16 115.161L1305 121L1302.84 115.161L1297 113L1302.84 110.839L1305 105Z" fill="#FFFFFF"/>
<path d="M118 402L120.161 407.839L126 410L120.161 412.161L118 418L115.839 412.161L110 410L115.839 407.839L118 402Z" fill="#FFFFFF"/>
<path d="M295 699L297.161 704.839L303 707L297.161 709.161L295 715L292.839 709.161L287 707L292.839 704.839L295 699Z" fill="#FFFFFF"/>
<path d="M68 846L70.1607 851.839L76 854L70.1607 856.161L68 862L65.8393 856.161L60 854L65.8393 851.839L68 846Z" fill="#FFFFFF"/>
<path d="M265 1031L267.161 1036.84L273 1039L267.161 1041.16L265 1047L262.839 1041.16L257 1039L262.839 1036.84L265 1031Z" fill="#FFFFFF"/>
</g>
<defs>
<clipPath id="clip0_5290_24030">
<rect width="1920" height="1080" rx="10" fill="white"/>
</clipPath>
</defs>
</svg>
