<?xml version="1.0" encoding="UTF-8"?>
<!DOCTYPE svg PUBLIC "-//W3C//DTD SVG 1.1//EN" "http://www.w3.org/Graphics/SVG/1.1/DTD/svg11.dtd">
<svg xmlns="http://www.w3.org/2000/svg" version="1.1" width="256px" height="256px" style="shape-rendering:geometricPrecision; text-rendering:geometricPrecision; image-rendering:optimizeQuality; fill-rule:evenodd; clip-rule:evenodd" xmlns:xlink="http://www.w3.org/1999/xlink">
<g><path style="opacity:0.985" fill="#8c60e2" d="M 111.5,-0.5 C 122.167,-0.5 132.833,-0.5 143.5,-0.5C 197.548,8.7041 233.382,39.3708 251,91.5C 252.715,98.2585 254.215,104.925 255.5,111.5C 255.5,122.167 255.5,132.833 255.5,143.5C 246.296,197.548 215.629,233.382 163.5,251C 156.741,252.715 150.075,254.215 143.5,255.5C 132.833,255.5 122.167,255.5 111.5,255.5C 57.4517,246.296 21.6184,215.629 4,163.5C 2.28494,156.741 0.784944,150.075 -0.5,143.5C -0.5,132.833 -0.5,122.167 -0.5,111.5C 8.7041,57.4517 39.3708,21.6184 91.5,4C 98.2585,2.28494 104.925,0.784944 111.5,-0.5 Z"/></g>
<g><path style="opacity:1" fill="#fdfdfe" d="M 51.5,27.5 C 61.9038,36.1368 72.0704,45.1368 82,54.5C 112.845,36.8854 143.511,37.2187 174,55.5C 183.353,46.3139 192.52,36.9806 201.5,27.5C 210.119,34.6171 218.286,42.2838 226,50.5C 225.602,52.6313 224.602,54.6313 223,56.5C 214.418,64.4114 206.584,72.9114 199.5,82C 212.262,104.201 215.096,127.701 208,152.5C 205.122,159.257 201.956,165.924 198.5,172.5C 208.5,182.167 218.5,191.833 228.5,201.5C 220.514,209.986 212.348,218.319 204,226.5C 193.65,216.649 183.15,206.983 172.5,197.5C 150.267,211.027 126.6,214.193 101.5,207C 94.336,204.501 87.5027,201.334 81,197.5C 71.1789,207.104 61.3456,216.771 51.5,226.5C 42.0053,219.175 33.8386,210.842 27,201.5C 36.5127,191.321 46.0127,181.155 55.5,171C 43.1855,149.516 40.0189,126.683 46,102.5C 48.6979,94.7714 52.1979,87.438 56.5,80.5C 46.8604,71.5271 37.5271,62.1937 28.5,52.5C 36.5568,44.4466 44.2235,36.1133 51.5,27.5 Z"/></g>
<g><path style="opacity:1" fill="#8d62e3" d="M 118.5,74.5 C 148.998,72.538 169.165,85.8713 179,114.5C 182.816,147.328 168.983,168.494 137.5,178C 103.494,180.324 82.9941,164.824 76,131.5C 75.9081,101.771 90.0747,82.771 118.5,74.5 Z"/></g>
<g><path style="opacity:1" fill="#f9f7fd" d="M 128.5,135.5 C 130.06,137.156 131.06,139.156 131.5,141.5C 135.298,145.566 139.964,147.732 145.5,148C 148.927,146.204 152.094,144.037 155,141.5C 155.667,137.167 155.667,132.833 155,128.5C 151.476,125.822 147.643,123.822 143.5,122.5C 133.51,126.973 123.843,132.14 114.5,138C 110.248,137.897 106.248,136.564 102.5,134C 99.5815,132.291 96.7482,130.458 94,128.5C 93.3333,121.167 93.3333,113.833 94,106.5C 98.9161,102.957 104.083,99.7903 109.5,97C 111.5,96.3333 113.5,96.3333 115.5,97C 120.667,100.167 125.833,103.333 131,106.5C 133.02,112.252 131.187,115.919 125.5,117.5C 124.686,115.234 124.186,112.9 124,110.5C 116.824,102.943 109.324,102.61 101.5,109.5C 100.338,114.467 100.171,119.467 101,124.5C 104.999,127.927 109.499,129.761 114.5,130C 124.062,124.262 133.728,118.762 143.5,113.5C 149.877,116.773 156.043,120.44 162,124.5C 162.667,131.5 162.667,138.5 162,145.5C 156.585,149.125 151.085,152.625 145.5,156C 142.581,156.552 139.914,155.885 137.5,154C 132.9,151.785 128.734,148.952 125,145.5C 124.333,142.833 124.333,140.167 125,137.5C 126.113,136.695 127.279,136.028 128.5,135.5 Z"/></g>
<g><path style="opacity:1" fill="#d1c1f3" d="M 128.5,135.5 C 129.209,134.596 130.209,134.263 131.5,134.5C 131.5,136.833 131.5,139.167 131.5,141.5C 131.06,139.156 130.06,137.156 128.5,135.5 Z"/></g>
</svg>
