<?xml version="1.0" encoding="UTF-8"?>
<!DOCTYPE svg PUBLIC "-//W3C//DTD SVG 1.1//EN" "http://www.w3.org/Graphics/SVG/1.1/DTD/svg11.dtd">
<svg xmlns="http://www.w3.org/2000/svg" version="1.1" width="32px" height="32px" style="shape-rendering:geometricPrecision; text-rendering:geometricPrecision; image-rendering:optimizeQuality; fill-rule:evenodd; clip-rule:evenodd" xmlns:xlink="http://www.w3.org/1999/xlink">
<g><path style="opacity:0.969" fill="#26a17b" d="M 12.5,-0.5 C 14.5,-0.5 16.5,-0.5 18.5,-0.5C 25.1667,1.5 29.5,5.83333 31.5,12.5C 31.5,14.5 31.5,16.5 31.5,18.5C 29.5658,24.7665 25.5658,29.0999 19.5,31.5C 16.8333,31.5 14.1667,31.5 11.5,31.5C 5.83333,29.1667 1.83333,25.1667 -0.5,19.5C -0.5,16.8333 -0.5,14.1667 -0.5,11.5C 1.93349,5.39833 6.26682,1.39833 12.5,-0.5 Z"/></g>
<g><path style="opacity:1" fill="#f6fbf9" d="M 17.5,11.5 C 16.5489,12.9187 16.2155,14.5853 16.5,16.5C 15.5,16.5 14.5,16.5 13.5,16.5C 13.7845,14.5853 13.4511,12.9187 12.5,11.5C 10.8333,11.5 9.16667,11.5 7.5,11.5C 7.5,10.1667 7.5,8.83333 7.5,7.5C 12.5,7.5 17.5,7.5 22.5,7.5C 22.5,8.83333 22.5,10.1667 22.5,11.5C 20.8333,11.5 19.1667,11.5 17.5,11.5 Z"/></g>
<g><path style="opacity:1" fill="#26a17b" d="M 7.5,14.5 C 14.1667,15.1667 14.1667,15.8333 7.5,16.5C 7.5,15.8333 7.5,15.1667 7.5,14.5 Z"/></g>
<g><path style="opacity:1" fill="#26a17b" d="M 22.5,14.5 C 22.5,15.1667 22.5,15.8333 22.5,16.5C 15.8333,15.8333 15.8333,15.1667 22.5,14.5 Z"/></g>
<g><path style="opacity:1" fill="#9ad3c1" d="M 7.5,14.5 C 7.5,15.1667 7.5,15.8333 7.5,16.5C 4.83333,15.8333 4.83333,15.1667 7.5,14.5 Z"/></g>
<g><path style="opacity:1" fill="#96d1be" d="M 22.5,14.5 C 25.1667,15.1667 25.1667,15.8333 22.5,16.5C 22.5,15.8333 22.5,15.1667 22.5,14.5 Z"/></g>
<g><path style="opacity:1" fill="#91cfbb" d="M 12.5,11.5 C 13.4511,12.9187 13.7845,14.5853 13.5,16.5C 14.5,16.5 15.5,16.5 16.5,16.5C 16.2155,14.5853 16.5489,12.9187 17.5,11.5C 18.8021,13.0276 20.4687,14.0276 22.5,14.5C 15.8333,15.1667 15.8333,15.8333 22.5,16.5C 21.0813,17.4511 19.4147,17.7845 17.5,17.5C 17.5,20.1667 17.5,22.8333 17.5,25.5C 15.901,25.7678 14.5676,25.4345 13.5,24.5C 14.5,24.5 15.5,24.5 16.5,24.5C 16.5,22.1667 16.5,19.8333 16.5,17.5C 15.5,17.5 14.5,17.5 13.5,17.5C 11.2646,17.7947 9.26465,17.4614 7.5,16.5C 14.1667,15.8333 14.1667,15.1667 7.5,14.5C 9.53125,14.0276 11.1979,13.0276 12.5,11.5 Z"/></g>
<g><path style="opacity:1" fill="#fefffe" d="M 13.5,17.5 C 14.5,17.5 15.5,17.5 16.5,17.5C 16.5,19.8333 16.5,22.1667 16.5,24.5C 15.5,24.5 14.5,24.5 13.5,24.5C 13.5,22.1667 13.5,19.8333 13.5,17.5 Z"/></g>
</svg>
