<?xml version="1.0" encoding="UTF-8"?>
<!DOCTYPE svg PUBLIC "-//W3C//DTD SVG 1.1//EN" "http://www.w3.org/Graphics/SVG/1.1/DTD/svg11.dtd">
<svg xmlns="http://www.w3.org/2000/svg" version="1.1" viewBox="0 0 264 324" style="shape-rendering:geometricPrecision; text-rendering:geometricPrecision; image-rendering:optimizeQuality; fill-rule:evenodd; clip-rule:evenodd" xmlns:xlink="http://www.w3.org/1999/xlink">
<g><path style="opacity:0.99" fill="#0c0d1d" d="M 238.5,-0.5 C 244.5,-0.5 250.5,-0.5 256.5,-0.5C 259.55,1.54906 261.883,4.21573 263.5,7.5C 263.5,10.8333 263.5,14.1667 263.5,17.5C 261.167,20.5 258.5,23.1667 255.5,25.5C 198.876,33.9842 144.21,49.4842 91.5,72C 70.1874,81.648 50.1874,93.3146 31.5,107C 18.6888,116.629 8.6888,128.463 1.5,142.5C 1.01131,141.005 0.344644,139.671 -0.5,138.5C -0.5,132.833 -0.5,127.167 -0.5,121.5C 4.34581,107.674 12.3458,95.841 23.5,86C 43.9969,69.573 66.3302,55.9063 90.5,45C 138.5,25.1718 187.834,10.0051 238.5,-0.5 Z"/></g>
<g><path style="opacity:0.996" fill="#0633fd" d="M 255.5,25.5 C 258.907,27.9033 261.574,30.9033 263.5,34.5C 263.5,37.5 263.5,40.5 263.5,43.5C 261.5,47.5 258.5,50.5 254.5,52.5C 185.532,62.5452 120.198,83.7119 58.5,116C 41.6152,125.542 26.4485,137.375 13,151.5C 8.89268,157.395 5.05935,163.395 1.5,169.5C 1.01131,168.005 0.344644,166.671 -0.5,165.5C -0.5,159.833 -0.5,154.167 -0.5,148.5C 0.738379,146.786 1.40505,144.786 1.5,142.5C 8.6888,128.463 18.6888,116.629 31.5,107C 50.1874,93.3146 70.1874,81.648 91.5,72C 144.21,49.4842 198.876,33.9842 255.5,25.5 Z"/></g>
<g><path style="opacity:0.996" fill="#9bacfe" d="M 254.5,52.5 C 258.553,54.553 261.553,57.553 263.5,61.5C 263.5,64.5 263.5,67.5 263.5,70.5C 261.5,74.5 258.5,77.5 254.5,79.5C 196.441,88.3525 140.441,104.519 86.5,128C 65.515,138.015 45.8483,150.015 27.5,164C 16.5303,173.17 7.86366,184.003 1.5,196.5C 1.01131,195.005 0.344644,193.671 -0.5,192.5C -0.5,186.833 -0.5,181.167 -0.5,175.5C 0.458201,173.698 1.12487,171.698 1.5,169.5C 5.05935,163.395 8.89268,157.395 13,151.5C 26.4485,137.375 41.6152,125.542 58.5,116C 120.198,83.7119 185.532,62.5452 254.5,52.5 Z"/></g>
<g><path style="opacity:0.998" fill="#f4f1e5" d="M 254.5,79.5 C 258.47,81.1399 261.47,83.8065 263.5,87.5C 263.5,90.8333 263.5,94.1667 263.5,97.5C 261.413,101.922 258.08,104.922 253.5,106.5C 196.518,115.326 141.518,131.159 88.5,154C 62.2393,165.957 38.4059,181.457 17,200.5C 10.8193,207.542 5.65267,215.209 1.5,223.5C 1.01131,222.005 0.344644,220.671 -0.5,219.5C -0.5,213.833 -0.5,208.167 -0.5,202.5C 0.458201,200.698 1.12487,198.698 1.5,196.5C 7.86366,184.003 16.5303,173.17 27.5,164C 45.8483,150.015 65.515,138.015 86.5,128C 140.441,104.519 196.441,88.3525 254.5,79.5 Z"/></g>
<g><path style="opacity:0.975" fill="#fe1301" d="M 253.5,106.5 C 258.359,107.367 261.692,110.034 263.5,114.5C 263.5,117.833 263.5,121.167 263.5,124.5C 262.079,127.758 259.746,130.258 256.5,132C 206.056,141.526 157.056,155.859 109.5,175C 105.598,176.565 101.931,178.398 98.5,180.5C 90.1519,182.842 82.4853,186.508 75.5,191.5C 73.4632,192.846 71.4632,194.18 69.5,195.5C 64.2301,197.803 59.2301,200.636 54.5,204C 52.2342,205.426 50.5676,207.26 49.5,209.5C 48.8333,209.833 48.1667,210.167 47.5,210.5C 41.5212,214.479 36.5212,219.479 32.5,225.5C 25.0589,233.621 24.5589,242.288 31,251.5C 33.0865,254.094 35.5865,256.094 38.5,257.5C 38.5,258.167 38.8333,258.5 39.5,258.5C 39.8417,259.338 40.5084,259.672 41.5,259.5C 46.3731,263.858 51.7064,267.691 57.5,271C 91.8931,287.268 127.893,298.601 165.5,305C 192.363,309.688 219.363,313.355 246.5,316C 249.664,317.83 250.331,320.33 248.5,323.5C 240.167,323.5 231.833,323.5 223.5,323.5C 175.601,320.462 128.268,312.962 81.5,301C 59.1845,295.125 38.5179,285.792 19.5,273C 10.3135,265.992 3.6468,257.158 -0.5,246.5C -0.5,240.833 -0.5,235.167 -0.5,229.5C 0.458201,227.698 1.12487,225.698 1.5,223.5C 5.65267,215.209 10.8193,207.542 17,200.5C 38.4059,181.457 62.2393,165.957 88.5,154C 141.518,131.159 196.518,115.326 253.5,106.5 Z"/></g>
<g><path style="opacity:0.966" fill="#0d0d1c" d="M 98.5,180.5 C 146.392,195.261 195.392,204.428 245.5,208C 249.486,209.943 250.153,212.61 247.5,216C 189.081,215.306 131.748,207.139 75.5,191.5C 82.4853,186.508 90.1519,182.842 98.5,180.5 Z"/></g>
<g><path style="opacity:0.931" fill="#0833fe" d="M 69.5,195.5 C 90.5317,205.436 112.532,212.936 135.5,218C 172.115,226.158 209.115,231.825 246.5,235C 249.737,237.419 250.07,240.085 247.5,243C 193.399,241.915 140.066,234.915 87.5,222C 74.7109,218.126 62.0442,213.959 49.5,209.5C 50.5676,207.26 52.2342,205.426 54.5,204C 59.2301,200.636 64.2301,197.803 69.5,195.5 Z"/></g>
<g><path style="opacity:0.941" fill="#9cacfe" d="M 47.5,210.5 C 55.5094,216.304 64.1761,221.137 73.5,225C 106.451,238.072 140.451,247.405 175.5,253C 199.073,256.73 222.74,259.73 246.5,262C 249.737,264.419 250.07,267.085 247.5,270C 192.336,268.871 138.003,261.537 84.5,248C 69.1419,243.382 54.1419,237.882 39.5,231.5C 39.5,230.833 39.1667,230.5 38.5,230.5C 36.0905,229.299 34.0905,227.633 32.5,225.5C 36.5212,219.479 41.5212,214.479 47.5,210.5 Z"/></g>
<g><path style="opacity:0.968" fill="#f4f2e5" d="M 32.5,225.5 C 34.0905,227.633 36.0905,229.299 38.5,230.5C 39.1667,230.5 39.5,230.833 39.5,231.5C 49.2042,239.328 59.8709,245.828 71.5,251C 103.458,263.907 136.458,273.24 170.5,279C 195.717,283.209 221.05,286.543 246.5,289C 249.631,291.239 249.964,293.739 247.5,296.5C 193.786,295.697 140.786,288.864 88.5,276C 72.4816,271.383 56.8149,265.883 41.5,259.5C 41.1583,258.662 40.4916,258.328 39.5,258.5C 38.8333,258.5 38.5,258.167 38.5,257.5C 35.5865,256.094 33.0865,254.094 31,251.5C 24.5589,242.288 25.0589,233.621 32.5,225.5 Z"/></g>
</svg>
