<svg xmlns="http://www.w3.org/2000/svg" viewBox="0 0 400 400" style="shape-rendering:geometricPrecision;text-rendering:geometricPrecision;image-rendering:optimizeQuality;fill-rule:evenodd;clip-rule:evenodd"><path style="opacity:.999" fill="#90d7fd" d="M180.5-.5h38c3.521.807 7.188 1.474 11 2-3.708.658-7.041 2.325-10 5a10.311 10.311 0 0 1-3-1c-1.196.346-1.196.846 0 1.5l-2 .5c-2.187-.572-4.521-.572-7 0v3c-1.701.466-3.201.466-4.5 0-.359 3.044-1.026 3.378-2 1-1.617 1.036-1.784 2.203-.5 3.5-2.143 1.54-4.31 1.706-6.5.5a42.16 42.16 0 0 0-9 6c-1.666-.84-1.833-.34-.5 1.5-3.43.198-6.93.031-10.5-.5-3.475 1.716-3.975 3.883-1.5 6.5-.753 1.487-1.586 1.654-2.5.5a4.458 4.458 0 0 1-1.5 2c.204-1.03-.296-2.03-1.5-3a30.318 30.318 0 0 0-8 5l-3-1c-3.153 2.74-7.32 4.407-12.5 5a8.43 8.43 0 0 1-.5 4l-1-1c-2.721 2.506-5.388 3.173-8 2a30.107 30.107 0 0 1-7.5 4.5c2.777 2.173 2.61 2.673-.5 1.5-1.309 2.391-2.309 2.391-3 0-.98 1.76-1.647 3.426-2 5-1.016-1.134-1.683-.8-2 1a7.292 7.292 0 0 0-2-3c-.5 1.167-1.333 2-2.5 2.5l2 1c-1.284.684-2.451.517-3.5-.5a7.292 7.292 0 0 0-2 3l-1-1c-1.079 1.894-2.413 2.227-4 1-.317 1.8-.984 2.134-2 1a9.465 9.465 0 0 1-2.5 1.5c.705 1.556.039 2.723-2 3.5-1-1.333-2-1.333-3 0a4.452 4.452 0 0 1-1.5-2c-.085 1.585-.251 2.918-.5 4-1.383-2.576-2.217-2.242-2.5 1-.805-2.401-1.638-2.234-2.5.5-4.3.82-8.3 2.32-12 4.5-1.602-1.05-2.435-.383-2.5 2-1.324 1.38-2.657 1.713-4 1a25.709 25.709 0 0 1-7.5 3.5v3c-.95.617-1.782.45-2.5-.5-.852 1.625-1.852 1.958-3 1-.605 1.981-1.605 2.315-3 1-.317 1.8-.984 2.134-2 1-1.113 1.26-1.28 2.427-.5 3.5-2.249.863-4.082.363-5.5-1.5-2.853 7.562-5.02 7.562-6.5 0-2.825-.42-4.991.58-6.5 3a43.648 43.648 0 0 1-8 13 111.066 111.066 0 0 1-7 16c-.383-.556-.883-.889-1.5-1 6.665-15.349 15.332-29.35 26-42 1.71-1.7 3.71-3.033 6-4a4.452 4.452 0 0 1 1.5 2c1.584-1.361 3.418-2.028 5.5-2a51.639 51.639 0 0 0 1-7 8.434 8.434 0 0 0 4-.5c-.165-1.117-.498-2.284-1-3.5.774-1.211 1.607-1.211 2.5 0-.617-1.595-.284-2.928 1-4a14.754 14.754 0 0 0 4.5 3c-1.933 2.68-3.433 5.347-4.5 8 .918-2.132 2.251-2.799 4-2 .667-4 1.333-4 2 0 1.202-2.053 1.536-4.053 1-6 1.243.836 2.41.503 3.5-1-.59-1.299-1.59-2.132-3-2.5a6.975 6.975 0 0 0 2.5-3.5c3.356-.33 5.689-1.997 7-5 .414.457.914.79 1.5 1 1.211-.774 1.211-1.607 0-2.5a7.291 7.291 0 0 0 3-2c.95-.617 1.782-.45 2.5.5.46-2.214-.207-2.88-2-2-.684-1.284-.517-2.45.5-3.5a40.778 40.778 0 0 1 5.5-2.5c1.892.277 3.225 1.277 4 3 4.339-3.77 9.006-6.436 14-8l1 1c3.209-1.715 6.709-2.882 10.5-3.5 2.156-3.093 4.822-5.593 8-7.5 3.164-.817 5.997-2.15 8.5-4 3.333-1.333 6.667-1.333 10 0 1.413-1.914 3.247-3.247 5.5-4a4.458 4.458 0 0 1 1.5 2c2.093-3.555 4.593-4.221 7.5-2 1.041-2.491 1.874-2.491 2.5 0a9.457 9.457 0 0 1 1.5-2.5l9-1c-1.369-2.837-3.369-3.337-6-1.5a33.702 33.702 0 0 1-7-2 197.797 197.797 0 0 1 15-5c1.291.237 2.291-.096 3-1z"/><path style="opacity:1" fill="#89d1fd" d="M229.5 1.5a160.67 160.67 0 0 1 39 10c-1.419.951-3.085 1.284-5 1a19.062 19.062 0 0 0-6 1l-2-1a6.807 6.807 0 0 1 3-1.5c-1.237-.232-2.237-.732-3-1.5-3.84-.71-8.34-1.043-13.5-1-2.096 1.215-1.929 2.049.5 2.5-3.388 1.46-7.055 2.46-11 3l1 1a28.336 28.336 0 0 0-8.5 3.5 3.646 3.646 0 0 0-1.5-1l-6 4c-1.564-.686-3.231-.52-5 .5v3c-4.031 1.173-8.031 2.34-12 3.5v3a142.47 142.47 0 0 1-16 5v3a16.868 16.868 0 0 0-8 1 40.954 40.954 0 0 1-7 5c-1.564-.686-3.231-.52-5 .5l2 1a18.437 18.437 0 0 1-6 .5v3l-8 2v3a37.816 37.816 0 0 0-7.5 3l-1-1c-6.814 5.599-14.647 9.265-23.5 11v3h-8v3l-8 2v3c-3.821-.686-6.988.314-9.5 3a119.82 119.82 0 0 0-21.5 9c-.929 1.189-1.262 2.522-1 4a36.874 36.874 0 0 0-12 1c-2.495 2.343-5.495 3.843-9 4.5l1 1c-5.644 3.662-11.81 6.162-18.5 7.5l-1.5 1c.928 1.268 1.095 2.601.5 4-1.011-.837-2.178-1.17-3.5-1 .198 2.075.365 4.075.5 6-.667 1.333-1.333 1.333-2 0a2026.472 2026.472 0 0 1-4-7c-1.933 5.066-4.433 9.732-7.5 14a110.17 110.17 0 0 0-6 17 143.17 143.17 0 0 1-4.5 16c-.383-.556-.883-.889-1.5-1 2.896-14.689 7.563-28.689 14-42 .617.111 1.117.444 1.5 1a111.066 111.066 0 0 0 7-16 43.648 43.648 0 0 0 8-13c1.509-2.42 3.675-3.42 6.5-3 1.48 7.562 3.647 7.562 6.5 0 1.418 1.863 3.251 2.363 5.5 1.5-.78-1.073-.613-2.24.5-3.5 1.016 1.134 1.683.8 2-1 1.395 1.315 2.395.981 3-1 1.148.958 2.148.625 3-1 .718.95 1.55 1.117 2.5.5v-3a25.709 25.709 0 0 0 7.5-3.5c1.343.713 2.676.38 4-1 .065-2.383.898-3.05 2.5-2 3.7-2.18 7.7-3.68 12-4.5.862-2.734 1.695-2.901 2.5-.5.283-3.242 1.117-3.576 2.5-1 .249-1.082.415-2.415.5-4a4.452 4.452 0 0 0 1.5 2c1-1.333 2-1.333 3 0 2.039-.777 2.705-1.944 2-3.5a9.465 9.465 0 0 0 2.5-1.5c1.016 1.134 1.683.8 2-1 1.587 1.227 2.921.894 4-1l1 1a7.292 7.292 0 0 1 2-3c1.049 1.017 2.216 1.184 3.5.5l-2-1c1.167-.5 2-1.333 2.5-2.5a7.292 7.292 0 0 1 2 3c.317-1.8.984-2.134 2-1 .353-1.574 1.02-3.24 2-5 .691 2.391 1.691 2.391 3 0 3.11 1.173 3.277.673.5-1.5a30.107 30.107 0 0 0 7.5-4.5c2.612 1.173 5.279.506 8-2l1 1a8.43 8.43 0 0 0 .5-4c5.18-.593 9.347-2.26 12.5-5l3 1a30.318 30.318 0 0 1 8-5c1.204.97 1.704 1.97 1.5 3a4.458 4.458 0 0 0 1.5-2c.914 1.154 1.747.987 2.5-.5-2.475-2.617-1.975-4.784 1.5-6.5 3.57.531 7.07.698 10.5.5-1.333-1.84-1.166-2.34.5-1.5a42.16 42.16 0 0 1 9-6c2.19 1.206 4.357 1.04 6.5-.5-1.284-1.297-1.117-2.464.5-3.5.974 2.378 1.641 2.044 2-1 1.299.466 2.799.466 4.5 0v-3c2.479-.572 4.813-.572 7 0l2-.5c-1.196-.654-1.196-1.154 0-1.5.946.487 1.946.82 3 1 2.959-2.675 6.292-4.342 10-5z"/><path style="opacity:1" fill="#85cdfe" d="M255.5 9.5c-2.035 2.209-4.368 4.209-7 6a7.248 7.248 0 0 1-2.5-2c-2.053 3.467-4.886 4.967-8.5 4.5l1 1c-2.418.915-4.418 2.415-6 4.5l-2-1a18.34 18.34 0 0 0-6 4c-.951-.826-1.951-.992-3-.5l1 1c-2.418.915-4.418 2.415-6 4.5l-2-1a18.34 18.34 0 0 0-6 4c-.951-.826-1.951-.992-3-.5l1 1c-2.418.915-4.418 2.415-6 4.5l-2-1a18.34 18.34 0 0 0-6 4l-2-1c-2.219 3.556-5.886 5.723-11 6.5-1.244 2.303-2.911 2.803-5 1.5-2.219 3.556-5.886 5.723-11 6.5-1.55 2.459-3.55 3.126-6 2l1 1c-2.418.915-4.418 2.415-6 4.5l-2-1a18.34 18.34 0 0 0-6 4 7.248 7.248 0 0 1-2.5-2c-.617.95-.451 1.782.5 2.5-2.418.915-4.418 2.415-6 4.5l-2-1a18.34 18.34 0 0 0-6 4l-2-1c-1.196.346-1.196.846 0 1.5-2.418.915-4.418 2.415-6 4.5l-2-1c-2.44.738-4.44 2.071-6 4-2.062-1.893-4.062-1.393-6 1.5a43.361 43.361 0 0 0-8 2c.713 1.343.38 2.676-1 4-1.244.456-2.077-.044-2.5-1.5a105.082 105.082 0 0 1-13 8l-2-2c-4.319 5.155-9.819 8.321-16.5 9.5a51.834 51.834 0 0 1-10 7c-2.098.014-3.931-.153-5.5-.5-.513 2.021-1.68 3.521-3.5 4.5a58.413 58.413 0 0 0-14 5c1.154.914.987 1.747-.5 2.5-1.016-1.134-1.683-.801-2 1l-1-2a47.507 47.507 0 0 1-4.5 5.5 56.153 56.153 0 0 0-7-.5c3.067-4.268 5.567-8.934 7.5-14 1.324 2.328 2.657 4.661 4 7 .667 1.333 1.333 1.333 2 0a237.67 237.67 0 0 0-.5-6c1.322-.17 2.489.163 3.5 1 .595-1.399.428-2.732-.5-4l1.5-1c6.69-1.338 12.856-3.838 18.5-7.5l-1-1c3.505-.657 6.505-2.157 9-4.5a36.874 36.874 0 0 1 12-1c-.262-1.478.071-2.811 1-4a119.82 119.82 0 0 1 21.5-9c2.512-2.686 5.679-3.686 9.5-3v-3l8-2v-3h8v-3c8.853-1.735 16.686-5.401 23.5-11l1 1a37.816 37.816 0 0 1 7.5-3v-3l8-2v-3a18.437 18.437 0 0 0 6-.5l-2-1c1.769-1.02 3.436-1.186 5-.5a40.954 40.954 0 0 0 7-5 16.868 16.868 0 0 1 8-1v-3a142.47 142.47 0 0 0 16-5v-3c3.969-1.16 7.969-2.327 12-3.5v-3c1.769-1.02 3.436-1.186 5-.5l6-4c.586.21 1.086.543 1.5 1a28.336 28.336 0 0 1 8.5-3.5l-1-1c3.945-.54 7.612-1.54 11-3-2.429-.451-2.596-1.285-.5-2.5 5.16-.043 9.66.29 13.5 1z"/><path style="opacity:1" fill="#82c9fd" d="M255.5 9.5c.763.768 1.763 1.268 3 1.5a6.807 6.807 0 0 0-3 1.5l2 1a19.062 19.062 0 0 1 6-1 12.642 12.642 0 0 1-2.5 4l-1-1c-.442 2.178-1.442 2.845-3 2a3841.473 3841.473 0 0 1-7 6c-1.422.705-2.755 1.038-4 1l-2-2a12.804 12.804 0 0 1-3 6 3.646 3.646 0 0 0-1.5-1c-2.502 1.68-5.002 3.346-7.5 5a4.94 4.94 0 0 0-2.5-1c-6.271 5.102-13.271 9.102-21 12l-2-2a368.912 368.912 0 0 1-14.5 10c-.423-1.456-1.256-1.956-2.5-1.5a1863.96 1863.96 0 0 0-13.5 9.5 4.458 4.458 0 0 0-1.5-2 66.317 66.317 0 0 1-14.5 9 3.646 3.646 0 0 0-1.5-1 40.954 40.954 0 0 0-7 5c-5.33 1.202-10.663 3.868-16 8-5.33 1.202-10.663 3.868-16 8a34.21 34.21 0 0 1-8 1.5c-4.21 3.936-9.377 7.436-15.5 10.5a3.646 3.646 0 0 0-1.5-1l-6 4a6.807 6.807 0 0 1-1.5-3c-1.411 2.15-2.245 4.484-2.5 7-1.322.17-2.489-.163-3.5-1-.667 2.667-1.333 2.667-2 0a134.145 134.145 0 0 0-6.5 5 6.807 6.807 0 0 1-1.5-3c-.5 1.833-1.667 3-3.5 3.5 1.167 2.833.333 3.667-2.5 2.5-.667 2.667-1.333 2.667-2 0a24.911 24.911 0 0 1-6.5 5c-1.182-2.145-2.682-2.145-4.5 0 .148 1.325-.018 2.492-.5 3.5-1.77 1.019-3.436 1.186-5 .5l-6 4c-1.468-2.032-3.135-1.865-5 .5 1.284 1.297 1.117 2.464-.5 3.5-1.43.194-2.93.194-4.5 0l-6 4c-1.183-2.145-2.683-2.145-4.5 0-.617.949-.45 1.782.5 2.5a20.176 20.176 0 0 0-6 4c1.211.893 1.211 1.726 0 2.5a6.807 6.807 0 0 1-1.5-3c-1.487.753-1.654 1.586-.5 2.5-.744 1.039-1.744 1.539-3 1.5a110.17 110.17 0 0 1 6-17c2.251.014 4.585.181 7 .5a47.507 47.507 0 0 0 4.5-5.5l1 2c.317-1.801.984-2.134 2-1 1.487-.753 1.654-1.586.5-2.5a58.413 58.413 0 0 1 14-5c1.82-.979 2.987-2.479 3.5-4.5 1.569.347 3.402.514 5.5.5a51.834 51.834 0 0 0 10-7c6.681-1.179 12.181-4.345 16.5-9.5l2 2a105.082 105.082 0 0 0 13-8c.423 1.456 1.256 1.956 2.5 1.5 1.38-1.324 1.713-2.657 1-4a43.361 43.361 0 0 1 8-2c1.938-2.893 3.938-3.393 6-1.5 1.56-1.929 3.56-3.262 6-4l2 1c1.582-2.085 3.582-3.585 6-4.5-1.196-.654-1.196-1.154 0-1.5l2 1a18.34 18.34 0 0 1 6-4l2 1c1.582-2.085 3.582-3.585 6-4.5-.951-.718-1.117-1.55-.5-2.5a7.248 7.248 0 0 0 2.5 2 18.34 18.34 0 0 1 6-4l2 1c1.582-2.085 3.582-3.585 6-4.5l-1-1c2.45 1.126 4.45.459 6-2 5.114-.777 8.781-2.944 11-6.5 2.089 1.303 3.756.803 5-1.5 5.114-.777 8.781-2.944 11-6.5l2 1a18.34 18.34 0 0 1 6-4l2 1c1.582-2.085 3.582-3.585 6-4.5l-1-1c1.049-.492 2.049-.326 3 .5a18.34 18.34 0 0 1 6-4l2 1c1.582-2.085 3.582-3.585 6-4.5l-1-1c1.049-.492 2.049-.326 3 .5a18.34 18.34 0 0 1 6-4l2 1c1.582-2.085 3.582-3.585 6-4.5l-1-1c3.614.467 6.447-1.033 8.5-4.5a7.248 7.248 0 0 0 2.5 2c2.632-1.791 4.965-3.791 7-6z"/><path style="opacity:1" fill="#80c5fb" d="M268.5 11.5c7.079 2.242 13.746 5.242 20 9-1.843.04-3.843.374-6 1-1.578-1.14-3.244-1.64-5-1.5l6 5c-1.266.31-2.433.81-3.5 1.5-.654-1.196-1.154-1.196-1.5 0a14.729 14.729 0 0 0 5 1.5c-2 .667-4 .667-6 0-1.064-4.39-3.898-6.557-8.5-6.5-3.921 2.401-6.421 5.735-7.5 10h-14c-.021 3.035-1.354 5.368-4 7h-8c-3.169 2.327-5.336 5.327-6.5 9a255.8 255.8 0 0 0-13.5 0c-.021 3.035-1.354 5.368-4 7h-8c-3.169 2.327-5.336 5.327-6.5 9-.914-1.154-1.747-.987-2.5.5 1.493 1.156 1.326 1.99-.5 2.5-1.584-.488-2.751-1.488-3.5-3-5.44 1.831-10.773 2.831-16 3v3c-4.333 1.667-7.333 4.667-9 9 2.234-.12 4.401.213 6.5 1 13.229-5.748 27.062-7.415 41.5-5a181.44 181.44 0 0 0 13 6c.798.457 1.131 1.124 1 2-22.153-10.81-43.153-8.977-63 5.5a199.465 199.465 0 0 0-19 22.5c-.111-.617-.444-1.117-1-1.5 1.556-.72 2.556-1.887 3-3.5 3.9-4.251 5.567-9.251 5-15-2.753-.998-4.753-2.832-6-5.5-2.545-.615-4.878-.115-7 1.5-3.282 2.258-5.282 5.258-6 9h-14c.054 3.45-1.613 5.617-5 6.5l1 1c-2.164.433-4.164-.067-6-1.5-3.7 2.199-6.533 5.199-8.5 9l-1-1c-1.67 2.198-3.67 2.532-6 1-11.165 2.777-19.998 8.277-26.5 16.5-1 .667-2 .667-3 0-.658-1.905-1.825-3.405-3.5-4.5-1.604.403-2.77 1.736-3.5 4a9.86 9.86 0 0 1-6 1v4c-1.644-.214-3.144.12-4.5 1l-1-2c-.667 1.333-1.333 1.333-2 0a141.933 141.933 0 0 1-10.5 9c-1.53-.029-2.696-.696-3.5-2-1.11 1.537-2.61 2.203-4.5 2v4h-6v4c-1.644.214-3.144-.12-4.5-1a163.387 163.387 0 0 0-2.5 13c-.672.767-1.505 1.434-2.5 2a100.198 100.198 0 0 1-1.5 14 135.47 135.47 0 0 0-2.5-7c-2.604 4.982-3.104 10.149-1.5 15.5a55.401 55.401 0 0 1-4 5.5c.302 2.559-.032 4.893-1 7v-17a723.95 723.95 0 0 1 4-21c.617.111 1.117.444 1.5 1a143.17 143.17 0 0 0 4.5-16c1.256.039 2.256-.461 3-1.5-1.154-.914-.987-1.747.5-2.5a6.807 6.807 0 0 0 1.5 3c1.211-.774 1.211-1.607 0-2.5a20.176 20.176 0 0 1 6-4c-.95-.718-1.117-1.551-.5-2.5 1.817-2.145 3.317-2.145 4.5 0l6-4c1.57.194 3.07.194 4.5 0 1.617-1.036 1.784-2.203.5-3.5 1.865-2.365 3.532-2.532 5-.5l6-4c1.564.686 3.23.519 5-.5.482-1.008.648-2.175.5-3.5 1.818-2.145 3.318-2.145 4.5 0a24.911 24.911 0 0 0 6.5-5c.667 2.667 1.333 2.667 2 0 2.833 1.167 3.667.333 2.5-2.5 1.833-.5 3-1.667 3.5-3.5a6.807 6.807 0 0 0 1.5 3 134.145 134.145 0 0 1 6.5-5c.667 2.667 1.333 2.667 2 0 1.011.837 2.178 1.17 3.5 1 .255-2.516 1.089-4.85 2.5-7a6.807 6.807 0 0 0 1.5 3l6-4c.586.21 1.086.543 1.5 1 6.123-3.064 11.29-6.564 15.5-10.5a34.21 34.21 0 0 0 8-1.5c5.337-4.132 10.67-6.798 16-8 5.337-4.132 10.67-6.798 16-8a40.954 40.954 0 0 1 7-5c.586.21 1.086.543 1.5 1a66.317 66.317 0 0 0 14.5-9 4.458 4.458 0 0 1 1.5 2 1863.96 1863.96 0 0 1 13.5-9.5c1.244-.456 2.077.044 2.5 1.5a368.912 368.912 0 0 0 14.5-10l2 2c7.729-2.898 14.729-6.898 21-12a4.94 4.94 0 0 1 2.5 1c2.498-1.654 4.998-3.32 7.5-5 .586.21 1.086.543 1.5 1a12.804 12.804 0 0 0 3-6l2 2c1.245.038 2.578-.295 4-1 2.341-2.002 4.675-4.002 7-6 1.558.845 2.558.178 3-2l1 1a12.642 12.642 0 0 0 2.5-4c1.915.284 3.581-.049 5-1z"/><path style="opacity:1" fill="#7ac1fc" d="M288.5 20.5c14.007 6.032 26.673 14.032 38 24-.751 1.074-1.751 1.24-3 .5-3.27-4.724-5.27-4.557-6 .5-1.122-1.13-2.456-1.797-4-2 .131-.876-.202-1.543-1-2a87.287 87.287 0 0 0-7-2.5c2.112-1.217 1.779-2.383-1-3.5-.185-5.896-2.851-7.396-8-4.5 1.196.654 1.196 1.154 0 1.5-2.8-.215-5.634-1.215-8.5-3l-3 2c-1.726-1.076-3.559-1.243-5.5-.5a7.292 7.292 0 0 0 3 2c-1.284.684-2.451.517-3.5-.5a50.737 50.737 0 0 1-12.5 8.5c-1.284.684-2.451.517-3.5-.5-4.184 4.508-9.351 7.008-15.5 7.5 1.894 1.101 2.561 2.434 2 4-2.512 1.083-5.012 2.916-7.5 5.5-.956-1.394-2.289-2.06-4-2-3.127 1.722-6.293 2.555-9.5 2.5a14.505 14.505 0 0 1-5 4c.837 1.011 1.17 2.178 1 3.5-21.657-.529-21.99 1.305-1 5.5-1.365 1.682-2.865 1.849-4.5.5-1.194 2.025-2.694 2.359-4.5 1-.798.457-1.131 1.124-1 2-14.438-2.415-28.271-.748-41.5 5a15.904 15.904 0 0 0-6.5-1c1.667-4.333 4.667-7.333 9-9v-3c5.227-.169 10.56-1.169 16-3 .749 1.512 1.916 2.512 3.5 3 1.826-.51 1.993-1.344.5-2.5.753-1.487 1.586-1.654 2.5-.5 1.164-3.673 3.331-6.673 6.5-9h8c2.646-1.632 3.979-3.965 4-7a255.8 255.8 0 0 1 13.5 0c1.164-3.673 3.331-6.673 6.5-9h8c2.646-1.632 3.979-3.965 4-7h14c1.079-4.265 3.579-7.599 7.5-10 4.602-.057 7.436 2.11 8.5 6.5 2 .667 4 .667 6 0a14.729 14.729 0 0 1-5-1.5c.346-1.196.846-1.196 1.5 0a11.357 11.357 0 0 1 3.5-1.5l-6-5c1.756-.14 3.422.36 5 1.5 2.157-.626 4.157-.96 6-1z"/><path style="opacity:1" fill="#75bdfd" d="M304.5 35.5c-1.05.405-1.05 1.071 0 2a47.324 47.324 0 0 0-10 6c-.929 1.189-1.262 2.522-1 4-2.511-.199-4.678-.532-6.5-1a33.995 33.995 0 0 1-7.5 1.5c1.141.741 1.141 1.575 0 2.5a10.255 10.255 0 0 1-4 1.5c2.378.974 2.044 1.641-1 2l1 1c-2.224 2.149-3.724 1.649-4.5-1.5-3.194.663-5.861 2.663-8 6l-1-1-1 5c-2.476.047-4.809-.286-7-1-5.156.667-9.156 2.668-12 6-1.566.56-2.899-.106-4-2a11.357 11.357 0 0 1-3.5 1.5l1 1c-3.203 2.613-6.87 5.447-11 8.5 2.793.728 4.793 2.395 6 5 3.801-1.099 4.801.234 3 4-2.353-.84-4.353-2.174-6-4 .131-.876-.202-1.543-1-2a181.44 181.44 0 0 1-13-6c-.131-.876.202-1.543 1-2 1.806 1.359 3.306 1.025 4.5-1 1.635 1.349 3.135 1.182 4.5-.5-20.99-4.195-20.657-6.029 1-5.5.17-1.322-.163-2.489-1-3.5a14.505 14.505 0 0 0 5-4c3.207.055 6.373-.778 9.5-2.5 1.711-.06 3.044.606 4 2 2.488-2.584 4.988-4.417 7.5-5.5.561-1.566-.106-2.899-2-4 6.149-.492 11.316-2.992 15.5-7.5 1.049 1.017 2.216 1.184 3.5.5a50.737 50.737 0 0 0 12.5-8.5c1.049 1.017 2.216 1.184 3.5.5a7.292 7.292 0 0 1-3-2c1.941-.743 3.774-.576 5.5.5l3-2c2.866 1.785 5.7 2.785 8.5 3 1.196-.346 1.196-.846 0-1.5 5.149-2.896 7.815-1.396 8 4.5z"/><path style="opacity:1" fill="#99dcfa" d="M177.5.5a197.797 197.797 0 0 0-15 5 33.702 33.702 0 0 0 7 2c2.631-1.837 4.631-1.337 6 1.5l-9 1a9.457 9.457 0 0 0-1.5 2.5c-.626-2.491-1.459-2.491-2.5 0-2.907-2.221-5.407-1.555-7.5 2a4.458 4.458 0 0 0-1.5-2c-2.253.753-4.087 2.086-5.5 4-3.333-1.333-6.667-1.333-10 0-2.503 1.85-5.336 3.183-8.5 4-3.178 1.907-5.844 4.407-8 7.5-3.791.618-7.291 1.785-10.5 3.5l-1-1c-4.994 1.564-9.661 4.23-14 8-.775-1.723-2.108-2.723-4-3a40.778 40.778 0 0 0-5.5 2.5c-1.017 1.05-1.184 2.216-.5 3.5 1.793-.88 2.46-.214 2 2-.718-.95-1.55-1.117-2.5-.5a7.291 7.291 0 0 1-3 2c1.211.893 1.211 1.726 0 2.5a3.646 3.646 0 0 1-1.5-1c-1.311 3.003-3.644 4.67-7 5a6.975 6.975 0 0 1-2.5 3.5c1.41.368 2.41 1.201 3 2.5-1.09 1.503-2.257 1.836-3.5 1 .536 1.947.202 3.947-1 6-.667-4-1.333-4-2 0-1.749-.799-3.082-.132-4 2 1.067-2.653 2.567-5.32 4.5-8a14.754 14.754 0 0 1-4.5-3c-1.284 1.072-1.617 2.405-1 4-.893-1.211-1.726-1.211-2.5 0 .502 1.216.835 2.383 1 3.5a8.434 8.434 0 0 1-4 .5 51.639 51.639 0 0 1-1 7c-2.082-.028-3.916.639-5.5 2a4.452 4.452 0 0 0-1.5-2c-2.29.967-4.29 2.3-6 4 34.285-42.822 78.951-67.489 134-74z"/><path style="opacity:1" fill="#6ab2fc" d="M326.5 44.5a108.475 108.475 0 0 1 18 17c-3.588 2.926-6.922 2.593-10-1a10.31 10.31 0 0 1-3 1c-3.763-2.762-7.763-3.262-12-1.5 4.006 1.9 4.006 3.233 0 4a11.339 11.339 0 0 1-1.5-3.5c-1.101 1.894-2.434 2.56-4 2a20.438 20.438 0 0 1-5.5 1.5c-.837 1.011-1.17 2.178-1 3.5-3.773-.678-6.606.656-8.5 4-2.816-1.399-5.316-.399-7.5 3-3.408.784-6.241 2.45-8.5 5-1.749-.799-3.082-.132-4 2-1.364-.758-2.531-.258-3.5 1.5-2.201.825-4.034.325-5.5-1.5a25.549 25.549 0 0 1-6.5 5.5l2 1c-2.812.182-5.479 1.349-8 3.5a4.94 4.94 0 0 1-2.5-1c-1.731 2.362-2.565 5.028-2.5 8h-3v3a125.499 125.499 0 0 0-10-13 9.86 9.86 0 0 1-1-6c2.082.028 3.916-.639 5.5-2 1.851 2.281 3.518 2.281 5 0 1.131 1.104 1.965.77 2.5-1a6.807 6.807 0 0 0-3-1.5c2.027-1.88 4.36-3.046 7-3.5-.363-2.412.637-3.912 3-4.5l-2-1c1.478-1.193 2.812-1.693 4-1.5a4.451 4.451 0 0 0-2-1.5c1.608-.658 2.775-.158 3.5 1.5 1.439-1.514 2.939-1.847 4.5-1 1.877-.56 3.877-1.727 6-3.5-1.196-.654-1.196-1.154 0-1.5 2.405 2.495 4.738 2.329 7-.5l-1-1c1.266-.31 2.433-.81 3.5-1.5 1.147.958 2.147.625 3-1 .414.457.914.79 1.5 1 1.362-1.512 1.696-3.012 1-4.5 1.499 1.241 3.165 1.741 5 1.5 1.348-1.66 2.848-3.66 4.5-6 1.503.335 2.836.335 4 0a274.762 274.762 0 0 1 4-4c1.657.984 3.323 1.984 5 3a9.465 9.465 0 0 1 2.5-1.5 32.042 32.042 0 0 0-4-2.5l.5-1a34.493 34.493 0 0 1 4.5 0c1.544.203 2.878.87 4 2 .73-5.057 2.73-5.224 6-.5 1.249.74 2.249.574 3-.5z"/><path style="opacity:1" fill="#72b7fc" d="M304.5 35.5c2.779 1.117 3.112 2.283 1 3.5a87.287 87.287 0 0 1 7 2.5c.798.457 1.131 1.124 1 2a34.493 34.493 0 0 0-4.5 0l-.5 1a32.042 32.042 0 0 1 4 2.5 9.465 9.465 0 0 0-2.5 1.5 667.507 667.507 0 0 0-5-3 274.762 274.762 0 0 0-4 4c-1.164.335-2.497.335-4 0-1.652 2.34-3.152 4.34-4.5 6-1.835.241-3.501-.259-5-1.5.696 1.488.362 2.988-1 4.5a3.646 3.646 0 0 1-1.5-1c-.853 1.625-1.853 1.958-3 1a11.357 11.357 0 0 1-3.5 1.5l1 1c-2.262 2.829-4.595 2.995-7 .5-1.196.346-1.196.846 0 1.5-2.123 1.773-4.123 2.94-6 3.5-1.561-.847-3.061-.514-4.5 1-.725-1.658-1.892-2.158-3.5-1.5a4.451 4.451 0 0 1 2 1.5c-1.188-.193-2.522.307-4 1.5l2 1c-2.363.588-3.363 2.088-3 4.5-2.64.454-4.973 1.62-7 3.5 1.124.25 2.124.75 3 1.5-.535 1.77-1.369 2.104-2.5 1-1.482 2.281-3.149 2.281-5 0-1.584 1.361-3.418 2.028-5.5 2a9.86 9.86 0 0 0 1 6 125.499 125.499 0 0 1 10 13c.31 1.238.81 1.238 1.5 0a80.457 80.457 0 0 0 4.5 10 209.107 209.107 0 0 1-12.5-16 258.565 258.565 0 0 0-9.5-9c1.801-3.766.801-5.099-3-4-1.207-2.605-3.207-4.272-6-5 4.13-3.053 7.797-5.887 11-8.5l-1-1c1.266-.31 2.433-.81 3.5-1.5 1.101 1.894 2.434 2.56 4 2 2.844-3.332 6.844-5.333 12-6 2.191.714 4.524 1.047 7 1l1-5 1 1c2.139-3.337 4.806-5.337 8-6 .776 3.149 2.276 3.649 4.5 1.5l-1-1c3.044-.359 3.378-1.026 1-2a10.255 10.255 0 0 0 4-1.5c1.141-.925 1.141-1.759 0-2.5a33.995 33.995 0 0 0 7.5-1.5c1.822.468 3.989.801 6.5 1-.262-1.478.071-2.811 1-4a47.324 47.324 0 0 1 10-6c-1.05-.929-1.05-1.595 0-2z"/><path style="opacity:1" fill="#65abfc" d="M344.5 61.5c2.719 1.72 4.719 4.053 6 7a21.59 21.59 0 0 1-7-4c-1.971 5.054-.305 8.387 5 10a3.647 3.647 0 0 1-1 1.5c-5.16.418-8.827-1.749-11-6.5a6.802 6.802 0 0 0-1.5 3l-1-2a192.348 192.348 0 0 0-10.5 8 27.902 27.902 0 0 0-8 1.5 49.605 49.605 0 0 0-11 9.5l-2-3c-9.567 6.255-19.734 11.922-30.5 17-1.049-1.607-2.549-2.273-4.5-2 .203 1.89-.463 3.39-2 4.5l-8 4c2.645.591 3.311 1.925 2 4a23.872 23.872 0 0 1 3 8.5 59.83 59.83 0 0 1-7-11 80.457 80.457 0 0 1-4.5-10c-.69 1.238-1.19 1.238-1.5 0v-3h3c-.065-2.972.769-5.638 2.5-8a4.94 4.94 0 0 0 2.5 1c2.521-2.151 5.188-3.318 8-3.5l-2-1a25.549 25.549 0 0 0 6.5-5.5c1.466 1.825 3.299 2.325 5.5 1.5.969-1.758 2.136-2.258 3.5-1.5.918-2.132 2.251-2.799 4-2 2.259-2.55 5.092-4.216 8.5-5 2.184-3.399 4.684-4.399 7.5-3 1.894-3.344 4.727-4.678 8.5-4-.17-1.322.163-2.489 1-3.5a20.438 20.438 0 0 0 5.5-1.5c1.566.56 2.899-.106 4-2a11.339 11.339 0 0 0 1.5 3.5c4.006-.767 4.006-2.1 0-4 4.237-1.762 8.237-1.262 12 1.5a10.31 10.31 0 0 0 3-1c3.078 3.593 6.412 3.926 10 1z"/><path style="opacity:1" fill="#5fa5fb" d="M350.5 68.5a88.082 88.082 0 0 1 14 17c-1.287 1.268-2.287.935-3-1-1.503 1.09-1.836 2.257-1 3.5l-1.5.5a71.07 71.07 0 0 1-7.5-6c-2.859.93-5.193 2.596-7 5-2.275-2.063-4.108-1.396-5.5 2l-1-1a29.465 29.465 0 0 1-4.5 2.5c.78 1.073.613 2.24-.5 3.5l-1-2a14.962 14.962 0 0 0-3.5 3 3.646 3.646 0 0 1-1.5-1 193.67 193.67 0 0 0-20.5 11.5c-1.284.684-2.451.517-3.5-.5-.197 2.016-1.197 4.016-3 6-1.017-2.528-2.184-2.528-3.5 0a3.647 3.647 0 0 1-1.5-1c-5.548 1.857-10.381 4.857-14.5 9-.758-1.311-1.758-1.811-3-1.5l-1 3a135.16 135.16 0 0 1-7 2.5c.346 1.196.846 1.196 1.5 0 .273 1.829 1.107 3.329 2.5 4.5l-4 1a14.748 14.748 0 0 1 3 4.5c1.225-6.258 3.225-6.591 6-1-1.074 1.385-2.407 2.551-4 3.5.837 1.011 1.17 2.178 1 3.5a157.138 157.138 0 0 1-13-17 23.872 23.872 0 0 0-3-8.5c1.311-2.075.645-3.409-2-4l8-4c1.537-1.11 2.203-2.61 2-4.5 1.951-.273 3.451.393 4.5 2 10.766-5.078 20.933-10.745 30.5-17l2 3a49.605 49.605 0 0 1 11-9.5 27.902 27.902 0 0 1 8-1.5c3.41-2.788 6.91-5.455 10.5-8l1 2a6.802 6.802 0 0 1 1.5-3c2.173 4.751 5.84 6.918 11 6.5a3.647 3.647 0 0 0 1-1.5c-5.305-1.613-6.971-4.946-5-10a21.59 21.59 0 0 0 7 4z"/><path style="opacity:1" fill="#f9fafa" d="M227.5 82.5c1.647 1.826 3.647 3.16 6 4a258.565 258.565 0 0 1 9.5 9 209.107 209.107 0 0 0 12.5 16 59.83 59.83 0 0 0 7 11 157.138 157.138 0 0 0 13 17 369.847 369.847 0 0 0 21 30 521.79 521.79 0 0 0 18 25c5.679 8.038 11.346 16.038 17 24a183.055 183.055 0 0 0 11 15c.667 0 1 .333 1 1a1326.54 1326.54 0 0 1 6 9 153.132 153.132 0 0 1 7 15 21.336 21.336 0 0 0 1 7 38.52 38.52 0 0 0-2 13c-2.322 1.302-3.655 3.302-4 6-7.429 8.206-16.429 13.539-27 16a41.73 41.73 0 0 1-9 1 291.3 291.3 0 0 1-44-2c-2.719-1.413-5.719-2.08-9-2a59.509 59.509 0 0 0-13-2 5668.541 5668.541 0 0 0-17-8 39.46 39.46 0 0 0-11-10 125.74 125.74 0 0 1-15-22 9.175 9.175 0 0 0-2-4.5c7.389-4.218 13.723-9.718 19-16.5 4.7-5.027 8.7-10.694 12-17 1.795-2.904 3.628-5.904 5.5-9a87.701 87.701 0 0 0 5.5-17v-1c.79-1.109 1.29-2.442 1.5-4 .667-7 .667-14 0-21a48.712 48.712 0 0 0-3.5-9c-14.374-25.017-35.374-33.184-63-24.5-3.398 1.357-6.398 3.19-9 5.5a10.134 10.134 0 0 0-4 1.5c-9.15 8.124-14.816 18.291-17 30.5-1.382 8.087-.882 16.087 1.5 24 .608 1.566 1.442 2.9 2.5 4 5.614 18.264 15.614 33.598 30 46 2.744 3.062 6.078 5.396 10 7-4.097 9.21-9.43 17.543-16 25-5.976 6.306-12.643 11.639-20 16-2.518.764-4.851 1.764-7 3a727.335 727.335 0 0 0-28 6c-4.342.239-8.676.573-13 1a229.403 229.403 0 0 1-40-2h-1c-10.933-3.958-19.266-10.958-25-21-1.974-7.527-2.474-15.194-1.5-23a159.996 159.996 0 0 1 11.5-21 446.475 446.475 0 0 0 30-41c3.149-3.595 6.316-7.262 9.5-11a1197.414 1197.414 0 0 1 27.5-40 430.076 430.076 0 0 0 23-32 199.465 199.465 0 0 1 19-22.5c19.847-14.477 40.847-16.31 63-5.5z"/><path style="opacity:1" fill="#599ffc" d="M364.5 85.5a72.774 72.774 0 0 1 8 14c-1.182-1.6-2.515-1.933-4-1a102.425 102.425 0 0 0-2.5-8c-.667 1.333-1.333 1.333-2 0-.221 3.443-1.221 3.776-3 1-.569 3.86-1.402 3.86-2.5 0-1.722 3.249-.722 5.082 3 5.5a15.28 15.28 0 0 0-4.5 1.5c-1.016-1.134-1.683-.8-2 1l-3-1c-.442 2.179-1.442 2.845-3 2a4.934 4.934 0 0 0-.5 3c-2.266-.359-4.099.308-5.5 2l-1-1a6.547 6.547 0 0 1-3 3l-3-1c-.442 2.179-1.442 2.845-3 2l-1 3c-1.998-.771-3.665-.105-5 2-1.016-1.134-1.683-.801-2 1l-1-1c-1.916 2.533-3.916 2.533-6 0-.442 2.179-1.442 2.845-3 2-1.077 3.874-3.244 4.707-6.5 2.5a6.802 6.802 0 0 0 3-1.5l-1-1a21.773 21.773 0 0 1-7 4.5c.971 1.204 1.971 1.704 3 1.5-4.095.768-7.428 2.768-10 6l-2-4c-2.813 1.117-3.48 2.95-2 5.5-1.527 1.368-3.027 1.868-4.5 1.5l-1 7c-1.5-2.167-3.333-4-5.5-5.5-1.077-.47-2.077-.303-3 .5-2.775-5.591-4.775-5.258-6 1a14.748 14.748 0 0 0-3-4.5l4-1c-1.393-1.171-2.227-2.671-2.5-4.5-.654 1.196-1.154 1.196-1.5 0a135.16 135.16 0 0 0 7-2.5l1-3c1.242-.311 2.242.189 3 1.5 4.119-4.143 8.952-7.143 14.5-9 .414.457.914.791 1.5 1 1.316-2.528 2.483-2.528 3.5 0 1.803-1.984 2.803-3.984 3-6 1.049 1.017 2.216 1.184 3.5.5A193.67 193.67 0 0 1 327 94.5c.414.457.914.79 1.5 1a14.962 14.962 0 0 1 3.5-3l1 2c1.113-1.26 1.28-2.427.5-3.5a29.465 29.465 0 0 0 4.5-2.5l1 1c1.392-3.396 3.225-4.063 5.5-2 1.807-2.404 4.141-4.07 7-5a71.07 71.07 0 0 0 7.5 6l1.5-.5c-.836-1.243-.503-2.41 1-3.5.713 1.935 1.713 2.268 3 1z"/><path style="opacity:1" fill="#7ac1fd" d="M147.5 105.5c-1.23-1.797-1.896-3.797-2-6a9.107 9.107 0 0 0-5 1 1785.63 1785.63 0 0 0-12 9c-2.396-2.344-4.396-1.844-6 1.5a126.4 126.4 0 0 1-14 5.5 11.38 11.38 0 0 0-2 2.5c-6.197.846-11.53 3.513-16 8l-7 1c.55 1.398.884 2.732 1 4a6.977 6.977 0 0 0-2.5 3.5c-2.167-5.167-4.667-5.333-7.5-.5l-10 4 1 1-3.5 3.5c-1.204-.971-1.704-1.971-1.5-3a11.371 11.371 0 0 0-2 2.5l-7 1c.55 1.398.884 2.732 1 4a6.977 6.977 0 0 0-2.5 3.5c-2.167-5.167-4.667-5.333-7.5-.5l-10 4 1 1-3.5 3.5c-1.204-.971-1.704-1.971-1.5-3-3.613 2.813-7.613 5.147-12 7a46.649 46.649 0 0 0-1.5 8 1139.51 1139.51 0 0 0-2.5-12c.65-4.331 1.484-8.665 2.5-13 1.356.88 2.856 1.214 4.5 1v-4h6v-4c1.89.203 3.39-.463 4.5-2 .804 1.304 1.97 1.971 3.5 2a141.933 141.933 0 0 0 10.5-9c.667 1.333 1.333 1.333 2 0l1 2c1.356-.88 2.856-1.214 4.5-1v-4a9.86 9.86 0 0 0 6-1c.73-2.264 1.896-3.597 3.5-4 1.675 1.095 2.842 2.595 3.5 4.5 1 .667 2 .667 3 0 6.502-8.223 15.335-13.723 26.5-16.5 2.33 1.532 4.33 1.198 6-1l1 1c1.967-3.801 4.8-6.801 8.5-9 1.836 1.433 3.836 1.933 6 1.5l-1-1c3.387-.883 5.054-3.05 5-6.5h14c.718-3.742 2.718-6.742 6-9 2.122-1.615 4.455-2.115 7-1.5 1.247 2.668 3.247 4.502 6 5.5.567 5.749-1.1 10.749-5 15z"/><path style="opacity:1" fill="#75bcfc" d="M147.5 105.5c-.444 1.613-1.444 2.78-3 3.5.556.383.889.883 1 1.5a430.076 430.076 0 0 1-23 32c-1.509-3.984-.175-6.318 4-7 .124-2.452 1.124-4.452 3-6-.51-1.588-1.51-2.755-3-3.5 1.711-1.133 2.211-2.633 1.5-4.5a67.638 67.638 0 0 0-5.5 5.5 6.802 6.802 0 0 1 3 1.5 10.756 10.756 0 0 0-2.5 3c-2.557-1.146-3.89-.146-4 3l-1-1c-.133 3.025-1.133 5.692-3 8-.812-3.897.354-7.063 3.5-9.5-3.304-1.042-5.471.125-6.5 3.5a8.43 8.43 0 0 1-.5-4c-2.411-.363-3.911.637-4.5 3-1.558-.845-2.558-.179-3 2-1.049-1.017-2.216-1.184-3.5-.5l2 1c-1.921.36-3.588 1.194-5 2.5-.925-1.141-1.759-1.141-2.5 0l-1-2c-1.318 1.401-2.484 3.235-3.5 5.5-2.31.497-4.643.663-7 .5v4c-2.511-.199-4.678-.532-6.5-1l-2 4c-.667-4-1.333-4-2 0l-1-1a6.977 6.977 0 0 1-3.5 2.5l2 1-4 1 2 1c-2.021.14-3.855.307-5.5.5l-1-2c-1.318 1.401-2.484 3.235-3.5 5.5-2.31.497-4.643.663-7 .5v4c-2.511-.199-4.678-.532-6.5-1l-2 4c-.667-4-1.333-4-2 0l-1-1c-2.335 1.667-4.169 3.501-5.5 5.5-1.496.507-2.663.007-3.5-1.5a11.532 11.532 0 0 1-4.5 3.5c1.333.667 1.333 1.333 0 2-2.31.497-4.643.663-7 .5v4c-1.322.17-2.489-.163-3.5-1a56.863 56.863 0 0 0-7.5 5 17.767 17.767 0 0 0-2 8c-2.218-.114-4.218-.78-6-2a55.401 55.401 0 0 0 4-5.5c-1.604-5.351-1.104-10.518 1.5-15.5a135.47 135.47 0 0 1 2.5 7 100.198 100.198 0 0 0 1.5-14c.995-.566 1.828-1.233 2.5-2 .827 3.863 1.66 7.863 2.5 12 .27-2.724.77-5.391 1.5-8 4.387-1.853 8.387-4.187 12-7-.204 1.029.296 2.029 1.5 3l3.5-3.5-1-1 10-4c2.833-4.833 5.333-4.667 7.5.5a6.977 6.977 0 0 1 2.5-3.5c-.116-1.268-.45-2.602-1-4l7-1a11.371 11.371 0 0 1 2-2.5c-.204 1.029.296 2.029 1.5 3l3.5-3.5-1-1 10-4c2.833-4.833 5.333-4.667 7.5.5a6.977 6.977 0 0 1 2.5-3.5c-.116-1.268-.45-2.602-1-4l7-1c4.47-4.487 9.803-7.154 16-8a11.38 11.38 0 0 1 2-2.5 126.4 126.4 0 0 0 14-5.5c1.604-3.344 3.604-3.844 6-1.5 4.045-3.06 8.045-6.06 12-9a9.107 9.107 0 0 1 5-1c.104 2.203.77 4.203 2 6z"/><path style="opacity:1" fill="#5298fb" d="M372.5 99.5a144.306 144.306 0 0 1 11 20c-2.388-.719-3.888-2.385-4.5-5-1.039.744-1.539 1.744-1.5 3-1.385 1.074-2.551 2.407-3.5 4a60.931 60.931 0 0 1-.5-11h-4c-.237 2.712-.237 5.212 0 7.5-1.351 1.814-2.351 1.481-3-1 .638-1.707.638-3.54 0-5.5-4.663.645-8.33 2.978-11 7a34.251 34.251 0 0 1-8 1.5l1 1c-2.321.94-4.488 2.44-6.5 4.5-.914-1.154-1.747-.987-2.5.5l1 1-12 1a17.38 17.38 0 0 1-5 6.5c-4.97 2.149-9.97 4.316-15 6.5-.498 1.158-1.331 1.991-2.5 2.5-2.465.922-4.799.922-7 0l-3 4c-2.43-.117-4.93-.784-7.5-2 .273 1.951-.393 3.451-2 4.5 1.582 2.085 3.582 3.585 6 4.5 1.236 1.811 1.236 3.644 0 5.5.64 2.12 1.64 3.954 3 5.5.734 1.208 1.067 2.541 1 4a369.847 369.847 0 0 1-21-30c.17-1.322-.163-2.489-1-3.5 1.593-.949 2.926-2.115 4-3.5.923-.803 1.923-.97 3-.5 2.167 1.5 4 3.333 5.5 5.5l1-7c1.473.368 2.973-.132 4.5-1.5-1.48-2.55-.813-4.383 2-5.5l2 4c2.572-3.232 5.905-5.232 10-6-1.029.204-2.029-.296-3-1.5a21.773 21.773 0 0 0 7-4.5l1 1a6.802 6.802 0 0 1-3 1.5c3.256 2.207 5.423 1.374 6.5-2.5 1.558.845 2.558.179 3-2 2.084 2.533 4.084 2.533 6 0l1 1c.317-1.801.984-2.134 2-1 1.335-2.105 3.002-2.771 5-2l1-3c1.558.845 2.558.179 3-2l3 1a6.547 6.547 0 0 0 3-3l1 1c1.401-1.692 3.234-2.359 5.5-2a4.934 4.934 0 0 1 .5-3c1.558.845 2.558.179 3-2l3 1c.317-1.8.984-2.134 2-1a15.28 15.28 0 0 1 4.5-1.5c-3.722-.418-4.722-2.251-3-5.5 1.098 3.86 1.931 3.86 2.5 0 1.779 2.776 2.779 2.443 3-1 .667 1.333 1.333 1.333 2 0 .939 2.62 1.772 5.287 2.5 8 1.485-.933 2.818-.6 4 1z"/><path style="opacity:1" fill="#4c93fc" d="M377.5 117.5a19.22 19.22 0 0 0-1 6c-3-.333-4.333 1-4 4-5.249-1.408-9.249-.241-12 3.5-1.26 1.113-2.427 1.28-3.5.5-1.957 2.089-4.124 2.923-6.5 2.5l1 1a148.755 148.755 0 0 0-14 8.5c-1.147-.318-1.981-.984-2.5-2-2.428 2.581-4.761 4.581-7 6-2.403-.997-4.736-.664-7 1a121.995 121.995 0 0 0-9 7 3.943 3.943 0 0 0-2-1 27.038 27.038 0 0 0-7.5 4c-6.954-3.385-8.287-2.052-4 4-.84 1.235-1.84 2.235-3 3-1.36-1.546-2.36-3.38-3-5.5 1.236-1.856 1.236-3.689 0-5.5-2.418-.915-4.418-2.415-6-4.5 1.607-1.049 2.273-2.549 2-4.5 2.57 1.216 5.07 1.883 7.5 2l3-4c2.201.922 4.535.922 7 0 1.169-.509 2.002-1.342 2.5-2.5 5.03-2.184 10.03-4.351 15-6.5a17.38 17.38 0 0 0 5-6.5l12-1-1-1c.753-1.487 1.586-1.654 2.5-.5 2.012-2.06 4.179-3.56 6.5-4.5l-1-1a34.251 34.251 0 0 0 8-1.5c2.67-4.022 6.337-6.355 11-7 .638 1.96.638 3.793 0 5.5.649 2.481 1.649 2.814 3 1-.237-2.288-.237-4.788 0-7.5h4a60.931 60.931 0 0 0 .5 11c.949-1.593 2.115-2.926 3.5-4z"/><path style="opacity:1" fill="#468cfb" d="M383.5 119.5a208.633 208.633 0 0 1 13 44 289.034 289.034 0 0 1-3-6c-.896 1.006-1.562 1.006-2 0a19.372 19.372 0 0 0 1-8h-5a50.464 50.464 0 0 0-.5-10c-1.64 3.778-2.807 3.778-3.5 0h-4a4.934 4.934 0 0 1-.5 3c-1.455 1.057-3.122 1.057-5 0a22.732 22.732 0 0 0-6.5 4.5c-8.302 2.53-15.136 6.363-20.5 11.5-1.016-1.134-1.683-.801-2 1-3.435-1.184-6.602-.018-9.5 3.5-6.28.892-11.614 3.559-16 8l-4 1c1.154.914.987 1.747-.5 2.5l-1-1a12.93 12.93 0 0 0-.5 5c3-.333 4.333 1 4 4-1.322.17-2.489-.163-3.5-1l-1 3c-.667-1.333-1.333-1.333-2 0a4.934 4.934 0 0 0-.5 3c3.171-1 6.004-2.666 8.5-5l.5 2.5c-2.006 3.123-3.672 6.289-5 9.5a521.79 521.79 0 0 1-18-25c.067-1.459-.266-2.792-1-4 1.16-.765 2.16-1.765 3-3-4.287-6.052-2.954-7.385 4-4a27.038 27.038 0 0 1 7.5-4 3.943 3.943 0 0 1 2 1 121.995 121.995 0 0 1 9-7c2.264-1.664 4.597-1.997 7-1 2.239-1.419 4.572-3.419 7-6 .519 1.016 1.353 1.682 2.5 2a148.755 148.755 0 0 1 14-8.5l-1-1c2.376.423 4.543-.411 6.5-2.5 1.073.78 2.24.613 3.5-.5 2.751-3.741 6.751-4.908 12-3.5-.333-3 1-4.333 4-4a19.22 19.22 0 0 1 1-6c-.039-1.256.461-2.256 1.5-3 .612 2.615 2.112 4.281 4.5 5z"/><path style="opacity:1" fill="#63a9fa" d="M213.5 141.5c-2.182 3.18-5.016 4.514-8.5 4a30.729 30.729 0 0 0-7.5 5 9.86 9.86 0 0 1-6 1 4.934 4.934 0 0 1-.5 3l-1-1c-2.565 1.679-5.398 2.346-8.5 2 .262 1.478-.071 2.811-1 4-1.465-1.109-2.465-.609-3 1.5a140.378 140.378 0 0 0-20 6.5 24.935 24.935 0 0 1-.5 7 3.647 3.647 0 0 1-1.5 1c-2.453-6.602-3.453-6.102-3 1.5a101.792 101.792 0 0 0 3 20.5c-1.058-1.1-1.892-2.434-2.5-4-2.382-7.913-2.882-15.913-1.5-24 .958-.453 1.792-1.119 2.5-2-.707-2.343-.374-4.676 1-7a177.218 177.218 0 0 0 9-15c3.681-1.85 6.515-4.517 8.5-8a49.21 49.21 0 0 0 11-4.5c2.563-.918 4.73-.418 6.5 1.5 2.713-2.608 5.879-3.441 9.5-2.5-3.437.649-3.604 1.149-.5 1.5 3.683-.707 6.516-1.707 8.5-3 4.344.054 8.011 1.554 11 4.5-3.112.851-3.446 2.017-1 3.5l-6 2c.457.798 1.124 1.131 2 1z"/><path style="opacity:1" fill="#59a0fb" d="M244.5 156.5a48.712 48.712 0 0 1 3.5 9c.667 7 .667 14 0 21-.21 1.558-.71 2.891-1.5 4a40.914 40.914 0 0 0-.5-9c-4.163-2.687-4.663-6.021-1.5-10l2 4c.906-4.299.073-8.299-2.5-12-1.12 1.914-1.286 3.748-.5 5.5-.111 1.722-.611 1.888-1.5.5-.789-3.591-.622-7.091.5-10.5-.655-1.487-1.655-2.653-3-3.5-3.277 2.506-6.444 2.506-9.5 0-1.011.837-2.178 1.17-3.5 1v3a4.934 4.934 0 0 0-3 .5l1 1c-1.724.448-2.391 1.282-2 2.5a3.647 3.647 0 0 1-1.5-1 11.295 11.295 0 0 1-4 2c-1.533-1.195-3.033-1.195-4.5 0-4.898 5.717-11.232 10.384-19 14-1.714-1.109-2.381-.442-2 2-2.657.338-4.99-.329-7-2a18.08 18.08 0 0 0-3.5 2l-1-1c-.909 3.444-3.243 5.111-7 5a11.25 11.25 0 0 1-3.5-1l-1 1a31.147 31.147 0 0 1 2 2 20.222 20.222 0 0 1-5-1c-1.538-.047-2.538.62-3 2h-5c-.285 1.788.048 3.455 1 5a3.647 3.647 0 0 0 1.5-1c.652 3.094.318 6.094-1 9a14.698 14.698 0 0 0-3.5-3 101.792 101.792 0 0 1-3-20.5c-.453-7.602.547-8.102 3-1.5a3.647 3.647 0 0 0 1.5-1c.497-2.31.663-4.643.5-7a140.378 140.378 0 0 1 20-6.5c.535-2.109 1.535-2.609 3-1.5.929-1.189 1.262-2.522 1-4 3.102.346 5.935-.321 8.5-2l1 1a4.934 4.934 0 0 0 .5-3 9.86 9.86 0 0 0 6-1 30.729 30.729 0 0 1 7.5-5c3.484.514 6.318-.82 8.5-4a112.218 112.218 0 0 1 12.5-3c.605 1.981 1.605 2.315 3 1 .658 1.608.158 2.775-1.5 3.5 1.813-.046 3.479.12 5 .5a40.675 40.675 0 0 1 3.5 7l1-1c1.41 3.579 3.91 5.912 7.5 7z"/><path style="opacity:1" fill="#6eb4fb" d="M122.5 142.5a1197.414 1197.414 0 0 0-27.5 40 1057.264 1057.264 0 0 1-9.5 11 4.932 4.932 0 0 1 .5-3 58.317 58.317 0 0 0 7.5-10.5c-4.638-3.686-3.972-5.353 2-5-.162-5.695-2.162-6.028-6-1-1.634.494-3.3.66-5 .5-.262 1.478.071 2.811 1 4 .925 1.141 1.759 1.141 2.5 0 .453 7.329-1.38 7.662-5.5 1-1.933-1.02-3.933-1.187-6-.5l-11 8.5a27.4 27.4 0 0 1-3.5-1c-2.112 1.108-3.946 2.608-5.5 4.5-3.403.1-6.57.934-9.5 2.5l-3-1c-1.65 1.391-2.15 2.891-1.5 4.5a9.457 9.457 0 0 0-2.5 1.5 4.451 4.451 0 0 0-1.5-2 29.534 29.534 0 0 1-11 6 13.33 13.33 0 0 0-3 4.5 32.462 32.462 0 0 1-8 .5c-.17 1.322.163 2.489 1 3.5l-1.5 1.5-1-5c-1.78 1.883-1.947 3.883-.5 6-.422 3.507-1.256 6.84-2.5 10a240.96 240.96 0 0 0-3-15 234.76 234.76 0 0 0-2.5 15c-3.81.096-3.81.762 0 2-1.27.788-2.27 1.788-3 3-.722-.418-1.222-1.084-1.5-2-.012-5.288-.845-10.288-2.5-15v-15c.968-2.107 1.302-4.441 1-7 1.782 1.22 3.782 1.886 6 2a17.767 17.767 0 0 1 2-8 56.863 56.863 0 0 1 7.5-5c1.011.837 2.178 1.17 3.5 1v-4c2.357.163 4.69-.003 7-.5 1.333-.667 1.333-1.333 0-2a11.532 11.532 0 0 0 4.5-3.5c.837 1.507 2.004 2.007 3.5 1.5 1.331-1.999 3.165-3.833 5.5-5.5l1 1c.667-4 1.333-4 2 0l2-4c1.822.468 3.989.801 6.5 1v-4c2.357.163 4.69-.003 7-.5 1.016-2.265 2.182-4.099 3.5-5.5l1 2c1.645-.193 3.479-.36 5.5-.5l-2-1 4-1-2-1a6.977 6.977 0 0 0 3.5-2.5l1 1c.667-4 1.333-4 2 0l2-4c1.822.468 3.989.801 6.5 1v-4c2.357.163 4.69-.003 7-.5 1.016-2.265 2.182-4.099 3.5-5.5l1 2c.741-1.141 1.575-1.141 2.5 0 1.412-1.306 3.079-2.14 5-2.5l-2-1c1.284-.684 2.451-.517 3.5.5.442-2.179 1.442-2.845 3-2 .589-2.363 2.089-3.363 4.5-3a8.43 8.43 0 0 0 .5 4c1.029-3.375 3.196-4.542 6.5-3.5-3.146 2.437-4.312 5.603-3.5 9.5 1.867-2.308 2.867-4.975 3-8l1 1c.11-3.146 1.443-4.146 4-3a10.756 10.756 0 0 1 2.5-3 6.802 6.802 0 0 0-3-1.5 67.638 67.638 0 0 1 5.5-5.5c.711 1.867.211 3.367-1.5 4.5 1.49.745 2.49 1.912 3 3.5-1.876 1.548-2.876 3.548-3 6-4.175.682-5.509 3.016-4 7z"/><path style="opacity:1" fill="#85b2e5" d="M172.5 137.5c-1.985 3.483-4.819 6.15-8.5 8a177.218 177.218 0 0 1-9 15c-1.374 2.324-1.707 4.657-1 7-.708.881-1.542 1.547-2.5 2 2.184-12.209 7.85-22.376 17-30.5a10.134 10.134 0 0 1 4-1.5z"/><path style="opacity:1" fill="#6fa9ee" d="M244.5 156.5c-3.59-1.088-6.09-3.421-7.5-7l-1 1a40.675 40.675 0 0 0-3.5-7c-1.521-.38-3.187-.546-5-.5 1.658-.725 2.158-1.892 1.5-3.5-1.395 1.315-2.395.981-3-1a112.218 112.218 0 0 0-12.5 3c-.876.131-1.543-.202-2-1l6-2c-2.446-1.483-2.112-2.649 1-3.5-2.989-2.946-6.656-4.446-11-4.5-1.984 1.293-4.817 2.293-8.5 3-3.104-.351-2.937-.851.5-1.5-3.621-.941-6.787-.108-9.5 2.5-1.77-1.918-3.937-2.418-6.5-1.5a49.21 49.21 0 0 1-11 4.5c2.602-2.31 5.602-4.143 9-5.5 27.626-8.684 48.626-.517 63 24.5z"/><path style="opacity:1" fill="#3c82fc" d="M396.5 163.5c.92 5.802 1.92 11.469 3 17v8c-.904-.709-1.237-1.709-1-3-.969-3.484-2.969-6.317-6-8.5 1.154-.914.987-1.747-.5-2.5-.667-2-.667-4 0-6-.107 3.057 1.06 5.391 3.5 7 1.644-3.837.978-7.17-2-10 1.109-1.714.442-2.381-2-2-.17 1.322.163 2.489 1 3.5-1 .667-2 .667-3 0 1.054-1.388 1.22-2.888.5-4.5a22.981 22.981 0 0 1-2 5 54.628 54.628 0 0 1-2-7 77.01 77.01 0 0 1-5 15c-1.43-.194-2.93-.194-4.5 0-.593-4.786-2.26-5.12-5-1 1.311.758 1.811 1.758 1.5 3-1.566.561-2.899-.106-4-2-1.487.753-1.654 1.586-.5 2.5-2.201 2.405-4.201 4.238-6 5.5-1.57-.194-3.07-.194-4.5 0l1-4c-2.111 2.178-4.611 3.845-7.5 5a3.647 3.647 0 0 0 1 1.5c-1.015 2.265-2.182 4.099-3.5 5.5h-5l-1-4a31.58 31.58 0 0 0-6 5c-2.272-.74-4.272-.74-6 0a4.934 4.934 0 0 0-.5 3c-1.322-.17-2.489.163-3.5 1-.849 3.021-1.683 6.021-2.5 9-2.635-2.579-4.801-5.579-6.5-9-.816-1.323-1.983-1.989-3.5-2 1.328-3.211 2.994-6.377 5-9.5l-.5-2.5c-2.496 2.334-5.329 4-8.5 5a4.934 4.934 0 0 1 .5-3c.667-1.333 1.333-1.333 2 0l1-3c1.011.837 2.178 1.17 3.5 1 .333-3-1-4.333-4-4a12.93 12.93 0 0 1 .5-5l1 1c1.487-.753 1.654-1.586.5-2.5l4-1c4.386-4.441 9.72-7.108 16-8 2.898-3.518 6.065-4.684 9.5-3.5.317-1.801.984-2.134 2-1 5.364-5.137 12.198-8.97 20.5-11.5a22.732 22.732 0 0 1 6.5-4.5c1.878 1.057 3.545 1.057 5 0a4.934 4.934 0 0 0 .5-3h4c.693 3.778 1.86 3.778 3.5 0 .498 3.317.665 6.65.5 10h5a19.372 19.372 0 0 1-1 8c.438 1.006 1.104 1.006 2 0a289.034 289.034 0 0 0 3 6z"/><path style="opacity:1" fill="#347afb" d="M398.5 185.5a6.846 6.846 0 0 1-4-1c-.886.825-1.219 1.825-1 3-3.231.462-6.564.462-10 0v6c-6.189.839-11.856 2.839-17 6-2.284-.916-3.451.084-3.5 3-1.016-1.134-1.683-.801-2 1-1.343-.714-2.676-.38-4 1l-1-1a18.117 18.117 0 0 1-5.5 4.5c.84 1.666.34 1.833-1.5.5-2.251 2.71-4.918 3.71-8 3-.853 1.625-1.853 1.958-3 1-.974 2.378-1.641 2.044-2-1-.574 1.992-1.741 3.492-3.5 4.5l3 1-1 1c.694 3.523 2.694 6.023 6 7.5.765-1.112 1.765-1.779 3-2 .256 2.276 1.59 3.443 4 3.5-3.387.883-5.054 3.049-5 6.5a183.055 183.055 0 0 1-11-15c-.255-2.516-1.089-4.85-2.5-7a33.463 33.463 0 0 1-4.5-6c.817-2.979 1.651-5.979 2.5-9 1.011-.837 2.178-1.17 3.5-1a4.934 4.934 0 0 1 .5-3c1.728-.74 3.728-.74 6 0a31.58 31.58 0 0 1 6-5l1 4h5c1.318-1.401 2.485-3.235 3.5-5.5a3.647 3.647 0 0 1-1-1.5c2.889-1.155 5.389-2.822 7.5-5l-1 4c1.43-.194 2.93-.194 4.5 0 1.799-1.262 3.799-3.095 6-5.5-1.154-.914-.987-1.747.5-2.5 1.101 1.894 2.434 2.561 4 2 .311-1.242-.189-2.242-1.5-3 2.74-4.12 4.407-3.786 5 1 1.57-.194 3.07-.194 4.5 0a77.01 77.01 0 0 0 5-15 54.628 54.628 0 0 0 2 7 22.981 22.981 0 0 0 2-5c.72 1.612.554 3.112-.5 4.5 1 .667 2 .667 3 0-.837-1.011-1.17-2.178-1-3.5 2.442-.381 3.109.286 2 2 2.978 2.83 3.644 6.163 2 10-2.44-1.609-3.607-3.943-3.5-7-.667 2-.667 4 0 6 1.487.753 1.654 1.586.5 2.5 3.031 2.183 5.031 5.016 6 8.5z"/><path style="opacity:1" fill="#5196f8" d="M246.5 190.5v1c-.996-.086-1.829.248-2.5 1a230.672 230.672 0 0 0-5.5 14c-.773-2.69-1.106-5.69-1-9a35.15 35.15 0 0 1 2-8c-.355-1.022-1.022-1.689-2-2a98.432 98.432 0 0 0-14 .5c-1.82.2-3.153 1.034-4 2.5-9.997 5.689-14.997 14.356-15 26 6.63.59 12.964-.41 19-3-1.126 1.953-2.792 3.453-5 4.5-5.251.804-10.418.637-15.5-.5-1.628 1.462-1.795 3.128-.5 5v1a22.383 22.383 0 0 1-3-4.5 98.543 98.543 0 0 1 1-10.5c-.825-.886-1.825-1.219-3-1-.278-1.846.389-3.18 2-4l3 4a27.347 27.347 0 0 1 5-9 7.293 7.293 0 0 0-2-3c-.636 3.501-2.469 4.501-5.5 3-1.663 1.49-3.33 2.156-5 2-.667.667-.667 1.333 0 2 .654-1.196 1.154-1.196 1.5 0a99.51 99.51 0 0 1-1 14c-.547-5.741-2.213-11.074-5-16-.913-1.586-.913-3.086 0-4.5a121.962 121.962 0 0 0-8-8 171.684 171.684 0 0 0-12-1.5 31.147 31.147 0 0 0-2-2l1-1a11.25 11.25 0 0 0 3.5 1c3.757.111 6.091-1.556 7-5l1 1a18.08 18.08 0 0 1 3.5-2c2.01 1.671 4.343 2.338 7 2-.381-2.442.286-3.109 2-2 7.768-3.616 14.102-8.283 19-14 1.467-1.195 2.967-1.195 4.5 0a11.295 11.295 0 0 0 4-2c.414.457.914.791 1.5 1-.391-1.218.276-2.052 2-2.5l-1-1a4.934 4.934 0 0 1 3-.5v-3c1.322.17 2.489-.163 3.5-1 3.056 2.506 6.223 2.506 9.5 0 1.345.847 2.345 2.013 3 3.5-1.122 3.409-1.289 6.909-.5 10.5.889 1.388 1.389 1.222 1.5-.5-.786-1.752-.62-3.586.5-5.5 2.573 3.701 3.406 7.701 2.5 12l-2-4c-3.163 3.979-2.663 7.313 1.5 10 .498 2.982.665 5.982.5 9z"/><path style="opacity:1" fill="#2f74fb" d="M398.5 185.5c-.237 1.291.096 2.291 1 3v30a94.873 94.873 0 0 0-2 10c-.574-2.288-1.574-4.455-3-6.5 3.971-4.127 4.971-8.961 3-14.5-.925 1.141-1.759 1.141-2.5 0-.626 2.491-1.459 2.491-2.5 0a6.802 6.802 0 0 0-1.5 3c-4.45-4.526-9.45-5.193-15-2-2.778-1.185-4.278-.185-4.5 3a186.05 186.05 0 0 0-7.5-2c-1.487.753-1.654 1.586-.5 2.5-4.305 1.705-6.805 4.871-7.5 9.5-1.879-1.695-4.046-3.028-6.5-4-.506 1.324-1.839 1.991-4 2-.027 1.699-.694 3.033-2 4-1.235.221-2.235.888-3 2-3.306-1.477-5.306-3.977-6-7.5l1-1-3-1c1.759-1.008 2.926-2.508 3.5-4.5.359 3.044 1.026 3.378 2 1 1.147.958 2.147.625 3-1 3.082.71 5.749-.29 8-3 1.84 1.333 2.34 1.166 1.5-.5a18.117 18.117 0 0 0 5.5-4.5l1 1c1.324-1.38 2.657-1.714 4-1 .317-1.801.984-2.134 2-1 .049-2.916 1.216-3.916 3.5-3 5.144-3.161 10.811-5.161 17-6v-6c3.436.462 6.769.462 10 0-.219-1.175.114-2.175 1-3a6.846 6.846 0 0 0 4 1z"/><path style="opacity:1" fill="#a8cdf3" d="M237.5 187.5c.295 2.235-.039 4.235-1 6v-5a50.842 50.842 0 0 0-17 2c.847-1.466 2.18-2.3 4-2.5a98.432 98.432 0 0 1 14-.5z"/><path style="opacity:1" fill="#6ca0e8" d="M170.5 186.5c4.009.358 8.009.858 12 1.5a121.962 121.962 0 0 1 8 8c-.913 1.414-.913 2.914 0 4.5-6.809-9.716-16.142-14.05-28-13 .462-1.38 1.462-2.047 3-2 1.635.546 3.301.88 5 1z"/><path style="opacity:1" fill="#f4f9fa" d="M162.5 187.5c11.858-1.05 21.191 3.284 28 13 2.787 4.926 4.453 10.259 5 16-2.787.977-5.787 1.31-9 1-15.543-3.666-23.543-13.666-24-30z"/><path style="opacity:1" fill="#63a8fb" d="M85.5 193.5a446.475 446.475 0 0 1-30 41c1.474-4.256 3.974-7.922 7.5-11 1.085-8.951-1.748-10.284-8.5-4l-2 4c-3.08-1.605-5.58-.938-7.5 2-1.05-1.017-2.216-1.184-3.5-.5l2 1c-2.82.068-4.986 1.234-6.5 3.5-.914-1.154-1.747-.987-2.5.5 1.206 1.018.873 1.518-1 1.5a7.292 7.292 0 0 1-3-2 23.625 23.625 0 0 0-1 3.5 56.634 56.634 0 0 1-7 2.5c-1 1.667-2.333 3-4 4a3.647 3.647 0 0 1-1.5-1c-.85 3.112-2.017 3.446-3.5 1l2-1c-1.63-3.078-2.463-6.411-2.5-10a6.544 6.544 0 0 1-3 3l-.5 4a692.25 692.25 0 0 1 2 8 4.934 4.934 0 0 0-3 .5c.408 3.479.742 6.979 1 10.5a32.042 32.042 0 0 1 2.5-4l.5 2c-1.549 2.402-2.216 5.068-2 8a11.449 11.449 0 0 0-3-5c-2.459-9.01-3.792-18.01-4-27 .73-1.212 1.73-2.212 3-3-3.81-1.238-3.81-1.904 0-2a234.76 234.76 0 0 1 2.5-15 240.96 240.96 0 0 1 3 15c1.244-3.16 2.078-6.493 2.5-10-1.447-2.117-1.28-4.117.5-6l1 5 1.5-1.5c-.837-1.011-1.17-2.178-1-3.5a32.462 32.462 0 0 0 8-.5 13.33 13.33 0 0 1 3-4.5 29.534 29.534 0 0 0 11-6 4.451 4.451 0 0 1 1.5 2 9.457 9.457 0 0 1 2.5-1.5c-.65-1.609-.15-3.109 1.5-4.5l3 1c2.93-1.566 6.097-2.4 9.5-2.5 1.554-1.892 3.388-3.392 5.5-4.5a27.4 27.4 0 0 0 3.5 1l11-8.5c2.067-.687 4.067-.52 6 .5 4.12 6.662 5.953 6.329 5.5-1-.741 1.141-1.575 1.141-2.5 0-.929-1.189-1.262-2.522-1-4 1.7.16 3.366-.006 5-.5 3.838-5.028 5.838-4.695 6 1-5.972-.353-6.638 1.314-2 5a58.317 58.317 0 0 1-7.5 10.5 4.932 4.932 0 0 0-.5 3z"/><path style="opacity:1" fill="#6299e8" d="M162.5 187.5c.457 16.334 8.457 26.334 24 30-4.194-.05-8.194-.883-12-2.5-.906-3.184-2.739-4.017-5.5-2.5a22.112 22.112 0 0 1-4.5-7c-1.196 1.059-1.863 2.393-2 4 5.142 12.352 12.475 22.352 22 30a6.846 6.846 0 0 1 1 4c-14.386-12.402-24.386-27.736-30-46 1.294.79 2.461 1.79 3.5 3 1.318-2.906 1.652-5.906 1-9a3.647 3.647 0 0 1-1.5 1c-.952-1.545-1.285-3.212-1-5h5z"/><path style="opacity:1" fill="#548ee7" d="M237.5 187.5c.978.311 1.645.978 2 2a35.15 35.15 0 0 0-2 8c-.106 3.31.227 6.31 1 9a230.672 230.672 0 0 1 5.5-14c.671-.752 1.504-1.086 2.5-1a87.701 87.701 0 0 1-5.5 17 1077.292 1077.292 0 0 1-5.5 9c-.281-2.463-1.281-4.63-3-6.5 3.96-.562 4.793-2.395 2.5-5.5-2.828 3.675-6.328 6.342-10.5 8 6.863-4.881 10.863-11.548 12-20 .961-1.765 1.295-3.765 1-6z"/><path style="opacity:1" fill="#4f84df" d="M314.5 194.5c1.517.011 2.684.677 3.5 2 1.699 3.421 3.865 6.421 6.5 9a33.463 33.463 0 0 0 4.5 6c1.411 2.15 2.245 4.484 2.5 7a12254.492 12254.492 0 0 1-17-24z"/><path style="opacity:1" fill="#f7fafb" d="M236.5 193.5c-1.137 8.452-5.137 15.119-12 20h-1c-6.036 2.59-12.37 3.59-19 3 .003-11.644 5.003-20.311 15-26a50.842 50.842 0 0 1 17-2v5z"/><path style="opacity:1" fill="#266cf9" d="M397.5 228.5c-1.456 12.493-4.456 24.493-9 36a41.73 41.73 0 0 0-1-9c1.597-1.237 2.763-2.904 3.5-5a62.744 62.744 0 0 1 1.5-11c1.979-3.093 2.812-6.426 2.5-10-.974 2.378-1.641 2.044-2-1-.667 2.667-1.333 2.667-2 0-1.262 3.813-1.929 7.813-2 12-.879-2.396-1.546-4.729-2-7-.718.951-1.551 1.117-2.5.5 1.333-1.84 1.166-2.34-.5-1.5l-2-2c-1.333 2.667-3.333 4.667-6 6a4.457 4.457 0 0 0-1.5-2l-4 3a23.577 23.577 0 0 0-1 3.5c-1.608.658-2.775.158-3.5-1.5-1.333 2.667-2.667 2.667-4 0-.5 1.167-1.333 2-2.5 2.5 1.68.347 2.68 1.347 3 3l-2 5c.909 1.789 1.076 3.623.5 5.5-1.372 1.41-2.205 3.077-2.5 5l-2-2a153.132 153.132 0 0 0-7-15 8.43 8.43 0 0 0-.5-4c-1.076-2.579-2.909-4.246-5.5-5 0-.667-.333-1-1-1-.054-3.451 1.613-5.617 5-6.5-2.41-.057-3.744-1.224-4-3.5 1.306-.967 1.973-2.301 2-4 2.161-.009 3.494-.676 4-2 2.454.972 4.621 2.305 6.5 4 .695-4.629 3.195-7.795 7.5-9.5-1.154-.914-.987-1.747.5-2.5a186.05 186.05 0 0 1 7.5 2c.222-3.185 1.722-4.185 4.5-3 5.55-3.193 10.55-2.526 15 2a6.802 6.802 0 0 1 1.5-3c1.041 2.491 1.874 2.491 2.5 0 .741 1.141 1.575 1.141 2.5 0 1.971 5.539.971 10.373-3 14.5 1.426 2.045 2.426 4.212 3 6.5z"/><path style="opacity:1" fill="#5ba1fa" d="M55.5 234.5a159.996 159.996 0 0 0-11.5 21c-.974 7.806-.474 15.473 1.5 23-5.897-6.016-7.563-13.183-5-21.5-1.246-1.953-2.913-2.953-5-3l1 1c-1.58.707-3.08 1.54-4.5 2.5-1.558-.845-2.558-.179-3 2-1.537-.413-3.204-.413-5 0-2.338 2.006-4.672 4.006-7 6a8.435 8.435 0 0 1-.5-4c1.855.228 2.688-.439 2.5-2-1.011.837-2.178 1.17-3.5 1 .285 3.329-.382 6.329-2 9a51.24 51.24 0 0 1-3-9c-.216-2.932.451-5.598 2-8l-.5-2a32.042 32.042 0 0 0-2.5 4 241.652 241.652 0 0 0-1-10.5 4.934 4.934 0 0 1 3-.5 692.25 692.25 0 0 0-2-8l.5-4a6.544 6.544 0 0 0 3-3c.037 3.589.87 6.922 2.5 10l-2 1c1.483 2.446 2.65 2.112 3.5-1 .414.457.914.791 1.5 1 1.667-1 3-2.333 4-4a56.634 56.634 0 0 0 7-2.5c.227-1.135.56-2.302 1-3.5a7.292 7.292 0 0 0 3 2c1.873.018 2.206-.482 1-1.5.753-1.487 1.586-1.654 2.5-.5 1.514-2.266 3.68-3.432 6.5-3.5l-2-1c1.284-.684 2.45-.517 3.5.5 1.92-2.938 4.42-3.605 7.5-2l2-4c6.752-6.284 9.585-4.951 8.5 4-3.526 3.078-6.026 6.744-7.5 11z"/><path style="opacity:1" fill="#87b6e8" d="M-.5 211.5c1.655 4.712 2.488 9.712 2.5 15 .278.916.778 1.582 1.5 2 .208 8.99 1.541 17.99 4 27a198.493 198.493 0 0 1-8-37v-7z"/><path style="opacity:1" fill="#1f64fa" d="M387.5 255.5c1.538-2.051 1.204-3.718-1-5-1.157 3.986-3.824 5.819-8 5.5-2.094.862-3.094 2.028-3 3.5-2.498-.621-4.832.045-7 2 .204-1.029-.296-2.029-1.5-3 .291 4.644.291 9.311 0 14a176.05 176.05 0 0 0-2.5-8c-.948 6.339-2.781 12.339-5.5 18-.739-1.074-1.739-1.741-3-2a77.665 77.665 0 0 0-4.5 4c.345-2.698 1.678-4.698 4-6 1.427-1.648 2.26-3.648 2.5-6 .499-3.986.666-7.986.5-12 .295-1.923 1.128-3.59 2.5-5 .576-1.877.409-3.711-.5-5.5l2-5c-.32-1.653-1.32-2.653-3-3 1.167-.5 2-1.333 2.5-2.5 1.333 2.667 2.667 2.667 4 0 .725 1.658 1.892 2.158 3.5 1.5.227-1.135.56-2.302 1-3.5l4-3a4.457 4.457 0 0 1 1.5 2c2.667-1.333 4.667-3.333 6-6l2 2c1.666-.84 1.833-.34.5 1.5.949.617 1.782.451 2.5-.5.454 2.271 1.121 4.604 2 7 .071-4.187.738-8.187 2-12 .667 2.667 1.333 2.667 2 0 .359 3.044 1.026 3.378 2 1 .312 3.574-.521 6.907-2.5 10a62.744 62.744 0 0 0-1.5 11c-.737 2.096-1.903 3.763-3.5 5z"/><path style="opacity:1" fill="#4d7cd9" d="M343.5 234.5c2.591.754 4.424 2.421 5.5 5a8.43 8.43 0 0 1 .5 4 1326.54 1326.54 0 0 0-6-9z"/><path style="opacity:1" fill="#5186dc" d="M223.5 234.5c-5.277 6.782-11.611 12.282-19 16.5a9.175 9.175 0 0 1 2 4.5c-1.634-.707-2.968-1.873-4-3.5.843-1.787 1.01-3.62.5-5.5 1.117.165 2.284.498 3.5 1 5.784-2.808 10.117-6.974 13-12.5a8.43 8.43 0 0 1 4-.5z"/><path style="opacity:1" fill="#4587f5" d="M202.5 223.5c.438-.065.772.101 1 .5-2.112 3.23-5.112 5.23-9 6-2.158 3.656-5.158 6.49-9 8.5l3 2.5c-1.211.893-1.211 1.726 0 2.5.886-.825 1.219-1.825 1-3 2.403-.107 4.236.893 5.5 3 1.867 2.308 2.867 4.975 3 8a7.248 7.248 0 0 0 2.5 2c-.8-7.838 2.533-12.505 10-14a8.43 8.43 0 0 1 .5-4 37.337 37.337 0 0 0 6-6c1.014 1.673 2.514 3.006 4.5 4a36.36 36.36 0 0 1 6-5c-2.031-1.749-2.365-3.749-1-6-2.939-2.483-6.273-3.317-10-2.5-1.333 1.84-1.166 2.34.5 1.5 1.615 1.156 1.615 2.489 0 4a66.678 66.678 0 0 1-5.5 2 25.866 25.866 0 0 1-3 5c-1.404-2.903-1.071-5.57 1-8l-4-1c.612-4.713-.388-5.046-3-1-1.295-1.872-1.128-3.538.5-5 5.082 1.137 10.249 1.304 15.5.5 2.208-1.047 3.874-2.547 5-4.5h1c4.172-1.658 7.672-4.325 10.5-8 2.293 3.105 1.46 4.938-2.5 5.5 1.719 1.87 2.719 4.037 3 6.5-3.3 6.306-7.3 11.973-12 17a8.43 8.43 0 0 0-4 .5c-2.883 5.526-7.216 9.692-13 12.5-1.216-.502-2.383-.835-3.5-1 .51 1.88.343 3.713-.5 5.5 1.032 1.627 2.366 2.793 4 3.5a125.74 125.74 0 0 0 15 22c-4.701-2.87-8.534-6.537-11.5-11a7.293 7.293 0 0 1-2 3c-.711-1.867-.211-3.367 1.5-4.5-.148-3.343-1.815-5.343-5-6-.945-4.807-3.278-5.641-7-2.5a132.92 132.92 0 0 1-9.5 10 16.2 16.2 0 0 0-1.5 3.5c3.714.613 3.881 2.447.5 5.5-2.459-1.149-4.959-1.149-7.5 0 6.57-7.457 11.903-15.79 16-25-3.922-1.604-7.256-3.938-10-7a6.846 6.846 0 0 0-1-4c-9.525-7.648-16.858-17.648-22-30 .137-1.607.804-2.941 2-4a22.112 22.112 0 0 0 4.5 7c2.761-1.517 4.594-.684 5.5 2.5 3.806 1.617 7.806 2.45 12 2.5 3.213.31 6.213-.023 9-1a99.51 99.51 0 0 0 1-14c-.346-1.196-.846-1.196-1.5 0-.667-.667-.667-1.333 0-2 1.67.156 3.337-.51 5-2 3.031 1.501 4.864.501 5.5-3a7.293 7.293 0 0 1 2 3 27.347 27.347 0 0 0-5 9l-3-4c-1.611.82-2.278 2.154-2 4 1.175-.219 2.175.114 3 1a98.543 98.543 0 0 0-1 10.5 22.383 22.383 0 0 0 3 4.5z"/><path style="opacity:1" fill="#4085fc" d="M202.5 223.5v-1c2.612-4.046 3.612-3.713 3 1l4 1c-2.071 2.43-2.404 5.097-1 8a25.866 25.866 0 0 0 3-5 66.678 66.678 0 0 0 5.5-2c1.615-1.511 1.615-2.844 0-4-1.666.84-1.833.34-.5-1.5 3.727-.817 7.061.017 10 2.5-1.365 2.251-1.031 4.251 1 6a36.36 36.36 0 0 0-6 5c-1.986-.994-3.486-2.327-4.5-4a37.337 37.337 0 0 1-6 6 8.43 8.43 0 0 0-.5 4c-7.467 1.495-10.8 6.162-10 14a7.248 7.248 0 0 1-2.5-2c-.133-3.025-1.133-5.692-3-8-1.264-2.107-3.097-3.107-5.5-3 .219 1.175-.114 2.175-1 3-1.211-.774-1.211-1.607 0-2.5l-3-2.5c3.842-2.01 6.842-4.844 9-8.5 3.888-.77 6.888-2.77 9-6-.228-.399-.562-.565-1-.5z"/><path style="opacity:1" fill="#5297f9" d="M45.5 278.5c5.734 10.042 14.067 17.042 25 21-7.782.134-13.782-3.033-18-9.5a60.603 60.603 0 0 1-6.5-3.5 4.451 4.451 0 0 1-1.5 2c.278-3.41-.222-6.743-1.5-10a31.373 31.373 0 0 1-5.5 9c-1.245-1.455-1.078-2.789.5-4a12.5 12.5 0 0 0 0-7c-1.835-1.949-3.001-4.283-3.5-7-2.366 3.744-2.366 7.577 0 11.5a14.439 14.439 0 0 0-2.5 5.5 3.647 3.647 0 0 1-1.5 1 44.422 44.422 0 0 1-.5-11c-3.659-6.83-4.825-6.33-3.5 1.5a14.239 14.239 0 0 1-3.5 6.5 12.935 12.935 0 0 0-.5 5c-1.51-1.976-2.344-4.309-2.5-7l-1 1c-.206-2.436-1.373-4.102-3.5-5 .435-3.338-.232-6.338-2-9 1.618-2.671 2.285-5.671 2-9 1.322.17 2.489-.163 3.5-1 .188 1.561-.645 2.228-2.5 2a8.435 8.435 0 0 0 .5 4c2.328-1.994 4.662-3.994 7-6 1.796-.413 3.463-.413 5 0 .442-2.179 1.442-2.845 3-2 1.42-.96 2.92-1.793 4.5-2.5l-1-1c2.087.047 3.754 1.047 5 3-2.563 8.317-.897 15.484 5 21.5z"/><path style="opacity:1" fill="#2e61d3" d="M388.5 264.5c-.233 3.042-1.233 5.708-3 8-.599-3.448.401-6.114 3-8z"/><path style="opacity:1" fill="#86b2e3" d="M7.5 255.5a11.449 11.449 0 0 1 3 5 51.24 51.24 0 0 0 3 9c1.768 2.662 2.435 5.662 2 9-3.436-7.303-6.102-14.97-8-23z"/><path style="opacity:1" fill="#3868d6" d="m356.5 258.5 2 2a72.367 72.367 0 0 1-.5 12c-.24 2.352-1.073 4.352-2.5 6a38.52 38.52 0 0 1 2-13 21.336 21.336 0 0 1-1-7z"/><path style="opacity:1" fill="#2e75fc" d="M220.5 285.5c-.059 2.222-1.225 3.222-3.5 3-2.972-1.659-6.139-2.492-9.5-2.5a25.658 25.658 0 0 1-6 6l2 1a12.795 12.795 0 0 0-6 3l1 1c-1.833.5-3 1.667-3.5 3.5-1.999-.046-3.832-1.046-5.5-3a15.645 15.645 0 0 0-4 2.5c2.491.626 2.491 1.459 0 2.5a9.86 9.86 0 0 1-6 1v4h-4c.349-2.545-.484-4.545-2.5-6-1.852 1.73-1.686 2.896.5 3.5l-4 3 1 1-3 1 1 1a47.633 47.633 0 0 0-7 4.5c-4.562-2.7-7.228-1.7-8 3a9.86 9.86 0 0 1-6 1v4h-4c.188-1.603-.312-2.937-1.5-4-2.966 4.243-6.466 7.91-10.5 11l-2 1c-4.562-2.7-7.228-1.7-8 3a9.86 9.86 0 0 1-6 1v4h-4c.188-1.603-.312-2.937-1.5-4-2.599 3.403-5.432 6.236-8.5 8.5l2 1a23.603 23.603 0 0 0-6 2.5l-4-2c-2.563 1.534-4.563 3.534-6 6-.617-.111-1.117-.444-1.5-1a50.573 50.573 0 0 1-8 5c-4.06-1.453-5.394-4.119-4-8-.718.951-1.55 1.117-2.5.5a6.544 6.544 0 0 0-3-3c1.333-.667 1.333-1.333 0-2l5-3c-1.103-1.68-.77-3.18 1-4.5 2.056 2.093 4.556 3.426 7.5 4l1-2h4c1.334-2.949 3-4.949 5-6h6a7.292 7.292 0 0 0 2-3c1.117.165 2.284.498 3.5 1 1.196-.346 1.196-.846 0-1.5l8-1c1.666-.997 3.166-2.497 4.5-4.5 1.247 2.381 1.58 2.047 1-1a9.454 9.454 0 0 0-2.5-1.5 34.041 34.041 0 0 0 7.5-1.5l1 1c1.682-2.099 3.348-3.432 5-4h5c.317-1.801.984-2.134 2-1 1.672-3.014 3.672-5.014 6-6 .667 1.333 1.333 1.333 2 0 .667 2.667 1.333 2.667 2 0l1 1c2.68-3.124 5.846-4.624 9.5-4.5l-1-1a127.818 127.818 0 0 0 3-2c-.405-.945-1.072-1.612-2-2 3.453-1.468 7.119-2.302 11-2.5 3.148.727 6.148 1.56 9 2.5a3.647 3.647 0 0 0 1-1.5 213.957 213.957 0 0 1-4-5c1.569-3.999 3.402-3.999 5.5 0l3-4c.914 1.154 1.747.987 2.5-.5-3.747-1.438-3.58-2.938.5-4.5a14.972 14.972 0 0 0 3.5 3c4.581-2.925 9.247-4.759 14-5.5 2.179-.442 2.845-1.442 2-3 .535-2.109 1.535-2.609 3-1.5 1.578-1.14 3.244-1.64 5-1.5a611.784 611.784 0 0 1 9 9.5z"/><path style="opacity:1" fill="#3464d6" d="M385.5 272.5c-1.042 5.142-3.042 9.809-6 14 .39-5.437 2.39-10.104 6-14z"/><path style="opacity:1" fill="#85b1e5" d="M15.5 278.5c2.127.898 3.294 2.564 3.5 5l1-1c.156 2.691.99 5.024 2.5 7a32.61 32.61 0 0 1 4 10c-4.428-6.519-8.094-13.519-11-21z"/><path style="opacity:1" fill="#478efb" d="M70.5 299.5h1v1c-3.84 1.136-7.673 1.136-11.5 0a27.258 27.258 0 0 0-7 2c-1.636-2.05-3.802-3.05-6.5-3 1.556 2.949 1.222 5.616-1 8-1.333 1.333-2.667 1.333-4 0a19.897 19.897 0 0 1-3.5-4 11.392 11.392 0 0 0-2.5 2 10.76 10.76 0 0 1 2.5 3c.893-1.211 1.726-1.211 2.5 0a9.107 9.107 0 0 1 1 5c-1.679-.215-2.679.452-3 2h-2v-5h-3c.073-3.381-.927-6.381-3-9 1.02-1.932 1.187-3.932.5-6-1.047 2.208-2.547 3.874-4.5 5v-1a32.61 32.61 0 0 0-4-10c-.16-1.699.006-3.366.5-5a14.239 14.239 0 0 0 3.5-6.5c-1.325-7.83-.159-8.33 3.5-1.5a44.422 44.422 0 0 0 .5 11 3.647 3.647 0 0 0 1.5-1 14.439 14.439 0 0 1 2.5-5.5c-2.366-3.923-2.366-7.756 0-11.5.499 2.717 1.665 5.051 3.5 7a12.5 12.5 0 0 1 0 7c-1.578 1.211-1.745 2.545-.5 4a31.373 31.373 0 0 0 5.5-9c1.278 3.257 1.778 6.59 1.5 10a4.451 4.451 0 0 0 1.5-2 60.603 60.603 0 0 0 6.5 3.5c4.218 6.467 10.218 9.634 18 9.5z"/><path style="opacity:1" fill="#256bfb" d="M249.5 295.5c4.413.187 8.746.854 13 2 1.43 1.037 3.097 1.704 5 2a13.94 13.94 0 0 1 6 3c-5.572 1.763-10.739 1.096-15.5-2-2.658 1.144-5.324.811-8-1-1.44 1.107-2.94 1.107-4.5 0-1.972.52-1.972 1.687 0 3.5-8.459-.694-15.459 2.14-21 8.5a6.802 6.802 0 0 1-1.5-3 353.118 353.118 0 0 0-14.5 11 6.802 6.802 0 0 1-1.5-3l-8 6-1-1a47.289 47.289 0 0 0-5.5 6 6.802 6.802 0 0 1-1.5-3 9427.18 9427.18 0 0 1-6.5 5l-2-2a10350.75 10350.75 0 0 1-14 10l-2-2c-4.897 4.448-10.563 7.282-17 8.5-4.563 4.282-9.897 6.948-16 8a17.842 17.842 0 0 1-5.5 4.5l-1-1c-1.5 2.167-3.333 4-5.5 5.5-1.242.311-2.242-.189-3-1.5-3.522 3.761-7.855 5.927-13 6.5-1.493 1.156-1.326 1.99.5 2.5 1.789-.909 3.623-1.076 5.5-.5-3.168.582-3.501 1.582-1 3-1.391 1.65-2.891 2.15-4.5 1.5a2.428 2.428 0 0 0-.5 2h-3c-.844-2.259-2.51-3.259-5-3-1.1-1.105-1.767-2.438-2-4-1.132-1.967-.799-3.8 1-5.5l5-4c1.242-.311 2.242.189 3 1.5 2.352-2.901 5.352-4.901 9-6a14.72 14.72 0 0 0 1.5-5c.569 3.861 1.402 3.861 2.5 0 .793.431 1.627.765 2.5 1a25.807 25.807 0 0 1 7.5-2.5 11.333 11.333 0 0 0 1.5-3.5l1 2a22.981 22.981 0 0 1 2-5c.974 2.378 1.641 2.044 2-1 .388.928 1.055 1.595 2 2a68.93 68.93 0 0 0 9.5-4 14.72 14.72 0 0 0 1.5-5c.569 3.861 1.402 3.861 2.5 0 .793.431 1.627.765 2.5 1a25.807 25.807 0 0 1 7.5-2.5 20.431 20.431 0 0 0 1.5-5.5c.869 5.008 1.536 4.675 2-1 .569 3.861 1.402 3.861 2.5 0 .793.431 1.627.765 2.5 1a68.93 68.93 0 0 0 9.5-4 14.72 14.72 0 0 0 1.5-5c.569 3.861 1.402 3.861 2.5 0a9.425 9.425 0 0 1 3 3c5.774-4.551 10.274-8.218 13.5-11l2.5 3c3.963-2.89 7.796-5.89 11.5-9 1.726 1.076 3.559 1.243 5.5.5l5.5-5.5 1 3a35.978 35.978 0 0 1 8.5-5.5 7.293 7.293 0 0 0-3-2c1.801-.317 2.134-.984 1-2a9.454 9.454 0 0 0 1.5-2.5c2.579.869 4.412 2.535 5.5 5l-3 2.5 1 1a238.36 238.36 0 0 1 14-1.5z"/><path style="opacity:1" fill="#6b9ce8" d="M36.5 315.5c-4.064-4.447-7.398-9.447-10-15 1.953-1.126 3.453-2.792 4.5-5 .687 2.068.52 4.068-.5 6 2.073 2.619 3.073 5.619 3 9h3v5z"/><path style="opacity:1" fill="#357afb" d="M221.5 277.5a39.46 39.46 0 0 1 11 10 27.515 27.515 0 0 0-7 0 14.972 14.972 0 0 1-3.5-3c-.383.556-.883.889-1.5 1a611.784 611.784 0 0 0-9-9.5c-1.756-.14-3.422.36-5 1.5-1.465-1.109-2.465-.609-3 1.5.845 1.558.179 2.558-2 3-4.753.741-9.419 2.575-14 5.5a14.972 14.972 0 0 1-3.5-3c-4.08 1.562-4.247 3.062-.5 4.5-.753 1.487-1.586 1.654-2.5.5l-3 4c-2.098-3.999-3.931-3.999-5.5 0 1.287 1.66 2.62 3.326 4 5a3.647 3.647 0 0 1-1 1.5 102.262 102.262 0 0 0-9-2.5c-3.881.198-7.547 1.032-11 2.5.928.388 1.595 1.055 2 2-.789.546-1.789 1.213-3 2l1 1c-3.654-.124-6.82 1.376-9.5 4.5l-1-1c-.667 2.667-1.333 2.667-2 0-.667 1.333-1.333 1.333-2 0-2.328.986-4.328 2.986-6 6-1.016-1.134-1.683-.801-2 1h-5c-1.652.568-3.318 1.901-5 4l-1-1a34.041 34.041 0 0 1-7.5 1.5c.916.374 1.75.874 2.5 1.5.58 3.047.247 3.381-1 1-1.334 2.003-2.834 3.503-4.5 4.5l-8 1c1.196.654 1.196 1.154 0 1.5-1.216-.502-2.383-.835-3.5-1a7.292 7.292 0 0 1-2 3h-6c-2 1.051-3.666 3.051-5 6h-4l-1 2c-2.944-.574-5.444-1.907-7.5-4-1.77 1.32-2.103 2.82-1 4.5l-5 3c1.333.667 1.333 1.333 0 2a6.544 6.544 0 0 1 3 3c.95.617 1.782.451 2.5-.5-1.394 3.881-.06 6.547 4 8a50.573 50.573 0 0 0 8-5c.383.556.883.889 1.5 1-.507 1.359-1.507 2.359-3 3 1.09 1.109 1.09 2.109 0 3-.925-1.141-1.759-1.141-2.5 0l-1-2c-.393 2.216.107 4.216 1.5 6a27.683 27.683 0 0 1-8-6 37.053 37.053 0 0 1-7.5-10c-.67-.752-1.504-1.086-2.5-1-.612-3.197-2.612-4.531-6-4v-4a4.934 4.934 0 0 0 3-.5 32.444 32.444 0 0 1-6-1.5 45.487 45.487 0 0 1-3-7c.438-1.006 1.104-1.006 2 0a10.255 10.255 0 0 0 1.5-4c2.267 1.435 4.267 1.102 6-1 1.65 1.391 2.15 2.891 1.5 4.5 1.325-.148 2.492.018 3.5.5l6.5-6.5c1.284-.684 2.45-.517 3.5.5.311-1.242-.189-2.242-1.5-3a4.451 4.451 0 0 1 1.5-2c.667 1.333 1.333 1.333 2 0l1 3c.667-1.333 1.333-1.333 2 0a47.152 47.152 0 0 0 6-7l5 1 1-3c1.84 1.333 2.34 1.166 1.5-.5 1.833-.5 3-1.667 3.5-3.5l1 1c1.46-1.922 3.127-2.589 5-2a4.457 4.457 0 0 0 1.5 2 28.043 28.043 0 0 1 5-1.5l-4-1c1.884-.216 3.551-.883 5-2 5.662.073 11.329.073 17 0l-1-1c5.301-1.665 10.634-2.165 16-1.5 5.322-1.163 10.655-2.33 16-3.5.951-.718 1.117-1.551.5-2.5-1.494 1.247-2.994 1.247-4.5 0 1.27-.788 2.27-1.788 3-3 7.357-4.361 14.024-9.694 20-16 2.541-1.149 5.041-1.149 7.5 0 3.381-3.053 3.214-4.887-.5-5.5a16.2 16.2 0 0 1 1.5-3.5 132.92 132.92 0 0 0 9.5-10c3.722-3.141 6.055-2.307 7 2.5 3.185.657 4.852 2.657 5 6-1.711 1.133-2.211 2.633-1.5 4.5a7.293 7.293 0 0 0 2-3c2.966 4.463 6.799 8.13 11.5 11z"/><path style="opacity:1" fill="#83ace7" d="M262.5 297.5c3.281-.08 6.281.587 9 2h-4c-1.903-.296-3.57-.963-5-2z"/><path style="opacity:1" fill="#0d53fb" d="M372.5 299.5c-1.359.507-2.359 1.507-3 3a6.846 6.846 0 0 1-4 1c-1.788 6.479-4.455 12.479-8 18a4.934 4.934 0 0 0-3 .5c.752.671 1.086 1.504 1 2.5-.624 2.254-1.957 3.921-4 5-3.79-.547-5.79 1.12-6 5-2.384.511-4.384 1.511-6 3-.543-.06-.876-.393-1-1 1.571-2.382 2.404-5.049 2.5-8l4-2a12.494 12.494 0 0 0 0-7c-1.813-1.109-2.646-.442-2.5 2h-3c1.092 4.623-.575 6.456-5 5.5 1.196-.654 1.196-1.154 0-1.5-3.943 1.61-6.943 4.277-9 8 1.684 1.354 2.184 3.021 1.5 5a26.793 26.793 0 0 1-6.5 3c-1.034-2.557-.034-3.891 3-4v-3c-2.646.392-5.146.392-7.5 0a39.991 39.991 0 0 0-7.5 7.5l1 1-5 1c1.196.654 1.196 1.154 0 1.5-.929-1.189-1.262-2.522-1-4-4.075 1.17-7.742 4.004-11 8.5l1 1c-2.695.254-5.195.421-7.5.5-1.836-2.104-4.002-2.438-6.5-1l2 2c-.346 1.196-.846 1.196-1.5 0-1.443 4.612-4.109 7.279-8 8a4.934 4.934 0 0 1-.5-3 4.934 4.934 0 0 0-3 .5c1.388.889 1.222 1.389-.5 1.5a3.943 3.943 0 0 1-2-1 30.168 30.168 0 0 1-5.5 7.5l1 1c-7.164-1.6-12.831.733-17 7l1 1-5 1c1.196.654 1.196 1.154 0 1.5-.929-1.189-1.262-2.522-1-4-1.265 1.168-3.265 2.168-6 3-2.358 3.858-5.525 6.858-9.5 9a4.934 4.934 0 0 0-.5 3 563.366 563.366 0 0 0-13.5 2 9.839 9.839 0 0 1-4-1 28.17 28.17 0 0 1-7.5 4.5 3.943 3.943 0 0 1 1 2c-.929 1.077-1.596 2.244-2 3.5h-7c1.098-.897 1.098-1.73 0-2.5a42.699 42.699 0 0 0-8-3.5 6.802 6.802 0 0 1-1.5-3l-3 1-1.5-1.5a56.165 56.165 0 0 0 15-.5 4.934 4.934 0 0 0-.5-3c-5.047.822-9.88.822-14.5 0v-3c1.96.638 3.793.638 5.5 0a7.248 7.248 0 0 0 2.5 2 37.291 37.291 0 0 1 7-.5c2.29-2.409 4.457-5.242 6.5-8.5 1.049 1.017 2.216 1.184 3.5.5 4.647-1.483 6.647-4.649 6-9.5 5.239.537 10.239-.13 15-2a7.248 7.248 0 0 1 2.5 2c1.73-1.587 3.397-3.92 5-7 1.049 1.017 2.216 1.184 3.5.5 4.647-1.483 6.647-4.649 6-9.5a429.194 429.194 0 0 0 18-.5c5.06-5.068 11.06-8.402 18-10a166.988 166.988 0 0 0 10.5-6.5c2.79 1.282 4.957.448 6.5-2.5l9-3c1.504-1.491 2.337-3.324 2.5-5.5 1.487-.655 2.653-1.655 3.5-3 3.884-.494 7.551-1.494 11-3a7.293 7.293 0 0 0 3 2c1.363-.698 2.529-.698 3.5 0 1.758-.969 2.258-2.136 1.5-3.5 3.672-.831 6.672-2.665 9-5.5a36.51 36.51 0 0 1 13-5c1.09-.891 1.09-1.891 0-3a14.72 14.72 0 0 0-5-1.5l2-2a60.77 60.77 0 0 0 7 2.5 31.6 31.6 0 0 0-.5 8c4.253-5.951 9.086-10.451 14.5-13.5-2.209-.957-2.043-2.124.5-3.5.305-2.057.305-4.057 0-6 2.719.944 5.552 1.277 8.5 1a3504.629 3504.629 0 0 0-3 12z"/><path style="opacity:1" fill="#5a8bda" d="M152.5 294.5c-8.748 3.885-18.081 5.885-28 6a727.335 727.335 0 0 1 28-6z"/><path style="opacity:1" fill="#165afa" d="M387.5 255.5a41.73 41.73 0 0 1 1 9c-2.599 1.886-3.599 4.552-3 8-3.61 3.896-5.61 8.563-6 14-1.574 4.82-3.907 9.153-7 13 .989-3.986 1.989-7.986 3-12-2.948.277-5.781-.056-8.5-1 .305 1.943.305 3.943 0 6-2.543 1.376-2.709 2.543-.5 3.5-5.414 3.049-10.247 7.549-14.5 13.5a31.6 31.6 0 0 1 .5-8 60.77 60.77 0 0 1-7-2.5l-2 2a14.72 14.72 0 0 1 5 1.5c1.09 1.109 1.09 2.109 0 3a36.51 36.51 0 0 0-13 5c-2.328 2.835-5.328 4.669-9 5.5.758 1.364.258 2.531-1.5 3.5-.971-.698-2.137-.698-3.5 0a7.293 7.293 0 0 1-3-2c-3.449 1.506-7.116 2.506-11 3-.847 1.345-2.013 2.345-3.5 3-.163 2.176-.996 4.009-2.5 5.5l-9 3c-1.543 2.948-3.71 3.782-6.5 2.5a166.988 166.988 0 0 1-10.5 6.5c-6.94 1.598-12.94 4.932-18 10-5.804.287-11.804.454-18 .5.647 4.851-1.353 8.017-6 9.5-1.284.684-2.451.517-3.5-.5-1.603 3.08-3.27 5.413-5 7a7.248 7.248 0 0 0-2.5-2c-4.761 1.87-9.761 2.537-15 2 .647 4.851-1.353 8.017-6 9.5-1.284.684-2.451.517-3.5-.5-2.043 3.258-4.21 6.091-6.5 8.5a37.291 37.291 0 0 0-7 .5 7.248 7.248 0 0 1-2.5-2c-1.707.638-3.54.638-5.5 0v3c4.62.822 9.453.822 14.5 0 .483.948.649 1.948.5 3a56.165 56.165 0 0 1-15 .5l1.5 1.5 3-1a6.802 6.802 0 0 0 1.5 3 42.699 42.699 0 0 1 8 3.5c1.098.77 1.098 1.603 0 2.5h-10c-.342-.838-1.008-1.172-2-1a1389.807 1389.807 0 0 1-34-9c-1.499-1.758-1.832-3.591-1-5.5-1.544-.29-2.877-.956-4-2 .753-1.487 1.586-1.654 2.5-.5a14.972 14.972 0 0 1 3.5-3 4.457 4.457 0 0 1 1.5 2c.595-3.582 1.929-3.916 4-1 1.894-3.344 4.727-4.678 8.5-4-.14-1.624.527-2.79 2-3.5l-1-1c1.244-.456 2.077.044 2.5 1.5l3-4 1 3c1.958-1.452 3.958-1.785 6-1 1.284-1.072 1.617-2.405 1-4 1.46-1.922 3.127-2.589 5-2 2.726-.461 5.559-1.461 8.5-3 1.175 1.355 2.175 1.188 3-.5l-1-1 4-4-1-1c1.244-.456 2.077.044 2.5 1.5a4.934 4.934 0 0 0 .5-3c3.098-.087 3.432.413 1 1.5 2.431.252 4.765-.248 7-1.5 1.175 1.355 2.175 1.188 3-.5-1.076-1.726-1.243-3.559-.5-5.5.667 5.333 1.333 5.333 2 0 2.09 1.291 3.424.624 4-2 .974 2.378 1.641 2.044 2-1l1 3c4.352-1.359 7.852-3.859 10.5-7.5l-1-1c1.244-.456 2.077.044 2.5 1.5a4.934 4.934 0 0 0 .5-3c3.098-.087 3.432.413 1 1.5 2.431.252 4.765-.248 7-1.5 1.175 1.355 2.175 1.188 3-.5-1.076-1.726-1.243-3.559-.5-5.5.542 5.221 1.376 5.221 2.5 0 1.406 1.168 2.572.835 3.5-1 5.39.903 9.89-1.264 13.5-6.5l-1-1c1.244-.456 2.077.044 2.5 1.5.359-3.044 1.026-3.378 2-1 1.464-3.387 3.464-3.387 6 0 1.487-.753 1.654-1.586.5-2.5.753-1.487 1.586-1.654 2.5-.5a7.293 7.293 0 0 0 2-3l1 2 3-5c1.537-.413 3.204-.413 5 0a20.442 20.442 0 0 0 6.5-3.5c-2.697-2.81-2.197-3.643 1.5-2.5 1.481-.971 2.315-2.304 2.5-4 7.415-.049 14.915-.049 22.5 0a75.13 75.13 0 0 1 8.5-2c1.213-.247 1.88-.914 2-2 10.571-2.461 19.571-7.794 27-16 1.42-1.366 2.92-2.7 4.5-4 1.261.259 2.261.926 3 2 2.719-5.661 4.552-11.661 5.5-18a176.05 176.05 0 0 1 2.5 8c.291-4.689.291-9.356 0-14 1.204.971 1.704 1.971 1.5 3 2.168-1.955 4.502-2.621 7-2-.094-1.472.906-2.638 3-3.5 4.176.319 6.843-1.514 8-5.5 2.204 1.282 2.538 2.949 1 5z"/><path style="opacity:1" fill="#2a70fc" d="M232.5 287.5c5.71 2.676 11.377 5.342 17 8a238.36 238.36 0 0 0-14 1.5l-1-1 3-2.5c-1.088-2.465-2.921-4.131-5.5-5a9.454 9.454 0 0 1-1.5 2.5c1.134 1.016.801 1.683-1 2a7.293 7.293 0 0 1 3 2 35.978 35.978 0 0 0-8.5 5.5l-1-3-5.5 5.5c-1.941.743-3.774.576-5.5-.5a213.603 213.603 0 0 1-11.5 9l-2.5-3c-3.226 2.782-7.726 6.449-13.5 11a9.425 9.425 0 0 0-3-3c-1.098 3.861-1.931 3.861-2.5 0a14.72 14.72 0 0 1-1.5 5 68.93 68.93 0 0 1-9.5 4 11.456 11.456 0 0 1-2.5-1c-1.098 3.861-1.931 3.861-2.5 0-.464 5.675-1.131 6.008-2 1a20.431 20.431 0 0 1-1.5 5.5 25.807 25.807 0 0 0-7.5 2.5 11.456 11.456 0 0 1-2.5-1c-1.098 3.861-1.931 3.861-2.5 0a14.72 14.72 0 0 1-1.5 5 68.93 68.93 0 0 1-9.5 4c-.945-.405-1.612-1.072-2-2-.359 3.044-1.026 3.378-2 1a22.981 22.981 0 0 0-2 5l-1-2a11.333 11.333 0 0 1-1.5 3.5 25.807 25.807 0 0 0-7.5 2.5 11.456 11.456 0 0 1-2.5-1c-1.098 3.861-1.931 3.861-2.5 0a14.72 14.72 0 0 1-1.5 5c-3.648 1.099-6.648 3.099-9 6-.758-1.311-1.758-1.811-3-1.5l-5 4c-1.799 1.7-2.132 3.533-1 5.5a27.718 27.718 0 0 0-9-3c-.762-1.762-2.096-2.762-4-3-1.393-1.784-1.893-3.784-1.5-6l1 2c.741-1.141 1.575-1.141 2.5 0 1.09-.891 1.09-1.891 0-3 1.493-.641 2.493-1.641 3-3 1.437-2.466 3.437-4.466 6-6l4 2a23.603 23.603 0 0 1 6-2.5l-2-1c3.068-2.264 5.901-5.097 8.5-8.5 1.188 1.063 1.688 2.397 1.5 4h4v-4a9.86 9.86 0 0 0 6-1c.772-4.7 3.438-5.7 8-3l2-1c4.034-3.09 7.534-6.757 10.5-11 1.188 1.063 1.688 2.397 1.5 4h4v-4a9.86 9.86 0 0 0 6-1c.772-4.7 3.438-5.7 8-3a47.633 47.633 0 0 1 7-4.5l-1-1 3-1-1-1 4-3c-2.186-.604-2.352-1.77-.5-3.5 2.016 1.455 2.849 3.455 2.5 6h4v-4a9.86 9.86 0 0 0 6-1c2.491-1.041 2.491-1.874 0-2.5a15.645 15.645 0 0 1 4-2.5c1.668 1.954 3.501 2.954 5.5 3 .5-1.833 1.667-3 3.5-3.5l-1-1a12.795 12.795 0 0 1 6-3l-2-1a25.658 25.658 0 0 0 6-6c3.361.008 6.528.841 9.5 2.5 2.275.222 3.441-.778 3.5-3 .617-.111 1.117-.444 1.5-1a14.972 14.972 0 0 0 3.5 3 27.515 27.515 0 0 1 7 0z"/><path style="opacity:1" fill="#1f65fa" d="M273.5 302.5a441.579 441.579 0 0 0 42-1 41.73 41.73 0 0 0 9-1c-.12 1.086-.787 1.753-2 2a75.13 75.13 0 0 0-8.5 2c-7.585-.049-15.085-.049-22.5 0-8.318-1.836-15.318-.169-21 5-1.216-.502-2.383-.835-3.5-1-2.477 1.705-3.811 3.705-4 6l-3-1a47.127 47.127 0 0 1-5.5 4c-1.216-.502-2.383-.835-3.5-1-1.319 1.987-3.152 3.154-5.5 3.5l1 1c-1.981.605-2.315 1.605-1 3-1.249 1.824-2.415 1.657-3.5-.5-.667 2.667-1.333 2.667-2 0a19.887 19.887 0 0 1-3.5 4c.204-1.029-.296-2.029-1.5-3-2.477 1.705-3.811 3.705-4 6l-3-1a47.127 47.127 0 0 1-5.5 4c-1.216-.502-2.383-.835-3.5-1a46.607 46.607 0 0 0-5.5 6 3.647 3.647 0 0 1-1.5-1 35.435 35.435 0 0 0-7.5 6c.204-1.029-.296-2.029-1.5-3-2.477 1.705-3.811 3.705-4 6l-3-1a47.127 47.127 0 0 1-5.5 4c-2.264-1.277-4.264-.777-6 1.5l-4 1 2 1c-2.348.346-4.181 1.513-5.5 3.5-1.868 1.123-3.868 1.123-6 0-3.59 2.117-7.257 4.784-11 8l-1-2c-.667 1.333-1.333 1.333-2 0-.667 2.667-1.333 2.667-2 0-1.113 1.26-1.28 2.427-.5 3.5-2.223.652-3.39 2.152-3.5 4.5l-1-2a7.293 7.293 0 0 1-2 3c-1.583.007-3.249-.326-5-1-2.745 1.452-5.078 3.452-7 6l-1-2c-1.74 1.216-2.74 2.882-3 5l-1-3c-1.204.971-1.704 1.971-1.5 3-3.422-2.79-4.089-2.623-2 .5-2.491.626-2.491 1.459 0 2.5a3.647 3.647 0 0 1-1 1.5c3.603.612 6.269.279 8-1 .958 1.147.625 2.147-1 3a51.22 51.22 0 0 0 4 2.5h-4c-1.676-2.334-4.009-3.334-7-3h-1c-2.986-2.944-6.653-4.611-11-5-2.319-.492-4.319-1.492-6-3 0-2-1-3-3-3a2.428 2.428 0 0 1 .5-2c1.609.65 3.109.15 4.5-1.5-2.501-1.418-2.168-2.418 1-3-1.877-.576-3.711-.409-5.5.5-1.826-.51-1.993-1.344-.5-2.5 5.145-.573 9.478-2.739 13-6.5.758 1.311 1.758 1.811 3 1.5 2.167-1.5 4-3.333 5.5-5.5l1 1a17.842 17.842 0 0 0 5.5-4.5c6.103-1.052 11.437-3.718 16-8 6.437-1.218 12.103-4.052 17-8.5l2 2c4.681-3.338 9.348-6.671 14-10l2 2c2.173-1.67 4.34-3.337 6.5-5a6.802 6.802 0 0 0 1.5 3 47.289 47.289 0 0 1 5.5-6l1 1 8-6a6.802 6.802 0 0 0 1.5 3 353.118 353.118 0 0 1 14.5-11 6.802 6.802 0 0 0 1.5 3c5.541-6.36 12.541-9.194 21-8.5-1.972-1.813-1.972-2.98 0-3.5 1.56 1.107 3.06 1.107 4.5 0 2.676 1.811 5.342 2.144 8 1 4.761 3.096 9.928 3.763 15.5 2z"/><path style="opacity:.992" fill="#4e79e1" d="M267.5 299.5h4a291.3 291.3 0 0 0 44 2 441.579 441.579 0 0 1-42 1 13.94 13.94 0 0 0-6-3z"/><path style="opacity:1" fill="#3c82fa" d="M159.5 291.5c-.73 1.212-1.73 2.212-3 3 1.506 1.247 3.006 1.247 4.5 0 .617.949.451 1.782-.5 2.5-5.345 1.17-10.678 2.337-16 3.5-5.366-.665-10.699-.165-16 1.5l1 1c-5.671.073-11.338.073-17 0-1.449 1.117-3.116 1.784-5 2l4 1a28.043 28.043 0 0 0-5 1.5 4.457 4.457 0 0 1-1.5-2c-1.873-.589-3.54.078-5 2l-1-1c-.5 1.833-1.667 3-3.5 3.5.84 1.666.34 1.833-1.5.5l-1 3-5-1a47.152 47.152 0 0 1-6 7c-.667-1.333-1.333-1.333-2 0l-1-3c-.667 1.333-1.333 1.333-2 0a4.451 4.451 0 0 0-1.5 2c1.311.758 1.811 1.758 1.5 3-1.05-1.017-2.216-1.184-3.5-.5l-6.5 6.5c-1.008-.482-2.175-.648-3.5-.5.65-1.609.15-3.109-1.5-4.5-1.733 2.102-3.733 2.435-6 1a10.255 10.255 0 0 1-1.5 4c-.896-1.006-1.562-1.006-2 0a45.487 45.487 0 0 0 3 7 32.444 32.444 0 0 0 6 1.5 4.934 4.934 0 0 1-3 .5v4c3.388-.531 5.388.803 6 4l-5-2c-1.667-1-3-2.333-4-4-2.318-6.304-6.318-10.97-12-14-1.115-3.387-2.782-6.387-5-9 .321-1.548 1.321-2.215 3-2a9.107 9.107 0 0 0-1-5c-.774-1.211-1.607-1.211-2.5 0a10.76 10.76 0 0 0-2.5-3 11.392 11.392 0 0 1 2.5-2 19.897 19.897 0 0 0 3.5 4c1.333 1.333 2.667 1.333 4 0 2.222-2.384 2.556-5.051 1-8 2.698-.05 4.864.95 6.5 3a27.258 27.258 0 0 1 7-2c3.827 1.136 7.66 1.136 11.5 0-.11.617-.444 1.117-1 1.5a175.35 175.35 0 0 1 19.5 2.5c3.264-1.201 6.597-1.201 10 0a62.065 62.065 0 0 1 10.5-1.5c.556-.383.889-.883 1-1.5 4.324-.427 8.658-.761 13-1 9.919-.115 19.252-2.115 28-6 2.149-1.236 4.482-2.236 7-3z"/><path style="opacity:1" fill="#6092e6" d="M71.5 299.5a229.403 229.403 0 0 0 40 2c-.111.617-.444 1.117-1 1.5a62.065 62.065 0 0 0-10.5 1.5c-3.403-1.201-6.736-1.201-10 0a175.35 175.35 0 0 0-19.5-2.5c.556-.383.89-.883 1-1.5v-1z"/><path style="opacity:1" fill="#1a60fc" d="M291.5 304.5c-.185 1.696-1.019 3.029-2.5 4-3.697-1.143-4.197-.31-1.5 2.5a20.442 20.442 0 0 1-6.5 3.5c-1.796-.413-3.463-.413-5 0l-3 5-1-2a7.293 7.293 0 0 1-2 3c-.914-1.154-1.747-.987-2.5.5 1.154.914.987 1.747-.5 2.5-2.536-3.387-4.536-3.387-6 0-.974-2.378-1.641-2.044-2 1-.423-1.456-1.256-1.956-2.5-1.5l1 1c-3.61 5.236-8.11 7.403-13.5 6.5-.928 1.835-2.094 2.168-3.5 1-1.124 5.221-1.958 5.221-2.5 0-.743 1.941-.576 3.774.5 5.5-.825 1.688-1.825 1.855-3 .5-2.235 1.252-4.569 1.752-7 1.5 2.432-1.087 2.098-1.587-1-1.5a4.934 4.934 0 0 1-.5 3c-.423-1.456-1.256-1.956-2.5-1.5l1 1c-2.648 3.641-6.148 6.141-10.5 7.5l-1-3c-.359 3.044-1.026 3.378-2 1-.576 2.624-1.91 3.291-4 2-.667 5.333-1.333 5.333-2 0-.743 1.941-.576 3.774.5 5.5-.825 1.688-1.825 1.855-3 .5-2.235 1.252-4.569 1.752-7 1.5 2.432-1.087 2.098-1.587-1-1.5a4.934 4.934 0 0 1-.5 3c-.423-1.456-1.256-1.956-2.5-1.5l1 1-4 4 1 1c-.825 1.688-1.825 1.855-3 .5-2.941 1.539-5.774 2.539-8.5 3-1.873-.589-3.54.078-5 2 .617 1.595.284 2.928-1 4-2.042-.785-4.042-.452-6 1l-1-3-3 4c-.423-1.456-1.256-1.956-2.5-1.5l1 1c-1.473.71-2.14 1.876-2 3.5-3.773-.678-6.606.656-8.5 4-2.071-2.916-3.405-2.582-4 1a4.457 4.457 0 0 0-1.5-2 14.972 14.972 0 0 0-3.5 3c-.914-1.154-1.747-.987-2.5.5 1.123 1.044 2.456 1.71 4 2-.832 1.909-.499 3.742 1 5.5-2.45.202-4.783-.131-7-1a51.22 51.22 0 0 1-4-2.5c1.625-.853 1.958-1.853 1-3-1.731 1.279-4.397 1.612-8 1a3.647 3.647 0 0 0 1-1.5c-2.491-1.041-2.491-1.874 0-2.5-2.089-3.123-1.422-3.29 2-.5-.204-1.029.296-2.029 1.5-3l1 3c.26-2.118 1.26-3.784 3-5l1 2c1.922-2.548 4.255-4.548 7-6 1.751.674 3.417 1.007 5 1a7.293 7.293 0 0 0 2-3l1 2c.11-2.348 1.277-3.848 3.5-4.5-.78-1.073-.613-2.24.5-3.5.667 2.667 1.333 2.667 2 0 .667 1.333 1.333 1.333 2 0l1 2c3.743-3.216 7.41-5.883 11-8 2.132 1.123 4.132 1.123 6 0 1.319-1.987 3.152-3.154 5.5-3.5l-2-1 4-1c1.736-2.277 3.736-2.777 6-1.5a47.127 47.127 0 0 0 5.5-4l3 1c.189-2.295 1.523-4.295 4-6 1.204.971 1.704 1.971 1.5 3a35.435 35.435 0 0 1 7.5-6c.414.457.914.791 1.5 1a46.607 46.607 0 0 1 5.5-6c1.117.165 2.284.498 3.5 1a47.127 47.127 0 0 0 5.5-4l3 1c.189-2.295 1.523-4.295 4-6 1.204.971 1.704 1.971 1.5 3a19.887 19.887 0 0 0 3.5-4c.667 2.667 1.333 2.667 2 0 1.085 2.157 2.251 2.324 3.5.5-1.315-1.395-.981-2.395 1-3l-1-1c2.348-.346 4.181-1.513 5.5-3.5 1.117.165 2.284.498 3.5 1a47.127 47.127 0 0 0 5.5-4l3 1c.189-2.295 1.523-4.295 4-6 1.117.165 2.284.498 3.5 1 5.682-5.169 12.682-6.836 21-5z"/><path style="opacity:1" fill="#2e5bdd" d="M372.5 299.5a107.141 107.141 0 0 1-17 25c.086-.996-.248-1.829-1-2.5a4.934 4.934 0 0 1 3-.5c3.545-5.521 6.212-11.521 8-18a6.846 6.846 0 0 0 4-1c.641-1.493 1.641-2.493 3-3z"/><path style="opacity:1" fill="#7ea9e3" d="M36.5 315.5h2c2.218 2.613 3.885 5.613 5 9a46.512 46.512 0 0 1-7-9z"/><path style="opacity:1" fill="#749fe1" d="M43.5 324.5c5.682 3.03 9.682 7.696 12 14a93.719 93.719 0 0 1-12-14z"/><path style="opacity:1" fill="#084cfa" d="M339.5 337.5c.438-.065.772.101 1 .5-2.667.667-2.667 1.333 0 2a23.198 23.198 0 0 1-7 5.5c-1.303-1.218-2.303-.885-3 1-3.532-1.303-7.032-1.303-10.5 0 2.162 3.989 4.829 3.989 8 0 .429 2.169-.071 4.169-1.5 6-2.767 1.448-5.433 2.281-8 2.5 1.473.71 2.14 1.876 2 3.5-1.478-.262-2.811.071-4 1-2.508 3.176-5.675 5.51-9.5 7-1.3-.952-2.467-.952-3.5 0a4.457 4.457 0 0 0 2 1.5 22.508 22.508 0 0 1-7 2 136.857 136.857 0 0 1-12 9.5c-1.014 1.174-2.347 1.84-4 2-2.053-.098-3.72.569-5 2a108.492 108.492 0 0 0-14 3.5c-2.26.549-3.926 1.716-5 3.5a18.453 18.453 0 0 0-6 .5c-.556.383-.889.883-1 1.5-2.928.065-5.595.732-8 2a263.523 263.523 0 0 1-32 2.5c-1.442.377-2.442 1.21-3 2.5h-11c.404-1.256 1.071-2.423 2-3.5a3.943 3.943 0 0 0-1-2 28.17 28.17 0 0 0 7.5-4.5 9.839 9.839 0 0 0 4 1 563.366 563.366 0 0 1 13.5-2 4.934 4.934 0 0 1 .5-3c3.975-2.142 7.142-5.142 9.5-9 2.735-.832 4.735-1.832 6-3-.262 1.478.071 2.811 1 4 1.196-.346 1.196-.846 0-1.5l5-1-1-1c4.169-6.267 9.836-8.6 17-7l-1-1a30.168 30.168 0 0 0 5.5-7.5 3.943 3.943 0 0 0 2 1c1.722-.111 1.888-.611.5-1.5a4.934 4.934 0 0 1 3-.5 4.934 4.934 0 0 0 .5 3c3.891-.721 6.557-3.388 8-8 .654 1.196 1.154 1.196 1.5 0l-2-2c2.498-1.438 4.664-1.104 6.5 1 2.305-.079 4.805-.246 7.5-.5l-1-1c3.258-4.496 6.925-7.33 11-8.5-.262 1.478.071 2.811 1 4 1.196-.346 1.196-.846 0-1.5l5-1-1-1a39.991 39.991 0 0 1 7.5-7.5c2.354.392 4.854.392 7.5 0v3c-3.034.109-4.034 1.443-3 4a26.793 26.793 0 0 0 6.5-3c.684-1.979.184-3.646-1.5-5 2.057-3.723 5.057-6.39 9-8 1.196.346 1.196.846 0 1.5 4.425.956 6.092-.877 5-5.5h3c-.146-2.442.687-3.109 2.5-2a12.494 12.494 0 0 1 0 7l-4 2c-.096 2.951-.929 5.618-2.5 8 .124.607.457.94 1 1z"/><path style="opacity:1" fill="#709ae3" d="m59.5 342.5 5 2c.996-.086 1.83.248 2.5 1a37.053 37.053 0 0 0 7.5 10 72.755 72.755 0 0 1-15-13z"/><path style="opacity:1" fill="#2754e6" d="M351.5 329.5c-8.768 11.438-19.102 21.105-31 29 .14-1.624-.527-2.79-2-3.5 2.567-.219 5.233-1.052 8-2.5 1.429-1.831 1.929-3.831 1.5-6-3.171 3.989-5.838 3.989-8 0 3.468-1.303 6.968-1.303 10.5 0 .697-1.885 1.697-2.218 3-1a23.198 23.198 0 0 0 7-5.5c-2.667-.667-2.667-1.333 0-2-.228-.399-.562-.565-1-.5 1.616-1.489 3.616-2.489 6-3 .21-3.88 2.21-5.547 6-5z"/><path style="opacity:.859" fill="#8bb8e9" d="M82.5 361.5c1.904.238 3.238 1.238 4 3-1.904-.238-3.238-1.238-4-3z"/><path style="opacity:1" fill="#375cd8" d="M320.5 358.5a56.051 56.051 0 0 1-12 9.5 115.136 115.136 0 0 1-22 11.5 136.857 136.857 0 0 0 12-9.5 22.508 22.508 0 0 0 7-2 4.457 4.457 0 0 1-2-1.5c1.033-.952 2.2-.952 3.5 0 3.825-1.49 6.992-3.824 9.5-7 1.189-.929 2.522-1.262 4-1z"/><path style="opacity:1" fill="#628bdc" d="M86.5 364.5a27.718 27.718 0 0 1 9 3c.233 1.562.9 2.895 2 4-4.183-1.587-7.85-3.921-11-7z"/><path style="opacity:.992" fill="#7298e1" d="M97.5 371.5c2.49-.259 4.156.741 5 3-1.934-.61-3.6-1.61-5-3z"/><path style="opacity:1" fill="#6287dd" d="M102.5 374.5h3c2 0 3 1 3 3-2.319-.492-4.319-1.492-6-3z"/><path style="opacity:.992" fill="#6f94de" d="M114.5 380.5c4.347.389 8.014 2.056 11 5-4.093-.882-7.76-2.549-11-5z"/><path style="opacity:.631" fill="#5780db" d="M282.5 381.5c-1.28 1.431-2.947 2.098-5 2 1.28-1.431 2.947-2.098 5-2z"/><path style="opacity:1" fill="#668bda" d="M126.5 385.5c2.991-.334 5.324.666 7 3-2.657-.435-4.991-1.435-7-3z"/><path style="opacity:1" fill="#315bd3" d="M277.5 383.5c-5.885 3.298-12.218 5.631-19 7 1.074-1.784 2.74-2.951 5-3.5a108.492 108.492 0 0 1 14-3.5z"/><path style="opacity:1" fill="#4b6bd3" d="M258.5 390.5c-2.015 1.424-4.348 2.09-7 2 .111-.617.444-1.117 1-1.5a18.453 18.453 0 0 1 6-.5z"/><path style="opacity:1" fill="#5076da" d="M134.5 388.5h3c2.217.869 4.55 1.202 7 1a1389.807 1389.807 0 0 0 34 9c-15.271-1.153-29.938-4.487-44-10z"/><path style="opacity:.302" fill="#5378d3" d="M251.5 392.5c-2.338 1.54-5.005 2.206-8 2 2.405-1.268 5.072-1.935 8-2z"/><path style="opacity:1" fill="#5472dc" d="M243.5 394.5a198.125 198.125 0 0 1-25 5h-10c.558-1.29 1.558-2.123 3-2.5a263.523 263.523 0 0 0 32-2.5z"/></svg>