<svg size="28" viewBox="0 0 43 43" fill="none" xmlns="http://www.w3.org/2000/svg">
<path d="M30.3354 18.1523C30.3354 22.9553 26.5699 26.8489 21.925 26.8489C17.2801 26.8489 13.5146 22.9553 13.5146 18.1523C13.5146 22.6574 17.2801 26.3096 21.925 26.3096C26.5699 26.3096 30.3354 22.6574 30.3354 18.1523Z" fill="#7371FC" stroke="#7371FC" stroke-width="0.272212"/>
<path d="M32.085 18.1525C32.085 23.9235 27.5364 28.6019 21.9253 28.6019C16.3142 28.6019 11.7656 23.9235 11.7656 18.1525C11.7656 17.0083 12.0252 15.9084 12.3748 14.8828C12.0252 15.9084 11.9001 17.0083 11.9001 18.1525C11.9001 23.6257 16.3886 27.9454 21.9253 27.9454C27.462 27.9454 31.9505 23.6257 31.9505 18.1525C31.9505 17.0126 31.8322 15.9167 31.4852 14.8944C31.8322 15.9167 32.085 17.0126 32.085 18.1525Z" fill="#7371FC" stroke="#7371FC" stroke-width="0.272212"/>
<path d="M32.4711 12.1769C33.4691 13.9409 34.1036 15.9801 34.1036 18.1527C34.1036 25.0035 28.6512 30.5571 21.9253 30.5571C15.1995 30.5571 9.74707 25.0035 9.74707 18.1527C9.74707 15.9764 10.3888 13.934 11.39 12.168C10.3888 13.934 9.88163 15.9764 9.88163 18.1527C9.88163 24.6684 15.2738 29.7658 21.9253 29.7658C28.5768 29.7658 33.969 24.6684 33.969 18.1527C33.969 15.9801 33.4691 13.9409 32.4711 12.1769Z" fill="#7371FC" stroke="#7371FC" stroke-width="0.272212"/>
<path d="M36.525 18.1517C36.525 26.4173 29.9882 33.118 21.9246 33.118C13.861 33.118 7.32422 26.4173 7.32422 18.1517C7.32422 14.8381 8.49878 11.783 10.3591 9.33594C8.49878 11.783 7.45879 14.8381 7.45879 18.1517C7.45879 25.9705 13.9353 32.158 21.9246 32.158C29.9139 32.158 36.3904 25.9705 36.3904 18.1517C36.3904 14.8407 35.3576 11.7879 33.5 9.34184C35.3576 11.7879 36.525 14.8407 36.525 18.1517Z" fill="#7371FC" stroke="#7371FC" stroke-width="0.272212"/>
<path d="M39.2841 18.151C39.2841 27.5708 31.5122 34.9551 21.9251 34.9551C12.338 34.9551 4.56611 27.5708 4.56611 18.151C4.56611 11.6866 7.99137 6.04199 13.1994 3.01942C7.99137 6.04199 4.36426 11.6866 4.36426 18.151C4.36426 28.0548 12.2265 36.0835 21.9251 36.0835C31.6237 36.0835 39.486 28.0548 39.486 18.151C39.486 11.6727 35.8492 6.01777 30.6226 3C35.8492 6.01777 39.2841 11.6727 39.2841 18.151Z" fill="#7371FC" stroke="#7371FC" stroke-width="0.272212"/>
<path d="M42.85 18.1523C42.85 29.471 33.4816 37.9564 21.925 37.9564C10.3684 37.9564 1 29.471 1 18.1523C1 29.9923 10.3684 39.1362 21.925 39.1362C33.4816 39.1362 42.85 29.9923 42.85 18.1523Z" fill="#7371FC" stroke="#7371FC" stroke-width="0.272212"/>
</svg>
