<svg width="120" height="120" viewBox="0 0 120 120" fill="none" xmlns="http://www.w3.org/2000/svg">
<path d="M118 60.5C118 28.7436 92.2564 3 60.5 3C28.7436 3 3 28.7436 3 60.5C3 92.2564 28.7436 118 60.5 118C92.2564 118 118 92.2564 118 60.5Z" fill="white"/>
<path d="M88.0414 29.5458C88.0414 34.7206 75.4866 38.9157 59.9996 38.9157C44.5125 38.9157 31.958 34.7206 31.958 29.5458C31.958 24.3708 44.5125 20.1758 59.9996 20.1758C75.4866 20.1758 88.0414 24.3708 88.0414 29.5458Z" fill="black"/>
<path d="M106.736 80.4577C106.736 74.0796 95.2945 68.595 78.896 66.1699L78.4713 66.2562C72.9403 67.3474 66.6593 67.9643 60 67.9643C53.1693 67.9643 46.7365 67.3151 41.1037 66.1699C24.7052 68.595 13.2637 74.0796 13.2637 80.4577C13.2637 89.0824 34.188 96.0743 60 96.0743C85.8117 96.0743 106.736 89.0824 106.736 80.4577Z" fill="black"/>
<path d="M97.3893 52.3461C97.3893 46.827 86.6812 42.1445 71.8288 40.4902L71.4456 40.5521C67.911 41.108 64.0473 41.4141 60.0004 41.4141C55.8062 41.4141 51.8097 41.0856 48.1717 40.4907C33.3194 42.1442 22.6113 46.8275 22.6113 52.3461C22.6113 59.2459 39.3508 64.8395 60.0004 64.8395C80.6498 64.8395 97.3893 59.2459 97.3893 52.3461Z" fill="black"/>
<path d="M118 60.5C118 28.7436 92.2564 3 60.5 3C28.7436 3 3 28.7436 3 60.5C3 92.2564 28.7436 118 60.5 118C92.2564 118 118 92.2564 118 60.5Z" stroke="#E5E7EB" stroke-width="4"/>
</svg>
