<?xml version="1.0" encoding="UTF-8"?>
<!DOCTYPE svg PUBLIC "-//W3C//DTD SVG 1.1//EN" "http://www.w3.org/Graphics/SVG/1.1/DTD/svg11.dtd">
<svg xmlns="http://www.w3.org/2000/svg" version="1.1" viewBox="0 0 61 60" style="shape-rendering:geometricPrecision; text-rendering:geometricPrecision; image-rendering:optimizeQuality; fill-rule:evenodd; clip-rule:evenodd" xmlns:xlink="http://www.w3.org/1999/xlink">
<g><path style="opacity:0.935" fill="#040000" d="M 21.5,-0.5 C 26.8333,-0.5 32.1667,-0.5 37.5,-0.5C 49.235,3.56895 56.9017,11.569 60.5,23.5C 60.5,27.5 60.5,31.5 60.5,35.5C 56.9017,47.431 49.235,55.431 37.5,59.5C 32.1667,59.5 26.8333,59.5 21.5,59.5C 10.5,55.8333 3.16667,48.5 -0.5,37.5C -0.5,32.1667 -0.5,26.8333 -0.5,21.5C 3.16667,10.5 10.5,3.16667 21.5,-0.5 Z"/></g>
<g><path style="opacity:1" fill="#ec0000" d="M 18.5,9.5 C 22.1179,12.1006 25.7845,14.7672 29.5,17.5C 33.0959,15.2456 36.4293,12.5789 39.5,9.5C 42.4843,11.9836 45.3176,14.6503 48,17.5C 48.6667,18.8333 48.6667,20.1667 48,21.5C 45.3167,24.0159 42.8167,26.6826 40.5,29.5C 43.7005,32.8642 46.7005,36.3642 49.5,40C 46.9242,44.5984 43.2575,47.5984 38.5,49C 35.6511,45.9838 32.6511,43.1504 29.5,40.5C 26.2,43.4392 22.7,46.1058 19,48.5C 16.0664,45.5664 13.0664,42.5664 10,39.5C 9.33333,38.8333 9.33333,38.1667 10,37.5C 13.0969,34.9114 15.5969,31.9114 17.5,28.5C 15.3788,25.207 13.0455,22.0404 10.5,19C 12.9882,15.6788 15.6549,12.5121 18.5,9.5 Z"/></g>
<g><path style="opacity:1" fill="#b70001" d="M 24.5,21.5 C 22.2367,22.5896 22.07,23.9229 24,25.5C 24.3076,24.6919 24.8076,24.0253 25.5,23.5C 28.7955,23.9874 31.7955,25.1541 34.5,27C 33.2264,27.9772 33.2264,28.8106 34.5,29.5C 34.0825,30.2216 33.4158,30.7216 32.5,31C 33.9456,34.8817 33.2789,35.3817 30.5,32.5C 30.0825,31.7784 29.4158,31.2784 28.5,31C 31.1422,30.4374 31.8088,28.9374 30.5,26.5C 27.1343,26.5432 23.8009,26.5432 20.5,26.5C 18.8518,24.5707 17.1851,22.5707 15.5,20.5C 16.1368,18.6969 17.3035,17.3636 19,16.5C 20.049,18.1066 21.549,18.7733 23.5,18.5C 23.2627,19.791 23.596,20.791 24.5,21.5 Z"/></g>
<g><path style="opacity:1" fill="#a40001" d="M 35.5,24.5 C 32.0136,24.7047 31.0136,23.3714 32.5,20.5C 33.4584,20.0472 34.2917,19.3805 35,18.5C 35.4709,20.2464 36.1376,21.913 37,23.5C 37.3076,22.6919 37.8076,22.0253 38.5,21.5C 39.8333,22.8333 39.8333,24.1667 38.5,25.5C 37.5832,24.8728 36.5832,24.5394 35.5,24.5 Z"/></g>
<g><path style="opacity:1" fill="#5c0501" d="M 32.5,20.5 C 31.0136,23.3714 32.0136,24.7047 35.5,24.5C 35.7214,25.7348 36.3881,26.7348 37.5,27.5C 36.3984,28.1757 35.3984,28.8423 34.5,29.5C 33.2264,28.8106 33.2264,27.9772 34.5,27C 31.7955,25.1541 28.7955,23.9874 25.5,23.5C 24.8076,24.0253 24.3076,24.6919 24,25.5C 22.07,23.9229 22.2367,22.5896 24.5,21.5C 25.1174,21.3893 25.6174,21.056 26,20.5C 26.3678,21.91 27.2011,22.91 28.5,23.5C 29.8518,22.4756 31.1851,21.4756 32.5,20.5 Z"/></g>
<g><path style="opacity:1" fill="#1b0100" d="M 25.5,33.5 C 25.1667,32.1667 24.8333,30.8333 24.5,29.5C 25.9333,28.0466 27.5999,27.2133 29.5,27C 28.0672,29.1731 26.7339,31.3398 25.5,33.5 Z"/></g>
<g><path style="opacity:1" fill="#6b0201" d="M 30.5,32.5 C 28.3379,32.8972 27.0046,34.2305 26.5,36.5C 25.7132,35.7579 25.0465,34.9246 24.5,34C 24.7284,33.6012 25.0618,33.4346 25.5,33.5C 26.7339,31.3398 28.0672,29.1731 29.5,27C 27.5999,27.2133 25.9333,28.0466 24.5,29.5C 22.7697,28.9744 21.4363,27.9744 20.5,26.5C 23.8009,26.5432 27.1343,26.5432 30.5,26.5C 31.8088,28.9374 31.1422,30.4374 28.5,31C 29.4158,31.2784 30.0825,31.7784 30.5,32.5 Z"/></g>
<g><path style="opacity:1" fill="#8f0001" d="M 34.5,32.5 C 37.5983,32.4125 37.9316,32.9125 35.5,34C 35.9574,34.414 36.2907,34.914 36.5,35.5C 34.8307,36.6709 33.3307,38.0042 32,39.5C 30.0543,39.2373 29.3877,38.2373 30,36.5C 30.3333,36.8333 30.6667,37.1667 31,37.5C 33.1718,36.4911 34.3385,34.8244 34.5,32.5 Z"/></g>
</svg>
