<?xml version="1.0" encoding="UTF-8"?>
<!DOCTYPE svg PUBLIC "-//W3C//DTD SVG 1.1//EN" "http://www.w3.org/Graphics/SVG/1.1/DTD/svg11.dtd">
<svg xmlns="http://www.w3.org/2000/svg" version="1.1" width="40px" height="40px" style="shape-rendering:geometricPrecision; text-rendering:geometricPrecision; image-rendering:optimizeQuality; fill-rule:evenodd; clip-rule:evenodd" xmlns:xlink="http://www.w3.org/1999/xlink">
<g><path style="opacity:0.947" fill="#8660f1" d="M 13.5,-0.5 C 17.5,-0.5 21.5,-0.5 25.5,-0.5C 32.1667,2.16667 36.8333,6.83333 39.5,13.5C 39.5,16.8333 39.5,20.1667 39.5,23.5C 37.5887,22.925 35.922,21.925 34.5,20.5C 34.9626,14.4832 32.6293,10.1499 27.5,7.5C 25.081,5.13764 22.081,4.13764 18.5,4.5C 16.8333,3.16667 15.1667,1.83333 13.5,0.5C 13.5,0.166667 13.5,-0.166667 13.5,-0.5 Z"/></g>
<g><path style="opacity:0.942" fill="#7064f1" d="M 13.5,0.5 C 15.1667,1.83333 16.8333,3.16667 18.5,4.5C 15.6538,4.55164 13.3204,5.55164 11.5,7.5C 9.59565,7.73758 8.26231,8.73758 7.5,10.5C 5.4458,10.6347 3.77914,9.96799 2.5,8.5C 5.04672,4.28569 8.71339,1.61902 13.5,0.5 Z"/></g>
<g><path style="opacity:1" fill="#d7cef5" d="M 18.5,4.5 C 22.081,4.13764 25.081,5.13764 27.5,7.5C 22.4641,4.93314 17.4641,4.93314 12.5,7.5C 12.1667,7.5 11.8333,7.5 11.5,7.5C 13.3204,5.55164 15.6538,4.55164 18.5,4.5 Z"/></g>
<g><path style="opacity:1" fill="#7c67f1" d="M 27.5,7.5 C 27.9528,8.45837 28.6195,9.2917 29.5,10C 25.2783,10.0743 21.2783,10.9077 17.5,12.5C 15.5,11.1667 13.8333,9.5 12.5,7.5C 17.4641,4.93314 22.4641,4.93314 27.5,7.5 Z"/></g>
<g><path style="opacity:1" fill="#cccaf2" d="M 11.5,7.5 C 10.5,9.16667 9.16667,10.5 7.5,11.5C 7.5,11.1667 7.5,10.8333 7.5,10.5C 8.26231,8.73758 9.59565,7.73758 11.5,7.5 Z"/></g>
<g><path style="opacity:1" fill="#6567f2" d="M 11.5,7.5 C 11.8333,7.5 12.1667,7.5 12.5,7.5C 13.8333,9.5 15.5,11.1667 17.5,12.5C 17.5,13.1667 17.5,13.8333 17.5,14.5C 16.8826,14.6107 16.3826,14.944 16,15.5C 15.5034,17.8098 15.3367,20.1432 15.5,22.5C 15.631,23.2389 15.4643,23.9056 15,24.5C 12.6378,20.9734 9.80447,17.9734 6.5,15.5C 6.83333,14.1667 7.16667,12.8333 7.5,11.5C 9.16667,10.5 10.5,9.16667 11.5,7.5 Z"/></g>
<g><path style="opacity:1" fill="#e0dbf5" d="M 27.5,7.5 C 32.6293,10.1499 34.9626,14.4832 34.5,20.5C 34.2927,23.2406 33.2927,25.5739 31.5,27.5C 31.5,26.8333 31.1667,26.5 30.5,26.5C 30.8039,25.8501 31.1373,25.1835 31.5,24.5C 29.604,23.5344 27.604,23.2011 25.5,23.5C 25.5,24.8333 25.5,26.1667 25.5,27.5C 25.1667,28.8333 24.8333,28.8333 24.5,27.5C 24.5,26.1667 24.5,24.8333 24.5,23.5C 21.9407,23.1984 19.6074,23.5318 17.5,24.5C 16.6618,24.1583 16.3284,23.4916 16.5,22.5C 18.1992,22.6602 19.8659,22.4935 21.5,22C 18.8062,19.5972 17.9729,16.7639 19,13.5C 18.6174,14.056 18.1174,14.3893 17.5,14.5C 17.5,13.8333 17.5,13.1667 17.5,12.5C 21.2783,10.9077 25.2783,10.0743 29.5,10C 28.6195,9.2917 27.9528,8.45837 27.5,7.5 Z"/></g>
<g><path style="opacity:1" fill="#816bf0" d="M 21.5,15.5 C 20.2264,14.8106 20.2264,13.9772 21.5,13C 28.0778,10.2432 30.9111,12.4099 30,19.5C 28.8867,21.3293 27.3867,22.1626 25.5,22C 27.3959,20.1917 27.8959,18.025 27,15.5C 25.0565,14.193 23.2232,14.193 21.5,15.5 Z"/></g>
<g><path style="opacity:1" fill="#5d6bf2" d="M 6.5,15.5 C 9.80447,17.9734 12.6378,20.9734 15,24.5C 15.4643,23.9056 15.631,23.2389 15.5,22.5C 15.8333,22.5 16.1667,22.5 16.5,22.5C 16.3284,23.4916 16.6618,24.1583 17.5,24.5C 18.2187,26.8881 19.8854,28.3881 22.5,29C 24.856,29.1554 27.1893,29.1554 29.5,29C 28.6195,29.7083 27.9528,30.5416 27.5,31.5C 22.1667,34.1667 16.8333,34.1667 11.5,31.5C 10.5,29.8333 9.16667,28.5 7.5,27.5C 5.6177,23.5682 5.28437,19.5682 6.5,15.5 Z"/></g>
<g><path style="opacity:1" fill="#7b6bf0" d="M 23.5,19.5 C 23.5,18.5 23.5,17.5 23.5,16.5C 24.5,16.5 25.5,16.5 26.5,16.5C 26.5,17.5 26.5,18.5 26.5,19.5C 25.5,19.5 24.5,19.5 23.5,19.5 Z"/></g>
<g><path style="opacity:0.989" fill="#5469f2" d="M 2.5,8.5 C 3.77914,9.96799 5.4458,10.6347 7.5,10.5C 7.5,10.8333 7.5,11.1667 7.5,11.5C 6.03374,12.347 5.20041,13.6803 5,15.5C 4.42135,19.2027 4.58801,22.8694 5.5,26.5C 5.56544,26.9382 5.39877,27.2716 5,27.5C 3.66667,26.1667 2.33333,24.8333 1,23.5C 0.617425,24.056 0.117425,24.3893 -0.5,24.5C -0.5,20.8333 -0.5,17.1667 -0.5,13.5C 0.312714,11.7392 1.31271,10.0725 2.5,8.5 Z"/></g>
<g><path style="opacity:1" fill="#ddddf5" d="M 17.5,14.5 C 16.7347,17.0961 16.4013,19.7628 16.5,22.5C 16.1667,22.5 15.8333,22.5 15.5,22.5C 15.3367,20.1432 15.5034,17.8098 16,15.5C 16.3826,14.944 16.8826,14.6107 17.5,14.5 Z"/></g>
<g><path style="opacity:1" fill="#6f6cf0" d="M 16.5,22.5 C 16.4013,19.7628 16.7347,17.0961 17.5,14.5C 18.1174,14.3893 18.6174,14.056 19,13.5C 17.9729,16.7639 18.8062,19.5972 21.5,22C 19.8659,22.4935 18.1992,22.6602 16.5,22.5 Z"/></g>
<g><path style="opacity:1" fill="#988fee" d="M 21.5,15.5 C 22.1667,16.8333 22.8333,18.1667 23.5,19.5C 24.0367,22.1396 23.2034,22.1396 21,19.5C 20.805,18.1807 20.9717,16.8474 21.5,15.5 Z"/></g>
<g><path style="opacity:1" fill="#cdd2f5" d="M 7.5,11.5 C 7.16667,12.8333 6.83333,14.1667 6.5,15.5C 5.28437,19.5682 5.6177,23.5682 7.5,27.5C 6.83333,27.1667 6.16667,26.8333 5.5,26.5C 4.58801,22.8694 4.42135,19.2027 5,15.5C 5.20041,13.6803 6.03374,12.347 7.5,11.5 Z"/></g>
<g><path style="opacity:1" fill="#8a74ee" d="M 31.5,14.5 C 33.3258,16.4551 33.8258,18.7884 33,21.5C 31.9505,22.5171 30.7839,22.6838 29.5,22C 31.2785,19.8646 31.9452,17.3646 31.5,14.5 Z"/></g>
<g><path style="opacity:1" fill="#756df0" d="M 30.5,26.5 C 28.8828,27.038 27.2161,27.3713 25.5,27.5C 25.5,26.1667 25.5,24.8333 25.5,23.5C 27.604,23.2011 29.604,23.5344 31.5,24.5C 31.1373,25.1835 30.8039,25.8501 30.5,26.5 Z"/></g>
<g><path style="opacity:1" fill="#6d6ef1" d="M 17.5,24.5 C 19.6074,23.5318 21.9407,23.1984 24.5,23.5C 24.5,24.8333 24.5,26.1667 24.5,27.5C 21.7939,27.3122 19.4605,26.3122 17.5,24.5 Z"/></g>
<g><path style="opacity:0.914" fill="#4f6af3" d="M 5.5,26.5 C 6.16667,26.8333 6.83333,27.1667 7.5,27.5C 7.83333,29.8333 9.16667,31.1667 11.5,31.5C 13.6071,33.6515 16.2738,34.6515 19.5,34.5C 22.7262,34.6515 25.3929,33.6515 27.5,31.5C 27.8333,31.5 28.1667,31.5 28.5,31.5C 29.4408,33.0495 30.1075,34.7162 30.5,36.5C 28.9275,37.6873 27.2608,38.6873 25.5,39.5C 21.5,39.5 17.5,39.5 13.5,39.5C 6.83333,36.8333 2.16667,32.1667 -0.5,25.5C -0.5,25.1667 -0.5,24.8333 -0.5,24.5C 0.117425,24.3893 0.617425,24.056 1,23.5C 2.33333,24.8333 3.66667,26.1667 5,27.5C 5.39877,27.2716 5.56544,26.9382 5.5,26.5 Z"/></g>
<g><path style="opacity:1" fill="#bcc5f2" d="M 7.5,27.5 C 9.16667,28.5 10.5,29.8333 11.5,31.5C 9.16667,31.1667 7.83333,29.8333 7.5,27.5 Z"/></g>
<g><path style="opacity:1" fill="#b8b8f1" d="M 17.5,24.5 C 19.4605,26.3122 21.7939,27.3122 24.5,27.5C 24.8333,28.8333 25.1667,28.8333 25.5,27.5C 27.2161,27.3713 28.8828,27.038 30.5,26.5C 31.1667,26.5 31.5,26.8333 31.5,27.5C 31.2624,29.4044 30.2624,30.7377 28.5,31.5C 28.1667,31.5 27.8333,31.5 27.5,31.5C 27.9528,30.5416 28.6195,29.7083 29.5,29C 27.1893,29.1554 24.856,29.1554 22.5,29C 19.8854,28.3881 18.2187,26.8881 17.5,24.5 Z"/></g>
<g><path style="opacity:0.941" fill="#6e65f1" d="M 34.5,20.5 C 35.922,21.925 37.5887,22.925 39.5,23.5C 39.5,24.1667 39.5,24.8333 39.5,25.5C 37.6324,30.0399 34.6324,33.7065 30.5,36.5C 30.1075,34.7162 29.4408,33.0495 28.5,31.5C 30.2624,30.7377 31.2624,29.4044 31.5,27.5C 33.2927,25.5739 34.2927,23.2406 34.5,20.5 Z"/></g>
<g><path style="opacity:1" fill="#d1d6f5" d="M 11.5,31.5 C 16.8333,34.1667 22.1667,34.1667 27.5,31.5C 25.3929,33.6515 22.7262,34.6515 19.5,34.5C 16.2738,34.6515 13.6071,33.6515 11.5,31.5 Z"/></g>
</svg>
