<svg xmlns="http://www.w3.org/2000/svg" xmlns:xlink="http://www.w3.org/1999/xlink" id="body_1" viewBox="0 0 399 300">
<g transform="matrix(2.0891366 0 0 2.0891366 69.76463 -0)">
    <path d="M71.8 28L81.8 28L81.8 43.1L71.8 43.1z" stroke="none" fill="#1682FE" fill-rule="nonzero" />
    <path d="M43.1 0L53.1 0L53.1 15.1L43.1 15.1z" stroke="none" fill="#1682FE" fill-rule="nonzero" />
    <path d="M14.4 14.4L24.4 14.4L24.4 29.5L14.4 29.5z" stroke="none" fill="#60D8A4" fill-rule="nonzero" />
    <path d="M0 71.8L10.1 71.8L10.1 114.9L0 114.9z" stroke="none" fill="#F4BB3B" fill-rule="nonzero" />
    <path d="M0 28.7L10.1 28.7L10.1 71.8L0 71.8z" stroke="none" fill="#60D8A4" fill-rule="nonzero" />
    <path d="M86.1 42.4L96.1 42.4L96.1 57.5L86.1 57.5z" stroke="none" fill="#1682FE" fill-rule="nonzero" />
    <path d="M86.1 86.1L96.1 86.1L96.1 101.2L86.1 101.2z" stroke="none" fill="#FF5A5A" fill-rule="nonzero" />
    <path d="M71.8 100.5L81.8 100.5L81.8 115.6L71.8 115.6z" stroke="none" fill="#FF5A5A" fill-rule="nonzero" />
    <path d="M43.1 128.5L53.1 128.5L53.1 143.6L43.1 143.6z" stroke="none" fill="#FF5A5A" fill-rule="nonzero" />
    <path d="M14.4 114.1L24.4 114.1L24.4 129.2L14.4 129.2z" stroke="none" fill="#F4BB3B" fill-rule="nonzero" />
    <path d="M124.2 57.4L124.2 28.7L109.799995 28.7L109.799995 14.4L81.1 14.4L81.1 0L52.4 0L52.4 14.4L23.7 14.4L23.7 28.8L9.3 28.8L9.3 114.899994L23.7 114.899994L23.7 129.29999L52.4 129.29999L52.4 143.69998L81.100006 143.69998L81.100006 129.29999L109.8 129.29999L109.8 114.89999L124.200005 114.89999L124.200005 86.1L95.5 86.1L95.5 100.5L81.1 100.5L81.1 114.9L52.4 114.9L52.4 100.5L38.1 100.5L38.1 43.1L52.5 43.1L52.5 28.7L81.2 28.7L81.2 43.1L95.6 43.1L95.6 57.5L124.2 57.5L124.2 57.4z" stroke="none" fill="#3A3A3A" fill-rule="nonzero" />
</g>
</svg>