<svg xmlns="http://www.w3.org/2000/svg" width="415" height="418" style="shape-rendering:geometricPrecision;text-rendering:geometricPrecision;image-rendering:optimizeQuality;fill-rule:evenodd;clip-rule:evenodd"><path style="opacity:1" fill="#e20300" d="m153.5 1.5 27 6c3.858 6.083 6.192 12.75 7 20a469.17 469.17 0 0 0-21-4 54.641 54.641 0 0 0 4 12.5c-5.323.5-10.656.666-16 .5.111-.617.444-1.117 1-1.5a71.634 71.634 0 0 1-6-12.5 87.995 87.995 0 0 1 16-.5 151.742 151.742 0 0 0-5-10.5 54.872 54.872 0 0 0-7-10z"/><path style="opacity:1" fill="#8f0100" d="M98.5 6.5c6.372 1.77 12.205 4.77 17.5 9 .204 3.26-.963 5.927-3.5 8a71.692 71.692 0 0 1-12.5-6c-1.088 2.432-1.588 2.098-1.5-1a78.03 78.03 0 0 1-10.5-2c-1.326.255-2.326.922-3 2-2.24 5.95-3.406 12.45-3.5 19.5.223 5.846.556 11.679 1 17.5a18.436 18.436 0 0 1 6 .5c-1.634.493-3.3.66-5 .5a76.28 76.28 0 0 0 2 14c-5.014 2.217-10.181 2.884-15.5 2a464.301 464.301 0 0 1-4.5-30c9.333-.333 9.333-.667 0-1-.197-10.288 2.803-18.788 9-25.5 2.407-2.183 4.74-4.35 7-6.5.342-.838 1.008-1.172 2-1 5.437-.542 10.437-.542 15 0z"/><path style="opacity:1" fill="#d00200" d="M160.5 11.5a151.742 151.742 0 0 1 5 10.5 87.995 87.995 0 0 0-16 .5 71.634 71.634 0 0 0 6 12.5c-.556.383-.889.883-1 1.5a70.523 70.523 0 0 0-9 1.5 53.871 53.871 0 0 0-6 6.5 142.9 142.9 0 0 0-10-16.5c5.349-4.741 11.682-7.074 19-7a1873.786 1873.786 0 0 0-7-11c6.259.491 12.592.991 19 1.5z"/><path style="opacity:1" fill="#820000" d="M112.5 23.5a32.615 32.615 0 0 1-2 10.5c1.333 4.333 1.333 8.667 0 13a49.257 49.257 0 0 1 3 13l-1 1.5-13-5.5a15.276 15.276 0 0 1-1.5-4.5 15.276 15.276 0 0 1-1.5 4.5c2.124 4.902 3.124 10.069 3 15.5-1.951.273-3.451-.393-4.5-2-2.832 1.286-5.665 1.286-8.5 0-.667 0-1-.333-1-1a76.28 76.28 0 0 1-2-14c1.7.16 3.366-.007 5-.5a18.436 18.436 0 0 0-6-.5 461.068 461.068 0 0 1-1-17.5c.094-7.05 1.26-13.55 3.5-19.5.674-1.078 1.674-1.745 3-2a78.03 78.03 0 0 0 10.5 2c-.088 3.098.412 3.432 1.5 1a71.692 71.692 0 0 0 12.5 6z"/><path style="opacity:1" fill="#fd2600" d="M180.5 7.5a408.103 408.103 0 0 1 61 20c1.429.734 2.429 1.9 3 3.5a38.303 38.303 0 0 0-3.5 11.5c-.388.928-1.055 1.595-2 2-8.818-3.385-17.318-6.385-25.5-9a18.452 18.452 0 0 0-.5-6c-.121 2.227-.954 4.06-2.5 5.5 1.877 3.493 2.544 7.327 2 11.5a310.116 310.116 0 0 0-24-5.5 86.093 86.093 0 0 1 3 15.5l-18-3c-4.497.556-8.664-.111-12.5-2a4.934 4.934 0 0 0-.5 3c-3.073-.047-5.406 1.12-7 3.5a143.975 143.975 0 0 1 6 20.5v2c-2.272.411-2.605 1.578-1 3.5-.259 1.261-.926 2.261-2 3 1.801.317 2.134.984 1 2 1.801.317 2.134.984 1 2 1.521 2.813 3.354 5.98 5.5 9.5a3479.398 3479.398 0 0 0 6.5 53v3a106.482 106.482 0 0 1-7.5-12c-1.604-2.959-2.771-5.959-3.5-9-.289-3.606.044-7.106 1-10.5a1872.97 1872.97 0 0 1-7.5-46.5c-2.684-9.703-7.184-18.37-13.5-26v-8a53.871 53.871 0 0 1 6-6.5 70.523 70.523 0 0 1 9-1.5c5.344.166 10.677 0 16-.5a54.641 54.641 0 0 1-4-12.5 469.17 469.17 0 0 1 21 4c-.808-7.25-3.142-13.917-7-20z"/><path style="opacity:1" fill="#960600" d="M130.5 84.5c.262 1.478-.071 2.811-1 4a75.556 75.556 0 0 1-12.5-10 90.646 90.646 0 0 0 .5 17c-5.327-1.278-10.161-3.611-14.5-7a6.291 6.291 0 0 1-3 1c-3.998-1.605-8.165-2.271-12.5-2-.646-4.577-1.313-9.577-2-15a10.028 10.028 0 0 1 1-3c2.835 1.286 5.668 1.286 8.5 0 1.049 1.607 2.549 2.273 4.5 2 .124-5.431-.876-10.598-3-15.5a15.276 15.276 0 0 0 1.5-4.5 15.276 15.276 0 0 0 1.5 4.5l13 5.5 1-1.5a49.257 49.257 0 0 0-3-13c1.333-4.333 1.333-8.667 0-13a32.615 32.615 0 0 0 2-10.5c2.537-2.073 3.704-4.74 3.5-8-5.295-4.23-11.128-7.23-17.5-9-.418-.722-1.084-1.222-2-1.5 7.396-4.464 14.729-4.464 22 0l8 6a59.026 59.026 0 0 1-9 5c3.68 4.345 7.347 8.678 11 13-1.567 5.003-2.233 10.17-2 15.5a333.004 333.004 0 0 0 4 40z"/><path style="opacity:1" fill="#b80a01" d="M112.5-.5h25c5.146 1.051 10.479 1.718 16 2a54.872 54.872 0 0 1 7 10c-6.408-.509-12.741-1.009-19-1.5 2.364 3.687 4.698 7.354 7 11-7.318-.074-13.651 2.259-19 7a142.9 142.9 0 0 1 10 16.5v8a669.055 669.055 0 0 1 4.5 36c1.317 1.18 1.484 2.68.5 4.5a297.62 297.62 0 0 1 3 30.5 495.74 495.74 0 0 1 0 16 177.566 177.566 0 0 1-1.5-19 210.447 210.447 0 0 0-12.5-12 240.803 240.803 0 0 0-3-24 333.004 333.004 0 0 1-4-40c-.233-5.33.433-10.497 2-15.5-3.653-4.322-7.32-8.655-11-13a59.026 59.026 0 0 0 9-5l-8-6c-7.271-4.464-14.604-4.464-22 0 .916.278 1.582.778 2 1.5-4.563-.542-9.563-.542-15 0 9.262-4.202 18.929-6.536 29-7z"/><path style="opacity:1" fill="#fe4000" d="M241.5 27.5a481.13 481.13 0 0 1 38 16c-3.132 1.636-5.799 3.802-8 6.5l1 1a19.215 19.215 0 0 0-3 6.5c-9.307-3.985-18.641-7.985-28-12-1.526 3.154-2.193 6.487-2 10-8.983-2.66-17.983-5.327-27-8v14a481.7 481.7 0 0 1-21-5 86.093 86.093 0 0 0-3-15.5 310.116 310.116 0 0 1 24 5.5c.544-4.173-.123-8.007-2-11.5 1.546-1.44 2.379-3.273 2.5-5.5.495 1.973.662 3.973.5 6 8.182 2.615 16.682 5.615 25.5 9 .945-.405 1.612-1.072 2-2a38.303 38.303 0 0 1 3.5-11.5c-.571-1.6-1.571-2.766-3-3.5z"/><path style="opacity:1" fill="#ad0600" d="M81.5 7.5a398.572 398.572 0 0 1-7 6.5c-6.197 6.712-9.197 15.212-9 25.5 9.333.333 9.333.667 0 1a464.301 464.301 0 0 0 4.5 30c5.319.884 10.486.217 15.5-2 0 .667.333 1 1 1a10.028 10.028 0 0 0-1 3c.687 5.423 1.354 10.423 2 15 .52 8.327 1.02 16.66 1.5 25a34.21 34.21 0 0 1 1.5-8 76.619 76.619 0 0 0 13 2v16c-1.291-.237-2.291.096-3 1a56.462 56.462 0 0 0-12-2 99.611 99.611 0 0 1-14 1.5c.151-5.015.151-10.182 0-15.5a595.87 595.87 0 0 0-4.5-34 3.646 3.646 0 0 0-1.5-1 157.986 157.986 0 0 1-13 5 1708.042 1708.042 0 0 0-5-30.5c.298-10.071 3.632-18.905 10-26.5 6.153-5.583 13.153-9.916 21-13z"/><path style="opacity:1" fill="#fe5700" d="M269.5 57.5a58.772 58.772 0 0 1-4 10l-26-11a76.058 76.058 0 0 0-2 9v4l-24-7c0-.667-.333-1-1-1v-14c9.017 2.673 18.017 5.34 27 8-.193-3.513.474-6.846 2-10 9.359 4.015 18.693 8.015 28 12z"/><path style="opacity:1" fill="#fe5500" d="M279.5 43.5a249.354 249.354 0 0 1 34 17 18.437 18.437 0 0 0-6 .5 22.146 22.146 0 0 1-7 4l1 1c-1.939 1.432-3.272 3.265-4 5.5h-1a513.732 513.732 0 0 0-27-14 19.215 19.215 0 0 1 3-6.5l-1-1c2.201-2.698 4.868-4.864 8-6.5z"/><path style="opacity:1" fill="#fe4b00" d="M173.5 53.5a120.749 120.749 0 0 1 3 20c-6.582-1.124-12.249.543-17 5a143.975 143.975 0 0 0-6-20.5c1.594-2.38 3.927-3.547 7-3.5a4.934 4.934 0 0 1 .5-3c3.836 1.889 8.003 2.556 12.5 2z"/><path style="opacity:1" fill="#ff6800" d="m173.5 53.5 18 3a481.7 481.7 0 0 0 21 5c.667 0 1 .333 1 1-.988 5.14-1.321 10.474-1 16l-18-3c-5.46-1.237-11.127-1.904-17-2h-1a120.749 120.749 0 0 0-3-20z"/><path style="opacity:1" fill="#fe2100" d="M44.5 36.5c-.086.996.248 1.83 1 2.5l-3 1 1 1a6.975 6.975 0 0 0-3.5 2.5 117.914 117.914 0 0 0-2.5 15 557.005 557.005 0 0 0 8 46 5239.245 5239.245 0 0 0-10 14c-4.383-13.91-7.383-28.243-9-43 .272-5.857.939-11.857 2-18a126.6 126.6 0 0 1 16-21z"/><path style="opacity:1" fill="#ff6d00" d="M269.5 57.5a513.732 513.732 0 0 1 27 14 71.11 71.11 0 0 1-3 9h-1a162.557 162.557 0 0 0-27-12c-.2 3.13-.866 6.13-2 9 .03.997-.47 1.664-1.5 2a684.126 684.126 0 0 0-23.5-9c.284-1.915-.049-3.581-1-5a76.058 76.058 0 0 1 2-9l26 11a58.772 58.772 0 0 0 4-10z"/><path style="opacity:1" fill="#fe6f00" d="M313.5 60.5a183.131 183.131 0 0 1 27 16c-7.445.808-13.611 4.141-18.5 10a641.375 641.375 0 0 1-24.5-15c.728-2.235 2.061-4.068 4-5.5l-1-1a22.146 22.146 0 0 0 7-4 18.437 18.437 0 0 1 6-.5z"/><path style="opacity:1" fill="#ff7f00" d="m213.5 62.5 24 7v-4c.951 1.419 1.284 3.085 1 5-.722.418-1.222 1.084-1.5 2-.228 4.417-.728 8.75-1.5 13a410.817 410.817 0 0 0-22-6c0-.667-.333-1-1-1-.321-5.526.012-10.86 1-16z"/><path style="opacity:1" fill="#d60700" d="M60.5 20.5c-6.368 7.595-9.702 16.429-10 26.5a1708.042 1708.042 0 0 1 5 30.5 90.83 90.83 0 0 0 3 17c-.363.683-.696 1.35-1 2a105.817 105.817 0 0 1-11 9c0-.667-.333-1-1-1a557.005 557.005 0 0 1-8-46 117.914 117.914 0 0 1 2.5-15 6.975 6.975 0 0 1 3.5-2.5l-1-1 3-1c-.752-.67-1.086-1.504-1-2.5a19.16 19.16 0 0 1 2.5-5 201.897 201.897 0 0 1 13.5-11z"/><path style="opacity:1" fill="#fe8200" d="M292.5 80.5a102.898 102.898 0 0 0-3 11h-1l-24-11c.237-1.291-.096-2.291-1-3 1.134-2.87 1.8-5.87 2-9a162.557 162.557 0 0 1 27 12z"/><path style="opacity:1" fill="#ff9000" d="M238.5 70.5a684.126 684.126 0 0 1 23.5 9c1.03-.336 1.53-1.003 1.5-2 .904.709 1.237 1.709 1 3-.617.11-1.117.444-1.5 1-.836 4.353-1.669 8.687-2.5 13a168.854 168.854 0 0 0-24-8c0-.667-.333-1-1-1 .772-4.25 1.272-8.583 1.5-13 .278-.916.778-1.582 1.5-2z"/><path style="opacity:1" fill="#fe8a00" d="M177.5 73.5c5.873.096 11.54.763 17 2-1.117 6.178-1.117 12.511 0 19h-15a894.416 894.416 0 0 0-2-21z"/><path style="opacity:1" fill="#fe7b00" d="M176.5 73.5h1a894.416 894.416 0 0 1 2 21c-4.638.19-8.638 1.857-12 5a44.043 44.043 0 0 0-2-1 316.277 316.277 0 0 1-4.5-17c-.383-.556-.883-.89-1.5-1v-2c4.751-4.457 10.418-6.124 17-5z"/><path style="opacity:1" fill="#e21403" d="M139.5 52.5c6.316 7.63 10.816 16.297 13.5 26a1872.97 1872.97 0 0 0 7.5 46.5c-.956 3.394-1.289 6.894-1 10.5.172.992-.162 1.658-1 2l-11-14a297.62 297.62 0 0 0-3-30.5c.984-1.82.817-3.32-.5-4.5a669.055 669.055 0 0 0-4.5-36z"/><path style="opacity:1" fill="#fe9700" d="m194.5 75.5 18 3c.667 0 1 .333 1 1l-2 18a445.47 445.47 0 0 1-17-2c-2.235.295-4.235-.039-6-1h6c-1.117-6.489-1.117-12.822 0-19z"/><path style="opacity:1" fill="#fe8400" d="M296.5 71.5h1a641.375 641.375 0 0 0 24.5 15c4.889-5.859 11.055-9.192 18.5-10a208.504 208.504 0 0 1 22 17c-1.014 1.265-2.514 1.931-4.5 2a14.443 14.443 0 0 1-5-1 51.902 51.902 0 0 0-11 8 639.666 639.666 0 0 0-19.5-15 47.154 47.154 0 0 0-6 7c-7.455-4.264-15.122-8.93-23-14a71.11 71.11 0 0 0 3-9z"/><path style="opacity:1" fill="#fea600" d="M213.5 79.5a410.817 410.817 0 0 1 22 6c.667 0 1 .333 1 1-.825 4.147-1.325 8.48-1.5 13-.236 1.619-1.069 2.619-2.5 3a404.972 404.972 0 0 1-21-5l2-18z"/><path style="opacity:1" fill="#fea400" d="m264.5 80.5 24 11a44.728 44.728 0 0 1-3 11c.131.876-.202 1.543-1 2a541.944 541.944 0 0 0-24-10c.831-4.313 1.664-8.647 2.5-13 .383-.556.883-.89 1.5-1z"/><path style="opacity:1" fill="#feb500" d="M236.5 86.5a168.854 168.854 0 0 1 24 8 458.97 458.97 0 0 1-2 16l-24-7c-.992.172-1.658-.162-2-1 1.431-.381 2.264-1.381 2.5-3 .175-4.52.675-8.853 1.5-13z"/><path style="opacity:1" fill="#a61102" d="M130.5 84.5a240.803 240.803 0 0 1 3 24c.287 7.155.287 14.155 0 21a246.697 246.697 0 0 1-2-7c-4.95-3.574-9.617-6.74-14-9.5a276.037 276.037 0 0 1-12-5.5l-1 8c.062 3.113.729 5.946 2 8.5a17.65 17.65 0 0 1-6-.5c.709-.904 1.709-1.237 3-1v-16a76.619 76.619 0 0 1-13-2 34.21 34.21 0 0 0-1.5 8c-.48-8.34-.98-16.673-1.5-25 4.335-.271 8.502.395 12.5 2a6.291 6.291 0 0 0 3-1c4.339 3.389 9.173 5.722 14.5 7a90.646 90.646 0 0 1-.5-17 75.556 75.556 0 0 0 12.5 10c.929-1.189 1.262-2.522 1-4z"/><path style="opacity:1" fill="#c40b01" d="M74.5 107.5c-5.33 1.332-9.997 3.665-14 7 .127-6.095-.873-12.095-3-18 .304-.65.637-1.317 1-2a90.83 90.83 0 0 1-3-17 157.986 157.986 0 0 0 13-5c.586.21 1.086.543 1.5 1a595.87 595.87 0 0 1 4.5 34z"/><path style="opacity:1" fill="#fdbe01" d="M179.5 94.5h9c1.765.961 3.765 1.295 6 1 .002 7.02.335 14.02 1 21-8.363-1.112-16.03.555-23 5-3.752-7.254-6.085-14.921-7-23 .65.304 1.317.637 2 1 3.362-3.143 7.362-4.81 12-5z"/><path style="opacity:1" fill="#fdc400" d="M260.5 94.5a541.944 541.944 0 0 1 24 10c.798-.457 1.131-1.124 1-2 .904.709 1.237 1.709 1 3-.617.111-1.117.444-1.5 1a89.36 89.36 0 0 0-2.5 13 341.444 341.444 0 0 1-24-9 458.97 458.97 0 0 0 2-16z"/><path style="opacity:1" fill="#feaf00" d="M288.5 91.5h1a178.34 178.34 0 0 0 22 13 62.728 62.728 0 0 1 6-9l19 14a25.658 25.658 0 0 1 6-6 229.787 229.787 0 0 1 13 15 46.081 46.081 0 0 1-5.5 6 119.16 119.16 0 0 1-12.5-13.5c-2.908 1.509-5.075 4.009-6.5 7.5a564.555 564.555 0 0 1-18.5-13c-1.54 3.769-3.54 7.103-6 10l-20-10c.237-1.291-.096-2.291-1-3a44.728 44.728 0 0 0 3-11z"/><path style="opacity:.99" fill="#fe9b00" d="M292.5 80.5h1c7.878 5.07 15.545 9.736 23 14a47.154 47.154 0 0 1 6-7 639.666 639.666 0 0 1 19.5 15 51.902 51.902 0 0 1 11-8c1.569.622 3.236.956 5 1 1.986-.069 3.486-.735 4.5-2 8.612 6.612 16.279 14.279 23 23a50.132 50.132 0 0 1-11.5-5c-6.46.915-12.293 3.249-17.5 7h-1a229.787 229.787 0 0 0-13-15 25.658 25.658 0 0 0-6 6l-19-14a62.728 62.728 0 0 0-6 9 178.34 178.34 0 0 1-22-13c.797-3.723 1.797-7.39 3-11z"/><path style="opacity:1" fill="#fdd301" d="M194.5 95.5a445.47 445.47 0 0 0 17 2 404.972 404.972 0 0 0 21 5c.342.838 1.008 1.172 2 1 .14 6.036-.193 12.036-1 18a225.144 225.144 0 0 0-33-4c-1.419-.951-3.085-1.284-5-1-.665-6.98-.998-13.98-1-21z"/><path style="opacity:1" fill="#fde201" d="m234.5 103.5 24 7a734.875 734.875 0 0 1-2 17l-22-5c0-.667-.333-1-1-1a114.269 114.269 0 0 0 1-18z"/><path style="opacity:1" fill="#fe5800" d="M28.5 57.5c-1.061 6.143-1.728 12.143-2 18 1.617 14.757 4.617 29.09 9 43 .277 5.386.944 10.719 2 16a108.955 108.955 0 0 0-8 16c-.617-.111-1.117-.444-1.5-1-.74-4.902-1.908-9.568-3.5-14-1.358-10.403-3.524-20.403-6.5-30-1.914-9.418-1.747-18.752.5-28a139.97 139.97 0 0 1 10-20z"/><path style="opacity:1" fill="#fdd601" d="m286.5 105.5 20 10c0 .667.333 1 1 1a53.768 53.768 0 0 0-2 10 44.093 44.093 0 0 0-2 3 301.155 301.155 0 0 0-21-10 89.36 89.36 0 0 1 2.5-13c.383-.556.883-.889 1.5-1z"/><path style="opacity:1" fill="#fd9101" d="M18.5 77.5c-2.247 9.248-2.414 18.582-.5 28 2.976 9.597 5.142 19.597 6.5 30a106.364 106.364 0 0 1-7 18 353.915 353.915 0 0 1-10-42c2.487-11.791 6.153-23.125 11-34z"/><path style="opacity:1" fill="#fb6905" d="M159.5 80.5c.617.11 1.117.444 1.5 1a316.277 316.277 0 0 0 4.5 17c.915 8.079 3.248 15.746 7 23a140.29 140.29 0 0 1 4 16 1042.249 1042.249 0 0 1 3 32c-.002 3.186-.335 6.186-1 9a91.516 91.516 0 0 0-6.5-17c-.183-2.865-.683-5.531-1.5-8a3479.398 3479.398 0 0 1-6.5-53c-2.146-3.52-3.979-6.688-5.5-9.5 1.134-1.016.801-1.683-1-2 1.134-1.016.801-1.683-1-2 1.074-.739 1.741-1.739 2-3-1.605-1.922-1.272-3.089 1-3.5z"/><path style="opacity:1" fill="#f9f101" d="M258.5 110.5a341.444 341.444 0 0 0 24 9 413.47 413.47 0 0 1-3 15 459.194 459.194 0 0 1-23-7 734.875 734.875 0 0 0 2-17z"/><path style="opacity:1" fill="#f91800" d="M57.5 96.5c2.127 5.905 3.127 11.905 3 18a174.38 174.38 0 0 1 2 28l-10 9c-.977-2.787-1.31-5.787-1-9a632.035 632.035 0 0 0-5-37 105.817 105.817 0 0 0 11-9z"/><path style="opacity:1" fill="#feb300" d="M385.5 116.5a308.607 308.607 0 0 1 3 4c-.543.06-.876.393-1 1a291.312 291.312 0 0 1 5 12.5c-4.028-1.242-7.862-3.075-11.5-5.5a147.238 147.238 0 0 1-10.5 2 4.933 4.933 0 0 1-2.5-1c-1.352 2.249-3.185 3.916-5.5 5-2.571-5.037-4.571-10.371-6-16 5.207-3.751 11.04-6.085 17.5-7a50.132 50.132 0 0 0 11.5 5z"/><path style="opacity:1" fill="#f1f708" d="M195.5 116.5c1.915-.284 3.581.049 5 1h-5v21a106.76 106.76 0 0 0-12 2.5c-2.044.498-3.378 1.665-4 3.5a60.379 60.379 0 0 0-3-7 140.29 140.29 0 0 0-4-16c6.97-4.445 14.637-6.112 23-5z"/><path style="opacity:1" fill="#e6fe11" d="M200.5 117.5a225.144 225.144 0 0 1 33 4c.667 0 1 .333 1 1-.99 5.81-1.323 11.81-1 18h-3a265.937 265.937 0 0 0-35-2v-21h5z"/><path style="opacity:1" fill="#c90e02" d="M133.5 129.5c-.992 3.279-1.159 6.612-.5 10 1.481.971 2.315 2.304 2.5 4l-4-3a61.221 61.221 0 0 0-12.5-10 76.016 76.016 0 0 0-3 13 3.647 3.647 0 0 1-1.5 1c-8.125-4.375-16.792-6.709-26-7a4.932 4.932 0 0 1-.5 3 20.438 20.438 0 0 0-1.5-5.5c1.899-4.178 2.565-8.678 2-13.5 4.106.24 8.106.907 12 2a17.65 17.65 0 0 0 6 .5c-1.271-2.554-1.938-5.387-2-8.5l1-8a276.037 276.037 0 0 0 12 5.5c4.383 2.76 9.05 5.926 14 9.5a246.697 246.697 0 0 0 2 7z"/><path style="opacity:1" fill="#fce801" d="M307.5 116.5c12.257 6.831 22.59 15.164 31 25-.354 3.73-1.687 7.063-4 10a211.31 211.31 0 0 0-13-11.5 169.27 169.27 0 0 1-15-9c-.88-1.356-1.214-2.856-1-4.5a53.768 53.768 0 0 1 2-10z"/><path style="opacity:1" fill="#fc3f02" d="M45.5 104.5c.667 0 1 .333 1 1a632.035 632.035 0 0 1 5 37c-.823 3.477-1.323 7.144-1.5 11a101.983 101.983 0 0 0-7.5 10c-.904-.709-1.237-1.709-1-3a405.081 405.081 0 0 0-4-26 110.479 110.479 0 0 1-2-16c3.343-4.696 6.676-9.363 10-14z"/><path style="opacity:1" fill="#de0a02" d="M133.5 108.5a210.447 210.447 0 0 1 12.5 12c.172 6.513.672 12.847 1.5 19a70.84 70.84 0 0 0-2 14h-1l-9-10c-.185-1.696-1.019-3.029-2.5-4-.659-3.388-.492-6.721.5-10 .287-6.845.287-13.845 0-21z"/><path style="opacity:1" fill="#fbd303" d="M7.5 111.5a353.915 353.915 0 0 0 10 42c1.333 1.333 1.333 2.667 0 4a309.348 309.348 0 0 0-5 17 2.427 2.427 0 0 1-.5 2c-4.363-14.543-7.53-29.209-9.5-44a197.186 197.186 0 0 0 5-21z"/><path style="opacity:1" fill="#d3fe24" d="m234.5 122.5 22 5a459.194 459.194 0 0 0 23 7 401.882 401.882 0 0 0 21 9c1.505-2.631 2.171-2.297 2 1-.617.111-1.117.444-1.5 1a121.16 121.16 0 0 0-1.5 13 342.796 342.796 0 0 0-66-17c-1.291.237-2.291-.096-3-1h3c-.323-6.19.01-12.19 1-18z"/><path style="opacity:1" fill="#e5fd13" d="M282.5 119.5a301.155 301.155 0 0 1 21 10 44.093 44.093 0 0 1 2-3c-.214 1.644.12 3.144 1 4.5a169.27 169.27 0 0 0 15 9 211.31 211.31 0 0 1 13 11.5c2.313-2.937 3.646-6.27 4-10h1c1.438 4.713 3.771 8.88 7 12.5.163 8.32-3.504 14.153-11 17.5-.341-3.016-1.507-5.682-3.5-8l-11-9c-.419-4.352-1.086-4.685-2-1a131.877 131.877 0 0 0-16.5-9c.171-3.297-.495-3.631-2-1a401.882 401.882 0 0 1-21-9 413.47 413.47 0 0 0 3-15z"/><path style="opacity:1" fill="#fdc501" d="M388.5 120.5c2.719 1.719 4.719 4.053 6 7-.543.06-.876.393-1 1 1.803 3.571 2.97 7.238 3.5 11l-3-3a77.722 77.722 0 0 0-3 14l-1 1c-1.638-2.234-3.805-3.567-6.5-4-3.082-1.681-6.415-2.348-10-2-.333-8-.667-8-1 0-2.292.256-4.459-.077-6.5-1-1.262 1.803-2.929 3.136-5 4a77.559 77.559 0 0 1 1.5-14c2.315-1.084 4.148-2.751 5.5-5a4.933 4.933 0 0 0 2.5 1 147.238 147.238 0 0 0 10.5-2c3.638 2.425 7.472 4.258 11.5 5.5a291.312 291.312 0 0 0-5-12.5c.124-.607.457-.94 1-1z"/><path style="opacity:1" fill="#b6fe40" d="M195.5 138.5a265.937 265.937 0 0 1 35 2c.709.904 1.709 1.237 3 1a111.911 111.911 0 0 0-1 19c-6.338-.267-12.671-.6-19-1-.333-18.667-.667-18.667-1 0-5.521.282-10.854.949-16 2l-12 2a132.657 132.657 0 0 1-5-19c.622-1.835 1.956-3.002 4-3.5a106.76 106.76 0 0 1 12-2.5z"/><path style="opacity:1" fill="#fc1e01" d="m147.5 123.5 11 14c.607 2.246.94 4.579 1 7-.341 7.616-1.508 15.282-3.5 23a232.4 232.4 0 0 0-10.5-14 70.84 70.84 0 0 1 2-14 495.74 495.74 0 0 0 0-16z"/><path style="opacity:1" fill="#a8fe4e" d="M233.5 141.5a342.796 342.796 0 0 1 66 17 222.495 222.495 0 0 0 18 8.5c3.662 2.632 6.995 5.466 10 8.5-4.297 1.155-8.297 2.821-12 5h-2c-10.983-5.671-22.649-9.671-35-12a98.432 98.432 0 0 0-.5-14 84.902 84.902 0 0 0-.5 13 639.29 639.29 0 0 1-22-4h-1a308.379 308.379 0 0 0-22-3 111.911 111.911 0 0 1 1-19z"/><path style="opacity:1" fill="#fb4103" d="M62.5 142.5c3.743-.041 3.91.626.5 2a40.939 40.939 0 0 0-.5 9 36.28 36.28 0 0 0-2 4.5c1.303 4.166 1.303 8.333 0 12.5a54.199 54.199 0 0 0-7.5 5l-1.5-7.5c.285-1.89 1.285-3.223 3-4-.95-.617-1.782-.451-2.5.5-.768-4.42-.602-8.753.5-13l10-9z"/><path style="opacity:1" fill="#c2fe34" d="M302.5 144.5a131.877 131.877 0 0 1 16.5 9c.914-3.685 1.581-3.352 2 1l11 9c1.993 2.318 3.159 4.984 3.5 8l-8 4c-3.005-3.034-6.338-5.868-10-8.5a222.495 222.495 0 0 1-18-8.5 121.16 121.16 0 0 1 1.5-13c.383-.556.883-.889 1.5-1z"/><path style="opacity:1" fill="#fcce02" d="M355.5 118.5h1c1.429 5.629 3.429 10.963 6 16a77.559 77.559 0 0 0-1.5 14c2.071-.864 3.738-2.197 5-4 2.041.923 4.208 1.256 6.5 1 .333-8 .667-8 1 0 3.585-.348 6.918.319 10 2 .111.617.444 1.117 1 1.5a323.405 323.405 0 0 1-10.5 13.5c-2.071-.864-3.738-2.197-5-4-4.761 3.668-10.594 7.835-17.5 12.5-2 .667-4 .667-6 0l16-11a45.304 45.304 0 0 0-10 0 170.755 170.755 0 0 0 8-9.5l-.5-1a13.92 13.92 0 0 1-4 3l-.5-1.5a47.558 47.558 0 0 0 1.5-11.5 46.01 46.01 0 0 0-5.5 6 103.856 103.856 0 0 0-6.5-12 47.404 47.404 0 0 0-4.5 8h-1c-8.41-9.836-18.743-18.169-31-25-.667 0-1-.333-1-1 2.46-2.897 4.46-6.231 6-10a564.555 564.555 0 0 0 18.5 13c1.425-3.491 3.592-5.991 6.5-7.5a119.16 119.16 0 0 0 12.5 13.5 46.081 46.081 0 0 0 5.5-6z"/><path style="opacity:1" fill="#e61404" d="M74.5 107.5c.151 5.318.151 10.485 0 15.5a99.611 99.611 0 0 0 14-1.5c.565 4.822-.101 9.322-2 13.5a20.438 20.438 0 0 1 1.5 5.5c.483-.948.65-1.948.5-3 9.208.291 17.875 2.625 26 7a3.647 3.647 0 0 0 1.5-1 76.016 76.016 0 0 1 3-13 61.221 61.221 0 0 1 12.5 10 62.848 62.848 0 0 1-2 12 4.933 4.933 0 0 0 1 2.5c-1.167.5-2 1.333-2.5 2.5l-1-4-11-8c-1.563 4.918-2.73 9.585-3.5 14a215.826 215.826 0 0 0-12.5-6c-.805 2.401-1.638 2.234-2.5-.5a93.512 93.512 0 0 0-11-1.5c-.333 6.667-.667 6.667-1 0a21.434 21.434 0 0 0-7 1c-1.068-.934-2.401-1.268-4-1a12.935 12.935 0 0 0-.5-5 20.211 20.211 0 0 1-1.5 6c-3.208 1.109-6.208 2.442-9 4-.904-.709-1.237-1.709-1-3a40.939 40.939 0 0 1 .5-9c3.41-1.374 3.243-2.041-.5-2a174.38 174.38 0 0 0-2-28c4.003-3.335 8.67-5.668 14-7z"/><path style="opacity:1" fill="#fb7604" d="M37.5 134.5a405.081 405.081 0 0 1 4 26c-.81 1.792-1.31 3.792-1.5 6a41.973 41.973 0 0 0-6.5 12c-1.395-4.091-2.062-8.424-2-13 .438.065.772-.101 1-.5-2.122-3.811-3.455-7.978-4-12.5.363-.683.696-1.35 1-2a108.955 108.955 0 0 1 8-16z"/><path style="opacity:1" fill="#f93e07" d="M78.5 152.5h-4a51.648 51.648 0 0 1-1 7c-2.068 3.449-2.401 7.116-1 11-.176 2.285-.843 4.285-2 6-2.203.104-4.203.77-6 2h-1l-1-2c.108-6.601.441-13.268 1-20 2.792-1.558 5.792-2.891 9-4a20.211 20.211 0 0 0 1.5-6c.493 1.634.66 3.301.5 5 1.599-.268 2.932.066 4 1z"/><path style="opacity:1" fill="#f9a307" d="M24.5 135.5c1.592 4.432 2.76 9.098 3.5 14 .383.556.883.889 1.5 1-.304.65-.637 1.317-1 2 .545 4.522 1.878 8.689 4 12.5-.228.399-.562.565-1 .5a106.813 106.813 0 0 0-7 18c-2.33-8.66-4.664-17.326-7-26 1.333-1.333 1.333-2.667 0-4a106.364 106.364 0 0 0 7-18z"/><path style="opacity:1" fill="#f96507" d="M51.5 142.5c-.31 3.213.023 6.213 1 9-1.102 4.247-1.268 8.58-.5 13 .718-.951 1.55-1.117 2.5-.5-1.715.777-2.715 2.11-3 4l1.5 7.5a54.199 54.199 0 0 1 7.5-5l2 6 1 2a164.566 164.566 0 0 0-9.5 7 43.08 43.08 0 0 1-2-9c-2.758 2.251-4.925 4.918-6.5 8-.897 1.098-1.73 1.098-2.5 0-.777-2.929-.61-5.763.5-8.5-2.111-4.049-2.445-8.216-1-12.5a101.983 101.983 0 0 1 7.5-10c.177-3.856.677-7.523 1.5-11z"/><path style="opacity:.992" fill="#ce6730" d="M62.5 153.5c-.237 1.291.096 2.291 1 3a300.925 300.925 0 0 0-1 20l-2-6c1.303-4.167 1.303-8.334 0-12.5a36.28 36.28 0 0 1 2-4.5z"/><path style="opacity:1" fill="#80fe76" d="M232.5 160.5a308.379 308.379 0 0 1 22 3v17a1170.038 1170.038 0 0 0-41-1c.166-6.342 0-12.675-.5-19-.5 6.658-.666 13.325-.5 20a70.873 70.873 0 0 0-14 2 5046.326 5046.326 0 0 0-2-21c5.146-1.051 10.479-1.718 16-2 .333-18.667.667-18.667 1 0 6.329.4 12.662.733 19 1zM196.5 161.5c.166 7.008 0 14.008-.5 21a104.43 104.43 0 0 1-7.5 3 147.892 147.892 0 0 0-4-17v-5l12-2z"/><path style="opacity:1" fill="#fc1f01" d="m131.5 140.5 4 3 9 10c-3.694 8.169-6.527 16.502-8.5 25-4.844-3.832-8.51-8.499-11-14a56.067 56.067 0 0 1-5.5 13c-6.218-5.278-13.218-9.278-21-12a10.255 10.255 0 0 1-1.5-4 4.932 4.932 0 0 0-.5 3 72.033 72.033 0 0 0-11-1c.044-7.676-.623-7.842-2-.5-3.42.248-6.753.748-10 1.5v-5a51.648 51.648 0 0 0 1-7h4a21.434 21.434 0 0 1 7-1c.333 6.667.667 6.667 1 0 3.688.281 7.355.781 11 1.5.862 2.734 1.695 2.901 2.5.5a215.826 215.826 0 0 1 12.5 6c.77-4.415 1.937-9.082 3.5-14l11 8 1 4c.5-1.167 1.333-2 2.5-2.5a4.933 4.933 0 0 1-1-2.5 62.848 62.848 0 0 0 2-12z"/><path style="opacity:1" fill="#80fe76" d="M313.5 180.5a197.559 197.559 0 0 1-23 7c-4.115-1.443-8.448-2.443-13-3a32.462 32.462 0 0 0-.5-8 24.935 24.935 0 0 0-.5 7 393.618 393.618 0 0 1-21-2v-18a639.29 639.29 0 0 0 22 4 84.902 84.902 0 0 1 .5-13c.499 4.655.666 9.321.5 14 12.351 2.329 24.017 6.329 35 12z"/><path style="opacity:.992" fill="#ca6734" d="M73.5 159.5v15h5c-2.46 1.031-5.127 1.698-8 2 1.157-1.715 1.824-3.715 2-6-1.401-3.884-1.068-7.551 1-11z"/><path style="opacity:1" fill="#cdfc2b" d="M2.5 132.5c1.97 14.791 5.137 29.457 9.5 44a2.427 2.427 0 0 0 .5-2c2.629 13.799 5.628 26.466 9 38 1.333 1 1.333 2 0 3a191.01 191.01 0 0 0-3 17c-.832-.254-1.499-1.254-2-3v-3a85.983 85.983 0 0 0-3-9v-1a156.08 156.08 0 0 0-4-14.5c.993-2.453 1.16-4.953.5-7.5l-1 5-2-6a1065.214 1065.214 0 0 0-7.5-31v-8c1.476-7.132 2.476-14.466 3-22z"/><path style="opacity:1" fill="#93fe64" d="M-.5 162.5a1065.214 1065.214 0 0 1 7.5 31l2 6 1-5c.66 2.547.493 5.047-.5 7.5a156.08 156.08 0 0 1 4 14.5 196.817 196.817 0 0 0-1.5 20 41.432 41.432 0 0 1-3-14l-1 1c-3.937-12.204-6.77-24.537-8.5-37v-24z"/><path style="opacity:1" fill="#f5b10f" d="M31.5 165.5c-.062 4.576.605 8.909 2 13a60.94 60.94 0 0 0 .5 11c.654-1.196 1.154-1.196 1.5 0-.124.607-.457.94-1 1-2.629 4.693-4.795 9.693-6.5 15-.232-1.237-.732-2.237-1.5-3 .295-2.235-.039-4.235-1-6a300.61 300.61 0 0 0-1-13c1.82-6.29 4.154-12.29 7-18z"/><path style="opacity:1" fill="#fae205" d="M394.5 127.5a364.63 364.63 0 0 1 11 23c-.65.304-1.317.637-2 1a76.092 76.092 0 0 0-2.5 12l-4-6-10.5 12.5c-3.142-.088-5.642-1.588-7.5-4.5a80.64 80.64 0 0 1-18.5 13c-1.414-1.554-3.081-2.888-5-4a1181.206 1181.206 0 0 0-25.5 11 18.08 18.08 0 0 0-3.5-2c-.498 1.103-.831 2.103-1 3-1.505-2.631-2.171-2.297-2 1a52.417 52.417 0 0 0-8.5 2c-1.892-2.89-2.725-2.556-2.5 1-3.141 1.786-5.808 1.286-8-1.5a62.068 62.068 0 0 0 8.5-2.5 3.943 3.943 0 0 1 2 1c.772-1.349 1.939-2.182 3.5-2.5a7.293 7.293 0 0 1-3-2l7-1c-2.536-.186-4.869-.686-7-1.5 3.703-2.179 7.703-3.845 12-5l8-4c7.496-3.347 11.163-9.18 11-17.5-3.229-3.62-5.562-7.787-7-12.5a47.404 47.404 0 0 1 4.5-8 103.856 103.856 0 0 1 6.5 12 46.01 46.01 0 0 1 5.5-6 47.558 47.558 0 0 1-1.5 11.5l.5 1.5a13.92 13.92 0 0 0 4-3l.5 1a170.755 170.755 0 0 1-8 9.5 45.304 45.304 0 0 1 10 0l-16 11c2 .667 4 .667 6 0 6.906-4.665 12.739-8.832 17.5-12.5 1.262 1.803 2.929 3.136 5 4 3.621-4.41 7.121-8.91 10.5-13.5-.556-.383-.889-.883-1-1.5 2.695.433 4.862 1.766 6.5 4l1-1a77.722 77.722 0 0 1 3-14l3 3c-.53-3.762-1.697-7.429-3.5-11 .124-.607.457-.94 1-1z"/><path style="opacity:1" fill="#f6e10e" d="M17.5 157.5c2.336 8.674 4.67 17.34 7 26 .427 4.324.76 8.658 1 13a114.854 114.854 0 0 1-4 16c-3.372-11.534-6.371-24.201-9-38 1.53-5.8 3.196-11.467 5-17z"/><path style="opacity:1" fill="#ca5f34" d="M85.5 173.5a28.233 28.233 0 0 0-1.5 4 4.932 4.932 0 0 1-.5-3c-1.291.237-2.291-.096-3-1h3a32.438 32.438 0 0 1 .5-8c.183 2.865.683 5.531 1.5 8z"/><path style="opacity:1" fill="#fb5404" d="M80.5 173.5c.709.904 1.709 1.237 3 1a4.932 4.932 0 0 0 .5 3c.41-1.401.91-2.734 1.5-4a126.54 126.54 0 0 0 9 2v8a41.732 41.732 0 0 1-9-1c-.333-4-.667-4-1 0-1.988.327-3.988.66-6 1-1.495-.209-2.661-.876-3.5-2a6.807 6.807 0 0 1-1.5 3c-2.28.636-4.28 1.636-6 3h-2a21.032 21.032 0 0 0-2-7c.363-.683.696-1.35 1-2 1.797-1.23 3.797-1.896 6-2 2.873-.302 5.54-.969 8-2l2-1z"/><path style="opacity:1" fill="#f7800d" d="M170.5 153.5c.817 2.469 1.317 5.135 1.5 8a91.516 91.516 0 0 1 6.5 17c1.027 6.663 1.027 13.163 0 19.5a342.268 342.268 0 0 1-3 12.5l-4 9c-3.148-4.962-5.815-10.296-8-16-.457-.798-1.124-1.131-2-1v-3c3.489-4.665 5.656-9.999 6.5-16a160.255 160.255 0 0 0 2.5-27v-3z"/><path style="opacity:1" fill="#efe414" d="M184.5 168.5a147.892 147.892 0 0 1 4 17l2 16h-3c.268-1.599-.066-2.932-1-4a256.61 256.61 0 0 0-2-29z"/><path style="opacity:1" fill="#effa0a" d="M405.5 150.5a32.508 32.508 0 0 0 3 7c-1.689 4.403-2.855 9.069-3.5 14a31.412 31.412 0 0 0-3.5-7c-4.953 6.38-9.619 11.546-14 15.5a421.985 421.985 0 0 0-16.5 10.5c-.383-.556-.883-.889-1.5-1a11.105 11.105 0 0 0-3-4.5 7.293 7.293 0 0 0 3-2c-1.575.379-3.075.212-4.5-.5a4.934 4.934 0 0 0-.5 3 472.766 472.766 0 0 1-40 14 3.647 3.647 0 0 1-1.5-1 51.812 51.812 0 0 1-12.5 5c-1.09.891-1.09 1.891 0 3a726.769 726.769 0 0 1-64 12 36.633 36.633 0 0 0-4-6.5c18.135-2.237 36.469-5.237 55-9a73.735 73.735 0 0 0 9-2.5c-1.291-1.027-1.291-2.027 0-3a433.574 433.574 0 0 0 28-7.5c8.81-3.76 17.476-7.593 26-11.5a80.64 80.64 0 0 0 18.5-13c1.858 2.912 4.358 4.412 7.5 4.5l10.5-12.5 4 6a76.092 76.092 0 0 1 2.5-12c.683-.363 1.35-.696 2-1z"/><path style="opacity:1" fill="#f77a0d" d="M63.5 178.5h1c-.304.65-.637 1.317-1 2a21.032 21.032 0 0 1 2 7c-2.341 2.329-5.008 4.329-8 6a18.95 18.95 0 0 1-3-5c-.865-1.083-1.865-1.249-3-.5a64.603 64.603 0 0 1-6 7.5c-2.543-3.762-2.543-7.428 0-11 1.575-3.082 3.742-5.749 6.5-8a43.08 43.08 0 0 0 2 9 164.566 164.566 0 0 1 9.5-7z"/><path style="opacity:1" fill="#f84809" d="M159.5 135.5c.729 3.041 1.896 6.041 3.5 9a106.482 106.482 0 0 0 7.5 12 160.255 160.255 0 0 1-2.5 27c-.844 6.001-3.011 11.335-6.5 16a121.904 121.904 0 0 1-8.5-19 125.766 125.766 0 0 1-12 23l-10-14a46.928 46.928 0 0 1-4.5 8c-4.099-2.927-7.266-6.594-9.5-11-1.688.825-1.855 1.825-.5 3a32.444 32.444 0 0 0-1.5 6 55.337 55.337 0 0 0-8-6 50.464 50.464 0 0 1-.5-10 4.934 4.934 0 0 0-3 .5c1.987 2.47 2.487 5.303 1.5 8.5a134.02 134.02 0 0 0-8.5-4c-1.282-2.872-1.282-5.705 0-8.5a11.357 11.357 0 0 1-1.5-3.5 4.932 4.932 0 0 0-.5 3 126.54 126.54 0 0 1-9-2c-.817-2.469-1.317-5.135-1.5-8a32.438 32.438 0 0 0-.5 8h-3l-2 1h-5v-10a65.145 65.145 0 0 1 10-1.5c1.377-7.342 2.044-7.176 2 .5 3.698.052 7.365.386 11 1a4.932 4.932 0 0 1 .5-3 10.255 10.255 0 0 0 1.5 4c7.782 2.722 14.782 6.722 21 12a56.067 56.067 0 0 0 5.5-13c2.49 5.501 6.156 10.168 11 14 1.973-8.498 4.806-16.831 8.5-25h1a232.4 232.4 0 0 1 10.5 14c1.992-7.718 3.159-15.384 3.5-23a29.536 29.536 0 0 0-1-7c.838-.342 1.172-1.008 1-2z"/><path style="opacity:1" fill="#52fda5" d="M254.5 163.5h1v18a393.618 393.618 0 0 0 21 2c-.163-2.357.003-4.69.5-7 .497 2.646.664 5.313.5 8 4.552.557 8.885 1.557 13 3a977.81 977.81 0 0 1-67 12 4378.445 4378.445 0 0 1-33 2l-2-16a104.43 104.43 0 0 0 7.5-3c.5-6.992.666-13.992.5-21 .667 6.845 1.333 13.845 2 21a70.873 70.873 0 0 1 14-2c-.166-6.675 0-13.342.5-20 .5 6.325.666 12.658.5 19 13.674.094 27.341.427 41 1v-17z"/><path style="opacity:1" fill="#f56d11" d="M161.5 199.5v3a97.448 97.448 0 0 1-12 17 83.533 83.533 0 0 0-8.5-15 31.177 31.177 0 0 0-4.5 6 111.037 111.037 0 0 1-8-9.5 4.934 4.934 0 0 0-3-.5c.262 1.478-.071 2.811-1 4l-6-5c-.798.457-1.131 1.124-1 2l-2-1-4-2c-.531-2.044-1.698-3.711-3.5-5-3.534.411-6.534-.922-9-4a644.6 644.6 0 0 1-14.5 1 32.977 32.977 0 0 0-11.5 4c-2.454-1.941-4.287-4.275-5.5-7 1.72-1.364 3.72-2.364 6-3a6.807 6.807 0 0 0 1.5-3c.839 1.124 2.005 1.791 3.5 2 2.012-.34 4.012-.673 6-1 .333-4 .667-4 1 0 2.955.659 5.955.992 9 1v-8a4.932 4.932 0 0 1 .5-3c.31 1.266.81 2.433 1.5 3.5-1.282 2.795-1.282 5.628 0 8.5a134.02 134.02 0 0 1 8.5 4c.987-3.197.487-6.03-1.5-8.5a4.934 4.934 0 0 1 3-.5c-.165 3.35.002 6.683.5 10a55.337 55.337 0 0 1 8 6 32.444 32.444 0 0 1 1.5-6c-1.355-1.175-1.188-2.175.5-3 2.234 4.406 5.401 8.073 9.5 11a46.928 46.928 0 0 0 4.5-8l10 14a125.766 125.766 0 0 0 12-23 121.904 121.904 0 0 0 8.5 19z"/><path style="opacity:1" fill="#fcae02" d="M176.5 137.5a60.379 60.379 0 0 1 3 7 132.657 132.657 0 0 0 5 19v5a256.61 256.61 0 0 1 2 29 9.108 9.108 0 0 1-1 5 18.074 18.074 0 0 1 2 8c-.814 2.131-1.314 4.464-1.5 7-.654-1.196-1.154-1.196-1.5 0a9.108 9.108 0 0 1 1 5 53.76 53.76 0 0 0-2 8c-.617-.111-1.117-.444-1.5-1a133.158 133.158 0 0 0-6.5-19 342.268 342.268 0 0 0 3-12.5c1.027-6.337 1.027-12.837 0-19.5.665-2.814.998-5.814 1-9a1042.249 1042.249 0 0 0-3-32z"/><path style="opacity:1" fill="#ef8217" d="M111.5 198.5c-5.302 1.177-10.636.677-16-1.5a10.256 10.256 0 0 0 4-1.5l-.5-1a40.179 40.179 0 0 1-6 2 123.8 123.8 0 0 1-9.5-4.5c.556-.383.89-.883 1-1.5a644.6 644.6 0 0 0 14.5-1c2.466 3.078 5.466 4.411 9 4 1.802 1.289 2.969 2.956 3.5 5z"/><path style="opacity:1" fill="#fbe704" d="M360.5 178.5c-8.524 3.907-17.19 7.74-26 11.5a433.574 433.574 0 0 1-28 7.5c-2.235-.729-4.069-2.062-5.5-4-1.563.602-1.396 1.435.5 2.5-16.135 3.578-32.135 6.245-48 8-5.714 1.407-11.38 1.907-17 1.5-3.079-1.52-6.412-2.353-10-2.5 3.443-.221 3.776-1.221 1-3a8.43 8.43 0 0 0-4-.5 977.81 977.81 0 0 0 67-12 197.559 197.559 0 0 0 23-7h2c2.131.814 4.464 1.314 7 1.5l-7 1a7.293 7.293 0 0 0 3 2c-1.561.318-2.728 1.151-3.5 2.5a3.943 3.943 0 0 0-2-1 62.068 62.068 0 0 1-8.5 2.5c2.192 2.786 4.859 3.286 8 1.5-.225-3.556.608-3.89 2.5-1a52.417 52.417 0 0 1 8.5-2c-.171-3.297.495-3.631 2-1 .169-.897.502-1.897 1-3a18.08 18.08 0 0 1 3.5 2c8.442-3.76 16.942-7.427 25.5-11 1.919 1.112 3.586 2.446 5 4z"/><path style="opacity:1" fill="#f59b11" d="M41.5 160.5c-.237 1.291.096 2.291 1 3-1.445 4.284-1.111 8.451 1 12.5-1.11 2.737-1.277 5.571-.5 8.5.77 1.098 1.603 1.098 2.5 0-2.543 3.572-2.543 7.238 0 11a64.603 64.603 0 0 0 6-7.5c1.135-.749 2.135-.583 3 .5a18.95 18.95 0 0 0 3 5c2.992-1.671 5.659-3.671 8-6h2c1.213 2.725 3.046 5.059 5.5 7a32.977 32.977 0 0 1 11.5-4c-.11.617-.444 1.117-1 1.5a123.8 123.8 0 0 0 9.5 4.5 40.179 40.179 0 0 0 6-2l.5 1a10.256 10.256 0 0 1-4 1.5c5.364 2.177 10.698 2.677 16 1.5l4 2c-2.347 1.216-4.847 1.216-7.5 0a75.239 75.239 0 0 0-9 4c-5.525-2.705-11.358-3.872-17.5-3.5-1.692 1.307-3.025 2.807-4 4.5l-2 1c-3.261-1.96-6.428-4.293-9.5-7-.667 1.333-1.333 1.333-2 0-2.233 7.512-6.4 9.179-12.5 5-2.174-2.367-4.34-4.7-6.5-7a82.736 82.736 0 0 1-7.5 10 360.528 360.528 0 0 1-3-17c.543-.06.876-.393 1-1-.346-1.196-.846-1.196-1.5 0a60.94 60.94 0 0 1-.5-11 41.973 41.973 0 0 1 6.5-12c.19-2.208.69-4.208 1.5-6z"/><path style="opacity:1" fill="#e2fe15" d="M369.5 189.5c-.622 1.835-1.956 3.002-4 3.5-14.941 6.392-30.608 11.726-47 16-1.941.743-3.774.576-5.5-.5-1.365 1.093-1.699 2.426-1 4l1-2a6.978 6.978 0 0 0 2.5 3.5l-35 7a569.486 569.486 0 0 0-27 4.5c-1.147-.318-1.981-.984-2.5-2a4.934 4.934 0 0 0-.5 3c-9.676.918-19.343 1.918-29 3 .48 2.943 1.48 5.61 3 8-.111.617-.444 1.117-1 1.5a610.4 610.4 0 0 0-26 4 42.576 42.576 0 0 1 4 9.5 44.327 44.327 0 0 1-10 2 18.453 18.453 0 0 0-.5-6c-.383.556-.883.889-1.5 1a14.093 14.093 0 0 1 1-3.5 69.758 69.758 0 0 1-2-12.5 314.067 314.067 0 0 0 32-4.5c-2.109-2.309-2.776-4.809-2-7.5l28-3a726.769 726.769 0 0 0 64-12c-1.09-1.109-1.09-2.109 0-3a51.812 51.812 0 0 0 12.5-5c.414.457.914.791 1.5 1a472.766 472.766 0 0 0 40-14 4.934 4.934 0 0 1 .5-3c1.425.712 2.925.879 4.5.5a7.293 7.293 0 0 1-3 2 11.105 11.105 0 0 1 3 4.5z"/><path style="opacity:1" fill="#fdd802" d="M186.5 197.5c.934 1.068 1.268 2.401 1 4h3a4378.445 4378.445 0 0 0 33-2 8.43 8.43 0 0 1 4 .5c2.776 1.779 2.443 2.779-1 3 3.588.147 6.921.98 10 2.5a245.873 245.873 0 0 1-28 4c-1.621-1.205-2.954-1.039-4 .5 2.709.541 4.709 2.041 6 4.5a214.292 214.292 0 0 1-22 2c.295-2.235-.039-4.235-1-6a18.074 18.074 0 0 0-2-8 9.108 9.108 0 0 0 1-5z"/><path style="opacity:1" fill="#f4d112" d="M34.5 190.5a360.528 360.528 0 0 0 3 17 35.079 35.079 0 0 1 6 8 65.021 65.021 0 0 1-5 12h-1c-7.164-6.673-10.83-15.006-11-25 .768.763 1.268 1.763 1.5 3 1.705-5.307 3.871-10.307 6.5-15z"/><path style="opacity:1" fill="#f3be15" d="m115.5 200.5 2 1 8 9a275.706 275.706 0 0 1-29-2c-2.846 1.123-5.512.623-8-1.5a93.512 93.512 0 0 0-11-1.5c.975-1.693 2.308-3.193 4-4.5 6.142-.372 11.975.795 17.5 3.5a75.239 75.239 0 0 1 9-4c2.653 1.216 5.153 1.216 7.5 0z"/><path style="opacity:1" fill="#ff8e00" d="M149.5 219.5v1a123.207 123.207 0 0 0-8.5 10c-1.812-4.008-4.312-7.341-7.5-10-.973-1.639-2.306-2.973-4-4v-1a21.614 21.614 0 0 0-4-5l-8-9c-.131-.876.202-1.543 1-2l6 5c.929-1.189 1.262-2.522 1-4a4.934 4.934 0 0 1 3 .5 111.037 111.037 0 0 0 8 9.5 31.177 31.177 0 0 1 4.5-6 83.533 83.533 0 0 1 8.5 15z"/><path style="opacity:1" fill="#fbed01" d="M306.5 197.5c-1.291.973-1.291 1.973 0 3a73.735 73.735 0 0 1-9 2.5c-18.531 3.763-36.865 6.763-55 9a36.633 36.633 0 0 1 4 6.5l-28 3a574.712 574.712 0 0 0-30.5 4 81.316 81.316 0 0 0-2.5-3 9.108 9.108 0 0 0-1-5c.346-1.196.846-1.196 1.5 0 .186-2.536.686-4.869 1.5-7 .961 1.765 1.295 3.765 1 6a214.292 214.292 0 0 0 22-2c-1.291-2.459-3.291-3.959-6-4.5 1.046-1.539 2.379-1.705 4-.5a245.873 245.873 0 0 0 28-4c5.62.407 11.286-.093 17-1.5 15.865-1.755 31.865-4.422 48-8-1.896-1.065-2.063-1.898-.5-2.5 1.431 1.938 3.265 3.271 5.5 4z"/><path style="opacity:1" fill="#f6bd10" d="M75.5 206.5c-1.554 1.414-2.888 3.081-4 5-4.466.809-8.8.142-13-2a30.83 30.83 0 0 0-6 10h-1l-8-4a35.079 35.079 0 0 0-6-8 82.736 82.736 0 0 0 7.5-10c2.16 2.3 4.326 4.633 6.5 7 6.1 4.179 10.267 2.512 12.5-5 .667 1.333 1.333 1.333 2 0 3.072 2.707 6.239 5.04 9.5 7z"/><path style="opacity:1" fill="#f9d70b" d="M77.5 205.5c3.688.281 7.355.781 11 1.5 2.488 2.123 5.154 2.623 8 1.5a275.706 275.706 0 0 0 29 2 21.614 21.614 0 0 1 4 5 319.787 319.787 0 0 0-32 0 50.464 50.464 0 0 0-10 .5c-2.234 1.638-3.567 3.805-4 6.5l-2 1c-9.85-.3-19.516-1.633-29-4a30.83 30.83 0 0 1 6-10c4.2 2.142 8.534 2.809 13 2 1.112-1.919 2.446-3.586 4-5l2-1z"/><path style="opacity:1" fill="#fec800" d="M175.5 210.5c2.61 6.067 4.776 12.4 6.5 19 .383.556.883.889 1.5 1l-7 14a55.74 55.74 0 0 1-13 12 284.105 284.105 0 0 1-6-18l1-2a83.3 83.3 0 0 0 13-17l4-9z"/><path style="opacity:1" fill="#ff9f00" d="M161.5 202.5c.876-.131 1.543.202 2 1 2.185 5.704 4.852 11.038 8 16a83.3 83.3 0 0 1-13 17c-.876.131-1.543-.202-2-1-1.775-5.358-4.109-10.358-7-15v-1a97.448 97.448 0 0 0 12-17z"/><path style="opacity:1" fill="#f7f204" d="M97.5 215.5c3.798.983 7.798 1.317 12 1-1.404 1.755-2.404 3.755-3 6-7.765 1.312-15.432 1.312-23 0 .433-2.695 1.766-4.862 4-6.5a50.464 50.464 0 0 1 10-.5z"/><path style="opacity:1" fill="#c3c83a" d="M129.5 215.5v1h-20c-4.202.317-8.202-.017-12-1a319.787 319.787 0 0 1 32 0z"/><path style="opacity:1" fill="#f9e908" d="m43.5 215.5 8 4a56.22 56.22 0 0 0-4 11.5c-3.443-.091-6.443-1.258-9-3.5a65.021 65.021 0 0 0 5-12z"/><path style="opacity:1" fill="#ebfd0d" d="M109.5 216.5h20c1.694 1.027 3.027 2.361 4 4l1 2c-5.195-.321-10.195.013-15 1h-9c-1.599.268-2.932-.066-4-1 .596-2.245 1.596-4.245 3-6z"/><path style="opacity:1" fill="#feb700" d="M133.5 220.5c3.188 2.659 5.688 5.992 7.5 10 2.669-3.5 5.502-6.833 8.5-10 2.891 4.642 5.225 9.642 7 15 .457.798 1.124 1.131 2 1l-1 2c-3.063 1.551-5.729 3.718-8 6.5a4.934 4.934 0 0 1-3 .5c-.893-4.113-2.56-7.78-5-11a6874.866 6874.866 0 0 1-7-12l-1-2z"/><path style="opacity:1" fill="#d4fe23" d="m408.5 157.5 3 10a203.248 203.248 0 0 1-4 12l-1-6c-1.175-.219-2.175.114-3 1a76.57 76.57 0 0 1-12 13.5c-23.406 14.559-48.239 24.059-74.5 28.5-.138 1.932.362 3.766 1.5 5.5-31.139 7.246-62.472 12.412-94 15.5-1.52-2.39-2.52-5.057-3-8a1716.323 1716.323 0 0 1 29-3 4.934 4.934 0 0 1 .5-3c.519 1.016 1.353 1.682 2.5 2a569.486 569.486 0 0 1 27-4.5l35-7a6.978 6.978 0 0 1-2.5-3.5l-1 2c-.699-1.574-.365-2.907 1-4 1.726 1.076 3.559 1.243 5.5.5 16.392-4.274 32.059-9.608 47-16 2.044-.498 3.378-1.665 4-3.5.617.111 1.117.444 1.5 1a421.985 421.985 0 0 1 16.5-10.5c4.381-3.954 9.047-9.12 14-15.5a31.412 31.412 0 0 1 3.5 7c.645-4.931 1.811-9.597 3.5-14z"/><path style="opacity:1" fill="#93fc63" d="M13.5 217.5a85.983 85.983 0 0 1 3 9 217.114 217.114 0 0 0-1.5 21 167.908 167.908 0 0 1-1.5-30z"/><path style="opacity:1" fill="#b9d441" d="M83.5 222.5c7.568 1.312 15.235 1.312 23 0 1.068.934 2.401 1.268 4 1-2.018.547-3.851 1.547-5.5 3-3.571-1.292-7.404-1.958-11.5-2-4.096.042-7.929.708-11.5 2a4.932 4.932 0 0 1-.5-3l2-1z"/><path style="opacity:1" fill="#e2f81b" d="M25.5 196.5c.961 1.765 1.295 3.765 1 6 .17 9.994 3.836 18.327 11 25l-2 12c-.768.763-1.268 1.763-1.5 3l-8-8a78.891 78.891 0 0 1-4.5-19c1.333-1 1.333-2 0-3a114.854 114.854 0 0 0 4-16z"/><path style="opacity:1" fill="#dbfc1e" d="M51.5 219.5h1c9.484 2.367 19.15 3.7 29 4a4.932 4.932 0 0 0 .5 3c3.571-1.292 7.404-1.958 11.5-2 4.096.042 7.929.708 11.5 2 1.649-1.453 3.482-2.453 5.5-3h21c.002 4.187-1.998 6.687-6 7.5-14.14.758-28.14 1.591-42 2.5-7.5.576-15-.091-22.5-2a20.428 20.428 0 0 1-5.5 1.5 8.43 8.43 0 0 0 4 .5 29.45 29.45 0 0 1-2 9c.219 1.175-.114 2.175-1 3-4.2-.637-8.366-1.304-12.5-2a3.647 3.647 0 0 1-1.5 1 32.444 32.444 0 0 0-6-1.5c-.837-1.011-1.17-2.178-1-3.5l2-12h1c2.557 2.242 5.557 3.409 9 3.5a56.22 56.22 0 0 1 4-11.5z"/><path style="opacity:1" fill="#6cfe8b" d="M411.5 213.5a28.496 28.496 0 0 1-1 9.5c-7.911 8.967-17.577 15.467-29 19.5a4.457 4.457 0 0 1-1.5-2c-.495 2.49-1.995 3.99-4.5 4.5a187.582 187.582 0 0 0-20.5 7.5c-.736-3.092-.569-6.092.5-9a202.908 202.908 0 0 0 46-20.5 133.234 133.234 0 0 1 10-9.5z"/><path style="opacity:1" fill="#c1fe35" d="M407.5 179.5a8.43 8.43 0 0 1-.5 4 132.92 132.92 0 0 0-9.5 10c-2.008-2.262-2.341-1.762-1 1.5-23.354 14.647-49.021 24.814-77 30.5a6.846 6.846 0 0 0 1 4 167.799 167.799 0 0 1-28.5 7c-1.326-.255-2.326-.922-3-2a4.934 4.934 0 0 0-.5 3 3952.85 3952.85 0 0 1-87 15 42.576 42.576 0 0 0-4-9.5 610.4 610.4 0 0 1 26-4c.556-.383.889-.883 1-1.5 31.528-3.088 62.861-8.254 94-15.5-1.138-1.734-1.638-3.568-1.5-5.5 26.261-4.441 51.094-13.941 74.5-28.5a76.57 76.57 0 0 0 12-13.5c.825-.886 1.825-1.219 3-1l1 6z"/><path style="opacity:1" fill="#5df79c" d="M-.5 186.5c1.73 12.463 4.563 24.796 8.5 37l1-1a41.432 41.432 0 0 0 3 14c.172-6.846.672-13.513 1.5-20v1a167.908 167.908 0 0 0 1.5 30c.171-7.179.671-14.179 1.5-21v3c-.733 12.611.267 24.278 3 35a247.6 247.6 0 0 0-1.5 11l-1-12-1 5a68.9 68.9 0 0 1-2-14c-.21 1.558-.71 2.891-1.5 4a35.269 35.269 0 0 0-3-10.5c1.117-3.073 1.284-6.24.5-9.5l-1 7c-2.664-6.588-3.664-13.255-3-20l-1 5c-.383-.556-.883-.889-1.5-1a602.438 602.438 0 0 1-4-32v-11z"/><path style="opacity:1" fill="#c1fa37" d="M119.5 223.5c4.805-.987 9.805-1.321 15-1 2.348 4.035 4.682 8.035 7 12l1 4c-4.652.498-9.319.831-14 1-.065-5.196-.732-5.196-2 0l-4.5 1a1812.448 1812.448 0 0 1-59.5 5h-4c.237-1.291-.096-2.291-1-3a29.45 29.45 0 0 0 2-9 8.43 8.43 0 0 1-4-.5 20.428 20.428 0 0 0 5.5-1.5c7.5 1.909 15 2.576 22.5 2 13.86-.909 27.86-1.742 42-2.5 4.002-.813 6.002-3.313 6-7.5h-12z"/><path style="opacity:1" fill="#f3f804" d="M218.5 221.5c-.776 2.691-.109 5.191 2 7.5a314.067 314.067 0 0 1-32 4.5c.287 4.223.954 8.39 2 12.5a14.093 14.093 0 0 0-1 3.5c-1.549 5.687-4.215 10.687-8 15l-3.5-19c-.383-.556-.883-.889-1.5-1l7-14a53.76 53.76 0 0 1 2-8 81.316 81.316 0 0 1 2.5 3 574.712 574.712 0 0 1 30.5-4z"/><path style="opacity:1" fill="#adfe49" d="M411.5 167.5c.794 3.302 1.46 6.635 2 10-1.139 3.801-1.972 7.801-2.5 12-.654-1.196-1.154-1.196-1.5 0 .826.951.992 1.951.5 3a163.222 163.222 0 0 0-10.5 11 580.693 580.693 0 0 0-19.5 12l-1-3a11.333 11.333 0 0 1-1.5 3.5c-17.657 7.994-36.157 13.828-55.5 17.5-.651 1.735-.485 3.402.5 5a242.54 242.54 0 0 1-28.5 7 1025.885 1025.885 0 0 0-33.5 7 10.258 10.258 0 0 1-1.5-4c-.199 1.902-1.033 3.402-2.5 4.5a2570.966 2570.966 0 0 1-54 10.5 185.422 185.422 0 0 0-1-11 3952.85 3952.85 0 0 0 87-15 4.934 4.934 0 0 1 .5-3c.674 1.078 1.674 1.745 3 2a167.799 167.799 0 0 0 28.5-7 6.846 6.846 0 0 1-1-4c27.979-5.686 53.646-15.853 77-30.5-1.341-3.262-1.008-3.762 1-1.5a132.92 132.92 0 0 1 9.5-10 8.43 8.43 0 0 0 .5-4c1.458-3.96 2.792-7.96 4-12z"/><path style="opacity:1" fill="#fde401" d="M141.5 234.5c2.44 3.22 4.107 6.887 5 11a4.934 4.934 0 0 0 3-.5c2.271-2.782 4.937-4.949 8-6.5a284.105 284.105 0 0 0 6 18c-3.414 3.04-7.414 5.04-12 6-1.238-1.714-1.905-3.714-2-6a93.069 93.069 0 0 1-3-9l-4-9-1-4z"/><path style="opacity:1" fill="#96fe60" d="M413.5 177.5c-.268 1.599.066 2.932 1 4v10a87.035 87.035 0 0 1-4 12l-9.5 9-1-2a15.256 15.256 0 0 1-1.5 4.5 205.962 205.962 0 0 1-43 19.5c-1.47-6.459-2.137-6.126-2 1a355.78 355.78 0 0 0-29 8 3.647 3.647 0 0 1-1.5-1 18.453 18.453 0 0 0-.5 6l-62 13c-.667 0-1 .333-1 1a778.588 778.588 0 0 0-54 12h-1l-14 4a131.99 131.99 0 0 0 3-12 146.84 146.84 0 0 1 9-3 2570.966 2570.966 0 0 0 54-10.5c1.467-1.098 2.301-2.598 2.5-4.5a10.258 10.258 0 0 0 1.5 4c11.45-2.587 22.616-4.92 33.5-7a242.54 242.54 0 0 0 28.5-7c-.985-1.598-1.151-3.265-.5-5 19.343-3.672 37.843-9.506 55.5-17.5a11.333 11.333 0 0 0 1.5-3.5l1 3a580.693 580.693 0 0 1 19.5-12 163.222 163.222 0 0 1 10.5-11c.492-1.049.326-2.049-.5-3 .346-1.196.846-1.196 1.5 0 .528-4.199 1.361-8.199 2.5-12z"/><path style="opacity:1" fill="#aefb4a" d="M21.5 215.5a78.891 78.891 0 0 0 4.5 19l8 8c.232-1.237.732-2.237 1.5-3-.17 1.322.163 2.489 1 3.5 2.056.311 4.056.811 6 1.5a3.647 3.647 0 0 0 1.5-1c4.134.696 8.3 1.363 12.5 2 .886-.825 1.219-1.825 1-3 .904.709 1.237 1.709 1 3h4a43.116 43.116 0 0 1 13 1c-.668 3.363-1.335 6.697-2 10-1.599-.268-2.932.066-4 1a52.394 52.394 0 0 0-13 1c-.333-6.667-.667-6.667-1 0h-9c-1.951.273-3.451-.393-4.5-2-2.456 1.821-5.29 2.488-8.5 2-.177-6.634-.677-6.634-1.5 0l-4-2c-.497-7.003-1.163-7.337-2-1-3.98-4.399-5.646-9.399-5-15l-1 2c-.179-3.525-.679-6.859-1.5-10a191.01 191.01 0 0 1 3-17z"/><path style="opacity:1" fill="#a3fa54" d="m142.5 238.5 4 9a406.972 406.972 0 0 1-20 2c-.503-5-.836-4.667-1 1-9.01.906-18.01 1.906-27 3a8.435 8.435 0 0 0-.5-4c-.2 1.902-1.032 3.402-2.5 4.5a548.836 548.836 0 0 0-19 2.5h-3c.665-3.303 1.332-6.637 2-10a43.116 43.116 0 0 0-13-1 1812.448 1812.448 0 0 0 59.5-5l4.5-1c1.268-5.196 1.935-5.196 2 0 4.681-.169 9.348-.502 14-1z"/><path style="opacity:1" fill="#6cfe8a" d="M350.5 245.5h3c.268 2.619-.065 5.119-1 7.5a601.167 601.167 0 0 0-28.5 8.5c-.21-1.558-.71-2.891-1.5-4-.163-2.357.003-4.69.5-7 .388.928 1.055 1.595 2 2a289.59 289.59 0 0 1 25.5-7z"/><path style="opacity:1" fill="#87fa70" d="M146.5 247.5a93.069 93.069 0 0 0 3 9 450.319 450.319 0 0 1-24 4c-.174-7.973-.674-7.973-1.5 0-.383.556-.883.889-1.5 1a170.718 170.718 0 0 0-24.5 4c-.818-5.294-1.318-5.294-1.5 0-5.537.587-10.87 1.587-16 3h-6c-.484-4.327.182-8.327 2-12a548.836 548.836 0 0 1 19-2.5c1.468-1.098 2.3-2.598 2.5-4.5a8.435 8.435 0 0 1 .5 4c8.99-1.094 17.99-2.094 27-3 .164-5.667.497-6 1-1a406.972 406.972 0 0 0 20-2z"/><path style="opacity:1" fill="#2ff4d3" d="M12.5 258.5c-.79 1.109-1.29 2.442-1.5 4a226.889 226.889 0 0 0-1.5-8.5c-.184-1.376-.85-2.209-2-2.5a378.52 378.52 0 0 1-4-22c.617.111 1.117.444 1.5 1l1-5c-.664 6.745.336 13.412 3 20l1-7c.784 3.26.617 6.427-.5 9.5a35.269 35.269 0 0 1 3 10.5z"/><path style="opacity:1" fill="#e3fe15" d="M176.5 244.5c.617.111 1.117.444 1.5 1l3.5 19c-.703 2.216-2.036 4.049-4 5.5-5.549 4.775-11.883 7.941-19 9.5-1.614-.303-2.948-.97-4-2-.667 0-1-.333-1-1-.253-3.54-.919-6.873-2-10v-4c4.586-.96 8.586-2.96 12-6a55.74 55.74 0 0 0 13-12z"/><path style="opacity:1" fill="#8afb6d" d="M16.5 229.5c.501 1.746 1.168 2.746 2 3 .821 3.141 1.321 6.475 1.5 10l1-2c-.646 5.601 1.02 10.601 5 15 .837-6.337 1.503-6.003 2 1l4 2c.823-6.634 1.323-6.634 1.5 0 3.21.488 6.044-.179 8.5-2 1.049 1.607 2.549 2.273 4.5 2a28.952 28.952 0 0 1 9.5 3c.483-.948.65-1.948.5-3a52.394 52.394 0 0 1 13-1h4v12c-1.915-.284-3.581.049-5 1a244.29 244.29 0 0 0-26 4c-.333-20-.667-20-1 0h-9c-.333-9.333-.667-9.333-1 0h-5a18.437 18.437 0 0 0-.5-6c-.198 1.882-.698 3.548-1.5 5l-3-4a26.329 26.329 0 0 0-2-5c-2.733-10.722-3.733-22.389-3-35z"/><path style="opacity:1" fill="#6cfb8b" d="M149.5 256.5c.095 2.286.762 4.286 2 6v4a530.69 530.69 0 0 0-24.5 5c-.807-3.949-1.307-3.949-1.5 0a182.262 182.262 0 0 0-18.5 4l-1-2-5 1c-1.688-.825-1.855-1.825-.5-3a7.252 7.252 0 0 0-2-2.5l2.5-2.5c3.333-1.333 6.667-1.333 10 0 .667-2.667 1.333-2.667 2 0 .667-2.667 1.333-2.667 2 0 .667-2.667 1.333-2.667 2 0a8.43 8.43 0 0 0 .5-4c1.915.284 3.581-.049 5-1 .617-.111 1.117-.444 1.5-1 .826-7.973 1.326-7.973 1.5 0a450.319 450.319 0 0 0 24-4z"/><path style="opacity:1" fill="#b6ff40" d="M201.5 252.5c.442 3.654.776 7.321 1 11a146.84 146.84 0 0 0-9 3 131.99 131.99 0 0 1-3 12c-7.044 14.051-18.378 20.384-34 19 .237-1.291-.096-2.291-1-3 .306-2.885-.027-5.552-1-8v-9c1.052 1.03 2.386 1.697 4 2 7.117-1.559 13.451-4.725 19-9.5 1.964-1.451 3.297-3.284 4-5.5 3.785-4.313 6.451-9.313 8-15 .617-.111 1.117-.444 1.5-1 .495 1.973.662 3.973.5 6a44.327 44.327 0 0 0 10-2z"/><path style="opacity:1" fill="#63c695" d="M69.5 257.5c1.068-.934 2.401-1.268 4-1h3c-1.818 3.673-2.484 7.673-2 12a24.939 24.939 0 0 1-.5 7 12.935 12.935 0 0 1-.5-5h-5c1.419-.951 3.085-1.284 5-1v-12h-4z"/><path style="opacity:1" fill="#7ffe77" d="M414.5 191.5v12a898.69 898.69 0 0 0-3 10 133.234 133.234 0 0 0-10 9.5 202.908 202.908 0 0 1-46 20.5c-1.903.296-3.57.963-5 2a289.59 289.59 0 0 0-25.5 7c-.945-.405-1.612-1.072-2-2a24.935 24.935 0 0 0-.5 7 1644.498 1644.498 0 0 0-61.5 14 50.464 50.464 0 0 1-.5-10l62-13a18.453 18.453 0 0 1 .5-6c.414.457.914.791 1.5 1a355.78 355.78 0 0 1 29-8c-.137-7.126.53-7.459 2-1a205.962 205.962 0 0 0 43-19.5 15.256 15.256 0 0 0 1.5-4.5l1 2 9.5-9a87.035 87.035 0 0 0 4-12z"/><path style="opacity:1" fill="#7cd37c" d="M56.5 258.5a4.932 4.932 0 0 1-.5 3 28.952 28.952 0 0 0-9.5-3h9c.333-6.667.667-6.667 1 0z"/><path style="opacity:1" fill="#65fe90" d="M322.5 257.5c.346 3.102-.321 5.935-2 8.5A1504.347 1504.347 0 0 0 205 295.5l-1-6a26.67 26.67 0 0 1-1.5 6.5 215.178 215.178 0 0 0-11 4.5c.58-3.642 1.08-7.309 1.5-11a196.121 196.121 0 0 1 10.5-4 31.116 31.116 0 0 0 1-11h1v10a1958.154 1958.154 0 0 1 54-13v-9c0-.667.333-1 1-1-.165 3.35.002 6.683.5 10 20.39-5.055 40.89-9.722 61.5-14z"/><path style="opacity:1" fill="#7dfe79" d="M259.5 262.5v9a1958.154 1958.154 0 0 0-54 13v-10a778.588 778.588 0 0 1 54-12z"/><path style="opacity:1" fill="#66fc90" d="M97.5 274.5v3a363.932 363.932 0 0 0-41 9c-.01-13.268-.676-13.268-2 0a160.277 160.277 0 0 1-21 5c-.17-13.317-.67-13.317-1.5 0-1.356.88-2.856 1.214-4.5 1a72.442 72.442 0 0 0-.5-12c-.177 3.856-.677 7.523-1.5 11-.802-1.452-1.302-3.118-1.5-5-.359 3.044-1.026 3.378-2 1l-1-13-1 7a11.357 11.357 0 0 0-1.5-3.5 33.995 33.995 0 0 0 1.5-7.5c.383-.556.883-.889 1.5-1l3 4a31.94 31.94 0 0 1 1.5 6 8.435 8.435 0 0 0 .5-4c2.266-.359 4.1.308 5.5 2 2.804-1.844 5.97-2.511 9.5-2a72.442 72.442 0 0 0 .5 12 84.94 84.94 0 0 0 .5-13 244.29 244.29 0 0 1 26-4h5c-.16 1.699.007 3.366.5 5 .497-2.31.663-4.643.5-7h6c2.894-.458 5.394.209 7.5 2 .667-2.667 1.333-2.667 2 0l1-2 3 5c.252-1.878.92-3.878 2-6 1.202 2.177 1.702 4.511 1.5 7z"/><path style="opacity:1" fill="#2fe5d2" d="M7.5 251.5c1.15.291 1.816 1.124 2 2.5a226.889 226.889 0 0 1 1.5 8.5c.21-1.558.71-2.891 1.5-4s1.29-2.442 1.5-4a68.9 68.9 0 0 0 2 14l1-5 1 12a247.6 247.6 0 0 1 1.5-11 26.329 26.329 0 0 1 2 5c-.617.111-1.117.444-1.5 1a33.995 33.995 0 0 1-1.5 7.5 11.357 11.357 0 0 1 1.5 3.5l1-7 1 13c.974 2.378 1.641 2.044 2-1 .198 1.882.698 3.548 1.5 5a38.044 38.044 0 0 0-3 9l-7-18c.33-2.728-.337-5.062-2-7a161.954 161.954 0 0 1-6-24z"/><path style="opacity:1" fill="#55f9a2" d="M122.5 261.5c-1.419.951-3.085 1.284-5 1a8.43 8.43 0 0 1-.5 4c-.667-2.667-1.333-2.667-2 0-.667-2.667-1.333-2.667-2 0-.667-2.667-1.333-2.667-2 0-3.333-1.333-6.667-1.333-10 0l-2.5 2.5a7.252 7.252 0 0 1 2 2.5c-1.355 1.175-1.188 2.175.5 3l5-1 1 2a182.262 182.262 0 0 1 18.5-4c.193-3.949.693-3.949 1.5 0a530.69 530.69 0 0 1 24.5-5c1.081 3.127 1.747 6.46 2 10a223.5 223.5 0 0 1-26 5c-.545-3.672-.878-3.338-1 1a903.966 903.966 0 0 0-26 6 109.073 109.073 0 0 1-2-11 4.934 4.934 0 0 0 3-.5c-1.633-.48-2.966-1.313-4-2.5.202-2.489-.298-4.823-1.5-7-1.08 2.122-1.748 4.122-2 6l-3-5-1 2c-.667-2.667-1.333-2.667-2 0-2.106-1.791-4.606-2.458-7.5-2 5.13-1.413 10.463-2.413 16-3 .182-5.294.682-5.294 1.5 0a170.718 170.718 0 0 1 24.5-4z"/><path style="opacity:1" fill="#50fea6" d="M414.5 203.5v8a158.05 158.05 0 0 1-6 24c-.397-1.025-1.063-1.192-2-.5a34.706 34.706 0 0 1-7.5 6.5c-6.257 3.385-13.09 6.885-20.5 10.5a892.165 892.165 0 0 1-55.5 17.5 3.943 3.943 0 0 1-2-1c-.121 2.227-.954 4.06-2.5 5.5a1976.1 1976.1 0 0 1-27 6.5c-1.147-.318-1.981-.984-2.5-2a4.934 4.934 0 0 0-.5 3c-29.314 6.49-57.981 14.156-86 23a4.934 4.934 0 0 0-.5-3 10.258 10.258 0 0 1-1.5 4 134.123 134.123 0 0 0-8.5 4 99.899 99.899 0 0 1-1.5 8c-.104 2.203-.77 4.203-2 6-1.564 4.229-4.231 7.563-8 10-5.841 1.898-11.841 2.398-18 1.5-4.672-1.503-7.339-4.67-8-9.5-.247-3.439.086-6.772 1-10v-10a467.073 467.073 0 0 1 2 9c15.488 5.136 26.821.469 34-14 3.598-1.59 7.264-3.09 11-4.5a26.67 26.67 0 0 0 1.5-6.5l1 6A1504.347 1504.347 0 0 1 320.5 266c1.679-2.565 2.346-5.398 2-8.5.79 1.109 1.29 2.442 1.5 4a601.167 601.167 0 0 1 28.5-8.5c.935-2.381 1.268-4.881 1-7.5h-3c1.43-1.037 3.097-1.704 5-2-1.069 2.908-1.236 5.908-.5 9a187.582 187.582 0 0 1 20.5-7.5c2.505-.51 4.005-2.01 4.5-4.5a4.457 4.457 0 0 0 1.5 2c11.423-4.033 21.089-10.533 29-19.5a28.496 28.496 0 0 0 1-9.5 898.69 898.69 0 0 1 3-10z"/><path style="opacity:.954" fill="#06d7fb" d="M397.5 260.5c-6.91 8.645-15.577 15.145-26 19.5a841.64 841.64 0 0 1-92 24.5c.111-.617.444-1.117 1-1.5a1287.01 1287.01 0 0 0 49-12c3.34-1.003 6.34-2.503 9-4.5a280.115 280.115 0 0 0 42-13.5c2.239-1.31 3.906-3.143 5-5.5a54.032 54.032 0 0 1 12-7z"/><path style="opacity:1" fill="#63d195" d="M42.5 274.5a84.94 84.94 0 0 1-.5 13 72.442 72.442 0 0 1-.5-12c-3.53-.511-6.696.156-9.5 2-1.4-1.692-3.234-2.359-5.5-2a8.435 8.435 0 0 1-.5 4 31.94 31.94 0 0 0-1.5-6c.802-1.452 1.302-3.118 1.5-5 .495 1.973.662 3.973.5 6h5c.333-9.333.667-9.333 1 0h9c.333-20 .667-20 1 0z"/><path style="opacity:1" fill="#0befed" d="M385.5 267.5c-1.094 2.357-2.761 4.19-5 5.5a280.115 280.115 0 0 1-42 13.5 17.846 17.846 0 0 1 5-5c14.637-4.125 28.637-8.791 42-14z"/><path style="opacity:1" fill="#48f9af" d="M97.5 274.5c1.034 1.187 2.367 2.02 4 2.5a4.934 4.934 0 0 1-3 .5 109.073 109.073 0 0 0 2 11 267.179 267.179 0 0 0-22 6 345.829 345.829 0 0 0-20 6 76.277 76.277 0 0 0-2-14 363.932 363.932 0 0 1 41-9v-3z"/><path style="opacity:1" fill="#7ffe77" d="M204.5 274.5a31.116 31.116 0 0 1-1 11 196.121 196.121 0 0 0-10.5 4c-.42 3.691-.92 7.358-1.5 11-7.179 14.469-18.512 19.136-34 14a467.073 467.073 0 0 0-2-9v-11c.904.709 1.237 1.709 1 3 15.622 1.384 26.956-4.949 34-19l14-4z"/><path style="opacity:.102" fill="#0ca5fb" d="M13.5 275.5c1.663 1.938 2.33 4.272 2 7-1.112-2.099-1.778-4.433-2-7z"/><path style="opacity:1" fill="#3cfebb" d="M408.5 235.5a33.691 33.691 0 0 1-2 9c-4.793 1.456-8.793 4.123-12 8a574.846 574.846 0 0 1-74.5 25l-1-1c-1.009 1.525-1.509 3.192-1.5 5a1622.945 1622.945 0 0 0-60 14c-1.449-1.749-2.782-1.916-4-.5.556.383.889.883 1 1.5-18.803 4.885-36.97 10.552-54.5 17-1.087-2.432-1.587-2.098-1.5 1-2.88.44-5.546 1.44-8 3a99.899 99.899 0 0 0 1.5-8 134.123 134.123 0 0 1 8.5-4 10.258 10.258 0 0 0 1.5-4c.483.948.649 1.948.5 3 28.019-8.844 56.686-16.51 86-23a4.934 4.934 0 0 1 .5-3c.519 1.016 1.353 1.682 2.5 2a1976.1 1976.1 0 0 0 27-6.5c1.546-1.44 2.379-3.273 2.5-5.5a3.943 3.943 0 0 0 2 1 892.165 892.165 0 0 0 55.5-17.5c7.41-3.615 14.243-7.115 20.5-10.5a34.706 34.706 0 0 0 7.5-6.5c.937-.692 1.603-.525 2 .5z"/><path style="opacity:1" fill="#2bfdcb" d="M394.5 252.5a81.417 81.417 0 0 1-4 7.5 460.113 460.113 0 0 1-72.5 23.5 4646.537 4646.537 0 0 0-7.5 4.5 1785.088 1785.088 0 0 0-26 6.5c-10.168 2.128-20.501 4.794-31 8l-1-1a16.076 16.076 0 0 0 2-5c-.111-.617-.444-1.117-1-1.5 1.218-1.416 2.551-1.249 4 .5a1622.945 1622.945 0 0 1 60-14c-.009-1.808.491-3.475 1.5-5l1 1a574.846 574.846 0 0 0 74.5-25z"/><path style="opacity:1" fill="#36f9c1" d="M153.5 276.5c0 .667.333 1 1 1v9a527.938 527.938 0 0 0-49 13h-3a4.934 4.934 0 0 0-.5-3c-1.092 1.631-1.925 3.298-2.5 5a83.03 83.03 0 0 0-17 5h-3a38.906 38.906 0 0 0-2-9.5c.243-.902.577-1.735 1-2.5a267.179 267.179 0 0 1 22-6 903.966 903.966 0 0 1 26-6c.122-4.338.455-4.672 1-1a223.5 223.5 0 0 0 26-5z"/><path style="opacity:1" fill="#3cf6bc" d="M56.5 286.5a76.277 76.277 0 0 1 2 14 78.32 78.32 0 0 0-11.5 4c-.945-.405-1.612-1.072-2-2a6.807 6.807 0 0 1-1.5 3c-2.28.636-4.28 1.636-6 3-1.467-2.758-2.133-2.425-2 1a6.845 6.845 0 0 0-4 1 10.255 10.255 0 0 1-1.5-4c-.122 1.937-.955 3.27-2.5 4-1.319-.444-2.319-1.777-3-4-1.78-1.49-2.447-3.49-2-6a38.044 38.044 0 0 1 3-9c.823-3.477 1.323-7.144 1.5-11 .499 3.986.666 7.986.5 12 1.644.214 3.144-.12 4.5-1 .83-13.317 1.33-13.317 1.5 0a160.277 160.277 0 0 0 21-5c1.324-13.268 1.99-13.268 2 0z"/><path style="opacity:1" fill="#20fad7" d="M154.5 286.5c.973 2.448 1.306 5.115 1 8v2a192.62 192.62 0 0 0-21 6c-.722-.418-1.222-1.084-1.5-2-.5 1.167-1.333 2-2.5 2.5a586.108 586.108 0 0 0-23 7.5c-.667 0-1-.333-1-1a106.129 106.129 0 0 0-3-7.5c.556-1.011 1.222-1.844 2-2.5a527.938 527.938 0 0 1 49-13z"/><path style="opacity:1" fill="#24f9d4" d="M78.5 294.5a11.114 11.114 0 0 0-1 2.5 38.906 38.906 0 0 1 2 9.5 305.734 305.734 0 0 1-18 8 116.572 116.572 0 0 0-13 6 81.314 81.314 0 0 0-7.5 4c-.399-.228-.565-.562-.5-1-1.855-5.044-2.855-10.044-3-15 1.72-1.364 3.72-2.364 6-3a6.807 6.807 0 0 0 1.5-3c.388.928 1.055 1.595 2 2a78.32 78.32 0 0 1 11.5-4 345.829 345.829 0 0 1 20-6z"/><path style="opacity:1" fill="#1bfbdd" d="M406.5 244.5c-2.202 5.848-5.202 11.181-9 16a54.032 54.032 0 0 0-12 7c-13.363 5.209-27.363 9.875-42 14a17.846 17.846 0 0 0-5 5c-39.703 7.76-79.036 17.76-118 30l-2-.5c2.059-1.185 2.226-2.352.5-3.5-8.842 2.883-17.342 6.217-25.5 10a5.727 5.727 0 0 0-3 1h-2c1.23-1.797 1.896-3.797 2-6a20.532 20.532 0 0 1 8-3c-.087-3.098.413-3.432 1.5-1 17.53-6.448 35.697-12.115 54.5-17a16.076 16.076 0 0 1-2 5l1 1c10.499-3.206 20.832-5.872 31-8a1785.088 1785.088 0 0 1 26-6.5c2.503-1.505 5.003-3.005 7.5-4.5a460.113 460.113 0 0 0 72.5-23.5 81.417 81.417 0 0 0 4-7.5c3.207-3.877 7.207-6.544 12-8z"/><path style="opacity:1" fill="#12f4e5" d="M155.5 296.5v10c-5.939 1.094-11.606 2.761-17 5h-1a71.088 71.088 0 0 1-3-9 192.62 192.62 0 0 1 21-6z"/><path style="opacity:1" fill="#17f6e1" d="M105.5 299.5c-.778.656-1.444 1.489-2 2.5a106.129 106.129 0 0 1 3 7.5c-6.925 3.759-14.259 6.759-22 9a3892.018 3892.018 0 0 0-4-10 31.12 31.12 0 0 0 2-2 83.03 83.03 0 0 1 17-5c.575-1.702 1.408-3.369 2.5-5 .483.948.649 1.948.5 3h3z"/><path style="opacity:1" fill="#0cecef" d="M338.5 286.5c-2.66 1.997-5.66 3.497-9 4.5a1287.01 1287.01 0 0 1-49 12c-.556.383-.889.883-1 1.5-3.739 1.602-7.739 2.602-12 3a81.924 81.924 0 0 0-23 5 3.647 3.647 0 0 1-1.5-1 536.866 536.866 0 0 1-28 10l-1.5-.5a7.293 7.293 0 0 1 3-2c-8.436 1.813-16.603 4.646-24.5 8.5.134-1.689.634-3.356 1.5-5 8.158-3.783 16.658-7.117 25.5-10 1.726 1.148 1.559 2.315-.5 3.5l2 .5c38.964-12.24 78.297-22.24 118-30z"/><path style="opacity:.839" fill="#08a4fd" d="m15.5 282.5 7 18c-.447 2.51.22 4.51 2 6 .463 2.982.796 5.982 1 9a236.58 236.58 0 0 1-10-33z"/><path style="opacity:1" fill="#09e7ee" d="M134.5 302.5a71.088 71.088 0 0 0 3 9 298.649 298.649 0 0 0-26 9 32.503 32.503 0 0 1-4-10 586.108 586.108 0 0 1 23-7.5c1.167-.5 2-1.333 2.5-2.5.278.916.778 1.582 1.5 2z"/><path style="opacity:1" fill="#02ddf9" d="M155.5 306.5v9a218.284 218.284 0 0 0-11.5 3 11.123 11.123 0 0 1-2.5-1l-3-6c5.394-2.239 11.061-3.906 17-5z"/><path style="opacity:1" fill="#0deceb" d="M79.5 306.5h3a31.12 31.12 0 0 1-2 2c1.349 3.359 2.682 6.692 4 10a8724.326 8724.326 0 0 1-17 8 30.968 30.968 0 0 0-2-2c-.382-3.832-1.715-7.165-4-10a305.734 305.734 0 0 0 18-8z"/><path style="opacity:1" fill="#0fe4ee" d="M37.5 308.5c.145 4.956 1.145 9.956 3 15-1.333 2-3 3.667-5 5a5.727 5.727 0 0 0-3 1 27.587 27.587 0 0 1-1.5-5c-.556 2.095-1.056 2.262-1.5.5 1.164-2.541.997-5.041-.5-7.5-.654 1.196-1.154 1.196-1.5 0a234.684 234.684 0 0 1 0-7c1.545-.73 2.378-2.063 2.5-4a10.255 10.255 0 0 0 1.5 4 6.845 6.845 0 0 1 4-1c-.133-3.425.533-3.758 2-1z"/><path style="opacity:1" fill="#02ddf8" d="M106.5 309.5c0 .667.333 1 1 1a32.503 32.503 0 0 0 4 10 278.23 278.23 0 0 0-21 8c-2.999-2.653-4.999-5.986-6-10 7.741-2.241 15.075-5.241 22-9z"/><path style="opacity:1" fill="#01d0fd" d="M137.5 311.5h1l3 6c-.622 1.835-1.956 3.002-4 3.5a704.32 704.32 0 0 0-20 7.5h-1l-5-8a298.649 298.649 0 0 1 26-9z"/><path style="opacity:1" fill="#03dff7" d="M61.5 314.5c2.285 2.835 3.618 6.168 4 10 .17 1.322-.163 2.489-1 3.5a90.072 90.072 0 0 0-9 5.5h-1c-1.636-4.61-3.636-8.944-6-13a116.572 116.572 0 0 1 13-6z"/><path style="opacity:.98" fill="#0dc4f6" d="M24.5 306.5c.681 2.223 1.681 3.556 3 4a234.684 234.684 0 0 0 0 7c.346 1.196.846 1.196 1.5 0 1.497 2.459 1.664 4.959.5 7.5.444 1.762.944 1.595 1.5-.5a27.587 27.587 0 0 0 1.5 5 5.727 5.727 0 0 1-3-1 73.368 73.368 0 0 1-4-13 104.578 104.578 0 0 0-1-9z"/><path style="opacity:1" fill="#03bffe" d="M155.5 315.5c-.914 3.228-1.247 6.561-1 10-.934 1.068-1.268 2.401-1 4a45.576 45.576 0 0 1-6.5-5c-7.453 4.607-15.453 8.274-24 11a25.593 25.593 0 0 0-4.5-4 5.727 5.727 0 0 1-1-3 704.32 704.32 0 0 1 20-7.5c2.044-.498 3.378-1.665 4-3.5.765.423 1.598.757 2.5 1a218.284 218.284 0 0 1 11.5-3z"/><path style="opacity:.955" fill="#05d7fc" d="M267.5 307.5a3334.437 3334.437 0 0 0-53 15.5 261.787 261.787 0 0 0-27 10.5 56.004 56.004 0 0 1 3-10 5.727 5.727 0 0 1 3-1c-.866 1.644-1.366 3.311-1.5 5 7.897-3.854 16.064-6.687 24.5-8.5a7.293 7.293 0 0 0-3 2l1.5.5a536.866 536.866 0 0 0 28-10c.414.457.914.791 1.5 1a81.924 81.924 0 0 1 23-5z"/><path style="opacity:1" fill="#03cbfd" d="M48.5 320.5c2.364 4.056 4.364 8.39 6 13a5859.095 5859.095 0 0 0-13 10 102.812 102.812 0 0 1-6-15c2-1.333 3.667-3 5-5-.065.438.101.772.5 1a81.314 81.314 0 0 1 7.5-4z"/><path style="opacity:1" fill="#02c4fd" d="M84.5 318.5c1.001 4.014 3.001 7.347 6 10a278.23 278.23 0 0 1 21-8l5 8a300.615 300.615 0 0 1-21 10h-1a31.517 31.517 0 0 0-5.5-9 386.77 386.77 0 0 0-16.5 9 229.672 229.672 0 0 0-11.5 8c-3.083-4.124-4.917-8.457-5.5-13a90.072 90.072 0 0 1 9-5.5c.837-1.011 1.17-2.178 1-3.5a30.968 30.968 0 0 1 2 2c5.696-2.673 11.363-5.34 17-8z"/><path style="opacity:1" fill="#12f2e9" d="M188.5 323.5h2a56.004 56.004 0 0 0-3 10c-.066 4.265-1.066 8.265-3 12-1.385 2.383-3.385 4.05-6 5-.624-.417-.957-1.084-1-2a297.746 297.746 0 0 0 3-15c3.769-2.437 6.436-5.771 8-10z"/><path style="opacity:1" fill="#00b0fd" d="M94.5 338.5a179.617 179.617 0 0 1-15 10h-1a310.972 310.972 0 0 1-6-10 386.77 386.77 0 0 1 16.5-9 31.517 31.517 0 0 1 5.5 9z"/><path style="opacity:1" fill="#01aefd" d="M116.5 328.5h1a5.727 5.727 0 0 0 1 3 15.414 15.414 0 0 0 2 4.5l-1 1.5a203.845 203.845 0 0 0-17 9h-1l-6-8a300.615 300.615 0 0 0 21-10z"/><path style="opacity:1" fill="#03a5fd" d="M153.5 329.5a132.657 132.657 0 0 0-2 10 60.379 60.379 0 0 1-3 7c-.235-.597-.735-.93-1.5-1-1.895 1.682-4.062 2.182-6.5 1.5a47.171 47.171 0 0 1-13-6.5 20.79 20.79 0 0 1-1 2.5 263.322 263.322 0 0 0-17 9.5c-2.927-1.257-5.261-3.257-7-6a203.845 203.845 0 0 1 17-9l1-1.5a15.414 15.414 0 0 1-2-4.5 25.593 25.593 0 0 1 4.5 4c8.547-2.726 16.547-6.393 24-11a45.576 45.576 0 0 0 6.5 5z"/><path style="opacity:1" fill="#1ffbd9" d="M154.5 325.5c.661 4.83 3.328 7.997 8 9.5 6.159.898 12.159.398 18-1.5a297.746 297.746 0 0 1-3 15c.043.916.376 1.583 1 2-2.736 2.532-6.07 3.865-10 4-4.12-.344-7.786-1.677-11-4 .087-3.098-.413-3.432-1.5-1-3.239-1.81-4.072-4.31-2.5-7.5-1.256-.417-1.923-1.25-2-2.5.54-3.365 1.206-6.698 2-10-.268-1.599.066-2.932 1-4z"/><path style="opacity:1" fill="#0099fc" d="M94.5 338.5h1l6 8a190.941 190.941 0 0 1-15 11h-1a1698.243 1698.243 0 0 1-6-9 179.617 179.617 0 0 0 15-10z"/><path style="opacity:1" fill="#02a0fd" d="M29.5 328.5c.891.61 1.891.943 3 1a5.727 5.727 0 0 1 3-1 102.812 102.812 0 0 0 6 15c4.352-3.357 8.685-6.691 13-10h1c.583 4.543 2.417 8.876 5.5 13 3.775-2.8 7.608-5.466 11.5-8 2.18 3.774 4.18 7.107 6 10a72.84 72.84 0 0 1-11 9 86.333 86.333 0 0 0-7.5-10c-3.768 2.623-6.602 5.289-8.5 8-.822 2.228-2.155 2.895-4 2l-6.5-13c-.69 1.85-1.856 3.184-3.5 4a120.47 120.47 0 0 1-8-20z"/><path style="opacity:1" fill="#028efc" d="M148.5 346.5a20.69 20.69 0 0 0-1 5c-.667 0-1 .333-1 1-3.881 1.274-7.548 3.107-11 5.5 2.169.429 4.169-.071 6-1.5.921 1.531.588 2.865-1 4-4.635 4.062-9.302 7.395-14 10l-6 1a219.064 219.064 0 0 1 13-11.5 42.36 42.36 0 0 1-8.5-1.5 3.647 3.647 0 0 1-1.5 1 86.93 86.93 0 0 1-9-3l-5-4a263.322 263.322 0 0 1 17-9.5c.43-.92.764-1.753 1-2.5a47.171 47.171 0 0 0 13 6.5c2.438.682 4.605.182 6.5-1.5.765.07 1.265.403 1.5 1z"/><path style="opacity:1" fill="#0ae8f0" d="M151.5 339.5c.077 1.25.744 2.083 2 2.5-1.572 3.19-.739 5.69 2.5 7.5 1.087-2.432 1.587-2.098 1.5 1-1.29.558-2.123 1.558-2.5 3a176.067 176.067 0 0 1-3.5 10c-1.29-.558-2.123-1.558-2.5-3a30.465 30.465 0 0 1-1.5-9 20.69 20.69 0 0 1 1-5 60.379 60.379 0 0 0 3-7z"/><path style="opacity:1" fill="#0082fb" d="M78.5 348.5h1c1.974 2.982 3.974 5.982 6 9a70.862 70.862 0 0 1-10 10h-1a2194.864 2194.864 0 0 1-6.5-9 74.951 74.951 0 0 1-7.5 7 78.697 78.697 0 0 1-6.5-10c-.77-1.098-1.603-1.098-2.5 0 1.898-2.711 4.732-5.377 8.5-8a86.333 86.333 0 0 1 7.5 10 72.84 72.84 0 0 0 11-9z"/><path style="opacity:1" fill="#04bcfe" d="M184.5 345.5a99.865 99.865 0 0 1-8 21c-3.214 3.332-7.214 4.998-12 5 .539-6.059 1.872-11.725 4-17 3.93-.135 7.264-1.468 10-4 2.615-.95 4.615-2.617 6-5z"/><path style="opacity:1" fill="#0081fb" d="M101.5 346.5h1c1.739 2.743 4.073 4.743 7 6l5 4c-1.716 4.264-4.55 6.597-8.5 7-1.669 1.669-2.502 3.669-2.5 6a81.7 81.7 0 0 0-11-5c-1.474-2.749-3.474-5.082-6-7a190.941 190.941 0 0 0 15-11z"/><path style="opacity:1" fill="#04cdfe" d="M157.5 350.5c3.214 2.323 6.88 3.656 11 4-2.128 5.275-3.461 10.941-4 17h-1a26.335 26.335 0 0 0-5-2 2.428 2.428 0 0 0-.5-2c-.718.951-1.551 1.117-2.5.5-1.786-1.196-3.119-2.696-4-4.5a176.067 176.067 0 0 0 3.5-10c.377-1.442 1.21-2.442 2.5-3z"/><path style="opacity:1" fill="#0071fd" d="M85.5 357.5h1c2.526 1.918 4.526 4.251 6 7-2.248 3.754-5.081 7.088-8.5 10a89.868 89.868 0 0 1-8.5-7 70.862 70.862 0 0 0 10-10z"/><path style="opacity:1" fill="#0077fa" d="M114.5 356.5a86.93 86.93 0 0 0 9 3 3.647 3.647 0 0 0 1.5-1 42.36 42.36 0 0 0 8.5 1.5 219.064 219.064 0 0 0-13 11.5c-5.823.377-11.489-.29-17-2-.002-2.331.831-4.331 2.5-6 3.95-.403 6.784-2.736 8.5-7z"/><path style="opacity:1" fill="#0171fd" d="M51.5 355.5c.897-1.098 1.73-1.098 2.5 0a78.697 78.697 0 0 0 6.5 10 74.951 74.951 0 0 0 7.5-7c2.176 3.029 4.343 6.029 6.5 9a36.185 36.185 0 0 1-5 9h-1a38.135 38.135 0 0 0-7.5-9c-1.855 1.163-3.189 2.83-4 5a150.982 150.982 0 0 0-8.5-12c-1.671 2.01-2.338 4.343-2 7a82.898 82.898 0 0 1-9-19c1.644-.816 2.81-2.15 3.5-4l6.5 13c1.845.895 3.178.228 4-2z"/><path style="opacity:1" fill="#0357fd" d="M68.5 376.5c.356 3.064-.477 5.731-2.5 8l-9-11a18.982 18.982 0 0 0-1.5 8c-2.986-4.63-5.986-9.297-9-14-.338-2.657.329-4.99 2-7a150.982 150.982 0 0 1 8.5 12c.811-2.17 2.145-3.837 4-5a38.135 38.135 0 0 1 7.5 9z"/><path style="opacity:1" fill="#04b1fe" d="M147.5 351.5a30.465 30.465 0 0 0 1.5 9c.377 1.442 1.21 2.442 2.5 3 .881 1.804 2.214 3.304 4 4.5.949.617 1.782.451 2.5-.5.464.594.631 1.261.5 2-3.312 3.271-5.645 7.271-7 12-.617.111-1.117.444-1.5 1a81.338 81.338 0 0 0-5.5-5c-.296-1.903-.963-3.57-2-5 .338-3.908.505-7.908.5-12a36.621 36.621 0 0 1 3.5-8c0-.667.333-1 1-1z"/><path style="opacity:1" fill="#029afb" d="M146.5 352.5a36.621 36.621 0 0 0-3.5 8 137.29 137.29 0 0 1-.5 12c-.617-.111-1.117-.444-1.5-1l-5 6c.63-7.319-1.037-8.319-5-3l-.5-1c2.619-4.943 5.952-9.277 10-13 1.588-1.135 1.921-2.469 1-4-1.831 1.429-3.831 1.929-6 1.5 3.452-2.393 7.119-4.226 11-5.5z"/><path style="opacity:1" fill="#0061fa" d="M92.5 364.5a81.7 81.7 0 0 1 11 5c5.511 1.71 11.177 2.377 17 2l6-1c-1.877 3.31-3.377 6.643-4.5 10 6.812-4.507 8.312-2.673 4.5 5.5a2.428 2.428 0 0 0 2 .5c-.333 1-1 1.667-2 2-2.65.728-5.483 2.062-8.5 4l-1.5-1.5a26.546 26.546 0 0 0 3-7.5c-12.732 2.06-24.398-.607-35-8a74.738 74.738 0 0 0-7 9c-3.306-1.973-5.973-4.639-8-8a36.185 36.185 0 0 0 5-9h1a89.868 89.868 0 0 0 8.5 7c3.419-2.912 6.252-6.246 8.5-10z"/><path style="opacity:1" fill="#0194fe" d="M158.5 369.5a26.335 26.335 0 0 1 5 2 68.744 68.744 0 0 1-7 14c-2.704-.17-4.371-1.503-5-4 1.355-4.729 3.688-8.729 7-12z"/><path style="opacity:1" fill="#0481fe" d="M176.5 366.5a144.906 144.906 0 0 1-11 20c-2.752-.262-5.752-.262-9 0v-1a68.744 68.744 0 0 0 7-14h1c4.786-.002 8.786-1.668 12-5z"/><path style="opacity:1" fill="#0181fb" d="M140.5 360.5c-4.048 3.723-7.381 8.057-10 13l.5 1c3.963-5.319 5.63-4.319 5 3l5-6c.383.556.883.889 1.5 1 1.037 1.43 1.704 3.097 2 5a72.484 72.484 0 0 1-6 8.5c-.832.688-1.498.521-2-.5a16.086 16.086 0 0 0-2.5-5 46.081 46.081 0 0 0-5.5 6 2.428 2.428 0 0 1-2-.5c3.812-8.173 2.312-10.007-4.5-5.5 1.123-3.357 2.623-6.69 4.5-10 4.698-2.605 9.365-5.938 14-10z"/><path style="opacity:1" fill="#004bfb" d="M126.5 388.5a85.398 85.398 0 0 0 2 8 58.53 58.53 0 0 1-9 5c-1.729-2.351-2.396-5.018-2-8-14.787 2.968-28.12-.032-40-9a74.738 74.738 0 0 1 7-9c10.602 7.393 22.268 10.06 35 8a26.546 26.546 0 0 1-3 7.5l1.5 1.5c3.017-1.938 5.85-3.272 8.5-4z"/><path style="opacity:1" fill="#0134fc" d="M68.5 376.5h1c2.027 3.361 4.694 6.027 8 8 11.88 8.968 25.213 11.968 40 9-.396 2.982.271 5.649 2 8a58.53 58.53 0 0 0 9-5 13.366 13.366 0 0 0 4.5 6 34.517 34.517 0 0 0 7.5-6.5 4.934 4.934 0 0 1 3-.5c1.171.845 2.505 1.511 4 2v1a59.339 59.339 0 0 1-10 8c-2.391-2.043-4.891-3.043-7.5-3-1.782 1.812-4.282 3.479-7.5 5-1.688-1.529-3.021-3.363-4-5.5-14.681 2.897-28.347.063-41-8.5a14.729 14.729 0 0 0-1.5 5 45.24 45.24 0 0 1-8.5-7.5c-.667-.667-1.333-.667-2 0 .752.671 1.086 1.504 1 2.5a103.05 103.05 0 0 1-11-13c-.08-2.771.42-5.437 1.5-8l9 11c2.023-2.269 2.856-4.936 2.5-8z"/><path style="opacity:1" fill="#026cfc" d="M144.5 377.5a81.338 81.338 0 0 1 5.5 5c.383-.556.883-.889 1.5-1 .629 2.497 2.296 3.83 5 4v1a105.735 105.735 0 0 1-9 11c-1.495-.489-2.829-1.155-4-2-2.605-1.837-4.772-4.17-6.5-7a95.356 95.356 0 0 1-8.5 8 85.398 85.398 0 0 1-2-8c1-.333 1.667-1 2-2a46.081 46.081 0 0 1 5.5-6 16.086 16.086 0 0 1 2.5 5c.502 1.021 1.168 1.188 2 .5a72.484 72.484 0 0 0 6-8.5z"/><path style="opacity:1" fill="#0350fe" d="M165.5 386.5a58.524 58.524 0 0 1-8 10 2.428 2.428 0 0 0-.5-2c-2.239 3.462-5.406 4.795-9.5 4v-1a105.735 105.735 0 0 0 9-11c3.248-.262 6.248-.262 9 0z"/><path style="opacity:1" fill="#004ffd" d="M143.5 395.5a4.934 4.934 0 0 0-3 .5 34.517 34.517 0 0 1-7.5 6.5 13.366 13.366 0 0 1-4.5-6 95.356 95.356 0 0 0 8.5-8c1.728 2.83 3.895 5.163 6.5 7z"/><path style="opacity:1" fill="#0416fb" d="M147.5 398.5c4.094.795 7.261-.538 9.5-4 .464.594.631 1.261.5 2-7.016 8.354-15.683 14.521-26 18.5-3.178.66-6.178 1.493-9 2.5h-18c-14.488-4.581-27.154-12.247-38-23 .086-.996-.248-1.829-1-2.5.667-.667 1.333-.667 2 0a45.24 45.24 0 0 0 8.5 7.5 14.729 14.729 0 0 1 1.5-5c12.653 8.563 26.319 11.397 41 8.5.979 2.137 2.312 3.971 4 5.5 3.218-1.521 5.718-3.188 7.5-5 2.609-.043 5.109.957 7.5 3a59.339 59.339 0 0 0 10-8z"/></svg>