<svg viewBox="0 0 256 256" fill="none" xmlns="http://www.w3.org/2000/svg">
<g clip-path="url(#clip0_4558_33)">
<rect width="256" height="256" rx="128" fill="black"/>
<g filter="url(#filter0_f_4558_33)">
<path fill-rule="evenodd" clip-rule="evenodd" d="M147.471 35.3261L146.614 35C138.071 46.5142 132.726 55.6615 127.914 67.0649C127.759 67.0638 127.604 67.0632 127.449 67.0632C109.971 67.0632 94.1758 74.2741 82.8724 85.885C65.0536 83.3155 53.372 82.029 33.9687 80.3398C42.6497 82.1682 80.9471 90.083 126.626 97.2259C139.288 61.5954 147.471 35.3261 147.471 35.3261ZM166.182 42.4477C166.182 42.4477 153.915 65.28 139.564 99.1975C188.464 106.458 227.893 110.199 227.893 110.199L227.87 110.433L228.001 109.571C224.863 108.969 221.623 108.326 218.252 107.657C207.98 105.618 196.495 103.339 183.004 101.249C178.225 91.8014 171.11 83.7377 162.419 77.8187C167.003 58.2082 168.341 43.2698 166.305 42.4947L166.182 42.4477ZM224.306 133.821C217.069 131.707 178.473 120.717 133.726 113.353C131.652 118.517 129.563 123.87 127.489 129.379C124.137 138.278 120.981 147.165 118.056 155.76C120.443 155.671 122.855 155.573 125.289 155.467C170.937 153.48 208.895 149.179 208.895 149.179L209.461 167.575C209.463 167.575 209.464 167.575 209.466 167.575L208.869 148.184C202.581 146.667 195.692 145.388 187.798 144.578C188.877 140.287 189.511 135.821 189.648 131.229C200.32 132.558 210.248 133.535 224.167 134.735L224.306 133.821ZM175.353 169.079C161.279 169.171 143.996 169.484 125.745 170.278C121.444 170.466 117.198 170.675 113.036 170.9C102.51 203.467 96.0538 228.679 96.0538 228.679L77.3431 221.557C77.3431 221.557 86.34 201.32 98.2908 171.782C92.9302 172.132 87.7939 172.499 82.9566 172.866C84.6197 174.568 86.3795 176.175 88.2271 177.678C86.9454 182.739 85.8755 187.476 84.8087 192.199C82.7569 201.283 80.7166 210.317 77.2034 221.505L96.8941 229C99.3604 222.993 102.332 216.628 105.593 209.643L105.593 209.643L105.593 209.643C108.376 203.681 111.371 197.267 114.441 190.239C118.637 191.132 122.988 191.602 127.449 191.602C146.717 191.602 163.939 182.839 175.353 169.079ZM41.5212 156.466C41.6462 156.469 68.7227 157.167 104.521 156.197C107.873 147.706 111.359 138.701 114.869 129.379C117.169 123.271 119.387 117.272 121.51 111.444C79.3046 105.08 42.395 101.174 31.9993 100.12C32.0522 100.658 32.087 100.956 32.087 100.956C39.093 102.3 46.166 104.355 53.9204 106.609C58.3791 107.904 63.063 109.265 68.0889 110.594C66.2264 116.508 65.222 122.803 65.222 129.333C65.222 136.62 66.4731 143.616 68.7721 150.115C61.3432 151.473 54.0264 153.204 44.6491 155.422L44.6268 155.428L44.545 155.447L44.5301 155.45C43.5475 155.683 42.5423 155.921 41.5119 156.164L41.5212 156.466ZM31.9248 81.2584L32.0901 80.177C32.0851 80.1766 32.0801 80.1762 32.0751 80.1758C32.0207 80.5324 31.9707 80.8936 31.9248 81.2584Z" fill="#E215FA"/>
</g>
<path fill-rule="evenodd" clip-rule="evenodd" d="M147.377 40.2138L146.578 39.9098C138.612 50.6469 133.627 59.1769 129.14 69.8107C128.996 69.8097 128.851 69.8091 128.707 69.8091C112.408 69.8091 97.679 76.5333 87.1385 87.3607C70.5222 84.9645 59.629 83.7649 41.5351 82.1897C49.6303 83.8947 85.3429 91.2753 127.939 97.9362C139.747 64.7103 147.377 40.2138 147.377 40.2138ZM164.825 46.8549C164.825 46.8549 153.387 68.1462 140.003 99.7747C185.604 106.545 222.371 110.034 222.371 110.034L222.349 110.255L222.472 109.448C219.547 108.886 216.525 108.287 213.382 107.663L213.382 107.663C203.803 105.762 193.093 103.637 180.512 101.688C176.056 92.8777 169.421 85.3583 161.317 79.8387C165.591 61.5517 166.839 47.6215 164.94 46.8987L164.825 46.8549ZM219.027 132.061C212.279 130.09 176.287 119.842 134.559 112.975C132.625 117.79 130.678 122.782 128.743 127.919C125.618 136.218 122.675 144.505 119.948 152.52C122.173 152.437 124.423 152.346 126.692 152.247C169.259 150.394 204.656 146.383 204.656 146.383L205.184 163.538C205.185 163.538 205.187 163.538 205.188 163.538L204.631 145.456C198.768 144.04 192.344 142.847 184.983 142.092C185.989 138.092 186.58 133.926 186.708 129.644C196.659 130.884 205.918 131.794 218.897 132.913L219.027 132.061ZM173.378 164.94C160.253 165.026 144.137 165.317 127.118 166.058C123.107 166.233 119.147 166.428 115.266 166.638C105.451 197.007 99.43 220.518 99.43 220.518L81.9821 213.877C81.9821 213.877 90.3718 195.005 101.516 167.461C96.5173 167.787 91.7277 168.129 87.2169 168.472C88.7678 170.059 90.4088 171.557 92.1317 172.958C90.9365 177.678 89.9388 182.095 88.944 186.5C87.0306 194.971 85.1281 203.394 81.8519 213.828L100.214 220.817C102.514 215.215 105.285 209.28 108.326 202.766L108.326 202.766C110.921 197.206 113.713 191.226 116.577 184.672C120.489 185.505 124.547 185.943 128.707 185.943C146.674 185.943 162.734 177.771 173.378 164.94ZM48.578 153.178C48.716 153.182 73.9578 153.831 107.325 152.927C110.451 145.01 113.702 136.612 116.975 127.919C119.12 122.223 121.189 116.629 123.168 111.195C83.8115 105.26 49.3931 101.618 39.6987 100.634C39.7481 101.136 39.7805 101.415 39.7805 101.415C46.3137 102.668 52.9094 104.585 60.1404 106.686L60.1409 106.686C64.2985 107.894 68.6661 109.163 73.3527 110.402C71.6158 115.917 70.6793 121.787 70.6793 127.876C70.6793 134.672 71.8459 141.195 73.9897 147.256C67.0622 148.522 60.2392 150.136 51.4948 152.205C50.5432 152.43 49.5689 152.66 48.5693 152.896L48.578 153.178ZM39.6301 83.0394L39.7832 82.0379C39.7786 82.0375 39.774 82.0371 39.7694 82.0367C39.719 82.367 39.6727 82.7016 39.6301 83.0394Z" fill="white"/>
</g>
<defs>
<filter id="filter0_f_4558_33" x="-12.0752" y="-9" width="284.076" height="282" filterUnits="userSpaceOnUse" color-interpolation-filters="sRGB">
<feFlood flood-opacity="0" result="BackgroundImageFix"/>
<feBlend mode="normal" in="SourceGraphic" in2="BackgroundImageFix" result="shape"/>
<feGaussianBlur stdDeviation="22" result="effect1_foregroundBlur_4558_33"/>
</filter>
<clipPath id="clip0_4558_33">
<rect width="256" height="256" rx="128" fill="white"/>
</clipPath>
</defs>
</svg>