<svg viewBox="0 0 450 434" fill="none" xmlns="http://www.w3.org/2000/svg">
<g filter="url(#filter0_f_1763_7478)">
<path fill-rule="evenodd" clip-rule="evenodd" d="M256.803 34.598L255.223 34C239.479 55.1063 229.629 71.8739 220.76 92.7771C220.476 92.775 220.19 92.774 219.905 92.774C187.717 92.774 158.626 105.973 137.798 127.23C104.944 122.534 83.4155 120.189 47.6389 117.113C63.658 120.469 134.224 134.974 218.387 148.064C241.686 82.8546 256.755 34.7504 256.803 34.598ZM291.285 47.6525C291.211 47.7896 268.636 89.6072 242.23 151.678C332.35 164.988 405.013 171.845 405.013 171.845L404.998 172.001L405.211 170.613C399.431 169.513 393.462 168.337 387.252 167.114L387.25 167.114L387.25 167.114C368.314 163.384 347.141 159.213 322.264 155.394C313.457 138.095 300.354 123.33 284.352 112.489C292.8 76.5422 295.265 49.1591 291.512 47.7383L291.285 47.6525ZM398.368 215.135C384.944 211.235 313.866 191.114 231.472 177.626C227.649 187.092 223.801 196.904 219.978 207.002C213.802 223.316 207.984 239.606 202.594 255.362C206.993 255.197 211.439 255.019 215.924 254.824C300.049 251.181 370.002 243.298 370.002 243.298L371.046 277.019C371.049 277.019 371.051 277.019 371.054 277.019L369.953 241.474C358.365 238.692 345.67 236.348 331.123 234.863C333.108 227.01 334.276 218.834 334.531 210.429C354.185 212.853 372.475 214.631 398.11 216.814L398.368 215.135ZM308.188 279.776C282.25 279.944 250.4 280.517 216.765 281.974C208.838 282.317 201.013 282.701 193.343 283.114C173.944 342.811 162.046 389.026 162.046 389.026L127.563 375.972C127.563 375.972 144.144 338.875 166.168 284.73C156.289 285.372 146.823 286.044 137.909 286.718C140.974 289.838 144.217 292.783 147.622 295.538C145.26 304.815 143.288 313.498 141.322 322.156L141.322 322.156C137.541 338.808 133.781 355.367 127.306 375.876L163.594 389.615C168.139 378.605 173.614 366.939 179.623 354.137L179.624 354.136L179.625 354.133L179.626 354.132C184.755 343.203 190.273 331.447 195.933 318.564C203.664 320.2 211.683 321.061 219.905 321.061C255.413 321.061 287.153 304.999 308.188 279.776ZM61.5469 256.655C61.7784 256.661 111.678 257.94 177.649 256.162C183.827 240.598 190.251 224.09 196.72 207.002C200.959 195.806 205.047 184.81 208.96 174.127C131.18 162.461 63.1602 155.302 44 153.368C44.1002 154.395 44.1664 154.965 44.1664 154.965C57.0742 157.423 70.1045 161.186 84.39 165.311L84.3903 165.311L84.3904 165.311L84.3917 165.312C92.6063 167.684 101.236 170.176 110.496 172.609C107.072 183.438 105.225 194.963 105.225 206.918C105.225 220.277 107.531 233.099 111.768 245.013C98.0773 247.503 84.5934 250.676 67.3122 254.742L67.3113 254.742L67.2536 254.755C65.3914 255.194 63.4851 255.642 61.5297 256.101L61.5469 256.655Z" fill="#E215FA"/>
</g>
<path fill-rule="evenodd" clip-rule="evenodd" d="M256.63 43.5576L255.157 43C240.476 62.6819 231.29 78.3179 223.02 97.8103C222.754 97.8084 222.489 97.8074 222.223 97.8074C192.207 97.8074 165.079 110.116 145.657 129.938C115.02 125.559 94.9445 123.372 61.5825 120.504C76.5211 123.633 142.324 137.159 220.806 149.366C242.536 88.5493 256.589 43.6877 256.63 43.5576ZM288.785 55.7311C288.722 55.8472 267.668 94.8456 243.041 152.736C327.079 165.147 394.838 171.542 394.838 171.542L394.823 171.69L395.022 170.394C389.632 169.367 384.065 168.271 378.274 167.13C360.616 163.652 340.871 159.763 317.674 156.201C309.461 140.07 297.242 126.301 282.32 116.192C290.197 82.671 292.496 57.136 288.996 55.8111L288.785 55.7311ZM388.641 211.91C376.123 208.274 309.842 189.51 233.008 176.933C229.444 185.76 225.855 194.91 222.29 204.327C216.531 219.539 211.106 234.73 206.08 249.422C210.181 249.269 214.327 249.102 218.51 248.921C296.957 245.524 362.189 238.172 362.189 238.172L363.163 269.618C363.166 269.618 363.168 269.618 363.17 269.618L362.144 236.472C351.338 233.878 339.499 231.691 325.934 230.307C327.786 222.984 328.875 215.36 329.113 207.522C347.44 209.782 364.495 211.441 388.401 213.476L388.641 211.91ZM304.547 272.188C280.36 272.345 250.659 272.88 219.294 274.238C211.902 274.559 204.605 274.916 197.453 275.301C179.363 330.97 168.268 374.066 168.268 374.066L136.113 361.892C136.113 361.892 151.574 327.3 172.112 276.809C162.9 277.407 154.073 278.034 145.76 278.662C148.618 281.571 151.642 284.318 154.817 286.886C152.615 295.537 150.776 303.635 148.943 311.708L148.943 311.708C145.416 327.237 141.91 342.678 135.873 361.803L169.712 374.615C173.95 364.348 179.055 353.47 184.658 341.533L184.659 341.531L184.661 341.527L184.661 341.527C189.444 331.336 194.59 320.373 199.868 308.359C207.077 309.885 214.556 310.688 222.223 310.688C255.335 310.688 284.932 295.709 304.547 272.188ZM74.5515 250.628C74.7834 250.634 121.31 251.826 182.818 250.169C188.579 235.655 194.57 220.261 200.602 204.327C204.555 193.886 208.367 183.632 212.015 173.67C139.485 162.791 76.0562 156.115 58.189 154.312C58.2824 155.269 58.3442 155.802 58.3442 155.802C70.3809 158.093 82.5319 161.602 95.8534 165.449L95.8535 165.449C103.514 167.662 111.562 169.986 120.198 172.254C117.004 182.352 115.283 193.1 115.283 204.248C115.283 216.705 117.433 228.662 121.383 239.772C108.617 242.094 96.0423 245.052 79.9269 248.844L79.8853 248.854L79.7883 248.877L79.7681 248.882C78.065 249.282 76.3222 249.692 74.5356 250.112L74.5515 250.628Z" fill="white"/>
<defs>
<filter id="filter0_f_1763_7478" x="0" y="-10" width="449.211" height="443.615" filterUnits="userSpaceOnUse" color-interpolation-filters="sRGB">
<feFlood flood-opacity="0" result="BackgroundImageFix"/>
<feBlend mode="normal" in="SourceGraphic" in2="BackgroundImageFix" result="shape"/>
<feGaussianBlur stdDeviation="22" result="effect1_foregroundBlur_1763_7478"/>
</filter>
</defs>
</svg>