<svg version="1.0" xmlns="http://www.w3.org/2000/svg"
 width="256.000000pt" height="256.000000pt" viewBox="0 0 256.000000 256.000000"
 preserveAspectRatio="xMidYMid meet">

<g transform="translate(0.000000,256.000000) scale(0.100000,-0.100000)"
fill="#767676" stroke="#767676">
<path d="M395 2548 c-180 -34 -345 -200 -384 -386 -15 -74 -15 -1690 0 -1764
39 -187 200 -348 387 -387 36 -8 316 -11 885 -11 715 0 841 2 892 15 189 49
336 199 374 383 15 74 15 1690 0 1764 -40 191 -204 353 -393 387 -76 14 -1688
13 -1761 -1z m1724 -386 c156 -84 51 -417 -255 -808 -287 -367 -688 -715
-1010 -877 -135 -67 -211 -90 -306 -91 -73 -1 -91 2 -115 20 -103 75 -78 258
69 517 l50 88 44 -88 c37 -73 44 -98 44 -145 0 -49 4 -62 28 -88 34 -38 86
-51 159 -40 29 5 58 12 63 15 6 4 -17 27 -50 52 -80 60 -152 149 -200 248 -57
116 -73 195 -68 340 3 102 8 133 34 206 75 212 242 374 462 447 67 23 94 26
212 26 120 0 144 -3 215 -27 146 -49 281 -147 361 -262 l39 -57 13 43 c19 64
19 152 -1 183 -26 39 -70 57 -135 55 -48 -1 -68 4 -122 33 -36 19 -72 37 -80
40 -22 8 5 27 126 88 189 96 342 125 423 82z m-148 -1056 c-77 -307 -333 -518
-656 -542 -44 -3 -90 -2 -103 3 -21 8 -16 14 64 77 65 51 100 71 143 82 193
49 349 202 406 397 12 43 36 82 88 148 l72 90 3 -87 c2 -62 -3 -110 -17 -168z"/>
</g>
</svg>
