<svg viewBox="0 0 800 800" fill="none" xmlns="http://www.w3.org/2000/svg">
<circle cx="400" cy="400" r="400" fill="black"/>
<path d="M363.402 296.138L229.694 384.41C225.759 387.021 225.759 392.81 229.694 395.42L364.613 484.487C371.499 489.027 375.623 496.708 375.623 504.956V644.837C375.623 650.475 369.266 653.804 364.65 650.55L125.837 483.919C119.67 479.606 116 472.568 116 465.077V314.753C116 307.224 119.67 300.186 125.837 295.911L364.613 129.28C369.228 126.064 375.585 129.356 375.585 134.994V273.436C375.585 282.593 371.007 291.106 363.364 296.138H363.402Z" fill="#FAF0F0"/>
<path d="M684.506 314.753V465.077C684.506 472.606 680.837 479.644 674.669 483.919L435.856 650.55C431.24 653.766 424.884 650.474 424.884 644.837V504.956C424.884 496.708 429.008 489.027 435.894 484.487L570.813 395.42C574.747 392.81 574.747 387.021 570.813 384.41L437.104 296.138C429.462 291.106 424.884 282.555 424.884 273.436V134.993C424.884 129.356 431.24 126.026 435.856 129.28L674.669 295.911C680.837 300.224 684.506 307.262 684.506 314.753Z" fill="#FAF0F0"/>
</svg>
