<?xml version="1.0" encoding="UTF-8"?>
<svg xmlns="http://www.w3.org/2000/svg" version="1.1"  viewBox="0 0 512 512" style="shape-rendering:geometricPrecision; text-rendering:geometricPrecision; image-rendering:optimizeQuality; fill-rule:evenodd; clip-rule:evenodd" xmlns:xlink="http://www.w3.org/1999/xlink">
<g><path style="opacity:1" fill="#fff5c9" d="M 278.5,0.5 C 306.17,2.33379 332.503,9.00045 357.5,20.5C 355.113,23.8888 352.113,26.5555 348.5,28.5C 321.482,17.9963 293.482,11.9963 264.5,10.5C 267.317,7.18215 270.317,4.01549 273.5,1C 275.134,0.506489 276.801,0.339822 278.5,0.5 Z"/></g>
<g><path style="opacity:1" fill="#fcd835" d="M 213.5,61.5 C 131.024,82.9762 79.3569,134.976 58.5,217.5C 42.5328,231.955 26.6995,247.289 11,263.5C 9.83467,181.677 40.668,114.844 103.5,63C 150.452,26.4612 203.786,9.12791 263.5,11C 246.632,27.7014 229.965,44.5348 213.5,61.5 Z"/></g>
<g><path style="opacity:1" fill="#feeb99" d="M 232.5,-0.5 C 247.833,-0.5 263.167,-0.5 278.5,-0.5C 278.5,-0.166667 278.5,0.166667 278.5,0.5C 276.801,0.339822 275.134,0.506489 273.5,1C 270.317,4.01549 267.317,7.18215 264.5,10.5C 293.482,11.9963 321.482,17.9963 348.5,28.5C 352.113,26.5555 355.113,23.8888 357.5,20.5C 374.107,27.1308 389.44,35.7974 403.5,46.5C 400.208,48.4581 397.208,50.7915 394.5,53.5C 380.683,43.8376 365.849,35.8376 350,29.5C 337.34,40.9934 325.173,52.9934 313.5,65.5C 280.481,56.5931 247.147,55.2597 213.5,61.5C 229.965,44.5348 246.632,27.7014 263.5,11C 203.786,9.12791 150.452,26.4612 103.5,63C 40.668,114.844 9.83467,181.677 11,263.5C 26.6995,247.289 42.5328,231.955 58.5,217.5C 52.3258,250.146 53.6592,282.479 62.5,314.5C 51.7144,326.455 40.7144,338.288 29.5,350C 35.8376,365.849 43.8376,380.683 53.5,394.5C 50.7915,397.208 48.4581,400.208 46.5,403.5C 35.7974,389.44 27.1308,374.107 20.5,357.5C 23.8888,355.113 26.5555,352.113 28.5,348.5C 17.9963,321.482 11.9963,293.482 10.5,264.5C 7.18215,267.317 4.01549,270.317 1,273.5C 0.506489,275.134 0.339822,276.801 0.5,278.5C 0.166667,278.5 -0.166667,278.5 -0.5,278.5C -0.5,263.167 -0.5,247.833 -0.5,232.5C 10.3875,142.857 54.7208,75.3573 132.5,30C 163.971,13.3053 197.304,3.1386 232.5,-0.5 Z"/></g>
<g><path style="opacity:1" fill="#fcd836" d="M 394.5,53.5 C 394.5,53.8333 394.5,54.1667 394.5,54.5C 383.167,65.1667 372.167,76.1667 361.5,87.5C 346.213,78.522 330.213,71.1886 313.5,65.5C 325.173,52.9934 337.34,40.9934 350,29.5C 365.849,35.8376 380.683,43.8376 394.5,53.5 Z"/></g>
<g><path style="opacity:1" fill="#fff5c9" d="M 403.5,46.5 C 410.701,50.3639 417.034,55.3639 422.5,61.5C 420.167,64.1667 417.833,66.8333 415.5,69.5C 415.167,69.5 414.833,69.5 414.5,69.5C 408.404,63.7376 401.738,58.7376 394.5,54.5C 394.5,54.1667 394.5,53.8333 394.5,53.5C 397.208,50.7915 400.208,48.4581 403.5,46.5 Z"/></g>
<g><path style="opacity:1" fill="#fdeb99" d="M 394.5,54.5 C 401.738,58.7376 408.404,63.7376 414.5,69.5C 403.833,80.5 393.167,91.5 382.5,102.5C 375.676,97.2546 368.676,92.2546 361.5,87.5C 372.167,76.1667 383.167,65.1667 394.5,54.5 Z"/></g>
<g><path style="opacity:1" fill="#e88203" d="M 313.5,65.5 C 330.213,71.1886 346.213,78.522 361.5,87.5C 368.676,92.2546 375.676,97.2546 382.5,102.5C 385.851,105.848 389.518,108.848 393.5,111.5C 396.167,114.5 398.833,117.5 401.5,120.5C 401.103,121.525 400.437,121.692 399.5,121C 344.848,80.2815 284.515,68.9482 218.5,87C 178.139,99.4888 145.139,122.322 119.5,155.5C 119.167,155.5 118.833,155.5 118.5,155.5C 116.5,155.5 114.5,155.5 112.5,155.5C 112.5,157.5 112.5,159.5 112.5,161.5C 112.5,162.5 112.5,163.5 112.5,164.5C 79.0263,213.038 68.5263,266.371 81,324.5C 88.7876,355.058 101.954,382.391 120.5,406.5C 116.5,402.833 112.5,399.167 108.5,395.5C 105.848,391.518 102.848,387.851 99.5,384.5C 94.444,378.11 89.7774,371.443 85.5,364.5C 75.6361,348.777 67.9695,332.11 62.5,314.5C 53.6592,282.479 52.3258,250.146 58.5,217.5C 79.3569,134.976 131.024,82.9762 213.5,61.5C 247.147,55.2597 280.481,56.5931 313.5,65.5 Z"/></g>
<g><path style="opacity:0.999" fill="#feeb98" d="M 422.5,61.5 C 426.771,64.1009 430.437,67.4342 433.5,71.5C 430.833,73.8333 428.167,76.1667 425.5,78.5C 422.126,75.4905 418.792,72.4905 415.5,69.5C 417.833,66.8333 420.167,64.1667 422.5,61.5 Z"/></g>
<g><path style="opacity:1" fill="#fcd836" d="M 414.5,69.5 C 414.833,69.5 415.167,69.5 415.5,69.5C 418.792,72.4905 422.126,75.4905 425.5,78.5C 425.5,78.8333 425.5,79.1667 425.5,79.5C 414.5,89.8333 403.833,100.5 393.5,111.5C 389.518,108.848 385.851,105.848 382.5,102.5C 393.167,91.5 403.833,80.5 414.5,69.5 Z"/></g>
<g><path style="opacity:1" fill="#fff5c9" d="M 433.5,71.5 C 451.882,88.2935 466.882,107.627 478.5,129.5C 476.188,132.479 473.521,135.146 470.5,137.5C 458.503,115.837 443.503,96.5033 425.5,79.5C 425.5,79.1667 425.5,78.8333 425.5,78.5C 428.167,76.1667 430.833,73.8333 433.5,71.5 Z"/></g>
<g><path style="opacity:1" fill="#f5b647" d="M 401.5,120.5 C 408.98,128.801 415.98,137.467 422.5,146.5C 422.833,147.167 423.167,147.833 423.5,148.5C 414.775,149.964 406.441,152.631 398.5,156.5C 390.695,155.169 382.528,154.502 374,154.5C 365.66,154.5 357.493,154.834 349.5,155.5C 349.167,155.5 348.833,155.5 348.5,155.5C 346.167,155.5 343.833,155.5 341.5,155.5C 341.5,157.833 341.5,160.167 341.5,162.5C 341.5,169.833 341.5,177.167 341.5,184.5C 341.5,211.833 341.5,239.167 341.5,266.5C 340.668,239.67 340.168,212.67 340,185.5C 333.917,189.459 327.751,193.292 321.5,197C 320.663,198.011 320.33,199.178 320.5,200.5C 319.662,200.158 319.328,199.492 319.5,198.5C 319.46,195.012 318.793,191.679 317.5,188.5C 315.843,183.178 313.177,178.511 309.5,174.5C 304.634,167.389 297.967,162.722 289.5,160.5C 283.541,157.928 277.208,156.428 270.5,156C 254.503,155.5 238.503,155.333 222.5,155.5C 188.167,155.5 153.833,155.5 119.5,155.5C 145.139,122.322 178.139,99.4888 218.5,87C 284.515,68.9482 344.848,80.2815 399.5,121C 400.437,121.692 401.103,121.525 401.5,120.5 Z"/></g>
<g><path style="opacity:1" fill="#fdd836" d="M 438.5,170.5 C 438.5,170.167 438.5,169.833 438.5,169.5C 449.146,159.188 459.813,148.855 470.5,138.5C 477.41,149.42 482.243,161.087 485,173.5C 474.667,183.833 464.333,194.167 454,204.5C 449.682,192.685 444.516,181.352 438.5,170.5 Z"/></g>
<g><path style="opacity:1" fill="#f39e0a" d="M 423.5,148.5 C 428.234,155.91 432.567,163.577 436.5,171.5C 442.17,183.188 446.837,195.188 450.5,207.5C 452.683,218.081 454.349,228.747 455.5,239.5C 459.824,313.998 432.824,374.164 374.5,420C 332.498,449.668 285.831,462.168 234.5,457.5C 224.622,456.991 214.956,455.324 205.5,452.5C 192.801,449.156 180.468,444.823 168.5,439.5C 157.702,433.934 147.368,427.6 137.5,420.5C 143.601,405.512 150.267,390.845 157.5,376.5C 157.833,376.5 158.167,376.5 158.5,376.5C 162.167,376.5 165.833,376.5 169.5,376.5C 169.5,371.5 169.5,366.5 169.5,361.5C 169.5,361.167 169.5,360.833 169.5,360.5C 169.5,358.5 169.5,356.5 169.5,354.5C 175.92,344.659 182.587,334.993 189.5,325.5C 194.025,360.34 214.025,377.34 249.5,376.5C 298.997,377.499 348.664,377.832 398.5,377.5C 398.821,371.974 398.488,366.64 397.5,361.5C 346.331,361.832 295.331,361.499 244.5,360.5C 245.833,360.5 247.167,360.5 248.5,360.5C 265.167,360.5 281.833,360.5 298.5,360.5C 310.833,360.5 323.167,360.5 335.5,360.5C 356.167,360.5 376.833,360.5 397.5,360.5C 397.5,339.833 397.5,319.167 397.5,298.5C 397.5,286.167 397.5,273.833 397.5,261.5C 397.5,244.833 397.5,228.167 397.5,211.5C 397.5,211.167 397.5,210.833 397.5,210.5C 398.497,192.674 398.83,174.674 398.5,156.5C 406.441,152.631 414.775,149.964 423.5,148.5 Z"/></g>
<g><path style="opacity:1" fill="#fad036" d="M 118.5,155.5 C 116.833,157.5 115.167,159.5 113.5,161.5C 113.167,161.5 112.833,161.5 112.5,161.5C 112.5,159.5 112.5,157.5 112.5,155.5C 114.5,155.5 116.5,155.5 118.5,155.5 Z"/></g>
<g><path style="opacity:1" fill="#fdf0b2" d="M 118.5,155.5 C 118.833,155.5 119.167,155.5 119.5,155.5C 153.833,155.5 188.167,155.5 222.5,155.5C 208.167,170.167 193.833,184.833 179.5,199.5C 176.5,199.5 173.5,199.5 170.5,199.5C 169.521,202.625 169.187,205.958 169.5,209.5C 150.868,227.632 132.368,245.965 114,264.5C 113.5,230.168 113.333,195.835 113.5,161.5C 115.167,159.5 116.833,157.5 118.5,155.5 Z"/></g>
<g><path style="opacity:1" fill="#fde168" d="M 222.5,155.5 C 238.503,155.333 254.503,155.5 270.5,156C 277.208,156.428 283.541,157.928 289.5,160.5C 288.761,160.369 288.094,160.536 287.5,161C 274.632,174.035 261.632,186.869 248.5,199.5C 225.5,199.5 202.5,199.5 179.5,199.5C 193.833,184.833 208.167,170.167 222.5,155.5 Z"/></g>
<g><path style="opacity:1" fill="#fee26a" d="M 348.5,155.5 C 346.5,158.167 344.167,160.5 341.5,162.5C 341.5,160.167 341.5,157.833 341.5,155.5C 343.833,155.5 346.167,155.5 348.5,155.5 Z"/></g>
<g><path style="opacity:1" fill="#fef0b2" d="M 348.5,155.5 C 348.833,155.5 349.167,155.5 349.5,155.5C 365.868,154.849 381.868,155.515 397.5,157.5C 378.284,165.442 359.617,174.442 341.5,184.5C 341.5,177.167 341.5,169.833 341.5,162.5C 344.167,160.5 346.5,158.167 348.5,155.5 Z"/></g>
<g><path style="opacity:1" fill="#feeb99" d="M 397.5,157.5 C 397.5,175.167 397.5,192.833 397.5,210.5C 397.5,210.833 397.5,211.167 397.5,211.5C 378.833,229.833 360.167,248.167 341.5,266.5C 341.5,239.167 341.5,211.833 341.5,184.5C 359.617,174.442 378.284,165.442 397.5,157.5 Z"/></g>
<g><path style="opacity:1" fill="#fdf0b2" d="M 289.5,160.5 C 297.967,162.722 304.634,167.389 309.5,174.5C 294.833,189.833 279.833,204.833 264.5,219.5C 263.906,208.918 258.573,202.251 248.5,199.5C 261.632,186.869 274.632,174.035 287.5,161C 288.094,160.536 288.761,160.369 289.5,160.5 Z"/></g>
<g><path style="opacity:0.999" fill="#fef2c1" d="M 438.5,169.5 C 438.5,169.833 438.5,170.167 438.5,170.5C 437.833,170.833 437.167,171.167 436.5,171.5C 432.567,163.577 428.234,155.91 423.5,148.5C 423.167,147.833 422.833,147.167 422.5,146.5C 422.81,145.262 423.31,145.262 424,146.5C 429.058,154.051 433.891,161.717 438.5,169.5 Z"/></g>
<g><path style="opacity:1" fill="#f5b546" d="M 112.5,164.5 C 112.168,230.002 112.501,295.335 113.5,360.5C 117.167,360.5 120.833,360.5 124.5,360.5C 131.167,360.5 137.833,360.5 144.5,360.5C 152.833,360.5 161.167,360.5 169.5,360.5C 169.5,360.833 169.5,361.167 169.5,361.5C 168.167,361.5 166.833,361.5 165.5,361.5C 148.167,361.5 130.833,361.5 113.5,361.5C 113.5,366.5 113.5,371.5 113.5,376.5C 128.167,376.5 142.833,376.5 157.5,376.5C 150.267,390.845 143.601,405.512 137.5,420.5C 132.833,416.833 128.167,413.167 123.5,409.5C 122.306,408.728 121.306,407.728 120.5,406.5C 101.954,382.391 88.7876,355.058 81,324.5C 68.5263,266.371 79.0263,213.038 112.5,164.5 Z"/></g>
<g><path style="opacity:1" fill="#fff5c9" d="M 495.5,164.5 C 498.434,171.971 500.768,179.638 502.5,187.5C 502.985,192.542 500.985,196.376 496.5,199C 495.551,199.617 494.718,199.451 494,198.5C 491.888,189.886 489.388,181.386 486.5,173C 488.722,169.277 491.722,166.443 495.5,164.5 Z"/></g>
<g><path style="opacity:1" fill="#f7c55a" d="M 349.5,155.5 C 357.493,154.834 365.66,154.5 374,154.5C 382.528,154.502 390.695,155.169 398.5,156.5C 398.83,174.674 398.497,192.674 397.5,210.5C 397.5,192.833 397.5,175.167 397.5,157.5C 381.868,155.515 365.868,154.849 349.5,155.5 Z"/></g>
<g><path style="opacity:1" fill="#fde068" d="M 309.5,174.5 C 313.177,178.511 315.843,183.178 317.5,188.5C 301.218,203.115 285.551,218.448 270.5,234.5C 268.871,235.625 267.371,236.959 266,238.5C 265.5,250.829 265.333,263.162 265.5,275.5C 265.167,275.5 264.833,275.5 264.5,275.5C 264.5,263.833 264.5,252.167 264.5,240.5C 264.5,237.167 264.5,233.833 264.5,230.5C 264.5,226.833 264.5,223.167 264.5,219.5C 279.833,204.833 294.833,189.833 309.5,174.5 Z"/></g>
<g><path style="opacity:1" fill="#f39e0a" d="M 341.5,266.5 C 341.5,283.167 341.5,299.833 341.5,316.5C 341.5,317.167 341.167,317.5 340.5,317.5C 323.833,317.5 307.167,317.5 290.5,317.5C 282.16,317.666 273.827,317.5 265.5,317C 252.284,315.437 245.951,307.937 246.5,294.5C 246.5,281.833 246.5,269.167 246.5,256.5C 252.797,251.538 258.797,246.205 264.5,240.5C 264.5,252.167 264.5,263.833 264.5,275.5C 264.5,280.833 264.5,286.167 264.5,291.5C 283.833,291.5 303.167,291.5 322.5,291.5C 322.5,286.167 322.5,280.833 322.5,275.5C 323.026,250.444 322.36,225.444 320.5,200.5C 320.33,199.178 320.663,198.011 321.5,197C 327.751,193.292 333.917,189.459 340,185.5C 340.168,212.67 340.668,239.67 341.5,266.5 Z"/></g>
<g><path style="opacity:1" fill="#fef0b0" d="M 317.5,188.5 C 318.793,191.679 319.46,195.012 319.5,198.5C 302.604,209.777 286.271,221.777 270.5,234.5C 285.551,218.448 301.218,203.115 317.5,188.5 Z"/></g>
<g><path style="opacity:1" fill="#e48d43" d="M 170.5,199.5 C 173.5,199.5 176.5,199.5 179.5,199.5C 202.5,199.5 225.5,199.5 248.5,199.5C 258.573,202.251 263.906,208.918 264.5,219.5C 264.5,223.167 264.5,226.833 264.5,230.5C 260.762,219.154 252.762,214.154 240.5,215.5C 217.339,214.502 194.006,214.169 170.5,214.5C 170.5,209.5 170.5,204.5 170.5,199.5 Z"/></g>
<g><path style="opacity:1" fill="#fdeb98" d="M 319.5,198.5 C 319.328,199.492 319.662,200.158 320.5,200.5C 322.36,225.444 323.026,250.444 322.5,275.5C 303.5,275.5 284.5,275.5 265.5,275.5C 265.333,263.162 265.5,250.829 266,238.5C 267.371,236.959 268.871,235.625 270.5,234.5C 286.271,221.777 302.604,209.777 319.5,198.5 Z"/></g>
<g><path style="opacity:1" fill="#fff5c9" d="M 455.5,239.5 C 454.349,228.747 452.683,218.081 450.5,207.5C 451.482,206.859 452.482,206.193 453.5,205.5C 457.78,215.067 459.946,225.067 460,235.5C 458.629,237.041 457.129,238.375 455.5,239.5 Z"/></g>
<g><path style="opacity:1" fill="#fde169" d="M 112.5,161.5 C 112.833,161.5 113.167,161.5 113.5,161.5C 113.333,195.835 113.5,230.168 114,264.5C 132.368,245.965 150.868,227.632 169.5,209.5C 169.5,211.5 169.5,213.5 169.5,215.5C 169.5,236.833 169.5,258.167 169.5,279.5C 150.868,297.632 132.368,315.965 114,334.5C 113.5,343.16 113.334,351.827 113.5,360.5C 112.501,295.335 112.168,230.002 112.5,164.5C 112.5,163.5 112.5,162.5 112.5,161.5 Z"/></g>
<g><path style="opacity:1" fill="#fdd835" d="M 397.5,211.5 C 397.5,228.167 397.5,244.833 397.5,261.5C 378.833,279.833 360.167,298.167 341.5,316.5C 341.5,299.833 341.5,283.167 341.5,266.5C 360.167,248.167 378.833,229.833 397.5,211.5 Z"/></g>
<g><path style="opacity:1" fill="#eda449" d="M 170.5,199.5 C 170.5,204.5 170.5,209.5 170.5,214.5C 194.006,214.169 217.339,214.502 240.5,215.5C 216.833,215.5 193.167,215.5 169.5,215.5C 169.5,213.5 169.5,211.5 169.5,209.5C 169.187,205.958 169.521,202.625 170.5,199.5 Z"/></g>
<g><path style="opacity:1" fill="#f5b647" d="M 169.5,215.5 C 193.167,215.5 216.833,215.5 240.5,215.5C 252.762,214.154 260.762,219.154 264.5,230.5C 264.5,233.833 264.5,237.167 264.5,240.5C 258.797,246.205 252.797,251.538 246.5,256.5C 246.5,251.167 246.5,245.833 246.5,240.5C 245.5,240.5 244.5,240.5 243.5,240.5C 231.167,240.5 218.833,240.5 206.5,240.5C 200.5,240.5 194.5,240.5 188.5,240.5C 188.5,246.833 188.5,253.167 188.5,259.5C 188.172,271.678 188.505,283.678 189.5,295.5C 189.5,298.5 189.5,301.5 189.5,304.5C 188.621,310.666 188.621,316.999 189.5,323.5C 189.5,324.167 189.5,324.833 189.5,325.5C 182.587,334.993 175.92,344.659 169.5,354.5C 169.5,348.167 169.5,341.833 169.5,335.5C 169.5,328.833 169.5,322.167 169.5,315.5C 169.5,303.5 169.5,291.5 169.5,279.5C 169.5,258.167 169.5,236.833 169.5,215.5 Z"/></g>
<g><path style="opacity:1" fill="#feeb98" d="M 425.5,79.5 C 443.503,96.5033 458.503,115.837 470.5,137.5C 473.521,135.146 476.188,132.479 478.5,129.5C 485.479,140.459 491.145,152.125 495.5,164.5C 491.722,166.443 488.722,169.277 486.5,173C 489.388,181.386 491.888,189.886 494,198.5C 494.718,199.451 495.551,199.617 496.5,199C 500.985,196.376 502.985,192.542 502.5,187.5C 506.9,202.235 509.9,217.235 511.5,232.5C 511.5,247.833 511.5,263.167 511.5,278.5C 500.612,368.144 456.279,435.644 378.5,481C 347.029,497.695 313.696,507.861 278.5,511.5C 263.167,511.5 247.833,511.5 232.5,511.5C 217.276,509.685 202.276,506.685 187.5,502.5C 192.914,502.781 196.914,500.448 199.5,495.5C 197.488,493.894 195.155,492.727 192.5,492C 185.945,490.421 179.445,488.588 173,486.5C 169.277,488.722 166.443,491.722 164.5,495.5C 152.125,491.145 140.459,485.479 129.5,478.5C 132.479,476.188 135.146,473.521 137.5,470.5C 115.837,458.503 96.5033,443.503 79.5,425.5C 89.1667,415.5 98.8333,405.5 108.5,395.5C 112.5,399.167 116.5,402.833 120.5,406.5C 121.306,407.728 122.306,408.728 123.5,409.5C 123.062,409.435 122.728,409.601 122.5,410C 135.6,422.618 149.933,433.451 165.5,442.5C 156.521,451.813 147.521,461.146 138.5,470.5C 149.05,476.462 160.05,481.462 171.5,485.5C 181.592,476.911 191.259,467.744 200.5,458C 188.961,453.319 177.628,448.152 166.5,442.5C 167.167,441.5 167.833,440.5 168.5,439.5C 180.468,444.823 192.801,449.156 205.5,452.5C 204.375,454.129 203.041,455.629 201.5,457C 210.763,460.9 220.43,463.4 230.5,464.5C 221.036,474.465 211.369,484.298 201.5,494C 284.035,511.117 357.035,492.117 420.5,437C 487.443,371.833 511.943,293.333 494,201.5C 483.333,212.167 472.667,222.833 462,233.5C 470.594,310.421 445.761,373.921 387.5,424C 341.112,459.097 289.112,472.597 231.5,464.5C 232.96,462.537 234.627,460.704 236.5,459C 235.584,458.722 234.918,458.222 234.5,457.5C 285.831,462.168 332.498,449.668 374.5,420C 432.824,374.164 459.824,313.998 455.5,239.5C 457.129,238.375 458.629,237.041 460,235.5C 459.946,225.067 457.78,215.067 453.5,205.5C 452.482,206.193 451.482,206.859 450.5,207.5C 446.837,195.188 442.17,183.188 436.5,171.5C 437.167,171.167 437.833,170.833 438.5,170.5C 444.516,181.352 449.682,192.685 454,204.5C 464.333,194.167 474.667,183.833 485,173.5C 482.243,161.087 477.41,149.42 470.5,138.5C 459.813,148.855 449.146,159.188 438.5,169.5C 433.891,161.717 429.058,154.051 424,146.5C 423.31,145.262 422.81,145.262 422.5,146.5C 415.98,137.467 408.98,128.801 401.5,120.5C 398.833,117.5 396.167,114.5 393.5,111.5C 403.833,100.5 414.5,89.8333 425.5,79.5 Z"/></g>
<g><path style="opacity:1" fill="#fdd836" d="M 230.5,464.5 C 230.833,464.5 231.167,464.5 231.5,464.5C 289.112,472.597 341.112,459.097 387.5,424C 445.761,373.921 470.594,310.421 462,233.5C 472.667,222.833 483.333,212.167 494,201.5C 511.943,293.333 487.443,371.833 420.5,437C 357.035,492.117 284.035,511.117 201.5,494C 211.369,484.298 221.036,474.465 230.5,464.5 Z"/></g>
<g><path style="opacity:1" fill="#fddf68" d="M 206.5,240.5 C 201.225,247.444 195.225,253.777 188.5,259.5C 188.5,253.167 188.5,246.833 188.5,240.5C 194.5,240.5 200.5,240.5 206.5,240.5 Z"/></g>
<g><path style="opacity:1" fill="#fdefb0" d="M 206.5,240.5 C 218.833,240.5 231.167,240.5 243.5,240.5C 225.5,258.833 207.5,277.167 189.5,295.5C 188.505,283.678 188.172,271.678 188.5,259.5C 195.225,253.777 201.225,247.444 206.5,240.5 Z"/></g>
<g><path style="opacity:1" fill="#fde168" d="M 243.5,240.5 C 244.5,240.5 245.5,240.5 246.5,240.5C 246.5,245.833 246.5,251.167 246.5,256.5C 246.5,269.167 246.5,281.833 246.5,294.5C 245.669,283.007 245.169,271.341 245,259.5C 236.298,268.035 227.798,276.702 219.5,285.5C 209.833,294.833 200.167,304.167 190.5,313.5C 190.037,310.518 189.704,307.518 189.5,304.5C 189.5,301.5 189.5,298.5 189.5,295.5C 207.5,277.167 225.5,258.833 243.5,240.5 Z"/></g>
<g><path style="opacity:1" fill="#fdeb99" d="M 246.5,294.5 C 245.951,307.937 252.284,315.437 265.5,317C 273.827,317.5 282.16,317.666 290.5,317.5C 276.5,331.833 262.5,346.167 248.5,360.5C 247.167,360.5 245.833,360.5 244.5,360.5C 225.912,360.619 210.745,353.619 199,339.5C 195.985,334.476 193.818,329.142 192.5,323.5C 192.443,322.391 192.11,321.391 191.5,320.5C 200.827,308.839 210.16,297.172 219.5,285.5C 227.798,276.702 236.298,268.035 245,259.5C 245.169,271.341 245.669,283.007 246.5,294.5 Z"/></g>
<g><path style="opacity:1" fill="#feeb98" d="M 397.5,261.5 C 397.5,273.833 397.5,286.167 397.5,298.5C 376.5,318.833 355.833,339.5 335.5,360.5C 323.167,360.5 310.833,360.5 298.5,360.5C 312.5,346.167 326.5,331.833 340.5,317.5C 341.167,317.5 341.5,317.167 341.5,316.5C 360.167,298.167 378.833,279.833 397.5,261.5 Z"/></g>
<g><path style="opacity:1" fill="#fff5c9" d="M 20.5,357.5 C 9.00045,332.503 2.33379,306.17 0.5,278.5C 0.339822,276.801 0.506489,275.134 1,273.5C 4.01549,270.317 7.18215,267.317 10.5,264.5C 11.9963,293.482 17.9963,321.482 28.5,348.5C 26.5555,352.113 23.8888,355.113 20.5,357.5 Z"/></g>
<g><path style="opacity:1" fill="#db6804" d="M 264.5,275.5 C 264.833,275.5 265.167,275.5 265.5,275.5C 284.5,275.5 303.5,275.5 322.5,275.5C 322.5,280.833 322.5,286.167 322.5,291.5C 303.167,291.5 283.833,291.5 264.5,291.5C 264.5,286.167 264.5,280.833 264.5,275.5 Z"/></g>
<g><path style="opacity:1" fill="#fef0b2" d="M 169.5,279.5 C 169.5,291.5 169.5,303.5 169.5,315.5C 154.167,330.167 139.167,345.167 124.5,360.5C 120.833,360.5 117.167,360.5 113.5,360.5C 113.334,351.827 113.5,343.16 114,334.5C 132.368,315.965 150.868,297.632 169.5,279.5 Z"/></g>
<g><path style="opacity:1" fill="#fef0af" d="M 219.5,285.5 C 210.16,297.172 200.827,308.839 191.5,320.5C 191.326,318.139 190.993,315.806 190.5,313.5C 200.167,304.167 209.833,294.833 219.5,285.5 Z"/></g>
<g><path style="opacity:1" fill="#fcd834" d="M 397.5,298.5 C 397.5,319.167 397.5,339.833 397.5,360.5C 376.833,360.5 356.167,360.5 335.5,360.5C 355.833,339.5 376.5,318.833 397.5,298.5 Z"/></g>
<g><path style="opacity:1" fill="#e99a47" d="M 189.5,304.5 C 189.704,307.518 190.037,310.518 190.5,313.5C 190.993,315.806 191.326,318.139 191.5,320.5C 192.11,321.391 192.443,322.391 192.5,323.5C 191.5,322.167 190.5,322.167 189.5,323.5C 188.621,316.999 188.621,310.666 189.5,304.5 Z"/></g>
<g><path style="opacity:1" fill="#fcd736" d="M 62.5,314.5 C 67.9695,332.11 75.6361,348.777 85.5,364.5C 74.5529,373.779 64.2195,383.779 54.5,394.5C 54.1667,394.5 53.8333,394.5 53.5,394.5C 43.8376,380.683 35.8376,365.849 29.5,350C 40.7144,338.288 51.7144,326.455 62.5,314.5 Z"/></g>
<g><path style="opacity:1" fill="#fee268" d="M 169.5,315.5 C 169.5,322.167 169.5,328.833 169.5,335.5C 160.833,343.5 152.5,351.833 144.5,360.5C 137.833,360.5 131.167,360.5 124.5,360.5C 139.167,345.167 154.167,330.167 169.5,315.5 Z"/></g>
<g><path style="opacity:1" fill="#fdd835" d="M 290.5,317.5 C 307.167,317.5 323.833,317.5 340.5,317.5C 326.5,331.833 312.5,346.167 298.5,360.5C 281.833,360.5 265.167,360.5 248.5,360.5C 262.5,346.167 276.5,331.833 290.5,317.5 Z"/></g>
<g><path style="opacity:1" fill="#db6704" d="M 192.5,323.5 C 193.818,329.142 195.985,334.476 199,339.5C 210.745,353.619 225.912,360.619 244.5,360.5C 295.331,361.499 346.331,361.832 397.5,361.5C 397.5,366.5 397.5,371.5 397.5,376.5C 348.167,376.5 298.833,376.5 249.5,376.5C 214.025,377.34 194.025,360.34 189.5,325.5C 189.5,324.833 189.5,324.167 189.5,323.5C 190.5,322.167 191.5,322.167 192.5,323.5 Z"/></g>
<g><path style="opacity:1" fill="#fef0b1" d="M 169.5,335.5 C 169.5,341.833 169.5,348.167 169.5,354.5C 169.5,356.5 169.5,358.5 169.5,360.5C 161.167,360.5 152.833,360.5 144.5,360.5C 152.5,351.833 160.833,343.5 169.5,335.5 Z"/></g>
<g><path style="opacity:1" fill="#e38c42" d="M 165.5,361.5 C 162.91,366.349 160.576,371.349 158.5,376.5C 158.167,376.5 157.833,376.5 157.5,376.5C 142.833,376.5 128.167,376.5 113.5,376.5C 113.5,371.5 113.5,366.5 113.5,361.5C 130.833,361.5 148.167,361.5 165.5,361.5 Z"/></g>
<g><path style="opacity:1" fill="#db6704" d="M 165.5,361.5 C 166.833,361.5 168.167,361.5 169.5,361.5C 169.5,366.5 169.5,371.5 169.5,376.5C 165.833,376.5 162.167,376.5 158.5,376.5C 160.576,371.349 162.91,366.349 165.5,361.5 Z"/></g>
<g><path style="opacity:1" fill="#fdeb99" d="M 85.5,364.5 C 89.7774,371.443 94.444,378.11 99.5,384.5C 89.8333,394.833 79.8333,404.833 69.5,414.5C 63.7376,408.404 58.7376,401.738 54.5,394.5C 64.2195,383.779 74.5529,373.779 85.5,364.5 Z"/></g>
<g><path style="opacity:1" fill="#ea8a06" d="M 397.5,361.5 C 398.488,366.64 398.821,371.974 398.5,377.5C 348.664,377.832 298.997,377.499 249.5,376.5C 298.833,376.5 348.167,376.5 397.5,376.5C 397.5,371.5 397.5,366.5 397.5,361.5 Z"/></g>
<g><path style="opacity:1" fill="#fcd836" d="M 99.5,384.5 C 102.848,387.851 105.848,391.518 108.5,395.5C 98.8333,405.5 89.1667,415.5 79.5,425.5C 79.1667,425.5 78.8333,425.5 78.5,425.5C 75.4905,422.126 72.4905,418.792 69.5,415.5C 69.5,415.167 69.5,414.833 69.5,414.5C 79.8333,404.833 89.8333,394.833 99.5,384.5 Z"/></g>
<g><path style="opacity:1" fill="#fff5c9" d="M 53.5,394.5 C 53.8333,394.5 54.1667,394.5 54.5,394.5C 58.7376,401.738 63.7376,408.404 69.5,414.5C 69.5,414.833 69.5,415.167 69.5,415.5C 66.8333,417.833 64.1667,420.167 61.5,422.5C 55.3639,417.034 50.3639,410.701 46.5,403.5C 48.4581,400.208 50.7915,397.208 53.5,394.5 Z"/></g>
<g><path style="opacity:0.999" fill="#feeb98" d="M 69.5,415.5 C 72.4905,418.792 75.4905,422.126 78.5,425.5C 76.1667,428.167 73.8333,430.833 71.5,433.5C 67.4342,430.437 64.1009,426.771 61.5,422.5C 64.1667,420.167 66.8333,417.833 69.5,415.5 Z"/></g>
<g><path style="opacity:1" fill="#fef3c4" d="M 123.5,409.5 C 128.167,413.167 132.833,416.833 137.5,420.5C 147.368,427.6 157.702,433.934 168.5,439.5C 167.833,440.5 167.167,441.5 166.5,442.5C 166.167,442.5 165.833,442.5 165.5,442.5C 149.933,433.451 135.6,422.618 122.5,410C 122.728,409.601 123.062,409.435 123.5,409.5 Z"/></g>
<g><path style="opacity:1" fill="#fff5c9" d="M 78.5,425.5 C 78.8333,425.5 79.1667,425.5 79.5,425.5C 96.5033,443.503 115.837,458.503 137.5,470.5C 135.146,473.521 132.479,476.188 129.5,478.5C 107.627,466.882 88.2935,451.882 71.5,433.5C 73.8333,430.833 76.1667,428.167 78.5,425.5 Z"/></g>
<g><path style="opacity:1" fill="#fdd836" d="M 165.5,442.5 C 165.833,442.5 166.167,442.5 166.5,442.5C 177.628,448.152 188.961,453.319 200.5,458C 191.259,467.744 181.592,476.911 171.5,485.5C 160.05,481.462 149.05,476.462 138.5,470.5C 147.521,461.146 156.521,451.813 165.5,442.5 Z"/></g>
<g><path style="opacity:1" fill="#fef4c9" d="M 205.5,452.5 C 214.956,455.324 224.622,456.991 234.5,457.5C 234.918,458.222 235.584,458.722 236.5,459C 234.627,460.704 232.96,462.537 231.5,464.5C 231.167,464.5 230.833,464.5 230.5,464.5C 220.43,463.4 210.763,460.9 201.5,457C 203.041,455.629 204.375,454.129 205.5,452.5 Z"/></g>
<g><path style="opacity:1" fill="#fff5c9" d="M 187.5,502.5 C 179.638,500.768 171.971,498.434 164.5,495.5C 166.443,491.722 169.277,488.722 173,486.5C 179.445,488.588 185.945,490.421 192.5,492C 195.155,492.727 197.488,493.894 199.5,495.5C 196.914,500.448 192.914,502.781 187.5,502.5 Z"/></g>
</svg>
