<?xml version="1.0" encoding="UTF-8"?>
<svg xmlns="http://www.w3.org/2000/svg" viewBox="0 0 276 263" style="shape-rendering:geometricPrecision; text-rendering:geometricPrecision; image-rendering:optimizeQuality; fill-rule:evenodd; clip-rule:evenodd" xmlns:xlink="http://www.w3.org/1999/xlink">
<g><path style="opacity:0.439" fill="#f6fc75" d="M 162.5,31.5 C 143.817,31.2781 125.15,31.6115 106.5,32.5C 107.952,31.6981 109.618,31.1981 111.5,31C 128.672,30.1716 145.672,30.3383 162.5,31.5 Z"/></g>
<g><path style="opacity:1" fill="#f5fe09" d="M 162.5,31.5 C 177.596,33.2979 190.096,39.9646 200,51.5C 203.288,55.7436 205.788,60.4103 207.5,65.5C 208.235,70.5907 209.401,75.5907 211,80.5C 211.17,89.676 211.67,98.676 212.5,107.5C 212.414,111.857 212.08,116.19 211.5,120.5C 209.09,123.758 207.424,127.425 206.5,131.5C 205.685,132.429 204.852,133.429 204,134.5C 203.383,131.965 203.883,129.632 205.5,127.5C 201.939,125.63 198.939,123.13 196.5,120C 195.552,119.517 194.552,119.351 193.5,119.5C 193.344,116.934 193.678,114.434 194.5,112C 193.303,110.48 191.803,109.313 190,108.5C 189.588,104.993 187.755,102.66 184.5,101.5C 183.614,100.675 183.281,99.675 183.5,98.5C 176.833,98.5 170.167,98.5 163.5,98.5C 161.5,98.5 159.5,98.5 157.5,98.5C 152.833,98.5 148.167,98.5 143.5,98.5C 134.494,98.3336 125.494,98.5002 116.5,99C 115.263,99.2321 114.263,99.7321 113.5,100.5C 109.01,100.783 105.01,102.117 101.5,104.5C 97.9112,106.438 94.2445,108.438 90.5,110.5C 89.7025,110.957 89.3691,111.624 89.5,112.5C 83.2292,116.771 77.8958,122.104 73.5,128.5C 70.9353,133.832 68.4353,139.166 66,144.5C 65.6091,148.974 64.4424,152.974 62.5,156.5C 62.0626,129.133 62.5626,101.8 64,74.5C 66.6208,63.9114 71.7874,54.9114 79.5,47.5C 81.7488,46.9202 83.4154,45.5869 84.5,43.5C 90.6886,37.7389 98.022,34.0723 106.5,32.5C 125.15,31.6115 143.817,31.2781 162.5,31.5 Z"/></g>
<g><path style="opacity:0.675" fill="#f2f482" d="M 84.5,43.5 C 83.4154,45.5869 81.7488,46.9202 79.5,47.5C 80.5846,45.4131 82.2512,44.0798 84.5,43.5 Z"/></g>
<g><path style="opacity:1" fill="#f3f757" d="M 207.5,65.5 C 209.865,69.4239 211.365,73.7573 212,78.5C 212.5,87.8274 212.666,97.1607 212.5,106.5C 212.5,106.833 212.5,107.167 212.5,107.5C 211.67,98.676 211.17,89.676 211,80.5C 209.401,75.5907 208.235,70.5907 207.5,65.5 Z"/></g>
<g><path style="opacity:1" fill="#f3d31c" d="M 143.5,98.5 C 148.167,98.5 152.833,98.5 157.5,98.5C 156.737,99.2679 155.737,99.7679 154.5,100C 157.081,102.748 160.081,104.914 163.5,106.5C 162.48,108.432 162.313,110.432 163,112.5C 165.805,114.847 167.638,117.847 168.5,121.5C 171.063,124.273 174.063,126.273 177.5,127.5C 177.337,129.857 177.503,132.19 178,134.5C 180.393,136.619 181.726,139.285 182,142.5C 184.303,144.393 186.47,146.393 188.5,148.5C 187.975,149.192 187.308,149.692 186.5,150C 187.766,150.309 188.933,150.809 190,151.5C 191.113,150.695 192.279,150.028 193.5,149.5C 191.408,152.917 188.408,155.25 184.5,156.5C 177.595,158.63 175.261,156.63 177.5,150.5C 175.61,149.576 174.11,148.243 173,146.5C 172.667,146.833 172.333,147.167 172,147.5C 168.866,146.198 167.032,143.865 166.5,140.5C 165.675,139.614 164.675,139.281 163.5,139.5C 163.528,137.418 162.861,135.584 161.5,134C 161.721,132.201 162.054,130.368 162.5,128.5C 161.675,127.614 160.675,127.281 159.5,127.5C 159.439,124.27 157.772,122.437 154.5,122C 154.603,119.375 154.936,116.541 155.5,113.5C 153.5,113.167 151.5,112.833 149.5,112.5C 149.296,109.455 149.296,106.621 149.5,104C 146.245,102.909 142.911,101.909 139.5,101C 140.858,100.066 142.192,99.2323 143.5,98.5 Z"/></g>
<g><path style="opacity:1" fill="#f1c822" d="M 143.5,98.5 C 142.192,99.2323 140.858,100.066 139.5,101C 142.911,101.909 146.245,102.909 149.5,104C 149.296,106.621 149.296,109.455 149.5,112.5C 151.5,112.833 153.5,113.167 155.5,113.5C 154.936,116.541 154.603,119.375 154.5,122C 157.772,122.437 159.439,124.27 159.5,127.5C 160.675,127.281 161.675,127.614 162.5,128.5C 162.054,130.368 161.721,132.201 161.5,134C 162.861,135.584 163.528,137.418 163.5,139.5C 164.675,139.281 165.675,139.614 166.5,140.5C 167.032,143.865 168.866,146.198 172,147.5C 172.333,147.167 172.667,146.833 173,146.5C 174.11,148.243 175.61,149.576 177.5,150.5C 175.261,156.63 177.595,158.63 184.5,156.5C 184.167,157.167 183.833,157.833 183.5,158.5C 178.887,160.565 173.887,161.898 168.5,162.5C 166.619,160.612 164.619,158.779 162.5,157C 163.412,154.512 162.412,152.845 159.5,152C 160.675,147.699 159.008,145.032 154.5,144C 153.126,141.417 151.626,138.917 150,136.5C 149.667,137.167 149.333,137.833 149,138.5C 148.357,136.07 146.857,134.403 144.5,133.5C 144.838,129.838 146.005,129.171 148,131.5C 146.065,127.214 142.899,123.714 138.5,121C 142.236,119.493 142.236,118.66 138.5,118.5C 137.908,115.873 137.575,113.206 137.5,110.5C 133.808,110.676 131.808,109.009 131.5,105.5C 128.813,105.664 126.146,105.497 123.5,105C 126.557,105.107 128.891,103.94 130.5,101.5C 124.872,100.505 119.206,100.171 113.5,100.5C 114.263,99.7321 115.263,99.2321 116.5,99C 125.494,98.5002 134.494,98.3336 143.5,98.5 Z"/></g>
<g><path style="opacity:1" fill="#e69a3e" d="M 212.5,106.5 C 240.078,125.01 250.578,150.677 244,183.5C 241.554,193.067 237.054,201.4 230.5,208.5C 227.927,208.148 225.594,208.648 223.5,210C 224.624,210.249 225.624,210.749 226.5,211.5C 226.333,211.833 226.167,212.167 226,212.5C 224.333,212.167 222.667,211.833 221,211.5C 221.409,213.225 221.242,214.892 220.5,216.5C 219.676,214.252 218.676,214.086 217.5,216C 218.337,217.011 218.67,218.178 218.5,219.5C 217.127,219.343 215.793,219.51 214.5,220C 215.252,220.671 215.586,221.504 215.5,222.5C 208.542,227.265 200.875,230.265 192.5,231.5C 169.182,232.414 145.849,232.747 122.5,232.5C 95.0072,228.52 76.1738,213.52 66,187.5C 63.0608,177.373 61.8942,167.04 62.5,156.5C 64.4424,152.974 65.6091,148.974 66,144.5C 68.4353,139.166 70.9353,133.832 73.5,128.5C 77.8958,122.104 83.2292,116.771 89.5,112.5C 90.8068,111.847 92.1401,111.18 93.5,110.5C 94.2975,110.957 94.6309,111.624 94.5,112.5C 93.3509,112.791 92.6842,113.624 92.5,115C 93.9073,119.373 96.9073,121.206 101.5,120.5C 101.5,122.833 101.5,125.167 101.5,127.5C 102.833,127.5 104.167,127.5 105.5,127.5C 105.682,129.591 105.348,131.591 104.5,133.5C 106.766,134.314 109.1,134.814 111.5,135C 112.022,135.561 112.355,136.228 112.5,137C 111.959,141.106 111.959,145.272 112.5,149.5C 115.5,149.5 118.5,149.5 121.5,149.5C 121.414,151.677 120.747,153.677 119.5,155.5C 121.743,156.474 124.076,156.808 126.5,156.5C 127.149,158.477 127.149,160.31 126.5,162C 127.369,163.869 128.535,164.369 130,163.5C 130.374,164.416 130.874,165.25 131.5,166C 138.679,166.821 145.679,166.655 152.5,165.5C 157.695,165.821 162.695,165.487 167.5,164.5C 171.335,163.539 175.335,162.705 179.5,162C 181.027,160.968 182.36,159.801 183.5,158.5C 183.833,157.833 184.167,157.167 184.5,156.5C 188.408,155.25 191.408,152.917 193.5,149.5C 194.5,149.5 195.5,149.5 196.5,149.5C 196.5,148.167 196.5,146.833 196.5,145.5C 200.174,142.149 203.508,138.483 206.5,134.5C 209.324,130.37 210.991,125.703 211.5,120.5C 212.08,116.19 212.414,111.857 212.5,107.5C 212.5,107.167 212.5,106.833 212.5,106.5 Z"/></g>
<g><path style="opacity:1" fill="#e8a238" d="M 152.5,165.5 C 145.679,166.655 138.679,166.821 131.5,166C 130.874,165.25 130.374,164.416 130,163.5C 128.535,164.369 127.369,163.869 126.5,162C 127.149,160.31 127.149,158.477 126.5,156.5C 124.076,156.808 121.743,156.474 119.5,155.5C 120.747,153.677 121.414,151.677 121.5,149.5C 118.5,149.5 115.5,149.5 112.5,149.5C 111.959,145.272 111.959,141.106 112.5,137C 112.355,136.228 112.022,135.561 111.5,135C 109.1,134.814 106.766,134.314 104.5,133.5C 105.348,131.591 105.682,129.591 105.5,127.5C 104.167,127.5 102.833,127.5 101.5,127.5C 101.5,125.167 101.5,122.833 101.5,120.5C 96.9073,121.206 93.9073,119.373 92.5,115C 92.6842,113.624 93.3509,112.791 94.5,112.5C 95.5953,109.926 97.5953,108.259 100.5,107.5C 101.597,109.535 103.263,110.868 105.5,111.5C 103.96,112.532 103.46,113.865 104,115.5C 107.275,118.885 111.108,121.385 115.5,123C 116.833,124.667 116.833,126.333 115.5,128C 118.167,130 120.833,132 123.5,134C 122.207,134.49 120.873,134.657 119.5,134.5C 119.351,135.552 119.517,136.552 120,137.5C 122.525,139.05 124.359,141.217 125.5,144C 127.081,144.707 128.581,145.54 130,146.5C 130.333,146.167 130.667,145.833 131,145.5C 131.155,147.856 131.155,150.189 131,152.5C 131.667,153.833 132.333,153.833 133,152.5C 135.276,154.307 135.443,155.807 133.5,157C 135.305,157.972 136.972,159.139 138.5,160.5C 139.086,160.291 139.586,159.957 140,159.5C 140.14,161.256 139.64,162.922 138.5,164.5C 143.12,165.493 147.786,165.827 152.5,165.5 Z"/></g>
<g><path style="opacity:1" fill="#f6e016" d="M 157.5,98.5 C 159.5,98.5 161.5,98.5 163.5,98.5C 163.369,99.3764 163.702,100.043 164.5,100.5C 171.053,101.794 173.387,105.627 171.5,112C 175.244,110.887 177.578,112.387 178.5,116.5C 178.167,117.167 177.833,117.833 177.5,118.5C 180.167,120.82 182.834,123.153 185.5,125.5C 187.053,128.528 187.386,131.528 186.5,134.5C 191.863,134.23 193.529,136.563 191.5,141.5C 192.5,141.5 193.5,141.5 194.5,141.5C 194.157,143.483 194.824,144.817 196.5,145.5C 196.5,146.833 196.5,148.167 196.5,149.5C 195.5,149.5 194.5,149.5 193.5,149.5C 192.279,150.028 191.113,150.695 190,151.5C 188.933,150.809 187.766,150.309 186.5,150C 187.308,149.692 187.975,149.192 188.5,148.5C 186.47,146.393 184.303,144.393 182,142.5C 181.726,139.285 180.393,136.619 178,134.5C 177.503,132.19 177.337,129.857 177.5,127.5C 174.063,126.273 171.063,124.273 168.5,121.5C 167.638,117.847 165.805,114.847 163,112.5C 162.313,110.432 162.48,108.432 163.5,106.5C 160.081,104.914 157.081,102.748 154.5,100C 155.737,99.7679 156.737,99.2679 157.5,98.5 Z"/></g>
<g><path style="opacity:1" fill="#f8ec0f" d="M 163.5,98.5 C 170.167,98.5 176.833,98.5 183.5,98.5C 183.281,99.675 183.614,100.675 184.5,101.5C 187.755,102.66 189.588,104.993 190,108.5C 191.803,109.313 193.303,110.48 194.5,112C 193.678,114.434 193.344,116.934 193.5,119.5C 194.552,119.351 195.552,119.517 196.5,120C 198.939,123.13 201.939,125.63 205.5,127.5C 203.883,129.632 203.383,131.965 204,134.5C 204.852,133.429 205.685,132.429 206.5,131.5C 206.5,132.5 206.5,133.5 206.5,134.5C 203.508,138.483 200.174,142.149 196.5,145.5C 194.824,144.817 194.157,143.483 194.5,141.5C 193.5,141.5 192.5,141.5 191.5,141.5C 193.529,136.563 191.863,134.23 186.5,134.5C 187.386,131.528 187.053,128.528 185.5,125.5C 182.834,123.153 180.167,120.82 177.5,118.5C 177.833,117.833 178.167,117.167 178.5,116.5C 177.578,112.387 175.244,110.887 171.5,112C 173.387,105.627 171.053,101.794 164.5,100.5C 163.702,100.043 163.369,99.3764 163.5,98.5 Z"/></g>
<g><path style="opacity:1" fill="#efc328" d="M 211.5,120.5 C 210.991,125.703 209.324,130.37 206.5,134.5C 206.5,133.5 206.5,132.5 206.5,131.5C 207.424,127.425 209.09,123.758 211.5,120.5 Z"/></g>
<g><path style="opacity:1" fill="#ebae30" d="M 167.5,164.5 C 162.695,165.487 157.695,165.821 152.5,165.5C 147.786,165.827 143.12,165.493 138.5,164.5C 139.64,162.922 140.14,161.256 140,159.5C 139.586,159.957 139.086,160.291 138.5,160.5C 136.972,159.139 135.305,157.972 133.5,157C 135.443,155.807 135.276,154.307 133,152.5C 132.333,153.833 131.667,153.833 131,152.5C 131.155,150.189 131.155,147.856 131,145.5C 130.667,145.833 130.333,146.167 130,146.5C 128.581,145.54 127.081,144.707 125.5,144C 124.359,141.217 122.525,139.05 120,137.5C 119.517,136.552 119.351,135.552 119.5,134.5C 120.873,134.657 122.207,134.49 123.5,134C 120.833,132 118.167,130 115.5,128C 116.833,126.333 116.833,124.667 115.5,123C 111.108,121.385 107.275,118.885 104,115.5C 103.46,113.865 103.96,112.532 105.5,111.5C 103.263,110.868 101.597,109.535 100.5,107.5C 97.5953,108.259 95.5953,109.926 94.5,112.5C 94.6309,111.624 94.2975,110.957 93.5,110.5C 92.1401,111.18 90.8068,111.847 89.5,112.5C 89.3691,111.624 89.7025,110.957 90.5,110.5C 94.2445,108.438 97.9112,106.438 101.5,104.5C 104.397,104.212 107.23,103.545 110,102.5C 112.993,103.129 115.827,104.296 118.5,106C 118.167,106.333 117.833,106.667 117.5,107C 120.187,109.357 122.854,111.69 125.5,114C 124.713,116.099 124.38,118.266 124.5,120.5C 128.638,120.973 130.638,123.307 130.5,127.5C 132.604,127.201 134.604,127.534 136.5,128.5C 134.832,133.339 136.165,137.172 140.5,140C 140.043,140.414 139.709,140.914 139.5,141.5C 141.359,143.192 143.359,144.692 145.5,146C 145.167,146.333 144.833,146.667 144.5,147C 147.489,149.131 148.155,151.797 146.5,155C 146.625,156.627 147.125,158.127 148,159.5C 150.167,160.333 151.667,161.833 152.5,164C 157.489,164.499 162.489,164.666 167.5,164.5 Z"/></g>
<g><path style="opacity:1" fill="#edb82a" d="M 113.5,100.5 C 119.206,100.171 124.872,100.505 130.5,101.5C 128.891,103.94 126.557,105.107 123.5,105C 126.146,105.497 128.813,105.664 131.5,105.5C 131.808,109.009 133.808,110.676 137.5,110.5C 137.575,113.206 137.908,115.873 138.5,118.5C 142.236,118.66 142.236,119.493 138.5,121C 142.899,123.714 146.065,127.214 148,131.5C 146.005,129.171 144.838,129.838 144.5,133.5C 146.857,134.403 148.357,136.07 149,138.5C 149.333,137.833 149.667,137.167 150,136.5C 151.626,138.917 153.126,141.417 154.5,144C 159.008,145.032 160.675,147.699 159.5,152C 162.412,152.845 163.412,154.512 162.5,157C 164.619,158.779 166.619,160.612 168.5,162.5C 173.887,161.898 178.887,160.565 183.5,158.5C 182.36,159.801 181.027,160.968 179.5,162C 175.335,162.705 171.335,163.539 167.5,164.5C 162.489,164.666 157.489,164.499 152.5,164C 151.667,161.833 150.167,160.333 148,159.5C 147.125,158.127 146.625,156.627 146.5,155C 148.155,151.797 147.489,149.131 144.5,147C 144.833,146.667 145.167,146.333 145.5,146C 143.359,144.692 141.359,143.192 139.5,141.5C 139.709,140.914 140.043,140.414 140.5,140C 136.165,137.172 134.832,133.339 136.5,128.5C 134.604,127.534 132.604,127.201 130.5,127.5C 130.638,123.307 128.638,120.973 124.5,120.5C 124.38,118.266 124.713,116.099 125.5,114C 122.854,111.69 120.187,109.357 117.5,107C 117.833,106.667 118.167,106.333 118.5,106C 115.827,104.296 112.993,103.129 110,102.5C 107.23,103.545 104.397,104.212 101.5,104.5C 105.01,102.117 109.01,100.783 113.5,100.5 Z"/></g>
<g><path style="opacity:1" fill="#eaa85e" d="M 230.5,208.5 C 226.804,214.528 221.804,219.195 215.5,222.5C 215.586,221.504 215.252,220.671 214.5,220C 215.793,219.51 217.127,219.343 218.5,219.5C 218.67,218.178 218.337,217.011 217.5,216C 218.676,214.086 219.676,214.252 220.5,216.5C 221.242,214.892 221.409,213.225 221,211.5C 222.667,211.833 224.333,212.167 226,212.5C 226.167,212.167 226.333,211.833 226.5,211.5C 225.624,210.749 224.624,210.249 223.5,210C 225.594,208.648 227.927,208.148 230.5,208.5 Z"/></g>
<g><path style="opacity:0.433" fill="#e9b78c" d="M 192.5,231.5 C 190.708,232.309 188.708,232.809 186.5,233C 164.996,233.829 143.663,233.663 122.5,232.5C 145.849,232.747 169.182,232.414 192.5,231.5 Z"/></g>
</svg>
