<svg xmlns="http://www.w3.org/2000/svg" width="276" height="263" style="shape-rendering:geometricPrecision;text-rendering:geometricPrecision;image-rendering:optimizeQuality;fill-rule:evenodd;clip-rule:evenodd"><path style="opacity:.996" fill="#0865fd" d="M164.5 30.5c1.42 2.849 3.42 3.516 6 2 8.652 2.159 16.319 6.159 23 12-.333 3 1 4.333 4 4-.412 2.473.588 3.806 3 4 3.601 3.614 5.935 7.947 7 13a287.04 287.04 0 0 1 2.5 13c.5 11.995.667 23.995.5 36v4c-2.514-6.71-6.514-12.544-12-17.5a49.855 49.855 0 0 0-9-3 220.94 220.94 0 0 0-21-.5 625.626 625.626 0 0 0-50 1c-4.025.13-7.691 1.13-11 3-1.653.16-2.986.826-4 2-2.657.435-4.99 1.435-7 3-3.421 1.039-6.088 3.039-8 6-10.368 7.385-17.868 17.052-22.5 29a34.084 34.084 0 0 0-1.5 8 599.674 599.674 0 0 1-2-53v-19c2.475-2.75 3.475-6.084 3-10 .566-3.373 1.9-6.373 4-9 1.548-.321 2.215-1.321 2-3 2.412-.194 3.412-1.527 3-4 2.797-.467 4.13-2.133 4-5 2.867.13 4.533-1.203 5-4h1c3.565-.91 6.232-2.91 8-6 1.32-1.442 2.986-2.108 5-2 4.544.04 8.544-1.292 12-4a378.634 378.634 0 0 1 55 0z"/><path style="opacity:.973" fill="#669bf8" d="M164.5 30.5c2.398-.24 4.398.426 6 2-2.58 1.516-4.58.849-6-2z"/><path style="opacity:.712" fill="#609bf5" d="M109.5 30.5c-3.456 2.708-7.456 4.04-12 4 3.598-2.24 7.598-3.574 12-4z"/><path style="opacity:.678" fill="#6497f7" d="M92.5 36.5c-1.768 3.09-4.435 5.09-8 6 1.912-2.961 4.579-4.961 8-6z"/><path style="opacity:.569" fill="#79a9f5" d="M83.5 42.5c-.467 2.797-2.133 4.13-5 4 1.08-2.043 2.746-3.376 5-4z"/><path style="opacity:.737" fill="#6ca4f6" d="M193.5 44.5c1.667 1 3 2.333 4 4-3 .333-4.333-1-4-4z"/><path style="opacity:.569" fill="#7facf6" d="M78.5 46.5c.13 2.867-1.203 4.533-4 5 .624-2.254 1.957-3.92 4-5z"/><path style="opacity:.569" fill="#7aacf5" d="M197.5 48.5c1.474.936 2.474 2.27 3 4-2.412-.194-3.412-1.527-3-4z"/><path style="opacity:.655" fill="#72a7f4" d="M74.5 51.5c.412 2.473-.588 3.806-3 4 .526-1.73 1.526-3.064 3-4z"/><path style="opacity:.42" fill="#6ba8f6" d="M71.5 55.5c.215 1.679-.452 2.679-2 3-.073-1.527.594-2.527 2-3z"/><path style="opacity:.898" fill="#6fa5f3" d="M65.5 67.5c.475 3.916-.525 7.25-3 10 .4-3.617 1.4-6.95 3-10z"/><path style="opacity:.518" fill="#5393fa" d="M207.5 65.5c2.556 3.85 4.056 8.184 4.5 13 .5 8.994.666 17.994.5 27-.588 3.11-1.255 6.11-2 9a647.86 647.86 0 0 0-.5-36 287.04 287.04 0 0 0-2.5-13z"/><path style="opacity:.979" fill="#26aaef" d="M118.5 98.5h7c1.906.982 3.906 1.982 6 3a132.572 132.572 0 0 1 13 24.5 68.085 68.085 0 0 0 4 2l-1 1c1.71 4.213 4.377 7.713 8 10.5a104.265 104.265 0 0 0 11 16 81.805 81.805 0 0 0 7 2c2.029-1.129 2.363-.629 1 1.5 2.275.405 4.275-.095 6-1.5l4-1c-.558 1.29-1.558 2.123-3 2.5a107.437 107.437 0 0 1-14 3.5c-3.308.526-5.474-.807-6.5-4a52.26 52.26 0 0 1-4.5-13c-1.89.203-3.39-.463-4.5-2-2.133-5.321-5.799-8.987-11-11 1.297-4.785.13-8.952-3.5-12.5 1.211-1.113 1.211-2.28 0-3.5-3.39-1.368-6.724-2.701-10-4-.256-2.292.077-4.459 1-6.5a35.07 35.07 0 0 1-11-4.5h-10c3.309-1.87 6.975-2.87 11-3z"/><path style="opacity:.986" fill="#22a3f1" d="M125.5 98.5h16v3c6.035.548 8.535 3.881 7.5 10a26.585 26.585 0 0 1 3.5 2 82.671 82.671 0 0 0 8.5 15c.47 6.65 3.637 11.65 9.5 15a28.043 28.043 0 0 1 1.5 5l5 3c.424 2.525 1.59 4.525 3.5 6-1.725 1.405-3.725 1.905-6 1.5 1.363-2.129 1.029-2.629-1-1.5a81.805 81.805 0 0 1-7-2 104.265 104.265 0 0 1-11-16c-3.623-2.787-6.29-6.287-8-10.5l1-1a68.085 68.085 0 0 1-4-2 132.572 132.572 0 0 0-13-24.5 287.054 287.054 0 0 1-6-3z"/><path style="opacity:.972" fill="#1487f6" d="M118.5 98.5a625.626 625.626 0 0 1 50-1v1a87.424 87.424 0 0 0 10.5 14c.591 5.864 3.591 9.864 9 12 .483.948.649 1.948.5 3h6c-.126 1.7-.793 3.2-2 4.5 1.986 2.426 3.32 5.259 4 8.5a14.72 14.72 0 0 0 1.5-5c.498 2.044 1.665 3.378 3.5 4a34.666 34.666 0 0 1-6 8c-1.077 1.205-2.41 1.872-4 2-1.517-.011-2.684-.677-3.5-2-1.201-3.21-3.201-5.877-6-8-.516-2.534-1.683-4.7-3.5-6.5l1-1c-1.361-1.584-2.028-3.418-2-5.5a12.93 12.93 0 0 1-5-.5l1-1a515.953 515.953 0 0 0-16-26 128.43 128.43 0 0 0-16-.5h-23z"/><path style="opacity:.98" fill="#0e7df8" d="M168.5 98.5c5.344-.166 10.677 0 16 .5a7.296 7.296 0 0 0 3 2c1.342 4.427 4.175 8.26 8.5 11.5a35.145 35.145 0 0 0 5 10c1.11 1.537 2.61 2.203 4.5 2-.215 1.679.452 2.679 2 3-.425 4.85-2.425 8.85-6 12-1.835-.622-3.002-1.956-3.5-4a14.72 14.72 0 0 1-1.5 5c-.68-3.241-2.014-6.074-4-8.5 1.207-1.3 1.874-2.8 2-4.5h-6a4.934 4.934 0 0 0-.5-3c-5.409-2.136-8.409-6.136-9-12a87.424 87.424 0 0 1-10.5-14z"/><path style="opacity:.994" fill="#0671fb" d="M168.5 98.5v-1c7.008-.166 14.008 0 21 .5a49.855 49.855 0 0 1 9 3c5.486 4.956 9.486 10.79 12 17.5a38.035 38.035 0 0 1-3 9c-1.548-.321-2.215-1.321-2-3-1.89.203-3.39-.463-4.5-2a35.145 35.145 0 0 1-5-10c-4.325-3.24-7.158-7.073-8.5-11.5a7.296 7.296 0 0 1-3-2 128.43 128.43 0 0 0-16-.5z"/><path style="opacity:.989" fill="#2fbceb" d="M107.5 101.5h10c-.757 5.309 1.577 8.976 7 11a36.167 36.167 0 0 1 2.5 8c2.085 1.582 3.585 3.582 4.5 6a29.825 29.825 0 0 1 5 2 200.709 200.709 0 0 1 8 21c3.85.201 4.85 2.034 3 5.5a17.758 17.758 0 0 0 7 1.5c1.97 3.048 1.304 5.215-2 6.5 1.401.41 2.734.91 4 1.5-4.869 1.251-9.869 1.251-15 0-1.943-2.139-2.61-4.472-2-7-.774-1.211-1.607-1.211-2.5 0l-12-22c-4.669-4.144-7.835-9.144-9.5-15-3.893-2.136-6.06-5.469-6.5-10-1.371-2.766-3.204-5.099-5.5-7 1.014-1.174 2.347-1.84 4-2z"/><path style="opacity:.985" fill="#1b96f3" d="M141.5 98.5c5.344-.166 10.677 0 16 .5a515.953 515.953 0 0 1 16 26l-1 1a12.93 12.93 0 0 0 5 .5c-.028 2.082.639 3.916 2 5.5l-1 1c1.817 1.8 2.984 3.966 3.5 6.5 2.799 2.123 4.799 4.79 6 8 .816 1.323 1.983 1.989 3.5 2a2.428 2.428 0 0 1-.5 2c-2.638 1.148-4.804 2.815-6.5 5l-4 1c-1.91-1.475-3.076-3.475-3.5-6l-5-3a28.043 28.043 0 0 0-1.5-5c-5.863-3.35-9.03-8.35-9.5-15a82.671 82.671 0 0 1-8.5-15 26.585 26.585 0 0 0-3.5-2c1.035-6.119-1.465-9.452-7.5-10v-3z"/><path style="opacity:.977" fill="#34c2e9" d="M103.5 103.5c2.296 1.901 4.129 4.234 5.5 7 .44 4.531 2.607 7.864 6.5 10 1.665 5.856 4.831 10.856 9.5 15l12 22c.893-1.211 1.726-1.211 2.5 0-.61 2.528.057 4.861 2 7h-4a25.14 25.14 0 0 1-4.5-4 98.539 98.539 0 0 1-6-13 13.92 13.92 0 0 0-4-3 2242.738 2242.738 0 0 1-9.5-15.5c.235-.873.569-1.707 1-2.5a151.88 151.88 0 0 1-9.5-11c.351-5.923-2.482-8.923-8.5-9 2.01-1.565 4.343-2.565 7-3z"/><path style="opacity:.979" fill="#39cae7" d="M96.5 106.5c6.018.077 8.851 3.077 8.5 9a151.88 151.88 0 0 0 9.5 11 11.456 11.456 0 0 0-1 2.5 2242.738 2242.738 0 0 0 9.5 15.5 13.92 13.92 0 0 1 4 3 98.539 98.539 0 0 0 6 13 25.14 25.14 0 0 0 4.5 4c-.06.543-.393.876-1 1a162.835 162.835 0 0 1-10-2.5c-.923-2.041-1.256-4.208-1-6.5a9.108 9.108 0 0 1-5-1c-1.09-.891-1.09-1.891 0-3a15.014 15.014 0 0 0-3.5-4c-1.73 1.149-3.396 1.149-5 0l-1-11a76.236 76.236 0 0 1-6.5-6c.029-1.529.696-2.696 2-3.5a20.431 20.431 0 0 1-5.5-1.5l-1-7a12.8 12.8 0 0 1-3-6 10.939 10.939 0 0 0-4.5-3c-1.122 1.13-2.456 1.797-4 2 1.912-2.961 4.579-4.961 8-6z"/><path style="opacity:.994" fill="#3fd1e6" d="M212.5 105.5c30.407 21.051 40.241 49.384 29.5 85-10.924 25.221-30.09 39.388-57.5 42.5a930.035 930.035 0 0 1-61 0c-34.748-5.748-55.248-25.915-61.5-60.5-.5-6.325-.666-12.658-.5-19 .617.111 1.117.444 1.5 1a27.587 27.587 0 0 1 1.5-5 34.084 34.084 0 0 1 1.5-8c4.632-11.948 12.132-21.615 22.5-29 1.544-.203 2.878-.87 4-2a10.939 10.939 0 0 1 4.5 3 12.8 12.8 0 0 0 3 6l1 7a20.431 20.431 0 0 0 5.5 1.5c-1.304.804-1.971 1.971-2 3.5a76.236 76.236 0 0 0 6.5 6l1 11c1.604 1.149 3.27 1.149 5 0a15.014 15.014 0 0 1 3.5 4c-1.09 1.109-1.09 2.109 0 3a9.108 9.108 0 0 0 5 1c-.256 2.292.077 4.459 1 6.5 3.315.941 6.648 1.774 10 2.5.607-.124.94-.457 1-1h4c5.131 1.251 10.131 1.251 15 0 3.35.165 6.683-.002 10-.5.556-.383.889-.883 1-1.5 4.732-.85 9.399-2.016 14-3.5 1.442-.377 2.442-1.21 3-2.5 1.696-2.185 3.862-3.852 6.5-5a2.428 2.428 0 0 0 .5-2c1.59-.128 2.923-.795 4-2a34.666 34.666 0 0 0 6-8c3.575-3.15 5.575-7.15 6-12a38.035 38.035 0 0 0 3-9v-4c.745-2.89 1.412-5.89 2-9z"/><path style="opacity:.992" fill="#29b2ed" d="M117.5 101.5a35.07 35.07 0 0 0 11 4.5c-.923 2.041-1.256 4.208-1 6.5 3.276 1.299 6.61 2.632 10 4 1.211 1.22 1.211 2.387 0 3.5 3.63 3.548 4.797 7.715 3.5 12.5 5.201 2.013 8.867 5.679 11 11 1.11 1.537 2.61 2.203 4.5 2a52.26 52.26 0 0 0 4.5 13c1.026 3.193 3.192 4.526 6.5 4-.111.617-.444 1.117-1 1.5-3.317.498-6.65.665-10 .5a28.208 28.208 0 0 0-4-1.5c3.304-1.285 3.97-3.452 2-6.5a17.758 17.758 0 0 1-7-1.5c1.85-3.466.85-5.299-3-5.5a200.709 200.709 0 0 0-8-21 29.825 29.825 0 0 0-5-2c-.915-2.418-2.415-4.418-4.5-6a36.167 36.167 0 0 0-2.5-8c-5.423-2.024-7.757-5.691-7-11z"/><path style="opacity:.237" fill="#7bacfc" d="M62.5 96.5a599.674 599.674 0 0 0 2 53 27.587 27.587 0 0 0-1.5 5c-.383-.556-.883-.889-1.5-1a812.816 812.816 0 0 1 1-57z"/></svg>