<?xml version="1.0" standalone="no"?>
<svg version="1.0" xmlns="http://www.w3.org/2000/svg"
 viewBox="0 0 48 48"
 preserveAspectRatio="xMidYMid meet">

<g transform="translate(0.000000,48.000000) scale(0.100000,-0.100000)"
fill="#e901cc" stroke="none">
<path d="M167 464 c-111 -35 -183 -158 -158 -270 42 -186 258 -253 395 -121
86 82 96 213 23 310 -58 77 -167 111 -260 81z m208 -144 c0 -9 -11 -16 -27
-18 l-28 -3 0 -85 c0 -77 -2 -84 -20 -84 -18 0 -20 7 -20 85 0 50 -4 85 -10
85 -6 0 -10 -40 -10 -100 0 -93 -1 -100 -20 -100 -19 0 -20 7 -20 100 0 60 -4
100 -10 100 -6 0 -10 -35 -10 -85 0 -78 -2 -85 -20 -85 -18 0 -20 7 -20 84 l0
85 -27 3 c-17 2 -29 10 -31 21 -3 16 7 17 135 15 115 -3 138 -6 138 -18z"/>
</g>
</svg>
