<svg  viewBox="0 0 200 196" fill="none" xmlns="http://www.w3.org/2000/svg">
<path d="M62.5 33H121.5L125 70C128 68.1667 135.1 65.6 139.5 70C143.9 74.4 142.333 81.8333 141 85C147 91.5 160.8 105.2 168 108C175.2 110.8 183 112.5 186 113C184.5 113.833 180.5 115.7 176.5 116.5C172.5 117.3 168.5 116.833 167 116.5C168.333 117 172.5 120.7 178.5 131.5C184.5 142.3 195 150.333 199.5 153C195.833 153.833 186.7 155.4 179.5 155C172.3 154.6 164.5 152.5 161.5 151.5L166.5 195.5C155.667 194.333 129.6 190.5 112 184.5C94.4 178.5 82.3333 166.333 78.5 161C74.5 164 64.4 170.7 56 173.5C47.6 176.3 27.8333 175.333 19 174.5C23 170.5 32.1 160.3 36.5 151.5C40.9 142.7 41.3333 136.833 41 135C39.6667 135.833 34.2 137.6 23 138C11.8 138.4 3.33333 136.167 0.5 135C2.5 134 8.7 130.8 17.5 126C26.3 121.2 29.1667 116.333 29.5 114.5L16 116.5C19.6667 113.333 29.2 104.5 38 94.5C46.8 84.5 49 72 49 67L55.5 51.5L62.5 33Z" fill="url(#paint0_linear_5032_11316)"/>
<path d="M77 15C63.8 23.4 58.8333 37.8333 58 44L109.5 21.5C104.167 15.8333 90.2 6.6 77 15Z" fill="#B00000"/>
<path d="M164.5 2.00003C168.5 2.50003 169 5.49997 169 6.5C169.167 4.66666 168.8 0 164 0C160 0 152 6.5 134 14C121.441 19.233 112 20.8333 109.5 21.5L83 33C94.5 33.6667 120.708 34.5521 128 32C138 28.5 160.5 1.50003 164.5 2.00003Z" fill="#F56057"/>
<path d="M118.5 33C118.911 33.0228 119.343 33.0446 119.796 33.065C120.935 32.9944 122.889 32.7179 126 32C131.2 30.8 141.5 21.5 146 17C150.833 11.8333 161.308 2.45598 164.5 1.99995C168 1.5 168.5 3.99998 168.5 3.99998C168.5 3.99998 170.1 4.89998 168.5 12.5C166.5 22 162.5 24.5 154 29.5C147.51 33.3175 129.271 33.4917 119.796 33.065C119.031 33.1124 118.634 33.0669 118.5 33Z" fill="#A33F1E"/>
<path d="M77.5 20C83.3839 10.5857 89 12.05 90 11.6737C89 11.5 85 11.5 82 12.5C79 13.5 73 15.5 65.5 25C59.5 32.6 58.1667 40.8333 58 44L73 37.5C73 34 72.5 28 77.5 20Z" fill="#FC956E"/>
<path d="M56.5 47C59.7 46.6 60.5 48.1667 60.5 49C60.8333 51 61.1 56.4 59.5 62C57.9 67.6 54.5 72.3333 53 74C50.8333 70.8333 46.7 63.2 47.5 58C48.5 51.5 52.5 47.5 56.5 47Z" fill="#E0AF8A"/>
<path d="M64 60C63 68.5 68.5 70.5 70 71H74C77 68 84 62.1 88 62.5C93 63 95 64 98.5 68C102 72 108 79.5 115 80C122 80.5 123 74 126.5 71C129.3 68.6 132 67.5 133 67.5C132.833 66.3333 132.3 64 131.5 62C130.7 60 127.833 58.5 126.5 58C126.667 57.3333 127 54.9 127 50.5C127 46.1 124.333 41 123 39L121.5 33L110.5 33.5H96L84.5 33L76 38L72 49C69.6667 49.8333 64.8 53.2 64 60Z" fill="#E0AF8A"/>
<path d="M98.5001 61C99.5001 59.5 102 55 102 55L104.5 50.5C104.5 49.6667 104.8 47.2 106 44C107.2 40.8 107.167 36.6667 107 35H104.5L92.5001 36L83.5001 41L76.5001 49C76.1001 49.8 65.5 61.5 66 64.5C67.8334 65.6667 72.8 70.1 74 70.5C75.2 70.9 82 60.5737 91.5 63.0737L92.75 63.5237L94 64.0437L95.5 65.0237L96.5 65.9237L97 66.3837C97 64.8837 97.8451 61.9824 98.5001 61Z" fill="url(#paint1_linear_5032_11316)"/>
<path d="M114.5 90C111.5 90.5 104.5 91 97.5 87.5C90.1244 83.8122 88.3333 78.1667 88.5 75.5" stroke="#583631" stroke-linecap="round"/>
<path d="M85 78.5C85.3333 77.8333 86.5 76.3 88.5 75.5C90.5 74.7 93.3333 75.1667 94.5 75.5" stroke="#583631" stroke-linecap="round"/>
<path d="M115 52C115.4 46.4 116.833 43.3333 117.5 42.5L125 44C125.333 44.5 126.1 46.2 126.5 49C126.9 51.8 126.667 56.1667 126.5 58C127.333 58.3333 129.3 59.3 130.5 60.5C131.7 61.7 133 65.6667 133.5 67.5C133.167 67.3333 131.9 67.3 129.5 68.5C126.5 70 125.5 72 123.5 75C121.9 77.4 119.833 78.6667 119 79L121.5 74V71.5L118 66.5C116.833 64 114.6 57.6 115 52Z" fill="url(#paint2_linear_5032_11316)"/>
<path d="M94 39.5C86.8 39.9 82 43 80 44C81.5 40.5 88.9 35.3 92.5 34.5C96.1 33.7 104 34.1667 107.5 34.5C107.5 35.1667 107.2 36.8 106 38C104.5 39.5 103 39 94 39.5Z" fill="#FAF9FC"/>
<path d="M125.5 40.5C128.3 41.7 128.333 46 128 48C127.5 47.3333 126.1 45.7 124.5 44.5C122.9 43.3 119.5 42.3333 118 42C119.333 41 122.7 39.3 125.5 40.5Z" fill="#FAF9FC"/>
<path d="M95.5 47.5C89.1 47.1 83.8333 49.3333 82 50.5L89.5 53C94.3 54.6 96.1667 56.3333 96.5 57C97.3333 57 99.5 56.5 101.5 54.5C103.5 52.5 104 50.6667 104 50C103.833 49.3333 101.9 47.9 95.5 47.5Z" fill="#FAF9FC"/>
<path d="M118.5 54C117.7 56 118.167 57.5 118.5 58C118.833 58.1667 120 58.5 122 58.5C124 58.5 125.833 58.1667 126.5 58L127.5 51C127.167 50.8333 126 50.5 124 50.5C121.5 50.5 119.5 51.5 118.5 54Z" fill="#FAF9FC"/>
<path d="M86 52L86.5 48.5L91.5 47.5H96L95.5 50H93.5L95 51.5L93 54.5L86 52Z" fill="#583631"/>
<path d="M120 51.5L123.5 50.5V53L121.5 54L123.5 55L123 58.5H121L119 58L118.5 56.5V53.5L120 51.5Z" fill="#583631"/>
<path d="M82 50.5C83.3333 49.5 87.2 47.5 92 47.5C98 47.5 101.5 48.5 103 49C104.2 49.4 104.167 50.1667 104 50.5" stroke="#583631" stroke-linecap="round"/>
<path d="M118 55.5C118 54.6667 118.6 52.6 121 51C123.4 49.4 126.333 50.3334 127.5 51" stroke="#583631" stroke-linecap="round"/>
<path d="M118.5 58C118.833 58.1667 120 58.5 122 58.5C124 58.5 125.833 58.1667 126.5 58" stroke="#583631" stroke-linecap="round"/>
<path d="M82 50.5C83.5 50.8333 87.3 51.8 90.5 53C93.7 54.2 95.8333 56.1667 96.5 57" stroke="#583631" stroke-linecap="round"/>
<path d="M18.5 138C8.50637 137.643 2.33333 136 0.5 135C3.66667 135 12.6 134.5 23 132.5C33.4 130.5 39.3333 127 41 125.5V135C38 136.5 32.5 138.5 18.5 138Z" fill="url(#paint3_linear_5032_11316)"/>
<path d="M49 168.5C39.8 173.3 25.1667 174.5 19 174.5C21 174.833 25.9 175.5 29.5 175.5C34 175.5 49 176 61 172.5C70.6 169.7 76.6667 163.667 78.5 161C81.5 166 91.3 174.3 100.5 179.5C112 186 123.5 188.5 139 191.5C151.4 193.9 162.333 195.167 166.5 195.5C154.833 191 127.9 179.6 111.5 170C95.1 160.4 83.6667 148.667 80 144C73.5 150.167 58.2 163.7 49 168.5Z" fill="url(#paint4_linear_5032_11316)"/>
<path d="M180.5 155C188.9 155 196.667 153.667 199.5 153C194.5 152 182 151.5 174.5 148.5C166.989 145.496 160.167 140.333 158 137L161.5 151.5C164.333 152.667 172.1 155 180.5 155Z" fill="url(#paint5_linear_5032_11316)"/>
<path d="M177.5 116.5C181.1 115.7 185 113.833 186.5 113C183.833 113.333 177.7 114 174.5 114C171.3 114 165.5 113.333 163 113L167.5 116.5C169.333 116.833 173.9 117.3 177.5 116.5Z" fill="url(#paint6_linear_5032_11316)"/>
<path d="M29.5 114.5L16 116.5C16.8333 116.167 22 114.65 26.5 111.5C31.1474 108.247 35.7948 104.418 37.2301 102.422L37.5 102C37.4295 102.129 37.3391 102.27 37.2301 102.422L29.5 114.5Z" fill="url(#paint7_linear_5032_11316)"/>
<path d="M111.5 63C113.1 69.4 114.833 71.3333 115.5 71.5L119 72H121.5L124 71.5L123 75L121 78L118.5 79.5L116.5 80L113 79.5L110 78.5L106.5 76L102 72L98 67L94.5 64L91 62.5L87.5 62L82.5 63L75.5 68.5L80 44L85.5 38.5L93 35L107.5 34.5C107.5 35 107.6 37.3 108 42.5C108.5 49 109.5 55 111.5 63Z" fill="url(#paint8_radial_5032_11316)" fill-opacity="0.4"/>
<defs>
<linearGradient id="paint0_linear_5032_11316" x1="171" y1="12.5" x2="107.5" y2="168" gradientUnits="userSpaceOnUse">
<stop stop-color="#E5DCDD"/>
<stop offset="1" stop-color="#FCFCFC"/>
</linearGradient>
<linearGradient id="paint1_linear_5032_11316" x1="79" y1="57.5" x2="98.5" y2="71.5" gradientUnits="userSpaceOnUse">
<stop stop-color="#E0AF8A"/>
<stop offset="1" stop-color="#C48970"/>
</linearGradient>
<linearGradient id="paint2_linear_5032_11316" x1="117" y1="44.5" x2="130.5" y2="79" gradientUnits="userSpaceOnUse">
<stop stop-color="#BB806A"/>
<stop offset="0.975271" stop-color="#A46B57"/>
</linearGradient>
<linearGradient id="paint3_linear_5032_11316" x1="45" y1="52.5" x2="215.5" y2="184" gradientUnits="userSpaceOnUse">
<stop stop-color="#D3D0D0"/>
<stop offset="1" stop-color="#A89E9C"/>
</linearGradient>
<linearGradient id="paint4_linear_5032_11316" x1="45" y1="52.5" x2="215.5" y2="184" gradientUnits="userSpaceOnUse">
<stop stop-color="#D3D0D0"/>
<stop offset="1" stop-color="#A89E9C"/>
</linearGradient>
<linearGradient id="paint5_linear_5032_11316" x1="45" y1="52.5" x2="215.5" y2="184" gradientUnits="userSpaceOnUse">
<stop stop-color="#D3D0D0"/>
<stop offset="1" stop-color="#A89E9C"/>
</linearGradient>
<linearGradient id="paint6_linear_5032_11316" x1="45" y1="52.5" x2="215.5" y2="184" gradientUnits="userSpaceOnUse">
<stop stop-color="#D3D0D0"/>
<stop offset="1" stop-color="#A89E9C"/>
</linearGradient>
<linearGradient id="paint7_linear_5032_11316" x1="45" y1="52.5" x2="215.5" y2="184" gradientUnits="userSpaceOnUse">
<stop stop-color="#D3D0D0"/>
<stop offset="1" stop-color="#A89E9C"/>
</linearGradient>
<radialGradient id="paint8_radial_5032_11316" cx="0" cy="0" r="1" gradientUnits="userSpaceOnUse" gradientTransform="translate(121 62) rotate(163.78) scale(28.64 30.8676)">
<stop stop-color="#B17762"/>
<stop offset="1" stop-color="#AD745F" stop-opacity="0"/>
</radialGradient>
</defs>
</svg>
