<svg viewBox="0 0 24 29" fill="none" xmlns="http://www.w3.org/2000/svg">
<path d="M7.58596 3.18052C7.24917 3.13037 7.23313 3.11365 7.39351 3.09693C7.69822 3.04677 8.40388 3.11365 8.90105 3.23068C10.0558 3.5149 11.0982 4.25054 12.2048 5.53791L12.4935 5.88901L12.9105 5.82213C14.6907 5.52119 16.519 5.75526 18.0426 6.49089C18.4596 6.69152 19.1171 7.09278 19.1973 7.19309C19.2294 7.22653 19.2775 7.44388 19.3096 7.66123C19.4218 8.44702 19.3737 9.03219 19.1331 9.4836C19.0048 9.73439 19.0048 9.80127 19.085 10.0186C19.1492 10.1858 19.3416 10.3028 19.518 10.3028C19.903 10.3028 20.3039 9.66751 20.4964 8.7814L20.5765 8.4303L20.7209 8.59749C21.5388 9.55048 22.1803 10.8713 22.2765 11.8076L22.3086 12.0583L22.1643 11.841C21.9237 11.4565 21.6992 11.2057 21.3945 10.9883C20.8492 10.6038 20.2718 10.4867 18.7482 10.4032C17.369 10.3196 16.5831 10.2025 15.8133 9.93502C14.4982 9.4836 13.8246 8.89844 12.269 6.74168C11.5794 5.78869 11.1463 5.2704 10.7133 4.83571C9.76709 3.88272 8.82087 3.38115 7.58596 3.18052Z" fill="#FF007A"/>
<path d="M19.5352 5.3036C19.5672 4.66828 19.6474 4.25031 19.8239 3.86577C19.888 3.7153 19.9522 3.58154 19.9682 3.58154C19.9842 3.58154 19.9522 3.69858 19.904 3.83233C19.7757 4.20015 19.7597 4.71844 19.8399 5.3036C19.9522 6.05596 20.0003 6.15628 20.7701 6.97551C21.1229 7.36005 21.5399 7.8449 21.7003 8.04553L21.9729 8.41335L21.7003 8.14584C21.3635 7.81146 20.5937 7.17614 20.4172 7.09254C20.305 7.02567 20.2889 7.02567 20.2088 7.10926C20.1446 7.17614 20.1286 7.27645 20.1286 7.76131C20.1125 8.51366 20.0163 8.9818 19.7757 9.46665C19.6474 9.71743 19.6314 9.66728 19.7437 9.38305C19.8239 9.1657 19.8399 9.06539 19.8399 8.34647C19.8399 6.89191 19.6795 6.54081 18.7012 5.95565C18.4606 5.80518 18.0437 5.58783 17.8031 5.4708C17.5465 5.35376 17.354 5.25345 17.3701 5.25345C17.4021 5.22001 18.3484 5.50423 18.7172 5.67142C19.2786 5.90549 19.3748 5.92221 19.4389 5.90549C19.4871 5.85533 19.5191 5.72158 19.5352 5.3036Z" fill="#FF007A"/>
<path d="M8.24443 7.79482C7.57084 6.82511 7.13782 5.3204 7.23405 4.20022L7.26613 3.84912L7.4265 3.88256C7.71518 3.93272 8.21235 4.13335 8.45292 4.28382C9.09443 4.68507 9.38311 5.2368 9.65575 6.60776C9.73594 7.00902 9.8482 7.47715 9.89632 7.62763C9.97651 7.87841 10.2812 8.46358 10.5378 8.8314C10.7142 9.0989 10.602 9.23265 10.201 9.19922C9.5916 9.13234 8.77367 8.54717 8.24443 7.79482Z" fill="#FF007A"/>
<path d="M18.7161 15.0676C15.5406 13.7301 14.418 12.5765 14.418 10.6203C14.418 10.3361 14.434 10.1021 14.434 10.1021C14.45 10.1021 14.5623 10.2024 14.7066 10.3194C15.3482 10.8544 16.0699 11.0885 18.0746 11.3894C19.2453 11.5733 19.9189 11.7071 20.5284 11.9244C22.4689 12.5932 23.6718 13.9642 23.9604 15.82C24.0406 16.355 23.9925 17.3748 23.8642 17.9098C23.7519 18.3278 23.4312 19.0969 23.351 19.1136C23.335 19.1136 23.3029 19.03 23.3029 18.8963C23.2708 18.1941 22.934 17.5253 22.3727 17.007C21.6991 16.4051 20.8331 15.9537 18.7161 15.0676Z" fill="#FF007A"/>
<path d="M16.4718 15.619C16.4397 15.3682 16.3596 15.0506 16.3114 14.9168L16.2313 14.666L16.3756 14.8499C16.5841 15.1007 16.7445 15.4017 16.8888 15.8196C17.0011 16.1373 17.0011 16.2376 17.0011 16.7559C17.0011 17.2575 16.985 17.3745 16.8888 17.6587C16.7284 18.1101 16.536 18.4278 16.2152 18.7789C15.6379 19.3975 14.8841 19.7319 13.8096 19.8824C13.6171 19.8991 13.0718 19.9492 12.5907 19.9827C11.3878 20.0496 10.586 20.1833 9.86426 20.4508C9.76804 20.4842 9.67181 20.5177 9.65577 20.501C9.6237 20.4675 10.1209 20.1666 10.5218 19.966C11.0831 19.6817 11.6605 19.5313 12.9275 19.2972C13.5529 19.1969 14.1945 19.0631 14.3548 18.9962C15.9426 18.478 16.7284 17.1906 16.4718 15.619Z" fill="#FF007A"/>
<path d="M17.93 18.3112C17.513 17.3582 17.4168 16.4554 17.6413 15.6027C17.6734 15.5191 17.7055 15.4355 17.7375 15.4355C17.7696 15.4355 17.8658 15.4857 17.9621 15.5526C18.1545 15.6863 18.5555 15.9204 19.5819 16.5056C20.8809 17.2412 21.6187 17.8097 22.1319 18.4617C22.5809 19.0301 22.8536 19.6822 22.9819 20.4847C23.0621 20.9361 23.014 22.0229 22.9017 22.4743C22.5489 23.8954 21.747 25.0323 20.5762 25.6843C20.3998 25.7846 20.2555 25.8515 20.2394 25.8515C20.2234 25.8515 20.2875 25.6843 20.3838 25.4837C20.7687 24.631 20.8168 23.8118 20.5281 22.8922C20.3517 22.3238 19.9828 21.6383 19.2451 20.4847C18.363 19.1472 18.1545 18.7961 17.93 18.3112Z" fill="#FF007A"/>
<path d="M5.98328 23.4274C7.17007 22.3908 8.62951 21.6552 9.97668 21.4211C10.554 21.3208 11.5163 21.3542 12.0455 21.5047C12.8955 21.7388 13.6654 22.2403 14.0663 22.8589C14.4512 23.4608 14.6276 23.9791 14.804 25.1327C14.8682 25.5842 14.9484 26.0523 14.9644 26.1526C15.0927 26.7545 15.3493 27.2226 15.6701 27.4734C16.1673 27.8579 17.0333 27.8747 17.8833 27.5403C18.0276 27.4901 18.1559 27.44 18.1559 27.4567C18.188 27.4901 17.755 27.7911 17.4663 27.9415C17.0654 28.1589 16.7446 28.2258 16.3116 28.2258C15.5418 28.2258 14.8842 27.8078 14.355 26.9718C14.2427 26.8046 14.0182 26.3198 13.8257 25.8684C13.2644 24.5141 12.9757 24.1129 12.3182 23.6615C11.7408 23.2769 11.0031 23.1933 10.4418 23.4776C9.70404 23.8454 9.51158 24.8318 10.0248 25.4337C10.2333 25.6845 10.6182 25.8851 10.9389 25.9353C11.5323 26.0188 12.0455 25.534 12.0455 24.9154C12.0455 24.5141 11.9012 24.2801 11.5163 24.0962C11.0031 23.8621 10.4418 24.1296 10.4578 24.6479C10.4578 24.8652 10.554 24.999 10.7625 25.0993C10.8908 25.1662 10.8908 25.1662 10.7946 25.1495C10.3295 25.0491 10.2172 24.4473 10.5861 24.0627C11.0352 23.5946 11.9814 23.7952 12.3022 24.4473C12.4305 24.7148 12.4465 25.2498 12.3342 25.5842C12.0616 26.3198 11.2918 26.7043 10.5059 26.487C9.97668 26.3365 9.75215 26.186 9.11064 25.5006C7.988 24.2968 7.55498 24.0627 5.9512 23.8119L5.64648 23.7618L5.98328 23.4274Z" fill="#FF007A"/>
<path fill-rule="evenodd" clip-rule="evenodd" d="M0.545997 0.944505C4.28279 5.676 7.04129 8.61399 7.32997 9.01525C7.57053 9.34963 7.47431 9.66729 7.07336 9.90136C6.84883 10.0351 6.38374 10.1689 6.15921 10.1689C5.90261 10.1689 5.59789 10.0351 5.3894 9.81776C5.24506 9.66729 4.61959 8.7143 3.20826 6.4238C2.13373 4.66829 1.21958 3.21374 1.20354 3.19702C1.13939 3.16358 1.13939 3.16358 3.096 6.80833C4.33091 9.09884 4.73185 9.91808 4.73185 10.0184C4.73185 10.2357 4.6677 10.3528 4.4111 10.6537C3.97808 11.1553 3.78562 11.7237 3.64128 12.9108C3.48091 14.2316 3.04789 15.1679 1.81298 16.7562C1.09128 17.6924 0.979016 17.8596 0.802601 18.2442C0.578073 18.7123 0.513921 18.9798 0.481846 19.5817C0.44977 20.217 0.513921 20.6183 0.690337 21.2202C0.850714 21.7552 1.02713 22.1063 1.46015 22.7917C1.82902 23.3936 2.05355 23.845 2.05355 24.0122C2.05355 24.146 2.08562 24.146 2.66298 24.0122C4.04223 23.6779 5.18091 23.1094 5.80638 22.4072C6.19129 21.9725 6.28751 21.7384 6.28751 21.1366C6.28751 20.752 6.27148 20.6684 6.17525 20.4344C6.01487 20.0665 5.71015 19.7656 5.05261 19.2975C4.18657 18.6789 3.8177 18.1773 3.72147 17.5085C3.64128 16.9401 3.73751 16.5555 4.21864 15.5022C4.71581 14.4155 4.84412 13.9641 4.9243 12.8606C4.97242 12.1584 5.05261 11.8742 5.24506 11.6569C5.45355 11.4228 5.62997 11.3392 6.12714 11.2723C6.94506 11.1553 7.47431 10.9379 7.89129 10.52C8.26016 10.1689 8.42054 9.81776 8.43657 9.29947L8.45261 8.91493L8.24412 8.68087C7.49034 7.77804 0.0488266 0.225586 0.000713367 0.225586C-0.0153244 0.225586 0.24128 0.543248 0.545997 0.944505ZM2.47053 20.3006C2.64694 19.9829 2.55072 19.5817 2.26204 19.3811C1.98939 19.1971 1.57241 19.2807 1.57241 19.5315C1.57241 19.5984 1.60449 19.6653 1.70072 19.6987C1.84506 19.7823 1.86109 19.8659 1.74883 20.0498C1.63656 20.2337 1.63656 20.4009 1.7809 20.518C2.00543 20.7019 2.31015 20.6016 2.47053 20.3006Z" fill="#FF007A"/>
<path fill-rule="evenodd" clip-rule="evenodd" d="M8.96514 11.5062C8.58023 11.6232 8.21137 12.0579 8.0991 12.4926C8.03495 12.7601 8.06703 13.245 8.17929 13.3955C8.35571 13.6295 8.51608 13.6964 8.96514 13.6964C9.84722 13.6964 10.601 13.2951 10.6812 12.8103C10.7614 12.409 10.4246 11.8573 9.95948 11.6065C9.71892 11.4728 9.22175 11.4226 8.96514 11.5062ZM9.99156 12.3422C10.1199 12.1415 10.0717 11.9242 9.83118 11.7737C9.39816 11.4895 8.74061 11.7235 8.74061 12.1582C8.74061 12.3756 9.07741 12.6097 9.39816 12.6097C9.60665 12.6097 9.89533 12.4759 9.99156 12.3422Z" fill="#FF007A"/>
</svg>
