<?xml version="1.0" encoding="UTF-8"?>
<!DOCTYPE svg PUBLIC "-//W3C//DTD SVG 1.1//EN" "http://www.w3.org/Graphics/SVG/1.1/DTD/svg11.dtd">
<svg xmlns="http://www.w3.org/2000/svg" version="1.1" viewBox="0 0 40 40" style="shape-rendering:geometricPrecision; text-rendering:geometricPrecision; image-rendering:optimizeQuality; fill-rule:evenodd; clip-rule:evenodd" xmlns:xlink="http://www.w3.org/1999/xlink">
<g><path style="opacity:0.806" fill="#ff2203" d="M 20.5,2.5 C 16.7685,2.95043 13.6018,4.6171 11,7.5C 6.82619,13.1797 4.32619,19.513 3.5,26.5C 3.59047,29.336 4.25714,32.0027 5.5,34.5C 3.5891,34.4257 2.42244,33.4257 2,31.5C 0.157542,19.3469 3.99088,9.51356 13.5,2C 16.0385,1.20419 18.3718,1.37086 20.5,2.5 Z"/></g>
<g><path style="opacity:0.911" fill="#1f7ff8" d="M 22.5,3.5 C 28.1773,4.01751 30.844,7.18417 30.5,13C 30.2272,14.5328 29.8938,16.0328 29.5,17.5C 27.901,17.7678 26.5676,17.4345 25.5,16.5C 26.1524,15.5514 26.4857,14.3847 26.5,13C 26.6068,10.7794 25.9402,8.94609 24.5,7.5C 23.8333,7.5 23.1667,7.5 22.5,7.5C 21.5,7.83333 20.8333,8.5 20.5,9.5C 17.7805,11.2193 15.7805,13.5526 14.5,16.5C 13.5987,17.2905 12.9321,18.2905 12.5,19.5C 12.5,19.8333 12.5,20.1667 12.5,20.5C 11.596,21.209 11.2627,22.209 11.5,23.5C 16.8437,23.334 22.1771,23.5006 27.5,24C 31.5738,24.1138 35.2405,25.2805 38.5,27.5C 39.07,31.4214 37.4033,33.588 33.5,34C 26.903,34.8021 20.403,35.9688 14,37.5C 11.7794,37.6068 9.94609,36.9402 8.5,35.5C 8.67158,34.5084 8.33825,33.8417 7.5,33.5C 6.72521,20.382 11.7252,10.382 22.5,3.5 Z M 20.5,9.5 C 20.3259,11.861 19.9926,14.1944 19.5,16.5C 17.8333,16.5 16.1667,16.5 14.5,16.5C 15.7805,13.5526 17.7805,11.2193 20.5,9.5 Z"/></g>
<g><path style="opacity:0.846" fill="#fe1c04" d="M 22.5,7.5 C 21.9455,11.0122 22.6122,14.0122 24.5,16.5C 24.8333,16.5 25.1667,16.5 25.5,16.5C 26.5676,17.4345 27.901,17.7678 29.5,17.5C 33.9903,16.9027 36.9903,18.5694 38.5,22.5C 30.0913,19.807 21.4247,18.807 12.5,19.5C 12.9321,18.2905 13.5987,17.2905 14.5,16.5C 16.1667,16.5 17.8333,16.5 19.5,16.5C 19.9926,14.1944 20.3259,11.861 20.5,9.5C 20.8333,8.5 21.5,7.83333 22.5,7.5 Z"/></g>
<g><path style="opacity:0.987" fill="#e7e5de" d="M 22.5,3.5 C 11.7252,10.382 6.72521,20.382 7.5,33.5C 4.47316,22.3989 7.47316,12.8989 16.5,5C 18.3453,3.87201 20.3453,3.37201 22.5,3.5 Z"/></g>
<g><path style="opacity:0.975" fill="#fcbf49" d="M 22.5,7.5 C 23.1667,7.5 23.8333,7.5 24.5,7.5C 24.5,10.5 24.5,13.5 24.5,16.5C 22.6122,14.0122 21.9455,11.0122 22.5,7.5 Z"/></g>
<g><path style="opacity:0.986" fill="#fcbd4b" d="M 20.5,2.5 C 21.4916,2.32842 22.1583,2.66175 22.5,3.5C 20.3453,3.37201 18.3453,3.87201 16.5,5C 7.47316,12.8989 4.47316,22.3989 7.5,33.5C 8.33825,33.8417 8.67158,34.5084 8.5,35.5C 7.39105,35.4431 6.39105,35.1098 5.5,34.5C 4.25714,32.0027 3.59047,29.336 3.5,26.5C 4.32619,19.513 6.82619,13.1797 11,7.5C 13.6018,4.6171 16.7685,2.95043 20.5,2.5 Z"/></g>
<g><path style="opacity:0.914" fill="#cbd9e6" d="M 24.5,7.5 C 25.9402,8.94609 26.6068,10.7794 26.5,13C 26.4857,14.3847 26.1524,15.5514 25.5,16.5C 25.1667,16.5 24.8333,16.5 24.5,16.5C 24.5,13.5 24.5,10.5 24.5,7.5 Z"/></g>
<g><path style="opacity:0.998" fill="#fdbc45" d="M 12.5,19.5 C 21.4247,18.807 30.0913,19.807 38.5,22.5C 38.5,23.5 38.5,24.5 38.5,25.5C 37.1184,24.1995 35.4517,23.3661 33.5,23C 26.3506,22.163 19.3506,21.3297 12.5,20.5C 12.5,20.1667 12.5,19.8333 12.5,19.5 Z"/></g>
<g><path style="opacity:1" fill="#ebe5d8" d="M 12.5,20.5 C 19.3506,21.3297 26.3506,22.163 33.5,23C 35.4517,23.3661 37.1184,24.1995 38.5,25.5C 38.5,26.1667 38.5,26.8333 38.5,27.5C 35.2405,25.2805 31.5738,24.1138 27.5,24C 22.1771,23.5006 16.8437,23.334 11.5,23.5C 11.2627,22.209 11.596,21.209 12.5,20.5 Z"/></g>
<g><path style="opacity:0.984" fill="#91724f" d="M 19.5,26.5 C 19.573,28.0269 18.9063,29.0269 17.5,29.5C 17.5,28.8333 17.1667,28.5 16.5,28.5C 16.2648,27.9033 15.7648,27.5699 15,27.5C 13.3566,28.3146 11.8566,29.3146 10.5,30.5C 10.3601,28.8762 11.0267,27.7096 12.5,27C 14.8098,26.5034 17.1432,26.3367 19.5,26.5 Z"/></g>
<g><path style="opacity:1" fill="#d9230e" d="M 16.5,28.5 C 14.8333,29.8333 13.1667,31.1667 11.5,32.5C 11.1667,31.8333 10.8333,31.1667 10.5,30.5C 11.8566,29.3146 13.3566,28.3146 15,27.5C 15.7648,27.5699 16.2648,27.9033 16.5,28.5 Z"/></g>
<g><path style="opacity:1" fill="#b9ac95" d="M 25.5,27.5 C 36.7447,27.9079 37.078,29.2412 26.5,31.5C 25.5,31.3333 24.5,31.1667 23.5,31C 24.305,29.8873 24.9717,28.7206 25.5,27.5 Z"/></g>
<g><path style="opacity:1" fill="#f1b84a" d="M 16.5,28.5 C 17.1667,28.5 17.5,28.8333 17.5,29.5C 16.4206,31.543 14.754,32.8763 12.5,33.5C 11.8333,33.5 11.5,33.1667 11.5,32.5C 13.1667,31.1667 14.8333,29.8333 16.5,28.5 Z"/></g>
<g><path style="opacity:0.984" fill="#d2d2cf" d="M 19.5,26.5 C 21.0281,26.5173 21.5281,27.184 21,28.5C 18.9327,31.07 16.4327,33.07 13.5,34.5C 12.8933,34.3764 12.56,34.0431 12.5,33.5C 14.754,32.8763 16.4206,31.543 17.5,29.5C 18.9063,29.0269 19.573,28.0269 19.5,26.5 Z"/></g>
</svg>
