<?xml version="1.0" standalone="no"?>
<!DOCTYPE svg PUBLIC "-//W3C//DTD SVG 20010904//EN"
 "http://www.w3.org/TR/2001/REC-SVG-20010904/DTD/svg10.dtd">
<svg version="1.0" xmlns="http://www.w3.org/2000/svg"
 width="72.000000pt" height="71.000000pt" viewBox="0 0 72.000000 71.000000"
 preserveAspectRatio="xMidYMid meet">

<g transform="translate(0.000000,71.000000) scale(0.100000,-0.100000)"
fill="#000000" stroke="none">
<path d="M0 355 l0 -355 360 0 360 0 0 355 0 355 -360 0 -360 0 0 -355z m317
203 l33 -32 32 32 33 32 97 -97 98 -97 -32 -33 -32 -33 -33 32 -33 32 -33 -32
-33 -32 -29 30 c-16 16 -32 30 -36 30 -4 0 -17 -11 -30 -25 -31 -32 -46 -31
-81 2 l-28 27 -32 -32 -32 -32 29 -30 c35 -37 42 -37 77 -3 l28 27 33 -32 32
-32 -33 -32 -32 -32 32 -33 32 -33 -32 -32 -32 -33 -100 100 -100 99 32 33 32
33 -32 32 -32 33 97 97 c54 54 100 98 102 98 3 0 20 -14 38 -32z m135 -265
l28 -27 28 27 c35 34 42 34 75 -1 l27 -28 -99 -98 -99 -99 -33 31 -34 31 35
36 34 35 -32 33 -32 33 27 27 c34 34 40 34 75 0z"/>
<path d="M306 491 l-27 -28 26 -32 c33 -39 44 -39 80 -1 l29 30 -29 30 c-36
37 -44 37 -79 1z"/>
</g>
</svg>
