<svg xmlns="http://www.w3.org/2000/svg" width="160" height="160" style="shape-rendering:geometricPrecision;text-rendering:geometricPrecision;image-rendering:optimizeQuality;fill-rule:evenodd;clip-rule:evenodd"><path style="opacity:.98" fill="#855ff1" d="M60.5-.5h34c34.627 8.627 56.294 30.294 65 65v28c-.845 1.171-1.511 2.505-2 4a52.56 52.56 0 0 1-7-1.5 70.607 70.607 0 0 0-9.5-10.5 916.674 916.674 0 0 0-2-19c-.278-.916-.778-1.583-1.5-2-11.327-31.177-33.66-46.177-67-45-.792-1.757-2.125-3.09-4-4a9.106 9.106 0 0 1-1-5 8.434 8.434 0 0 1-4-.5 24.089 24.089 0 0 1-7-6.5 362.935 362.935 0 0 0 6-3z"/><path style="opacity:.987" fill="#6e64f1" d="M54.5 2.5a24.089 24.089 0 0 0 7 6.5 8.434 8.434 0 0 0 4 .5 9.106 9.106 0 0 0 1 5c1.875.91 3.208 2.243 4 4-18.845 4.421-33.512 14.754-44 31v-4h-3v-5a24.939 24.939 0 0 1-7-.5 15.276 15.276 0 0 1-1.5-4.5c-.67-.752-1.504-1.086-2.5-1 9.64-16.296 23.64-26.963 42-32z"/><path style="opacity:.989" fill="#5868f2" d="M12.5 34.5c.996-.086 1.83.248 2.5 1a15.276 15.276 0 0 0 1.5 4.5c2.31.497 4.643.663 7 .5v5h3v4c-4.37 8.111-6.703 16.778-7 26a103.598 103.598 0 0 0-3.5 13c-2.741-1.567-3.908-3.9-3.5-7l-6-1v-3h-7v-17a430.548 430.548 0 0 1 5.5-15c1.582-4.394 4.082-8.06 7.5-11z"/><path style="opacity:1" fill="#e9e7f8" d="M70.5 18.5c33.34-1.177 55.673 13.823 67 45 3.26 19.71-.74 37.71-12 54-11.047 12.024-24.714 19.024-41 21-32.846.639-54.012-14.694-63.5-46a76.83 76.83 0 0 1-1.5-17c.297-9.222 2.63-17.889 7-26 10.488-16.246 25.155-26.579 44-31z"/><path style="opacity:.999" fill="#7d66ef" d="M109.5 89.5a40.939 40.939 0 0 1-9-.5c9.58-4.027 13.08-11.193 10.5-21.5-5.666-8.927-13.5-11.427-23.5-7.5-2.215 2.42-4.215 4.253-6 5.5 1.064-8.578 5.73-14.411 14-17.5 20.057-2.274 29.224 6.559 27.5 26.5-2.29 7.117-6.79 12.117-13.5 15z"/><path style="opacity:.99" fill="#7565ef" d="M67.5 58.5c-2.688.524-4.188 2.19-4.5 5-6.5-7.833-13.667-15-21.5-21.5 1.655-1.444 2.322-3.278 2-5.5 16.72-13.616 35.387-16.782 56-9.5 9.3 4.63 17.467 10.796 24.5 18.5 1.187 1.544 1.52 3.211 1 5-9.621-8.265-20.788-11.099-33.5-8.5-9.788 2.964-17.788 8.464-24 16.5z"/><path style="opacity:.998" fill="#6d6aee" d="M77.5 70.5c.905 8.97 5.238 15.803 13 20.5-1.634.493-3.3.66-5 .5a92.764 92.764 0 0 1-17-1c-4.144-14.668-.81-27.169 10-37.5 2.069-1.874 4.402-2.874 7-3-6.123 5.804-8.79 12.637-8 20.5z"/><path style="opacity:.984" fill="#f1f0f9" d="M109.5 89.5c1.915-.284 3.581.049 5 1-.543.06-.876.393-1 1l5 1a111.43 111.43 0 0 1 14-1c1.528.017 2.028.684 1.5 2a11.115 11.115 0 0 1-4.5 3c-8.837-.786-17.503-.786-26 0-.979 3.125-1.313 6.458-1 10-1.348 3.327-2.015 6.661-2 10-15.326.182-26.326-6.485-33-20v-3c1.983-.343 3.317.323 4 2-.237 1.291.096 2.291 1 3 5.652 7.992 13.319 12.659 23 14 1.068.934 2.401 1.268 4 1v-18h-12c-4.817-.826-9.817-1.326-15-1.5a153.509 153.509 0 0 1 13-2.5c1.7.16 3.366-.007 5-.5-7.762-4.697-12.095-11.53-13-20.5a32.477 32.477 0 0 1 2.5-9c.21 1.558.71 2.891 1.5 4 1.785-1.247 3.785-3.08 6-5.5 10-3.927 17.834-1.427 23.5 7.5 2.58 10.307-.92 17.473-10.5 21.5 2.982.498 5.982.665 9 .5z"/><path style="opacity:.997" fill="#806aed" d="M132.5 91.5a111.43 111.43 0 0 0-14 1l-5-1c.124-.607.457-.94 1-1 12.019-8.036 16.185-19.036 12.5-33 7.775 10.302 9.608 21.636 5.5 34z"/><path style="opacity:.99" fill="#6067f1" d="M43.5 36.5c.322 2.222-.345 4.056-2 5.5 7.833 6.5 15 13.667 21.5 21.5.312-2.81 1.812-4.476 4.5-5-3.647 8.985-4.814 18.318-3.5 28 .572 3.663 1.738 6.996 3.5 10 6.674 13.515 17.674 20.182 33 20 5.138.066 10.138-.6 15-2 1.69.356 2.69 1.356 3 3-6.462 7.234-14.462 11.9-24 14-4.733.277-9.4-.057-14-1a213.933 213.933 0 0 1-22-20.5 8.43 8.43 0 0 0-4-.5c.262-1.478-.071-2.811-1-4-3.158-1.74-5.492-4.24-7-7.5-4.673-.934-5.006-2.434-1-4.5a311.995 311.995 0 0 1-21-21c.548-15.098 6.881-27.098 19-36z"/><path style="opacity:1" fill="#7b6cee" d="M96.5 65.5c9.613-.25 12.613 3.916 9 12.5-6.48 3.288-10.147 1.454-11-5.5-.059-2.61.608-4.943 2-7z"/><path style="opacity:1" fill="#796eeb" d="M97.5 82.5c.11.617.444 1.117 1 1.5a18.436 18.436 0 0 1-6 .5c-3.232-.272-5.232-1.938-6-5v-12c1.805-3.987 4.805-5.487 9-4.5-6.364 4.34-7.53 9.84-3.5 16.5 1.488 1.66 3.321 2.66 5.5 3z"/><path style="opacity:1" fill="#9992eb" d="M86.5 67.5v12c-1.472-1.618-2.139-3.618-2-6-.139-2.382.528-4.382 2-6z"/><path style="opacity:.995" fill="#576af1" d="M24.5 72.5a311.995 311.995 0 0 0 21 21c-4.006 2.066-3.673 3.566 1 4.5 1.508 3.26 3.842 5.76 7 7.5.929 1.189 1.262 2.522 1 4a8.43 8.43 0 0 1 4 .5 213.933 213.933 0 0 0 22 20.5c4.6.943 9.267 1.277 14 1-31.102 7.68-53.602-2.987-67.5-32-3.292-8.937-4.125-17.937-2.5-27z"/><path style="opacity:.986" fill="#7264f0" d="M137.5 63.5c.722.417 1.222 1.084 1.5 2a916.674 916.674 0 0 1 2 19 70.607 70.607 0 0 1 9.5 10.5 52.56 52.56 0 0 0 7 1.5c-2.162 14.33-8.496 26.33-19 36-1.208-2.544-3.208-3.878-6-4 .262-1.478-.071-2.811-1-4-2.743-1.739-4.743-4.073-6-7 11.26-16.29 15.26-34.29 12-54z"/><path style="opacity:1" fill="#beb9ef" d="M97.5 82.5a8.434 8.434 0 0 1 4 .5c1.333.667 1.333 1.333 0 2-3.197.805-6.197.638-9-.5a18.436 18.436 0 0 0 6-.5c-.556-.383-.89-.883-1-1.5z"/><path style="opacity:.976" fill="#4c6af1" d="M19.5 75.5a76.83 76.83 0 0 0 1.5 17c9.488 31.306 30.654 46.639 63.5 46-4.202.793-8.535 1.626-13 2.5a66.305 66.305 0 0 1 8 8c2.474.113 4.474 1.113 6 3l-2 2c3.71.28 6.71 1.78 9 4.5v1h-27c-33.985-7.987-55.985-28.654-66-62v-20h7v3l6 1c-.408 3.1.759 5.433 3.5 7 .903-4.476 2.07-8.81 3.5-13z"/><path style="opacity:1" fill="#b4b1f4" d="M71.5 95.5h28v18c-1.599.268-2.932-.066-4-1h3v-16c-7.008-.166-14.008 0-21 .5-1.882.198-3.548.698-5 1.5-.904-.709-1.237-1.709-1-3z"/><path style="opacity:.961" fill="#6d67f0" d="M129.5 96.5c-4.438 7.894-11.105 12.894-20 15-1.765-.961-3.765-1.295-6-1v-14c8.497-.786 17.163-.786 26 0z"/><path style="opacity:1" fill="#6968ef" d="M95.5 112.5c-9.681-1.341-17.348-6.008-23-14 1.452-.802 3.118-1.302 5-1.5 6.992-.5 13.992-.666 21-.5v16h-3z"/><path style="opacity:.963" fill="#7e78e7" d="M118.5 117.5c-.31-1.644-1.31-2.644-3-3 3.458-2.721 7.125-4.888 11-6.5-1.78 3.944-4.446 7.11-8 9.5z"/><path style="opacity:1" fill="#857fea" d="M103.5 96.5v14c2.235-.295 4.235.039 6 1-5.681 3.626-8.014 1.959-7-5-.313-3.542.021-6.875 1-10z"/><path style="opacity:.982" fill="#5c67f2" d="M125.5 117.5c1.257 2.927 3.257 5.261 6 7 .929 1.189 1.262 2.522 1 4 2.792.122 4.792 1.456 6 4-3.815 5.98-8.815 10.814-15 14.5-9.526 6.1-19.86 9.934-31 11.5-2.29-2.72-5.29-4.22-9-4.5l2-2c-1.526-1.887-3.526-2.887-6-3a66.305 66.305 0 0 0-8-8c4.465-.874 8.798-1.707 13-2.5 16.286-1.976 29.953-8.976 41-21z"/></svg>