<?xml version="1.0" encoding="UTF-8"?>
<!DOCTYPE svg PUBLIC "-//W3C//DTD SVG 1.1//EN" "http://www.w3.org/Graphics/SVG/1.1/DTD/svg11.dtd">
<svg xmlns="http://www.w3.org/2000/svg" version="1.1" width="28px" height="29px" style="shape-rendering:geometricPrecision; text-rendering:geometricPrecision; image-rendering:optimizeQuality; fill-rule:evenodd; clip-rule:evenodd" xmlns:xlink="http://www.w3.org/1999/xlink">
<g><path style="opacity:0.99" fill="#f5efe7" d="M 9.5,-0.5 C 12.1667,-0.5 14.8333,-0.5 17.5,-0.5C 21.6704,1.58275 25.0038,4.58275 27.5,8.5C 27.5,12.1667 27.5,15.8333 27.5,19.5C 25.0038,23.4172 21.6704,26.4172 17.5,28.5C 14.8333,28.5 12.1667,28.5 9.5,28.5C 5.32956,26.4172 1.99622,23.4172 -0.5,19.5C -0.5,15.8333 -0.5,12.1667 -0.5,8.5C 1.99622,4.58275 5.32956,1.58275 9.5,-0.5 Z"/></g>
<g><path style="opacity:1" fill="#dda796" d="M 22.5,15.5 C 20.8333,16.8333 19.1667,18.1667 17.5,19.5C 15.1088,16.2153 12.7754,12.882 10.5,9.5C 11.1451,8.18819 12.1451,7.18819 13.5,6.5C 16.8544,9.18772 19.8544,12.1877 22.5,15.5 Z"/></g>
<g><path style="opacity:1" fill="#debaa6" d="M 10.5,9.5 C 12.7754,12.882 15.1088,16.2153 17.5,19.5C 17.3284,20.4916 17.6618,21.1583 18.5,21.5C 18.44,22.0431 18.1067,22.3764 17.5,22.5C 16.0603,21.0476 14.3936,20.0476 12.5,19.5C 14.0948,17.6262 13.7615,16.7929 11.5,17C 10.4178,18.3297 9.75115,19.8297 9.5,21.5C 2.80542,17.1715 3.13876,13.1715 10.5,9.5 Z"/></g>
<g><path style="opacity:1" fill="#706568" d="M 22.5,15.5 C 21.5849,17.7541 20.2516,19.7541 18.5,21.5C 17.6618,21.1583 17.3284,20.4916 17.5,19.5C 19.1667,18.1667 20.8333,16.8333 22.5,15.5 Z"/></g>
<g><path style="opacity:1" fill="#2d2e3a" d="M 12.5,19.5 C 11.5,20.1667 10.5,20.8333 9.5,21.5C 9.75115,19.8297 10.4178,18.3297 11.5,17C 13.7615,16.7929 14.0948,17.6262 12.5,19.5 Z"/></g>
</svg>
