<svg width="69" height="70" viewBox="0 0 69 70" fill="none" xmlns="http://www.w3.org/2000/svg">
<path d="M34.0541 70C52.8616 70 68.1081 54.7535 68.1081 35.9459C68.1081 17.1384 52.8616 1.89189 34.0541 1.89189C15.2465 1.89189 0 17.1384 0 35.9459C0 54.7535 15.2465 70 34.0541 70Z" fill="#0F172A"/>
<path d="M34.0541 68.1081C52.8616 68.1081 68.1081 52.8616 68.1081 34.054C68.1081 15.2465 52.8616 0 34.0541 0C15.2465 0 0 15.2465 0 34.054C0 52.8616 15.2465 68.1081 34.0541 68.1081Z" fill="#0F172A"/>
<path d="M39.8564 33.5511V36.346H27.9872V33.5511H39.8564ZM35.4322 28.7821V41.3886H32.4233V28.7821H35.4322Z" fill="#AD9CFF"/>
<path fill-rule="evenodd" clip-rule="evenodd" d="M33.6601 28.7821H35.4321V33.5511H39.8563V36.346H35.4321V41.3886H33.6601V36.346V33.5511V28.7821Z" fill="#B7FAF4"/>
<path d="M34 67C52.2254 67 67 52.2254 67 34C67 15.7746 52.2254 1 34 1C15.7746 1 1 15.7746 1 34C1 52.2254 15.7746 67 34 67Z" fill="#FFBA00"/>
<path d="M51.2598 50.5373C36.6271 53.4934 22.3313 44.0096 19.3574 29.4619C17.8699 22.4129 19.3976 15.3725 23.0322 9.68703C12.0118 14.7519 5.49435 26.8743 8.02192 39.3223C10.9958 53.87 25.2915 63.3538 39.9243 60.3977C47.4668 58.9202 53.5102 54.4408 57.4471 48.4564C55.4846 49.3502 53.5225 50.094 51.2598 50.5373Z" fill="#B74D00" fill-opacity="0.25"/>
<path fill-rule="evenodd" clip-rule="evenodd" d="M59.9222 46.5128L61.7194 47.7894C62.1243 48.077 62.0821 48.6909 61.6417 48.9203L55.8234 51.9517C55.3614 52.1924 54.8147 51.832 54.8538 51.3125L55.3661 44.5123C55.4049 43.9967 55.9919 43.7211 56.4134 44.0205L58.0249 45.1652C62.139 35.8154 60.6186 24.5155 53.2553 16.5274C43.4153 5.8523 26.8363 5.09919 16.0713 14.779C15.9348 14.9017 15.7237 14.8943 15.5994 14.7594L14.5022 13.5691C14.3779 13.4342 14.3874 13.2229 14.5237 13.1001C26.216 2.56567 44.2395 3.37762 54.9341 14.9799C63.047 23.7813 64.6268 36.2794 59.9222 46.5128Z" fill="white"/>
<path fill-rule="evenodd" clip-rule="evenodd" d="M8.02051 21.8877L6.22325 20.6112C5.81838 20.3236 5.86058 19.7097 6.30101 19.4802L12.1193 16.4488C12.5813 16.2081 13.128 16.5685 13.0889 17.088L12.5766 23.8882C12.5378 24.4038 11.9508 24.6794 11.5293 24.38L9.9178 23.2354C5.80368 32.5851 7.32413 43.885 14.6874 51.8732C24.5274 62.5482 41.1064 63.3013 51.8714 53.6215C52.0079 53.4988 52.219 53.5062 52.3433 53.6411L53.4405 54.8314C53.5648 54.9663 53.5553 55.1776 53.419 55.3005C41.7267 65.8349 23.7032 65.0229 13.0086 53.4207C4.89569 44.6192 3.31595 32.1211 8.02051 21.8877Z" fill="white"/>
<path d="M17.6846 42.6665H14.4787L14.4989 40.3H17.6846C18.4802 40.3 19.1511 40.1213 19.6972 39.7639C20.2433 39.3999 20.6546 38.8706 20.931 38.1761C21.2142 37.4817 21.3558 36.6423 21.3558 35.6579V34.9399C21.3558 34.1847 21.2749 33.5206 21.1131 32.9475C20.958 32.3744 20.7254 31.8924 20.4152 31.5013C20.1051 31.1103 19.7242 30.817 19.2724 30.6215C18.8207 30.4192 18.3015 30.318 17.715 30.318H14.418V27.9414H17.715C18.6993 27.9414 19.5994 28.11 20.4152 28.4471C21.2378 28.7774 21.9491 29.2528 22.5492 29.8731C23.1492 30.4933 23.6111 31.235 23.9347 32.098C24.2651 32.9543 24.4302 33.9083 24.4302 34.9601V35.6579C24.4302 36.703 24.2651 37.657 23.9347 38.52C23.6111 39.383 23.1492 40.1247 22.5492 40.7449C21.9558 41.3585 21.2445 41.8338 20.4152 42.1709C19.5927 42.5013 18.6825 42.6665 17.6846 42.6665ZM16.198 27.9414V42.6665H13.1639V27.9414H16.198Z" fill="white"/>
<path d="M31.7523 30.4596L27.7474 42.6665H24.5213L29.9926 27.9414H32.0456L31.7523 30.4596ZM35.0796 42.6665L31.0646 30.4596L30.741 27.9414H32.8142L38.3159 42.6665H35.0796ZM34.8976 37.185V39.5617H27.1204V37.185H34.8976Z" fill="white"/>
<path d="M43.5546 27.9414V42.6665H40.5307V27.9414H43.5546Z" fill="white"/>
<path d="M55.7413 34.4645V37.003H45.6481V34.4645H55.7413ZM52.0802 30.4698V41.1899H49.3193V30.4698H52.0802Z" fill="white"/>
</svg>
