<svg width="22" height="22" viewBox="0 0 24 24" fill="none" xmlns="http://www.w3.org/2000/svg">
<path d="M12.1667 23.5C18.518 23.5 23.6667 18.3513 23.6667 12C23.6667 5.64872 18.518 0.5 12.1667 0.5C5.81547 0.5 0.666748 5.64872 0.666748 12C0.666748 18.3513 5.81547 23.5 12.1667 23.5Z" fill="#FFBA00"/>
<path d="M18.1815 17.763C13.0822 18.7932 8.10039 15.4882 7.06404 10.4186C6.54564 7.9621 7.07803 5.50862 8.34462 3.52733C4.5042 5.29235 2.23296 9.51684 3.11378 13.8548C4.15013 18.9244 9.13198 22.2294 14.2313 21.1992C16.8597 20.6844 18.9657 19.1233 20.3377 17.0379C19.6538 17.3493 18.9701 17.6086 18.1815 17.763Z" fill="#B74D00" fill-opacity="0.25"/>
<path fill-rule="evenodd" clip-rule="evenodd" d="M21.2002 16.3606L21.8265 16.8054C21.9676 16.9057 21.9529 17.1196 21.7994 17.1996L19.7719 18.256C19.6109 18.3398 19.4203 18.2142 19.434 18.0332L19.6125 15.6634C19.626 15.4838 19.8306 15.3877 19.9775 15.4921L20.539 15.891C21.9728 12.6327 21.4429 8.69487 18.8769 5.91111C15.4478 2.19101 9.67029 1.92856 5.91884 5.30185C5.87129 5.3446 5.79773 5.34202 5.75439 5.295L5.37205 4.88021C5.32871 4.8332 5.33203 4.75955 5.37954 4.71675C9.45413 1.04567 15.735 1.32862 19.4619 5.37183C22.2892 8.439 22.8397 12.7944 21.2002 16.3606Z" fill="white"/>
<path fill-rule="evenodd" clip-rule="evenodd" d="M3.11327 7.77912L2.48696 7.33425C2.34586 7.23403 2.36057 7.02009 2.51405 6.94013L4.54164 5.88374C4.70264 5.79986 4.89316 5.92545 4.87952 6.10648L4.70101 8.47625C4.68748 8.65593 4.48294 8.75198 4.33603 8.64764L3.77445 8.24875C2.34074 11.507 2.8706 15.4448 5.43659 18.2286C8.86567 21.9487 14.6432 22.2111 18.3947 18.8379C18.4422 18.7951 18.5158 18.7977 18.5591 18.8447L18.9414 19.2595C18.9848 19.3065 18.9815 19.3801 18.934 19.4229C14.8594 23.094 8.57846 22.8111 4.85155 18.7679C2.02432 15.7007 1.4738 11.3453 3.11327 7.77912Z" fill="white"/>
<path d="M6.48109 15.0201H5.36387L5.37092 14.1954H6.48109C6.75834 14.1954 6.99212 14.1332 7.18244 14.0086C7.37275 13.8818 7.51608 13.6973 7.61241 13.4553C7.71109 13.2133 7.76043 12.9208 7.76043 12.5778V12.3275C7.76043 12.0644 7.73224 11.8329 7.67585 11.6332C7.62181 11.4335 7.54075 11.2655 7.43267 11.1292C7.32459 10.993 7.19183 10.8908 7.03441 10.8226C6.87699 10.7521 6.69607 10.7169 6.49166 10.7169H5.34272V9.88867H6.49166C6.8347 9.88867 7.14837 9.94741 7.43267 10.0649C7.71931 10.18 7.96719 10.3457 8.17631 10.5618C8.38542 10.778 8.54636 11.0364 8.65914 11.3372C8.77427 11.6356 8.83184 11.968 8.83184 12.3346V12.5778C8.83184 12.9419 8.77427 13.2744 8.65914 13.5752C8.54636 13.8759 8.38542 14.1343 8.17631 14.3505C7.96954 14.5643 7.72166 14.73 7.43267 14.8474C7.14602 14.9626 6.82883 15.0201 6.48109 15.0201ZM5.96301 9.88867V15.0201H4.9057V9.88867H5.96301Z" fill="white"/>
<path d="M11.3835 10.7662L9.98783 15.0201H8.86356L10.7702 9.88867H11.4857L11.3835 10.7662ZM12.543 15.0201L11.1438 10.7662L11.031 9.88867H11.7535L13.6708 15.0201H12.543ZM12.4795 13.1099V13.9382H9.76932V13.1099H12.4795Z" fill="white"/>
<path d="M15.4964 9.88867V15.0201H14.4426V9.88867H15.4964Z" fill="white"/>
<path d="M19.7432 12.1619V13.0465H16.2259V12.1619H19.7432ZM18.4674 10.7698V14.5056H17.5053V10.7698H18.4674Z" fill="white"/>
</svg>
