<svg width="69" height="70" viewBox="0 0 69 70" fill="none" xmlns="http://www.w3.org/2000/svg">
<path d="M34.0541 70C52.8616 70 68.1081 54.7535 68.1081 35.9459C68.1081 17.1384 52.8616 1.89191 34.0541 1.89191C15.2465 1.89191 0 17.1384 0 35.9459C0 54.7535 15.2465 70 34.0541 70Z" fill="#0F172A"/>
<path d="M34.0541 68.1081C52.8616 68.1081 68.1081 52.8616 68.1081 34.054C68.1081 15.2465 52.8616 0 34.0541 0C15.2465 0 0 15.2465 0 34.054C0 52.8616 15.2465 68.1081 34.0541 68.1081Z" fill="#0F172A"/>
<path d="M34.054 67.1622C52.3391 67.1622 67.1621 52.3392 67.1621 34.0541C67.1621 15.7689 52.3391 0.945953 34.054 0.945953C15.7689 0.945953 0.945923 15.7689 0.945923 34.0541C0.945923 52.3392 15.7689 67.1622 34.054 67.1622Z" fill="#524FFF"/>
<path d="M48.3164 51.0566C41.5721 49.9325 24.268 43.3608 20.7097 25.9542C18.9298 17.5199 20.6103 5.18363 20.6103 5.18363C7.42428 11.2438 -0.373991 25.7485 2.65029 40.6428C6.20859 58.0494 23.3137 69.3968 40.822 65.8598C49.8468 64.092 57.0778 58.7323 61.7884 51.5719C59.4403 52.6413 55.0608 52.1806 48.3164 51.0566Z" fill="#0192D0"/>
<path fill-rule="evenodd" clip-rule="evenodd" d="M60.1841 46.4654L61.9801 47.7411C62.3847 48.0284 62.3425 48.6419 61.9024 48.8712L56.0882 51.9005C55.6265 52.141 55.0802 51.7808 55.1193 51.2617L55.6312 44.4663C55.67 43.9511 56.2565 43.6757 56.6777 43.9749L58.2881 45.1187C62.3993 35.7755 60.88 24.4836 53.5219 16.501C43.6888 5.83348 27.1215 5.0809 16.364 14.754C16.2277 14.8765 16.0167 14.8691 15.8924 14.7343L14.796 13.5449C14.6718 13.4101 14.6813 13.1989 14.8175 13.0762C26.5016 2.54917 44.5124 3.36055 55.1995 14.9546C63.3067 23.7499 64.8853 36.2392 60.1841 46.4654Z" fill="#B7FAF4"/>
<path fill-rule="evenodd" clip-rule="evenodd" d="M8.31861 21.8575L6.52262 20.5819C6.11803 20.2945 6.16021 19.681 6.60032 19.4517L12.4145 16.4225C12.8762 16.1819 13.4225 16.5421 13.3834 17.0612L12.8715 23.8566C12.8327 24.3718 12.2462 24.6473 11.8249 24.348L10.2146 23.2042C6.10334 32.5474 7.62272 43.8393 14.9808 51.8219C24.8139 62.4894 41.3812 63.242 52.1387 53.569C52.275 53.4464 52.486 53.4538 52.6103 53.5886L53.7066 54.778C53.8309 54.9128 53.8214 55.124 53.6852 55.2467C42.0011 65.7737 23.9903 64.9624 13.3032 53.3683C5.19599 44.573 3.61736 32.0837 8.31861 21.8575Z" fill="#E4C2FF"/>
<path d="M33.8682 11.1329L34.1754 12.1772V24.0546L19.8009 34.4738L33.8682 11.1329Z" fill="#AB99FF"/>
<path d="M33.868 11.1329L47.9352 34.4738L33.868 24.2979V11.1329Z" fill="#B7FAF4"/>
<path d="M33.868 45.4524L34.0411 45.6635V56.4588L33.868 56.9646L19.7924 37.1415L33.868 45.4524Z" fill="#00C2FF"/>
<path d="M33.868 56.9644V45.4523L47.9352 37.1414L33.868 56.9644Z" fill="#E4C2FF"/>
<path d="M39.8564 33.5512V36.346H27.9872V33.5512H39.8564ZM35.4322 28.7821V41.3886H32.4233V28.7821H35.4322Z" fill="#AD9CFF"/>
<path fill-rule="evenodd" clip-rule="evenodd" d="M33.6601 28.7821H35.4321V33.5512H39.8563V36.346H35.4321V41.3886H33.6601V36.346V33.5512V28.7821Z" fill="#B7FAF4"/>
</svg>
