<?xml version="1.0" encoding="UTF-8"?>
<!DOCTYPE svg PUBLIC "-//W3C//DTD SVG 1.1//EN" "http://www.w3.org/Graphics/SVG/1.1/DTD/svg11.dtd">
<svg xmlns="http://www.w3.org/2000/svg" version="1.1" width="28px" height="29px" style="shape-rendering:geometricPrecision; text-rendering:geometricPrecision; image-rendering:optimizeQuality; fill-rule:evenodd; clip-rule:evenodd" xmlns:xlink="http://www.w3.org/1999/xlink">
<g><path style="opacity:0.889" fill="#050505" d="M 9.5,-0.5 C 12.1667,-0.5 14.8333,-0.5 17.5,-0.5C 21.6704,1.58275 25.0038,4.58275 27.5,8.5C 27.5,12.1667 27.5,15.8333 27.5,19.5C 25.0038,23.4172 21.6704,26.4172 17.5,28.5C 14.8333,28.5 12.1667,28.5 9.5,28.5C 5.32956,26.4172 1.99622,23.4172 -0.5,19.5C -0.5,15.8333 -0.5,12.1667 -0.5,8.5C 1.99622,4.58275 5.32956,1.58275 9.5,-0.5 Z"/></g>
<g><path style="opacity:1" fill="#8e8e8e" d="M 15.5,4.5 C 12.4299,4.36772 9.42994,4.70105 6.5,5.5C 6.61071,4.88258 6.94404,4.38258 7.5,4C 10.367,3.19927 13.0336,3.36594 15.5,4.5 Z"/></g>
<g><path style="opacity:1" fill="#f7f7f7" d="M 15.5,4.5 C 15.5,6.83333 15.5,9.16667 15.5,11.5C 14.1667,11.5 12.8333,11.5 11.5,11.5C 11.5,12.8333 11.5,14.1667 11.5,15.5C 10.5,15.5 9.5,15.5 8.5,15.5C 4.32915,12.8224 3.66248,9.48911 6.5,5.5C 9.42994,4.70105 12.4299,4.36772 15.5,4.5 Z"/></g>
<g><path style="opacity:1" fill="#0c0c0c" d="M 15.5,12.5 C 15.5,13.5 15.5,14.5 15.5,15.5C 14.5,15.5 13.5,15.5 12.5,15.5C 12.5,14.5 12.5,13.5 12.5,12.5C 13.5,12.5 14.5,12.5 15.5,12.5 Z"/></g>
<g><path style="opacity:1" fill="#f8f8f8" d="M 15.5,12.5 C 21.3034,12.81 23.4701,15.81 22,21.5C 21.2917,22.3805 20.4584,23.0472 19.5,23.5C 17.1667,23.5 14.8333,23.5 12.5,23.5C 12.5,21.1667 12.5,18.8333 12.5,16.5C 13.791,16.7373 14.791,16.404 15.5,15.5C 15.5,14.5 15.5,13.5 15.5,12.5 Z"/></g>
<g><path style="opacity:1" fill="#9d9d9d" d="M 15.5,11.5 C 15.5,11.8333 15.5,12.1667 15.5,12.5C 14.5,12.5 13.5,12.5 12.5,12.5C 12.5,13.5 12.5,14.5 12.5,15.5C 13.5,15.5 14.5,15.5 15.5,15.5C 14.791,16.404 13.791,16.7373 12.5,16.5C 12.5,18.8333 12.5,21.1667 12.5,23.5C 14.8333,23.5 17.1667,23.5 19.5,23.5C 17.0521,24.4731 14.3854,24.8064 11.5,24.5C 11.5,21.8333 11.5,19.1667 11.5,16.5C 10.209,16.7373 9.20895,16.404 8.5,15.5C 9.5,15.5 10.5,15.5 11.5,15.5C 11.5,14.1667 11.5,12.8333 11.5,11.5C 12.8333,11.5 14.1667,11.5 15.5,11.5 Z"/></g>
</svg>
