<?xml version="1.0" encoding="UTF-8"?>
<!DOCTYPE svg PUBLIC "-//W3C//DTD SVG 1.1//EN" "http://www.w3.org/Graphics/SVG/1.1/DTD/svg11.dtd">
<svg xmlns="http://www.w3.org/2000/svg" version="1.1" width="28px" height="29px" style="shape-rendering:geometricPrecision; text-rendering:geometricPrecision; image-rendering:optimizeQuality; fill-rule:evenodd; clip-rule:evenodd" xmlns:xlink="http://www.w3.org/1999/xlink">
<g><path style="opacity:1" fill="#fdb17c" d="M 9.5,-0.5 C 12.1667,-0.5 14.8333,-0.5 17.5,-0.5C 21.6704,1.58275 25.0038,4.58275 27.5,8.5C 27.5,12.1667 27.5,15.8333 27.5,19.5C 25.0038,23.4172 21.6704,26.4172 17.5,28.5C 14.8333,28.5 12.1667,28.5 9.5,28.5C 5.32956,26.4172 1.99622,23.4172 -0.5,19.5C -0.5,15.8333 -0.5,12.1667 -0.5,8.5C 0.970083,6.84866 2.30342,5.01533 3.5,3C 5.72738,2.05898 7.72738,0.892318 9.5,-0.5 Z"/></g>
<g><path style="opacity:1" fill="#fff2ea" d="M 8.5,1.5 C 21.2873,0.286804 26.954,5.95347 25.5,18.5C 24.2713,19.2811 22.938,19.7811 21.5,20C 22.5,20.3333 23.5,20.6667 24.5,21C 24.1667,21.3333 23.8333,21.6667 23.5,22C 16.3307,22.958 9.33074,22.6247 2.5,21C 7.5,20.6667 12.5,20.3333 17.5,20C 12.1358,19.8295 6.80246,19.3295 1.5,18.5C -0.74588,11.8559 1.58745,6.18923 8.5,1.5 Z"/></g>
<g><path style="opacity:1" fill="#fd6d53" d="M 5.5,18.5 C 10.3054,17.5128 15.3054,17.1795 20.5,17.5C 20.6309,18.3764 20.2975,19.0431 19.5,19.5C 14.8999,18.5565 10.2332,18.2232 5.5,18.5 Z"/></g>
<g><path style="opacity:1" fill="#fe9381" d="M 20.5,17.5 C 15.3054,17.1795 10.3054,17.5128 5.5,18.5C 4.95691,18.44 4.62358,18.1067 4.5,17.5C 9.98642,16.1853 15.3197,16.1853 20.5,17.5 Z"/></g>
<g><path style="opacity:1" fill="#fe7a62" d="M 5.5,12.5 C 10.4524,13.1189 15.4524,13.7856 20.5,14.5C 15.1667,15.8333 9.83333,15.8333 4.5,14.5C 4.86273,13.8165 5.19607,13.1499 5.5,12.5 Z"/></g>
<g><path style="opacity:1" fill="#feac73" d="M 10.5,7.5 C 14.3872,6.94539 17.3872,8.27873 19.5,11.5C 15.0173,12.9284 10.6839,12.7618 6.5,11C 7.73052,9.59524 9.06386,8.42857 10.5,7.5 Z"/></g>
<g><path style="opacity:1" fill="#fffbf9" d="M 5.5,24.5 C 10.6503,23.3493 15.9836,23.1826 21.5,24C 16.2836,27.1536 10.9503,27.3202 5.5,24.5 Z"/></g>
</svg>
