<svg width="69" height="70" viewBox="0 0 69 70" fill="none" xmlns="http://www.w3.org/2000/svg">
<path d="M34.0541 70C52.8616 70 68.1081 54.7535 68.1081 35.9459C68.1081 17.1384 52.8616 1.89189 34.0541 1.89189C15.2465 1.89189 0 17.1384 0 35.9459C0 54.7535 15.2465 70 34.0541 70Z" fill="#0F172A"/>
<path d="M34.0541 68.1081C52.8616 68.1081 68.1081 52.8616 68.1081 34.054C68.1081 15.2465 52.8616 0 34.0541 0C15.2465 0 0 15.2465 0 34.054C0 52.8616 15.2465 68.1081 34.0541 68.1081Z" fill="#0F172A"/>
<path d="M39.8564 33.5512V36.346H27.9872V33.5512H39.8564ZM35.4322 28.7821V41.3886H32.4233V28.7821H35.4322Z" fill="#AD9CFF"/>
<path fill-rule="evenodd" clip-rule="evenodd" d="M33.6601 28.7821H35.4321V33.5512H39.8563V36.346H35.4321V41.3886H33.6601V36.346V33.5512V28.7821Z" fill="#B7FAF4"/>
<path d="M34 67C52.2254 67 67 52.2254 67 34C67 15.7746 52.2254 1 34 1C15.7746 1 1 15.7746 1 34C1 52.2254 15.7746 67 34 67Z" fill="#0497EC"/>
<path d="M51.2598 50.5373C36.6271 53.4934 22.3313 44.0097 19.3574 29.462C17.8699 22.413 19.3976 15.3725 23.0322 9.68711C12.0118 14.7519 5.49435 26.8744 8.02192 39.3224C10.9958 53.8701 25.2915 63.3538 39.9243 60.3977C47.4668 58.9203 53.5102 54.4409 57.4471 48.4565C55.4846 49.3503 53.5225 50.0941 51.2598 50.5373Z" fill="#2479D6"/>
<path d="M32.2691 48.7838C27.8845 48.2966 24.965 45.6117 24.23 41.8981C24.0248 40.8614 24.9046 39.9955 25.9614 39.9955V39.9955C27.0183 39.9955 27.833 40.8699 28.112 41.8892C28.7674 44.2828 30.7696 45.6654 33.9701 45.6654C37.939 45.6654 40.0652 43.5392 40.0652 40.9878C40.0652 33.7587 24.3314 37.4441 24.3314 26.8131C24.3314 23.2695 27.5915 19.5841 32.2691 19.0171V16.3948C32.2691 15.4945 32.999 14.7647 33.8992 14.7647V14.7647C34.7995 14.7647 35.5293 15.4945 35.5293 16.3948V19.0171C39.2721 19.6208 42.0893 22.384 42.8423 25.9054C43.0633 26.9389 42.1851 27.8054 41.1283 27.8054V27.8054C40.0714 27.8054 39.2488 26.9274 38.9267 25.9208C38.2028 23.6584 36.1947 22.1355 33.8283 22.1355C30.2847 22.1355 28.0168 24.5452 28.0168 26.8131C28.0168 34.0422 43.7506 30.3568 43.7506 40.9878C43.7506 44.8149 40.6322 48.2168 35.5293 48.9256V51.5479C35.5293 52.4481 34.7995 53.1779 33.8992 53.1779V53.1779C32.999 53.1779 32.2691 52.4481 32.2691 51.5479V48.7838Z" fill="white"/>
<path fill-rule="evenodd" clip-rule="evenodd" d="M59.4036 45.897L61.1353 47.127C61.5254 47.4041 61.4848 47.9957 61.0604 48.2168L55.4542 51.1377C55.009 51.3696 54.4822 51.0223 54.52 50.5218L55.0135 43.9695C55.0509 43.4726 55.6165 43.2071 56.0227 43.4956L57.5754 44.5985C61.5396 35.5896 60.0746 24.7016 52.9797 17.0046C43.4984 6.71864 27.5237 5.99299 17.1511 15.32C17.0196 15.4382 16.8162 15.4311 16.6964 15.3011L15.6392 14.1542C15.5194 14.0242 15.5286 13.8206 15.6599 13.7022C26.926 3.55182 44.2925 4.33418 54.5973 15.5135C62.4145 23.9941 63.9366 36.0366 59.4036 45.897Z" fill="white"/>
<path fill-rule="evenodd" clip-rule="evenodd" d="M9.39356 22.169L7.66182 20.9389C7.2717 20.6618 7.31237 20.0703 7.73675 19.8492L13.3429 16.9283C13.7881 16.6964 14.3149 17.0436 14.2772 17.5442L13.7836 24.0965C13.7462 24.5933 13.1806 24.8589 12.7745 24.5704L11.2217 23.4675C7.25754 32.4764 8.72258 43.3644 15.8175 51.0614C25.2987 61.3473 41.2734 62.073 51.6461 52.746C51.7775 52.6278 51.9809 52.6349 52.1008 52.7649L53.1579 53.9118C53.2777 54.0418 53.2686 54.2454 53.1372 54.3637C41.8711 64.5141 24.5046 63.7318 14.1998 52.5525C6.38265 44.0718 4.8605 32.0293 9.39356 22.169Z" fill="white"/>
</svg>
