<svg width="69" height="70" viewBox="0 0 69 70" fill="none" xmlns="http://www.w3.org/2000/svg">
<path d="M34.0541 70C52.8616 70 68.1081 54.7535 68.1081 35.9459C68.1081 17.1384 52.8616 1.89189 34.0541 1.89189C15.2465 1.89189 0 17.1384 0 35.9459C0 54.7535 15.2465 70 34.0541 70Z" fill="#0F172A"/>
<path d="M34.0541 68.1081C52.8616 68.1081 68.1081 52.8616 68.1081 34.054C68.1081 15.2465 52.8616 0 34.0541 0C15.2465 0 0 15.2465 0 34.054C0 52.8616 15.2465 68.1081 34.0541 68.1081Z" fill="#0F172A"/>
<path d="M39.8564 33.5512V36.346H27.9872V33.5512H39.8564ZM35.4322 28.7821V41.3886H32.4233V28.7821H35.4322Z" fill="#AD9CFF"/>
<path fill-rule="evenodd" clip-rule="evenodd" d="M33.6601 28.7821H35.4321V33.5512H39.8563V36.346H35.4321V41.3886H33.6601V36.346V33.5512V28.7821Z" fill="#B7FAF4"/>
<path d="M34 67C52.2254 67 67 52.2254 67 34C67 15.7746 52.2254 1 34 1C15.7746 1 1 15.7746 1 34C1 52.2254 15.7746 67 34 67Z" fill="#00A298"/>
<path d="M51.2597 50.5374C36.6269 53.4935 22.3312 44.0097 19.3573 29.462C17.8697 22.413 19.3975 15.3726 23.032 9.68716C12.0117 14.752 5.49423 26.8744 8.02179 39.3224C10.9957 53.8701 25.2914 63.3539 39.9241 60.3978C47.4666 58.9204 53.51 54.4409 57.447 48.4566C55.4845 49.3503 53.5224 50.0941 51.2597 50.5374Z" fill="#2BBE91"/>
<path fill-rule="evenodd" clip-rule="evenodd" d="M59.9223 46.5131L61.7196 47.7897C62.1245 48.0773 62.0822 48.6912 61.6418 48.9207L55.8235 51.952C55.3615 52.1927 54.8148 51.8323 54.854 51.3129L55.3662 44.5127C55.405 43.9971 55.992 43.7214 56.4135 44.0209L58.025 45.1655C62.1392 35.8157 60.6187 24.5159 53.2554 16.5277C43.4154 5.85262 26.8364 5.09951 16.0714 14.7794C15.935 14.9021 15.7238 14.8946 15.5995 14.7597L14.5023 13.5695C14.378 13.4346 14.3875 13.2232 14.5238 13.1004C26.2161 2.566 44.2396 3.37795 54.9342 14.9802C63.0471 23.7816 64.6269 36.2797 59.9223 46.5131Z" fill="white"/>
<path fill-rule="evenodd" clip-rule="evenodd" d="M8.02063 21.8881L6.22338 20.6115C5.8185 20.3239 5.86071 19.71 6.30113 19.4805L12.1194 16.4492C12.5814 16.2085 13.1281 16.5689 13.089 17.0883L12.5768 23.8885C12.5379 24.4041 11.951 24.6797 11.5294 24.3803L9.91792 23.2357C5.8038 32.5855 7.32426 43.8853 14.6875 51.8735C24.5275 62.5486 41.1065 63.3017 51.8716 53.6218C52.008 53.4991 52.2191 53.5065 52.3435 53.6415L53.4406 54.8317C53.565 54.9666 53.5554 55.178 53.4191 55.3008C41.7268 65.8352 23.7033 65.0232 13.0087 53.421C4.89581 44.6195 3.31607 32.1215 8.02063 21.8881Z" fill="white"/>
<path fill-rule="evenodd" clip-rule="evenodd" d="M47.5835 20.1082H20.2273V26.7953H30.2579V36.6739H37.2489V26.7953H47.5835V20.1082ZM30.2579 53.2396V39.3244H24.2031V37.9992H30.2579H37.2489H43.4193V39.3244H37.2489V53.2396H30.2579Z" fill="white"/>
</svg>
