<svg width="23" height="23" viewBox="0 0 23 23" fill="none" xmlns="http://www.w3.org/2000/svg">
<g clip-path="url(#clip0_2606_3524)">
<path d="M11.5 23C17.8513 23 23 17.8513 23 11.5C23 5.14872 17.8513 0 11.5 0C5.14873 0 0 5.14872 0 11.5C0 17.8513 5.14873 23 11.5 23Z" fill="#50AF95"/>
<g clip-path="url(#clip1_2606_3524)">
<path fill-rule="evenodd" clip-rule="evenodd" d="M2.94329 1.11787L-1.97976 11.6845C-1.99849 11.7238 -2.00443 11.7682 -1.9967 11.8112C-1.98897 11.8542 -1.96798 11.8935 -1.93681 11.9234L11.3592 24.9423C11.3969 24.9793 11.4472 25 11.4996 25C11.5519 25 11.6022 24.9793 11.64 24.9423L24.9359 11.9243C24.9671 11.8943 24.9881 11.855 24.9958 11.812C25.0035 11.769 24.9976 11.7246 24.9789 11.6853L20.0558 1.11869C20.0399 1.0832 20.0144 1.05314 19.9822 1.03209C19.9501 1.01105 19.9127 0.999913 19.8745 1.00002H3.12624C3.08787 0.999528 3.05018 1.0104 3.01771 1.03131C2.98525 1.05222 2.9594 1.08229 2.94329 1.11787Z" fill="#50AF95"/>
<path fill-rule="evenodd" clip-rule="evenodd" d="M13.026 13.0633C12.9408 13.0702 12.5004 13.0988 11.5181 13.0988C10.7368 13.0988 10.1821 13.0733 9.9875 13.0633C6.96818 12.9191 4.71452 12.3485 4.71452 11.6653C4.71452 10.9821 6.96818 10.4123 9.9875 10.2658V12.495C10.185 12.5104 10.7503 12.5467 11.5316 12.5467C12.4692 12.5467 12.9386 12.5042 13.0232 12.4958V10.2673C16.0361 10.413 18.2848 10.9837 18.2848 11.6653C18.2848 12.3469 16.0368 12.9175 13.0232 13.0625L13.026 13.0633ZM13.026 10.0368V8.04195H17.2307V5H5.78275V8.04195H9.98679V10.036C6.56972 10.2064 4 10.9412 4 11.8218C4 12.7024 6.56972 13.4365 9.98679 13.6077V20H13.0253V13.6054C16.4345 13.4349 19 12.7009 19 11.8211C19 10.9412 16.4367 10.2072 13.0253 10.036L13.026 10.0368Z" fill="white"/>
</g>
</g>
<defs>
<clipPath id="clip0_2606_3524">
<rect width="23" height="23" rx="11.5" fill="white"/>
</clipPath>
<clipPath id="clip1_2606_3524">
<rect width="27" height="24" fill="white" transform="translate(-2 1)"/>
</clipPath>
</defs>
</svg>
