<svg width="23" height="23" viewBox="0 0 23 23" fill="none" xmlns="http://www.w3.org/2000/svg">
<g clip-path="url(#clip0_0_454)">
<path d="M11.4998 23C13.7742 23 15.9977 22.3255 17.8888 21.0619C19.78 19.7982 21.254 18.0022 22.1244 15.9008C22.9948 13.7995 23.2225 11.4872 22.7788 9.25644C22.3351 7.02565 21.2398 4.97655 19.6315 3.36825C18.0232 1.75994 15.9741 0.664674 13.7433 0.220944C11.5125 -0.222786 9.20025 0.00495223 7.0989 0.87536C4.99755 1.74577 3.20149 3.21975 1.93786 5.11092C0.674222 7.00208 -0.000241168 9.22549 -0.000241168 11.5C-0.00389257 13.0112 0.291071 14.5083 0.867707 15.9052C1.44434 17.302 2.29129 18.5712 3.35989 19.6398C4.42849 20.7084 5.69769 21.5554 7.09458 22.132C8.49148 22.7087 9.98853 23.0036 11.4998 23Z" fill="#2479D6"/>
<path d="M14.6625 13.3209C14.6625 11.6439 13.6563 11.0688 11.6439 10.8292C10.2065 10.6377 9.91919 10.2541 9.91919 9.58333C9.91919 8.91252 10.3985 8.48135 11.3566 8.48135C12.2189 8.48135 12.6987 8.76865 12.9378 9.48757C12.9629 9.55688 13.0084 9.61692 13.0684 9.65973C13.1284 9.70253 13.2 9.72607 13.2737 9.72721H14.0403C14.0846 9.72826 14.1287 9.72031 14.1699 9.70383C14.211 9.68735 14.2484 9.66268 14.2798 9.63132C14.3112 9.59996 14.3358 9.56257 14.3523 9.5214C14.3688 9.48022 14.3767 9.43614 14.3757 9.3918V9.34369C14.2829 8.82444 14.0212 8.35037 13.6313 7.99515C13.2414 7.63993 12.745 7.42346 12.2194 7.37937V6.22928C12.2194 6.03775 12.0755 5.89387 11.8359 5.84576H11.1169C10.925 5.84576 10.7815 5.98964 10.7334 6.22928V7.33126C9.29603 7.52279 8.38558 8.48135 8.38558 9.6791C8.38558 11.2604 9.34369 11.8835 11.3561 12.1232C12.6982 12.3623 13.1294 12.6501 13.1294 13.4167C13.1294 14.1832 12.4586 14.7106 11.5481 14.7106C10.3023 14.7106 9.86881 14.1832 9.7272 13.4648C9.6791 13.2732 9.53567 13.177 9.3918 13.177H8.57802C8.53369 13.176 8.4896 13.1839 8.44843 13.2004C8.40726 13.2169 8.36986 13.2416 8.3385 13.2729C8.30714 13.3043 8.28248 13.3417 8.26599 13.3828C8.24951 13.424 8.24156 13.4681 8.24262 13.5124V13.5605C8.43415 14.7583 9.20118 15.6211 10.7843 15.8607V17.0104C10.7843 17.2023 10.9277 17.3458 11.1673 17.3939H11.8862C12.0778 17.3939 12.2216 17.25 12.2693 17.0104V15.8607C13.7071 15.6211 14.6652 14.6144 14.6652 13.3191L14.6625 13.3209Z" fill="white"/>
<path d="M9.05639 18.352C5.31882 17.0104 3.40216 12.8416 4.79007 9.15217C5.50854 7.13974 7.0898 5.60614 9.05639 4.88586C9.24792 4.79009 9.34369 4.64621 9.34369 4.40657V3.73758C9.34369 3.54605 9.24792 3.40217 9.05639 3.35406C9.00828 3.35406 8.91252 3.35406 8.86441 3.40217C4.3117 4.83956 1.82089 9.67911 3.25828 14.2314C3.67586 15.5463 4.40298 16.7417 5.37851 17.7173C6.35405 18.6928 7.5495 19.4199 8.86441 19.8375C9.05639 19.9333 9.24792 19.8375 9.29603 19.646C9.34369 19.5978 9.34369 19.5502 9.34369 19.4544V18.7836C9.34369 18.6397 9.20026 18.4482 9.05639 18.352ZM14.1356 3.40399C13.9436 3.30822 13.7521 3.40399 13.7044 3.59552C13.6563 3.64363 13.6563 3.69129 13.6563 3.7875V4.4565C13.6563 4.64803 13.8002 4.83956 13.9436 4.93533C17.6812 6.27695 19.5978 10.4457 18.2099 14.1356C17.491 16.148 15.9097 17.6812 13.9436 18.4019C13.7521 18.4977 13.6563 18.6416 13.6563 18.8812V19.552C13.6563 19.7435 13.7521 19.8874 13.9436 19.9351C13.9917 19.9351 14.0875 19.9351 14.1356 19.8874C18.6874 18.4482 21.1791 13.6082 19.7431 9.05641C19.3264 7.73557 18.6002 6.53345 17.6248 5.55022C16.6493 4.56699 15.453 3.83114 14.1356 3.40399Z" fill="white"/>
</g>
<defs>
<clipPath id="clip0_0_454">
<rect width="23" height="23" fill="white"/>
</clipPath>
</defs>
</svg>
