<svg width="23" height="23" viewBox="0 0 23 23" fill="none" xmlns="http://www.w3.org/2000/svg">
<path d="M22.5 11.5C22.5 17.5751 17.5751 22.5 11.5 22.5C5.42487 22.5 0.5 17.5751 0.5 11.5C0.5 5.42486 5.42487 0.5 11.5 0.5C17.5751 0.5 22.5 5.42486 22.5 11.5Z" fill="white" stroke="#BAC0CB"/>
<g clip-path="url(#clip0_2665_3607)">
<path d="M11.4981 2L11.3779 2.43298V14.9961L11.4981 15.1233L16.9964 11.6762L11.4981 2Z" fill="#5D5D5D"/>
<path d="M11.4984 2L6 11.6762L11.4984 15.1233V9.02547V2Z" fill="#A3A3A3"/>
<path d="M11.4984 16.2275L11.4307 16.3151V20.7903L11.4984 21L17 12.7822L11.4984 16.2275Z" fill="#636362"/>
<path d="M11.4984 21V16.2275L6 12.7822L11.4984 21Z" fill="#A3A3A3"/>
<path d="M11.498 15.1232L16.9963 11.6761L11.498 9.02539V15.1232Z" fill="#434343"/>
<path d="M6 11.6761L11.4984 15.1232V9.02539L6 11.6761Z" fill="#616161"/>
</g>
<defs>
<clipPath id="clip0_2665_3607">
<rect width="11" height="19" fill="white" transform="translate(6 2)"/>
</clipPath>
</defs>
</svg>
