<?xml version="1.0" encoding="UTF-8"?>
<!DOCTYPE svg PUBLIC "-//W3C//DTD SVG 1.1//EN" "http://www.w3.org/Graphics/SVG/1.1/DTD/svg11.dtd">
<svg xmlns="http://www.w3.org/2000/svg" version="1.1" width="24px" height="25px" style="shape-rendering:geometricPrecision; text-rendering:geometricPrecision; image-rendering:optimizeQuality; fill-rule:evenodd; clip-rule:evenodd" xmlns:xlink="http://www.w3.org/1999/xlink">
<g><path style="opacity:0.901" fill="#2f3a4e" d="M 7.5,-0.5 C 10.1667,-0.5 12.8333,-0.5 15.5,-0.5C 18.7843,1.11698 21.4509,3.45031 23.5,6.5C 23.5,10.1667 23.5,13.8333 23.5,17.5C 22.0665,18.8333 20.7332,20.3333 19.5,22C 17.6854,22.7568 16.0188,23.5902 14.5,24.5C 12.5,24.5 10.5,24.5 8.5,24.5C 6.98123,23.5902 5.31456,22.7568 3.5,22C 2.26683,20.3333 0.933498,18.8333 -0.5,17.5C -0.5,13.8333 -0.5,10.1667 -0.5,6.5C 1.54906,3.45031 4.21573,1.11698 7.5,-0.5 Z"/></g>
<g><path style="opacity:1" fill="#7e9cb6" d="M 7.5,19.5 C 8.16667,18.8333 8.83333,18.1667 9.5,17.5C 10.244,20.8845 11.5774,21.2178 13.5,18.5C 16.7967,18.3683 18.4633,16.7016 18.5,13.5C 18.6621,11.4727 18.4955,9.4727 18,7.5C 15.7497,6.29206 13.583,4.95873 11.5,3.5C 9.41696,4.95873 7.25029,6.29206 5,7.5C 4.50454,9.4727 4.33788,11.4727 4.5,13.5C 4.67158,14.4916 4.33825,15.1583 3.5,15.5C 3.21614,12.2234 3.54948,9.05675 4.5,6C 10.0948,1.1816 15.2615,1.6816 20,7.5C 22.3544,15.3129 19.5211,19.9795 11.5,21.5C 9.82946,21.3318 8.49612,20.6651 7.5,19.5 Z"/></g>
<g><path style="opacity:1" fill="#3a455a" d="M 18.5,13.5 C 17.1154,12.4264 15.9487,11.0931 15,9.5C 14.6174,10.056 14.1174,10.3893 13.5,10.5C 13.6309,9.62356 13.2975,8.95689 12.5,8.5C 11.4016,9.61547 10.2349,9.61547 9,8.5C 7.49073,10.2065 5.99073,11.8732 4.5,13.5C 4.33788,11.4727 4.50454,9.4727 5,7.5C 7.25029,6.29206 9.41696,4.95873 11.5,3.5C 13.583,4.95873 15.7497,6.29206 18,7.5C 18.4955,9.4727 18.6621,11.4727 18.5,13.5 Z"/></g>
<g><path style="opacity:1" fill="#ebebee" d="M 13.5,10.5 C 12.3263,11.5137 11.6596,12.847 11.5,14.5C 10.5987,15.2905 9.93205,16.2905 9.5,17.5C 8.83333,18.1667 8.16667,18.8333 7.5,19.5C 6.59603,18.791 6.26269,17.791 6.5,16.5C 4.80407,18.129 3.80407,17.7957 3.5,15.5C 4.33825,15.1583 4.67158,14.4916 4.5,13.5C 5.99073,11.8732 7.49073,10.2065 9,8.5C 10.2349,9.61547 11.4016,9.61547 12.5,8.5C 13.2975,8.95689 13.6309,9.62356 13.5,10.5 Z"/></g>
<g><path style="opacity:1" fill="#7d838f" d="M 6.5,16.5 C 6.46141,15.2438 6.96141,14.2438 8,13.5C 8.5847,14.9976 8.0847,15.9976 6.5,16.5 Z"/></g>
<g><path style="opacity:1" fill="#3087c8" d="M 18.5,13.5 C 18.4633,16.7016 16.7967,18.3683 13.5,18.5C 12.8333,17.1667 12.1667,15.8333 11.5,14.5C 11.6596,12.847 12.3263,11.5137 13.5,10.5C 14.1174,10.3893 14.6174,10.056 15,9.5C 15.9487,11.0931 17.1154,12.4264 18.5,13.5 Z"/></g>
<g><path style="opacity:1" fill="#30394d" d="M 11.5,14.5 C 12.1667,15.8333 12.8333,17.1667 13.5,18.5C 11.5774,21.2178 10.244,20.8845 9.5,17.5C 9.93205,16.2905 10.5987,15.2905 11.5,14.5 Z"/></g>
</svg>
