<svg width="40" height="40" viewBox="0 0 40 40" fill="none" xmlns="http://www.w3.org/2000/svg">
<g clip-path="url(#clip0_1282_735)">
<path d="M20 40C31.0457 40 40 31.0457 40 20C40 8.9543 31.0457 0 20 0C8.95431 0 0 8.9543 0 20C0 31.0457 8.95431 40 20 40Z" fill="#524FFF"/>
<path d="M28.6155 30.271C24.5414 29.5919 14.0882 25.6221 11.9387 15.1071C10.8635 10.0121 11.8787 2.55995 11.8787 2.55995C3.91328 6.22079 -0.797511 14.9828 1.0294 23.9802C3.1789 34.4952 13.5118 41.35 24.0882 39.2133C29.5399 38.1454 33.9081 34.9077 36.7537 30.5823C35.3352 31.2283 32.6896 30.95 28.6155 30.271Z" fill="#0192D0"/>
<path fill-rule="evenodd" clip-rule="evenodd" d="M35.7846 27.4976L36.8695 28.2682C37.114 28.4418 37.0885 28.8124 36.8226 28.9509L33.3104 30.7808C33.0315 30.9261 32.7014 30.7086 32.7251 30.395L33.0343 26.29C33.0577 25.9788 33.412 25.8124 33.6665 25.9931L34.6393 26.6841C37.1228 21.0401 36.205 14.2188 31.7601 9.3967C25.8201 2.95263 15.8121 2.49801 9.31372 8.34132C9.23136 8.41538 9.10392 8.41091 9.02885 8.32947L8.36654 7.61096C8.29147 7.52952 8.29723 7.40195 8.37952 7.32781C15.4377 0.96864 26.3176 1.45878 32.7735 8.46255C37.6709 13.7756 38.6246 21.3202 35.7846 27.4976Z" fill="#B7FAF4"/>
<path fill-rule="evenodd" clip-rule="evenodd" d="M4.45366 12.6324L3.36874 11.8618C3.12433 11.6882 3.14981 11.3176 3.41568 11.1791L6.92793 9.34916C7.20682 9.20386 7.53684 9.42141 7.51322 9.735L7.204 13.84C7.18055 14.1512 6.82624 14.3176 6.57177 14.1369L5.59898 13.4459C3.11546 19.0899 4.03329 25.9112 8.47818 30.7333C14.4181 37.1774 24.4262 37.632 30.9246 31.7887C31.0069 31.7146 31.1344 31.7191 31.2094 31.8005L31.8717 32.5191C31.9468 32.6005 31.9411 32.7281 31.8588 32.8022C24.8006 39.1614 13.9206 38.6712 7.46476 31.6675C2.56734 26.3544 1.61372 18.8098 4.45366 12.6324Z" fill="#E4C2FF"/>
<path d="M19.8876 6.15381L20.0732 6.78469V13.9596L11.3899 20.2536L19.8876 6.15381Z" fill="#AB99FF"/>
<path d="M19.8875 6.15381L28.3853 20.2536L19.8875 14.1066V6.15381Z" fill="#B7FAF4"/>
<path d="M19.8876 26.8856L19.9922 27.0131V33.5343L19.8876 33.8399L11.3848 21.8651L19.8876 26.8856Z" fill="#00C2FF"/>
<path d="M19.8875 33.8399V26.8856L28.3853 21.8651L19.8875 33.8399Z" fill="#E4C2FF"/>
<path d="M23.5049 19.6963V21.3847H16.335V19.6963H23.5049ZM20.8323 16.8154V24.4308H19.0147V16.8154H20.8323Z" fill="#AD9CFF"/>
<path fill-rule="evenodd" clip-rule="evenodd" d="M19.7618 16.8154H20.8323V19.6963H23.5049V21.3847H20.8323V24.4308H19.7618V21.3847V19.6963V16.8154Z" fill="#B7FAF4"/>
</g>
<defs>
<clipPath id="clip0_1282_735">
<rect width="40" height="40" rx="20" fill="white"/>
</clipPath>
</defs>
</svg>
