<svg width="69" height="70" viewBox="0 0 69 70" fill="none" xmlns="http://www.w3.org/2000/svg">
<path d="M34.0541 70.0002C52.8616 70.0002 68.1081 54.7537 68.1081 35.9461C68.1081 17.1386 52.8616 1.89209 34.0541 1.89209C15.2465 1.89209 0 17.1386 0 35.9461C0 54.7537 15.2465 70.0002 34.0541 70.0002Z" fill="#0F172A"/>
<path d="M34.0541 68.1081C52.8616 68.1081 68.1081 52.8616 68.1081 34.054C68.1081 15.2465 52.8616 0 34.0541 0C15.2465 0 0 15.2465 0 34.054C0 52.8616 15.2465 68.1081 34.0541 68.1081Z" fill="#0F172A"/>
<path d="M39.8565 33.5513V36.3462H27.9873V33.5513H39.8565ZM35.4323 28.7822V41.3888H32.4234V28.7822H35.4323Z" fill="#AD9CFF"/>
<path fill-rule="evenodd" clip-rule="evenodd" d="M33.6602 28.7822H35.4323V33.5513H39.8564V36.3462H35.4323V41.3888H33.6602V36.3462V33.5513V28.7822Z" fill="#B7FAF4"/>
<path d="M34 67C52.2254 67 67 52.2254 67 34C67 15.7746 52.2254 1 34 1C15.7746 1 1 15.7746 1 34C1 52.2254 15.7746 67 34 67Z" fill="#004CA8"/>
<path d="M51.2599 50.5374C36.6272 53.4935 22.3315 44.0098 19.3576 29.4621C17.87 22.413 19.3977 15.3726 23.0323 9.68717C12.0119 14.752 5.49447 26.8745 8.02204 39.3224C10.9959 53.8702 25.2917 63.3539 39.9244 60.3978C47.4669 58.9204 53.5103 54.4409 57.4472 48.4566C55.4847 49.3503 53.5227 50.0942 51.2599 50.5374Z" fill="#002C7F"/>
<path d="M32.2691 48.7837C27.8845 48.2966 24.965 45.6117 24.23 41.898C24.0248 40.8613 24.9046 39.9955 25.9614 39.9955V39.9955C27.0183 39.9955 27.833 40.8699 28.112 41.8892C28.7674 44.2827 30.7696 45.6653 33.9701 45.6653C37.939 45.6653 40.0652 43.5391 40.0652 40.9877C40.0652 33.7586 24.3314 37.444 24.3314 26.8131C24.3314 23.2694 27.5915 19.584 32.2691 19.017V16.3947C32.2691 15.4945 32.999 14.7646 33.8992 14.7646V14.7646C34.7995 14.7646 35.5293 15.4945 35.5293 16.3947V19.017C39.2721 19.6207 42.0893 22.384 42.8423 25.9053C43.0633 26.9388 42.1851 27.8053 41.1283 27.8053V27.8053C40.0714 27.8053 39.2488 26.9273 38.9267 25.9207C38.2028 23.6583 36.1947 22.1355 33.8283 22.1355C30.2847 22.1355 28.0168 24.5451 28.0168 26.8131C28.0168 34.0421 43.7506 30.3567 43.7506 40.9877C43.7506 44.8148 40.6322 48.2168 35.5293 48.9255V51.5478C35.5293 52.4481 34.7995 53.1779 33.8992 53.1779V53.1779C32.999 53.1779 32.2691 52.4481 32.2691 51.5478V48.7837Z" fill="white"/>
<path fill-rule="evenodd" clip-rule="evenodd" d="M59.4036 45.8969L61.1353 47.127C61.5254 47.4041 61.4848 47.9956 61.0604 48.2167L55.4542 51.1376C55.009 51.3695 54.4822 51.0222 54.52 50.5217L55.0135 43.9694C55.0509 43.4726 55.6165 43.207 56.0227 43.4955L57.5754 44.5984C61.5396 35.5895 60.0746 24.7015 52.9797 17.0045C43.4984 6.71857 27.5237 5.99291 17.1511 15.3199C17.0196 15.4381 16.8162 15.431 16.6964 15.301L15.6392 14.1541C15.5194 14.0241 15.5286 13.8205 15.6599 13.7022C26.926 3.55175 44.2925 4.3341 54.5973 15.5134C62.4145 23.994 63.9366 36.0366 59.4036 45.8969Z" fill="#BEE179"/>
<path fill-rule="evenodd" clip-rule="evenodd" d="M9.39356 22.1689L7.66182 20.9388C7.2717 20.6617 7.31237 20.0702 7.73675 19.8491L13.3429 16.9282C13.7881 16.6963 14.3149 17.0436 14.2772 17.5441L13.7836 24.0964C13.7462 24.5932 13.1806 24.8588 12.7745 24.5703L11.2217 23.4674C7.25754 32.4763 8.72258 43.3643 15.8175 51.0613C25.2987 61.3472 41.2734 62.0729 51.6461 52.7459C51.7775 52.6277 51.9809 52.6348 52.1008 52.7648L53.1579 53.9117C53.2777 54.0417 53.2686 54.2453 53.1372 54.3636C41.8711 64.5141 24.5046 63.7317 14.1998 52.5524C6.38265 44.0718 4.8605 32.0292 9.39356 22.1689Z" fill="#BEE179"/>
</svg>
