<?xml version="1.0" encoding="UTF-8"?>
<!DOCTYPE svg PUBLIC "-//W3C//DTD SVG 1.1//EN" "http://www.w3.org/Graphics/SVG/1.1/DTD/svg11.dtd">
<svg xmlns="http://www.w3.org/2000/svg" version="1.1" width="24px" height="25px" style="shape-rendering:geometricPrecision; text-rendering:geometricPrecision; image-rendering:optimizeQuality; fill-rule:evenodd; clip-rule:evenodd" xmlns:xlink="http://www.w3.org/1999/xlink">
<g><path style="opacity:0.804" fill="#2674ca" d="M 7.5,-0.5 C 10.1667,-0.5 12.8333,-0.5 15.5,-0.5C 17.3492,0.593015 19.0158,1.92635 20.5,3.5C 20.4431,4.60895 20.1098,5.60895 19.5,6.5C 18.1434,5.31461 16.6434,4.31461 15,3.5C 14.5,3.83333 14,4.16667 13.5,4.5C 14.3398,5.73499 15.3398,6.73499 16.5,7.5C 15.1667,7.5 13.8333,7.5 12.5,7.5C 12.2893,5.57591 11.6226,5.24258 10.5,6.5C 9.83333,6.5 9.5,6.16667 9.5,5.5C 9.52992,4.50278 9.02992,3.83611 8,3.5C 6.69736,3.9783 5.53069,4.64497 4.5,5.5C 3.79105,4.59603 2.79105,4.26269 1.5,4.5C 3.13072,2.35665 5.13072,0.689986 7.5,-0.5 Z"/></g>
<g><path style="opacity:0.91" fill="#2d77cb" d="M 1.5,4.5 C 2.79105,4.26269 3.79105,4.59603 4.5,5.5C 2.4121,9.35857 2.07877,13.3586 3.5,17.5C 2.89022,18.391 2.55688,19.391 2.5,20.5C 1.5,19.1667 0.5,17.8333 -0.5,16.5C -0.5,13.5 -0.5,10.5 -0.5,7.5C 0.40128,6.70951 1.06795,5.70951 1.5,4.5 Z"/></g>
<g><path style="opacity:0.911" fill="#2976cb" d="M 20.5,3.5 C 21.5,4.83333 22.5,6.16667 23.5,7.5C 23.5,10.5 23.5,13.5 23.5,16.5C 22.5987,17.2905 21.9321,18.2905 21.5,19.5C 20.1667,19.5 18.8333,19.5 17.5,19.5C 20.6472,15.6134 21.3138,11.2801 19.5,6.5C 20.1098,5.60895 20.4431,4.60895 20.5,3.5 Z"/></g>
<g><path style="opacity:1" fill="#2b75ca" d="M 9.5,5.5 C 9.5,6.16667 9.83333,6.5 10.5,6.5C 7.40251,10.4845 8.40251,12.9845 13.5,14C 11.7444,14.2022 10.0777,14.7022 8.5,15.5C 9.61191,16.2652 10.2786,17.2652 10.5,18.5C 10.1667,18.5 9.83333,18.5 9.5,18.5C 6.15492,17.6519 4.48826,15.4852 4.5,12C 4.54174,8.47039 6.2084,6.30372 9.5,5.5 Z"/></g>
<g><path style="opacity:1" fill="#3278cb" d="M 12.5,7.5 C 13.8333,7.5 15.1667,7.5 16.5,7.5C 18.0265,8.49189 18.6932,9.99189 18.5,12C 18.876,14.6546 17.876,16.488 15.5,17.5C 14.8333,17.5 14.5,17.1667 14.5,16.5C 14.5,14.8333 14.5,13.1667 14.5,11.5C 13.0222,11.762 11.6888,11.4287 10.5,10.5C 11.8333,10.1667 13.1667,9.83333 14.5,9.5C 13.7573,8.81815 13.0906,8.15149 12.5,7.5 Z"/></g>
<g><path style="opacity:1" fill="#d7e4f5" d="M 9.5,5.5 C 6.2084,6.30372 4.54174,8.47039 4.5,12C 4.48826,15.4852 6.15492,17.6519 9.5,18.5C 9.64945,19.552 9.48278,20.552 9,21.5C 7.0083,20.3353 5.17496,19.002 3.5,17.5C 2.07877,13.3586 2.4121,9.35857 4.5,5.5C 5.53069,4.64497 6.69736,3.9783 8,3.5C 9.02992,3.83611 9.52992,4.50278 9.5,5.5 Z"/></g>
<g><path style="opacity:1" fill="#d4e2f4" d="M 19.5,6.5 C 21.3138,11.2801 20.6472,15.6134 17.5,19.5C 13.3221,22.2963 12.6554,21.6297 15.5,17.5C 17.876,16.488 18.876,14.6546 18.5,12C 18.6932,9.99189 18.0265,8.49189 16.5,7.5C 15.3398,6.73499 14.3398,5.73499 13.5,4.5C 14,4.16667 14.5,3.83333 15,3.5C 16.6434,4.31461 18.1434,5.31461 19.5,6.5 Z"/></g>
<g><path style="opacity:1" fill="#c5d9f0" d="M 12.5,7.5 C 13.0906,8.15149 13.7573,8.81815 14.5,9.5C 13.1667,9.83333 11.8333,10.1667 10.5,10.5C 11.6888,11.4287 13.0222,11.762 14.5,11.5C 14.5,13.1667 14.5,14.8333 14.5,16.5C 13.1667,17.1667 11.8333,17.8333 10.5,18.5C 10.2786,17.2652 9.61191,16.2652 8.5,15.5C 10.0777,14.7022 11.7444,14.2022 13.5,14C 8.40251,12.9845 7.40251,10.4845 10.5,6.5C 11.6226,5.24258 12.2893,5.57591 12.5,7.5 Z"/></g>
<g><path style="opacity:0.803" fill="#2674ca" d="M 14.5,16.5 C 14.5,17.1667 14.8333,17.5 15.5,17.5C 12.6554,21.6297 13.3221,22.2963 17.5,19.5C 18.8333,19.5 20.1667,19.5 21.5,19.5C 19.8693,21.6433 17.8693,23.31 15.5,24.5C 12.8333,24.5 10.1667,24.5 7.5,24.5C 5.65084,23.407 3.98417,22.0737 2.5,20.5C 2.55688,19.391 2.89022,18.391 3.5,17.5C 5.17496,19.002 7.0083,20.3353 9,21.5C 9.48278,20.552 9.64945,19.552 9.5,18.5C 9.83333,18.5 10.1667,18.5 10.5,18.5C 11.8333,17.8333 13.1667,17.1667 14.5,16.5 Z"/></g>
</svg>
