<?xml version="1.0" encoding="UTF-8"?>
<!DOCTYPE svg PUBLIC "-//W3C//DTD SVG 1.1//EN" "http://www.w3.org/Graphics/SVG/1.1/DTD/svg11.dtd">
<svg xmlns="http://www.w3.org/2000/svg" version="1.1" width="40px" height="40px" style="shape-rendering:geometricPrecision; text-rendering:geometricPrecision; image-rendering:optimizeQuality; fill-rule:evenodd; clip-rule:evenodd" xmlns:xlink="http://www.w3.org/1999/xlink">
<g><path style="opacity:0.947" fill="#12117f" d="M 13.5,-0.5 C 17.5,-0.5 21.5,-0.5 25.5,-0.5C 32.5,1.83333 37.1667,6.5 39.5,13.5C 39.5,17.5 39.5,21.5 39.5,25.5C 37.1667,32.5 32.5,37.1667 25.5,39.5C 21.5,39.5 17.5,39.5 13.5,39.5C 6.61442,37.0703 1.94775,32.4036 -0.5,25.5C -0.5,21.5 -0.5,17.5 -0.5,13.5C 1.83333,6.5 6.5,1.83333 13.5,-0.5 Z"/></g>
<g><path style="opacity:1" fill="#2a6bec" d="M 22.5,17.5 C 22.5,17.8333 22.5,18.1667 22.5,18.5C 21.1667,19.1667 19.8333,19.8333 18.5,20.5C 14.8282,17.662 10.8282,15.3287 6.5,13.5C 7.76527,12.5207 9.0986,11.5207 10.5,10.5C 14.5172,12.8609 18.5172,15.1942 22.5,17.5 Z"/></g>
<g><path style="opacity:1" fill="#2a6beb" d="M 31.5,13.5 C 29.9382,13.7329 28.6049,14.3995 27.5,15.5C 26.1667,14.8333 24.8333,14.1667 23.5,13.5C 26.0898,10.9405 28.7565,10.9405 31.5,13.5 Z"/></g>
<g><path style="opacity:1" fill="#278ff7" d="M 6.5,13.5 C 10.8282,15.3287 14.8282,17.662 18.5,20.5C 18.5,21.8333 18.5,23.1667 18.5,24.5C 17.1667,24.1667 15.8333,23.8333 14.5,23.5C 13.6851,22.1634 12.5185,21.1634 11,20.5C 10.5017,23.8168 10.335,27.1501 10.5,30.5C 9.27935,29.9717 8.11268,29.305 7,28.5C 6.50074,23.5111 6.33407,18.5111 6.5,13.5 Z"/></g>
<g><path style="opacity:1" fill="#2790f7" d="M 23.5,13.5 C 24.8333,14.1667 26.1667,14.8333 27.5,15.5C 27.5,20.5 27.5,25.5 27.5,30.5C 24.318,29.23 22.6514,26.8967 22.5,23.5C 23.7199,21.7163 23.7199,20.0496 22.5,18.5C 22.5,18.1667 22.5,17.8333 22.5,17.5C 23.4345,16.4324 23.7678,15.099 23.5,13.5 Z"/></g>
<g><path style="opacity:1" fill="#2bbaf5" d="M 31.5,13.5 C 31.6659,18.5111 31.4993,23.5111 31,28.5C 29.8873,29.305 28.7206,29.9717 27.5,30.5C 27.5,25.5 27.5,20.5 27.5,15.5C 28.6049,14.3995 29.9382,13.7329 31.5,13.5 Z"/></g>
<g><path style="opacity:1" fill="#2ab0f2" d="M 22.5,18.5 C 23.7199,20.0496 23.7199,21.7163 22.5,23.5C 21.2794,24.0283 20.1127,24.695 19,25.5C 18.6012,25.2716 18.4346,24.9382 18.5,24.5C 18.5,23.1667 18.5,21.8333 18.5,20.5C 19.8333,19.8333 21.1667,19.1667 22.5,18.5 Z"/></g>
<g><path style="opacity:1" fill="#2ab9f5" d="M 14.5,23.5 C 15.3202,27.1834 13.9869,29.5168 10.5,30.5C 10.335,27.1501 10.5017,23.8168 11,20.5C 12.5185,21.1634 13.6851,22.1634 14.5,23.5 Z"/></g>
</svg>
