<svg width="209" height="80" viewBox="0 0 209 80" fill="none" xmlns="http://www.w3.org/2000/svg">
    <g clip-path="url(#clip0_9192_106052)">
        <circle cx="38.1101" cy="29.6296" r="29.6296" fill="#F3BA2F" fill-opacity="0.2"/>
        <path fill-rule="evenodd" clip-rule="evenodd" d="M162.889 35.5553C169.435 35.5553 174.741 30.2491 174.741 23.7035C174.741 17.1579 169.435 11.8516 162.889 11.8516C156.343 11.8516 151.037 17.1579 151.037 23.7035C151.037 30.2491 156.343 35.5553 162.889 35.5553ZM162.889 38.5183C171.071 38.5183 177.704 31.8855 177.704 23.7035C177.704 15.5215 171.071 8.88867 162.889 8.88867C154.707 8.88867 148.074 15.5215 148.074 23.7035C148.074 31.8855 154.707 38.5183 162.889 38.5183Z" fill="#707A8B"/>
        <path fill-rule="evenodd" clip-rule="evenodd" d="M162.889 74.0729C169.435 74.0729 174.741 68.7667 174.741 62.2211C174.741 55.6755 169.435 50.3692 162.889 50.3692C156.343 50.3692 151.037 55.6755 151.037 62.2211C151.037 68.7667 156.343 74.0729 162.889 74.0729ZM162.889 77.0359C171.071 77.0359 177.704 70.4031 177.704 62.2211C177.704 54.0391 171.071 47.4062 162.889 47.4062C154.707 47.4062 148.074 54.0391 148.074 62.2211C148.074 70.4031 154.707 77.0359 162.889 77.0359Z" fill="#707A8B"/>
        <path d="M12.4643 61.4806H35.6124V66.1102H12.4643V61.4806ZM17.0939 70.7399H30.9828V75.3695H17.0939V70.7399ZM24.0383 10.5547C17.8991 10.5547 12.0112 12.9935 7.67012 17.3346C3.329 21.6757 0.890182 27.5636 0.890182 33.7028C0.733641 37.067 1.37808 40.4203 2.7705 43.4869C4.16291 46.5534 6.26349 49.2455 8.89944 51.3417C11.2143 53.4945 12.4643 54.7214 12.4643 56.851H17.0939C17.0939 52.5917 14.5244 50.2075 12.0244 47.9158C9.86092 46.259 8.13664 44.097 7.00264 41.6191C5.86863 39.1413 5.35949 36.4231 5.51981 33.7028C5.51981 28.7914 7.47086 24.0812 10.9438 20.6083C14.4167 17.1354 19.1269 15.1843 24.0383 15.1843C28.9497 15.1843 33.66 17.1354 37.1329 20.6083C40.6058 24.0812 42.5568 28.7914 42.5568 33.7028C42.7145 36.4251 42.2018 39.1446 41.0637 41.6226C39.9256 44.1006 38.1968 46.2615 36.0291 47.9158C33.5522 50.2306 30.9828 52.5454 30.9828 56.851H35.6124C35.6124 54.7214 36.8393 53.4945 39.1772 51.3186C41.8113 49.2259 43.911 46.5378 45.3034 43.4753C46.6958 40.4128 47.3412 37.0635 47.1865 33.7028C47.1865 30.663 46.5877 27.6529 45.4244 24.8444C44.2611 22.036 42.556 19.4841 40.4065 17.3346C38.257 15.1851 35.7052 13.48 32.8967 12.3167C30.0883 11.1534 27.0782 10.5547 24.0383 10.5547Z" fill="#F3BA2F"/>
        <path d="M81.8409 45.1223L92.6434 45.1223C94.6598 45.1223 96.1542 45.4284 97.1264 46.0405C98.0986 46.6527 99.0528 47.4628 99.9891 48.4711L103.068 45.3924C102.672 44.9603 102.248 44.5462 101.797 44.1501C101.347 43.754 100.87 43.3579 100.367 42.9618C101.051 42.4577 101.655 41.9442 102.178 41.4214C102.7 40.8985 103.213 40.3678 103.716 39.8291C104.976 38.4608 106.435 37.2185 108.091 36.1022C109.747 34.986 112.646 34.3918 116.787 34.3198L113.384 37.7226L116.409 40.8013L125.051 32.1593L116.409 23.5174L113.384 26.542L116.787 29.9988C111.638 30.0709 107.974 30.863 105.794 32.3754C103.615 33.8877 101.842 35.4001 100.475 36.9124C99.4309 38.0647 98.4133 39.0009 97.4224 39.7211C96.4314 40.4412 94.8384 40.8013 92.6434 40.8013L81.8409 40.8013L81.8409 45.1223ZM111.71 55.4927C112.43 55.6367 113.222 55.7361 114.086 55.7908C114.95 55.8456 115.851 55.8902 116.787 55.9248L113.384 59.3816L116.409 62.4063L125.051 53.7643L116.409 45.1223L113.384 48.201L116.733 51.6038C115.977 51.6038 115.265 51.5678 114.598 51.4958C113.931 51.4237 113.311 51.3517 112.736 51.2797L111.71 55.4927ZM102.204 50.8476C102.96 51.5678 103.842 52.2613 104.85 52.9282C105.858 53.595 107.101 54.1798 108.577 54.6825L109.603 50.5235C108.631 50.1635 107.803 49.7494 107.119 49.2813C106.435 48.8131 105.822 48.309 105.282 47.7689L102.204 50.8476Z" fill="#707A8B"/>
    </g>
    <defs>
        <clipPath id="clip0_9192_106052">
            <rect width="209" height="80" fill="white"/>
        </clipPath>
    </defs>
</svg>
