<svg width="209" height="85" viewBox="0 0 209 85" fill="none" xmlns="http://www.w3.org/2000/svg">
    <g clip-path="url(#clip0_9192_106066)">
        <rect x="10" y="9" width="60.8" height="60.8" rx="16" fill="#22ABAC" fill-opacity="0.2"/>
        <path d="M41.6667 46.75C43.0389 46.75 44.1736 46.3014 45.0708 45.4042C45.9681 44.507 46.4167 43.3722 46.4167 42C46.4167 40.6278 45.9681 39.4931 45.0708 38.5958C44.1736 37.6986 43.0389 37.25 41.6667 37.25C40.2944 37.25 39.1597 37.6986 38.2625 38.5958C37.3653 39.4931 36.9167 40.6278 36.9167 42C36.9167 43.3722 37.3653 44.507 38.2625 45.4042C39.1597 46.3014 40.2944 46.75 41.6667 46.75ZM6.83334 70.5C5.09167 70.5 3.60017 69.8793 2.35884 68.638C1.1175 67.3967 0.497894 65.9062 0.500005 64.1667V19.8333C0.500005 18.0917 1.12067 16.6002 2.36201 15.3588C3.60334 14.1175 5.09378 13.4979 6.83334 13.5H51.1667C52.9083 13.5 54.3998 14.1207 55.6412 15.362C56.8825 16.6033 57.5021 18.0938 57.5 19.8333V27.75H51.1667V19.8333H6.83334V64.1667H51.1667V56.25H57.5V64.1667C57.5 65.9083 56.8793 67.3998 55.638 68.6412C54.3967 69.8825 52.9062 70.5021 51.1667 70.5H6.83334ZM32.1667 57.8333C30.425 57.8333 28.9335 57.2127 27.6922 55.9713C26.4508 54.73 25.8312 53.2396 25.8333 51.5V32.5C25.8333 30.7583 26.454 29.2668 27.6953 28.0255C28.9367 26.7842 30.4271 26.1646 32.1667 26.1667H54.3333C56.075 26.1667 57.5665 26.7873 58.8078 28.0287C60.0492 29.27 60.6688 30.7605 60.6667 32.5V51.5C60.6667 53.2417 60.046 54.7332 58.8047 55.9745C57.5633 57.2158 56.0729 57.8355 54.3333 57.8333H32.1667ZM54.3333 51.5V32.5H32.1667V51.5H54.3333Z" fill="#22ABAC"/>
        <path d="M120.594 34.9502L111.727 26.0835L111.727 32.7335L96.2104 32.7335L96.2104 37.1668L111.727 37.1668L111.727 43.8168M89.5604 50.4668L105.077 50.4668L105.077 46.0335L89.5604 46.0335L89.5604 39.3835L80.6937 48.2502L89.5604 57.1168L89.5604 50.4668Z" fill="#707A8B"/>
        <path d="M165.131 79.6985C186.034 79.6985 202.98 62.7528 202.98 41.8493C202.98 20.9457 186.034 4 165.131 4C144.227 4 127.281 20.9457 127.281 41.8493C127.281 62.7528 144.227 79.6985 165.131 79.6985Z" stroke="#707A8B" stroke-width="4"/>
        <path d="M167.392 39.8666C163.175 38.469 161.138 37.5925 161.138 35.3658C161.138 32.9496 163.768 32.0731 165.426 32.0731C168.529 32.0731 169.666 34.4183 169.927 35.2474L173.669 33.6603C173.314 32.5943 171.727 29.1121 167.653 28.3541V25.4167H162.915V28.4015C157.04 29.728 157.016 35.1763 157.016 35.4132C157.016 40.7904 162.346 42.3065 164.952 43.254C168.695 44.5806 170.353 45.7887 170.353 48.0628C170.353 50.7395 167.866 51.8766 165.663 51.8766C161.351 51.8766 160.12 47.4469 159.978 46.9257L156.045 48.5128C157.538 53.7006 161.446 55.0982 162.915 55.5246V58.5804H167.653V55.643C168.6 55.4298 174.522 54.2454 174.522 48.0154C174.522 44.7227 173.077 41.8327 167.392 39.8666ZM143.964 63.318H139.227V49.105H153.44V53.8427H147.565C151.379 59.5516 157.893 63.318 165.284 63.318C170.938 63.318 176.361 61.0719 180.359 57.0737C184.357 53.0755 186.603 47.6528 186.603 41.9986H191.341C191.341 56.401 179.686 68.0557 165.284 68.0557C156.472 68.0557 148.678 63.6734 143.964 56.9933V63.318ZM139.227 41.9986C139.227 27.5961 150.881 15.9414 165.284 15.9414C174.096 15.9414 181.889 20.3237 186.603 27.0038V20.6791H191.341V34.8921H177.128V30.1544H183.003C179.189 24.4455 172.674 20.6791 165.284 20.6791C159.629 20.6791 154.207 22.9252 150.209 26.9234C146.21 30.9216 143.964 36.3443 143.964 41.9986H139.227Z" fill="#707A8B"/>
    </g>
    <defs>
        <clipPath id="clip0_9192_106066">
            <rect width="209" height="85" fill="white"/>
        </clipPath>
    </defs>
</svg>
