<svg width="210" height="80" viewBox="0 0 210 80" fill="none" xmlns="http://www.w3.org/2000/svg">
    <g clip-path="url(#clip0_9192_106042)">
        <path d="M40.9264 66.6653C59.3355 66.6653 74.259 51.7417 74.259 33.3326C74.259 14.9235 59.3355 0 40.9264 0C22.5173 0 7.59375 14.9235 7.59375 33.3326C7.59375 51.7417 22.5173 66.6653 40.9264 66.6653Z" fill="#1C95E7" fill-opacity="0.2"/>
        <path d="M34.6068 40.3624C29.4698 38.6597 26.9879 37.5919 26.9879 34.8791C26.9879 31.9354 30.1913 30.8676 32.2115 30.8676C35.9921 30.8676 37.3773 33.7247 37.6948 34.7348L42.2546 32.8012C41.8217 31.5025 39.8881 27.2602 34.9243 26.3367V22.7581H29.1524V26.3944C21.9953 28.0105 21.9664 34.6482 21.9664 34.9368C21.9664 41.4879 28.4598 43.3349 31.6343 44.4893C36.1941 46.1054 38.2142 47.5772 38.2142 50.3477C38.2142 53.6088 35.184 54.9941 32.5001 54.9941C27.2477 54.9941 25.747 49.5974 25.5738 48.9625L20.7832 50.8961C22.6013 57.2163 27.3631 58.919 29.1524 59.4384V63.1613H34.9243V59.5827C36.0787 59.323 43.2935 57.88 43.2935 50.29C43.2935 46.2786 41.5331 42.7577 34.6068 40.3624ZM6.06485 68.9332H0.292969V51.6175H17.6086V57.3894H10.4515C15.0979 64.3446 23.0342 68.9332 32.0383 68.9332C38.9269 68.9332 45.5334 66.1967 50.4044 61.3257C55.2753 56.4548 58.0118 49.8483 58.0118 42.9597H63.7837C63.7837 60.5062 49.5849 74.7051 32.0383 74.7051C21.3026 74.7051 11.8079 69.3661 6.06485 61.2277V68.9332ZM0.292969 42.9597C0.292969 25.4132 14.4918 11.2144 32.0383 11.2144C42.774 11.2144 52.2688 16.5533 58.0118 24.6917V16.9862H63.7837V34.3019H46.468V28.53H53.6252C48.9788 21.5749 41.0425 16.9862 32.0383 16.9862C25.1497 16.9862 18.5433 19.7227 13.6723 24.5937C8.80134 29.4647 6.06485 36.0711 6.06485 42.9597H0.292969Z" fill="#1C95E7"/>
        <path d="M119.184 36.4811L110.542 27.8394L110.542 34.3207L95.4187 34.3207L95.4187 38.6416L110.542 38.6416L110.542 45.1229M88.9373 51.6043L104.06 51.6043L104.06 47.2834L88.9373 47.2834L88.9373 40.802L80.2955 49.4438L88.9373 58.0856L88.9373 51.6043Z" fill="#707A8B"/>
        <path fill-rule="evenodd" clip-rule="evenodd" d="M163.435 74.8171C181.026 74.8171 195.286 60.5569 195.286 42.9659C195.286 25.375 181.026 11.1148 163.435 11.1148C145.844 11.1148 131.584 25.375 131.584 42.9659C131.584 60.5569 145.844 74.8171 163.435 74.8171ZM163.435 80.0022C183.889 80.0022 200.471 63.4205 200.471 42.9659C200.471 22.5114 183.889 5.92969 163.435 5.92969C142.98 5.92969 126.398 22.5114 126.398 42.9659C126.398 63.4205 142.98 80.0022 163.435 80.0022Z" fill="#707A8B"/>
    </g>
    <defs>
        <clipPath id="clip0_9192_106042">
            <rect width="210" height="80" fill="white"/>
        </clipPath>
    </defs>
</svg>
