<svg width="130" height="130" viewBox="0 0 130 130" fill="none" xmlns="http://www.w3.org/2000/svg">
<g clip-path="url(#clip0_10786_63496)">
<path d="M65 130C100.899 130 130 100.898 130 65C130 29.1015 100.899 0 65 0C29.1015 0 0 29.1015 0 65C0 100.898 29.1015 130 65 130Z" fill="url(#paint0_radial_10786_63496)"/>
<path d="M93.0009 98.3805C79.76 96.1736 45.7874 83.2716 38.8015 49.0979C35.3071 32.5391 38.6065 8.31967 38.6065 8.31967C12.7188 20.2174 -2.5913 48.694 3.34616 77.9354C10.332 112.109 43.9139 134.387 78.2874 127.443C96.0053 123.973 110.202 113.45 119.45 99.3922C114.84 101.492 106.242 100.587 93.0009 98.3805Z" fill="url(#paint1_linear_10786_63496)"/>
<path fill-rule="evenodd" clip-rule="evenodd" d="M116.3 89.367L119.826 91.8715C120.62 92.4357 120.537 93.6401 119.673 94.0903L108.258 100.038C107.352 100.51 106.279 99.8027 106.356 98.7835L107.361 85.4423C107.437 84.4308 108.589 83.8901 109.416 84.4775L112.577 86.7231C120.649 68.38 117.666 46.211 103.22 30.5391C83.9149 9.59582 51.3888 8.11831 30.2691 27.1091C30.0014 27.3497 29.5872 27.3352 29.3433 27.0705L27.1908 24.7354C26.9468 24.4707 26.9655 24.0561 27.2329 23.8151C50.1719 3.14784 85.5319 4.7408 106.513 27.5031C122.43 44.7705 125.529 69.2903 116.3 89.367Z" fill="url(#paint2_linear_10786_63496)"/>
<path fill-rule="evenodd" clip-rule="evenodd" d="M14.4739 41.0553L10.9479 38.5509C10.1536 37.9866 10.2364 36.7822 11.1005 36.332L22.5153 30.3848C23.4217 29.9126 24.4942 30.6197 24.4175 31.6388L23.4125 44.98C23.3363 45.9916 22.1848 46.5323 21.3578 45.9449L18.1962 43.6992C10.1247 62.0424 13.1077 84.2114 27.5536 99.8833C46.8585 120.827 79.3846 122.304 100.504 103.313C100.772 103.073 101.186 103.087 101.43 103.352L103.583 105.687C103.827 105.952 103.808 106.366 103.541 106.607C80.6015 127.275 45.2416 125.682 24.26 102.919C8.34338 85.6519 5.24412 61.1321 14.4739 41.0553Z" fill="url(#paint3_linear_10786_63496)"/>
<g clip-path="url(#clip1_10786_63496)">
<path d="M64.6341 20L65.2373 22.0504V45.3687L37.0164 65.8245L64.6341 20Z" fill="#CDC4F8"/>
<path d="M64.6343 20L92.252 65.8245L64.6343 45.8465V20Z" fill="#B7FAF4"/>
<path d="M64.6347 87.3783L64.9746 87.7927V108.987L64.6347 109.98L37.0006 71.0618L64.6347 87.3783Z" fill="#89AAF3"/>
<path d="M64.6343 109.98V87.3781L92.252 71.0615L64.6343 109.98Z" fill="#C7B1F6"/>
<path d="M76.3902 64.0129V69.4999H53.0879V64.0129H76.3902ZM67.7044 54.6499V79.3999H61.7971V54.6499H67.7044Z" fill="#CDC4F8"/>
<path fill-rule="evenodd" clip-rule="evenodd" d="M64.2258 54.6499H67.7048V64.0129H76.3906V69.4999H67.7048V79.3999H64.2258V69.4999V64.0129V54.6499Z" fill="#B7FAF4"/>
</g>
</g>
<defs>
<radialGradient id="paint0_radial_10786_63496" cx="0" cy="0" r="1" gradientUnits="userSpaceOnUse" gradientTransform="translate(130 -18.2) rotate(131.262) scale(162.131)">
<stop stop-color="#FBFAF5"/>
<stop offset="0.289222" stop-color="#DDD9EF"/>
<stop offset="0.57072" stop-color="#7B6CC1"/>
<stop offset="0.738019" stop-color="#1625A4"/>
</radialGradient>
<linearGradient id="paint1_linear_10786_63496" x1="21.4353" y1="108.367" x2="74.399" y2="63.2844" gradientUnits="userSpaceOnUse">
<stop stop-color="#A4DCDC"/>
<stop offset="1" stop-color="#014343" stop-opacity="0"/>
</linearGradient>
<linearGradient id="paint2_linear_10786_63496" x1="125.021" y1="89.2243" x2="56.5" y2="12" gradientUnits="userSpaceOnUse">
<stop stop-color="#B7FAF4"/>
<stop offset="1" stop-color="white" stop-opacity="0"/>
</linearGradient>
<linearGradient id="paint3_linear_10786_63496" x1="12" y1="70" x2="83.2691" y2="125.293" gradientUnits="userSpaceOnUse">
<stop stop-color="#CDC4F8"/>
<stop offset="1" stop-color="white" stop-opacity="0"/>
</linearGradient>
<clipPath id="clip0_10786_63496">
<rect width="130" height="130" rx="65" fill="white"/>
</clipPath>
<clipPath id="clip1_10786_63496">
<rect width="55.2518" height="90" fill="white" transform="matrix(-1 0 0 1 92.252 20)"/>
</clipPath>
</defs>
</svg>
