<svg width="39" height="40" viewBox="0 0 39 40" fill="none" xmlns="http://www.w3.org/2000/svg">
<path d="M19.6116 39.2718C30.3195 39.2718 39 30.5913 39 19.8833C39 9.17537 30.3195 0.494873 19.6116 0.494873C8.90364 0.494873 0.223145 9.17537 0.223145 19.8833C0.223145 30.5913 8.90364 39.2718 19.6116 39.2718Z" fill="#0F172A"/>
<path d="M29.8246 19.8832C29.8246 17.806 29.2005 15.8732 28.1316 14.2583L31.3023 11.0875L28.4508 8.23602L25.2888 11.3981C23.6651 10.3075 21.7121 9.67044 19.6132 9.67044C17.536 9.67044 15.6032 10.2945 13.9882 11.3634L10.8161 8.19269L7.96455 11.0442L11.1266 14.2063C10.036 15.8299 9.39897 17.7829 9.39897 19.8818C9.39897 21.959 10.023 23.8918 11.092 25.5068L7.92122 28.679L10.7727 31.5305L13.9348 28.3684C15.5584 29.459 17.5114 30.096 19.6103 30.096C21.6876 30.096 23.6203 29.472 25.2353 28.4031L28.4075 31.5752L31.259 28.7237L28.0969 25.5617C29.1875 23.9351 29.8246 21.9821 29.8246 19.8832ZM13.4335 19.8832C13.4335 16.4756 16.2056 13.7036 19.6132 13.7036C23.0209 13.7036 25.7929 16.4756 25.7929 19.8832C25.7929 23.2909 23.0209 26.0629 19.6132 26.0629C16.2056 26.0629 13.4335 23.2909 13.4335 19.8832Z" fill="white"/>
</svg>
