<svg width="40" height="40" viewBox="0 0 40 40" fill="none" xmlns="http://www.w3.org/2000/svg">
<path d="M20 40C31.0457 40 40 31.0457 40 20C40 8.9543 31.0457 0 20 0C8.95431 0 0 8.9543 0 20C0 31.0457 8.95431 40 20 40Z" fill="#004CA8"/>
<path d="M30.4605 30.0226C21.5922 31.8142 12.9281 26.0665 11.1257 17.2497C10.2242 12.9776 11.1501 8.71064 13.3528 5.26492C6.67384 8.33452 2.72386 15.6815 4.25572 23.2257C6.05807 32.0425 14.7222 37.7902 23.5905 35.9986C28.1617 35.1032 31.8244 32.3884 34.2104 28.7615C33.021 29.3032 31.8319 29.754 30.4605 30.0226Z" fill="#002C7F"/>
<path d="M18.951 28.9599C16.2936 28.6646 14.5242 27.0374 14.0788 24.7867C13.9544 24.1584 14.4876 23.6337 15.1281 23.6337C15.7686 23.6337 16.2624 24.1636 16.4315 24.7814C16.8287 26.232 18.0422 27.0699 19.9819 27.0699C22.3873 27.0699 23.6759 25.7813 23.6759 24.235C23.6759 19.8538 14.1402 22.0873 14.1402 15.6443C14.1402 13.4967 16.1161 11.2631 18.951 10.9195V9.33018C18.951 8.78456 19.3933 8.34225 19.9389 8.34225C20.4845 8.34225 20.9268 8.78456 20.9268 9.33018V10.9195C23.1952 11.2853 24.9026 12.96 25.359 15.0942C25.4929 15.7205 24.9607 16.2457 24.3202 16.2457C23.6797 16.2457 23.1811 15.7136 22.9859 15.1035C22.5471 13.7324 21.3301 12.8094 19.896 12.8094C17.7483 12.8094 16.3738 14.2698 16.3738 15.6443C16.3738 20.0256 25.9094 17.792 25.9094 24.235C25.9094 26.5545 24.0195 28.6163 20.9268 29.0458V30.6351C20.9268 31.1807 20.4845 31.623 19.9389 31.623C19.3933 31.623 18.951 31.1807 18.951 30.6351V28.9599Z" fill="white"/>
<path fill-rule="evenodd" clip-rule="evenodd" d="M35.3961 27.2103L36.4456 27.9558C36.6821 28.1237 36.6574 28.4822 36.4002 28.6162L33.0025 30.3865C32.7327 30.527 32.4135 30.3166 32.4363 30.0132L32.7354 26.0421C32.7581 25.741 33.1009 25.5801 33.3471 25.7549L34.2881 26.4233C36.6906 20.9634 35.8027 14.3646 31.5028 9.69975C25.7566 3.46585 16.0749 3.02606 9.78851 8.67879C9.70884 8.75043 9.58555 8.74611 9.51293 8.66732L8.87223 7.97224C8.79961 7.89346 8.80518 7.77005 8.88478 7.69833C15.7127 1.54657 26.2379 2.02072 32.4832 8.79607C37.2209 13.9358 38.1434 21.2343 35.3961 27.2103Z" fill="#BEE179"/>
<path fill-rule="evenodd" clip-rule="evenodd" d="M5.08699 12.8297L4.03745 12.0842C3.80101 11.9163 3.82566 11.5578 4.08285 11.4238L7.48055 9.65353C7.75035 9.51296 8.0696 9.72342 8.04675 10.0268L7.74762 13.9979C7.72494 14.299 7.38218 14.4599 7.13601 14.2851L6.19494 13.6166C3.79243 19.0766 4.68033 25.6754 8.98025 30.3402C14.7265 36.5741 24.4081 37.0139 30.6946 31.3612C30.7742 31.2896 30.8975 31.2939 30.9701 31.3727L31.6108 32.0677C31.6835 32.1465 31.6779 32.2699 31.5983 32.3417C24.7703 38.4934 14.2452 38.0193 7.99988 31.2439C3.26219 26.1042 2.33967 18.8057 5.08699 12.8297Z" fill="#BEE179"/>
</svg>
