<svg viewBox="0 0 24 24" fill="none" xmlns="http://www.w3.org/2000/svg">
<path fill-rule="evenodd" clip-rule="evenodd" d="M21.7383 16.7644L22.43 17.2573C22.5859 17.3683 22.5696 17.6053 22.4001 17.6939L20.1607 18.8642C19.9829 18.9572 19.7725 18.818 19.7875 18.6175L19.9847 15.9921C19.9996 15.793 20.2255 15.6866 20.3878 15.8022L21.008 16.2441C22.5915 12.6344 22.0063 8.27184 19.1723 5.1878C15.3849 1.06643 9.00382 0.775671 4.86046 4.51282C4.80794 4.56018 4.72669 4.55732 4.67882 4.50524L4.25654 4.04571C4.20868 3.99362 4.21235 3.91203 4.26481 3.86461C8.76508 -0.202456 15.7022 0.11102 19.8184 4.59036C22.941 7.98837 23.549 12.8136 21.7383 16.7644Z" fill="#687386"/>
<path fill-rule="evenodd" clip-rule="evenodd" d="M1.7617 7.25706L1.06995 6.76421C0.914121 6.65318 0.930366 6.41617 1.09988 6.32758L3.33929 5.15724C3.51711 5.06431 3.72753 5.20345 3.71247 5.40401L3.51532 8.0294C3.50037 8.22846 3.27446 8.33486 3.11221 8.21926L2.49195 7.77735C0.908463 11.3871 1.49367 15.7496 4.32774 18.8337C8.11506 22.9551 14.4962 23.2458 18.6395 19.5087C18.6921 19.4613 18.7733 19.4642 18.8212 19.5162L19.2435 19.9758C19.2913 20.0279 19.2877 20.1095 19.2352 20.1569C14.7349 24.2239 7.79784 23.9105 3.68158 19.4311C0.558987 16.0331 -0.0490415 11.2079 1.7617 7.25706Z" fill="#687386"/>
<path fill-rule="evenodd" clip-rule="evenodd" d="M21.7383 16.7644L22.43 17.2573C22.5859 17.3683 22.5696 17.6053 22.4001 17.6939L20.1607 18.8642C19.9829 18.9572 19.7725 18.818 19.7875 18.6175L19.9847 15.9921C19.9996 15.793 20.2255 15.6866 20.3878 15.8022L21.008 16.2441C22.5915 12.6344 22.0063 8.27184 19.1723 5.1878C15.3849 1.06643 9.00382 0.775671 4.86046 4.51282C4.80794 4.56018 4.72669 4.55732 4.67882 4.50524L4.25654 4.04571C4.20868 3.99362 4.21235 3.91203 4.26481 3.86461C8.76508 -0.202456 15.7022 0.11102 19.8184 4.59036C22.941 7.98837 23.549 12.8136 21.7383 16.7644Z" stroke="#687386" stroke-width="0.6"/>
<path fill-rule="evenodd" clip-rule="evenodd" d="M1.7617 7.25706L1.06995 6.76421C0.914121 6.65318 0.930366 6.41617 1.09988 6.32758L3.33929 5.15724C3.51711 5.06431 3.72753 5.20345 3.71247 5.40401L3.51532 8.0294C3.50037 8.22846 3.27446 8.33486 3.11221 8.21926L2.49195 7.77735C0.908463 11.3871 1.49367 15.7496 4.32774 18.8337C8.11506 22.9551 14.4962 23.2458 18.6395 19.5087C18.6921 19.4613 18.7733 19.4642 18.8212 19.5162L19.2435 19.9758C19.2913 20.0279 19.2877 20.1095 19.2352 20.1569C14.7349 24.2239 7.79784 23.9105 3.68158 19.4311C0.558987 16.0331 -0.0490415 11.2079 1.7617 7.25706Z" stroke="#687386" stroke-width="0.6"/>
<rect x="11.0325" y="6.74951" width="1.43478" height="10.5217" rx="0.717391" fill="#687386"/>
<rect x="6.48901" y="12.4993" width="1.43478" height="10.5217" rx="0.717391" transform="rotate(-90 6.48901 12.4993)" fill="#687386"/>
</svg>
