<svg viewBox="0 0 21 21" fill="none" xmlns="http://www.w3.org/2000/svg">
<mask id="path-1-inside-1_2302_3259" fill="white">
<path fill-rule="evenodd" clip-rule="evenodd" d="M17.1992 3.06159H4.65678V0.0107422H17.1992C18.8841 0.0107422 20.25 1.37665 20.25 3.06159H17.1992ZM17.1992 4.07854V16.9599V20.0107C18.8841 20.0107 20.25 18.6448 20.25 16.9599V4.41752H17.1992L17.1992 4.07854ZM3.30085 16.9599L15.8433 16.9599V20.0107L16.1822 20.0107H3.30085C1.61591 20.0107 0.25 18.6448 0.25 16.9599H3.30085ZM3.30085 0.0107422V3.06159V15.604H0.25V3.06159C0.25 1.37665 1.61591 0.0107422 3.30085 0.0107422Z"/>
</mask>
<path fill-rule="evenodd" clip-rule="evenodd" d="M17.1992 3.06159H4.65678V0.0107422H17.1992C18.8841 0.0107422 20.25 1.37665 20.25 3.06159H17.1992ZM17.1992 4.07854V16.9599V20.0107C18.8841 20.0107 20.25 18.6448 20.25 16.9599V4.41752H17.1992L17.1992 4.07854ZM3.30085 16.9599L15.8433 16.9599V20.0107L16.1822 20.0107H3.30085C1.61591 20.0107 0.25 18.6448 0.25 16.9599H3.30085ZM3.30085 0.0107422V3.06159V15.604H0.25V3.06159C0.25 1.37665 1.61591 0.0107422 3.30085 0.0107422Z" fill="#687386"/>
<path d="M4.65678 3.06159H3.95678V3.76159H4.65678V3.06159ZM4.65678 0.0107422V-0.689258H3.95678V0.0107422H4.65678ZM20.25 3.06159V3.76159H20.95V3.06159H20.25ZM17.1992 4.07854L17.8992 4.07851L16.4992 4.07854H17.1992ZM17.1992 20.0107H16.4992V20.7107H17.1992V20.0107ZM20.25 4.41752H20.95V3.71752H20.25V4.41752ZM17.1992 4.41752L16.4992 4.41754L16.4992 5.11752H17.1992V4.41752ZM15.8433 16.9599H16.5433V16.2599H15.8433V16.9599ZM3.30085 16.9599V17.6599H3.30085L3.30085 16.9599ZM15.8433 20.0107H15.1433V20.7107L15.8433 20.7107L15.8433 20.0107ZM16.1822 20.0107V20.7107L16.1822 19.3107L16.1822 20.0107ZM0.25 16.9599V16.2599H-0.45V16.9599H0.25ZM3.30085 0.0107422H4.00085V-0.689258H3.30085V0.0107422ZM3.30085 15.604V16.304H4.00085V15.604H3.30085ZM0.25 15.604H-0.45V16.304H0.25V15.604ZM4.65678 3.76159H17.1992V2.36159H4.65678V3.76159ZM3.95678 0.0107422V3.06159H5.35678V0.0107422H3.95678ZM17.1992 -0.689258H4.65678V0.710742H17.1992V-0.689258ZM20.95 3.06159C20.95 0.990054 19.2707 -0.689258 17.1992 -0.689258V0.710742C18.4975 0.710742 19.55 1.76325 19.55 3.06159H20.95ZM17.1992 3.76159H20.25V2.36159H17.1992V3.76159ZM17.8992 16.9599V4.07854H16.4992V16.9599H17.8992ZM17.8992 20.0107V16.9599H16.4992V20.0107H17.8992ZM19.55 16.9599C19.55 18.2582 18.4975 19.3107 17.1992 19.3107V20.7107C19.2707 20.7107 20.95 19.0314 20.95 16.9599H19.55ZM19.55 4.41752V16.9599H20.95V4.41752H19.55ZM20.25 3.71752H17.1992V5.11752H20.25V3.71752ZM17.8992 4.41749L17.8992 4.07851L16.4992 4.07857L16.4992 4.41754L17.8992 4.41749ZM15.8433 16.2599L3.30085 16.2599L3.30085 17.6599L15.8433 17.6599V16.2599ZM16.5433 20.0107V16.9599H15.1433V20.0107H16.5433ZM16.1822 19.3107L15.8433 19.3107L15.8433 20.7107L16.1822 20.7107L16.1822 19.3107ZM3.30085 20.7107H16.1822V19.3107H3.30085V20.7107ZM-0.45 16.9599C-0.45 19.0314 1.22931 20.7107 3.30085 20.7107V19.3107C2.00251 19.3107 0.95 18.2582 0.95 16.9599H-0.45ZM3.30085 16.2599H0.25V17.6599H3.30085V16.2599ZM4.00085 3.06159V0.0107422H2.60085V3.06159H4.00085ZM4.00085 15.604V3.06159H2.60085V15.604H4.00085ZM0.25 16.304H3.30085V14.904H0.25V16.304ZM-0.45 3.06159V15.604H0.95V3.06159H-0.45ZM3.30085 -0.689258C1.22931 -0.689258 -0.45 0.990053 -0.45 3.06159H0.95C0.95 1.76325 2.00251 0.710742 3.30085 0.710742V-0.689258Z" fill="white" mask="url(#path-1-inside-1_2302_3259)"/>
<rect x="9.13037" y="5.00012" width="1.30435" height="9.56522" rx="0.652174" fill="#687386"/>
<rect x="5" y="10.2268" width="1.30435" height="9.56522" rx="0.652174" transform="rotate(-90 5 10.2268)" fill="#687386"/>
</svg>
