<svg viewBox="0 0 18 21" fill="none" xmlns="http://www.w3.org/2000/svg">
<path d="M17.2945 14.907L16.1194 13.1977C15.959 12.9653 15.8727 12.6889 15.872 12.4055V7.49983C15.872 5.65696 15.148 3.88956 13.8592 2.58646C12.5705 1.28335 10.8225 0.55127 8.99997 0.55127C7.17739 0.55127 5.42946 1.28335 4.14071 2.58646C2.85195 3.88956 2.12793 5.65696 2.12793 7.49983V12.4055C2.12727 12.6889 2.04095 12.9653 1.88054 13.1977L0.705423 14.907C0.527492 15.1063 0.410487 15.3535 0.368558 15.6187C0.326628 15.8839 0.36157 16.1556 0.469157 16.4011C0.576745 16.6466 0.75237 16.8553 0.974794 17.0021C1.19722 17.1488 1.45692 17.2272 1.72248 17.2278H5.63267C5.79039 18.0132 6.2118 18.7193 6.82548 19.2265C7.43916 19.7337 8.20738 20.0107 8.99997 20.0107C9.79256 20.0107 10.5608 19.7337 11.1745 19.2265C11.7881 18.7193 12.2095 18.0132 12.3673 17.2278H16.2774C16.543 17.2272 16.8027 17.1488 17.0251 17.0021C17.2476 16.8553 17.4232 16.6466 17.5308 16.4011C17.6384 16.1556 17.6733 15.8839 17.6314 15.6187C17.5894 15.3535 17.4724 15.1063 17.2945 14.907ZM8.99997 18.6175C8.57463 18.6163 8.16007 18.4821 7.81312 18.2333C7.46618 17.9845 7.20383 17.6333 7.06205 17.2278H10.9379C10.7961 17.6333 10.5338 17.9845 10.1868 18.2333C9.83987 18.4821 9.42531 18.6163 8.99997 18.6175ZM1.72248 15.8381C1.75354 15.809 1.78121 15.7763 1.80495 15.7408L3.00755 13.9898C3.32837 13.5251 3.50101 12.9723 3.50234 12.4055V7.49983C3.50234 6.02553 4.08155 4.61162 5.11256 3.56913C6.14356 2.52665 7.54191 1.94098 8.99997 1.94098C10.458 1.94098 11.8564 2.52665 12.8874 3.56913C13.9184 4.61162 14.4976 6.02553 14.4976 7.49983V12.4055C14.4989 12.9723 14.6716 13.5251 14.9924 13.9898L16.195 15.7408C16.2187 15.7763 16.2464 15.809 16.2774 15.8381H1.72248Z" fill="#687386"/>
</svg>
