<svg width="18" height="21" viewBox="0 0 18 21" fill="none" xmlns="http://www.w3.org/2000/svg">
<path d="M17.2948 14.907L16.1196 13.1977C15.9592 12.9653 15.8729 12.6889 15.8722 12.4055V7.49983C15.8722 5.65696 15.1482 3.88956 13.8595 2.58646C12.5707 1.28335 10.8228 0.55127 9.00021 0.55127C7.17763 0.55127 5.42971 1.28335 4.14095 2.58646C2.85219 3.88956 2.12818 5.65696 2.12818 7.49983V12.4055C2.12751 12.6889 2.04119 12.9653 1.88078 13.1977L0.705667 14.907C0.527736 15.1063 0.410732 15.3535 0.368802 15.6187C0.326873 15.8839 0.361814 16.1556 0.469401 16.4011C0.576989 16.6466 0.752614 16.8553 0.975039 17.0021C1.19746 17.1488 1.45716 17.2272 1.72273 17.2278H5.63291C5.79064 18.0132 6.21204 18.7193 6.82572 19.2265C7.4394 19.7337 8.20762 20.0107 9.00021 20.0107C9.7928 20.0107 10.561 19.7337 11.1747 19.2265C11.7884 18.7193 12.2098 18.0132 12.3675 17.2278H16.2777C16.5433 17.2272 16.803 17.1488 17.0254 17.0021C17.2478 16.8553 17.4234 16.6466 17.531 16.4011C17.6386 16.1556 17.6735 15.8839 17.6316 15.6187C17.5897 15.3535 17.4727 15.1063 17.2948 14.907ZM9.00021 18.6175C8.57487 18.6163 8.16031 18.4821 7.81337 18.2333C7.46642 17.9845 7.20408 17.6333 7.0623 17.2278H10.9381C10.7963 17.6333 10.534 17.9845 10.1871 18.2333C9.84011 18.4821 9.42555 18.6163 9.00021 18.6175ZM1.72273 15.8381C1.75379 15.809 1.78146 15.7763 1.80519 15.7408L3.0078 13.9898C3.32861 13.5251 3.50126 12.9723 3.50258 12.4055V7.49983C3.50258 6.02553 4.0818 4.61162 5.1128 3.56913C6.14381 2.52665 7.54215 1.94098 9.00021 1.94098C10.4583 1.94098 11.8566 2.52665 12.8876 3.56913C13.9186 4.61162 14.4978 6.02553 14.4978 7.49983V12.4055C14.4992 12.9723 14.6718 13.5251 14.9926 13.9898L16.1952 15.7408C16.219 15.7763 16.2466 15.809 16.2777 15.8381H1.72273Z" fill="#687386"/>
<circle cx="14.9459" cy="2.98395" r="2.3527" fill="#0497EC" stroke="#687386" stroke-width="0.7"/>
</svg>
