<svg viewBox="0 0 25 26" fill="none" xmlns="http://www.w3.org/2000/svg">
<path d="M1.27903 8.50849L1.27941 8.50821L11.9478 0.791617C11.9479 0.791563 11.948 0.791509 11.948 0.791455C12.2847 0.550504 12.7153 0.550504 13.052 0.791455C13.052 0.791509 13.0521 0.791563 13.0522 0.791617L23.7206 8.50821L23.721 8.50849C24.4379 9.02197 24.9 9.89648 24.9 10.8221V24.4945C24.8493 24.9766 24.4131 25.4107 23.8853 25.4107H15.7643C15.2359 25.4107 14.8028 24.9768 14.8028 24.4463V19.3905C14.8028 18.0582 13.7497 17.002 12.4204 17.002C11.091 17.002 10.038 18.0582 10.038 19.3905V24.4463C10.038 24.9768 9.60482 25.4107 9.07643 25.4107H1.06157C0.533186 25.4107 0.1 24.9768 0.1 24.4463V10.8221C0.1 9.89648 0.562063 9.02197 1.27903 8.50849ZM16.7259 23.4352V23.5352H16.8259H22.8769H22.9769V23.4352V10.8221C22.9769 10.5184 22.7975 10.2248 22.5654 10.0503L22.5641 10.0493L12.5323 2.75822L12.4737 2.71564L12.415 2.75801L2.3831 9.99591L2.38309 9.99589L2.38151 9.99708C2.14941 10.1716 1.97006 10.4652 1.97006 10.7689V23.382V23.482H2.07006H8.12102H8.22102V23.382V19.3905C8.22102 17.0506 10.1404 15.1264 12.4735 15.1264C14.8065 15.1264 16.7259 17.0506 16.7259 19.3905V23.4352Z" fill="#687386" stroke="white" stroke-width="0.2"/>
</svg>
