<svg viewBox="0 0 20 21" fill="none" xmlns="http://www.w3.org/2000/svg">
<g clip-path="url(#clip0_2302_3278)">
<path d="M0.625 3.53653H10.1408C10.4276 4.84196 11.5934 5.822 12.9837 5.822C14.374 5.822 15.5398 4.842 15.8266 3.53653H19.375C19.7202 3.53653 20 3.25668 20 2.91153C20 2.56637 19.7202 2.28653 19.375 2.28653H15.8263C15.5389 0.981763 14.3716 0.00109863 12.9837 0.00109863C11.5951 0.00109863 10.4283 0.981606 10.1411 2.28653H0.625C0.279844 2.28653 0 2.56637 0 2.91153C0 3.25668 0.279844 3.53653 0.625 3.53653ZM11.3233 2.91317C11.3233 2.91094 11.3234 2.90868 11.3234 2.90645C11.3261 1.99368 12.0709 1.25114 12.9837 1.25114C13.8952 1.25114 14.6401 1.99266 14.644 2.905L14.6441 2.91418C14.6427 3.82852 13.8984 4.57204 12.9837 4.57204C12.0694 4.57204 11.3254 3.82926 11.3233 2.91547L11.3233 2.91317ZM19.375 16.485H15.8263C15.5389 15.1803 14.3716 14.1996 12.9837 14.1996C11.5951 14.1996 10.4283 15.1801 10.1411 16.485H0.625C0.279844 16.485 0 16.7648 0 17.11C0 17.4552 0.279844 17.735 0.625 17.735H10.1408C10.4276 19.0404 11.5934 20.0205 12.9837 20.0205C14.374 20.0205 15.5398 19.0404 15.8266 17.735H19.375C19.7202 17.735 20 17.4552 20 17.11C20 16.7648 19.7202 16.485 19.375 16.485ZM12.9837 18.7705C12.0694 18.7705 11.3254 18.0277 11.3233 17.1139L11.3233 17.1116C11.3233 17.1094 11.3234 17.1072 11.3234 17.1049C11.3261 16.1922 12.0709 15.4496 12.9837 15.4496C13.8952 15.4496 14.6401 16.1911 14.644 17.1034L14.6441 17.1126C14.6428 18.027 13.8985 18.7705 12.9837 18.7705ZM19.375 9.38579H9.85918C9.57238 8.08036 8.4066 7.10036 7.01629 7.10036C5.62598 7.10036 4.4602 8.08036 4.1734 9.38579H0.625C0.279844 9.38579 0 9.66563 0 10.0108C0 10.356 0.279844 10.6358 0.625 10.6358H4.17371C4.46109 11.9405 5.62844 12.9212 7.01629 12.9212C8.40488 12.9212 9.57172 11.9407 9.85895 10.6358H19.375C19.7202 10.6358 20 10.356 20 10.0108C20 9.66563 19.7202 9.38579 19.375 9.38579ZM8.67668 10.0091C8.67668 10.0114 8.67664 10.0136 8.67664 10.0159C8.67391 10.9286 7.9291 11.6712 7.01629 11.6712C6.10477 11.6712 5.35992 10.9297 5.35598 10.0173L5.35586 10.0082C5.35723 9.09375 6.10156 8.35036 7.01629 8.35036C7.93059 8.35036 8.67465 9.09309 8.67672 10.0069L8.67668 10.0091Z" fill="#687386"/>
</g>
<defs>
<clipPath id="clip0_2302_3278">
<rect width="20" height="20" fill="white" transform="translate(0 0.0107422)"/>
</clipPath>
</defs>
</svg>
