<svg width="25" height="25" viewBox="0 0 25 25" fill="none" xmlns="http://www.w3.org/2000/svg">
<g clip-path="url(#clip0_2137_65938)">
<path d="M24.1119 3.44868C23.5748 3.39971 23.0997 3.79546 23.0508 4.33257L22.9214 5.75195C20.7261 2.30439 16.9154 0 12.4999 0C7.74984 0 3.56375 2.71104 1.48573 6.77998C1.24042 7.2603 1.43094 7.84854 1.91126 8.09385C2.39168 8.33916 2.97982 8.14868 3.22513 7.66831C4.98377 4.22476 8.51537 1.95313 12.4999 1.95313C16.1316 1.95313 19.409 3.84429 21.2867 6.80703L19.8942 5.81255C19.4553 5.49912 18.8454 5.60078 18.532 6.03965C18.2185 6.47857 18.3202 7.08843 18.7591 7.40191L22.9815 10.4176C23.6003 10.8587 24.4539 10.4549 24.5216 9.71157L24.9957 4.50991C25.0448 3.97275 24.6491 3.49766 24.1119 3.44868Z" fill="#0F172A"/>
<path d="M23.0886 16.9061C22.6082 16.6609 22.02 16.8514 21.7747 17.3317C20.0161 20.7752 16.4845 23.0469 12.4999 23.0469C8.86826 23.0469 5.59082 21.1557 3.71318 18.193L5.10561 19.1874C5.54453 19.5009 6.15439 19.3992 6.46787 18.9603C6.78129 18.5214 6.67963 17.9116 6.24077 17.5981L2.01836 14.5824C1.40708 14.1457 0.546626 14.5374 0.478267 15.2884L0.00409706 20.4901C-0.0448776 21.0272 0.350874 21.5023 0.887935 21.5513C1.42573 21.6001 1.90019 21.204 1.94912 20.6674L2.07851 19.248C4.27373 22.6956 8.08447 25 12.4999 25C17.25 25 21.4361 22.289 23.5141 18.22C23.7594 17.7397 23.5689 17.1515 23.0886 16.9061Z" fill="#0F172A"/>
</g>
<defs>
<clipPath id="clip0_2137_65938">
<rect width="25" height="25" fill="white"/>
</clipPath>
</defs>
</svg>
