<svg viewBox="0 0 26 27" xmlns="http://www.w3.org/2000/svg">
<path fill-rule="evenodd" clip-rule="evenodd" d="M24.4534 23.2243L21.2714 26.4063C21.0762 26.6015 20.7596 26.6015 20.5643 26.4063C20.3691 26.211 20.3691 25.8944 20.5643 25.6992L22.8927 23.3708L14.4996 23.3708L7.45009 23.3708C6.71529 23.3708 4.99207 22.9979 3.41692 21.5899C1.84042 20.1807 1.40017 18.6158 1.40017 17.9099V12.9491C1.40017 12.6729 1.62402 12.4491 1.90017 12.4491C2.17631 12.4491 2.40017 12.6729 2.40017 12.9491V17.9099C2.40017 18.3064 2.6999 19.6077 4.08335 20.8444C5.46816 22.0822 6.95157 22.3708 7.45009 22.3708L14.4996 22.3708H22.8927L20.5643 20.0423C20.3691 19.8471 20.3691 19.5305 20.5643 19.3352C20.7596 19.14 21.0762 19.14 21.2714 19.3352L24.4534 22.5172C24.6487 22.7125 24.6487 23.029 24.4534 23.2243ZM4.72836 1.14642L1.54638 4.3284C1.35111 4.52366 1.35111 4.84025 1.54638 5.03551L4.72836 8.21749C4.92362 8.41275 5.2402 8.41275 5.43546 8.21749C5.63073 8.02223 5.63073 7.70565 5.43546 7.51038L3.10704 5.18196H11.5002H18.5497C19.0482 5.18196 20.5316 5.47053 21.9164 6.70836C23.2999 7.94497 23.5996 9.24632 23.5996 9.64281V14.6037C23.5996 14.8798 23.8235 15.1037 24.0996 15.1037C24.3758 15.1037 24.5996 14.8798 24.5996 14.6037L24.5996 9.64281C24.5996 8.93689 24.1594 7.37197 22.5829 5.96279C21.0077 4.55483 19.2845 4.18196 18.5497 4.18196H11.5002H3.10704L5.43546 1.85353C5.63073 1.65827 5.63073 1.34168 5.43546 1.14642C5.2402 0.95116 4.92362 0.95116 4.72836 1.14642Z" />
<path d="M21.2714 26.4063L20.9532 26.0881L20.9532 26.0881L21.2714 26.4063ZM24.4534 23.2243L24.7716 23.5425L24.7716 23.5425L24.4534 23.2243ZM20.5643 26.4063L20.2461 26.7245V26.7245L20.5643 26.4063ZM20.5643 25.6992L20.2461 25.381V25.381L20.5643 25.6992ZM22.8927 23.3708V22.9208L23.9791 22.9208L23.2109 23.689L22.8927 23.3708ZM14.4996 23.3708L14.4996 23.8208L14.4996 23.3708ZM7.45009 23.3708V23.8208V23.3708ZM3.41692 21.5899L3.71682 21.2544L3.41692 21.5899ZM4.08335 20.8444L4.38325 20.5088V20.5089L4.08335 20.8444ZM7.45009 22.3708V22.8208V22.3708ZM14.4996 22.3708L14.4996 21.9208H14.4996V22.3708ZM22.8927 22.3708L23.2109 22.0526L23.9791 22.8208H22.8927V22.3708ZM20.5643 19.3352L20.8825 19.6534L20.8825 19.6534L20.5643 19.3352ZM21.2714 19.3352L20.9532 19.6534L20.9532 19.6534L21.2714 19.3352ZM24.4534 22.5172L24.7716 22.199L24.7716 22.199L24.4534 22.5172ZM1.54638 4.3284L1.22818 4.01021L1.54638 4.3284ZM4.72836 1.14642L5.04656 1.46462V1.46462L4.72836 1.14642ZM3.10704 5.18196L2.78884 5.50015L2.02064 4.73196H3.10704V5.18196ZM21.9164 6.70836L22.2163 6.37285H22.2163L21.9164 6.70836ZM24.5996 14.6037H25.0496H24.5996ZM24.5996 9.64281H24.1496H24.5996ZM22.5829 5.96279L22.283 6.2983L22.5829 5.96279ZM3.10704 4.18196V4.63196H2.02064L2.78884 3.86376L3.10704 4.18196ZM5.43546 1.85353L5.11727 1.53533L5.11727 1.53533L5.43546 1.85353ZM5.43546 1.14642L5.11727 1.46462L5.11726 1.46462L5.43546 1.14642ZM20.9532 26.0881L24.1352 22.9061L24.7716 23.5425L21.5896 26.7245L20.9532 26.0881ZM20.8825 26.0881C20.902 26.1076 20.9337 26.1076 20.9532 26.0881L21.5896 26.7245C21.2186 27.0955 20.6171 27.0955 20.2461 26.7245L20.8825 26.0881ZM20.8825 26.0174C20.863 26.0369 20.863 26.0686 20.8825 26.0881L20.2461 26.7245C19.8751 26.3535 19.8751 25.752 20.2461 25.381L20.8825 26.0174ZM23.2109 23.689L20.8825 26.0174L20.2461 25.381L22.5745 23.0526L23.2109 23.689ZM14.4996 22.9208L22.8927 22.9208V23.8208L14.4996 23.8208L14.4996 22.9208ZM7.45009 22.9208L14.4996 22.9208L14.4996 23.8208L7.45009 23.8208V22.9208ZM3.71682 21.2544C5.2063 22.5858 6.8216 22.9208 7.45009 22.9208V23.8208C6.60898 23.8208 4.77784 23.41 3.11703 21.9254L3.71682 21.2544ZM1.85017 17.9099C1.85017 18.4765 2.22713 19.9228 3.71682 21.2544L3.11703 21.9254C1.45371 20.4386 0.950167 18.7551 0.950167 17.9099H1.85017ZM1.85017 12.9491V17.9099H0.950167V12.9491H1.85017ZM1.90017 12.8991C1.87255 12.8991 1.85017 12.9214 1.85017 12.9491H0.950167C0.950167 12.4244 1.37549 11.9991 1.90017 11.9991V12.8991ZM1.95017 12.9491C1.95017 12.9214 1.92778 12.8991 1.90017 12.8991V11.9991C2.42484 11.9991 2.85017 12.4244 2.85017 12.9491H1.95017ZM1.95017 17.9099V12.9491H2.85017V17.9099H1.95017ZM3.78346 21.1799C2.31306 19.8655 1.95017 18.4455 1.95017 17.9099H2.85017C2.85017 18.1672 3.08674 19.35 4.38325 20.5088L3.78346 21.1799ZM7.45009 22.8208C6.84522 22.8208 5.25391 22.4942 3.78346 21.1799L4.38325 20.5089C5.68242 21.6701 7.05792 21.9208 7.45009 21.9208V22.8208ZM14.4996 22.8208L7.45009 22.8208V21.9208L14.4996 21.9208L14.4996 22.8208ZM22.8927 22.8208H14.4996V21.9208H22.8927V22.8208ZM20.8825 19.7241L23.2109 22.0526L22.5745 22.689L20.2461 20.3605L20.8825 19.7241ZM20.8825 19.6534C20.863 19.6729 20.863 19.7046 20.8825 19.7241L20.2461 20.3605C19.8751 19.9895 19.8751 19.388 20.2461 19.017L20.8825 19.6534ZM20.9532 19.6534C20.9337 19.6339 20.902 19.6339 20.8825 19.6534L20.2461 19.017C20.6171 18.646 21.2186 18.646 21.5896 19.017L20.9532 19.6534ZM24.1352 22.8354L20.9532 19.6534L21.5896 19.017L24.7716 22.199L24.1352 22.8354ZM24.1352 22.9061C24.1547 22.8866 24.1547 22.8549 24.1352 22.8354L24.7716 22.199C25.1426 22.57 25.1426 23.1715 24.7716 23.5425L24.1352 22.9061ZM1.22818 4.01021L4.41016 0.828226L5.04656 1.46462L1.86457 4.6466L1.22818 4.01021ZM1.22818 5.35371C0.857182 4.98271 0.857182 4.3812 1.22818 4.01021L1.86457 4.6466C1.84505 4.66613 1.84505 4.69779 1.86457 4.71731L1.22818 5.35371ZM4.41016 8.53569L1.22818 5.35371L1.86457 4.71731L5.04656 7.89929L4.41016 8.53569ZM5.75366 8.53569C5.38266 8.90669 4.78116 8.90669 4.41016 8.53569L5.04656 7.89929C5.06608 7.91882 5.09774 7.91882 5.11727 7.89929L5.75366 8.53569ZM5.75366 7.19219C6.12466 7.56318 6.12466 8.16469 5.75366 8.53569L5.11727 7.89929C5.13679 7.87977 5.13679 7.84811 5.11727 7.82858L5.75366 7.19219ZM3.42524 4.86376L5.75366 7.19219L5.11727 7.82858L2.78884 5.50015L3.42524 4.86376ZM11.5002 5.63196H3.10704V4.73196H11.5002V5.63196ZM18.5497 5.63196H11.5002V4.73196H18.5497V5.63196ZM18.5497 4.73196C19.1546 4.73196 20.7459 5.05848 22.2163 6.37285L21.6165 7.04386C20.3174 5.88258 18.9419 5.63196 18.5497 5.63196V4.73196ZM22.2163 6.37285C23.6867 7.68718 24.0496 9.10716 24.0496 9.64281H23.1496C23.1496 9.38547 22.913 8.20275 21.6165 7.04386L22.2163 6.37285ZM24.0496 9.64281V14.6037H23.1496V9.64281H24.0496ZM24.0496 14.6037C24.0496 14.6313 24.072 14.6537 24.0996 14.6537V15.5537C23.5749 15.5537 23.1496 15.1283 23.1496 14.6037H24.0496ZM24.0996 14.6537C24.1272 14.6537 24.1496 14.6313 24.1496 14.6037H25.0496C25.0496 15.1283 24.6243 15.5537 24.0996 15.5537V14.6537ZM24.1496 14.6037L24.1496 9.64281H25.0496L25.0496 14.6037H24.1496ZM24.1496 9.64281C24.1496 9.0762 23.7727 7.62987 22.283 6.2983L22.8828 5.62729C24.5461 7.11406 25.0496 8.79757 25.0496 9.64281H24.1496ZM22.283 6.2983C20.7935 4.96691 19.1782 4.63196 18.5497 4.63196V3.73196C19.3908 3.73196 21.2219 4.14275 22.8828 5.62729L22.283 6.2983ZM11.5002 3.73196H18.5497V4.63196H11.5002V3.73196ZM3.10704 3.73196H11.5002V4.63196H3.10704V3.73196ZM5.75366 2.17173L3.42524 4.50015L2.78884 3.86376L5.11727 1.53533L5.75366 2.17173ZM5.75366 0.828224C6.12466 1.19922 6.12466 1.80073 5.75366 2.17173L5.11727 1.53533C5.13679 1.5158 5.13679 1.48415 5.11727 1.46462L5.75366 0.828224ZM4.41016 0.828226C4.78115 0.457226 5.38267 0.457226 5.75366 0.828226L5.11726 1.46462C5.09774 1.4451 5.06608 1.4451 5.04656 1.46462L4.41016 0.828226Z"/>
</svg>
