<svg viewBox="0 0 32 55" fill="none" xmlns="http://www.w3.org/2000/svg">
<g clip-path="url(#clip0_3738_63812)">
<rect width="34.6399" height="35" rx="1" transform="matrix(0.866025 0.5 -2.20305e-08 1 1 1)" fill="#687386"/>
<path d="M21.9943 28.0254L17.6275 25.5042C17.3784 25.3604 17.2108 24.9691 17.3095 24.762L19.4724 20.2237C19.5711 20.0166 19.4034 19.6254 19.1543 19.4816L13.3099 16.1073C13.1661 16.0243 13.0373 16.0525 12.9861 16.1782L8.97252 26.0472C8.8863 26.2592 9.05375 26.6363 9.2963 26.7763L14.4662 29.7612C14.6913 29.8912 14.8567 30.2307 14.8024 30.4517L13.0052 37.7718C12.9121 38.1509 13.4097 38.6956 13.6275 38.453L22.2804 28.8161C22.4374 28.6412 22.2728 28.1861 21.9943 28.0254Z" fill="#8993A3"/>
<ellipse cx="1.48457" cy="1.5" rx="1.48457" ry="1.5" transform="matrix(0.866025 0.5 -2.20305e-08 1 1.85742 2.49487)" fill="#4C5769"/>
<ellipse cx="1.48457" cy="1.5" rx="1.48457" ry="1.5" transform="matrix(0.866025 0.5 -2.20305e-08 1 1.85742 31.4948)" fill="#4C5769"/>
<ellipse cx="1.48457" cy="1.5" rx="1.48457" ry="1.5" transform="matrix(0.866025 0.5 -2.20305e-08 1 26.7139 16.8457)" fill="#4C5769"/>
<ellipse cx="1.48457" cy="1.5" rx="1.48457" ry="1.5" transform="matrix(0.866025 0.5 -2.20305e-08 1 26.7139 45.8457)" fill="#4C5769"/>
</g>
<rect x="-0.433013" y="-0.75" width="35.6399" height="36" rx="1.5" transform="matrix(0.866025 0.5 -2.20305e-08 1 0.941987 1.21651)" stroke="#0F172A"/>
<defs>
<clipPath id="clip0_3738_63812">
<rect width="34.6399" height="35" rx="1" transform="matrix(0.866025 0.5 -2.20305e-08 1 1 1)" fill="white"/>
</clipPath>
</defs>
</svg>
