<svg viewBox="0 0 32 55" fill="none" xmlns="http://www.w3.org/2000/svg">
<g clip-path="url(#clip0_819_4239)">
<rect width="35.222" height="34.2042" rx="1" transform="matrix(2.20305e-08 1 -0.866025 0.5 30.6218 1.49997)" fill="#77E7FF"/>
<path d="M24.5478 22.6317C24.8494 22.5865 24.8494 23.079 24.5478 23.382L18.6218 29.3354C18.527 29.4306 18.4523 29.5601 18.4172 29.6899L16.2244 37.7986C16.1128 38.2113 15.6862 38.4576 15.5746 38.1737L13.3818 32.597C13.3467 32.5078 13.272 32.4647 13.1772 32.4789L7.2512 33.3682C6.94961 33.4135 6.94961 32.9209 7.2512 32.6179L13.1772 26.6645C13.272 26.5693 13.3467 26.4398 13.3818 26.3101L15.5746 18.2013C15.6862 17.7887 16.1128 17.5424 16.2244 17.8262L18.4172 23.4029C18.4523 23.4921 18.527 23.5353 18.6218 23.5211L24.5478 22.6317Z" fill="#ACF6FA"/>
<ellipse cx="1.50951" cy="1.46589" rx="1.50951" ry="1.46589" transform="matrix(2.20305e-08 1 -0.866025 0.5 29.7754 2.99493)" fill="#5FCDFF"/>
<ellipse cx="1.50951" cy="1.46589" rx="1.50951" ry="1.46589" transform="matrix(2.20305e-08 1 -0.866025 0.5 5.23193 17.1653)" fill="#5FCDFF"/>
<ellipse cx="1.50951" cy="1.46589" rx="1.50951" ry="1.46589" transform="matrix(2.20305e-08 1 -0.866025 0.5 29.7754 32.1789)" fill="#5FCDFF"/>
<ellipse cx="1.50951" cy="1.46589" rx="1.50951" ry="1.46589" transform="matrix(2.20305e-08 1 -0.866025 0.5 5.23193 46.3492)" fill="#5FCDFF"/>
</g>
<rect x="0.433013" y="-0.75" width="36.222" height="35.2042" rx="1.5" transform="matrix(2.20305e-08 1 -0.866025 0.5 30.4053 0.691957)" stroke="#0F172A"/>
<defs>
<clipPath id="clip0_819_4239">
<rect width="35.222" height="34.2042" rx="1" transform="matrix(2.20305e-08 1 -0.866025 0.5 30.6218 1.49997)" fill="white"/>
</clipPath>
</defs>
</svg>
