<svg viewBox="0 0 63 37" fill="none" xmlns="http://www.w3.org/2000/svg">
<g clip-path="url(#clip0_819_4237)">
<rect width="35" height="35" rx="1" transform="matrix(0.866025 0.5 -0.866025 0.5 31.3108 1)" fill="#9DF4FA"/>
<rect width="35" height="35" transform="matrix(0.866025 0.5 -0.866025 0.5 31.3108 1)" fill="white" fill-opacity="0.08" style="mix-blend-mode:overlay"/>
<rect width="35" height="35" transform="matrix(0.866025 0.5 -0.866025 0.5 31.3108 1)" fill="white" fill-opacity="0.08"/>
<path d="M18.611 24.2297L11.7716 20.281L12.7719 19.7035L18.7026 23.1276L22.5417 20.9111L23.4504 21.4357L18.611 24.2297Z" fill="white"/>
<path d="M26.7174 19.6736C26.2347 19.9523 25.6958 20.1618 25.1008 20.3023C24.4993 20.439 23.877 20.5087 23.2339 20.5114C22.5907 20.5067 21.9685 20.4335 21.3672 20.2917C20.7659 20.1425 20.2177 19.925 19.7226 19.6392C19.2276 19.3534 18.8541 19.0388 18.6022 18.6953C18.3501 18.3444 18.2232 17.9852 18.2216 17.6176C18.2198 17.2426 18.3406 16.8833 18.5839 16.5397C18.8206 16.1924 19.1804 15.8794 19.663 15.6008C20.1457 15.3221 20.6878 15.1144 21.2893 14.9777C21.8907 14.8336 22.513 14.7639 23.1562 14.7686C23.7929 14.7695 24.4152 14.8428 25.0229 14.9883C25.6241 15.1301 26.1722 15.3439 26.6673 15.6297C27.1623 15.9155 27.5359 16.2338 27.788 16.5847C28.0335 16.9318 28.1604 17.2911 28.1685 17.6624C28.1701 18.03 28.0494 18.3893 27.8063 18.7403C27.563 19.0838 27.2 19.3949 26.7174 19.6736ZM25.7791 19.1209C26.1221 18.9229 26.3745 18.702 26.5364 18.4581C26.7046 18.2106 26.7858 17.9568 26.7801 17.6968C26.7679 17.4331 26.669 17.1743 26.4833 16.9205C26.2912 16.6629 26.0127 16.4288 25.648 16.2182C25.2767 16.0038 24.8712 15.8431 24.4315 15.7359C23.9919 15.6287 23.5469 15.5735 23.0966 15.5702C22.6399 15.5631 22.1971 15.6082 21.7683 15.7053C21.3459 15.7987 20.9632 15.9445 20.6203 16.1425C20.271 16.3441 20.0122 16.5687 19.844 16.8163C19.6758 17.0638 19.5978 17.3195 19.61 17.5832C19.6157 17.8431 19.7114 18.1 19.897 18.3539C20.089 18.6041 20.3674 18.8345 20.7322 19.0451C21.1034 19.2594 21.509 19.4239 21.9488 19.5385C22.3885 19.6457 22.8367 19.7028 23.2935 19.7098C23.7438 19.7131 24.1833 19.6662 24.612 19.5691C25.0408 19.472 25.4298 19.3226 25.7791 19.1209Z" fill="white"/>
<path d="M33.9532 15.496C33.4706 15.7746 32.9317 15.9842 32.3367 16.1247C31.7352 16.2614 31.1129 16.3311 30.4698 16.3338C29.8266 16.3291 29.2043 16.2559 28.6031 16.1141C28.0017 15.9649 27.4535 15.7474 26.9585 15.4616C26.4635 15.1757 26.09 14.8611 25.8381 14.5177C25.586 14.1668 25.4591 13.8076 25.4575 13.44C25.4557 13.0649 25.5765 12.7056 25.8197 12.3621C26.0565 12.0148 26.4162 11.7018 26.8989 11.4231C27.3816 11.1445 27.9237 10.9368 28.5252 10.8001C29.1266 10.656 29.7489 10.5863 30.3921 10.591C31.0288 10.5919 31.651 10.6651 32.2588 10.8107C32.86 10.9524 33.4081 11.1662 33.9032 11.4521C34.3982 11.7379 34.7718 12.0562 35.0238 12.4071C35.2694 12.7542 35.3963 13.1134 35.4044 13.4848C35.406 13.8524 35.2853 14.2117 35.0422 14.5627C34.7989 14.9062 34.4359 15.2173 33.9532 15.496ZM33.015 14.9433C33.358 14.7453 33.6104 14.5243 33.7722 14.2805C33.9404 14.0329 34.0217 13.7792 34.016 13.5192C34.0038 13.2555 33.9049 12.9967 33.7192 12.7429C33.5271 12.4853 33.2486 12.2512 32.8838 12.0406C32.5126 11.8262 32.1071 11.6654 31.6674 11.5582C31.2277 11.4511 30.7828 11.3958 30.3325 11.3925C29.8757 11.3855 29.433 11.4305 29.0042 11.5276C28.5818 11.6211 28.1991 11.7668 27.8562 11.9648C27.5069 12.1665 27.2481 12.3911 27.0799 12.6386C26.9117 12.8862 26.8337 13.1418 26.8459 13.4055C26.8516 13.6655 26.9473 13.9224 27.1329 14.1762C27.3249 14.4264 27.6033 14.6568 27.968 14.8674C28.3393 15.0818 28.7449 15.2463 29.1847 15.3609C29.6244 15.468 30.0726 15.5252 30.5294 15.5322C30.9796 15.5355 31.4192 15.4886 31.8479 15.3915C32.2767 15.2943 32.6657 15.145 33.015 14.9433Z" fill="white"/>
<path d="M39.2731 12.3005L33.3423 8.87636L30.9989 10.2294L30.0902 9.70474L35.7774 6.42124L36.6861 6.94586L34.3426 8.29886L40.2733 11.723L39.2731 12.3005Z" fill="white"/>
<path d="M31.4739 28.0854L24.6345 24.1367L27.5209 22.4702C27.9592 22.2172 28.4151 22.0404 28.8888 21.9399C29.3625 21.8394 29.8251 21.8168 30.2765 21.8721C30.7214 21.9236 31.1262 22.0547 31.491 22.2653C31.8232 22.457 32.0337 22.6739 32.1226 22.9159C32.2115 23.1579 32.1817 23.4084 32.033 23.6672C32.5445 23.5298 33.045 23.4815 33.5347 23.5222C34.0242 23.5555 34.4546 23.6793 34.8259 23.8937C35.2232 24.1231 35.4732 24.3774 35.5758 24.6566C35.6847 24.9322 35.646 25.2178 35.4595 25.5135C35.2729 25.8018 34.9478 26.0797 34.4842 26.3474L31.4739 28.0854ZM28.5366 25.2345L30.3656 24.1785C30.7403 23.9622 30.9476 23.7372 30.9875 23.5036C31.0274 23.27 30.8911 23.0629 30.5784 22.8824C30.2657 22.7019 29.9071 22.6231 29.5024 22.6462C29.0977 22.6692 28.7081 22.7889 28.3334 23.0052L26.5043 24.0612L28.5366 25.2345ZM31.6045 27.0058L33.5384 25.8893C33.9575 25.6473 34.1868 25.3984 34.2262 25.1425C34.272 24.8829 34.1223 24.6534 33.777 24.4541C33.4383 24.2586 33.0442 24.174 32.5945 24.2004C32.1448 24.2194 31.7103 24.3499 31.2912 24.5919L29.3573 25.7084L31.6045 27.0058Z" fill="white"/>
<path d="M40.5849 22.9492C40.1023 23.2279 39.5634 23.4374 38.9684 23.5779C38.3669 23.7146 37.7446 23.7843 37.1015 23.787C36.4583 23.7823 35.836 23.7091 35.2348 23.5673C34.6335 23.4181 34.0852 23.2006 33.5902 22.9148C33.0952 22.629 32.7217 22.3143 32.4698 21.9709C32.2177 21.62 32.0908 21.2608 32.0892 20.8932C32.0874 20.5182 32.2082 20.1589 32.4514 19.8153C32.6882 19.468 33.0479 19.155 33.5306 18.8764C34.0133 18.5977 34.5554 18.39 35.1569 18.2533C35.7583 18.1092 36.3806 18.0395 37.0238 18.0442C37.6605 18.0451 38.2828 18.1184 38.8905 18.2639C39.4917 18.4057 40.0398 18.6195 40.5349 18.9053C41.0299 19.1911 41.4035 19.5094 41.6555 19.8603C41.9011 20.2074 42.028 20.5667 42.0361 20.938C42.0377 21.3056 41.917 21.6649 41.6739 22.0159C41.4306 22.3594 41.0676 22.6705 40.5849 22.9492ZM39.6467 22.3965C39.9897 22.1985 40.2421 21.9776 40.4039 21.7337C40.5722 21.4862 40.6534 21.2324 40.6477 20.9724C40.6355 20.7087 40.5366 20.4499 40.3509 20.1961C40.1588 19.9385 39.8803 19.7044 39.5156 19.4938C39.1443 19.2794 38.7388 19.1187 38.2991 19.0115C37.8594 18.9043 37.4145 18.8491 36.9642 18.8458C36.5074 18.8387 36.0647 18.8838 35.6359 18.9809C35.2135 19.0743 34.8308 19.2201 34.4879 19.4181C34.1386 19.6197 33.8798 19.8443 33.7116 20.0919C33.5434 20.3394 33.4654 20.5951 33.4776 20.8588C33.4833 21.1187 33.579 21.3756 33.7646 21.6295C33.9566 21.8797 34.235 22.11 34.5997 22.3206C34.971 22.535 35.3766 22.6995 35.8164 22.8141C36.2561 22.9213 36.7043 22.9784 37.1611 22.9854C37.6114 22.9887 38.0509 22.9418 38.4796 22.8447C38.9084 22.7476 39.2974 22.5982 39.6467 22.3965Z" fill="white"/>
<path d="M43.1484 21.3451L42.1645 17.829L36.4519 17.3139L37.6617 16.6154L41.983 17.0313L41.2532 14.5419L42.4154 13.8709L43.3265 17.1469L49.4548 17.7041L48.2545 18.3971L43.5077 17.9335L44.3011 20.6796L43.1484 21.3451Z" fill="white"/>
<ellipse cx="1.53846" cy="1.5" rx="1.53846" ry="1.5" transform="matrix(0.866025 0.5 -0.866025 0.5 31.333 2.01282)" fill="#77E6FF"/>
<ellipse cx="1.53846" cy="1.5" rx="1.53846" ry="1.5" transform="matrix(0.866025 0.5 -0.866025 0.5 6.65137 16.2628)" fill="#77E6FF"/>
<ellipse cx="1.53846" cy="1.5" rx="1.53846" ry="1.5" transform="matrix(0.866025 0.5 -0.866025 0.5 56.2034 16.3718)" fill="#77E6FF"/>
<ellipse cx="1.53846" cy="1.5" rx="1.53846" ry="1.5" transform="matrix(0.866025 0.5 -0.866025 0.5 31.5217 30.6218)" fill="#77E6FF"/>
</g>
<rect x="2.98023e-08" y="-0.5" width="36" height="36" rx="1.5" transform="matrix(0.866025 0.5 -0.866025 0.5 30.8778 0.75)" stroke="#0F172A"/>
<defs>
<clipPath id="clip0_819_4237">
<rect width="35" height="35" rx="1" transform="matrix(0.866025 0.5 -0.866025 0.5 31.3108 1)" fill="white"/>
</clipPath>
</defs>
</svg>
