<svg viewBox="0 0 33 55" fill="none" xmlns="http://www.w3.org/2000/svg">
<g clip-path="url(#clip0_3746_64040)">
<rect width="34.6399" height="35" rx="1" transform="matrix(0.866025 0.5 -2.20305e-08 1 1.69043 1.5)" fill="#DE8A3C"/>
<path d="M22.6848 28.5254L18.3179 26.0042C18.0689 25.8604 17.9012 25.4691 17.9999 25.262L20.1628 20.7237C20.2615 20.5166 20.0938 20.1254 19.8448 19.9816L14.0004 16.6073C13.8565 16.5243 13.7277 16.5525 13.6766 16.6782L9.66295 26.5472C9.57673 26.7592 9.74418 27.1363 9.98673 27.2763L15.1566 30.2612C15.3818 30.3912 15.5471 30.7307 15.4928 30.9517L13.6956 38.2718C13.6026 38.6509 14.1001 39.1956 14.3179 38.953L22.9709 29.3161C23.1279 29.1412 22.9632 28.6861 22.6848 28.5254Z" fill="#FFA959"/>
<ellipse cx="1.48457" cy="1.5" rx="1.48457" ry="1.5" transform="matrix(0.866025 0.5 -2.20305e-08 1 2.54785 2.99487)" fill="#C25A2D"/>
<ellipse cx="1.48457" cy="1.5" rx="1.48457" ry="1.5" transform="matrix(0.866025 0.5 -2.20305e-08 1 2.54785 31.9948)" fill="#C25A2D"/>
<ellipse cx="1.48457" cy="1.5" rx="1.48457" ry="1.5" transform="matrix(0.866025 0.5 -2.20305e-08 1 27.4043 17.3457)" fill="#C25A2D"/>
<ellipse cx="1.48457" cy="1.5" rx="1.48457" ry="1.5" transform="matrix(0.866025 0.5 -2.20305e-08 1 27.4043 46.3457)" fill="#C25A2D"/>
</g>
<rect x="-0.433013" y="-0.75" width="35.6399" height="36" rx="1.5" transform="matrix(0.866025 0.5 -2.20305e-08 1 1.63242 1.71651)" stroke="#0F172A"/>
<defs>
<clipPath id="clip0_3746_64040">
<rect width="34.6399" height="35" rx="1" transform="matrix(0.866025 0.5 -2.20305e-08 1 1.69043 1.5)" fill="white"/>
</clipPath>
</defs>
</svg>
