<svg viewBox="0 0 32 55" fill="none" xmlns="http://www.w3.org/2000/svg">
<g clip-path="url(#clip0_819_4240)">
<rect width="34.6399" height="35" rx="1" transform="matrix(0.866025 0.5 -2.20305e-08 1 1.00098 1.5)" fill="#5FCDFF"/>
<path d="M21.9956 28.5254L17.6287 26.0042C17.3797 25.8604 17.212 25.4691 17.3107 25.262L19.4736 20.7237C19.5723 20.5166 19.4046 20.1254 19.1555 19.9816L13.3111 16.6073C13.1673 16.5243 13.0385 16.5525 12.9874 16.6782L8.97374 26.5472C8.88752 26.7592 9.05497 27.1363 9.29752 27.2763L14.4674 30.2612C14.6926 30.3912 14.8579 30.7307 14.8036 30.9517L13.0064 38.2718C12.9134 38.6509 13.4109 39.1956 13.6287 38.953L22.2817 29.3161C22.4387 29.1412 22.274 28.6861 21.9956 28.5254Z" fill="#77E6FF"/>
<ellipse cx="1.48457" cy="1.5" rx="1.48457" ry="1.5" transform="matrix(0.866025 0.5 -2.20305e-08 1 1.85815 2.99484)" fill="#179DFE"/>
<ellipse cx="1.48457" cy="1.5" rx="1.48457" ry="1.5" transform="matrix(0.866025 0.5 -2.20305e-08 1 1.85815 31.9949)" fill="#179DFE"/>
<ellipse cx="1.48457" cy="1.5" rx="1.48457" ry="1.5" transform="matrix(0.866025 0.5 -2.20305e-08 1 26.7144 17.3457)" fill="#179DFE"/>
<ellipse cx="1.48457" cy="1.5" rx="1.48457" ry="1.5" transform="matrix(0.866025 0.5 -2.20305e-08 1 26.7144 46.3457)" fill="#179DFE"/>
</g>
<rect x="-0.433013" y="-0.75" width="35.6399" height="36" rx="1.5" transform="matrix(0.866025 0.5 -2.20305e-08 1 0.942964 1.71651)" stroke="#0F172A"/>
<defs>
<clipPath id="clip0_819_4240">
<rect width="34.6399" height="35" rx="1" transform="matrix(0.866025 0.5 -2.20305e-08 1 1.00098 1.5)" fill="white"/>
</clipPath>
</defs>
</svg>
