<svg viewBox="0 0 64 37" fill="none" xmlns="http://www.w3.org/2000/svg">
<g clip-path="url(#clip0_3746_64037)">
<rect width="35" height="35" rx="1" transform="matrix(0.866025 0.5 -0.866025 0.5 32 1)" fill="#FFDE76"/>
<rect width="35" height="35" transform="matrix(0.866025 0.5 -0.866025 0.5 32 1)" fill="white" fill-opacity="0.08" style="mix-blend-mode:overlay"/>
<rect width="35" height="35" transform="matrix(0.866025 0.5 -0.866025 0.5 32 1)" fill="white" fill-opacity="0.08"/>
<path d="M19.3005 24.2297L12.4611 20.281L13.4613 19.7035L19.3921 23.1276L23.2311 20.9111L24.1398 21.4357L19.3005 24.2297Z" fill="#FAFFDB"/>
<path d="M27.4068 19.6736C26.9241 19.9523 26.3853 20.1618 25.7903 20.3023C25.1887 20.439 24.5664 20.5087 23.9234 20.5114C23.2801 20.5067 22.6579 20.4335 22.0567 20.2917C21.4553 20.1425 20.9071 19.925 20.4121 19.6392C19.917 19.3534 19.5436 19.0388 19.2916 18.6953C19.0396 18.3444 18.9127 17.9852 18.9111 17.6176C18.9093 17.2426 19.03 16.8833 19.2733 16.5397C19.5101 16.1924 19.8698 15.8794 20.3525 15.6008C20.8351 15.3221 21.3772 15.1144 21.9788 14.9777C22.5802 14.8336 23.2025 14.7639 23.8457 14.7686C24.4824 14.7695 25.1046 14.8428 25.7123 14.9883C26.3136 15.1301 26.8617 15.3439 27.3567 15.6297C27.8518 15.9155 28.2253 16.2338 28.4774 16.5847C28.723 16.9318 28.8498 17.2911 28.858 17.6624C28.8596 18.03 28.7389 18.3893 28.4957 18.7403C28.2524 19.0838 27.8895 19.3949 27.4068 19.6736ZM26.4686 19.1209C26.8115 18.9229 27.0639 18.702 27.2258 18.4581C27.394 18.2106 27.4753 17.9568 27.4696 17.6968C27.4574 17.4331 27.3584 17.1743 27.1728 16.9205C26.9806 16.6629 26.7022 16.4288 26.3374 16.2182C25.9661 16.0038 25.5607 15.8431 25.121 15.7359C24.6813 15.6287 24.2363 15.5735 23.7861 15.5702C23.3293 15.5631 22.8865 15.6082 22.4578 15.7053C22.0354 15.7987 21.6527 15.9445 21.3097 16.1425C20.9604 16.3441 20.7017 16.5687 20.5335 16.8163C20.3653 17.0638 20.2873 17.3195 20.2995 17.5832C20.3052 17.8431 20.4008 18.1 20.5865 18.3539C20.7785 18.6041 21.0568 18.8345 21.4216 19.0451C21.7929 19.2594 22.1985 19.4239 22.6383 19.5385C23.078 19.6457 23.5262 19.7028 23.983 19.7098C24.4332 19.7131 24.8727 19.6662 25.3015 19.5691C25.7303 19.472 26.1193 19.3226 26.4686 19.1209Z" fill="#FAFFDB"/>
<path d="M34.6427 15.496C34.16 15.7746 33.6212 15.9842 33.0261 16.1247C32.4246 16.2614 31.8023 16.3311 31.1592 16.3338C30.516 16.3291 29.8938 16.2559 29.2926 16.1141C28.6912 15.9649 28.143 15.7474 27.648 15.4616C27.1529 15.1757 26.7794 14.8611 26.5275 14.5177C26.2754 14.1668 26.1486 13.8076 26.147 13.44C26.1452 13.0649 26.2659 12.7056 26.5092 12.3621C26.746 12.0148 27.1057 11.7018 27.5884 11.4231C28.071 11.1445 28.6131 10.9368 29.2147 10.8001C29.816 10.656 30.4383 10.5863 31.0816 10.591C31.7183 10.5919 32.3405 10.6651 32.9482 10.8107C33.5494 10.9524 34.0976 11.1662 34.5926 11.4521C35.0876 11.7379 35.4612 12.0562 35.7133 12.4071C35.9589 12.7542 36.0857 13.1134 36.0939 13.4848C36.0955 13.8524 35.9747 14.2117 35.7316 14.5627C35.4883 14.9062 35.1253 15.2173 34.6427 15.496ZM33.7045 14.9433C34.0474 14.7453 34.2998 14.5243 34.4617 14.2805C34.6299 14.0329 34.7112 13.7792 34.7055 13.5192C34.6932 13.2555 34.5943 12.9967 34.4087 12.7429C34.2165 12.4853 33.9381 12.2512 33.5733 12.0406C33.202 11.8262 32.7965 11.6654 32.3569 11.5582C31.9172 11.4511 31.4722 11.3958 31.022 11.3925C30.5652 11.3855 30.1224 11.4305 29.6937 11.5276C29.2712 11.6211 28.8886 11.7668 28.5456 11.9648C28.1963 12.1665 27.9376 12.3911 27.7693 12.6386C27.6011 12.8862 27.5231 13.1418 27.5353 13.4055C27.541 13.6655 27.6367 13.9224 27.8224 14.1762C28.0143 14.4264 28.2927 14.6568 28.6575 14.8674C29.0288 15.0818 29.4343 15.2463 29.8742 15.3609C30.3138 15.468 30.7621 15.5252 31.2188 15.5322C31.6691 15.5355 32.1086 15.4886 32.5374 15.3915C32.9661 15.2943 33.3552 15.145 33.7045 14.9433Z" fill="#FAFFDB"/>
<path d="M39.9625 12.3005L34.0318 8.87636L31.6883 10.2294L30.7797 9.70474L36.4669 6.42124L37.3755 6.94586L35.032 8.29886L40.9628 11.723L39.9625 12.3005Z" fill="#FAFFDB"/>
<path d="M32.1633 28.0854L25.3239 24.1367L28.2104 22.4702C28.6486 22.2172 29.1046 22.0404 29.5783 21.9399C30.052 21.8394 30.5145 21.8168 30.9659 21.8721C31.4108 21.9236 31.8156 22.0547 32.1804 22.2653C32.5126 22.457 32.7232 22.6739 32.8121 22.9159C32.901 23.1579 32.8711 23.4084 32.7224 23.6672C33.2339 23.5298 33.7345 23.4815 34.2242 23.5222C34.7137 23.5555 35.1441 23.6793 35.5153 23.8937C35.9127 24.1231 36.1626 24.3774 36.2652 24.6566C36.3742 24.9322 36.3354 25.2178 36.149 25.5135C35.9623 25.8018 35.6372 26.0797 35.1736 26.3474L32.1633 28.0854ZM29.226 25.2345L31.0551 24.1785C31.4298 23.9622 31.6371 23.7372 31.677 23.5036C31.7169 23.27 31.5805 23.0629 31.2678 22.8824C30.9552 22.7019 30.5965 22.6231 30.1919 22.6462C29.7872 22.6692 29.3975 22.7889 29.0228 23.0052L27.1938 24.0612L29.226 25.2345ZM32.294 27.0058L34.2278 25.8893C34.647 25.6473 34.8763 25.3984 34.9157 25.1425C34.9614 24.8829 34.8117 24.6534 34.4665 24.4541C34.1278 24.2586 33.7336 24.174 33.284 24.2004C32.8342 24.2194 32.3998 24.3499 31.9806 24.5919L30.0468 25.7084L32.294 27.0058Z" fill="#FAFFDB"/>
<path d="M41.2744 22.9492C40.7917 23.2279 40.2529 23.4374 39.6579 23.5779C39.0563 23.7146 38.434 23.7843 37.7909 23.787C37.1477 23.7823 36.5255 23.7091 35.9243 23.5673C35.3229 23.4181 34.7747 23.2006 34.2797 22.9148C33.7846 22.629 33.4111 22.3143 33.1592 21.9709C32.9071 21.62 32.7803 21.2608 32.7787 20.8932C32.7769 20.5182 32.8976 20.1589 33.1409 19.8153C33.3777 19.468 33.7374 19.155 34.2201 18.8764C34.7027 18.5977 35.2448 18.39 35.8464 18.2533C36.4477 18.1092 37.07 18.0395 37.7133 18.0442C38.35 18.0451 38.9722 18.1184 39.5799 18.2639C40.1812 18.4057 40.7293 18.6195 41.2243 18.9053C41.7194 19.1911 42.0929 19.5094 42.345 19.8603C42.5906 20.2074 42.7174 20.5667 42.7256 20.938C42.7272 21.3056 42.6064 21.6649 42.3633 22.0159C42.12 22.3594 41.7571 22.6705 41.2744 22.9492ZM40.3362 22.3965C40.6791 22.1985 40.9315 21.9776 41.0934 21.7337C41.2616 21.4862 41.3429 21.2324 41.3372 20.9724C41.325 20.7087 41.226 20.4499 41.0404 20.1961C40.8482 19.9385 40.5698 19.7044 40.205 19.4938C39.8337 19.2794 39.4282 19.1187 38.9886 19.0115C38.5489 18.9043 38.1039 18.8491 37.6537 18.8458C37.1969 18.8387 36.7541 18.8838 36.3254 18.9809C35.903 19.0743 35.5203 19.2201 35.1773 19.4181C34.828 19.6197 34.5693 19.8443 34.4011 20.0919C34.2328 20.3394 34.1548 20.5951 34.1671 20.8588C34.1728 21.1187 34.2684 21.3756 34.4541 21.6295C34.6461 21.8797 34.9244 22.11 35.2892 22.3206C35.6605 22.535 36.066 22.6995 36.5059 22.8141C36.9456 22.9213 37.3938 22.9784 37.8505 22.9854C38.3008 22.9887 38.7403 22.9418 39.1691 22.8447C39.5978 22.7476 39.9869 22.5982 40.3362 22.3965Z" fill="#FAFFDB"/>
<path d="M43.8378 21.3451L42.854 17.829L37.1414 17.3139L38.3512 16.6154L42.6725 17.0313L41.9426 14.5419L43.1048 13.8709L44.0159 17.1469L50.1442 17.7041L48.9439 18.3971L44.1972 17.9335L44.9905 20.6796L43.8378 21.3451Z" fill="#FAFFDB"/>
<ellipse cx="1.53846" cy="1.5" rx="1.53846" ry="1.5" transform="matrix(0.866025 0.5 -0.866025 0.5 32.0225 2.01282)" fill="#FFBA53"/>
<ellipse cx="1.53846" cy="1.5" rx="1.53846" ry="1.5" transform="matrix(0.866025 0.5 -0.866025 0.5 7.34082 16.2628)" fill="#FFBA53"/>
<ellipse cx="1.53846" cy="1.5" rx="1.53846" ry="1.5" transform="matrix(0.866025 0.5 -0.866025 0.5 56.8926 16.3718)" fill="#FFBA53"/>
<ellipse cx="1.53846" cy="1.5" rx="1.53846" ry="1.5" transform="matrix(0.866025 0.5 -0.866025 0.5 32.2109 30.6218)" fill="#FFBA53"/>
</g>
<rect x="2.98023e-08" y="-0.5" width="36" height="36" rx="1.5" transform="matrix(0.866025 0.5 -0.866025 0.5 31.567 0.75)" stroke="#0F172A"/>
<defs>
<clipPath id="clip0_3746_64037">
<rect width="35" height="35" rx="1" transform="matrix(0.866025 0.5 -0.866025 0.5 32 1)" fill="white"/>
</clipPath>
</defs>
</svg>
