<svg viewBox="0 0 33 55" fill="none" xmlns="http://www.w3.org/2000/svg">
<g clip-path="url(#clip0_3738_63810)">
<rect width="35.222" height="34.2042" rx="1" transform="matrix(2.20305e-08 1 -0.866025 0.5 31.3115 1.5)" fill="#8A94A3"/>
<path d="M25.2373 22.6318C25.5388 22.5865 25.5388 23.0791 25.2373 23.382L19.3113 29.3354C19.2165 29.4307 19.1417 29.5602 19.1066 29.6899L16.9138 37.7986C16.8022 38.2113 16.3757 38.4576 16.2641 38.1738L14.0713 32.5971C14.0362 32.5078 13.9614 32.4647 13.8666 32.4789L7.94065 33.3682C7.63906 33.4135 7.63906 32.9209 7.94065 32.618L13.8666 26.6646C13.9614 26.5693 14.0362 26.4398 14.0713 26.3101L16.2641 18.2014C16.3757 17.7887 16.8022 17.5424 16.9138 17.8262L19.1066 23.4029C19.1417 23.4922 19.2165 23.5353 19.3113 23.5211L25.2373 22.6318Z" fill="#B4BCC9"/>
<ellipse cx="1.50951" cy="1.46589" rx="1.50951" ry="1.46589" transform="matrix(2.20305e-08 1 -0.866025 0.5 30.4648 2.995)" fill="#687386"/>
<ellipse cx="1.50951" cy="1.46589" rx="1.50951" ry="1.46589" transform="matrix(2.20305e-08 1 -0.866025 0.5 5.92188 17.1653)" fill="#687386"/>
<ellipse cx="1.50951" cy="1.46589" rx="1.50951" ry="1.46589" transform="matrix(2.20305e-08 1 -0.866025 0.5 30.4648 32.1789)" fill="#687386"/>
<ellipse cx="1.50951" cy="1.46589" rx="1.50951" ry="1.46589" transform="matrix(2.20305e-08 1 -0.866025 0.5 5.92188 46.3492)" fill="#687386"/>
</g>
<rect x="0.433013" y="-0.75" width="36.222" height="35.2042" rx="1.5" transform="matrix(2.20305e-08 1 -0.866025 0.5 31.095 0.691987)" stroke="#0F172A"/>
<defs>
<clipPath id="clip0_3738_63810">
<rect width="35.222" height="34.2042" rx="1" transform="matrix(2.20305e-08 1 -0.866025 0.5 31.3115 1.5)" fill="white"/>
</clipPath>
</defs>
</svg>
