<svg xmlns="http://www.w3.org/2000/svg" width="11" height="9" viewBox="0 0 11 9" fill="none">
<path d="M1 4C0.723858 4 0.5 4.22386 0.5 4.5C0.5 4.77614 0.723858 5 1 5V4ZM5.02228 4.5L5.02228 4H5.02228V4.5ZM10.8536 4.85356C11.0488 4.6583 11.0488 4.34172 10.8536 4.14645L7.67158 0.96447C7.47632 0.769207 7.15973 0.769207 6.96447 0.964469C6.76921 1.15973 6.76921 1.47631 6.96447 1.67158L9.79289 4.50001L6.96446 7.32843C6.7692 7.52369 6.7692 7.84027 6.96446 8.03554C7.15972 8.2308 7.47631 8.2308 7.67157 8.03554L10.8536 4.85356ZM1 5H5.02228V4H1V5ZM5.02228 5L10.5 5.00001L10.5 4.00001L5.02228 4L5.02228 5Z" fill="#687386"/>
</svg>