<svg width="8" height="11" viewBox="0 0 8 11" fill="none" xmlns="http://www.w3.org/2000/svg">
<path d="M4.5 1C4.5 0.723858 4.27614 0.5 4 0.5C3.72386 0.5 3.5 0.723858 3.5 1H4.5ZM4 5.02228L4.5 5.02228V5.02228H4ZM3.64644 10.8536C3.8417 11.0488 4.15828 11.0488 4.35355 10.8536L7.53553 7.67158C7.73079 7.47632 7.73079 7.15973 7.53553 6.96447C7.34027 6.76921 7.02369 6.76921 6.82842 6.96447L3.99999 9.79289L1.17157 6.96446C0.976308 6.7692 0.659726 6.7692 0.464463 6.96446C0.269201 7.15972 0.2692 7.47631 0.464462 7.67157L3.64644 10.8536ZM3.5 1L3.5 5.02228H4.5V1H3.5ZM3.5 5.02228L3.49999 10.5L4.49999 10.5L4.5 5.02228L3.5 5.02228Z" fill="#0497EC"/>
</svg>
