<svg width="15" height="9" viewBox="0 0 15 9" fill="none" xmlns="http://www.w3.org/2000/svg">
<path fill-rule="evenodd" clip-rule="evenodd" d="M13.9815 7.86008C13.591 8.2506 12.9578 8.2506 12.5673 7.86008L7.14434 2.43711L1.70686 7.87459C1.31634 8.26511 0.683173 8.26511 0.292649 7.87459C-0.0978756 7.48406 -0.0978756 6.8509 0.292649 6.46037L6.25806 0.494959C6.30034 0.422795 6.35243 0.354795 6.41434 0.292891C6.72371 -0.0164804 7.18535 -0.0807695 7.55801 0.100023C7.66751 0.148521 7.77008 0.217648 7.85983 0.307402C7.89699 0.344554 7.9306 0.383902 7.96069 0.425028L13.9815 6.44586C14.372 6.83639 14.372 7.46955 13.9815 7.86008Z" fill="#0497EC"/>
</svg>
