<svg width="15" height="11" viewBox="0 0 15 11" fill="none" xmlns="http://www.w3.org/2000/svg">
<path d="M3.50002 10.5C3.50002 10.7761 3.72387 11 4.00002 11C4.27616 11 4.50002 10.7761 4.50002 10.5L3.50002 10.5ZM4.00002 6.47772L3.50002 6.47772L3.50002 6.47772L4.00002 6.47772ZM4.35358 0.646447C4.15831 0.451184 3.84173 0.451184 3.64647 0.646446L0.464485 3.82842C0.269222 4.02368 0.269222 4.34027 0.464484 4.53553C0.659746 4.73079 0.976328 4.73079 1.17159 4.53553L4.00002 1.70711L6.82844 4.53554C7.02371 4.7308 7.34029 4.7308 7.53555 4.53554C7.73081 4.34028 7.73081 4.02369 7.53555 3.82843L4.35358 0.646447ZM11.5 1C11.5 0.723858 11.2762 0.5 11 0.5C10.7239 0.5 10.5 0.723858 10.5 1L11.5 1ZM11 5.02228L11.5 5.02228L11.5 5.02228L11 5.02228ZM10.6465 10.8536C10.8417 11.0488 11.1583 11.0488 11.3536 10.8536L14.5356 7.67158C14.7308 7.47632 14.7308 7.15973 14.5356 6.96447C14.3403 6.76921 14.0237 6.76921 13.8284 6.96447L11 9.79289L8.17159 6.96446C7.97633 6.7692 7.65975 6.7692 7.46449 6.96446C7.26922 7.15972 7.26922 7.47631 7.46449 7.67157L10.6465 10.8536ZM4.50002 10.5L4.50002 6.47772L3.50002 6.47772L3.50002 10.5L4.50002 10.5ZM4.50002 6.47772L4.50002 1L3.50002 0.999999L3.50002 6.47772L4.50002 6.47772ZM10.5 1L10.5 5.02228L11.5 5.02228L11.5 1L10.5 1ZM10.5 5.02228L10.5 10.5L11.5 10.5L11.5 5.02228L10.5 5.02228Z" fill="#687386"/>
</svg>
