<svg width="9" height="15" viewBox="0 0 9 15" fill="none" xmlns="http://www.w3.org/2000/svg">
<path fill-rule="evenodd" clip-rule="evenodd" d="M7.86056 13.9818C8.25109 13.5912 8.25109 12.9581 7.86057 12.5676L2.4376 7.14458L7.87508 1.70711C8.2656 1.31658 8.2656 0.683417 7.87507 0.292893C7.48455 -0.0976315 6.85139 -0.0976315 6.46086 0.292893L0.495448 6.25831C0.423283 6.30059 0.355283 6.35268 0.293379 6.41458C-0.0159922 6.72395 -0.0802813 7.1856 0.100512 7.55826C0.14901 7.66775 0.218136 7.77032 0.30789 7.86008C0.345042 7.89723 0.38439 7.93085 0.425516 7.96093L6.44635 13.9818C6.83687 14.3723 7.47004 14.3723 7.86056 13.9818Z" fill="#0F172A"/>
</svg>
