<svg width="8" height="11" viewBox="0 0 8 11" fill="none" xmlns="http://www.w3.org/2000/svg">
<path d="M3.5 10.5C3.5 10.7761 3.72386 11 4 11C4.27614 11 4.5 10.7761 4.5 10.5L3.5 10.5ZM4 6.47772L3.5 6.47772L3.5 6.47772L4 6.47772ZM4.35356 0.646447C4.1583 0.451185 3.84172 0.451184 3.64645 0.646446L0.46447 3.82842C0.269207 4.02368 0.269207 4.34027 0.464469 4.53553C0.65973 4.73079 0.976313 4.73079 1.17158 4.53553L4.00001 1.70711L6.82843 4.53554C7.02369 4.7308 7.34027 4.7308 7.53554 4.53554C7.7308 4.34028 7.7308 4.02369 7.53554 3.82843L4.35356 0.646447ZM4.5 10.5L4.5 6.47772L3.5 6.47772L3.5 10.5L4.5 10.5ZM4.5 6.47772L4.50001 1L3.50001 0.999999L3.5 6.47772L4.5 6.47772Z" fill="#0497EC"/>
</svg>
