<svg viewBox="0 0 120 90" fill="none" xmlns="http://www.w3.org/2000/svg">
<path d="M77.8053 51.7396C77.414 51.4045 76.9106 51.2294 76.3959 51.2493C75.8811 51.2692 75.3927 51.4826 75.0284 51.8468C74.6642 52.2111 74.4508 52.6995 74.4309 53.2143C74.411 53.729 74.5861 54.2324 74.9212 54.6237L79.6053 59.318H55.9087V32.7271C55.9087 32.1846 55.6932 31.6643 55.3096 31.2807C54.926 30.8971 54.4057 30.6816 53.8632 30.6816H35.4541C34.9117 30.6816 34.3914 30.8971 34.0078 31.2807C33.6242 31.6643 33.4087 32.1846 33.4087 32.7271C33.4087 33.2696 33.6242 33.7899 34.0078 34.1734C34.3914 34.557 34.9117 34.7725 35.4541 34.7725H51.8178V61.3635C51.8178 61.9059 52.0333 62.4262 52.4169 62.8098C52.8005 63.1934 53.3207 63.4089 53.8632 63.4089H79.6053L74.9212 68.1032C74.7071 68.2866 74.5332 68.5122 74.4104 68.766C74.2876 69.0198 74.2186 69.2962 74.2077 69.5779C74.1969 69.8596 74.2443 70.1405 74.3472 70.403C74.45 70.6655 74.606 70.9039 74.8053 71.1032C75.0047 71.3025 75.243 71.4585 75.5055 71.5614C75.768 71.6642 76.0489 71.7117 76.3306 71.7008C76.6123 71.6899 76.8887 71.6209 77.1425 71.4981C77.3963 71.3754 77.6219 71.2014 77.8053 70.9873L85.9871 62.8055C86.3681 62.4223 86.5819 61.9038 86.5819 61.3635C86.5819 60.8231 86.3681 60.3047 85.9871 59.9214L77.8053 51.7396Z" fill="#FF6B6C"/>
<path d="M27.2725 12.2727H17.0453V2.04545C17.0453 1.50297 16.8298 0.982697 16.4462 0.5991C16.0626 0.215503 15.5423 0 14.9998 0C14.4573 0 13.9371 0.215503 13.5535 0.5991C13.1699 0.982697 12.9544 1.50297 12.9544 2.04545V12.2727H2.7271C2.18461 12.2727 1.66434 12.4882 1.28074 12.8718C0.897144 13.2554 0.681641 13.7757 0.681641 14.3182V51.1364C0.681641 51.6789 0.897144 52.1991 1.28074 52.5827C1.66434 52.9663 2.18461 53.1818 2.7271 53.1818H12.9544V67.5C12.9544 68.0425 13.1699 68.5628 13.5535 68.9464C13.9371 69.3299 14.4573 69.5455 14.9998 69.5455C15.5423 69.5455 16.0626 69.3299 16.4462 68.9464C16.8298 68.5628 17.0453 68.0425 17.0453 67.5V53.1818H27.2725C27.815 53.1818 28.3353 52.9663 28.7189 52.5827C29.1025 52.1991 29.318 51.6789 29.318 51.1364V14.3182C29.318 13.7757 29.1025 13.2554 28.7189 12.8718C28.3353 12.4882 27.815 12.2727 27.2725 12.2727ZM25.2271 49.0909H4.77255V16.3636H25.2271V49.0909Z" fill="#FF6B6C"/>
<path d="M117.273 24.5454H107.045V6.13627C107.045 5.59379 106.83 5.07352 106.446 4.68992C106.063 4.30632 105.542 4.09082 105 4.09082C104.457 4.09082 103.937 4.30632 103.553 4.68992C103.17 5.07352 102.954 5.59379 102.954 6.13627V24.5454H92.7271C92.1846 24.5454 91.6643 24.7609 91.2807 25.1445C90.8971 25.5281 90.6816 26.0483 90.6816 26.5908V79.7726C90.6816 80.3151 90.8971 80.8354 91.2807 81.219C91.6643 81.6026 92.1846 81.8181 92.7271 81.8181H102.954V87.9545C102.954 88.4969 103.17 89.0172 103.553 89.4008C103.937 89.7844 104.457 89.9999 105 89.9999C105.542 89.9999 106.063 89.7844 106.446 89.4008C106.83 89.0172 107.045 88.4969 107.045 87.9545V81.8181H117.273C117.815 81.8181 118.335 81.6026 118.719 81.219C119.103 80.8354 119.318 80.3151 119.318 79.7726V26.5908C119.318 26.0483 119.103 25.5281 118.719 25.1445C118.335 24.7609 117.815 24.5454 117.273 24.5454ZM115.227 77.7272H94.7725V28.6363H115.227V77.7272Z" fill="#FF6B6C"/>
</svg>
