<svg viewBox="0 0 30 30" fill="none" xmlns="http://www.w3.org/2000/svg">
  <path d="M30 15C30 23.2843 23.2843 30 15 30C6.71573 30 0 23.2843 0 15C0 6.71573 6.71573 0 15 0C23.2843 0 30 6.71573 30 15ZM1.9305 15C1.9305 22.2181 7.78191 28.0695 15 28.0695C22.2181 28.0695 28.0695 22.2181 28.0695 15C28.0695 7.78191 22.2181 1.9305 15 1.9305C7.78191 1.9305 1.9305 7.78191 1.9305 15Z" fill="#A8D8FA"/>
  <rect x="14" y="5.5" width="2" height="12" rx="1" fill="#A8D8FA"/>
  <rect x="14" y="15.5" width="9" height="2" rx="1" fill="#A8D8FA"/>
</svg>