<svg width="19" height="19" viewBox="0 0 19 19" fill="none" xmlns="http://www.w3.org/2000/svg">
<path fill-rule="evenodd" clip-rule="evenodd" d="M0.69602 0.718125C1.08035 0.321498 1.70346 0.321497 2.08778 0.718124L9.1961 8.05397L16.3044 0.718124C16.6887 0.321497 17.3119 0.321498 17.6962 0.718125C18.0805 1.11475 18.0805 1.75781 17.6962 2.15444L10.5879 9.49028L17.7957 16.9289C18.1801 17.3255 18.1801 17.9686 17.7957 18.3652C17.4114 18.7618 16.7883 18.7618 16.404 18.3652L9.1961 10.9266L1.98823 18.3652C1.6039 18.7618 0.980787 18.7618 0.596462 18.3652C0.212137 17.9686 0.212137 17.3255 0.596462 16.9289L7.80434 9.49028L0.69602 2.15444C0.311695 1.75781 0.311695 1.11475 0.69602 0.718125Z" fill="#BAC0CB"/>
</svg>
