<svg width="21" height="22" viewBox="0 0 21 22" fill="none" xmlns="http://www.w3.org/2000/svg">
<mask id="path-1-outside-1_4075_8867" maskUnits="userSpaceOnUse" x="-0.525391" y="0" width="21" height="22" fill="black">
<rect fill="white" x="-0.525391" width="21" height="22"/>
<path fill-rule="evenodd" clip-rule="evenodd" d="M17.7751 11.755L19.6134 13.1925C19.9568 13.465 20.0501 13.9442 19.8376 14.3341L17.9159 17.6583C17.7076 18.04 17.2326 18.21 16.8184 18.0491L14.6434 17.1758C14.2092 17.4858 13.7801 17.735 13.3434 17.9325L13.0126 20.2408C12.9593 20.67 12.5793 21 12.1301 21H8.29676C7.84762 21 7.46762 20.67 7.41344 20.2325L7.08344 17.9325C6.63262 17.7292 6.19594 17.4759 5.78094 17.1767L3.61176 18.0475C3.18176 18.2033 2.71344 18.03 2.50594 17.65L0.594262 14.3425C0.376762 13.9433 0.470122 13.4642 0.810981 13.1942L2.65098 11.755C2.62348 11.4734 2.6093 11.2292 2.6093 11C2.6093 10.7709 2.62344 10.5267 2.65262 10.245L0.814301 8.80836C0.464301 8.53172 0.371801 8.03672 0.597622 7.65504L2.5118 4.34254C2.72012 3.9609 3.19348 3.78922 3.6093 3.95172L5.7843 4.82504C6.21848 4.51504 6.64762 4.26586 7.0843 4.06836L7.41512 1.75918C7.46844 1.33 7.84844 1 8.29762 1H12.1309C12.5801 1 12.9601 1.33 13.0143 1.76754L13.3443 4.06836C13.7951 4.27086 14.2309 4.52418 14.6459 4.82418L16.8151 3.95336C17.2426 3.79586 17.7118 3.97004 17.9209 4.35086L19.8326 7.65836C20.0509 8.0575 19.9568 8.53668 19.6151 8.80668L17.7751 10.245C17.7984 10.4667 17.8184 10.7258 17.8184 11C17.8184 11.2742 17.7993 11.5333 17.7751 11.755ZM17.1243 17.2741L19.1093 13.9258C19.1226 13.9025 19.1184 13.865 19.0968 13.8475L17.0768 12.2675C16.9618 12.1775 16.9018 12.0325 16.9202 11.8875C16.9518 11.6342 16.9843 11.3308 16.9843 11C16.9843 10.67 16.9518 10.3658 16.9202 10.1125C16.9018 9.96668 16.9618 9.8225 17.0768 9.7325L19.0993 8.15168C19.1193 8.13586 19.1227 8.09918 19.1052 8.06668L17.1935 4.75918L14.7393 5.685C14.6018 5.74086 14.4476 5.71918 14.3301 5.62918C13.8501 5.26 13.3376 4.9625 12.8059 4.745C12.6693 4.68914 12.5726 4.565 12.5509 4.41832L12.1876 1.87832L8.29762 1.83332L7.87594 4.41832C7.85508 4.56418 7.75844 4.68832 7.62176 4.745C7.11008 4.95418 6.61008 5.24418 6.09426 5.63168C5.97676 5.71918 5.82426 5.74 5.68844 5.685L3.30262 4.72668L1.31762 8.075L3.35004 9.73246C3.46504 9.82246 3.52504 9.96664 3.50672 10.1125C3.46336 10.4625 3.44254 10.7441 3.44254 11C3.44254 11.2558 3.46254 11.5383 3.50672 11.8875C3.52504 12.0325 3.46504 12.1775 3.35004 12.2675L1.32754 13.8483C1.30754 13.8641 1.30422 13.9016 1.32172 13.9341L3.2334 17.2416L5.68758 16.3158C5.7384 16.295 5.7909 16.2858 5.8434 16.2858C5.9334 16.2858 6.0234 16.315 6.09758 16.3725C6.57676 16.7408 7.08926 17.0383 7.62176 17.2566C7.75844 17.3125 7.85508 17.4366 7.87676 17.5833L8.24094 20.1225L12.1301 20.1667L12.5509 17.5825C12.5718 17.4358 12.6693 17.3116 12.8059 17.2558C13.3176 17.0466 13.8168 16.7558 14.3334 16.3691C14.4501 16.2825 14.6034 16.2616 14.7384 16.3158L17.1243 17.2741ZM6.0459 10.9999C6.0459 8.70243 7.91508 6.83325 10.2126 6.83325C12.5101 6.83325 14.3793 8.70243 14.3793 10.9999C14.3793 13.2974 12.5101 15.1666 10.2126 15.1666C7.91508 15.1666 6.0459 13.2974 6.0459 10.9999ZM6.87926 10.9999C6.87926 12.8383 8.37426 14.3333 10.2126 14.3333C12.0509 14.3333 13.5459 12.8383 13.5459 10.9999C13.5459 9.16161 12.0509 7.66661 10.2126 7.66661C8.37426 7.66661 6.87926 9.16161 6.87926 10.9999Z"/>
</mask>
<path fill-rule="evenodd" clip-rule="evenodd" d="M17.7751 11.755L19.6134 13.1925C19.9568 13.465 20.0501 13.9442 19.8376 14.3341L17.9159 17.6583C17.7076 18.04 17.2326 18.21 16.8184 18.0491L14.6434 17.1758C14.2092 17.4858 13.7801 17.735 13.3434 17.9325L13.0126 20.2408C12.9593 20.67 12.5793 21 12.1301 21H8.29676C7.84762 21 7.46762 20.67 7.41344 20.2325L7.08344 17.9325C6.63262 17.7292 6.19594 17.4759 5.78094 17.1767L3.61176 18.0475C3.18176 18.2033 2.71344 18.03 2.50594 17.65L0.594262 14.3425C0.376762 13.9433 0.470122 13.4642 0.810981 13.1942L2.65098 11.755C2.62348 11.4734 2.6093 11.2292 2.6093 11C2.6093 10.7709 2.62344 10.5267 2.65262 10.245L0.814301 8.80836C0.464301 8.53172 0.371801 8.03672 0.597622 7.65504L2.5118 4.34254C2.72012 3.9609 3.19348 3.78922 3.6093 3.95172L5.7843 4.82504C6.21848 4.51504 6.64762 4.26586 7.0843 4.06836L7.41512 1.75918C7.46844 1.33 7.84844 1 8.29762 1H12.1309C12.5801 1 12.9601 1.33 13.0143 1.76754L13.3443 4.06836C13.7951 4.27086 14.2309 4.52418 14.6459 4.82418L16.8151 3.95336C17.2426 3.79586 17.7118 3.97004 17.9209 4.35086L19.8326 7.65836C20.0509 8.0575 19.9568 8.53668 19.6151 8.80668L17.7751 10.245C17.7984 10.4667 17.8184 10.7258 17.8184 11C17.8184 11.2742 17.7993 11.5333 17.7751 11.755ZM17.1243 17.2741L19.1093 13.9258C19.1226 13.9025 19.1184 13.865 19.0968 13.8475L17.0768 12.2675C16.9618 12.1775 16.9018 12.0325 16.9202 11.8875C16.9518 11.6342 16.9843 11.3308 16.9843 11C16.9843 10.67 16.9518 10.3658 16.9202 10.1125C16.9018 9.96668 16.9618 9.8225 17.0768 9.7325L19.0993 8.15168C19.1193 8.13586 19.1227 8.09918 19.1052 8.06668L17.1935 4.75918L14.7393 5.685C14.6018 5.74086 14.4476 5.71918 14.3301 5.62918C13.8501 5.26 13.3376 4.9625 12.8059 4.745C12.6693 4.68914 12.5726 4.565 12.5509 4.41832L12.1876 1.87832L8.29762 1.83332L7.87594 4.41832C7.85508 4.56418 7.75844 4.68832 7.62176 4.745C7.11008 4.95418 6.61008 5.24418 6.09426 5.63168C5.97676 5.71918 5.82426 5.74 5.68844 5.685L3.30262 4.72668L1.31762 8.075L3.35004 9.73246C3.46504 9.82246 3.52504 9.96664 3.50672 10.1125C3.46336 10.4625 3.44254 10.7441 3.44254 11C3.44254 11.2558 3.46254 11.5383 3.50672 11.8875C3.52504 12.0325 3.46504 12.1775 3.35004 12.2675L1.32754 13.8483C1.30754 13.8641 1.30422 13.9016 1.32172 13.9341L3.2334 17.2416L5.68758 16.3158C5.7384 16.295 5.7909 16.2858 5.8434 16.2858C5.9334 16.2858 6.0234 16.315 6.09758 16.3725C6.57676 16.7408 7.08926 17.0383 7.62176 17.2566C7.75844 17.3125 7.85508 17.4366 7.87676 17.5833L8.24094 20.1225L12.1301 20.1667L12.5509 17.5825C12.5718 17.4358 12.6693 17.3116 12.8059 17.2558C13.3176 17.0466 13.8168 16.7558 14.3334 16.3691C14.4501 16.2825 14.6034 16.2616 14.7384 16.3158L17.1243 17.2741ZM6.0459 10.9999C6.0459 8.70243 7.91508 6.83325 10.2126 6.83325C12.5101 6.83325 14.3793 8.70243 14.3793 10.9999C14.3793 13.2974 12.5101 15.1666 10.2126 15.1666C7.91508 15.1666 6.0459 13.2974 6.0459 10.9999ZM6.87926 10.9999C6.87926 12.8383 8.37426 14.3333 10.2126 14.3333C12.0509 14.3333 13.5459 12.8383 13.5459 10.9999C13.5459 9.16161 12.0509 7.66661 10.2126 7.66661C8.37426 7.66661 6.87926 9.16161 6.87926 10.9999Z" fill="white"/>
<path d="M19.6134 13.1925L19.6756 13.1142L19.675 13.1137L19.6134 13.1925ZM17.7751 11.755L17.6757 11.7442L17.6697 11.7995L17.7135 11.8338L17.7751 11.755ZM19.8376 14.3341L19.9242 14.3842L19.9254 14.382L19.8376 14.3341ZM17.9159 17.6583L17.8293 17.6083L17.8281 17.6104L17.9159 17.6583ZM16.8184 18.0491L16.7811 18.1419L16.7822 18.1424L16.8184 18.0491ZM14.6434 17.1758L14.6807 17.083L14.6299 17.0626L14.5853 17.0944L14.6434 17.1758ZM13.3434 17.9325L13.3022 17.8414L13.2522 17.864L13.2444 17.9183L13.3434 17.9325ZM13.0126 20.2408L12.9136 20.2266L12.9133 20.2285L13.0126 20.2408ZM7.41344 20.2325L7.5127 20.2202L7.51243 20.2183L7.41344 20.2325ZM7.08344 17.9325L7.18243 17.9183L7.17463 17.8639L7.12455 17.8413L7.08344 17.9325ZM5.78094 17.1767L5.83942 17.0956L5.79477 17.0634L5.74369 17.0839L5.78094 17.1767ZM3.61176 18.0475L3.64585 18.1416L3.64902 18.1403L3.61176 18.0475ZM2.50594 17.65L2.59373 17.6021L2.59252 17.6L2.50594 17.65ZM0.594262 14.3425L0.506423 14.3904L0.507683 14.3925L0.594262 14.3425ZM0.810981 13.1942L0.749371 13.1154L0.748894 13.1158L0.810981 13.1942ZM2.65098 11.755L2.71259 11.8338L2.75584 11.8L2.75051 11.7453L2.65098 11.755ZM2.65262 10.245L2.75209 10.2553L2.75779 10.2003L2.7142 10.1662L2.65262 10.245ZM0.814301 8.80836L0.752291 8.88681L0.752724 8.88715L0.814301 8.80836ZM0.597622 7.65504L0.683691 7.70596L0.684205 7.70507L0.597622 7.65504ZM2.5118 4.34254L2.59841 4.39259L2.59958 4.39045L2.5118 4.34254ZM3.6093 3.95172L3.64656 3.85892L3.6457 3.85858L3.6093 3.95172ZM5.7843 4.82504L5.74704 4.91784L5.79785 4.93824L5.84241 4.90642L5.7843 4.82504ZM7.0843 4.06836L7.12551 4.15947L7.17551 4.13686L7.18329 4.08254L7.0843 4.06836ZM7.41512 1.75918L7.51413 1.77336L7.51436 1.77151L7.41512 1.75918ZM13.0143 1.76754L12.915 1.77982L12.9153 1.78174L13.0143 1.76754ZM13.3443 4.06836L13.2453 4.08256L13.2531 4.13703L13.3033 4.15958L13.3443 4.06836ZM14.6459 4.82418L14.5874 4.90522L14.632 4.93752L14.6832 4.91698L14.6459 4.82418ZM16.8151 3.95336L16.7805 3.85949L16.7779 3.86056L16.8151 3.95336ZM17.9209 4.35086L17.8333 4.39901L17.8344 4.4009L17.9209 4.35086ZM19.8326 7.65836L19.9204 7.61036L19.9192 7.60832L19.8326 7.65836ZM19.6151 8.80668L19.6767 8.88547L19.6771 8.88514L19.6151 8.80668ZM17.7751 10.245L17.7135 10.1662L17.6699 10.2003L17.6757 10.2555L17.7751 10.245ZM19.1093 13.9258L19.1953 13.9768L19.196 13.9755L19.1093 13.9258ZM17.1243 17.2741L17.087 17.3669L17.1666 17.3989L17.2103 17.3251L17.1243 17.2741ZM19.0968 13.8475L19.1598 13.7698L19.1584 13.7687L19.0968 13.8475ZM17.0768 12.2675L17.0152 12.3463L17.0152 12.3463L17.0768 12.2675ZM16.9202 11.8875L17.0194 11.9L17.0194 11.8999L16.9202 11.8875ZM16.9202 10.1125L17.0194 10.1001L17.0194 10.1L16.9202 10.1125ZM17.0768 9.7325L17.0153 9.65371L17.0152 9.65375L17.0768 9.7325ZM19.0993 8.15168L19.1609 8.23047L19.1614 8.23011L19.0993 8.15168ZM19.1052 8.06668L19.1932 8.01925L19.1917 8.01664L19.1052 8.06668ZM17.1935 4.75918L17.2801 4.70914L17.2376 4.63566L17.1582 4.66562L17.1935 4.75918ZM14.7393 5.685L14.704 5.59141L14.7017 5.59235L14.7393 5.685ZM14.3301 5.62918L14.2692 5.70845L14.2693 5.70857L14.3301 5.62918ZM12.8059 4.745L12.8438 4.65245L12.8438 4.65243L12.8059 4.745ZM12.5509 4.41832L12.4519 4.43248L12.452 4.43294L12.5509 4.41832ZM12.1876 1.87832L12.2866 1.86416L12.2745 1.77932L12.1888 1.77833L12.1876 1.87832ZM8.29762 1.83332L8.29878 1.73333L8.21277 1.73233L8.19892 1.81722L8.29762 1.83332ZM7.87594 4.41832L7.77723 4.40222L7.77695 4.40416L7.87594 4.41832ZM7.62176 4.745L7.6596 4.83757L7.66007 4.83737L7.62176 4.745ZM6.09426 5.63168L6.15399 5.71188L6.15432 5.71163L6.09426 5.63168ZM5.68844 5.685L5.72598 5.59231L5.72571 5.59221L5.68844 5.685ZM3.30262 4.72668L3.33989 4.63389L3.26033 4.60193L3.2166 4.67568L3.30262 4.72668ZM1.31762 8.075L1.2316 8.024L1.18769 8.09808L1.25442 8.1525L1.31762 8.075ZM3.35004 9.73246L3.28683 9.80997L3.28841 9.81121L3.35004 9.73246ZM3.50672 10.1125L3.4075 10.1L3.40748 10.1002L3.50672 10.1125ZM3.50672 11.8875L3.60593 11.8749L3.60593 11.8749L3.50672 11.8875ZM3.35004 12.2675L3.41163 12.3462L3.41167 12.3462L3.35004 12.2675ZM1.32754 13.8483L1.26596 13.7695L1.2655 13.7699L1.32754 13.8483ZM1.32172 13.9341L1.23364 13.9815L1.23514 13.9841L1.32172 13.9341ZM3.2334 17.2416L3.14682 17.2916L3.18929 17.3651L3.2687 17.3352L3.2334 17.2416ZM5.68758 16.3158L5.72289 16.4094L5.72549 16.4083L5.68758 16.3158ZM6.09758 16.3725L6.03632 16.4515L6.03664 16.4517L6.09758 16.3725ZM7.62176 17.2566L7.58383 17.3492L7.58393 17.3492L7.62176 17.2566ZM7.87676 17.5833L7.97575 17.5691L7.97569 17.5687L7.87676 17.5833ZM8.24094 20.1225L8.14195 20.1367L8.15412 20.2215L8.2398 20.2225L8.24094 20.1225ZM12.1301 20.1667L12.129 20.2667L12.215 20.2676L12.2288 20.1828L12.1301 20.1667ZM12.5509 17.5825L12.6497 17.5986L12.6499 17.5966L12.5509 17.5825ZM12.8059 17.2558L12.8437 17.3484L12.8438 17.3484L12.8059 17.2558ZM14.3334 16.3691L14.2738 16.2889L14.2735 16.2891L14.3334 16.3691ZM14.7384 16.3158L14.7757 16.223L14.7757 16.223L14.7384 16.3158ZM19.675 13.1137L17.8367 11.6762L17.7135 11.8338L19.5518 13.2713L19.675 13.1137ZM19.9254 14.382C20.1606 13.9504 20.058 13.4177 19.6756 13.1142L19.5513 13.2708C19.8556 13.5123 19.9396 13.9379 19.7498 14.2863L19.9254 14.382ZM18.0025 17.7084L19.9242 14.3842L19.751 14.2841L17.8293 17.6083L18.0025 17.7084ZM16.7822 18.1424C17.2419 18.3209 17.7706 18.1332 18.0037 17.7062L17.8281 17.6104C17.6445 17.9467 17.2232 18.0991 16.8546 17.9559L16.7822 18.1424ZM14.6061 17.2686L16.7811 18.1419L16.8557 17.9563L14.6807 17.083L14.6061 17.2686ZM13.3846 18.0236C13.8278 17.8232 14.2625 17.5706 14.7015 17.2572L14.5853 17.0944C14.1559 17.401 13.7324 17.6468 13.3022 17.8414L13.3846 18.0236ZM13.1116 20.255L13.4424 17.9467L13.2444 17.9183L12.9136 20.2266L13.1116 20.255ZM12.1301 21.1C12.6276 21.1 13.052 20.7345 13.1118 20.2531L12.9133 20.2285C12.8665 20.6055 12.5309 20.9 12.1301 20.9V21.1ZM8.29676 21.1H12.1301V20.9H8.29676V21.1ZM7.3142 20.2448C7.37477 20.7339 7.79867 21.1 8.29676 21.1V20.9C7.89657 20.9 7.56047 20.6061 7.51268 20.2202L7.3142 20.2448ZM6.98445 17.9467L7.31445 20.2467L7.51243 20.2183L7.18243 17.9183L6.98445 17.9467ZM5.72246 17.2578C6.14272 17.5608 6.5852 17.8175 7.04233 18.0237L7.12455 17.8413C6.68004 17.6409 6.24916 17.3909 5.83942 17.0956L5.72246 17.2578ZM3.64902 18.1403L5.8182 17.2695L5.74369 17.0839L3.57451 17.9547L3.64902 18.1403ZM2.41817 17.6979C2.65049 18.1234 3.17171 18.3133 3.64583 18.1415L3.57769 17.9535C3.19182 18.0933 2.77639 17.9366 2.59371 17.6021L2.41817 17.6979ZM0.507683 14.3925L2.41936 17.7L2.59252 17.6L0.680841 14.2925L0.507683 14.3925ZM0.748894 13.1158C0.368157 13.4174 0.266739 13.9504 0.506451 14.3903L0.682073 14.2947C0.486786 13.9362 0.572086 13.511 0.873067 13.2726L0.748894 13.1158ZM2.58937 11.6763L0.749372 13.1155L0.87259 13.273L2.71259 11.8338L2.58937 11.6763ZM2.5093 11C2.5093 11.2334 2.52374 11.4809 2.55145 11.7648L2.75051 11.7453C2.72322 11.4658 2.7093 11.2251 2.7093 11H2.5093ZM2.55315 10.2347C2.5237 10.519 2.5093 10.7667 2.5093 11H2.7093C2.7093 10.775 2.72318 10.5344 2.75209 10.2553L2.55315 10.2347ZM0.752724 8.88715L2.59104 10.3238L2.7142 10.1662L0.875879 8.72957L0.752724 8.88715ZM0.511557 7.60412C0.260113 8.02911 0.363252 8.57931 0.752292 8.88681L0.87631 8.72991C0.565351 8.48412 0.48349 8.04433 0.683686 7.70596L0.511557 7.60412ZM2.42522 4.29251L0.511038 7.60501L0.684205 7.70507L2.59838 4.39257L2.42522 4.29251ZM3.6457 3.85858C3.18391 3.67811 2.65692 3.86797 2.42403 4.29463L2.59958 4.39045C2.78332 4.05383 3.20305 3.90032 3.5729 4.04486L3.6457 3.85858ZM5.82156 4.73224L3.64656 3.85892L3.57204 4.04452L5.74704 4.91784L5.82156 4.73224ZM7.04309 3.97725C6.59994 4.17767 6.16518 4.43022 5.72619 4.74365L5.84241 4.90642C6.27178 4.59985 6.6953 4.35405 7.12551 4.15947L7.04309 3.97725ZM7.31613 1.745L6.98531 4.05418L7.18329 4.08254L7.51411 1.77336L7.31613 1.745ZM8.29762 0.9C7.80009 0.9 7.37568 1.26553 7.31588 1.74685L7.51436 1.77151C7.5612 1.39447 7.89679 1.1 8.29762 1.1V0.9ZM12.1309 0.9H8.29762V1.1H12.1309V0.9ZM13.1135 1.75526C13.053 1.26612 12.6291 0.9 12.1309 0.9V1.1C12.5312 1.1 12.8673 1.39388 12.915 1.77982L13.1135 1.75526ZM13.4432 4.05416L13.1132 1.75334L12.9153 1.78174L13.2453 4.08256L13.4432 4.05416ZM14.7045 4.74314C14.2843 4.43933 13.8426 4.18254 13.3852 3.97714L13.3033 4.15958C13.7477 4.35918 14.1776 4.60903 14.5874 4.90522L14.7045 4.74314ZM16.7779 3.86056L14.6087 4.73138L14.6832 4.91698L16.8524 4.04616L16.7779 3.86056ZM18.0086 4.30272C17.7748 3.87706 17.2529 3.6855 16.7806 3.85953L16.8497 4.04719C17.2323 3.90622 17.6487 4.06302 17.8333 4.399L18.0086 4.30272ZM19.9192 7.60832L18.0075 4.30082L17.8344 4.4009L19.746 7.7084L19.9192 7.60832ZM19.6771 8.88514C20.0586 8.58366 20.1611 8.05051 19.9204 7.61037L19.7449 7.70635C19.9408 8.06449 19.855 8.4897 19.5531 8.72822L19.6771 8.88514ZM17.8367 10.3238L19.6767 8.88547L19.5535 8.72789L17.7135 10.1662L17.8367 10.3238ZM17.9184 11C17.9184 10.7211 17.8981 10.4582 17.8746 10.2345L17.6757 10.2555C17.6988 10.4751 17.7184 10.7305 17.7184 11H17.9184ZM17.8745 11.7658C17.899 11.5416 17.9184 11.2787 17.9184 11H17.7184C17.7184 11.2697 17.6996 11.5251 17.6757 11.7442L17.8745 11.7658ZM19.0232 13.8748L17.0382 17.2231L17.2103 17.3251L19.1953 13.9768L19.0232 13.8748ZM19.0339 13.9252C19.0203 13.9142 19.0177 13.9022 19.0172 13.8987C19.0167 13.8951 19.0162 13.8871 19.0225 13.8761L19.196 13.9755C19.2157 13.9413 19.2198 13.9028 19.2151 13.8703C19.2105 13.8378 19.195 13.7983 19.1598 13.7698L19.0339 13.9252ZM17.0152 12.3463L19.0352 13.9263L19.1584 13.7687L17.1384 12.1887L17.0152 12.3463ZM16.8209 11.875C16.7982 12.055 16.8726 12.2346 17.0152 12.3463L17.1385 12.1887C17.0511 12.1204 17.0055 12.01 17.0194 11.9L16.8209 11.875ZM16.8843 11C16.8843 11.3245 16.8525 11.623 16.8209 11.8751L17.0194 11.8999C17.0512 11.6453 17.0843 11.3371 17.0843 11H16.8843ZM16.8209 10.1249C16.8525 10.377 16.8843 10.6763 16.8843 11H17.0843C17.0843 10.6637 17.0512 10.3547 17.0194 10.1001L16.8209 10.1249ZM17.0152 9.65375C16.8726 9.76532 16.7982 9.94408 16.8209 10.125L17.0194 10.1C17.0055 9.98928 17.051 9.87968 17.1385 9.81125L17.0152 9.65375ZM19.0378 8.07289L17.0153 9.65371L17.1384 9.81129L19.1609 8.23047L19.0378 8.07289ZM19.0171 8.11409C19.0174 8.11471 19.0162 8.11306 19.0166 8.10794C19.0169 8.10386 19.0194 8.08738 19.0373 8.07325L19.1614 8.23011C19.1992 8.20016 19.2134 8.15743 19.216 8.12292C19.2187 8.08739 19.2104 8.05115 19.1932 8.01927L19.0171 8.11409ZM17.1069 4.80922L19.0186 8.11672L19.1917 8.01664L17.2801 4.70914L17.1069 4.80922ZM14.7746 5.77856L17.2288 4.85274L17.1582 4.66562L14.704 5.59144L14.7746 5.77856ZM14.2693 5.70857C14.4146 5.81986 14.6062 5.84701 14.7769 5.77765L14.7017 5.59235C14.5974 5.63471 14.4806 5.6185 14.3909 5.54979L14.2693 5.70857ZM12.7681 4.83756C13.291 5.05149 13.7958 5.34439 14.2692 5.70845L14.3911 5.54991C13.9044 5.17561 13.3842 4.87351 12.8438 4.65245L12.7681 4.83756ZM12.452 4.43294C12.4788 4.61421 12.5984 4.76821 12.7681 4.83757L12.8438 4.65243C12.7401 4.61008 12.6664 4.51579 12.6499 4.4037L12.452 4.43294ZM12.0886 1.89248L12.4519 4.43248L12.6499 4.40416L12.2866 1.86416L12.0886 1.89248ZM8.29646 1.93331L12.1865 1.97831L12.1888 1.77833L8.29878 1.73333L8.29646 1.93331ZM7.97464 4.43442L8.39632 1.84942L8.19892 1.81722L7.77725 4.40222L7.97464 4.43442ZM7.66007 4.83737C7.82916 4.76725 7.94904 4.61351 7.97493 4.43248L7.77695 4.40416C7.76112 4.51485 7.68772 4.60939 7.58346 4.65263L7.66007 4.83737ZM6.15432 5.71163C6.66438 5.32846 7.157 5.04303 7.6596 4.83756L7.58392 4.65244C7.06317 4.86533 6.55578 5.1599 6.0342 5.55173L6.15432 5.71163ZM5.65091 5.77769C5.81972 5.84605 6.00901 5.81985 6.15399 5.71188L6.03453 5.55148C5.94451 5.61851 5.8288 5.63395 5.72598 5.59231L5.65091 5.77769ZM3.26535 4.81947L5.65117 5.77779L5.72571 5.59221L3.33989 4.63389L3.26535 4.81947ZM1.40364 8.126L3.38864 4.77768L3.2166 4.67568L1.2316 8.024L1.40364 8.126ZM3.41324 9.65496L1.38082 7.9975L1.25442 8.1525L3.28684 9.80996L3.41324 9.65496ZM3.60594 10.1249C3.62867 9.94404 3.55424 9.76529 3.41167 9.65371L3.28841 9.81121C3.37584 9.87964 3.42142 9.98924 3.4075 10.1L3.60594 10.1249ZM3.54254 11C3.54254 10.7496 3.56291 10.4723 3.60596 10.1248L3.40748 10.1002C3.36381 10.4527 3.34254 10.7387 3.34254 11H3.54254ZM3.60593 11.8749C3.56212 11.5286 3.54254 11.2505 3.54254 11H3.34254C3.34254 11.2611 3.36297 11.5479 3.40751 11.9L3.60593 11.8749ZM3.41167 12.3462C3.55429 12.2346 3.62868 12.055 3.60593 11.8749L3.40751 11.9C3.4214 12.0099 3.3758 12.1203 3.28841 12.1887L3.41167 12.3462ZM1.38913 13.9271L3.41163 12.3462L3.28846 12.1887L1.26596 13.7695L1.38913 13.9271ZM1.40977 13.8867C1.4098 13.8868 1.40995 13.887 1.41009 13.8877C1.41022 13.8883 1.41049 13.8898 1.4103 13.8923C1.41006 13.8956 1.40789 13.9122 1.38958 13.9267L1.2655 13.7699C1.2272 13.8002 1.21337 13.8435 1.21084 13.8775C1.20822 13.9129 1.21636 13.9493 1.23368 13.9815L1.40977 13.8867ZM3.31998 17.1916L1.4083 13.8841L1.23514 13.9841L3.14682 17.2916L3.31998 17.1916ZM5.65229 16.2222L3.19811 17.148L3.2687 17.3352L5.72288 16.4093L5.65229 16.2222ZM5.8434 16.1858C5.77908 16.1858 5.71357 16.1971 5.64967 16.2232L5.72549 16.4083C5.76323 16.3929 5.80272 16.3858 5.8434 16.3858V16.1858ZM6.15885 16.2934C6.06658 16.2219 5.95487 16.1858 5.8434 16.1858V16.3858C5.91193 16.3858 5.98022 16.408 6.03632 16.4515L6.15885 16.2934ZM7.6597 17.1641C7.13585 16.9493 6.63104 16.6564 6.15853 16.2932L6.03664 16.4517C6.52248 16.8252 7.04267 17.1273 7.58383 17.3492L7.6597 17.1641ZM7.97569 17.5687C7.94889 17.3874 7.82931 17.2334 7.65959 17.1641L7.58393 17.3492C7.68757 17.3916 7.76127 17.4859 7.77784 17.5979L7.97569 17.5687ZM8.33993 20.1083L7.97575 17.5691L7.77777 17.5975L8.14195 20.1367L8.33993 20.1083ZM12.1313 20.0667L8.24208 20.0225L8.2398 20.2225L12.129 20.2667L12.1313 20.0667ZM12.4522 17.5664L12.0314 20.1506L12.2288 20.1828L12.6496 17.5986L12.4522 17.5664ZM12.7681 17.1632C12.5988 17.2324 12.4778 17.3863 12.4519 17.5684L12.6499 17.5966C12.6657 17.4853 12.7398 17.3909 12.8437 17.3484L12.7681 17.1632ZM14.2735 16.2891C13.7624 16.6716 13.2706 16.9578 12.7681 17.1633L12.8438 17.3484C13.3646 17.1355 13.8711 16.84 14.3934 16.4492L14.2735 16.2891ZM14.7757 16.223C14.6079 16.1557 14.418 16.1818 14.2738 16.2889L14.3931 16.4494C14.4823 16.3832 14.599 16.3676 14.7012 16.4086L14.7757 16.223ZM17.1615 17.1813L14.7757 16.223L14.7012 16.4086L17.087 17.3669L17.1615 17.1813ZM10.2126 6.73325C7.85985 6.73325 5.9459 8.6472 5.9459 10.9999H6.1459C6.1459 8.75766 7.97031 6.93325 10.2126 6.93325V6.73325ZM14.4793 10.9999C14.4793 8.6472 12.5653 6.73325 10.2126 6.73325V6.93325C12.4548 6.93325 14.2793 8.75766 14.2793 10.9999H14.4793ZM10.2126 15.2666C12.5653 15.2666 14.4793 13.3527 14.4793 10.9999H14.2793C14.2793 13.2422 12.4548 15.0666 10.2126 15.0666V15.2666ZM5.9459 10.9999C5.9459 13.3527 7.85985 15.2666 10.2126 15.2666V15.0666C7.97031 15.0666 6.1459 13.2422 6.1459 10.9999H5.9459ZM10.2126 14.2333C8.42949 14.2333 6.97926 12.783 6.97926 10.9999H6.77926C6.77926 12.8935 8.31903 14.4333 10.2126 14.4333V14.2333ZM13.4459 10.9999C13.4459 12.783 11.9957 14.2333 10.2126 14.2333V14.4333C12.1061 14.4333 13.6459 12.8935 13.6459 10.9999H13.4459ZM10.2126 7.76661C11.9957 7.76661 13.4459 9.21684 13.4459 10.9999H13.6459C13.6459 9.10638 12.1061 7.56661 10.2126 7.56661V7.76661ZM6.97926 10.9999C6.97926 9.21684 8.42949 7.76661 10.2126 7.76661V7.56661C8.31903 7.56661 6.77926 9.10638 6.77926 10.9999H6.97926Z" fill="#ADBACD" mask="url(#path-1-outside-1_4075_8867)"/>
</svg>
