<svg xmlns="http://www.w3.org/2000/svg" width="90" height="90" viewBox="0 0 90 90" fill="none">
<path d="M45 0C56.9347 0 68.3807 4.74106 76.8198 13.1802C85.2589 21.6193 90 33.0653 90 45C90 56.9347 85.2589 68.3807 76.8198 76.8198C68.3807 85.2589 56.9347 90 45 90C33.0653 90 21.6193 85.2589 13.1802 76.8198C4.74106 68.3807 0 56.9347 0 45C0 33.0653 4.74106 21.6193 13.1802 13.1802C21.6193 4.74106 33.0653 0 45 0M45 7.5C40.0754 7.5 35.1991 8.46997 30.6494 10.3545C26.0997 12.2391 21.9657 15.0013 18.4835 18.4835C11.4509 25.5161 7.5 35.0544 7.5 45C7.5 54 10.6875 62.25 15.975 68.7375L68.7375 15.975C62.0423 10.4915 53.6542 7.49666 45 7.5ZM45 82.5C54.9456 82.5 64.4839 78.5491 71.5165 71.5165C78.5491 64.4839 82.5 54.9456 82.5 45C82.5 36 79.3125 27.75 74.025 21.2625L21.2625 74.025C27.9577 79.5085 36.3458 82.5033 45 82.5Z" fill="#FF6B6C"/>
</svg>