<svg width="60" height="61" viewBox="0 0 60 61" fill="none" xmlns="http://www.w3.org/2000/svg">
<path d="M29.9997 41.6627C28.4584 41.6627 27.209 42.9122 27.209 44.4534C27.209 45.9947 28.4584 47.2441 29.9997 47.2441C31.5409 47.2441 32.7904 45.9947 32.7904 44.4534C32.7904 42.9122 31.5409 41.6627 29.9997 41.6627Z" fill="#0497EC"/>
<path d="M27.907 36.0814C27.907 37.2373 28.8441 38.1744 30 38.1744C31.1559 38.1744 32.093 37.2373 32.093 36.0814H27.907ZM32.093 16.5465C32.093 15.3906 31.1559 14.4535 30 14.4535C28.8441 14.4535 27.907 15.3906 27.907 16.5465H32.093ZM55.814 30.5C55.814 44.7566 44.2566 56.314 30 56.314V60.5C46.5686 60.5 60 47.0686 60 30.5H55.814ZM30 56.314C15.7434 56.314 4.18605 44.7566 4.18605 30.5H0C0 47.0686 13.4315 60.5 30 60.5V56.314ZM4.18605 30.5C4.18605 16.2434 15.7434 4.68605 30 4.68605V0.5C13.4315 0.5 0 13.9315 0 30.5H4.18605ZM30 4.68605C44.2566 4.68605 55.814 16.2434 55.814 30.5H60C60 13.9315 46.5686 0.5 30 0.5V4.68605ZM32.093 36.0814V16.5465H27.907V36.0814H32.093Z" fill="#0497EC"/>
</svg>
