<svg width="8" height="12" viewBox="0 0 8 12" fill="none" xmlns="http://www.w3.org/2000/svg">
<path d="M7.09933 4.50644C7.07086 4.47077 7.03635 4.47778 7.01826 4.48506C7.00311 4.4912 6.96839 4.51083 6.97319 4.56003C6.97897 4.61909 6.9822 4.67932 6.98282 4.73905C6.9854 4.98682 6.886 5.22957 6.71014 5.40505C6.53539 5.57939 6.30554 5.67332 6.06082 5.6706C5.72653 5.66633 5.44926 5.49197 5.25899 5.16636C5.10166 4.89712 5.17081 4.54986 5.24402 4.18219C5.28686 3.96699 5.33117 3.74445 5.33117 3.53264C5.33117 1.88348 4.22249 0.932037 3.56163 0.51167C3.54796 0.50299 3.53495 0.499939 3.52342 0.499939C3.50468 0.499939 3.48984 0.508021 3.48252 0.512969C3.46833 0.522577 3.44563 0.544472 3.45293 0.583233C3.70553 1.92464 2.9521 2.73141 2.15441 3.58555C1.33219 4.46597 0.400269 5.46387 0.400269 7.2636C0.400269 9.35477 2.10155 11.056 4.19272 11.056C5.91452 11.056 7.43259 9.85563 7.88436 8.13684C8.19242 6.96489 7.86959 5.47203 7.09933 4.50644ZM4.28733 10.2466C3.7637 10.2704 3.26571 10.0826 2.88534 9.71893C2.50905 9.35912 2.29323 8.85698 2.29323 8.34126C2.29323 7.37347 2.66327 6.66299 3.65855 5.71979C3.67484 5.70435 3.69151 5.69946 3.70605 5.69946C3.71922 5.69946 3.73065 5.70348 3.7385 5.70726C3.75506 5.71523 3.78227 5.73499 3.7786 5.7777C3.74302 6.1918 3.74363 6.53551 3.78042 6.79933C3.87443 7.47321 4.36774 7.92599 5.00801 7.92599C5.32193 7.92599 5.62095 7.80785 5.84998 7.59333C5.87656 7.56842 5.90625 7.5716 5.91763 7.57401C5.9327 7.57727 5.95288 7.5865 5.96346 7.61201C6.05842 7.84129 6.10696 8.08468 6.1077 8.33537C6.11073 9.34407 5.29412 10.2014 4.28733 10.2466Z" fill="#FF6B6C"/>
</svg>
