<svg width="12" height="12" viewBox="0 0 12 12" fill="none" xmlns="http://www.w3.org/2000/svg">
<path fill-rule="evenodd" clip-rule="evenodd" d="M10.6464 0.763695C10.8417 0.568433 11.1583 0.568433 11.3536 0.763695C11.5488 0.958957 11.5488 1.27554 11.3536 1.4708L6.70711 6.11725L11.3536 10.7637C11.5488 10.959 11.5488 11.2755 11.3536 11.4708C11.1583 11.6661 10.8417 11.6661 10.6464 11.4708L6 6.82436L1.35355 11.4708C1.15829 11.6661 0.841708 11.6661 0.646446 11.4708C0.451184 11.2755 0.451184 10.959 0.646446 10.7637L5.29289 6.11725L0.646447 1.4708C0.451185 1.27554 0.451185 0.958957 0.646447 0.763695C0.841709 0.568433 1.15829 0.568433 1.35355 0.763695L6 5.41014L10.6464 0.763695Z" fill="#687386"/>
</svg>
