<svg xmlns="http://www.w3.org/2000/svg" viewBox="0 0 90 90" fill="none">
  <path d="M90 45C90 69.8528 69.8528 90 45 90C20.1472 90 0 69.8528 0 45C0 20.1472 20.1472 0 45 0C69.8528 0 90 20.1472 90 45ZM3.96106 45C3.96106 67.6652 22.3348 86.0389 45 86.0389C67.6652 86.0389 86.0389 67.6652 86.0389 45C86.0389 22.3348 67.6652 3.96106 45 3.96106C22.3348 3.96106 3.96106 22.3348 3.96106 45Z" fill="#0497EC"/>
  <path fill-rule="evenodd" clip-rule="evenodd" d="M70.1187 29.8104C70.9323 30.6736 70.9323 32.0732 70.1187 32.9364L42.3568 62.3915C41.9322 62.842 41.37 63.0574 40.8138 63.0377C40.2802 63.0376 39.7466 62.8216 39.3394 62.3896L24.5129 46.6589C23.6985 45.7948 23.6985 44.3937 24.5129 43.5296C25.3274 42.6654 26.6479 42.6654 27.4624 43.5296L40.8521 57.7359L67.1724 29.8104C67.986 28.9472 69.3051 28.9472 70.1187 29.8104Z" fill="#91B845"/>
</svg>
