<svg width="21" height="22" viewBox="0 0 21 22" fill="none" xmlns="http://www.w3.org/2000/svg">
<path d="M5.68771 5.685C5.82353 5.74 5.97603 5.71918 6.09353 5.63168C6.60935 5.24418 7.10935 4.95418 7.62103 4.745L3.50599 11.8875C3.46181 11.5383 3.44181 11.2558 3.44181 11C3.44181 10.7441 3.46263 10.4625 3.50599 10.1125C3.52431 9.96664 3.46431 9.82246 3.34931 9.73246M5.68771 5.685L3.30189 4.72668M5.68771 5.685L5.66894 5.73134M5.68771 5.685L5.66894 5.73134M3.30189 4.72668L1.31689 8.075M3.30189 4.72668L3.28325 4.77308L3.32304 4.78906M3.30189 4.72668L3.3449 4.75218L3.32304 4.78906M1.31689 8.075L3.34931 9.73246M1.31689 8.075L1.3599 8.1005L1.38186 8.06346M1.31689 8.075L1.34849 8.03625L1.38186 8.06346M3.34931 9.73246L3.38091 9.69371L3.38054 9.69341L5.66907 5.7314M3.34931 9.73246L3.38013 9.69309L1.38186 8.06346M1.38186 8.06346L3.32304 4.78906M3.32304 4.78906L5.66894 5.73134M5.66894 5.73134C5.66899 5.73136 5.66903 5.73138 5.66907 5.7314M5.66907 5.7314C5.82136 5.79301 5.99219 5.76948 6.12339 5.67178L6.12356 5.67166C6.6365 5.28632 7.13281 4.99861 7.63995 4.79128L7.64018 4.79119C7.79292 4.72785 7.90111 4.58913 7.92463 4.4259L5.66907 5.7314ZM14.7563 16.2694L14.7563 16.2694L17.1024 17.2118L19.0651 13.901C19.0651 13.901 19.0651 13.901 19.0652 13.9009C19.0653 13.9007 19.0656 13.8998 19.0659 13.8982C19.0662 13.8962 19.0663 13.8939 19.0659 13.8916C19.0654 13.888 19.0644 13.8864 19.0642 13.886L17.0453 12.3069L17.0761 12.2675L17.0453 12.3069C16.9165 12.2061 16.8493 12.0438 16.8698 11.8812M14.7563 16.2694L19.1044 8.06668L19.0611 8.0917L19.0607 8.09094C19.065 8.09916 19.0661 8.10675 19.0657 8.11169C19.0656 8.11279 19.0655 8.11361 19.0654 8.11419M14.7563 16.2694C14.6049 16.2087 14.4333 16.2322 14.3029 16.329L14.3027 16.3291M14.7563 16.2694L14.3027 16.3291M16.8698 11.8812L16.9194 11.8875L16.8698 11.8813C16.8698 11.8813 16.8698 11.8813 16.8698 11.8812ZM16.8698 11.8812C16.9014 11.6285 16.9336 11.3277 16.9336 11C16.9336 10.6731 16.9014 10.3714 16.8698 10.1187M16.8698 10.1187L16.9194 10.1125L16.8698 10.1187C16.8698 10.1187 16.8698 10.1187 16.8698 10.1187ZM16.8698 10.1187C16.8493 9.95536 16.9165 9.79391 17.0453 9.69312L17.0453 9.69311L19.0654 8.11419M19.0654 8.11419C19.0649 8.11653 19.0644 8.11496 19.0676 8.11247M19.0654 8.11419L19.0676 8.11247M19.0676 8.11247L19.0986 8.15168L19.0678 8.11229L19.0676 8.11247ZM17.1707 4.82094L19.0604 8.09038L14.7386 5.685L14.7574 5.73132L17.1707 4.82094ZM17.1707 4.82094L17.2104 4.80596L17.1927 4.75918L17.1495 4.7842L17.1707 4.82094ZM14.3027 16.3291C13.7889 16.7137 13.2934 17.0022 12.7863 17.2095M14.3027 16.3291L7.92549 17.576M7.92549 17.576L7.92552 17.5762L8.28362 20.073L12.087 20.1162L12.5007 17.5755C12.5007 17.5753 12.5008 17.5751 12.5008 17.5749C12.5243 17.4108 12.6334 17.272 12.7863 17.2095M7.92549 17.576C7.90126 17.4121 7.79317 17.273 7.64 17.2104M7.92549 17.576L7.64 17.2104M12.7863 17.2095L12.8052 17.2558M12.7863 17.2095C12.7863 17.2095 12.7863 17.2095 12.7863 17.2095L12.8052 17.2558M12.8052 17.2558C13.3169 17.0466 13.816 16.7558 14.3327 16.3691L12.5502 17.5825C12.571 17.4358 12.6685 17.3116 12.8052 17.2558ZM7.64 17.2104C7.11188 16.9939 6.60328 16.6987 6.12748 16.3329L7.64 17.2104ZM19.6438 13.1533L19.6435 13.1531L17.8271 11.7327C17.85 11.516 17.8677 11.2651 17.8677 11C17.8677 10.7348 17.8492 10.4839 17.827 10.2674L19.6452 8.84607L19.6454 8.84591C20.007 8.56017 20.1053 8.05401 19.8758 7.63436L19.8752 7.63334L17.964 4.32679C17.9639 4.32662 17.9638 4.32645 17.9638 4.32629C17.7421 3.9234 17.2468 3.74075 16.7971 3.90644L16.7971 3.90642L16.7958 3.90696L14.6521 4.76753C14.2489 4.4782 13.8262 4.23245 13.3891 4.03409L13.0631 1.7614C13.0631 1.76123 13.0631 1.76107 13.0631 1.7609C13.0055 1.29781 12.6037 0.95 12.1302 0.95H8.29689C7.82369 0.95 7.4216 1.29753 7.36483 1.75255L7.03795 4.03417C6.61417 4.22787 6.19755 4.46996 5.77684 4.76846L3.6272 3.90532L3.6272 3.90532L3.62677 3.90515C3.18816 3.73374 2.68824 3.91427 2.46748 4.31804L0.553857 7.62958C0.553814 7.62965 0.55377 7.62972 0.553727 7.6298C0.31526 8.0331 0.413111 8.55557 0.782564 8.84759L0.78278 8.84776L2.59934 10.2674C2.57193 10.5389 2.55857 10.7763 2.55857 11C2.55857 11.2238 2.57197 11.4612 2.59785 11.7325L0.779443 13.1548L0.779205 13.155C0.418407 13.4408 0.321018 13.9469 0.549624 14.3664L0.54961 14.3664L0.55024 14.3675L2.46133 17.674C2.46143 17.6741 2.46153 17.6743 2.46163 17.6745C2.68169 18.0769 3.17621 18.2582 3.62806 18.0945L3.62807 18.0945L3.62966 18.0939L5.77335 17.2333C6.17659 17.5219 6.6001 17.7676 7.03711 17.9667L7.36309 20.2386C7.36311 20.2388 7.36313 20.239 7.36315 20.2391C7.42074 20.7022 7.82258 21.05 8.29603 21.05H12.1293C12.6025 21.05 13.0046 20.7025 13.0614 20.2475C13.0614 20.2473 13.0614 20.2471 13.0615 20.247L13.3883 17.9667C13.8121 17.773 14.2287 17.5309 14.6494 17.2324L16.799 18.0955L16.7996 18.0958C17.2363 18.2653 17.7379 18.0867 17.9588 17.6828C17.9589 17.6826 17.959 17.6825 17.9591 17.6823L19.8801 14.3592L19.8801 14.3592L19.8808 14.3581C20.1046 13.9473 20.0066 13.4413 19.6438 13.1533ZM3.49181 11C3.49181 10.7469 3.5124 10.4674 3.55561 10.1187L6.1274 16.3329C6.0442 16.2684 5.94337 16.2358 5.84267 16.2358C5.78449 16.2358 5.72571 16.2459 5.66857 16.2692C5.66834 16.2693 5.66812 16.2694 5.66789 16.2695L3.25473 17.1798L1.36501 13.9104C1.36491 13.9102 1.36482 13.91 1.36472 13.9098C1.36049 13.9017 1.35931 13.8939 1.3597 13.8886C1.3598 13.8873 1.35996 13.8864 1.36011 13.8857L3.3801 12.3069L3.38013 12.3068C3.50893 12.206 3.57613 12.0437 3.5556 11.8812L3.55559 11.8812C3.5116 11.5335 3.49181 11.2531 3.49181 11Z" fill="#0F172A" stroke="#687386" stroke-width="0.1"/>
<path d="M10.2118 6.78328C7.88673 6.78328 5.99517 8.67485 5.99517 11C5.99517 13.3251 7.88673 15.2166 10.2118 15.2166C12.537 15.2166 14.4285 13.3251 14.4285 11C14.4285 8.67485 12.537 6.78328 10.2118 6.78328ZM10.2118 14.2833C8.40114 14.2833 6.92853 12.8107 6.92853 11C6.92853 9.18926 8.40114 7.71664 10.2118 7.71664C12.0226 7.71664 13.4952 9.18926 13.4952 11C13.4952 12.8107 12.0226 14.2833 10.2118 14.2833Z" fill="#0F172A" stroke="#687386" stroke-width="0.1"/>
</svg>
