<svg width="21" height="22" viewBox="0 0 21 22" fill="none" xmlns="http://www.w3.org/2000/svg">
<mask id="path-1-outside-1_3316_6836" maskUnits="userSpaceOnUse" x="-0.526123" y="0" width="21" height="22" fill="black">
<rect fill="white" x="-0.526123" width="21" height="22"/>
<path fill-rule="evenodd" clip-rule="evenodd" d="M17.7744 11.755L19.6127 13.1925C19.956 13.465 20.0494 13.9442 19.8368 14.3341L17.9152 17.6583C17.7068 18.04 17.2318 18.21 16.8177 18.0491L14.6427 17.1758C14.2085 17.4858 13.7793 17.735 13.3427 17.9325L13.0118 20.2408C12.9585 20.67 12.5785 21 12.1293 21H8.29603C7.84689 21 7.46689 20.67 7.41271 20.2325L7.08271 17.9325C6.63189 17.7292 6.19521 17.4759 5.78021 17.1767L3.61103 18.0475C3.18103 18.2033 2.71271 18.03 2.50521 17.65L0.59353 14.3425C0.37603 13.9433 0.469389 13.4642 0.810248 13.1942L2.65025 11.755C2.62275 11.4734 2.60857 11.2292 2.60857 11C2.60857 10.7709 2.62271 10.5267 2.65189 10.245L0.813569 8.80836C0.463569 8.53172 0.371069 8.03672 0.596889 7.65504L2.51107 4.34254C2.71939 3.9609 3.19275 3.78922 3.60857 3.95172L5.78357 4.82504C6.21775 4.51504 6.64689 4.26586 7.08357 4.06836L7.41439 1.75918C7.46771 1.33 7.84771 1 8.29689 1H12.1302C12.5794 1 12.9594 1.33 13.0135 1.76754L13.3435 4.06836C13.7944 4.27086 14.2302 4.52418 14.6452 4.82418L16.8144 3.95336C17.2419 3.79586 17.711 3.97004 17.9202 4.35086L19.8319 7.65836C20.0502 8.0575 19.9561 8.53668 19.6144 8.80668L17.7744 10.245C17.7977 10.4667 17.8177 10.7258 17.8177 11C17.8177 11.2742 17.7986 11.5333 17.7744 11.755ZM17.1235 17.2741L19.1085 13.9258C19.1219 13.9025 19.1177 13.865 19.0961 13.8475L17.0761 12.2675C16.9611 12.1775 16.9011 12.0325 16.9194 11.8875C16.9511 11.6342 16.9836 11.3308 16.9836 11C16.9836 10.67 16.9511 10.3658 16.9194 10.1125C16.9011 9.96668 16.9611 9.8225 17.0761 9.7325L19.0986 8.15168C19.1186 8.13586 19.1219 8.09918 19.1044 8.06668L17.1927 4.75918L14.7386 5.685C14.6011 5.74086 14.4469 5.71918 14.3294 5.62918C13.8494 5.26 13.3369 4.9625 12.8052 4.745C12.6685 4.68914 12.5719 4.565 12.5502 4.41832L12.1869 1.87832L8.29689 1.83332L7.87521 4.41832C7.85435 4.56418 7.75771 4.68832 7.62103 4.745C7.10935 4.95418 6.60935 5.24418 6.09353 5.63168C5.97603 5.71918 5.82353 5.74 5.68771 5.685L3.30189 4.72668L1.31689 8.075L3.34931 9.73246C3.46431 9.82246 3.52431 9.96664 3.50599 10.1125C3.46263 10.4625 3.44181 10.7441 3.44181 11C3.44181 11.2558 3.46181 11.5383 3.50599 11.8875C3.52431 12.0325 3.46431 12.1775 3.34931 12.2675L1.32681 13.8483C1.30681 13.8641 1.30349 13.9016 1.32099 13.9341L3.23267 17.2416L5.68685 16.3158C5.73767 16.295 5.79017 16.2858 5.84267 16.2858C5.93267 16.2858 6.02267 16.315 6.09685 16.3725C6.57603 16.7408 7.08853 17.0383 7.62103 17.2566C7.75771 17.3125 7.85435 17.4366 7.87603 17.5833L8.24021 20.1225L12.1294 20.1667L12.5502 17.5825C12.571 17.4358 12.6685 17.3116 12.8052 17.2558C13.3169 17.0466 13.816 16.7558 14.3327 16.3691C14.4494 16.2825 14.6027 16.2616 14.7377 16.3158L17.1235 17.2741ZM6.04517 11C6.04517 8.70246 7.91435 6.83328 10.2118 6.83328C12.5093 6.83328 14.3785 8.70246 14.3785 11C14.3785 13.2975 12.5093 15.1666 10.2118 15.1666C7.91435 15.1666 6.04517 13.2975 6.04517 11ZM6.87853 11C6.87853 12.8383 8.37353 14.3333 10.2118 14.3333C12.0502 14.3333 13.5452 12.8383 13.5452 11C13.5452 9.16164 12.0502 7.66664 10.2118 7.66664C8.37353 7.66664 6.87853 9.16164 6.87853 11Z"/>
</mask>
<path fill-rule="evenodd" clip-rule="evenodd" d="M17.7744 11.755L19.6127 13.1925C19.956 13.465 20.0494 13.9442 19.8368 14.3341L17.9152 17.6583C17.7068 18.04 17.2318 18.21 16.8177 18.0491L14.6427 17.1758C14.2085 17.4858 13.7793 17.735 13.3427 17.9325L13.0118 20.2408C12.9585 20.67 12.5785 21 12.1293 21H8.29603C7.84689 21 7.46689 20.67 7.41271 20.2325L7.08271 17.9325C6.63189 17.7292 6.19521 17.4759 5.78021 17.1767L3.61103 18.0475C3.18103 18.2033 2.71271 18.03 2.50521 17.65L0.59353 14.3425C0.37603 13.9433 0.469389 13.4642 0.810248 13.1942L2.65025 11.755C2.62275 11.4734 2.60857 11.2292 2.60857 11C2.60857 10.7709 2.62271 10.5267 2.65189 10.245L0.813569 8.80836C0.463569 8.53172 0.371069 8.03672 0.596889 7.65504L2.51107 4.34254C2.71939 3.9609 3.19275 3.78922 3.60857 3.95172L5.78357 4.82504C6.21775 4.51504 6.64689 4.26586 7.08357 4.06836L7.41439 1.75918C7.46771 1.33 7.84771 1 8.29689 1H12.1302C12.5794 1 12.9594 1.33 13.0135 1.76754L13.3435 4.06836C13.7944 4.27086 14.2302 4.52418 14.6452 4.82418L16.8144 3.95336C17.2419 3.79586 17.711 3.97004 17.9202 4.35086L19.8319 7.65836C20.0502 8.0575 19.9561 8.53668 19.6144 8.80668L17.7744 10.245C17.7977 10.4667 17.8177 10.7258 17.8177 11C17.8177 11.2742 17.7986 11.5333 17.7744 11.755ZM17.1235 17.2741L19.1085 13.9258C19.1219 13.9025 19.1177 13.865 19.0961 13.8475L17.0761 12.2675C16.9611 12.1775 16.9011 12.0325 16.9194 11.8875C16.9511 11.6342 16.9836 11.3308 16.9836 11C16.9836 10.67 16.9511 10.3658 16.9194 10.1125C16.9011 9.96668 16.9611 9.8225 17.0761 9.7325L19.0986 8.15168C19.1186 8.13586 19.1219 8.09918 19.1044 8.06668L17.1927 4.75918L14.7386 5.685C14.6011 5.74086 14.4469 5.71918 14.3294 5.62918C13.8494 5.26 13.3369 4.9625 12.8052 4.745C12.6685 4.68914 12.5719 4.565 12.5502 4.41832L12.1869 1.87832L8.29689 1.83332L7.87521 4.41832C7.85435 4.56418 7.75771 4.68832 7.62103 4.745C7.10935 4.95418 6.60935 5.24418 6.09353 5.63168C5.97603 5.71918 5.82353 5.74 5.68771 5.685L3.30189 4.72668L1.31689 8.075L3.34931 9.73246C3.46431 9.82246 3.52431 9.96664 3.50599 10.1125C3.46263 10.4625 3.44181 10.7441 3.44181 11C3.44181 11.2558 3.46181 11.5383 3.50599 11.8875C3.52431 12.0325 3.46431 12.1775 3.34931 12.2675L1.32681 13.8483C1.30681 13.8641 1.30349 13.9016 1.32099 13.9341L3.23267 17.2416L5.68685 16.3158C5.73767 16.295 5.79017 16.2858 5.84267 16.2858C5.93267 16.2858 6.02267 16.315 6.09685 16.3725C6.57603 16.7408 7.08853 17.0383 7.62103 17.2566C7.75771 17.3125 7.85435 17.4366 7.87603 17.5833L8.24021 20.1225L12.1294 20.1667L12.5502 17.5825C12.571 17.4358 12.6685 17.3116 12.8052 17.2558C13.3169 17.0466 13.816 16.7558 14.3327 16.3691C14.4494 16.2825 14.6027 16.2616 14.7377 16.3158L17.1235 17.2741ZM6.04517 11C6.04517 8.70246 7.91435 6.83328 10.2118 6.83328C12.5093 6.83328 14.3785 8.70246 14.3785 11C14.3785 13.2975 12.5093 15.1666 10.2118 15.1666C7.91435 15.1666 6.04517 13.2975 6.04517 11ZM6.87853 11C6.87853 12.8383 8.37353 14.3333 10.2118 14.3333C12.0502 14.3333 13.5452 12.8383 13.5452 11C13.5452 9.16164 12.0502 7.66664 10.2118 7.66664C8.37353 7.66664 6.87853 9.16164 6.87853 11Z" fill="#0F172A"/>
<path d="M19.6127 13.1925L19.6749 13.1142L19.6743 13.1137L19.6127 13.1925ZM17.7744 11.755L17.675 11.7442L17.6689 11.7995L17.7128 11.8338L17.7744 11.755ZM19.8368 14.3341L19.9234 14.3842L19.9247 14.382L19.8368 14.3341ZM17.9152 17.6583L17.8286 17.6083L17.8274 17.6104L17.9152 17.6583ZM16.8177 18.0491L16.7804 18.1419L16.7815 18.1424L16.8177 18.0491ZM14.6427 17.1758L14.6799 17.083L14.6291 17.0626L14.5846 17.0944L14.6427 17.1758ZM13.3427 17.9325L13.3015 17.8414L13.2515 17.864L13.2437 17.9183L13.3427 17.9325ZM13.0118 20.2408L12.9128 20.2266L12.9126 20.2285L13.0118 20.2408ZM7.41271 20.2325L7.51197 20.2202L7.5117 20.2183L7.41271 20.2325ZM7.08271 17.9325L7.1817 17.9183L7.17389 17.8639L7.12382 17.8413L7.08271 17.9325ZM5.78021 17.1767L5.83869 17.0956L5.79404 17.0634L5.74295 17.0839L5.78021 17.1767ZM3.61103 18.0475L3.64512 18.1416L3.64828 18.1403L3.61103 18.0475ZM2.50521 17.65L2.593 17.6021L2.59179 17.6L2.50521 17.65ZM0.59353 14.3425L0.505691 14.3904L0.506951 14.3925L0.59353 14.3425ZM0.810248 13.1942L0.748638 13.1154L0.748162 13.1158L0.810248 13.1942ZM2.65025 11.755L2.71186 11.8338L2.75511 11.8L2.74978 11.7453L2.65025 11.755ZM2.65189 10.245L2.75136 10.2553L2.75706 10.2003L2.71347 10.1662L2.65189 10.245ZM0.813569 8.80836L0.751559 8.88681L0.751991 8.88715L0.813569 8.80836ZM0.596889 7.65504L0.682958 7.70596L0.683472 7.70507L0.596889 7.65504ZM2.51107 4.34254L2.59768 4.39259L2.59884 4.39045L2.51107 4.34254ZM3.60857 3.95172L3.64583 3.85892L3.64497 3.85858L3.60857 3.95172ZM5.78357 4.82504L5.74631 4.91784L5.79712 4.93824L5.84168 4.90642L5.78357 4.82504ZM7.08357 4.06836L7.12478 4.15947L7.17477 4.13686L7.18256 4.08254L7.08357 4.06836ZM7.41439 1.75918L7.51339 1.77336L7.51363 1.77151L7.41439 1.75918ZM13.0135 1.76754L12.9143 1.77982L12.9145 1.78174L13.0135 1.76754ZM13.3435 4.06836L13.2445 4.08256L13.2524 4.13703L13.3026 4.15958L13.3435 4.06836ZM14.6452 4.82418L14.5866 4.90522L14.6313 4.93752L14.6825 4.91698L14.6452 4.82418ZM16.8144 3.95336L16.7798 3.85949L16.7771 3.86056L16.8144 3.95336ZM17.9202 4.35086L17.8325 4.39901L17.8336 4.4009L17.9202 4.35086ZM19.8319 7.65836L19.9196 7.61036L19.9185 7.60832L19.8319 7.65836ZM19.6144 8.80668L19.676 8.88547L19.6764 8.88514L19.6144 8.80668ZM17.7744 10.245L17.7128 10.1662L17.6691 10.2003L17.6749 10.2555L17.7744 10.245ZM19.1085 13.9258L19.1946 13.9768L19.1953 13.9755L19.1085 13.9258ZM17.1235 17.2741L17.0863 17.3669L17.1658 17.3989L17.2095 17.3251L17.1235 17.2741ZM19.0961 13.8475L19.1591 13.7698L19.1577 13.7687L19.0961 13.8475ZM17.0761 12.2675L17.0145 12.3463L17.0145 12.3463L17.0761 12.2675ZM16.9194 11.8875L17.0186 11.9L17.0187 11.8999L16.9194 11.8875ZM16.9194 10.1125L17.0187 10.1001L17.0186 10.1L16.9194 10.1125ZM17.0761 9.7325L17.0145 9.65371L17.0145 9.65375L17.0761 9.7325ZM19.0986 8.15168L19.1602 8.23047L19.1606 8.23011L19.0986 8.15168ZM19.1044 8.06668L19.1925 8.01925L19.191 8.01664L19.1044 8.06668ZM17.1927 4.75918L17.2793 4.70914L17.2369 4.63566L17.1575 4.66562L17.1927 4.75918ZM14.7386 5.685L14.7033 5.59141L14.7009 5.59235L14.7386 5.685ZM14.3294 5.62918L14.2684 5.70845L14.2686 5.70857L14.3294 5.62918ZM12.8052 4.745L12.8431 4.65245L12.843 4.65243L12.8052 4.745ZM12.5502 4.41832L12.4512 4.43248L12.4513 4.43294L12.5502 4.41832ZM12.1869 1.87832L12.2859 1.86416L12.2737 1.77932L12.188 1.77833L12.1869 1.87832ZM8.29689 1.83332L8.29804 1.73333L8.21204 1.73233L8.19819 1.81722L8.29689 1.83332ZM7.87521 4.41832L7.77649 4.40222L7.77622 4.40416L7.87521 4.41832ZM7.62103 4.745L7.65887 4.83757L7.65933 4.83737L7.62103 4.745ZM6.09353 5.63168L6.15326 5.71188L6.15359 5.71163L6.09353 5.63168ZM5.68771 5.685L5.72524 5.59231L5.72498 5.59221L5.68771 5.685ZM3.30189 4.72668L3.33916 4.63389L3.2596 4.60193L3.21587 4.67568L3.30189 4.72668ZM1.31689 8.075L1.23087 8.024L1.18696 8.09808L1.25369 8.1525L1.31689 8.075ZM3.34931 9.73246L3.2861 9.80997L3.28768 9.81121L3.34931 9.73246ZM3.50599 10.1125L3.40677 10.1L3.40675 10.1002L3.50599 10.1125ZM3.50599 11.8875L3.6052 11.8749L3.6052 11.8749L3.50599 11.8875ZM3.34931 12.2675L3.41089 12.3462L3.41094 12.3462L3.34931 12.2675ZM1.32681 13.8483L1.26523 13.7695L1.26477 13.7699L1.32681 13.8483ZM1.32099 13.9341L1.2329 13.9815L1.23441 13.9841L1.32099 13.9341ZM3.23267 17.2416L3.14609 17.2916L3.18856 17.3651L3.26797 17.3352L3.23267 17.2416ZM5.68685 16.3158L5.72216 16.4094L5.72476 16.4083L5.68685 16.3158ZM6.09685 16.3725L6.03558 16.4515L6.0359 16.4517L6.09685 16.3725ZM7.62103 17.2566L7.58309 17.3492L7.5832 17.3492L7.62103 17.2566ZM7.87603 17.5833L7.97502 17.5691L7.97495 17.5687L7.87603 17.5833ZM8.24021 20.1225L8.14122 20.1367L8.15339 20.2215L8.23907 20.2225L8.24021 20.1225ZM12.1294 20.1667L12.1283 20.2667L12.2143 20.2676L12.2281 20.1828L12.1294 20.1667ZM12.5502 17.5825L12.6489 17.5986L12.6492 17.5966L12.5502 17.5825ZM12.8052 17.2558L12.843 17.3484L12.843 17.3484L12.8052 17.2558ZM14.3327 16.3691L14.2731 16.2889L14.2728 16.2891L14.3327 16.3691ZM14.7377 16.3158L14.775 16.223L14.775 16.223L14.7377 16.3158ZM19.6743 13.1137L17.836 11.6762L17.7128 11.8338L19.5511 13.2713L19.6743 13.1137ZM19.9247 14.382C20.1599 13.9504 20.0572 13.4177 19.6749 13.1142L19.5505 13.2708C19.8548 13.5123 19.9389 13.9379 19.749 14.2863L19.9247 14.382ZM18.0017 17.7084L19.9234 14.3842L19.7503 14.2841L17.8286 17.6083L18.0017 17.7084ZM16.7815 18.1424C17.2412 18.3209 17.7699 18.1332 18.0029 17.7062L17.8274 17.6104C17.6438 17.9467 17.2225 18.0991 16.8539 17.9559L16.7815 18.1424ZM14.6054 17.2686L16.7804 18.1419L16.8549 17.9563L14.6799 17.083L14.6054 17.2686ZM13.3839 18.0236C13.827 17.8232 14.2618 17.5706 14.7008 17.2572L14.5846 17.0944C14.1552 17.401 13.7317 17.6468 13.3015 17.8414L13.3839 18.0236ZM13.1108 20.255L13.4417 17.9467L13.2437 17.9183L12.9129 20.2266L13.1108 20.255ZM12.1293 21.1C12.6269 21.1 13.0513 20.7345 13.1111 20.2531L12.9126 20.2285C12.8658 20.6055 12.5302 20.9 12.1293 20.9V21.1ZM8.29603 21.1H12.1293V20.9H8.29603V21.1ZM7.31347 20.2448C7.37404 20.7339 7.79794 21.1 8.29603 21.1V20.9C7.89584 20.9 7.55974 20.6061 7.51195 20.2202L7.31347 20.2448ZM6.98372 17.9467L7.31372 20.2467L7.5117 20.2183L7.1817 17.9183L6.98372 17.9467ZM5.72173 17.2578C6.14199 17.5608 6.58447 17.8175 7.0416 18.0237L7.12382 17.8413C6.67931 17.6409 6.24843 17.3909 5.83869 17.0956L5.72173 17.2578ZM3.64828 18.1403L5.81746 17.2695L5.74295 17.0839L3.57377 17.9547L3.64828 18.1403ZM2.41744 17.6979C2.64976 18.1234 3.17097 18.3133 3.6451 18.1415L3.57696 17.9535C3.19109 18.0933 2.77566 17.9366 2.59298 17.6021L2.41744 17.6979ZM0.506951 14.3925L2.41863 17.7L2.59179 17.6L0.680109 14.2925L0.506951 14.3925ZM0.748162 13.1158C0.367424 13.4174 0.266006 13.9504 0.505719 14.3903L0.681341 14.2947C0.486053 13.9362 0.571354 13.511 0.872335 13.2726L0.748162 13.1158ZM2.58864 11.6763L0.748639 13.1155L0.871858 13.273L2.71186 11.8338L2.58864 11.6763ZM2.50857 11C2.50857 11.2334 2.52301 11.4809 2.55072 11.7648L2.74978 11.7453C2.72249 11.4658 2.70857 11.2251 2.70857 11H2.50857ZM2.55242 10.2347C2.52297 10.519 2.50857 10.7667 2.50857 11H2.70857C2.70857 10.775 2.72245 10.5344 2.75136 10.2553L2.55242 10.2347ZM0.751991 8.88715L2.59031 10.3238L2.71347 10.1662L0.875146 8.72957L0.751991 8.88715ZM0.510824 7.60412C0.25938 8.02911 0.362519 8.57931 0.75156 8.88681L0.875578 8.72991C0.564618 8.48412 0.482757 8.04433 0.682954 7.70596L0.510824 7.60412ZM2.42449 4.29251L0.510306 7.60501L0.683472 7.70507L2.59765 4.39257L2.42449 4.29251ZM3.64497 3.85858C3.18317 3.67811 2.65619 3.86797 2.42329 4.29463L2.59884 4.39045C2.78259 4.05383 3.20232 3.90032 3.57217 4.04486L3.64497 3.85858ZM5.82083 4.73224L3.64583 3.85892L3.57131 4.04452L5.74631 4.91784L5.82083 4.73224ZM7.04236 3.97725C6.59921 4.17767 6.16444 4.43022 5.72546 4.74365L5.84168 4.90642C6.27105 4.59985 6.69457 4.35405 7.12478 4.15947L7.04236 3.97725ZM7.3154 1.745L6.98458 4.05418L7.18256 4.08254L7.51338 1.77336L7.3154 1.745ZM8.29689 0.9C7.79935 0.9 7.37495 1.26553 7.31515 1.74685L7.51363 1.77151C7.56047 1.39447 7.89606 1.1 8.29689 1.1V0.9ZM12.1302 0.9H8.29689V1.1H12.1302V0.9ZM13.1128 1.75526C13.0522 1.26612 12.6283 0.9 12.1302 0.9V1.1C12.5304 1.1 12.8665 1.39388 12.9143 1.77982L13.1128 1.75526ZM13.4425 4.05416L13.1125 1.75334L12.9145 1.78174L13.2445 4.08256L13.4425 4.05416ZM14.7038 4.74314C14.2835 4.43933 13.8418 4.18254 13.3845 3.97714L13.3026 4.15958C13.747 4.35918 14.1769 4.60903 14.5866 4.90522L14.7038 4.74314ZM16.7771 3.86056L14.608 4.73138L14.6825 4.91698L16.8516 4.04616L16.7771 3.86056ZM18.0079 4.30272C17.774 3.87706 17.2522 3.6855 16.7798 3.85953L16.849 4.04719C17.2316 3.90622 17.648 4.06302 17.8326 4.399L18.0079 4.30272ZM19.9185 7.60832L18.0068 4.30082L17.8336 4.4009L19.7453 7.7084L19.9185 7.60832ZM19.6764 8.88514C20.0579 8.58366 20.1604 8.05051 19.9196 7.61037L19.7442 7.70635C19.94 8.06449 19.8542 8.4897 19.5524 8.72822L19.6764 8.88514ZM17.836 10.3238L19.676 8.88547L19.5528 8.72789L17.7128 10.1662L17.836 10.3238ZM17.9177 11C17.9177 10.7211 17.8974 10.4582 17.8738 10.2345L17.6749 10.2555C17.698 10.4751 17.7177 10.7305 17.7177 11H17.9177ZM17.8738 11.7658C17.8983 11.5416 17.9177 11.2787 17.9177 11H17.7177C17.7177 11.2697 17.6989 11.5251 17.675 11.7442L17.8738 11.7658ZM19.0225 13.8748L17.0375 17.2231L17.2095 17.3251L19.1945 13.9768L19.0225 13.8748ZM19.0332 13.9252C19.0195 13.9142 19.0169 13.9022 19.0164 13.8987C19.0159 13.8951 19.0155 13.8871 19.0218 13.8761L19.1953 13.9755C19.2149 13.9413 19.2191 13.9028 19.2144 13.8703C19.2098 13.8378 19.1943 13.7983 19.1591 13.7698L19.0332 13.9252ZM17.0145 12.3463L19.0345 13.9263L19.1577 13.7687L17.1377 12.1887L17.0145 12.3463ZM16.8202 11.875C16.7975 12.055 16.8719 12.2346 17.0145 12.3463L17.1377 12.1887C17.0503 12.1204 17.0047 12.01 17.0186 11.9L16.8202 11.875ZM16.8836 11C16.8836 11.3245 16.8517 11.623 16.8202 11.8751L17.0187 11.8999C17.0505 11.6453 17.0836 11.3371 17.0836 11H16.8836ZM16.8202 10.1249C16.8517 10.377 16.8836 10.6763 16.8836 11H17.0836C17.0836 10.6637 17.0505 10.3547 17.0187 10.1001L16.8202 10.1249ZM17.0145 9.65375C16.8719 9.76532 16.7975 9.94408 16.8202 10.125L17.0186 10.1C17.0047 9.98928 17.0503 9.87968 17.1377 9.81125L17.0145 9.65375ZM19.037 8.07289L17.0145 9.65371L17.1377 9.81129L19.1602 8.23047L19.037 8.07289ZM19.0164 8.11409C19.0167 8.11471 19.0155 8.11306 19.0159 8.10794C19.0162 8.10386 19.0187 8.08738 19.0366 8.07325L19.1606 8.23011C19.1985 8.20016 19.2127 8.15743 19.2153 8.12292C19.218 8.08739 19.2096 8.05115 19.1925 8.01927L19.0164 8.11409ZM17.1062 4.80922L19.0178 8.11672L19.191 8.01664L17.2793 4.70914L17.1062 4.80922ZM14.7739 5.77856L17.228 4.85274L17.1575 4.66562L14.7033 5.59144L14.7739 5.77856ZM14.2686 5.70857C14.4139 5.81986 14.6055 5.84701 14.7762 5.77765L14.7009 5.59235C14.5967 5.63471 14.4799 5.6185 14.3902 5.54979L14.2686 5.70857ZM12.7673 4.83756C13.2903 5.05149 13.7951 5.34439 14.2684 5.70845L14.3904 5.54991C13.9037 5.17561 13.3835 4.87351 12.8431 4.65245L12.7673 4.83756ZM12.4513 4.43294C12.4781 4.61421 12.5977 4.76821 12.7674 4.83757L12.843 4.65243C12.7394 4.61008 12.6657 4.51579 12.6491 4.4037L12.4513 4.43294ZM12.0879 1.89248L12.4512 4.43248L12.6492 4.40416L12.2859 1.86416L12.0879 1.89248ZM8.29573 1.93331L12.1857 1.97831L12.188 1.77833L8.29804 1.73333L8.29573 1.93331ZM7.9739 4.43442L8.39558 1.84942L8.19819 1.81722L7.77651 4.40222L7.9739 4.43442ZM7.65933 4.83737C7.82843 4.76725 7.94831 4.61351 7.9742 4.43248L7.77622 4.40416C7.76039 4.51485 7.68698 4.60939 7.58272 4.65263L7.65933 4.83737ZM6.15359 5.71163C6.66365 5.32846 7.15626 5.04303 7.65887 4.83756L7.58319 4.65244C7.06243 4.86533 6.55505 5.1599 6.03347 5.55173L6.15359 5.71163ZM5.65017 5.77769C5.81899 5.84605 6.00828 5.81985 6.15326 5.71188L6.0338 5.55148C5.94378 5.61851 5.82807 5.63395 5.72524 5.59231L5.65017 5.77769ZM3.26462 4.81947L5.65044 5.77779L5.72498 5.59221L3.33916 4.63389L3.26462 4.81947ZM1.40291 8.126L3.38791 4.77768L3.21587 4.67568L1.23087 8.024L1.40291 8.126ZM3.41251 9.65496L1.38009 7.9975L1.25369 8.1525L3.28611 9.80996L3.41251 9.65496ZM3.60521 10.1249C3.62794 9.94404 3.55351 9.76529 3.41094 9.65371L3.28768 9.81121C3.37511 9.87964 3.42069 9.98924 3.40677 10.1L3.60521 10.1249ZM3.54181 11C3.54181 10.7496 3.56218 10.4723 3.60523 10.1248L3.40675 10.1002C3.36308 10.4527 3.34181 10.7387 3.34181 11H3.54181ZM3.6052 11.8749C3.56139 11.5286 3.54181 11.2505 3.54181 11H3.34181C3.34181 11.2611 3.36223 11.5479 3.40678 11.9L3.6052 11.8749ZM3.41094 12.3462C3.55355 12.2346 3.62795 12.055 3.6052 11.8749L3.40678 11.9C3.42067 12.0099 3.37507 12.1203 3.28768 12.1887L3.41094 12.3462ZM1.38839 13.9271L3.41089 12.3462L3.28773 12.1887L1.26523 13.7695L1.38839 13.9271ZM1.40904 13.8867C1.40907 13.8868 1.40922 13.887 1.40936 13.8877C1.40949 13.8883 1.40975 13.8898 1.40956 13.8923C1.40933 13.8956 1.40716 13.9122 1.38885 13.9267L1.26477 13.7699C1.22646 13.8002 1.21264 13.8435 1.21011 13.8775C1.20749 13.9129 1.21562 13.9493 1.23294 13.9815L1.40904 13.8867ZM3.31925 17.1916L1.40757 13.8841L1.23441 13.9841L3.14609 17.2916L3.31925 17.1916ZM5.65155 16.2222L3.19737 17.148L3.26797 17.3352L5.72215 16.4093L5.65155 16.2222ZM5.84267 16.1858C5.77835 16.1858 5.71284 16.1971 5.64894 16.2232L5.72476 16.4083C5.7625 16.3929 5.80199 16.3858 5.84267 16.3858V16.1858ZM6.15811 16.2934C6.06585 16.2219 5.95414 16.1858 5.84267 16.1858V16.3858C5.9112 16.3858 5.97949 16.408 6.03559 16.4515L6.15811 16.2934ZM7.65896 17.1641C7.13512 16.9493 6.63031 16.6564 6.1578 16.2932L6.0359 16.4517C6.52175 16.8252 7.04194 17.1273 7.58309 17.3492L7.65896 17.1641ZM7.97495 17.5687C7.94816 17.3874 7.82858 17.2334 7.65886 17.1641L7.5832 17.3492C7.68684 17.3916 7.76054 17.4859 7.7771 17.5979L7.97495 17.5687ZM8.3392 20.1083L7.97502 17.5691L7.77704 17.5975L8.14122 20.1367L8.3392 20.1083ZM12.1305 20.0667L8.24134 20.0225L8.23907 20.2225L12.1283 20.2667L12.1305 20.0667ZM12.4515 17.5664L12.0307 20.1506L12.2281 20.1828L12.6489 17.5986L12.4515 17.5664ZM12.7674 17.1632C12.598 17.2324 12.477 17.3863 12.4512 17.5684L12.6492 17.5966C12.665 17.4853 12.739 17.3909 12.843 17.3484L12.7674 17.1632ZM14.2728 16.2891C13.7617 16.6716 13.2699 16.9578 12.7674 17.1633L12.843 17.3484C13.3639 17.1355 13.8704 16.84 14.3926 16.4492L14.2728 16.2891ZM14.775 16.223C14.6072 16.1557 14.4172 16.1818 14.2731 16.2889L14.3923 16.4494C14.4815 16.3832 14.5982 16.3676 14.7005 16.4086L14.775 16.223ZM17.1608 17.1813L14.775 16.223L14.7004 16.4086L17.0863 17.3669L17.1608 17.1813ZM10.2118 6.73328C7.85912 6.73328 5.94517 8.64723 5.94517 11H6.14517C6.14517 8.75769 7.96957 6.93328 10.2118 6.93328V6.73328ZM14.4785 11C14.4785 8.64723 12.5646 6.73328 10.2118 6.73328V6.93328C12.4541 6.93328 14.2785 8.75769 14.2785 11H14.4785ZM10.2118 15.2666C12.5646 15.2666 14.4785 13.3527 14.4785 11H14.2785C14.2785 13.2422 12.4541 15.0666 10.2118 15.0666V15.2666ZM5.94517 11C5.94517 13.3527 7.85912 15.2666 10.2118 15.2666V15.0666C7.96957 15.0666 6.14517 13.2422 6.14517 11H5.94517ZM10.2118 14.2333C8.42875 14.2333 6.97853 12.7831 6.97853 11H6.77853C6.77853 12.8935 8.3183 14.4333 10.2118 14.4333V14.2333ZM13.4452 11C13.4452 12.7831 11.9949 14.2333 10.2118 14.2333V14.4333C12.1054 14.4333 13.6452 12.8935 13.6452 11H13.4452ZM10.2118 7.76664C11.9949 7.76664 13.4452 9.21687 13.4452 11H13.6452C13.6452 9.10641 12.1054 7.56664 10.2118 7.56664V7.76664ZM6.97853 11C6.97853 9.21687 8.42875 7.76664 10.2118 7.76664V7.56664C8.3183 7.56664 6.77853 9.10641 6.77853 11H6.97853Z" fill="#687386" mask="url(#path-1-outside-1_3316_6836)"/>
</svg>
