<svg width="8" height="12" viewBox="0 0 8 12" fill="none" xmlns="http://www.w3.org/2000/svg">
<path d="M7.09933 4.5065C7.07086 4.47083 7.03635 4.47784 7.01826 4.48512C7.00311 4.49127 6.96839 4.51089 6.97319 4.56009C6.97897 4.61915 6.9822 4.67938 6.98282 4.73911C6.9854 4.98689 6.886 5.22963 6.71014 5.40511C6.53539 5.57945 6.30554 5.67338 6.06082 5.67066C5.72653 5.66639 5.44926 5.49203 5.25899 5.16642C5.10166 4.89718 5.17081 4.54992 5.24402 4.18225C5.28686 3.96705 5.33117 3.74451 5.33117 3.5327C5.33117 1.88355 4.22249 0.932098 3.56163 0.511731C3.54796 0.503051 3.53495 0.5 3.52342 0.5C3.50468 0.5 3.48984 0.508082 3.48252 0.51303C3.46833 0.522638 3.44563 0.544533 3.45293 0.583294C3.70553 1.9247 2.9521 2.73147 2.15441 3.58561C1.33219 4.46603 0.400269 5.46393 0.400269 7.26366C0.400269 9.35483 2.10155 11.0561 4.19272 11.0561C5.91452 11.0561 7.43259 9.85569 7.88436 8.1369C8.19242 6.96495 7.86959 5.47209 7.09933 4.5065ZM4.28733 10.2466C3.7637 10.2705 3.26571 10.0827 2.88534 9.71899C2.50905 9.35918 2.29323 8.85705 2.29323 8.34132C2.29323 7.37353 2.66327 6.66305 3.65855 5.71985C3.67484 5.70441 3.69151 5.69952 3.70605 5.69952C3.71922 5.69952 3.73065 5.70354 3.7385 5.70732C3.75506 5.71529 3.78227 5.73505 3.7786 5.77777C3.74302 6.19186 3.74363 6.53558 3.78042 6.7994C3.87443 7.47327 4.36774 7.92605 5.00801 7.92605C5.32193 7.92605 5.62095 7.80791 5.84998 7.59339C5.87656 7.56848 5.90625 7.57166 5.91763 7.57407C5.9327 7.57733 5.95288 7.58657 5.96346 7.61207C6.05842 7.84135 6.10696 8.08474 6.1077 8.33543C6.11073 9.34413 5.29412 10.2015 4.28733 10.2466Z" fill="#0497EC"/>
</svg>
