<svg width="11" height="10" viewBox="0 0 11 10" fill="none" xmlns="http://www.w3.org/2000/svg">
<path d="M5.04597 0.984333C5.22468 0.596897 5.77532 0.596896 5.95403 0.984332L6.93453 3.11005C7.00736 3.26795 7.157 3.37667 7.32968 3.39715L9.65435 3.67278C10.078 3.72301 10.2482 4.2467 9.93496 4.53639L8.21627 6.12578C8.0886 6.24384 8.03144 6.41976 8.06533 6.59032L8.52156 8.88638C8.60471 9.30486 8.15923 9.62852 7.78693 9.42012L5.74422 8.2767C5.59248 8.19177 5.40752 8.19177 5.25578 8.2767L3.21307 9.42012C2.84077 9.62852 2.39529 9.30486 2.47844 8.88638L2.93467 6.59032C2.96855 6.41976 2.9114 6.24384 2.78373 6.12578L1.06504 4.53639C0.751793 4.2467 0.921951 3.72301 1.34565 3.67278L3.67032 3.39715C3.843 3.37667 3.99264 3.26795 4.06547 3.11005L5.04597 0.984333Z" fill="#91B845"/>
</svg>
