<svg width="18" height="19" viewBox="0 0 18 19" fill="none" xmlns="http://www.w3.org/2000/svg">
<path d="M2.10938 18.5H11.6719C12.8351 18.5 13.7813 17.5539 13.7813 16.3906V6.82812C13.7813 5.66489 12.8351 4.71875 11.6719 4.71875H2.10938C0.946143 4.71875 4.76837e-07 5.66489 4.76837e-07 6.82812V16.3906C4.76837e-07 17.5539 0.946143 18.5 2.10938 18.5ZM11.6719 6.125C12.0596 6.125 12.375 6.44042 12.375 6.82812V16.3906C12.375 16.7783 12.0596 17.0937 11.6719 17.0937H2.10938C1.72167 17.0937 1.40625 16.7783 1.40625 16.3906V6.82812C1.40625 6.44042 1.72167 6.125 2.10938 6.125H11.6719ZM15.1875 12.875H15.8906C16.2783 12.875 16.5938 12.5596 16.5938 12.1719V2.60937C16.5938 2.22167 16.2783 1.90625 15.8906 1.90625H6.32813C5.94042 1.90625 5.625 2.22167 5.625 2.60937V3.27734H4.21875V2.60937C4.21875 1.44614 5.16489 0.5 6.32813 0.5H15.8906C17.0539 0.5 18 1.44614 18 2.60937V12.1719C18 13.3351 17.0539 14.2812 15.8906 14.2812H15.1875V12.875Z" fill="#687386"/>
</svg>
