<svg width="20" height="21" viewBox="0 0 20 21" fill="none" xmlns="http://www.w3.org/2000/svg">
<g clip-path="url(#clip0_356_1232)">
<path d="M12.7587 7.69609C12.4723 7.69609 12.2403 7.92815 12.2403 8.21448V17.0669C12.2403 17.353 12.4723 17.5853 12.7587 17.5853C13.045 17.5853 13.277 17.353 13.277 17.0669V8.21448C13.277 7.92815 13.045 7.69609 12.7587 7.69609Z" fill="#687386" stroke="#687386" stroke-width="0.1"/>
<path d="M7.23181 7.69609C6.94549 7.69609 6.71343 7.92815 6.71343 8.21448V17.0669C6.71343 17.353 6.94548 17.5853 7.23181 17.5853C7.51815 17.5853 7.75019 17.353 7.75019 17.0669V8.21448C7.75019 7.92815 7.51813 7.69609 7.23181 7.69609Z" fill="#687386" stroke="#687386" stroke-width="0.1"/>
<path d="M5.56415 20.55H5.56406C4.91697 20.5489 4.29867 20.2816 3.85436 19.8108C3.40807 19.3414 3.15357 18.6883 3.15357 17.9942V6.49224C2.28195 6.24147 1.7211 5.39025 1.83886 4.48693L1.83886 4.48691C1.95848 3.57099 2.7388 2.88584 3.66262 2.88565H3.66263H6.01071V2.35028V2.35017H6.06071C6.05796 1.85782 6.25264 1.38505 6.60118 1.03724L5.56415 20.55ZM5.56415 20.55H14.4261H14.4262C15.0734 20.5489 15.6917 20.2816 16.1359 19.8108C16.5822 19.3414 16.8367 18.6883 16.8367 17.9942V6.49224C17.7083 6.24147 18.2691 5.39025 18.1514 4.48693C18.0318 3.57099 17.2514 2.88584 16.3276 2.88565H13.9795L13.9795 2.35045C13.9795 2.35039 13.9795 2.35034 13.9795 2.35028M5.56415 20.55L13.9795 2.35028M13.9795 2.35028V2.35017H13.9295L13.9795 2.35028ZM7.91558 0.450062V0.500062L13.3891 1.03724C13.0405 0.68961 12.567 0.496036 12.0747 0.500062V0.450062H12.0745H7.91578H7.91558ZM7.04748 2.35017L7.04747 2.34954C7.04453 2.11918 7.13508 1.89746 7.29858 1.73483L7.2986 1.73481C7.46189 1.57221 7.68413 1.48284 7.91471 1.48682V1.48683H7.91558L12.0747 1.48683L12.0755 1.48682C12.3061 1.48284 12.5284 1.57221 12.6916 1.73481L12.6917 1.73484C12.8552 1.89728 12.9457 2.11917 12.9428 2.34954V2.35017V2.88565H7.04747L7.04748 2.35017ZM14.4261 19.5132H5.56415C4.79543 19.5132 4.19034 18.8524 4.19034 17.9942V6.54536H15.7999V17.9942C15.7999 18.8524 15.1948 19.5132 14.4261 19.5132ZM3.66263 3.92242H16.3276C16.7656 3.92242 17.1207 4.27748 17.1207 4.71551C17.1207 5.15353 16.7656 5.50859 16.3276 5.50859H3.66263C3.2246 5.50859 2.86954 5.15353 2.86954 4.71551C2.86954 4.27748 3.2246 3.92242 3.66263 3.92242Z" fill="#687386" stroke="#687386" stroke-width="0.1"/>
<path d="M9.99524 7.69609C9.70892 7.69609 9.47686 7.92815 9.47686 8.21448V17.0669C9.47686 17.353 9.7089 17.5853 9.99524 17.5853C10.2816 17.5853 10.5136 17.353 10.5136 17.0669V8.21448C10.5136 7.92815 10.2816 7.69609 9.99524 7.69609Z" fill="#687386" stroke="#687386" stroke-width="0.1"/>
</g>
<defs>
<clipPath id="clip0_356_1232">
<rect width="20" height="20" fill="white" transform="translate(0 0.5)"/>
</clipPath>
</defs>
</svg>
