<svg width="63" height="72" viewBox="0 0 63 72" fill="none" xmlns="http://www.w3.org/2000/svg">
<g clip-path="url(#clip0_819_4236)">
<rect width="35" height="35" rx="1" transform="matrix(0.866025 0.5 -0.866025 0.5 31.3108 1)" fill="#9DF4FA"/>
<rect width="35" height="35" transform="matrix(0.866025 0.5 -0.866025 0.5 31.3108 1)" fill="white" fill-opacity="0.08" style="mix-blend-mode:overlay"/>
<rect width="35" height="35" transform="matrix(0.866025 0.5 -0.866025 0.5 31.3108 1)" fill="white" fill-opacity="0.08"/>
<path d="M18.611 24.2299L11.7716 20.2812L12.7719 19.7037L18.7026 23.1278L22.5417 20.9113L23.4504 21.4359L18.611 24.2299Z" fill="white"/>
<path d="M26.7174 19.6738C26.2347 19.9525 25.6958 20.162 25.1008 20.3025C24.4993 20.4392 23.877 20.5089 23.2339 20.5116C22.5907 20.5069 21.9685 20.4337 21.3672 20.2919C20.7659 20.1427 20.2177 19.9252 19.7226 19.6394C19.2276 19.3536 18.8541 19.0389 18.6022 18.6955C18.3501 18.3446 18.2232 17.9854 18.2216 17.6178C18.2198 17.2427 18.3406 16.8835 18.5839 16.5399C18.8206 16.1926 19.1804 15.8796 19.663 15.601C20.1457 15.3223 20.6878 15.1146 21.2893 14.9779C21.8907 14.8338 22.513 14.7641 23.1562 14.7688C23.7929 14.7697 24.4152 14.843 25.0229 14.9885C25.6241 15.1303 26.1722 15.3441 26.6673 15.6299C27.1623 15.9157 27.5359 16.234 27.788 16.5849C28.0335 16.932 28.1604 17.2913 28.1685 17.6626C28.1701 18.0302 28.0494 18.3895 27.8063 18.7405C27.563 19.084 27.2 19.3951 26.7174 19.6738ZM25.7791 19.1211C26.1221 18.9231 26.3745 18.7022 26.5364 18.4583C26.7046 18.2107 26.7858 17.957 26.7801 17.697C26.7679 17.4333 26.669 17.1745 26.4833 16.9207C26.2912 16.6631 26.0127 16.429 25.648 16.2184C25.2767 16.004 24.8712 15.8432 24.4315 15.7361C23.9919 15.6289 23.5469 15.5737 23.0966 15.5704C22.6399 15.5633 22.1971 15.6083 21.7683 15.7055C21.3459 15.7989 20.9632 15.9446 20.6203 16.1426C20.271 16.3443 20.0122 16.5689 19.844 16.8165C19.6758 17.064 19.5978 17.3196 19.61 17.5834C19.6157 17.8433 19.7114 18.1002 19.897 18.3541C20.089 18.6042 20.3674 18.8346 20.7322 19.0452C21.1034 19.2596 21.509 19.4241 21.9488 19.5387C22.3885 19.6459 22.8367 19.703 23.2935 19.71C23.7438 19.7133 24.1833 19.6664 24.612 19.5693C25.0408 19.4722 25.4298 19.3228 25.7791 19.1211Z" fill="white"/>
<path d="M33.9532 15.4961C33.4706 15.7748 32.9317 15.9844 32.3367 16.1248C31.7352 16.2615 31.1129 16.3313 30.4698 16.334C29.8266 16.3293 29.2043 16.256 28.6031 16.1143C28.0017 15.9651 27.4535 15.7476 26.9585 15.4617C26.4635 15.1759 26.09 14.8613 25.8381 14.5179C25.586 14.167 25.4591 13.8077 25.4575 13.4401C25.4557 13.0651 25.5765 12.7058 25.8197 12.3623C26.0565 12.015 26.4162 11.702 26.8989 11.4233C27.3816 11.1447 27.9237 10.937 28.5252 10.8003C29.1266 10.6561 29.7489 10.5864 30.3921 10.5911C31.0288 10.5921 31.651 10.6653 32.2588 10.8109C32.86 10.9526 33.4081 11.1664 33.9032 11.4522C34.3982 11.7381 34.7718 12.0564 35.0238 12.4073C35.2694 12.7544 35.3963 13.1136 35.4044 13.485C35.406 13.8526 35.2853 14.2119 35.0422 14.5628C34.7989 14.9064 34.4359 15.2175 33.9532 15.4961ZM33.015 14.9435C33.358 14.7455 33.6104 14.5245 33.7722 14.2806C33.9404 14.0331 34.0217 13.7794 34.016 13.5194C34.0038 13.2557 33.9049 12.9969 33.7192 12.743C33.5271 12.4854 33.2486 12.2513 32.8838 12.0407C32.5126 11.8264 32.1071 11.6656 31.6674 11.5584C31.2277 11.4513 30.7828 11.396 30.3325 11.3927C29.8757 11.3857 29.433 11.4307 29.0042 11.5278C28.5818 11.6213 28.1991 11.767 27.8562 11.965C27.5069 12.1667 27.2481 12.3913 27.0799 12.6388C26.9117 12.8864 26.8337 13.142 26.8459 13.4057C26.8516 13.6657 26.9473 13.9226 27.1329 14.1764C27.3249 14.4266 27.6033 14.657 27.968 14.8676C28.3393 15.082 28.7449 15.2464 29.1847 15.361C29.6244 15.4682 30.0726 15.5253 30.5294 15.5324C30.9796 15.5357 31.4192 15.4888 31.8479 15.3916C32.2767 15.2945 32.6657 15.1451 33.015 14.9435Z" fill="white"/>
<path d="M39.2731 12.3006L33.3423 8.87654L30.9989 10.2295L30.0902 9.70493L35.7774 6.42143L36.6861 6.94604L34.3426 8.29904L40.2733 11.7231L39.2731 12.3006Z" fill="white"/>
<path d="M31.4739 28.0856L24.6345 24.1368L27.5209 22.4703C27.9592 22.2173 28.4151 22.0406 28.8888 21.9401C29.3625 21.8396 29.8251 21.817 30.2765 21.8723C30.7214 21.9238 31.1262 22.0548 31.491 22.2654C31.8232 22.4572 32.0337 22.6741 32.1226 22.9161C32.2115 23.1581 32.1817 23.4085 32.033 23.6674C32.5445 23.53 33.045 23.4817 33.5347 23.5224C34.0242 23.5557 34.4546 23.6795 34.8259 23.8939C35.2232 24.1233 35.4732 24.3776 35.5758 24.6568C35.6847 24.9324 35.646 25.218 35.4595 25.5137C35.2729 25.8019 34.9478 26.0799 34.4842 26.3476L31.4739 28.0856ZM28.5366 25.2347L30.3656 24.1787C30.7403 23.9624 30.9476 23.7374 30.9875 23.5038C31.0274 23.2701 30.8911 23.0631 30.5784 22.8826C30.2657 22.702 29.9071 22.6233 29.5024 22.6463C29.0977 22.6694 28.7081 22.7891 28.3334 23.0054L26.5043 24.0614L28.5366 25.2347ZM31.6045 27.006L33.5384 25.8895C33.9575 25.6475 34.1868 25.3986 34.2262 25.1426C34.272 24.8831 34.1223 24.6536 33.777 24.4543C33.4383 24.2587 33.0442 24.1742 32.5945 24.2006C32.1448 24.2196 31.7103 24.3501 31.2912 24.5921L29.3573 25.7086L31.6045 27.006Z" fill="white"/>
<path d="M40.5849 22.9494C40.1023 23.228 39.5634 23.4376 38.9684 23.5781C38.3669 23.7148 37.7446 23.7845 37.1015 23.7872C36.4583 23.7825 35.836 23.7093 35.2348 23.5675C34.6335 23.4183 34.0852 23.2008 33.5902 22.915C33.0952 22.6292 32.7217 22.3145 32.4698 21.9711C32.2177 21.6202 32.0908 21.261 32.0892 20.8934C32.0874 20.5183 32.2082 20.159 32.4514 19.8155C32.6882 19.4682 33.0479 19.1552 33.5306 18.8766C34.0133 18.5979 34.5554 18.3902 35.1569 18.2535C35.7583 18.1094 36.3806 18.0397 37.0238 18.0444C37.6605 18.0453 38.2828 18.1185 38.8905 18.2641C39.4917 18.4059 40.0398 18.6197 40.5349 18.9055C41.0299 19.1913 41.4035 19.5096 41.6555 19.8605C41.9011 20.2076 42.028 20.5668 42.0361 20.9382C42.0377 21.3058 41.917 21.6651 41.6739 22.0161C41.4306 22.3596 41.0676 22.6707 40.5849 22.9494ZM39.6467 22.3967C39.9897 22.1987 40.2421 21.9778 40.4039 21.7339C40.5722 21.4863 40.6534 21.2326 40.6477 20.9726C40.6355 20.7089 40.5366 20.4501 40.3509 20.1963C40.1588 19.9387 39.8803 19.7046 39.5156 19.494C39.1443 19.2796 38.7388 19.1188 38.2991 19.0117C37.8594 18.9045 37.4145 18.8492 36.9642 18.846C36.5074 18.8389 36.0647 18.8839 35.6359 18.9811C35.2135 19.0745 34.8308 19.2202 34.4879 19.4182C34.1386 19.6199 33.8798 19.8445 33.7116 20.0921C33.5434 20.3396 33.4654 20.5952 33.4776 20.859C33.4833 21.1189 33.579 21.3758 33.7646 21.6297C33.9566 21.8798 34.235 22.1102 34.5997 22.3208C34.971 22.5352 35.3766 22.6997 35.8164 22.8143C36.2561 22.9215 36.7043 22.9786 37.1611 22.9856C37.6114 22.9889 38.0509 22.942 38.4796 22.8449C38.9084 22.7478 39.2974 22.5984 39.6467 22.3967Z" fill="white"/>
<path d="M43.1484 21.3453L42.1645 17.8292L36.4519 17.314L37.6617 16.6155L41.983 17.0314L41.2532 14.542L42.4154 13.871L43.3265 17.1471L49.4548 17.7043L48.2545 18.3973L43.5077 17.9337L44.3011 20.6798L43.1484 21.3453Z" fill="white"/>
<ellipse cx="1.53846" cy="1.5" rx="1.53846" ry="1.5" transform="matrix(0.866025 0.5 -0.866025 0.5 31.333 2.0127)" fill="#77E6FF"/>
<ellipse cx="1.53846" cy="1.5" rx="1.53846" ry="1.5" transform="matrix(0.866025 0.5 -0.866025 0.5 6.65137 16.2627)" fill="#77E6FF"/>
<ellipse cx="1.53846" cy="1.5" rx="1.53846" ry="1.5" transform="matrix(0.866025 0.5 -0.866025 0.5 56.2034 16.3716)" fill="#77E6FF"/>
<ellipse cx="1.53846" cy="1.5" rx="1.53846" ry="1.5" transform="matrix(0.866025 0.5 -0.866025 0.5 31.5217 30.6216)" fill="#77E6FF"/>
</g>
<rect x="2.98023e-08" y="-0.5" width="36" height="36" rx="1.5" transform="matrix(0.866025 0.5 -0.866025 0.5 30.8778 0.75)" stroke="#0F172A"/>
<g clip-path="url(#clip1_819_4236)">
<rect width="35.222" height="34.2042" rx="1" transform="matrix(2.20305e-08 1 -0.866025 0.5 61.6218 18.5)" fill="#77E7FF"/>
<path d="M55.5478 39.6318C55.8494 39.5865 55.8494 40.0791 55.5478 40.382L49.6218 46.3354C49.527 46.4307 49.4523 46.5602 49.4172 46.6899L47.2244 54.7986C47.1128 55.2113 46.6862 55.4576 46.5746 55.1738L44.3818 49.5971C44.3467 49.5078 44.272 49.4647 44.1772 49.4789L38.2512 50.3682C37.9496 50.4135 37.9496 49.9209 38.2512 49.618L44.1772 43.6646C44.272 43.5693 44.3467 43.4398 44.3818 43.3101L46.5746 35.2014C46.6862 34.7887 47.1128 34.5424 47.2244 34.8262L49.4172 40.4029C49.4523 40.4922 49.527 40.5353 49.6218 40.5211L55.5478 39.6318Z" fill="#ACF6FA"/>
<ellipse cx="1.50951" cy="1.46589" rx="1.50951" ry="1.46589" transform="matrix(2.20305e-08 1 -0.866025 0.5 60.7754 19.9951)" fill="#5FCDFF"/>
<ellipse cx="1.50951" cy="1.46589" rx="1.50951" ry="1.46589" transform="matrix(2.20305e-08 1 -0.866025 0.5 36.2319 34.165)" fill="#5FCDFF"/>
<ellipse cx="1.50951" cy="1.46589" rx="1.50951" ry="1.46589" transform="matrix(2.20305e-08 1 -0.866025 0.5 60.7754 49.1787)" fill="#5FCDFF"/>
<ellipse cx="1.50951" cy="1.46589" rx="1.50951" ry="1.46589" transform="matrix(2.20305e-08 1 -0.866025 0.5 36.2319 63.3491)" fill="#5FCDFF"/>
</g>
<rect x="0.433013" y="-0.75" width="36.222" height="35.2042" rx="1.5" transform="matrix(2.20305e-08 1 -0.866025 0.5 61.4053 17.692)" stroke="#0F172A"/>
<g clip-path="url(#clip2_819_4236)">
<rect width="34.6399" height="35" rx="1" transform="matrix(0.866025 0.5 -2.20305e-08 1 1.00098 18.5)" fill="#5FCDFF"/>
<path d="M21.9956 45.5254L17.6287 43.0042C17.3797 42.8604 17.212 42.4691 17.3107 42.262L19.4736 37.7237C19.5723 37.5166 19.4046 37.1254 19.1555 36.9816L13.3111 33.6073C13.1673 33.5243 13.0385 33.5525 12.9874 33.6782L8.97374 43.5472C8.88752 43.7592 9.05497 44.1363 9.29752 44.2763L14.4674 47.2612C14.6926 47.3912 14.8579 47.7307 14.8036 47.9517L13.0064 55.2718C12.9134 55.6509 13.4109 56.1956 13.6287 55.953L22.2817 46.3161C22.4387 46.1412 22.274 45.6861 21.9956 45.5254Z" fill="#77E6FF"/>
<ellipse cx="1.48457" cy="1.5" rx="1.48457" ry="1.5" transform="matrix(0.866025 0.5 -2.20305e-08 1 1.85815 19.9946)" fill="#179DFE"/>
<ellipse cx="1.48457" cy="1.5" rx="1.48457" ry="1.5" transform="matrix(0.866025 0.5 -2.20305e-08 1 1.85815 48.9946)" fill="#179DFE"/>
<ellipse cx="1.48457" cy="1.5" rx="1.48457" ry="1.5" transform="matrix(0.866025 0.5 -2.20305e-08 1 26.7144 34.3457)" fill="#179DFE"/>
<ellipse cx="1.48457" cy="1.5" rx="1.48457" ry="1.5" transform="matrix(0.866025 0.5 -2.20305e-08 1 26.7144 63.3457)" fill="#179DFE"/>
</g>
<rect x="-0.433013" y="-0.75" width="35.6399" height="36" rx="1.5" transform="matrix(0.866025 0.5 -2.20305e-08 1 0.942964 18.7165)" stroke="#0F172A"/>
<defs>
<clipPath id="clip0_819_4236">
<rect width="35" height="35" rx="1" transform="matrix(0.866025 0.5 -0.866025 0.5 31.3108 1)" fill="white"/>
</clipPath>
<clipPath id="clip1_819_4236">
<rect width="35.222" height="34.2042" rx="1" transform="matrix(2.20305e-08 1 -0.866025 0.5 61.6218 18.5)" fill="white"/>
</clipPath>
<clipPath id="clip2_819_4236">
<rect width="34.6399" height="35" rx="1" transform="matrix(0.866025 0.5 -2.20305e-08 1 1.00098 18.5)" fill="white"/>
</clipPath>
</defs>
</svg>
