<svg width="25" height="26" viewBox="0 0 25 26" fill="none" xmlns="http://www.w3.org/2000/svg">
<path fill-rule="evenodd" clip-rule="evenodd" d="M21.1864 4.09004H5.50847V0.178352H21.1864C23.2926 0.178352 25 1.92968 25 4.09004L21.1865 4.09003L21.1864 4.09004ZM21.1865 5.39394H21.1864V21.91V21.91H21.1865V25.8216C23.2926 25.8216 25 24.0703 25 21.91V5.82856H21.1865V5.39394ZM19.9153 21.91V21.91H19.4916V25.8216H3.81356C1.70739 25.8216 0 24.0703 0 21.91H3.81356H19.9153ZM3.81356 0.178352V4.09004V20.1714H0V4.09004C0 1.92967 1.70739 0.178352 3.81356 0.178352Z" fill="white"/>
<path fill-rule="evenodd" clip-rule="evenodd" d="M12.1404 8.00159C11.7538 8.00159 11.4404 8.31499 11.4404 8.70159V11.4786L8.75029 11.4786C8.36369 11.4786 8.05029 11.792 8.05029 12.1786L8.05029 13.3864C8.05029 13.773 8.36369 14.0864 8.75029 14.0864H11.4404V16.8635C11.4404 17.2501 11.7538 17.5635 12.1404 17.5635H13.2827C13.6693 17.5635 13.9827 17.2501 13.9827 16.8635V14.0864H16.6723C17.0589 14.0864 17.3723 13.773 17.3723 13.3864V12.1786C17.3723 11.792 17.0589 11.4786 16.6723 11.4786L13.9827 11.4786V8.70159C13.9827 8.315 13.6693 8.00159 13.2827 8.00159H12.1404Z" fill="white"/>
</svg>
