<svg width="21" height="20" viewBox="0 0 21 20" xmlns="http://www.w3.org/2000/svg">
<g clip-path="url(#clip0_356_1281)">
<path d="M2.99168 18.3557H10.4668C10.8985 18.3557 11.2473 18.7045 11.2473 19.1362C11.2473 19.5679 10.8985 19.9168 10.4668 19.9168H2.99168C1.64554 19.9168 0.55 18.8212 0.55 17.4751V2.52492C0.55 1.17879 1.64555 0.0832031 2.99168 0.0832031H10.4668C10.8985 0.0832031 11.2473 0.432139 11.2473 0.863828C11.2473 1.29551 10.8985 1.64438 10.4668 1.64438H2.99168C2.50563 1.64438 2.11113 2.03883 2.11113 2.52492V17.4751C2.11113 17.9612 2.50559 18.3557 2.99168 18.3557Z" stroke="#E3F2FD" stroke-width="0.1"/>
<path d="M15.1675 4.46069L15.1675 4.46074L20.2173 9.44409C20.3665 9.59176 20.45 9.79079 20.45 9.99984C20.45 10.2089 20.3657 10.4088 20.2173 10.5557L15.1675 15.539L15.1675 15.5391C15.0161 15.6889 14.818 15.7638 14.6196 15.7638C14.4183 15.7638 14.2169 15.6858 14.0639 15.5312C13.7617 15.2244 13.7642 14.7303 14.0716 14.4275L14.0717 14.4275L17.6805 10.866L17.7672 10.7805H17.6454H7.97508C7.5434 10.7805 7.19453 10.4316 7.19453 9.99988C7.19453 9.56819 7.5434 9.21933 7.97508 9.21933H17.6454H17.7672L17.6805 9.13374L14.0717 5.5723L14.0716 5.57226C13.7641 5.2694 13.761 4.77535 14.0638 4.4686C14.3668 4.16175 14.8616 4.15797 15.1675 4.46069Z" stroke="#E3F2FD" stroke-width="0.1"/>
</g>
<defs>
<clipPath id="clip0_356_1281">
<rect width="20" height="20" transform="translate(0.5)"/>
</clipPath>
</defs>
</svg>
