<svg width="24" height="31" viewBox="0 0 24 31" fill="none" xmlns="http://www.w3.org/2000/svg">
<g clip-path="url(#clip0_356_1108)">
<path d="M22.81 3.84277L13.4409 10.8013L15.1735 6.69588L22.81 3.84277Z" fill="#E2761B" stroke="#E2761B" stroke-linecap="round" stroke-linejoin="round"/>
<path d="M1.1806 3.84277L10.4744 10.8673L8.82655 6.69588L1.1806 3.84277ZM19.4386 19.9727L16.9433 23.7957L22.2823 25.2646L23.8171 20.0575L19.4386 19.9727ZM0.191895 20.0575L1.71732 25.2646L7.0563 23.7957L4.56101 19.9727L0.191895 20.0575Z" fill="#E4761B" stroke="#E4761B" stroke-linecap="round" stroke-linejoin="round"/>
<path d="M6.75534 13.5132L5.26758 15.7636L10.5689 15.999L10.3806 10.3022L6.75534 13.5132ZM17.2356 13.5132L13.5632 10.2363L13.4408 15.999L18.7327 15.7636L17.2356 13.5132ZM7.05666 23.7957L10.2393 22.242L7.4898 20.0951L7.05666 23.7957ZM13.7516 22.242L16.9437 23.7957L16.5011 20.0951L13.7516 22.242Z" fill="#E4761B" stroke="#E4761B" stroke-linecap="round" stroke-linejoin="round"/>
<path d="M16.9436 23.7959L13.7516 22.2422L14.0058 24.3232L13.9775 25.1989L16.9436 23.7959ZM7.05664 23.7959L10.0227 25.1989L10.0039 24.3232L10.2393 22.2422L7.05664 23.7959Z" fill="#D7C1B3" stroke="#D7C1B3" stroke-linecap="round" stroke-linejoin="round"/>
<path d="M10.0699 18.7204L7.41455 17.9389L9.28837 17.082L10.0699 18.7204ZM13.9211 18.7204L14.7027 17.082L16.5859 17.9389L13.9211 18.7204Z" fill="#233447" stroke="#233447" stroke-linecap="round" stroke-linejoin="round"/>
<path d="M7.05633 23.7957L7.5083 19.9727L4.56104 20.0575L7.05633 23.7957ZM16.4914 19.9727L16.9433 23.7957L19.4386 20.0575L16.4914 19.9727ZM18.7324 15.7637L13.4405 15.9991L13.9302 18.7204L14.7117 17.0819L16.5949 17.9388L18.7324 15.7637ZM7.41414 17.9388L9.29738 17.0819L10.0695 18.7204L10.5686 15.9991L5.26725 15.7637L7.41414 17.9388Z" fill="#CD6116" stroke="#CD6116" stroke-linecap="round" stroke-linejoin="round"/>
<path d="M5.26758 15.7637L7.4898 20.0951L7.41447 17.9388L5.26758 15.7637ZM16.5953 17.9388L16.5011 20.0951L18.7327 15.7637L16.5953 17.9388ZM10.5689 15.9991L10.0698 18.7204L10.6913 21.9313L10.8325 17.7034L10.5689 15.9991ZM13.4408 15.9991L13.1866 17.694L13.2996 21.9313L13.9305 18.7204L13.4408 15.9991Z" fill="#E4751F" stroke="#E4751F" stroke-linecap="round" stroke-linejoin="round"/>
<path d="M13.9306 18.7205L13.2997 21.9314L13.7517 22.2422L16.5012 20.0953L16.5953 17.939L13.9306 18.7205ZM7.41455 17.939L7.48988 20.0953L10.2394 22.2422L10.6914 21.9314L10.0699 18.7205L7.41455 17.939Z" fill="#F6851B" stroke="#F6851B" stroke-linecap="round" stroke-linejoin="round"/>
<path d="M13.9775 25.1989L14.0058 24.3232L13.7704 24.116H10.2205L10.0039 24.3232L10.0227 25.1989L7.05664 23.7959L8.09242 24.6434L10.1922 26.1029H13.7986L15.9079 24.6434L16.9436 23.7959L13.9775 25.1989Z" fill="#C0AD9E" stroke="#C0AD9E" stroke-linecap="round" stroke-linejoin="round"/>
<path d="M13.7516 22.2419L13.2996 21.9312H10.6913L10.2393 22.2419L10.0039 24.3229L10.2205 24.1157H13.7704L14.0058 24.3229L13.7516 22.2419Z" fill="#161616" stroke="#161616" stroke-linecap="round" stroke-linejoin="round"/>
<path d="M23.2051 11.2533L24.0054 7.41151L22.8096 3.84277L13.7512 10.5659L17.2352 13.5132L22.1599 14.9539L23.2521 13.6827L22.7813 13.3437L23.5346 12.6563L22.9508 12.2044L23.7041 11.63L23.2051 11.2533ZM-0.00585938 7.41151L0.794517 11.2533L0.286043 11.63L1.03934 12.2044L0.46495 12.6563L1.21825 13.3437L0.747436 13.6827L1.8303 14.9539L6.75497 13.5132L10.239 10.5659L1.18058 3.84277L-0.00585938 7.41151Z" fill="#763D16" stroke="#763D16" stroke-linecap="round" stroke-linejoin="round"/>
<path d="M22.1599 14.9538L17.2352 13.5131L18.7324 15.7636L16.5007 20.095L19.4386 20.0574H23.8171L22.1599 14.9538ZM6.75498 13.5131L1.83031 14.9538L0.191895 20.0574H4.56101L7.48945 20.095L5.26722 15.7636L6.75498 13.5131ZM13.4405 15.999L13.7512 10.5659L15.1825 6.6958H8.82655L10.239 10.5659L10.5685 15.999L10.6815 17.7127L10.691 21.9312H13.2992L13.3181 17.7127L13.4405 15.999Z" fill="#F6851B" stroke="#F6851B" stroke-linecap="round" stroke-linejoin="round"/>
</g>
<defs>
<clipPath id="clip0_356_1108">
<rect width="24" height="30" fill="white" transform="translate(0 0.5)"/>
</clipPath>
</defs>
</svg>
