<svg width="22" height="22" viewBox="0 0 22 22" fill="none" xmlns="http://www.w3.org/2000/svg">
<path d="M6.26248 4.94263L4.75218 3.3846C3.7335 4.21797 2.8924 5.24735 2.27891 6.41183C1.66542 7.57632 1.29198 8.85216 1.18064 10.1636C1.06942 11.4753 1.22259 12.7959 1.63114 14.047C2.03958 15.2983 2.69525 16.4547 3.55898 17.4478L2.78118 18.2465C0.935676 16.1786 -0.0572507 13.4878 0.00255257 10.7165C0.0623558 7.94516 1.17057 5.29961 3.10345 3.31328C5.03634 1.32692 7.65029 0.147578 10.4183 0.0129564C13.1862 -0.121785 15.9023 0.798385 18.0188 2.58766L17.2428 3.38652C15.4896 1.9251 13.2759 1.13116 10.9937 1.14495C9.09553 1.14327 7.2379 1.69374 5.64707 2.72935L6.40223 3.49799C8.18638 2.40496 10.3015 1.98408 12.368 2.31076C14.4344 2.63752 16.3169 3.6904 17.677 5.28033C19.0373 6.87049 19.7861 8.89339 19.7893 10.9861C19.7923 13.0788 19.0495 15.104 17.694 16.6981L16.9162 15.8992C17.9337 14.6712 18.5435 13.1567 18.6609 11.5662C18.7783 9.97552 18.3975 8.38776 17.5714 7.02368L16.8161 7.8073C17.5519 9.1389 17.8074 10.6829 17.5403 12.1805C17.273 13.6781 16.4992 15.0383 15.3484 16.0331C14.1976 17.0278 12.74 17.5966 11.2198 17.6443C9.69967 17.6916 8.20927 17.2149 6.99882 16.2938L7.77278 15.4895C8.84624 16.2681 10.1642 16.6343 11.4853 16.5211C12.8065 16.4078 14.0428 15.8228 14.968 14.8726C15.8933 13.9226 16.4459 12.6711 16.5244 11.347C16.6032 10.0231 16.2026 8.71491 15.3964 7.66191L16.9181 6.10016C15.6449 4.55363 13.8172 3.56657 11.826 3.35032C9.83473 3.13393 7.83798 3.70551 6.26248 4.94263Z" fill="#8791A3"/>
<path d="M10.9941 15.6933L7.15401 8.31521H14.8342L10.9941 15.6933Z" fill="#8791A3"/>
<path d="M19.2075 3.74685L18.4297 4.54558C19.2928 5.53876 19.948 6.69508 20.3565 7.94612C20.7649 9.19715 20.9181 10.5174 20.8072 11.8287C20.6964 13.14 20.3235 14.4157 19.7109 15.5804C19.0981 16.745 18.2581 17.7748 17.2402 18.6087L16.5039 17.8534L15.7261 17.0509C14.1505 18.2873 12.1541 18.8585 10.1632 18.6425C8.17219 18.4265 6.34454 17.4407 5.07056 15.8951L5.80871 15.1397L6.59035 14.3372C5.96749 13.5177 5.58615 12.5404 5.48907 11.5157C5.392 10.4909 5.58317 9.45932 6.04097 8.53748C6.49865 7.61551 7.20504 6.83991 8.07992 6.29806C8.95504 5.75623 9.96401 5.46984 10.993 5.47103C12.1467 5.45928 13.2728 5.82239 14.2026 6.50579L14.9898 5.6976C13.7782 4.77684 12.2867 4.30067 10.7658 4.34923C9.24494 4.39777 7.78688 4.96803 6.63636 5.96432C5.48584 6.9605 4.71295 8.3223 4.44701 9.82099C4.18119 11.3196 4.43863 12.8642 5.17616 14.1955L4.42101 14.9792C3.59384 13.6153 3.21236 12.0274 3.3298 10.4367C3.44725 8.84579 4.05762 7.33116 5.07621 6.10361L4.29265 5.30093C2.93503 6.89443 2.19031 8.92 2.19235 11.0136C2.19426 13.1071 2.94294 15.1315 4.30368 16.7221C5.66428 18.313 7.54755 19.3663 9.61514 19.6923C11.6826 20.0184 13.7986 19.596 15.5826 18.5011L16.3379 19.2697C14.5868 20.4053 12.5196 20.9531 10.4362 20.834C8.35281 20.7149 6.36155 19.9347 4.75141 18.6069L3.97361 19.4057C6.08963 21.198 8.80677 22.1206 11.5765 21.9873C14.3461 21.8539 16.9621 20.6744 18.8961 18.6872C20.8304 16.6997 21.9388 14.0524 21.9975 11.2794C22.0564 8.50643 21.0613 5.81447 19.2131 3.74685H19.2075Z" fill="#8791A3"/>
</svg>
