<svg width="16" height="16" viewBox="0 0 16 16" fill="none" xmlns="http://www.w3.org/2000/svg">
<path d="M14.6717 0.420044H3.10604C2.94028 0.420044 2.78131 0.485892 2.6641 0.603102C2.54689 0.720312 2.48104 0.879284 2.48104 1.04504C2.48104 1.2108 2.54689 1.36978 2.6641 1.48699C2.78131 1.6042 2.94028 1.67004 3.10604 1.67004H13.446L0.621664 14.495C0.55967 14.5521 0.509853 14.6211 0.475207 14.6979C0.440561 14.7747 0.421801 14.8577 0.420056 14.942C0.418311 15.0262 0.433616 15.1099 0.465051 15.1881C0.496486 15.2663 0.543403 15.3373 0.60298 15.3969C0.662558 15.4564 0.733567 15.5033 0.811738 15.5348C0.88991 15.5662 0.973631 15.5815 1.05787 15.5798C1.14211 15.578 1.22512 15.5593 1.30192 15.5246C1.37873 15.49 1.44773 15.4402 1.50479 15.3782L14.3298 2.55317V12.8938C14.3298 13.0596 14.3956 13.2185 14.5128 13.3357C14.6301 13.4529 14.789 13.5188 14.9548 13.5188C15.1205 13.5188 15.2795 13.4529 15.3967 13.3357C15.5139 13.2185 15.5798 13.0596 15.5798 12.8938V1.32879C15.5795 1.08799 15.4837 0.85713 15.3135 0.686796C15.1433 0.516462 14.9125 0.42054 14.6717 0.420044Z" fill="#ADBACD"/>
</svg>
