<svg viewBox="0 0 16 16" xmlns="http://www.w3.org/2000/svg">
<path d="M14.6719 0.420044H3.10628C2.94052 0.420044 2.78155 0.485892 2.66434 0.603102C2.54713 0.720312 2.48128 0.879284 2.48128 1.04504C2.48128 1.2108 2.54713 1.36978 2.66434 1.48699C2.78155 1.6042 2.94052 1.67004 3.10628 1.67004H13.4463L0.621908 14.495C0.559914 14.5521 0.510097 14.6211 0.475451 14.6979C0.440805 14.7747 0.422045 14.8577 0.4203 14.942C0.418555 15.0262 0.43386 15.1099 0.465295 15.1881C0.49673 15.2663 0.543647 15.3373 0.603224 15.3969C0.662802 15.4564 0.733811 15.5033 0.811983 15.5348C0.890154 15.5662 0.973875 15.5815 1.05811 15.5798C1.14235 15.578 1.22536 15.5593 1.30217 15.5246C1.37897 15.49 1.44797 15.4402 1.50503 15.3782L14.33 2.55317V12.8938C14.33 13.0596 14.3959 13.2185 14.5131 13.3357C14.6303 13.4529 14.7893 13.5188 14.955 13.5188C15.1208 13.5188 15.2798 13.4529 15.397 13.3357C15.5142 13.2185 15.58 13.0596 15.58 12.8938V1.32879C15.5797 1.08799 15.4839 0.85713 15.3137 0.686796C15.1435 0.516462 14.9127 0.42054 14.6719 0.420044Z"/>
</svg>
