<svg width="18" height="19" viewBox="0 0 18 19" fill="none" xmlns="http://www.w3.org/2000/svg">
<path d="M1.76322 13.5114C1.58588 13.5114 1.40889 13.4438 1.27346 13.3084C1.00296 13.0379 1.00296 12.5994 1.27346 12.3289L12.0986 1.50375C12.3688 1.23324 12.8076 1.23324 13.0781 1.50375C13.3486 1.77426 13.3486 2.21275 13.0781 2.48326L2.25297 13.3084C2.11789 13.4435 1.94055 13.5114 1.76322 13.5114Z" />
<path d="M0.693657 18.5C0.645513 18.5 0.596676 18.4948 0.547839 18.4844C0.17377 18.4041 -0.0645262 18.0359 0.0158294 17.6618L1.08608 12.6732C1.16644 12.2991 1.53635 12.0615 1.90869 12.1412C2.28276 12.2215 2.52105 12.5897 2.4407 12.9638L1.37044 17.9524C1.30083 18.2776 1.01335 18.5 0.693657 18.5Z" />
<path d="M5.68159 17.4297C5.50425 17.4297 5.32726 17.3622 5.19184 17.2268C4.92133 16.9563 4.92133 16.5178 5.19184 16.2473L16.017 5.42247C16.2871 5.15197 16.726 5.15197 16.9965 5.42247C17.267 5.69298 17.267 6.13147 16.9965 6.40198L6.17169 17.2268C6.03626 17.3622 5.85893 17.4297 5.68159 17.4297Z" />
<path d="M0.692271 18.5C0.37258 18.5 0.0854478 18.2776 0.015483 17.9524C-0.0645262 17.5783 0.173423 17.2102 0.547492 17.1298L5.53612 16.0595C5.91054 15.9802 6.27872 16.2178 6.35873 16.5916C6.43874 16.9656 6.20079 17.3338 5.82672 17.4142L0.838089 18.4844C0.789252 18.4952 0.740415 18.5 0.692271 18.5Z" />
<path d="M14.5474 8.56396C14.37 8.56396 14.1927 8.49642 14.0576 8.36099L10.1392 4.44262C9.86874 4.17211 9.86874 3.73362 10.1392 3.46311C10.4094 3.19261 10.8486 3.19261 11.1188 3.46311L15.0371 7.38149C15.3076 7.65199 15.3076 8.09049 15.0371 8.36099C14.902 8.49642 14.7247 8.56396 14.5474 8.56396Z" />
<path d="M16.5067 6.60495C16.3294 6.60495 16.1521 6.53741 16.0166 6.40198C15.7461 6.13147 15.7465 5.69333 16.017 5.42247C16.4025 5.03697 16.6145 4.51466 16.6145 3.95287C16.6145 3.39107 16.4021 2.8691 16.0166 2.48361C15.6308 2.09776 15.1088 1.88544 14.547 1.88544C13.9852 1.88544 13.4636 2.09741 13.0781 2.48326C12.808 2.75377 12.3691 2.75446 12.0979 2.48361C11.8274 2.2131 11.8281 1.77461 12.0986 1.50375C12.7456 0.856405 13.6146 0.5 14.547 0.5C15.4791 0.5 16.3491 0.856405 16.9961 1.50375C17.6435 2.15075 17.9999 3.02046 17.9999 3.95287C17.9999 4.88527 17.6438 5.75498 16.9965 6.40198C16.8618 6.53706 16.6841 6.60495 16.5067 6.60495Z" />
</svg>
