<svg width="17" height="18" viewBox="0 0 17 18" xmlns="http://www.w3.org/2000/svg">
<path d="M5.64701 2.44521C8.24038 -0.14816 12.4613 -0.14816 15.0547 2.44521C17.6475 5.03915 17.6475 9.25949 15.0547 11.8534C12.7452 14.1623 9.14831 14.4097 6.55663 12.6068C6.50209 12.8648 6.37729 13.111 6.17659 13.3117L2.39981 17.0885C1.84943 17.6378 0.960047 17.6378 0.412476 17.0885C-0.137344 16.5387 -0.137344 15.6493 0.412476 15.1012L4.18925 11.3233C4.38883 11.1243 4.63563 10.9989 4.89367 10.9444C3.08961 8.35212 3.33698 4.7558 5.64701 2.44521ZM6.83941 10.661C8.77558 12.5972 11.9266 12.5972 13.8623 10.661C15.7973 8.72485 15.7973 5.57435 13.8623 3.63818C11.9266 1.70256 8.77558 1.70256 6.83941 3.63818C4.90323 5.57435 4.90323 8.72485 6.83941 10.661Z"/>
</svg>
