<svg width="14" height="15" viewBox="0 0 14 15" fill="none" xmlns="http://www.w3.org/2000/svg">
<path d="M13.8421 11.4246C13.9429 11.5257 13.9995 11.6627 13.9995 11.8055C13.9995 11.9483 13.9429 12.0853 13.8421 12.1864L11.6882 14.3424C11.5872 14.4433 11.4504 14.5 11.3077 14.5C11.165 14.5 11.0281 14.4433 10.9272 14.3424C10.8263 14.2413 10.7697 14.1043 10.7697 13.9615C10.7697 13.8186 10.8263 13.6816 10.9272 13.5806L12.1621 12.3445H1.61538C1.18696 12.3445 0.776079 12.1741 0.473135 11.8709C0.170192 11.5676 0 11.1563 0 10.7275V7.49351C3.00947e-09 7.35056 0.0567305 7.21347 0.157712 7.11239C0.258693 7.0113 0.395653 6.95452 0.538462 6.95452C0.68127 6.95452 0.81823 7.0113 0.919211 7.11239C1.02019 7.21347 1.07692 7.35056 1.07692 7.49351V10.7275C1.07878 10.8699 1.13611 11.0059 1.23669 11.1066C1.33727 11.2072 1.47315 11.2646 1.61538 11.2665H12.1621L10.9272 10.0304C10.8321 9.92822 10.7803 9.79308 10.7827 9.65344C10.7852 9.5138 10.8417 9.38057 10.9404 9.28182C11.039 9.18307 11.1721 9.1265 11.3116 9.12403C11.4511 9.12157 11.5861 9.1734 11.6882 9.26861L13.8421 11.4246ZM12.4062 2.64254H1.83795L3.07282 1.40644C3.16793 1.30427 3.21972 1.16913 3.21725 1.02949C3.21479 0.889851 3.15828 0.756622 3.05963 0.657869C2.96097 0.559115 2.82787 0.502548 2.68838 0.500084C2.54888 0.49762 2.41387 0.549452 2.31179 0.644661L0.157949 2.80065C0.0571125 2.90171 0.000473805 3.0387 0.000473805 3.18154C0.000473805 3.32437 0.0571125 3.46137 0.157949 3.56243L2.31179 5.71842C2.41276 5.81935 2.54961 5.87605 2.69231 5.87605C2.835 5.87605 2.97186 5.81935 3.07282 5.71842C3.17366 5.61736 3.2303 5.48036 3.2303 5.33753C3.2303 5.19469 3.17366 5.0577 3.07282 4.95664L1.83795 3.72054H12.3846C12.5268 3.7224 12.6627 3.77978 12.7633 3.88046C12.8639 3.98114 12.9212 4.11716 12.9231 4.25953V7.49351C12.9231 7.63647 12.9798 7.77356 13.0808 7.87464C13.1818 7.97572 13.3187 8.03251 13.4615 8.03251C13.6043 8.03251 13.7413 7.97572 13.8423 7.87464C13.9433 7.77356 14 7.63647 14 7.49351V4.25953C14 3.83068 13.8298 3.41939 13.5269 3.11615C13.2239 2.8129 12.813 2.64254 12.3846 2.64254H12.4062Z" fill="#0F172A"/>
</svg>
