<svg width="15" height="14" viewBox="0 0 15 14" fill="currentColor" xmlns="http://www.w3.org/2000/svg">
<path fill-rule="evenodd" clip-rule="evenodd" d="M4.13742 3.59876H7.7415L11.9254 3.59876L10.5284 4.99582C10.4112 5.11297 10.4112 5.30292 10.5284 5.42008C10.6455 5.53724 10.8355 5.53724 10.9526 5.42008L12.8618 3.51089C12.979 3.39373 12.979 3.20378 12.8618 3.08663L10.9526 1.17744C10.8355 1.06028 10.6455 1.06028 10.5284 1.17744C10.4112 1.2946 10.4112 1.48455 10.5284 1.6017L11.9254 2.99876H7.7415H4.13742C3.74098 2.99876 2.84543 3.22068 2.03368 4.03244C1.22192 4.84419 1 5.73974 1 6.13618V6.97361C1 7.13929 1.13431 7.27361 1.3 7.27361C1.46569 7.27361 1.6 7.13929 1.6 6.97361L1.6 6.13618C1.6 5.90209 1.7564 5.15824 2.45794 4.4567C3.15948 3.75516 3.90333 3.59876 4.13742 3.59876ZM2.08795 10.9136L3.99714 12.8228C4.11429 12.9399 4.30424 12.9399 4.4214 12.8228C4.53856 12.7056 4.53856 12.5157 4.4214 12.3985L3.02434 11.0015L7.20828 11.0015L10.8124 11.0015C11.2088 11.0015 12.1043 10.7795 12.9161 9.96778C13.7279 9.15602 13.9498 8.26048 13.9498 7.86403V7.02661C13.9498 6.86092 13.8155 6.72661 13.6498 6.72661C13.4841 6.72661 13.3498 6.86092 13.3498 7.02661V7.86403C13.3498 8.09812 13.1934 8.84198 12.4918 9.54352C11.7903 10.2451 11.0464 10.4015 10.8124 10.4015L7.20828 10.4015L3.02434 10.4015L4.4214 9.0044C4.53856 8.88724 4.53856 8.69729 4.4214 8.58014C4.30424 8.46298 4.11429 8.46298 3.99714 8.58014L2.08795 10.4893C1.97079 10.6065 1.97079 10.7964 2.08795 10.9136Z" />
<path d="M7.7415 3.59876V3.99876V3.59876ZM11.9254 3.59876L12.2083 3.8816L12.8911 3.19876H11.9254V3.59876ZM10.5284 4.99582L10.2455 4.71297H10.2455L10.5284 4.99582ZM10.5284 5.42008L10.2455 5.70292L10.2455 5.70292L10.5284 5.42008ZM10.9526 5.42008L10.6698 5.13724V5.13724L10.9526 5.42008ZM12.8618 3.51089L13.1447 3.79373L12.8618 3.51089ZM12.8618 3.08663L13.1447 2.80378L12.8618 3.08663ZM10.9526 1.17744L10.6698 1.46028L10.9526 1.17744ZM11.9254 2.99876V3.39876H12.8911L12.2083 2.71592L11.9254 2.99876ZM2.03368 4.03244L1.75083 3.74959H1.75083L2.03368 4.03244ZM1.6 6.97361H1.2H1.6ZM1.6 6.13618H2H1.6ZM2.45794 4.4567L2.1751 4.17386H2.1751L2.45794 4.4567ZM3.99714 12.8228L3.71429 13.1056L3.71429 13.1056L3.99714 12.8228ZM2.08795 10.9136L1.8051 11.1964L1.8051 11.1964L2.08795 10.9136ZM4.4214 12.8228L4.13856 12.5399L4.13856 12.5399L4.4214 12.8228ZM4.4214 12.3985L4.13856 12.6814V12.6814L4.4214 12.3985ZM3.02434 11.0015V10.6015H2.05866L2.7415 11.2843L3.02434 11.0015ZM7.20828 11.0015V10.6015V11.0015ZM10.8124 11.0015V11.4015V11.0015ZM12.4918 9.54352L12.209 9.26067V9.26067L12.4918 9.54352ZM10.8124 10.4015V10.8015V10.4015ZM7.20828 10.4015V10.0015V10.4015ZM3.02434 10.4015L2.7415 10.1186L2.05866 10.8015H3.02434V10.4015ZM4.4214 9.0044L4.13856 8.72156L4.13856 8.72156L4.4214 9.0044ZM4.4214 8.58014L4.13856 8.86298L4.13856 8.86298L4.4214 8.58014ZM3.99714 8.58014L4.27998 8.86298L3.99714 8.58014ZM2.08795 10.4893L1.8051 10.2065L1.8051 10.2065L2.08795 10.4893ZM4.13742 3.99876H7.7415V3.19876H4.13742V3.99876ZM7.7415 3.99876L11.9254 3.99876V3.19876L7.7415 3.19876V3.99876ZM11.6426 3.31592L10.2455 4.71297L10.8112 5.27866L12.2083 3.8816L11.6426 3.31592ZM10.2455 4.71297C9.97217 4.98634 9.97217 5.42955 10.2455 5.70292L10.8112 5.13724C10.8503 5.17629 10.8503 5.2396 10.8112 5.27866L10.2455 4.71297ZM10.2455 5.70292C10.5189 5.97629 10.9621 5.97629 11.2355 5.70292L10.6698 5.13724C10.7089 5.09818 10.7722 5.09818 10.8112 5.13724L10.2455 5.70292ZM11.2355 5.70292L13.1447 3.79373L12.579 3.22805L10.6698 5.13724L11.2355 5.70292ZM13.1447 3.79373C13.418 3.52037 13.418 3.07715 13.1447 2.80378L12.579 3.36947C12.5399 3.33042 12.5399 3.2671 12.579 3.22805L13.1447 3.79373ZM13.1447 2.80378L11.2355 0.894596L10.6698 1.46028L12.579 3.36947L13.1447 2.80378ZM11.2355 0.894596C10.9621 0.621229 10.5189 0.621229 10.2455 0.894596L10.8112 1.46028C10.7722 1.49933 10.7089 1.49933 10.6698 1.46028L11.2355 0.894596ZM10.2455 0.894596C9.97217 1.16796 9.97217 1.61118 10.2455 1.88455L10.8112 1.31886C10.8503 1.35791 10.8503 1.42123 10.8112 1.46028L10.2455 0.894596ZM10.2455 1.88455L11.6426 3.2816L12.2083 2.71592L10.8112 1.31886L10.2455 1.88455ZM11.9254 2.59876H7.7415V3.39876H11.9254V2.59876ZM7.7415 2.59876H4.13742V3.39876H7.7415V2.59876ZM2.31652 4.31528C3.0548 3.57699 3.84923 3.39876 4.13742 3.39876V2.59876C3.63273 2.59876 2.63606 2.86437 1.75083 3.74959L2.31652 4.31528ZM1.4 6.13618C1.4 5.84799 1.57823 5.05356 2.31652 4.31528L1.75083 3.74959C0.865606 4.63482 0.6 5.63149 0.6 6.13618H1.4ZM1.4 6.97361V6.13618H0.6V6.97361H1.4ZM1.3 6.87361C1.35523 6.87361 1.4 6.91838 1.4 6.97361H0.6C0.6 7.36021 0.913401 7.67361 1.3 7.67361V6.87361ZM1.2 6.97361C1.2 6.91838 1.24477 6.87361 1.3 6.87361V7.67361C1.6866 7.67361 2 7.36021 2 6.97361L1.2 6.97361ZM1.2 6.13618L1.2 6.97361H2L2 6.13618H1.2ZM2.1751 4.17386C1.40007 4.94888 1.2 5.79387 1.2 6.13618H2C2 6.01031 2.11274 5.36759 2.74078 4.73954L2.1751 4.17386ZM4.13742 3.19876C3.79511 3.19876 2.95013 3.39883 2.1751 4.17386L2.74078 4.73954C3.36883 4.1115 4.01155 3.99876 4.13742 3.99876V3.19876ZM4.27998 12.5399L2.37079 10.6307L1.8051 11.1964L3.71429 13.1056L4.27998 12.5399ZM4.13856 12.5399C4.17761 12.5009 4.24093 12.5009 4.27998 12.5399L3.71429 13.1056C3.98766 13.379 4.43088 13.379 4.70424 13.1056L4.13856 12.5399ZM4.13856 12.6814C4.0995 12.6423 4.0995 12.579 4.13856 12.5399L4.70424 13.1056C4.97761 12.8323 4.97761 12.389 4.70424 12.1157L4.13856 12.6814ZM2.7415 11.2843L4.13856 12.6814L4.70424 12.1157L3.30719 10.7186L2.7415 11.2843ZM7.20828 10.6015H3.02434V11.4015L7.20828 11.4015V10.6015ZM10.8124 10.6015L7.20828 10.6015V11.4015L10.8124 11.4015V10.6015ZM12.6333 9.68494C11.895 10.4232 11.1006 10.6015 10.8124 10.6015V11.4015C11.317 11.4015 12.3137 11.1359 13.1989 10.2506L12.6333 9.68494ZM13.5498 7.86403C13.5498 8.15223 13.3715 8.94665 12.6333 9.68494L13.1989 10.2506C14.0842 9.3654 14.3498 8.36873 14.3498 7.86403H13.5498ZM13.5498 7.02661V7.86403H14.3498V7.02661H13.5498ZM13.6498 7.12661C13.5945 7.12661 13.5498 7.08184 13.5498 7.02661H14.3498C14.3498 6.64001 14.0364 6.32661 13.6498 6.32661V7.12661ZM13.7498 7.02661C13.7498 7.08184 13.705 7.12661 13.6498 7.12661V6.32661C13.2632 6.32661 12.9498 6.64001 12.9498 7.02661H13.7498ZM13.7498 7.86403V7.02661H12.9498V7.86403H13.7498ZM12.7747 9.82636C13.5497 9.05133 13.7498 8.20634 13.7498 7.86403H12.9498C12.9498 7.9899 12.837 8.63263 12.209 9.26067L12.7747 9.82636ZM10.8124 10.8015C11.1547 10.8015 11.9997 10.6014 12.7747 9.82636L12.209 9.26067C11.5809 9.88872 10.9382 10.0015 10.8124 10.0015V10.8015ZM7.20828 10.8015L10.8124 10.8015V10.0015L7.20828 10.0015V10.8015ZM3.02434 10.8015L7.20828 10.8015V10.0015L3.02434 10.0015V10.8015ZM4.13856 8.72156L2.7415 10.1186L3.30719 10.6843L4.70424 9.28724L4.13856 8.72156ZM4.13856 8.86298C4.0995 8.82393 4.0995 8.76061 4.13856 8.72156L4.70424 9.28724C4.97761 9.01388 4.97761 8.57066 4.70424 8.29729L4.13856 8.86298ZM4.27998 8.86298C4.24093 8.90203 4.17761 8.90203 4.13856 8.86298L4.70424 8.29729C4.43088 8.02393 3.98766 8.02393 3.71429 8.29729L4.27998 8.86298ZM2.37079 10.7722L4.27998 8.86298L3.71429 8.29729L1.8051 10.2065L2.37079 10.7722ZM2.37079 10.6307C2.40984 10.6698 2.40984 10.7331 2.37079 10.7722L1.8051 10.2065C1.53174 10.4798 1.53174 10.9231 1.8051 11.1964L2.37079 10.6307Z" />
</svg>
