<svg width="16" height="16" viewBox="0 0 16 16" fill="none" xmlns="http://www.w3.org/2000/svg">
<rect x="0.6" y="0.6" width="14.8" height="14.8" rx="7.4" stroke="#687386" stroke-width="1.2"/>
<path d="M7.11112 10.0581C7.09245 9.62879 7.11578 9.26012 7.18112 8.95212C7.24645 8.64412 7.36312 8.36879 7.53112 8.12612C7.70845 7.88345 7.94178 7.65479 8.23112 7.44012L8.88912 6.97812C9.25312 6.71679 9.50978 6.47879 9.65912 6.26412C9.80845 6.04012 9.88312 5.79279 9.88312 5.52212C9.88312 5.26079 9.79912 5.03212 9.63112 4.83612C9.47245 4.64012 9.25778 4.48145 8.98712 4.36012C8.71645 4.23879 8.40845 4.17812 8.06312 4.17812C7.62445 4.17812 7.21378 4.28545 6.83112 4.50012C6.44845 4.71479 6.12178 5.01812 5.85112 5.41012L4.74512 4.83612C4.98778 4.44412 5.28178 4.10812 5.62712 3.82812C5.98178 3.54812 6.36912 3.33812 6.78912 3.19812C7.20912 3.04879 7.65712 2.97412 8.13312 2.97412C8.73045 2.97412 9.26245 3.08612 9.72912 3.31012C10.1958 3.52479 10.5645 3.81879 10.8351 4.19212C11.1151 4.56545 11.2551 4.99479 11.2551 5.48012C11.2551 5.79745 11.2038 6.08679 11.1011 6.34812C10.9985 6.60945 10.8258 6.86612 10.5831 7.11812C10.3405 7.36079 10.0045 7.63145 9.57512 7.93012L9.14112 8.23812C8.81445 8.45279 8.58578 8.70479 8.45512 8.99412C8.32445 9.27412 8.27312 9.62879 8.30112 10.0581H7.11112ZM7.71312 13.0261C7.47045 13.0261 7.26045 12.9421 7.08312 12.7741C6.91512 12.5968 6.83112 12.3868 6.83112 12.1441C6.83112 11.9015 6.91512 11.6961 7.08312 11.5281C7.26045 11.3508 7.47045 11.2621 7.71312 11.2621C7.95578 11.2621 8.16112 11.3508 8.32912 11.5281C8.50645 11.6961 8.59512 11.9015 8.59512 12.1441C8.59512 12.3868 8.50645 12.5968 8.32912 12.7741C8.16112 12.9421 7.95578 13.0261 7.71312 13.0261Z" fill="#687386"/>
</svg>
