<svg width="70" height="73" viewBox="0 0 70 73" fill="none" xmlns="http://www.w3.org/2000/svg">
<g filter="url(#filter0_d_235_467)">
<path d="M35 70.2339C54.33 70.2339 70 54.5638 70 35.2339C70 15.9039 54.33 0.233887 35 0.233887C15.67 0.233887 0 15.9039 0 35.2339C0 54.5638 15.67 70.2339 35 70.2339Z" fill="#004CA8"/>
<path d="M69.5 35.2339C69.5 54.2877 54.0538 69.7339 35 69.7339C15.9462 69.7339 0.5 54.2877 0.5 35.2339C0.5 16.18 15.9462 0.733887 35 0.733887C54.0538 0.733887 69.5 16.18 69.5 35.2339Z" stroke="#0F172A"/>
</g>
<path d="M53.3059 52.7734C37.7863 55.9086 22.6242 45.8502 19.4701 30.4208C17.8923 22.9445 19.5126 15.4774 23.3675 9.44741C11.6793 14.8192 4.76679 27.6764 7.44754 40.8788C10.6017 56.3081 25.7638 66.3666 41.2834 63.2314C49.283 61.6644 55.6926 56.9135 59.8682 50.5665C57.7868 51.5144 55.7058 52.3033 53.3059 52.7734Z" fill="#002C7F"/>
<path d="M33.1643 50.9136C28.5025 50.3956 25.4023 47.5353 24.6323 43.5816C24.4211 42.4974 25.3402 41.5927 26.4448 41.5927H26.5039C27.6084 41.5927 28.4609 42.5058 28.7475 43.5725C29.4343 46.1288 31.5611 47.6062 34.9683 47.6062C39.1778 47.6062 41.4328 45.3512 41.4328 42.6451C41.4328 34.9779 24.7454 38.8867 24.7454 27.6114C24.7454 23.853 28.2032 19.9442 33.1643 19.3429V16.5616C33.1643 15.6068 33.9384 14.8328 34.8932 14.8328V14.8328C35.848 14.8328 36.6221 15.6068 36.6221 16.5616V19.3429C40.6019 19.9848 43.595 22.929 44.3844 26.6775C44.612 27.7584 43.6945 28.6638 42.5899 28.6638H42.5308C41.4263 28.6638 40.5659 27.7468 40.2343 26.6931C39.4742 24.2781 37.3376 22.6503 34.818 22.6503C31.0596 22.6503 28.6542 25.206 28.6542 27.6114C28.6542 35.2786 45.3416 31.3698 45.3416 42.6451C45.3416 46.7042 42.0342 50.3123 36.6221 51.064L36.6221 53.8452C36.6221 54.8 35.848 55.5741 34.8932 55.5741V55.5741C33.9384 55.5741 33.1643 54.8 33.1643 53.8452L33.1643 50.9136Z" fill="white"/>
<path fill-rule="evenodd" clip-rule="evenodd" d="M61.9431 47.8518L63.7798 49.1564C64.1936 49.4503 64.1505 50.0777 63.7004 50.3122L57.7544 53.4101C57.2822 53.6561 56.7236 53.2878 56.7635 52.7569L57.287 45.8074C57.3267 45.2805 57.9265 44.9989 58.3573 45.3048L60.0042 46.4746C64.2086 36.9197 62.6548 25.3718 55.1299 17.2083C45.074 6.29901 28.1312 5.52938 17.1299 15.4217C16.9905 15.547 16.7747 15.5395 16.6476 15.4016L15.5264 14.1852C15.3993 14.0473 15.4091 13.8314 15.5484 13.7058C27.4973 2.94026 45.9163 3.77003 56.8456 15.6269C65.1365 24.6215 66.7509 37.3938 61.9431 47.8518Z" fill="#BEE179"/>
<path fill-rule="evenodd" clip-rule="evenodd" d="M8.90223 22.6857L7.06553 21.3811C6.65177 21.0872 6.6949 20.4598 7.14499 20.2253L13.091 17.1274C13.5631 16.8815 14.1218 17.2498 14.0818 17.7806L13.5583 24.7301C13.5186 25.257 12.9188 25.5387 12.488 25.2327L10.8412 24.0629C6.63675 33.6178 8.19057 45.1657 15.7154 53.3292C25.7713 64.2385 42.7142 65.0081 53.7155 55.1159C53.8549 54.9905 54.0706 54.9981 54.1977 55.1359L55.319 56.3523C55.446 56.4902 55.4363 56.7062 55.297 56.8317C43.3481 67.5973 24.9291 66.7675 13.9998 54.9106C5.70883 45.916 4.09443 33.1437 8.90223 22.6857Z" fill="#BEE179"/>
<defs>
<filter id="filter0_d_235_467" x="0" y="0.233887" width="70" height="72" filterUnits="userSpaceOnUse" color-interpolation-filters="sRGB">
<feFlood flood-opacity="0" result="BackgroundImageFix"/>
<feColorMatrix in="SourceAlpha" type="matrix" values="0 0 0 0 0 0 0 0 0 0 0 0 0 0 0 0 0 0 127 0" result="hardAlpha"/>
<feOffset dy="2"/>
<feComposite in2="hardAlpha" operator="out"/>
<feColorMatrix type="matrix" values="0 0 0 0 0 0 0 0 0 0 0 0 0 0 0 0 0 0 1 0"/>
<feBlend mode="normal" in2="BackgroundImageFix" result="effect1_dropShadow_235_467"/>
<feBlend mode="normal" in="SourceGraphic" in2="effect1_dropShadow_235_467" result="shape"/>
</filter>
</defs>
</svg>
