<svg width="23" height="24" viewBox="0 0 23 24" fill="none" xmlns="http://www.w3.org/2000/svg">
<path d="M11.5 23.1921C17.8513 23.1921 23 18.0434 23 11.6921C23 5.34086 17.8513 0.192139 11.5 0.192139C5.14873 0.192139 0 5.34086 0 11.6921C0 18.0434 5.14873 23.1921 11.5 23.1921Z" fill="#FFBA00"/>
<path d="M17.5148 17.4552C12.4155 18.4853 7.43367 15.1804 6.39732 10.1107C5.87892 7.65424 6.41131 5.20076 7.6779 3.21947C3.83748 4.98449 1.56624 9.20898 2.44706 13.5469C3.48341 18.6166 8.46526 21.9215 13.5645 20.8914C16.193 20.3765 18.299 18.8155 19.671 16.73C18.9871 17.0415 18.3033 17.3007 17.5148 17.4552Z" fill="#B74D00" fill-opacity="0.25"/>
<path fill-rule="evenodd" clip-rule="evenodd" d="M20.5335 16.0526L21.1598 16.4975C21.3009 16.5977 21.2862 16.8116 21.1327 16.8916L19.1051 17.948C18.9441 18.0319 18.7536 17.9063 18.7672 17.7252L18.9457 15.3555C18.9593 15.1758 19.1638 15.0797 19.3107 15.1841L19.8723 15.583C21.306 12.3247 20.7762 8.38689 18.2102 5.60313C14.7811 1.88303 9.00354 1.62058 5.25209 4.99386C5.20455 5.03662 5.13098 5.03403 5.08764 4.98702L4.7053 4.57223C4.66196 4.52522 4.66529 4.45157 4.71279 4.40877C8.78738 0.737688 15.0683 1.02064 18.7952 5.06385C21.6224 8.13102 22.1729 12.4864 20.5335 16.0526Z" fill="white"/>
<path fill-rule="evenodd" clip-rule="evenodd" d="M2.44652 7.47113L1.82021 7.02627C1.67911 6.92605 1.69382 6.71211 1.84731 6.63215L3.87489 5.57576C4.03589 5.49188 4.22641 5.61747 4.21277 5.7985L4.03427 8.16827C4.02073 8.34795 3.81619 8.44399 3.66929 8.33965L3.1077 7.94076C1.67399 11.199 2.20385 15.1368 4.76984 17.9206C8.19892 21.6407 13.9765 21.9032 17.7279 18.5299C17.7755 18.4871 17.849 18.4897 17.8924 18.5367L18.2747 18.9515C18.318 18.9985 18.3147 19.0722 18.2672 19.115C14.1926 22.786 7.91171 22.5031 4.1848 18.4599C1.35757 15.3927 0.807057 11.0373 2.44652 7.47113Z" fill="white"/>
<path d="M5.8144 14.7123H4.69718L4.70423 13.8876H5.8144C6.09165 13.8876 6.32543 13.8253 6.51575 13.7008C6.70606 13.5739 6.84939 13.3895 6.94572 13.1475C7.0444 12.9055 7.09374 12.6129 7.09374 12.2699V12.0197C7.09374 11.7565 7.06555 11.5251 7.00916 11.3254C6.95512 11.1257 6.87406 10.9577 6.76598 10.8214C6.6579 10.6851 6.52515 10.5829 6.36773 10.5148C6.2103 10.4443 6.02939 10.409 5.82497 10.409H4.67603V9.58081H5.82497C6.16801 9.58081 6.48168 9.63955 6.76598 9.75703C7.05263 9.87216 7.30051 10.0378 7.50962 10.254C7.71873 10.4701 7.87968 10.7286 7.99246 11.0293C8.10758 11.3277 8.16515 11.6602 8.16515 12.0267V12.2699C8.16515 12.6341 8.10758 12.9665 7.99246 13.2673C7.87968 13.568 7.71873 13.8265 7.50962 14.0426C7.30286 14.2565 7.05498 14.4221 6.76598 14.5396C6.47933 14.6547 6.16214 14.7123 5.8144 14.7123ZM5.29632 9.58081V14.7123H4.23901V9.58081H5.29632Z" fill="white"/>
<path d="M10.7168 10.4584L9.32114 14.7123H8.19687L10.1035 9.58081H10.819L10.7168 10.4584ZM11.8763 14.7123L10.4771 10.4584L10.3643 9.58081H11.0868L13.0041 14.7123H11.8763ZM11.8129 12.8021V13.6303H9.10263V12.8021H11.8129Z" fill="white"/>
<path d="M14.8297 9.58081V14.7123H13.7759V9.58081H14.8297Z" fill="white"/>
<path d="M19.0766 11.854V12.7386H15.5593V11.854H19.0766ZM17.8007 10.4619V14.1977H16.8386V10.4619H17.8007Z" fill="white"/>
</svg>
