<svg width="23" height="24" viewBox="0 0 23 24" fill="none" xmlns="http://www.w3.org/2000/svg">
<g clip-path="url(#clip0_270_1144)">
<path d="M11.5 23.1921C17.8513 23.1921 23 18.0434 23 11.6921C23 5.34086 17.8513 0.192139 11.5 0.192139C5.14873 0.192139 0 5.34086 0 11.6921C0 18.0434 5.14873 23.1921 11.5 23.1921Z" fill="#524FFF"/>
<path d="M16.4539 17.5979C14.1113 17.2075 8.10073 14.9248 6.86477 8.87868C6.24652 5.94906 6.83025 1.66408 6.83025 1.66408C2.25012 3.76906 -0.458581 8.80724 0.591892 13.9807C1.82786 20.0268 7.76927 23.9683 13.8507 22.7398C16.9854 22.1257 19.4971 20.264 21.1333 17.7769C20.3177 18.1484 18.7965 17.9884 16.4539 17.5979Z" fill="#0192D0"/>
<path fill-rule="evenodd" clip-rule="evenodd" d="M20.5762 16.0034L21.2 16.4465C21.3405 16.5463 21.3259 16.7594 21.173 16.8391L19.1535 17.8913C18.9931 17.9748 18.8033 17.8497 18.8169 17.6694L18.9947 15.3091C19.0082 15.1301 19.2119 15.0344 19.3582 15.1383L19.9176 15.5357C21.3456 12.2903 20.8179 8.36812 18.2621 5.5954C14.8466 1.89006 9.09195 1.62865 5.35539 4.98855C5.30803 5.03114 5.23475 5.02857 5.19159 4.98174L4.81076 4.56859C4.7676 4.52176 4.77091 4.44841 4.81822 4.40578C8.87666 0.749261 15.1326 1.03109 18.8448 5.05826C21.6608 8.11326 22.2091 12.4514 20.5762 16.0034Z" fill="#B7FAF4"/>
<path fill-rule="evenodd" clip-rule="evenodd" d="M2.56081 7.45581L1.93698 7.01271C1.79644 6.91289 1.81109 6.69979 1.96397 6.62015L3.98351 5.56795C4.14387 5.4844 4.33363 5.6095 4.32005 5.78981L4.14225 8.15018C4.12877 8.32914 3.92504 8.42481 3.77872 8.32088L3.21936 7.92357C1.79134 11.1689 2.31909 15.0911 4.87491 17.8638C8.29039 21.5692 14.045 21.8306 17.7816 18.4707C17.8289 18.4281 17.9022 18.4307 17.9454 18.4775L18.3262 18.8906C18.3694 18.9375 18.3661 19.0108 18.3187 19.0534C14.2603 22.71 8.00432 22.4281 4.29219 18.401C1.47617 15.346 0.927843 11.0078 2.56081 7.45581Z" fill="#E4C2FF"/>
<path d="M11.4353 3.73071L11.542 4.09347V8.21903L6.54906 11.8381L11.4353 3.73071Z" fill="#AB99FF"/>
<path d="M11.4353 3.73071L16.3215 11.8381L11.4353 8.30356V3.73071Z" fill="#B7FAF4"/>
<path d="M11.4352 15.6514L11.4954 15.7247V19.4744L11.4352 19.6501L6.54611 12.7646L11.4352 15.6514Z" fill="#00C2FF"/>
<path d="M11.4353 19.6501V15.6514L16.3215 12.7646L11.4353 19.6501Z" fill="#E4C2FF"/>
<path d="M13.5153 11.5176V12.4884H9.39258V11.5176H13.5153ZM11.9786 9.86108V14.2399H10.9334V9.86108H11.9786Z" fill="#AD9CFF"/>
<path fill-rule="evenodd" clip-rule="evenodd" d="M11.3631 9.86108H11.9787V11.5176H13.5154V12.4884H11.9787V14.2399H11.3631V12.4884V11.5176V9.86108Z" fill="#B7FAF4"/>
</g>
<defs>
<clipPath id="clip0_270_1144">
<rect y="0.192139" width="23" height="23" rx="11.5" fill="white"/>
</clipPath>
</defs>
</svg>
