<svg width="23" height="24" viewBox="0 0 23 24" fill="none" xmlns="http://www.w3.org/2000/svg">
<path d="M11.5 23.1921C17.8513 23.1921 23 18.0434 23 11.6921C23 5.34086 17.8513 0.192139 11.5 0.192139C5.14873 0.192139 0 5.34086 0 11.6921C0 18.0434 5.14873 23.1921 11.5 23.1921Z" fill="#00A298"/>
<path d="M17.5148 17.4552C12.4155 18.4853 7.43367 15.1804 6.39732 10.1107C5.87892 7.65424 6.41131 5.20076 7.6779 3.21947C3.83748 4.98449 1.56624 9.20898 2.44706 13.5469C3.48341 18.6166 8.46526 21.9215 13.5645 20.8914C16.193 20.3765 18.299 18.8155 19.671 16.73C18.9871 17.0415 18.3033 17.3007 17.5148 17.4552Z" fill="#2BBE91"/>
<path fill-rule="evenodd" clip-rule="evenodd" d="M20.5335 16.0528L21.1598 16.4977C21.3009 16.5979 21.2862 16.8119 21.1327 16.8918L19.1051 17.9482C18.9441 18.0321 18.7536 17.9065 18.7672 17.7255L18.9457 15.3557C18.9593 15.176 19.1638 15.08 19.3107 15.1843L19.8723 15.5832C21.306 12.325 20.7762 8.38713 18.2102 5.60337C14.7811 1.88327 9.00354 1.62082 5.25209 4.99411C5.20455 5.03686 5.13098 5.03428 5.08764 4.98726L4.7053 4.57247C4.66197 4.52546 4.66529 4.45181 4.71279 4.40902C8.78739 0.737932 15.0683 1.02089 18.7952 5.0641C21.6224 8.13126 22.1729 12.4867 20.5335 16.0528Z" fill="white"/>
<path fill-rule="evenodd" clip-rule="evenodd" d="M2.44652 7.47138L1.82021 7.02651C1.67911 6.9263 1.69382 6.71236 1.8473 6.63239L3.87489 5.576C4.03589 5.49212 4.22641 5.61771 4.21277 5.79875L4.03427 8.16852C4.02073 8.34819 3.81619 8.44424 3.66929 8.3399L3.1077 7.94101C1.67399 11.1993 2.20385 15.1371 4.76984 17.9209C8.19892 21.641 13.9765 21.9034 17.7279 18.5301C17.7755 18.4874 17.849 18.4899 17.8924 18.537L18.2747 18.9517C18.318 18.9988 18.3147 19.0724 18.2672 19.1152C14.1926 22.7863 7.91171 22.5033 4.1848 18.4601C1.35757 15.393 0.807056 11.0376 2.44652 7.47138Z" fill="white"/>
<path fill-rule="evenodd" clip-rule="evenodd" d="M16.2337 6.85107H6.70044V9.18142H10.196V12.624H12.6322V9.18142H16.2337V6.85107ZM10.196 18.3969V13.5476H8.08593V13.0858H10.196H12.6322H14.7825V13.5476H12.6322V18.3969H10.196Z" fill="white"/>
</svg>
