<svg width="23" height="24" viewBox="0 0 23 24" fill="none" xmlns="http://www.w3.org/2000/svg">
<path d="M11.5 23.1921C17.8513 23.1921 23 18.0434 23 11.6921C23 5.34086 17.8513 0.192139 11.5 0.192139C5.14873 0.192139 0 5.34086 0 11.6921C0 18.0434 5.14873 23.1921 11.5 23.1921Z" fill="#004CA8"/>
<path d="M17.5148 17.4552C12.4155 18.4853 7.43367 15.1804 6.39732 10.1107C5.87892 7.65424 6.41131 5.20076 7.6779 3.21947C3.83748 4.98449 1.56624 9.20898 2.44706 13.5469C3.48341 18.6166 8.46526 21.9215 13.5645 20.8914C16.193 20.3765 18.299 18.8155 19.671 16.73C18.9871 17.0415 18.3033 17.3007 17.5148 17.4552Z" fill="#002C7F"/>
<path d="M10.8967 16.8442C9.36875 16.6744 8.35134 15.7387 8.09522 14.4446C8.02372 14.0833 8.3303 13.7816 8.69859 13.7816C9.06688 13.7816 9.35079 14.0863 9.44805 14.4415C9.67642 15.2756 10.3742 15.7574 11.4895 15.7574C12.8726 15.7574 13.6135 15.0165 13.6135 14.1273C13.6135 11.6081 8.13053 12.8924 8.13053 9.18771C8.13053 7.9528 9.26665 6.66849 10.8967 6.47091V5.55707C10.8967 5.24334 11.1511 4.98901 11.4648 4.98901C11.7785 4.98901 12.0328 5.24334 12.0328 5.55707V6.47091C13.3371 6.68128 14.3189 7.64424 14.5813 8.87137C14.6583 9.23152 14.3523 9.53349 13.984 9.53349C13.6157 9.53349 13.329 9.22751 13.2168 8.87674C12.9645 8.08833 12.2647 7.55763 11.4401 7.55763C10.2052 7.55763 9.41484 8.39737 9.41484 9.18771C9.41484 11.7069 14.8978 10.4226 14.8978 14.1273C14.8978 15.4611 13.8111 16.6466 12.0328 16.8936V17.8074C12.0328 18.1211 11.7785 18.3754 11.4648 18.3754C11.1511 18.3754 10.8967 18.1211 10.8967 17.8074V16.8442Z" fill="white"/>
<path fill-rule="evenodd" clip-rule="evenodd" d="M20.3528 15.838L20.9563 16.2666C21.0923 16.3632 21.0781 16.5693 20.9302 16.6464L18.9765 17.6643C18.8214 17.7451 18.6378 17.6241 18.651 17.4496L18.823 15.1662C18.836 14.9931 19.0331 14.9006 19.1746 15.0011L19.7157 15.3855C21.0972 12.246 20.5867 8.45169 18.1142 5.7694C14.8101 2.18491 9.24317 1.93203 5.62847 5.18235C5.58266 5.22354 5.51177 5.22105 5.47001 5.17575L5.10161 4.77608C5.05985 4.73078 5.06306 4.65982 5.10883 4.61858C9.0349 1.08132 15.0868 1.35396 18.6779 5.24978C21.4021 8.20515 21.9325 12.4018 20.3528 15.838Z" fill="#BEE179"/>
<path fill-rule="evenodd" clip-rule="evenodd" d="M2.9251 7.56911L2.32161 7.14046C2.18566 7.04389 2.19983 6.83775 2.34772 6.7607L4.3014 5.74282C4.45653 5.66199 4.6401 5.78301 4.62696 5.95744L4.45496 8.24083C4.44192 8.41396 4.24483 8.5065 4.10329 8.40596L3.56217 8.02161C2.18072 11.1611 2.69127 14.9554 5.16372 17.6377C8.46781 21.2222 14.0347 21.475 17.6494 18.2247C17.6953 18.1835 17.7661 18.186 17.8079 18.2313L18.1763 18.631C18.2181 18.6763 18.2149 18.7473 18.1691 18.7885C14.243 22.3258 8.19107 22.0531 4.60001 18.1573C1.87584 15.2019 1.34539 11.0053 2.9251 7.56911Z" fill="#BEE179"/>
</svg>
