<svg width="24" height="23" viewBox="0 0 24 24" fill="none" xmlns="http://www.w3.org/2000/svg">
<path d="M12.333 23C18.6843 23 23.833 17.8513 23.833 11.5C23.833 5.14872 18.6843 0 12.333 0C5.98173 0 0.833008 5.14872 0.833008 11.5C0.833008 17.8513 5.98173 23 12.333 23Z" fill="#0497EC"/>
<path d="M18.3481 17.263C13.2488 18.2932 8.26692 14.9882 7.23057 9.91858C6.71217 7.4621 7.24456 5.00862 8.51115 3.02733C4.67073 4.79235 2.39949 9.01684 3.28031 13.3548C4.31666 18.4244 9.29851 21.7294 14.3978 20.6992C17.0262 20.1844 19.1323 18.6233 20.5042 16.5379C19.8203 16.8493 19.1366 17.1086 18.3481 17.263Z" fill="#2479D6"/>
<path d="M11.7302 16.652C10.2022 16.4822 9.18484 15.5465 8.92872 14.2524C8.85721 13.8911 9.16379 13.5894 9.53209 13.5894V13.5894C9.90038 13.5894 10.1843 13.8941 10.2815 14.2493C10.5099 15.0834 11.2077 15.5652 12.323 15.5652C13.7061 15.5652 14.447 14.8243 14.447 13.9351C14.447 11.4159 8.96403 12.7002 8.96403 8.99551C8.96403 7.7606 10.1001 6.47629 11.7302 6.27871V5.36487C11.7302 5.05114 11.9846 4.79681 12.2983 4.79681V4.79681C12.612 4.79681 12.8663 5.05114 12.8663 5.36487V6.27871C14.1706 6.48908 15.1524 7.45204 15.4148 8.67918C15.4918 9.03933 15.1858 9.34129 14.8175 9.34129V9.34129C14.4492 9.34129 14.1625 9.03532 14.0503 8.68454C13.798 7.89613 13.0982 7.36543 12.2736 7.36543C11.0387 7.36543 10.2483 8.20517 10.2483 8.99551C10.2483 11.5147 15.7313 10.2304 15.7313 13.9351C15.7313 15.2689 14.6446 16.4544 12.8663 16.7014V17.6152C12.8663 17.9289 12.612 18.1832 12.2983 18.1832V18.1832C11.9846 18.1832 11.7302 17.9289 11.7302 17.6152V16.652Z" fill="white"/>
<path fill-rule="evenodd" clip-rule="evenodd" d="M21.1853 15.646L21.7888 16.0746C21.9248 16.1712 21.9106 16.3773 21.7627 16.4544L19.809 17.4722C19.6539 17.5531 19.4703 17.4321 19.4835 17.2576L19.6555 14.9742C19.6685 14.8011 19.8656 14.7086 20.0072 14.8091L20.5483 15.1934C21.9297 12.054 21.4192 8.25967 18.9467 5.57738C15.6426 1.99289 10.0757 1.74001 6.46099 4.99033C6.41518 5.03152 6.34429 5.02904 6.30253 4.98374L5.93413 4.58407C5.89237 4.53877 5.89558 4.4678 5.94135 4.42657C9.86742 0.8893 15.9194 1.16194 19.5104 5.05777C22.2346 8.01313 22.7651 12.2098 21.1853 15.646Z" fill="white"/>
<path fill-rule="evenodd" clip-rule="evenodd" d="M3.75762 7.37709L3.15413 6.94844C3.01818 6.85188 3.03235 6.64573 3.18024 6.56868L5.13392 5.5508C5.28905 5.46998 5.47262 5.59099 5.45948 5.76543L5.28748 8.04881C5.27444 8.22194 5.07735 8.31449 4.93581 8.21395L4.39469 7.8296C3.01324 10.9691 3.52379 14.7634 5.99624 17.4457C9.30033 21.0302 14.8673 21.283 18.482 18.0327C18.5278 17.9915 18.5987 17.994 18.6404 18.0393L19.0088 18.439C19.0506 18.4843 19.0474 18.5552 19.0016 18.5965C15.0755 22.1337 9.02359 21.8611 5.43253 17.9653C2.70836 15.0099 2.17791 10.8133 3.75762 7.37709Z" fill="white"/>
</svg>
