<?xml version="1.0" encoding="UTF-8"?>
<!DOCTYPE svg PUBLIC "-//W3C//DTD SVG 1.1//EN" "http://www.w3.org/Graphics/SVG/1.1/DTD/svg11.dtd">
<svg xmlns="http://www.w3.org/2000/svg" version="1.1" width="77px" height="40px" style="shape-rendering:geometricPrecision; text-rendering:geometricPrecision; image-rendering:optimizeQuality; fill-rule:evenodd; clip-rule:evenodd" xmlns:xlink="http://www.w3.org/1999/xlink">
<g><path style="opacity:0.98" fill="#2b77ca" d="M 50.5,-0.5 C 54.5,-0.5 58.5,-0.5 62.5,-0.5C 68.8333,2.5 73.5,7.16667 76.5,13.5C 76.5,17.5 76.5,21.5 76.5,25.5C 73.5,31.8333 68.8333,36.5 62.5,39.5C 58.5,39.5 54.5,39.5 50.5,39.5C 45.2738,37.278 41.2738,33.6114 38.5,28.5C 37.8902,27.609 37.5569,26.609 37.5,25.5C 36.701,22.5701 36.3677,19.5701 36.5,16.5C 36.9707,14.4214 37.6373,12.4214 38.5,10.5C 41.2738,5.38862 45.2738,1.72195 50.5,-0.5 Z"/></g>
<g><path style="opacity:1" fill="#a6b397" d="M 12.5,-0.5 C 17.1667,-0.5 21.8333,-0.5 26.5,-0.5C 28.7686,0.97576 31.1019,2.47576 33.5,4C 35.0657,6.32558 36.7324,8.49224 38.5,10.5C 37.6373,12.4214 36.9707,14.4214 36.5,16.5C 33.9616,17.0427 31.6282,18.0427 29.5,19.5C 30.2899,18.2058 31.2899,17.0391 32.5,16C 28.3184,11.6513 23.9851,7.4846 19.5,3.5C 15.1465,7.52187 10.8131,11.5219 6.5,15.5C 5.17217,13.2554 3.33883,12.9221 1,14.5C 0.502577,17.146 0.33591,19.8127 0.5,22.5C 0.67158,23.4916 0.338246,24.1583 -0.5,24.5C -0.5,20.5 -0.5,16.5 -0.5,12.5C 0.97576,10.2314 2.47576,7.89805 4,5.5C 6.73612,3.24806 9.56945,1.24806 12.5,-0.5 Z"/></g>
<g><path style="opacity:1" fill="#f9f1eb" d="M 29.5,19.5 C 28.5178,20.1408 27.5178,20.8075 26.5,21.5C 24.1667,19.5 21.8333,17.5 19.5,15.5C 17.1667,17.5 14.8333,19.5 12.5,21.5C 10.1455,19.8122 8.14552,17.8122 6.5,15.5C 10.8131,11.5219 15.1465,7.52187 19.5,3.5C 23.9851,7.4846 28.3184,11.6513 32.5,16C 31.2899,17.0391 30.2899,18.2058 29.5,19.5 Z"/></g>
<g><path style="opacity:1" fill="#eff4fb" d="M 50.5,5.5 C 51.4972,5.47008 52.1639,5.97008 52.5,7C 45.2371,10.7005 42.7371,16.5339 45,24.5C 46.6667,27.5 49,29.8333 52,31.5C 52.6667,32.5 52.6667,33.5 52,34.5C 41.9648,29.3942 39.2981,21.7275 44,11.5C 46.0627,9.26589 48.2294,7.26589 50.5,5.5 Z"/></g>
<g><path style="opacity:1" fill="#eef4fb" d="M 60.5,5.5 C 71.1457,10.1446 73.9791,17.8113 69,28.5C 66.8699,31.23 64.2032,33.23 61,34.5C 60.3333,33.5 60.3333,32.5 61,31.5C 68.4974,27.0031 70.4974,20.6698 67,12.5C 65.5867,10.5864 63.7534,9.25307 61.5,8.5C 60.6143,7.67504 60.281,6.67504 60.5,5.5 Z"/></g>
<g><path style="opacity:1" fill="#f4f7fc" d="M 55.5,9.5 C 57.4656,11.4197 59.4656,13.4197 61.5,15.5C 61,15.8333 60.5,16.1667 60,16.5C 57.6795,13.8776 55.5128,13.8776 53.5,16.5C 55.6106,17.9488 57.9439,18.9488 60.5,19.5C 61.641,21.4213 61.8077,23.4213 61,25.5C 59.0283,26.3052 57.5283,27.6385 56.5,29.5C 54.2588,27.5483 52.2588,25.3816 50.5,23C 51,22.8333 51.5,22.6667 52,22.5C 54.5255,25.9052 57.0255,26.0718 59.5,23C 57.1613,21.2824 54.6613,19.7824 52,18.5C 51.8333,17.6667 51.6667,16.8333 51.5,16C 53.1811,14.0109 54.5144,11.8442 55.5,9.5 Z"/></g>
<g><path style="opacity:1" fill="#c5b999" d="M 6.5,15.5 C 8.14552,17.8122 10.1455,19.8122 12.5,21.5C 14.8333,19.5 17.1667,17.5 19.5,15.5C 21.8333,17.5 24.1667,19.5 26.5,21.5C 27.5178,20.8075 28.5178,20.1408 29.5,19.5C 31.6282,18.0427 33.9616,17.0427 36.5,16.5C 36.3677,19.5701 36.701,22.5701 37.5,25.5C 34.1159,25.9679 31.4493,25.9679 29.5,25.5C 27.6208,24.6586 25.6208,24.3253 23.5,24.5C 22.9644,27.6981 23.631,30.3647 25.5,32.5C 22.8333,33.8333 20.1667,33.8333 17.5,32.5C 18.8333,32.5 20.1667,32.5 21.5,32.5C 21.6641,29.8127 21.4974,27.146 21,24.5C 20.5034,26.8098 20.3367,29.1432 20.5,31.5C 19.5,31.5 18.5,31.5 17.5,31.5C 17.1667,22.1667 16.8333,22.1667 16.5,31.5C 15.7321,30.7375 15.2321,29.7375 15,28.5C 14.6174,29.056 14.1174,29.3893 13.5,29.5C 12.6016,28.8423 11.6016,28.1757 10.5,27.5C 15.7064,25.5981 15.373,24.5981 9.5,24.5C 9.5,27.1667 9.5,29.8333 9.5,32.5C 11.1667,32.5 12.8333,32.5 14.5,32.5C 12.7354,33.4614 10.7354,33.7947 8.5,33.5C 8.5,30.1667 8.5,26.8333 8.5,23.5C 5.72116,23.7214 3.05449,23.388 0.5,22.5C 0.33591,19.8127 0.502577,17.146 1,14.5C 3.33883,12.9221 5.17217,13.2554 6.5,15.5 Z"/></g>
<g><path style="opacity:1" fill="#e7c7a8" d="M 0.5,22.5 C 3.05449,23.388 5.72116,23.7214 8.5,23.5C 8.5,26.8333 8.5,30.1667 8.5,33.5C 10.7354,33.7947 12.7354,33.4614 14.5,32.5C 13.2825,31.8386 11.9492,31.1719 10.5,30.5C 11.325,29.6143 12.325,29.281 13.5,29.5C 14.1174,29.3893 14.6174,29.056 15,28.5C 15.2321,29.7375 15.7321,30.7375 16.5,31.5C 16.5,32.1667 16.8333,32.5 17.5,32.5C 20.1667,33.8333 22.8333,33.8333 25.5,32.5C 26.0035,28.6646 27.0035,28.6646 28.5,32.5C 28.8333,32 29.1667,31.5 29.5,31C 28.8505,29.3105 28.8505,27.4771 29.5,25.5C 31.4493,25.9679 34.1159,25.9679 37.5,25.5C 37.5569,26.609 37.8902,27.609 38.5,28.5C 36.7324,30.5078 35.0657,32.6744 33.5,35C 31.1019,36.5242 28.7686,38.0242 26.5,39.5C 21.8333,39.5 17.1667,39.5 12.5,39.5C 10.2314,38.0242 7.89805,36.5242 5.5,35C 3.24806,32.2639 1.24806,29.4305 -0.5,26.5C -0.5,25.8333 -0.5,25.1667 -0.5,24.5C 0.338246,24.1583 0.67158,23.4916 0.5,22.5 Z"/></g>
<g><path style="opacity:1" fill="#4b4f4b" d="M 29.5,25.5 C 28.8505,27.4771 28.8505,29.3105 29.5,31C 29.1667,31.5 28.8333,32 28.5,32.5C 27.0035,28.6646 26.0035,28.6646 25.5,32.5C 23.631,30.3647 22.9644,27.6981 23.5,24.5C 25.6208,24.3253 27.6208,24.6586 29.5,25.5 Z"/></g>
<g><path style="opacity:1" fill="#394141" d="M 13.5,29.5 C 12.325,29.281 11.325,29.6143 10.5,30.5C 11.9492,31.1719 13.2825,31.8386 14.5,32.5C 12.8333,32.5 11.1667,32.5 9.5,32.5C 9.5,29.8333 9.5,27.1667 9.5,24.5C 15.373,24.5981 15.7064,25.5981 10.5,27.5C 11.6016,28.1757 12.6016,28.8423 13.5,29.5 Z"/></g>
<g><path style="opacity:1" fill="#313738" d="M 17.5,32.5 C 16.8333,32.5 16.5,32.1667 16.5,31.5C 16.8333,22.1667 17.1667,22.1667 17.5,31.5C 18.5,31.5 19.5,31.5 20.5,31.5C 20.3367,29.1432 20.5034,26.8098 21,24.5C 21.4974,27.146 21.6641,29.8127 21.5,32.5C 20.1667,32.5 18.8333,32.5 17.5,32.5 Z"/></g>
</svg>
