<?xml version="1.0" encoding="UTF-8"?>
<!DOCTYPE svg PUBLIC "-//W3C//DTD SVG 1.1//EN" "http://www.w3.org/Graphics/SVG/1.1/DTD/svg11.dtd">
<svg xmlns="http://www.w3.org/2000/svg" version="1.1" width="77px" height="40px" style="shape-rendering:geometricPrecision; text-rendering:geometricPrecision; image-rendering:optimizeQuality; fill-rule:evenodd; clip-rule:evenodd" xmlns:xlink="http://www.w3.org/1999/xlink">
<g><path style="opacity:0.981" fill="#2b77ca" d="M 13.5,-0.5 C 17.5,-0.5 21.5,-0.5 25.5,-0.5C 30.7262,1.72195 34.7262,5.38862 37.5,10.5C 37.5,11.8333 37.5,13.1667 37.5,14.5C 36.4026,19.0126 36.4026,23.6792 37.5,28.5C 34.7262,33.6114 30.7262,37.278 25.5,39.5C 21.5,39.5 17.5,39.5 13.5,39.5C 7.16667,36.5 2.5,31.8333 -0.5,25.5C -0.5,21.5 -0.5,17.5 -0.5,13.5C 2.5,7.16667 7.16667,2.5 13.5,-0.5 Z"/></g>
<g><path style="opacity:1" fill="#eff4fb" d="M 13.5,5.5 C 14.4972,5.47008 15.1639,5.97008 15.5,7C 8.23706,10.7005 5.73706,16.5339 8,24.5C 9.66667,27.5 12,29.8333 15,31.5C 15.6667,32.5 15.6667,33.5 15,34.5C 4.96475,29.3942 2.29808,21.7275 7,11.5C 9.06274,9.26589 11.2294,7.26589 13.5,5.5 Z"/></g>
<g><path style="opacity:1" fill="#eef4fb" d="M 23.5,5.5 C 34.1457,10.1446 36.9791,17.8113 32,28.5C 29.8699,31.23 27.2032,33.23 24,34.5C 23.3333,33.5 23.3333,32.5 24,31.5C 31.4974,27.0031 33.4974,20.6698 30,12.5C 28.5867,10.5864 26.7534,9.25307 24.5,8.5C 23.6143,7.67504 23.281,6.67504 23.5,5.5 Z"/></g>
<g><path style="opacity:0.981" fill="#f9b225" d="M 49.5,-0.5 C 54.1667,-0.5 58.8333,-0.5 63.5,-0.5C 69.5,2.16667 73.8333,6.5 76.5,12.5C 76.5,15.8333 76.5,19.1667 76.5,22.5C 73.8333,22.5 71.1667,22.5 68.5,22.5C 68.2786,21.2652 67.6119,20.2652 66.5,19.5C 67.1667,18.8333 67.8333,18.1667 68.5,17.5C 66.1791,16.034 64.1791,14.2007 62.5,12C 61.255,11.2086 59.9217,10.7086 58.5,10.5C 55.3752,9.52056 52.0419,9.18723 48.5,9.5C 48.5,11.1667 48.5,12.8333 48.5,14.5C 44.8333,14.5 41.1667,14.5 37.5,14.5C 37.5,13.1667 37.5,11.8333 37.5,10.5C 40.2381,5.46305 44.2381,1.79638 49.5,-0.5 Z"/></g>
<g><path style="opacity:1" fill="#fcd587" d="M 58.5,10.5 C 55.5,10.5 52.5,10.5 49.5,10.5C 49.7947,12.7354 49.4614,14.7354 48.5,16.5C 48.5,15.8333 48.5,15.1667 48.5,14.5C 48.5,12.8333 48.5,11.1667 48.5,9.5C 52.0419,9.18723 55.3752,9.52056 58.5,10.5 Z"/></g>
<g><path style="opacity:1" fill="#f4f7fc" d="M 18.5,9.5 C 20.4656,11.4197 22.4656,13.4197 24.5,15.5C 24,15.8333 23.5,16.1667 23,16.5C 20.6795,13.8776 18.5128,13.8776 16.5,16.5C 18.6106,17.9488 20.9439,18.9488 23.5,19.5C 24.641,21.4213 24.8077,23.4213 24,25.5C 22.0283,26.3052 20.5283,27.6385 19.5,29.5C 17.2588,27.5483 15.2588,25.3816 13.5,23C 14,22.8333 14.5,22.6667 15,22.5C 17.5255,25.9052 20.0255,26.0718 22.5,23C 20.1613,21.2824 17.6613,19.7824 15,18.5C 14.8333,17.6667 14.6667,16.8333 14.5,16C 16.1811,14.0109 17.5144,11.8442 18.5,9.5 Z"/></g>
<g><path style="opacity:1" fill="#fff9ee" d="M 58.5,10.5 C 59.9217,10.7086 61.255,11.2086 62.5,12C 64.1791,14.2007 66.1791,16.034 68.5,17.5C 67.8333,18.1667 67.1667,18.8333 66.5,19.5C 67.6119,20.2652 68.2786,21.2652 68.5,22.5C 65.4642,24.8423 62.1308,26.8423 58.5,28.5C 55.5,28.5 52.5,28.5 49.5,28.5C 49.5,26.5 49.5,24.5 49.5,22.5C 48.5,22.5 47.5,22.5 46.5,22.5C 46.7214,21.2652 47.3881,20.2652 48.5,19.5C 46.0233,18.12 46.0233,17.12 48.5,16.5C 49.4614,14.7354 49.7947,12.7354 49.5,10.5C 52.5,10.5 55.5,10.5 58.5,10.5 Z"/></g>
<g><path style="opacity:1" fill="#fbbd46" d="M 50.5,12.5 C 53.8499,12.335 57.1832,12.5017 60.5,13C 61.91,13.3678 62.91,14.2011 63.5,15.5C 59.2172,16.4922 54.8839,16.8256 50.5,16.5C 50.5,15.1667 50.5,13.8333 50.5,12.5 Z"/></g>
<g><path style="opacity:1" fill="#faba36" d="M 51.5,18.5 C 55.8839,18.1744 60.2172,18.5078 64.5,19.5C 62.3333,19.8333 60.1667,20.1667 58,20.5C 55.3897,20.4668 53.223,19.8001 51.5,18.5 Z"/></g>
<g><path style="opacity:0.986" fill="#fac147" d="M 37.5,14.5 C 41.1667,14.5 44.8333,14.5 48.5,14.5C 48.5,15.1667 48.5,15.8333 48.5,16.5C 46.0233,17.12 46.0233,18.12 48.5,19.5C 47.3881,20.2652 46.7214,21.2652 46.5,22.5C 48.1484,24.4559 48.8151,26.7892 48.5,29.5C 52.0419,29.8128 55.3752,29.4794 58.5,28.5C 62.1308,26.8423 65.4642,24.8423 68.5,22.5C 71.1667,22.5 73.8333,22.5 76.5,22.5C 76.5,23.8333 76.5,25.1667 76.5,26.5C 75.0242,28.7686 73.5242,31.1019 72,33.5C 69.2639,35.7519 66.4305,37.7519 63.5,39.5C 58.8333,39.5 54.1667,39.5 49.5,39.5C 44.2381,37.2036 40.2381,33.537 37.5,28.5C 36.4026,23.6792 36.4026,19.0126 37.5,14.5 Z"/></g>
<g><path style="opacity:1" fill="#fcdd99" d="M 46.5,22.5 C 47.5,22.5 48.5,22.5 49.5,22.5C 49.5,24.5 49.5,26.5 49.5,28.5C 52.5,28.5 55.5,28.5 58.5,28.5C 55.3752,29.4794 52.0419,29.8128 48.5,29.5C 48.8151,26.7892 48.1484,24.4559 46.5,22.5 Z"/></g>
<g><path style="opacity:1" fill="#fbc558" d="M 50.5,22.5 C 54.8839,22.1744 59.2172,22.5078 63.5,23.5C 62.91,24.7989 61.91,25.6322 60.5,26C 57.1832,26.4983 53.8499,26.665 50.5,26.5C 50.5,25.1667 50.5,23.8333 50.5,22.5 Z"/></g>
</svg>
