<?xml version="1.0" encoding="UTF-8"?>
<!DOCTYPE svg PUBLIC "-//W3C//DTD SVG 1.1//EN" "http://www.w3.org/Graphics/SVG/1.1/DTD/svg11.dtd">
<svg xmlns="http://www.w3.org/2000/svg" version="1.1" width="77px" height="40px" style="shape-rendering:geometricPrecision; text-rendering:geometricPrecision; image-rendering:optimizeQuality; fill-rule:evenodd; clip-rule:evenodd" xmlns:xlink="http://www.w3.org/1999/xlink">
<g><path style="opacity:0.98" fill="#2b77cb" d="M 50.5,-0.5 C 54.5,-0.5 58.5,-0.5 62.5,-0.5C 68.8333,2.5 73.5,7.16667 76.5,13.5C 76.5,17.5 76.5,21.5 76.5,25.5C 73.5,31.8333 68.8333,36.5 62.5,39.5C 58.5,39.5 54.5,39.5 50.5,39.5C 45.2848,36.9576 40.9515,33.2909 37.5,28.5C 36.3116,22.8186 36.3116,17.152 37.5,11.5C 37.3347,7.81826 37.5014,4.15159 38,0.5C 38.3333,3.5 38.6667,6.5 39,9.5C 41.8178,4.83883 45.6511,1.50549 50.5,-0.5 Z"/></g>
<g><path style="opacity:0.993" fill="#f2f3f9" d="M 17.5,0.5 C 19.1667,0.5 20.8333,0.5 22.5,0.5C 22.7564,2.7925 22.4231,4.95917 21.5,7C 22.8544,8.29369 24.1877,8.46036 25.5,7.5C 27.2828,8.34815 27.7828,9.68148 27,11.5C 26.6667,10.8333 26.3333,10.1667 26,9.5C 25.51,10.7932 25.3433,12.1266 25.5,13.5C 23.0576,13.6463 22.3909,12.813 23.5,11C 23,10.5 22.5,10 22,9.5C 20.2663,10.2489 18.433,10.7489 16.5,11C 17.1667,12.3333 17.8333,13.6667 18.5,15C 22.2777,16.3031 25.4444,18.4698 28,21.5C 29.3105,26.5443 27.6438,30.211 23,32.5C 22.5045,34.4727 22.3379,36.4727 22.5,38.5C 20.8333,38.5 19.1667,38.5 17.5,38.5C 17.5,36.5 17.5,34.5 17.5,32.5C 16.5,32.5 15.5,32.5 14.5,32.5C 14.6495,31.448 14.4828,30.448 14,29.5C 12.8687,30.6039 12.0354,30.2705 11.5,28.5C 12.1445,27.2679 12.3112,25.9346 12,24.5C 12.3333,24.8333 12.6667,25.1667 13,25.5C 13.4226,24.0439 14.2559,23.5439 15.5,24C 15.1667,24.3333 14.8333,24.6667 14.5,25C 16.259,26.008 17.4257,27.508 18,29.5C 22.9963,28.7031 24.3296,25.7031 22,20.5C 20.984,21.6341 20.3173,21.3008 20,19.5C 16.6226,20.3739 14.1226,19.0406 12.5,15.5C 12.7184,13.7244 12.7184,11.891 12.5,10C 13.0069,7.65866 14.1735,7.15866 16,8.5C 17.0793,5.93731 17.5793,3.27065 17.5,0.5 Z"/></g>
<g><path style="opacity:0.979" fill="#3eb6e9" d="M 17.5,0.5 C 17.5793,3.27065 17.0793,5.93731 16,8.5C 14.1735,7.15866 13.0069,7.65866 12.5,10C 12.7184,11.891 12.7184,13.7244 12.5,15.5C 14.1226,19.0406 16.6226,20.3739 20,19.5C 20.3173,21.3008 20.984,21.6341 22,20.5C 24.3296,25.7031 22.9963,28.7031 18,29.5C 17.4257,27.508 16.259,26.008 14.5,25C 14.8333,24.6667 15.1667,24.3333 15.5,24C 14.2559,23.5439 13.4226,24.0439 13,25.5C 12.6667,25.1667 12.3333,24.8333 12,24.5C 12.3112,25.9346 12.1445,27.2679 11.5,28.5C 12.0354,30.2705 12.8687,30.6039 14,29.5C 14.4828,30.448 14.6495,31.448 14.5,32.5C 15.5,32.5 16.5,32.5 17.5,32.5C 17.5,34.5 17.5,36.5 17.5,38.5C 11.8236,38.6661 6.15688,38.4994 0.5,38C 3.83333,37.6667 7.16667,37.3333 10.5,37C 6.28114,34.448 3.11447,30.948 1,26.5C 0.500246,17.8397 0.33358,9.17307 0.5,0.5C 6.16667,0.5 11.8333,0.5 17.5,0.5 Z"/></g>
<g><path style="opacity:0.986" fill="#7861df" d="M 22.5,0.5 C 29.4928,1.49827 34.4928,5.16494 37.5,11.5C 36.3116,17.152 36.3116,22.8186 37.5,28.5C 34.015,34.0778 29.015,37.4111 22.5,38.5C 22.3379,36.4727 22.5045,34.4727 23,32.5C 27.6438,30.211 29.3105,26.5443 28,21.5C 25.4444,18.4698 22.2777,16.3031 18.5,15C 17.8333,13.6667 17.1667,12.3333 16.5,11C 18.433,10.7489 20.2663,10.2489 22,9.5C 22.5,10 23,10.5 23.5,11C 22.3909,12.813 23.0576,13.6463 25.5,13.5C 25.3433,12.1266 25.51,10.7932 26,9.5C 26.3333,10.1667 26.6667,10.8333 27,11.5C 27.7828,9.68148 27.2828,8.34815 25.5,7.5C 24.1877,8.46036 22.8544,8.29369 21.5,7C 22.4231,4.95917 22.7564,2.7925 22.5,0.5 Z"/></g>
<g><path style="opacity:1" fill="#eff4fb" d="M 50.5,5.5 C 51.4972,5.47008 52.1639,5.97008 52.5,7C 45.2371,10.7005 42.7371,16.5339 45,24.5C 46.6667,27.5 49,29.8333 52,31.5C 52.6667,32.5 52.6667,33.5 52,34.5C 41.9648,29.3942 39.2981,21.7275 44,11.5C 46.0627,9.26589 48.2294,7.26589 50.5,5.5 Z"/></g>
<g><path style="opacity:1" fill="#eef4fb" d="M 60.5,5.5 C 71.1457,10.1446 73.9791,17.8113 69,28.5C 66.8699,31.23 64.2032,33.23 61,34.5C 60.3333,33.5 60.3333,32.5 61,31.5C 68.4974,27.0031 70.4974,20.6698 67,12.5C 65.5867,10.5864 63.7534,9.25307 61.5,8.5C 60.6143,7.67504 60.281,6.67504 60.5,5.5 Z"/></g>
<g><path style="opacity:1" fill="#f4f7fc" d="M 55.5,9.5 C 57.4656,11.4197 59.4656,13.4197 61.5,15.5C 61,15.8333 60.5,16.1667 60,16.5C 57.6795,13.8776 55.5128,13.8776 53.5,16.5C 55.6106,17.9488 57.9439,18.9488 60.5,19.5C 61.641,21.4213 61.8077,23.4213 61,25.5C 59.0283,26.3052 57.5283,27.6385 56.5,29.5C 54.2588,27.5483 52.2588,25.3816 50.5,23C 51,22.8333 51.5,22.6667 52,22.5C 54.5255,25.9052 57.0255,26.0718 59.5,23C 57.1613,21.2824 54.6613,19.7824 52,18.5C 51.8333,17.6667 51.6667,16.8333 51.5,16C 53.1811,14.0109 54.5144,11.8442 55.5,9.5 Z"/></g>
<g><path style="opacity:0.024" fill="#2bd5ff" d="M 37.5,37.5 C 38.8333,38.1667 38.8333,38.1667 37.5,37.5 Z"/></g>
</svg>
