<svg width="330" height="170" viewBox="0 0 330 170" fill="none" xmlns="http://www.w3.org/2000/svg">
<g clip-path="url(#clip0_618_461)">
<path d="M84.9998 170C101.811 170 118.245 165.015 132.223 155.675C146.201 146.335 157.096 133.06 163.53 117.528C169.963 101.996 171.646 84.9057 168.367 68.4174C165.087 51.929 156.991 36.7834 145.104 24.896C133.216 13.0085 118.071 4.91303 101.582 1.63329C85.0941 -1.64645 68.0034 0.036829 52.4717 6.47028C36.9399 12.9037 23.6648 23.7984 14.3248 37.7766C4.98492 51.7547 -0.000240744 68.1886 -0.000240744 85C-0.0272294 96.17 2.15294 107.235 6.41503 117.56C10.6771 127.885 16.9371 137.266 24.8355 145.164C32.7339 153.063 42.1149 159.323 52.4398 163.585C62.7646 167.847 73.8298 170.027 84.9998 170V170Z" fill="#2479D6"/>
<path d="M108.375 98.4588C108.375 86.0634 100.938 81.813 86.0632 80.0418C75.4391 78.6261 73.3156 75.7914 73.3156 70.8333C73.3156 65.8751 76.8581 62.6882 83.9398 62.6882C90.3136 62.6882 93.8594 64.8117 95.6273 70.1254C95.8125 70.6377 96.1491 71.0815 96.5925 71.3979C97.0359 71.7143 97.5651 71.8883 98.1098 71.8967H103.776C104.103 71.9045 104.429 71.8457 104.734 71.7239C105.038 71.6021 105.314 71.4198 105.546 71.188C105.778 70.9562 105.96 70.6798 106.082 70.3755C106.204 70.0712 106.263 69.7453 106.255 69.4176V69.062C105.569 65.224 103.635 61.72 100.753 59.0945C97.8707 56.469 94.202 54.869 90.3169 54.5431V46.0424C90.3169 44.6268 89.2535 43.5634 87.4823 43.2078H82.1685C80.7495 43.2078 79.6894 44.2712 79.3338 46.0424V54.1875C68.7097 55.6032 61.9803 62.6882 61.9803 71.5411C61.9803 83.2287 69.0619 87.8346 83.9364 89.6059C93.8561 91.3738 97.043 93.5006 97.043 99.1666C97.043 104.833 92.0848 108.731 85.3554 108.731C76.1469 108.731 72.9432 104.833 71.8966 99.5222C71.541 98.1065 70.4809 97.3953 69.4175 97.3953H63.4026C63.0749 97.3875 62.7491 97.4463 62.4448 97.5681C62.1404 97.69 61.864 97.8723 61.6323 98.1041C61.4005 98.3358 61.2182 98.6123 61.0963 98.9166C60.9745 99.2209 60.9157 99.5467 60.9235 99.8744V100.23C62.3392 109.083 68.0085 115.46 79.7096 117.231V125.729C79.7096 127.148 80.7696 128.208 82.5409 128.563H87.8546C89.2703 128.563 90.3337 127.5 90.6859 125.729V117.231C101.313 115.46 108.395 108.02 108.395 98.4454L108.375 98.4588Z" fill="white"/>
<path d="M66.9384 135.645C39.3129 125.729 25.1463 94.9163 35.4048 67.6464C40.7152 52.7719 52.4028 41.4365 66.9384 36.1127C68.3541 35.4049 69.0619 34.3414 69.0619 32.5702V27.6254C69.0619 26.2098 68.3541 25.1464 66.9384 24.7908C66.5828 24.7908 65.875 24.7908 65.5194 25.1464C31.869 35.7705 13.4587 71.5411 24.0828 105.188C27.1693 114.907 32.5436 123.743 39.7541 130.954C46.9646 138.164 55.8006 143.538 65.5194 146.625C66.9384 147.333 68.3541 146.625 68.7097 145.209C69.0619 144.854 69.0619 144.501 69.0619 143.793V138.835C69.0619 137.772 68.0019 136.356 66.9384 135.645ZM104.48 25.1598C103.061 24.452 101.646 25.1598 101.293 26.5754C100.938 26.931 100.938 27.2833 100.938 27.9945V32.9392C100.938 34.3549 102.001 35.7705 103.061 36.4784C130.687 46.3947 144.853 77.2071 134.595 104.48C129.281 119.355 117.594 130.687 103.061 136.014C101.646 136.722 100.938 137.785 100.938 139.557V144.515C100.938 145.93 101.646 146.994 103.061 147.346C103.417 147.346 104.125 147.346 104.48 146.994C138.124 136.356 156.541 100.582 145.927 66.9385C142.848 57.1758 137.479 48.2906 130.27 41.0232C123.06 33.7559 114.218 28.3169 104.48 25.1598Z" fill="white"/>
</g>
<g clip-path="url(#clip1_618_461)">
<path d="M245 170C261.811 170 278.245 165.015 292.223 155.675C306.201 146.335 317.096 133.06 323.53 117.528C329.963 101.996 331.646 84.9057 328.367 68.4174C325.087 51.929 316.991 36.7834 305.104 24.896C293.216 13.0085 278.071 4.91303 261.582 1.63329C245.094 -1.64645 228.003 0.036829 212.472 6.47028C196.94 12.9037 183.665 23.7984 174.325 37.7766C164.985 51.7547 160 68.1886 160 85C159.973 96.17 162.153 107.235 166.415 117.56C170.677 127.885 176.937 137.266 184.836 145.164C192.734 153.063 202.115 159.323 212.44 163.585C222.765 167.847 233.83 170.027 245 170V170Z" fill="#2479D6"/>
<path d="M268.375 98.4588C268.375 86.0634 260.938 81.813 246.063 80.0418C235.439 78.6261 233.316 75.7914 233.316 70.8333C233.316 65.8751 236.858 62.6882 243.94 62.6882C250.314 62.6882 253.859 64.8117 255.627 70.1254C255.812 70.6377 256.149 71.0815 256.593 71.3979C257.036 71.7143 257.565 71.8883 258.11 71.8967H263.776C264.103 71.9045 264.429 71.8457 264.734 71.7239C265.038 71.6021 265.314 71.4198 265.546 71.188C265.778 70.9562 265.96 70.6798 266.082 70.3755C266.204 70.0712 266.263 69.7453 266.255 69.4176V69.062C265.569 65.224 263.635 61.72 260.753 59.0945C257.871 56.469 254.202 54.869 250.317 54.5431V46.0424C250.317 44.6268 249.254 43.5634 247.482 43.2078H242.169C240.749 43.2078 239.689 44.2712 239.334 46.0424V54.1875C228.71 55.6032 221.98 62.6882 221.98 71.5411C221.98 83.2287 229.062 87.8346 243.936 89.6059C253.856 91.3738 257.043 93.5006 257.043 99.1666C257.043 104.833 252.085 108.731 245.355 108.731C236.147 108.731 232.943 104.833 231.897 99.5222C231.541 98.1065 230.481 97.3953 229.417 97.3953H223.403C223.075 97.3875 222.749 97.4463 222.445 97.5681C222.14 97.69 221.864 97.8723 221.632 98.1041C221.4 98.3358 221.218 98.6123 221.096 98.9166C220.975 99.2209 220.916 99.5467 220.924 99.8744V100.23C222.339 109.083 228.009 115.46 239.71 117.231V125.729C239.71 127.148 240.77 128.208 242.541 128.563H247.855C249.27 128.563 250.334 127.5 250.686 125.729V117.231C261.313 115.46 268.395 108.02 268.395 98.4454L268.375 98.4588Z" fill="white"/>
<path d="M226.938 135.645C199.313 125.729 185.146 94.9163 195.405 67.6464C200.715 52.7719 212.403 41.4365 226.938 36.1127C228.354 35.4049 229.062 34.3414 229.062 32.5702V27.6254C229.062 26.2098 228.354 25.1464 226.938 24.7908C226.583 24.7908 225.875 24.7908 225.519 25.1464C191.869 35.7705 173.459 71.5411 184.083 105.188C187.169 114.907 192.544 123.743 199.754 130.954C206.965 138.164 215.801 143.538 225.519 146.625C226.938 147.333 228.354 146.625 228.71 145.209C229.062 144.854 229.062 144.501 229.062 143.793V138.835C229.062 137.772 228.002 136.356 226.938 135.645ZM264.48 25.1598C263.061 24.452 261.646 25.1598 261.293 26.5754C260.938 26.931 260.938 27.2833 260.938 27.9945V32.9392C260.938 34.3549 262.001 35.7705 263.061 36.4784C290.687 46.3947 304.853 77.2071 294.595 104.48C289.281 119.355 277.594 130.687 263.061 136.014C261.646 136.722 260.938 137.785 260.938 139.557V144.515C260.938 145.93 261.646 146.994 263.061 147.346C263.417 147.346 264.125 147.346 264.48 146.994C298.124 136.356 316.541 100.582 305.927 66.9385C302.848 57.1758 297.479 48.2906 290.27 41.0232C283.06 33.7559 274.218 28.3169 264.48 25.1598Z" fill="white"/>
</g>
<defs>
<clipPath id="clip0_618_461">
<rect width="170" height="170" fill="white"/>
</clipPath>
<clipPath id="clip1_618_461">
<rect width="170" height="170" fill="white" transform="translate(160)"/>
</clipPath>
</defs>
</svg>
