<?xml version="1.0" encoding="UTF-8"?>
<!DOCTYPE svg PUBLIC "-//W3C//DTD SVG 1.1//EN" "http://www.w3.org/Graphics/SVG/1.1/DTD/svg11.dtd">
<svg xmlns="http://www.w3.org/2000/svg" version="1.1" width="77px" height="40px" style="shape-rendering:geometricPrecision; text-rendering:geometricPrecision; image-rendering:optimizeQuality; fill-rule:evenodd; clip-rule:evenodd" xmlns:xlink="http://www.w3.org/1999/xlink">
<g><path style="opacity:0.98" fill="#2c77ca" d="M 50.5,-0.5 C 54.5,-0.5 58.5,-0.5 62.5,-0.5C 68.8333,2.5 73.5,7.16667 76.5,13.5C 76.5,17.5 76.5,21.5 76.5,25.5C 73.5,31.8333 68.8333,36.5 62.5,39.5C 58.5,39.5 54.5,39.5 50.5,39.5C 45.2738,37.278 41.2738,33.6114 38.5,28.5C 35.9041,22.4843 35.9041,16.4843 38.5,10.5C 41.2738,5.38862 45.2738,1.72195 50.5,-0.5 Z"/></g>
<g><path style="opacity:1" fill="#f79827" d="M 12.5,-0.5 C 17.1667,-0.5 21.8333,-0.5 26.5,-0.5C 28.7686,0.97576 31.1019,2.47576 33.5,4C 35.0657,6.32558 36.7324,8.49224 38.5,10.5C 35.9041,16.4843 35.9041,22.4843 38.5,28.5C 36.7324,30.5078 35.0657,32.6744 33.5,35C 31.1019,36.5242 28.7686,38.0242 26.5,39.5C 21.8333,39.5 17.1667,39.5 12.5,39.5C 10.2314,38.0242 7.89805,36.5242 5.5,35C 3.24806,32.2639 1.24806,29.4305 -0.5,26.5C -0.5,21.8333 -0.5,17.1667 -0.5,12.5C 0.97576,10.2314 2.47576,7.89805 4,5.5C 6.73612,3.24806 9.56945,1.24806 12.5,-0.5 Z"/></g>
<g><path style="opacity:1" fill="#eff4fb" d="M 50.5,5.5 C 51.4972,5.47008 52.1639,5.97008 52.5,7C 45.2371,10.7005 42.7371,16.5339 45,24.5C 46.6667,27.5 49,29.8333 52,31.5C 52.6667,32.5 52.6667,33.5 52,34.5C 41.9648,29.3942 39.2981,21.7275 44,11.5C 46.0627,9.26589 48.2294,7.26589 50.5,5.5 Z"/></g>
<g><path style="opacity:1" fill="#eef4fb" d="M 60.5,5.5 C 71.1457,10.1446 73.9791,17.8113 69,28.5C 66.8699,31.23 64.2032,33.23 61,34.5C 60.3333,33.5 60.3333,32.5 61,31.5C 68.4974,27.0031 70.4974,20.6698 67,12.5C 65.5867,10.5864 63.7534,9.25307 61.5,8.5C 60.6143,7.67504 60.281,6.67504 60.5,5.5 Z"/></g>
<g><path style="opacity:1" fill="#fff5ea" d="M 18.5,6.5 C 20.045,7.22967 20.8784,8.563 21,10.5C 21.8333,9.5 22.6667,8.5 23.5,7.5C 24.5474,10.7103 26.214,13.5436 28.5,16C 28.2231,17.8916 27.2231,19.2249 25.5,20C 28.9974,26.3628 26.9974,29.1962 19.5,28.5C 19.5,29.5 19.5,30.5 19.5,31.5C 18.325,31.719 17.325,31.3857 16.5,30.5C 17.5896,29.3914 17.5896,28.3914 16.5,27.5C 15.6143,28.325 15.281,29.325 15.5,30.5C 12.7952,30.6198 12.1285,29.6198 13.5,27.5C 8.67194,25.9122 8.50527,24.2455 13,22.5C 13.4574,19.204 14.2907,16.0373 15.5,13C 11.6968,10.5236 12.3634,9.19023 17.5,9C 18.2524,8.32924 18.5858,7.4959 18.5,6.5 Z"/></g>
<g><path style="opacity:1" fill="#f4f7fc" d="M 55.5,9.5 C 57.4656,11.4197 59.4656,13.4197 61.5,15.5C 61,15.8333 60.5,16.1667 60,16.5C 57.6795,13.8776 55.5128,13.8776 53.5,16.5C 55.6106,17.9488 57.9439,18.9488 60.5,19.5C 61.641,21.4213 61.8077,23.4213 61,25.5C 59.0283,26.3052 57.5283,27.6385 56.5,29.5C 54.2588,27.5483 52.2588,25.3816 50.5,23C 51,22.8333 51.5,22.6667 52,22.5C 54.5255,25.9052 57.0255,26.0718 59.5,23C 57.1613,21.2824 54.6613,19.7824 52,18.5C 51.8333,17.6667 51.6667,16.8333 51.5,16C 53.1811,14.0109 54.5144,11.8442 55.5,9.5 Z"/></g>
<g><path style="opacity:1" fill="#f89d35" d="M 19.5,13.5 C 23.1612,13.3501 24.1612,14.8501 22.5,18C 18.6682,18.514 17.6682,17.014 19.5,13.5 Z"/></g>
<g><path style="opacity:1" fill="#f89d34" d="M 17.5,20.5 C 21.1262,19.8607 22.9595,21.194 23,24.5C 18.0155,26.6736 16.1822,25.3402 17.5,20.5 Z"/></g>
</svg>
