<?xml version="1.0" encoding="UTF-8"?>
<!DOCTYPE svg PUBLIC "-//W3C//DTD SVG 1.1//EN" "http://www.w3.org/Graphics/SVG/1.1/DTD/svg11.dtd">
<svg xmlns="http://www.w3.org/2000/svg" version="1.1" width="77px" height="40px" style="shape-rendering:geometricPrecision; text-rendering:geometricPrecision; image-rendering:optimizeQuality; fill-rule:evenodd; clip-rule:evenodd" xmlns:xlink="http://www.w3.org/1999/xlink">
<g><path style="opacity:0.98" fill="#2b76ca" d="M 50.5,-0.5 C 54.5,-0.5 58.5,-0.5 62.5,-0.5C 68.8333,2.5 73.5,7.16667 76.5,13.5C 76.5,17.5 76.5,21.5 76.5,25.5C 73.5,31.8333 68.8333,36.5 62.5,39.5C 58.5,39.5 54.5,39.5 50.5,39.5C 45.6221,37.2947 41.6221,33.9613 38.5,29.5C 38.4373,26.8049 37.4373,25.8049 35.5,26.5C 36.3597,22.5662 36.693,18.5662 36.5,14.5C 37.5375,13.0697 38.2041,11.403 38.5,9.5C 41.6221,5.03868 45.6221,1.70535 50.5,-0.5 Z"/></g>
<g><path style="opacity:1" fill="#16223f" d="M 16.5,-0.5 C 17.8333,-0.5 19.1667,-0.5 20.5,-0.5C 19.7886,1.20136 18.4553,2.20136 16.5,2.5C 16.5,1.5 16.5,0.5 16.5,-0.5 Z"/></g>
<g><path style="opacity:1" fill="#15203e" d="M 21.5,-0.5 C 22.5,-0.5 23.5,-0.5 24.5,-0.5C 24.4431,0.608953 24.1098,1.60895 23.5,2.5C 21.9519,2.17876 21.2852,1.17876 21.5,-0.5 Z"/></g>
<g><path style="opacity:1" fill="#276365" d="M 12.5,-0.5 C 13.8333,-0.5 15.1667,-0.5 16.5,-0.5C 16.5,0.5 16.5,1.5 16.5,2.5C 14.1667,3.16667 11.8333,3.83333 9.5,4.5C 8.16667,4.5 6.83333,4.5 5.5,4.5C 7.83941,2.82498 10.1727,1.15831 12.5,-0.5 Z"/></g>
<g><path style="opacity:0.965" fill="#151337" d="M 5.5,4.5 C 6.83333,4.5 8.16667,4.5 9.5,4.5C 8.54227,5.9616 7.37561,7.29493 6,8.5C 4.96141,7.75618 4.46141,6.75618 4.5,5.5C 4.5,4.83333 4.83333,4.5 5.5,4.5 Z"/></g>
<g><path style="opacity:1" fill="#eff4fb" d="M 50.5,5.5 C 51.4972,5.47008 52.1639,5.97008 52.5,7C 45.2371,10.7005 42.7371,16.5339 45,24.5C 46.6667,27.5 49,29.8333 52,31.5C 52.6667,32.5 52.6667,33.5 52,34.5C 41.9648,29.3942 39.2981,21.7275 44,11.5C 46.0627,9.26589 48.2294,7.26589 50.5,5.5 Z"/></g>
<g><path style="opacity:1" fill="#eef4fb" d="M 60.5,5.5 C 71.1457,10.1446 73.9791,17.8113 69,28.5C 66.8699,31.23 64.2032,33.23 61,34.5C 60.3333,33.5 60.3333,32.5 61,31.5C 68.4974,27.0031 70.4974,20.6698 67,12.5C 65.5867,10.5864 63.7534,9.25307 61.5,8.5C 60.6143,7.67504 60.281,6.67504 60.5,5.5 Z"/></g>
<g><path style="opacity:0.686" fill="#25555d" d="M 24.5,-0.5 C 25.1667,-0.5 25.8333,-0.5 26.5,-0.5C 28.6528,1.12814 30.9861,2.62814 33.5,4C 34.8505,6.26449 36.5172,8.09783 38.5,9.5C 38.2041,11.403 37.5375,13.0697 36.5,14.5C 34.1274,8.4637 29.7941,4.4637 23.5,2.5C 24.1098,1.60895 24.4431,0.608953 24.5,-0.5 Z"/></g>
<g><path style="opacity:1" fill="#f4f7fc" d="M 55.5,9.5 C 57.4656,11.4197 59.4656,13.4197 61.5,15.5C 61,15.8333 60.5,16.1667 60,16.5C 57.6795,13.8776 55.5128,13.8776 53.5,16.5C 55.6106,17.9488 57.9439,18.9488 60.5,19.5C 61.641,21.4213 61.8077,23.4213 61,25.5C 59.0283,26.3052 57.5283,27.6385 56.5,29.5C 54.2588,27.5483 52.2588,25.3816 50.5,23C 51,22.8333 51.5,22.6667 52,22.5C 54.5255,25.9052 57.0255,26.0718 59.5,23C 57.1613,21.2824 54.6613,19.7824 52,18.5C 51.8333,17.6667 51.6667,16.8333 51.5,16C 53.1811,14.0109 54.5144,11.8442 55.5,9.5 Z"/></g>
<g><path style="opacity:0.514" fill="#172742" d="M 3.5,7.5 C 4.96813,9.61093 4.6348,11.4443 2.5,13C 3.17119,13.9862 3.17119,15.1529 2.5,16.5C 1.89992,17.9002 0.899922,18.9002 -0.5,19.5C -0.5,17.1667 -0.5,14.8333 -0.5,12.5C 0.532351,10.6216 1.86568,8.95495 3.5,7.5 Z"/></g>
<g><path style="opacity:1" fill="#2d5d64" d="M 2.5,16.5 C 1.73854,23.2196 3.73854,28.8862 8.5,33.5C 7.66175,33.8417 7.32842,34.5084 7.5,35.5C 5.98261,35.4894 4.81595,34.8228 4,33.5C 2.62814,30.9861 1.12814,28.6528 -0.5,26.5C -0.5,24.1667 -0.5,21.8333 -0.5,19.5C 0.899922,18.9002 1.89992,17.9002 2.5,16.5 Z"/></g>
<g><path style="opacity:1" fill="#dadde1" d="M 20.5,-0.5 C 20.8333,-0.5 21.1667,-0.5 21.5,-0.5C 21.2852,1.17876 21.9519,2.17876 23.5,2.5C 29.7941,4.4637 34.1274,8.4637 36.5,14.5C 36.693,18.5662 36.3597,22.5662 35.5,26.5C 32.7848,32.5463 28.1181,35.8797 21.5,36.5C 18.1194,36.5405 14.7861,36.2071 11.5,35.5C 10.7095,34.5987 9.70951,33.9321 8.5,33.5C 3.73854,28.8862 1.73854,23.2196 2.5,16.5C 3.17119,15.1529 3.17119,13.9862 2.5,13C 4.6348,11.4443 4.96813,9.61093 3.5,7.5C 3.32842,6.50838 3.66175,5.84171 4.5,5.5C 4.46141,6.75618 4.96141,7.75618 6,8.5C 7.37561,7.29493 8.54227,5.9616 9.5,4.5C 11.8333,3.83333 14.1667,3.16667 16.5,2.5C 18.4553,2.20136 19.7886,1.20136 20.5,-0.5 Z"/></g>
<g><path style="opacity:1" fill="#100a31" d="M 15.5,4.5 C 32.1514,4.79818 37.6514,12.7982 32,28.5C 23.6667,36.5 15.3333,36.5 7,28.5C 2.04221,17.5305 4.87555,9.53052 15.5,4.5 Z"/></g>
<g><path style="opacity:1" fill="#d6d4db" d="M 18.5,10.5 C 20.8471,11.6841 22.8471,13.3507 24.5,15.5C 23.132,16.5937 21.9653,16.2603 21,14.5C 20.51,15.7932 20.3433,17.1266 20.5,18.5C 23.1142,18.2771 24.7809,19.4438 25.5,22C 24.0237,24.6432 22.0237,26.8099 19.5,28.5C 17.3287,27.091 15.662,25.2576 14.5,23C 15.6479,21.274 16.8145,21.4407 18,23.5C 18.1667,23 18.3333,22.5 18.5,22C 16.5781,20.5805 15.2448,18.7472 14.5,16.5C 15.491,14.1933 16.8243,12.1933 18.5,10.5 Z"/></g>
<g><path style="opacity:1" fill="#2a2347" d="M 20.5,20.5 C 22.332,21.1405 22.6653,22.1405 21.5,23.5C 20.6143,22.675 20.281,21.675 20.5,20.5 Z"/></g>
<g><path style="opacity:0.867" fill="#0f1134" d="M 8.5,33.5 C 9.70951,33.9321 10.7095,34.5987 11.5,35.5C 10.8333,35.8333 10.1667,36.1667 9.5,36.5C 8.50838,36.6716 7.84171,36.3382 7.5,35.5C 7.32842,34.5084 7.66175,33.8417 8.5,33.5 Z"/></g>
<g><path style="opacity:1" fill="#1c3249" d="M 38.5,29.5 C 36.5172,30.9022 34.8505,32.7355 33.5,35C 30.9861,36.3719 28.6528,37.8719 26.5,39.5C 23.1667,39.5 19.8333,39.5 16.5,39.5C 18.0725,38.3127 19.7392,37.3127 21.5,36.5C 28.1181,35.8797 32.7848,32.5463 35.5,26.5C 37.4373,25.8049 38.4373,26.8049 38.5,29.5 Z"/></g>
<g><path style="opacity:0.625" fill="#0e1134" d="M 14.5,39.5 C 13.8333,39.5 13.1667,39.5 12.5,39.5C 12.1583,38.6618 11.4916,38.3284 10.5,38.5C 12.0883,36.2542 13.4217,36.5876 14.5,39.5 Z"/></g>
<g><path style="opacity:0.688" fill="#3c827b" d="M 11.5,35.5 C 14.7861,36.2071 18.1194,36.5405 21.5,36.5C 19.7392,37.3127 18.0725,38.3127 16.5,39.5C 15.8333,39.5 15.1667,39.5 14.5,39.5C 13.4217,36.5876 12.0883,36.2542 10.5,38.5C 9.66175,38.1583 9.32842,37.4916 9.5,36.5C 10.1667,36.1667 10.8333,35.8333 11.5,35.5 Z"/></g>
</svg>
