<?xml version="1.0" encoding="UTF-8"?>
<!DOCTYPE svg PUBLIC "-//W3C//DTD SVG 1.1//EN" "http://www.w3.org/Graphics/SVG/1.1/DTD/svg11.dtd">
<svg xmlns="http://www.w3.org/2000/svg" version="1.1" width="77px" height="40px" style="shape-rendering:geometricPrecision; text-rendering:geometricPrecision; image-rendering:optimizeQuality; fill-rule:evenodd; clip-rule:evenodd" xmlns:xlink="http://www.w3.org/1999/xlink">
<g><path style="opacity:0.965" fill="#0ba4fe" d="M 12.5,-0.5 C 17.1667,-0.5 21.8333,-0.5 26.5,-0.5C 28.7686,0.97576 31.1019,2.47576 33.5,4C 35.0657,6.32558 36.7324,8.49224 38.5,10.5C 35.9041,16.4843 35.9041,22.4843 38.5,28.5C 36.7324,30.5078 35.0657,32.6744 33.5,35C 31.1019,36.5242 28.7686,38.0242 26.5,39.5C 21.8333,39.5 17.1667,39.5 12.5,39.5C 10.2314,38.0242 7.89805,36.5242 5.5,35C 3.24806,32.2639 1.24806,29.4305 -0.5,26.5C -0.5,21.8333 -0.5,17.1667 -0.5,12.5C 0.97576,10.2314 2.47576,7.89805 4,5.5C 6.73612,3.24806 9.56945,1.24806 12.5,-0.5 Z"/></g>
<g><path style="opacity:0.98" fill="#2b77ca" d="M 50.5,-0.5 C 54.5,-0.5 58.5,-0.5 62.5,-0.5C 68.8333,2.5 73.5,7.16667 76.5,13.5C 76.5,17.5 76.5,21.5 76.5,25.5C 73.5,31.8333 68.8333,36.5 62.5,39.5C 58.5,39.5 54.5,39.5 50.5,39.5C 45.2738,37.278 41.2738,33.6114 38.5,28.5C 35.9041,22.4843 35.9041,16.4843 38.5,10.5C 41.2738,5.38862 45.2738,1.72195 50.5,-0.5 Z"/></g>
<g><path style="opacity:1" fill="#eff4fb" d="M 50.5,5.5 C 51.4972,5.47008 52.1639,5.97008 52.5,7C 45.2371,10.7005 42.7371,16.5339 45,24.5C 46.6667,27.5 49,29.8333 52,31.5C 52.6667,32.5 52.6667,33.5 52,34.5C 41.9648,29.3942 39.2981,21.7275 44,11.5C 46.0627,9.26589 48.2294,7.26589 50.5,5.5 Z"/></g>
<g><path style="opacity:1" fill="#eef4fb" d="M 60.5,5.5 C 71.1457,10.1446 73.9791,17.8113 69,28.5C 66.8699,31.23 64.2032,33.23 61,34.5C 60.3333,33.5 60.3333,32.5 61,31.5C 68.4974,27.0031 70.4974,20.6698 67,12.5C 65.5867,10.5864 63.7534,9.25307 61.5,8.5C 60.6143,7.67504 60.281,6.67504 60.5,5.5 Z"/></g>
<g><path style="opacity:1" fill="#ebf7ff" d="M 19.5,6.5 C 19.5,8.5 19.5,10.5 19.5,12.5C 17.4832,13.5294 15.4832,14.5294 13.5,15.5C 14.7589,11.9754 16.7589,8.97537 19.5,6.5 Z"/></g>
<g><path style="opacity:1" fill="#8ed5ff" d="M 19.5,6.5 C 22.3872,8.95613 24.2206,11.9561 25,15.5C 23.2196,14.3606 21.3863,13.3606 19.5,12.5C 19.5,10.5 19.5,8.5 19.5,6.5 Z"/></g>
<g><path style="opacity:1" fill="#f4f7fc" d="M 55.5,9.5 C 57.4656,11.4197 59.4656,13.4197 61.5,15.5C 61,15.8333 60.5,16.1667 60,16.5C 57.6795,13.8776 55.5128,13.8776 53.5,16.5C 55.6106,17.9488 57.9439,18.9488 60.5,19.5C 61.641,21.4213 61.8077,23.4213 61,25.5C 59.0283,26.3052 57.5283,27.6385 56.5,29.5C 54.2588,27.5483 52.2588,25.3816 50.5,23C 51,22.8333 51.5,22.6667 52,22.5C 54.5255,25.9052 57.0255,26.0718 59.5,23C 57.1613,21.2824 54.6613,19.7824 52,18.5C 51.8333,17.6667 51.6667,16.8333 51.5,16C 53.1811,14.0109 54.5144,11.8442 55.5,9.5 Z"/></g>
<g><path style="opacity:1" fill="#97d9ff" d="M 19.5,12.5 C 20.5905,19.2437 18.5905,20.7437 13.5,17C 12.2617,16.31 12.2617,15.81 13.5,15.5C 15.4832,14.5294 17.4832,13.5294 19.5,12.5 Z"/></g>
<g><path style="opacity:1" fill="#f3faff" d="M 12.5,19.5 C 14.0367,23.7114 16.0367,27.7114 18.5,31.5C 17.675,32.3857 16.675,32.719 15.5,32.5C 9.50167,29.1692 8.16834,24.5026 11.5,18.5C 12.1067,18.6236 12.44,18.9569 12.5,19.5 Z"/></g>
<g><path style="opacity:1" fill="#94d8ff" d="M 15.5,32.5 C 16.675,32.719 17.675,32.3857 18.5,31.5C 16.0367,27.7114 14.0367,23.7114 12.5,19.5C 14.8398,20.086 17.0065,21.086 19,22.5C 19.3333,25.8333 19.6667,29.1667 20,32.5C 22.7107,27.9534 25.2107,23.2867 27.5,18.5C 30.2042,22.815 29.8709,26.9817 26.5,31C 22.9317,33.44 19.265,33.94 15.5,32.5 Z"/></g>
</svg>
