<?xml version="1.0" encoding="UTF-8"?>
<!DOCTYPE svg PUBLIC "-//W3C//DTD SVG 1.1//EN" "http://www.w3.org/Graphics/SVG/1.1/DTD/svg11.dtd">
<svg xmlns="http://www.w3.org/2000/svg" version="1.1" width="61px" height="32px" style="shape-rendering:geometricPrecision; text-rendering:geometricPrecision; image-rendering:optimizeQuality; fill-rule:evenodd; clip-rule:evenodd" xmlns:xlink="http://www.w3.org/1999/xlink">
<g><path style="opacity:0.952" fill="#8349e5" d="M 9.5,-0.5 C 13.5,-0.5 17.5,-0.5 21.5,-0.5C 25.1203,1.45279 28.1203,4.11945 30.5,7.5C 27.8333,12.8333 27.8333,18.1667 30.5,23.5C 28.1203,26.8805 25.1203,29.5472 21.5,31.5C 17.5,31.5 13.5,31.5 9.5,31.5C 5.16667,29.1667 1.83333,25.8333 -0.5,21.5C -0.5,17.5 -0.5,13.5 -0.5,9.5C 1.83333,5.16667 5.16667,1.83333 9.5,-0.5 Z"/></g>
<g><path style="opacity:0.99" fill="#2a76ca" d="M 39.5,-0.5 C 42.8333,-0.5 46.1667,-0.5 49.5,-0.5C 54.5,1.83333 58.1667,5.5 60.5,10.5C 60.5,13.8333 60.5,17.1667 60.5,20.5C 59.1077,22.2726 57.941,24.2726 57,26.5C 54.5205,28.3141 52.0205,29.9808 49.5,31.5C 46.1667,31.5 42.8333,31.5 39.5,31.5C 35.8797,29.5472 32.8797,26.8805 30.5,23.5C 27.8333,18.1667 27.8333,12.8333 30.5,7.5C 32.8797,4.11945 35.8797,1.45279 39.5,-0.5 Z"/></g>
<g><path style="opacity:1" fill="#eff4fb" d="M 39.5,4.5 C 40.3764,4.36912 41.0431,4.70245 41.5,5.5C 32.3541,12.0112 32.1874,18.6779 41,25.5C 41.6667,26.1667 41.6667,26.8333 41,27.5C 33.1122,23.7168 30.7788,17.7168 34,9.5C 35.7297,7.59809 37.563,5.93142 39.5,4.5 Z"/></g>
<g><path style="opacity:1" fill="#eef3fa" d="M 47.5,4.5 C 53.2432,6.08695 56.2432,9.92028 56.5,16C 56.2175,21.7359 53.3842,25.5693 48,27.5C 48.0861,25.0566 49.4194,23.3899 52,22.5C 54.7525,18.6665 55.0858,14.6665 53,10.5C 50.91,8.58366 49.0767,6.58366 47.5,4.5 Z"/></g>
<g><path style="opacity:1" fill="#f2f6fb" d="M 43.5,7.5 C 45.4304,8.76347 47.0971,10.4301 48.5,12.5C 48.1667,12.8333 47.8333,13.1667 47.5,13.5C 46.1585,11.9951 44.4918,11.3285 42.5,11.5C 42.5,12.5 42.5,13.5 42.5,14.5C 47.3269,13.8479 49.1603,15.8479 48,20.5C 46.6861,21.3128 45.5195,22.3128 44.5,23.5C 43.4805,22.3128 42.3139,21.3128 41,20.5C 40.3333,19.5 40.3333,18.5 41,17.5C 42.4443,19.1554 44.2776,19.822 46.5,19.5C 46.5,18.5 46.5,17.5 46.5,16.5C 43.3833,17.0727 41.3833,15.906 40.5,13C 41.5617,11.159 42.5617,9.32565 43.5,7.5 Z"/></g>
<g><path style="opacity:1" fill="#ebe1fb" d="M 9.5,6.5 C 12.5015,6.99849 14.8349,8.49849 16.5,11C 16.1667,11.5 15.8333,12 15.5,12.5C 13.7399,9.97884 11.4066,9.14551 8.5,10C 6.8572,13.1426 7.69053,15.3092 11,16.5C 14.3879,15.223 17.5546,13.5564 20.5,11.5C 22.0009,12.7515 23.6675,13.7515 25.5,14.5C 28.0373,20.2293 26.204,23.5626 20,24.5C 18.3435,23.5159 16.6768,22.5159 15,21.5C 14.2506,20.365 14.4173,19.365 15.5,18.5C 17.5148,21.2947 20.0148,21.9614 23,20.5C 23.9809,17.4428 22.9809,15.4428 20,14.5C 16.928,16.2866 13.7614,17.9533 10.5,19.5C 2.89743,15.4717 2.5641,11.1384 9.5,6.5 Z"/></g>
</svg>
