<svg width="77" height="40" viewBox="0 0 77 40" fill="none" xmlns="http://www.w3.org/2000/svg">
<path opacity="0.98" fill-rule="evenodd" clip-rule="evenodd" d="M13.9469 0C17.9469 0 21.9469 0 25.9469 0C32.2802 3 36.9469 7.66667 39.9469 14C39.9469 18 39.9469 22 39.9469 26C36.9469 32.3333 32.2802 37 25.9469 40C21.9469 40 17.9469 40 13.9469 40C8.72073 37.778 4.72072 34.1114 1.94693 29C-0.648975 22.9843 -0.648975 16.9843 1.94693 11C4.72072 5.88862 8.72073 2.22195 13.9469 0Z" fill="#2B77CA"/>
<path fill-rule="evenodd" clip-rule="evenodd" d="M13.9475 5.9998C14.9447 5.96988 15.6114 6.46988 15.9475 7.4998C8.68458 11.2003 6.18458 17.0337 8.44748 24.9998C10.1142 27.9998 12.4475 30.3331 15.4475 31.9998C16.1142 32.9998 16.1142 33.9998 15.4475 34.9998C5.41228 29.894 2.74558 22.2273 7.44748 11.9998C9.51018 9.76569 11.6769 7.76569 13.9475 5.9998Z" fill="#EFF4FB"/>
<path fill-rule="evenodd" clip-rule="evenodd" d="M23.9479 6C34.5936 10.6446 37.427 18.3113 32.4479 29C30.3178 31.73 27.6511 33.73 24.4479 35C23.7812 34 23.7812 33 24.4479 32C31.9453 27.5031 33.9453 21.1698 30.4479 13C29.0346 11.0864 27.2013 9.75307 24.9479 9C24.0622 8.17504 23.7289 7.17504 23.9479 6Z" fill="#EEF4FB"/>
<path fill-rule="evenodd" clip-rule="evenodd" d="M18.9473 10C20.9129 11.9197 22.9129 13.9197 24.9473 16C24.4473 16.3333 23.9473 16.6667 23.4473 17C21.1268 14.3776 18.9601 14.3776 16.9473 17C19.0579 18.4488 21.3912 19.4488 23.9473 20C25.0883 21.9213 25.255 23.9213 24.4473 26C22.4756 26.8052 20.9756 28.1385 19.9473 30C17.7061 28.0483 15.7061 25.8816 13.9473 23.5C14.4473 23.3333 14.9473 23.1667 15.4473 23C17.9728 26.4052 20.4728 26.5718 22.9473 23.5C20.6086 21.7824 18.1086 20.2824 15.4473 19C15.2806 18.1667 15.114 17.3333 14.9473 16.5C16.6284 14.5109 17.9617 12.3442 18.9473 10Z" fill="#F4F7FC"/>
<mask id="mask0_613_14442" style="mask-type:luminance" maskUnits="userSpaceOnUse" x="35" y="0" width="40" height="40">
<path d="M75 0H35V40H75V0Z" fill="white"/>
</mask>
<g mask="url(#mask0_613_14442)">
<mask id="mask1_613_14442" style="mask-type:luminance" maskUnits="userSpaceOnUse" x="35" y="0" width="40" height="40">
<path d="M75 0H35V40H75V0Z" fill="white"/>
</mask>
<g mask="url(#mask1_613_14442)">
<path d="M55 40C66.0457 40 75 31.0457 75 20C75 8.95431 66.0457 0 55 0C43.9543 0 35 8.95431 35 20C35 31.0457 43.9543 40 55 40Z" fill="#D7DADF"/>
<mask id="mask2_613_14442" style="mask-type:luminance" maskUnits="userSpaceOnUse" x="45" y="5" width="19" height="30">
<path d="M63.6229 5.08984H45.7637V34.1807H63.6229V5.08984Z" fill="white"/>
</mask>
<g mask="url(#mask2_613_14442)">
<path d="M54.6891 5.08984L54.4941 5.75259V24.9838L54.6891 25.1785L63.6161 19.9018L54.6891 5.08984Z" fill="#343434"/>
<path d="M54.6906 5.08984L45.7637 19.9018L54.6906 25.1785V15.8443V5.08984Z" fill="#8C8C8C"/>
<path d="M54.6919 26.8678L54.582 27.0016V33.8522L54.6919 34.1733L63.6241 21.5938L54.6919 26.8678Z" fill="#3C3C3B"/>
<path d="M54.6906 34.1733V26.8678L45.7637 21.5938L54.6906 34.1733Z" fill="#8C8C8C"/>
<path d="M54.6914 25.1779L63.6181 19.9013L54.6914 15.8438V25.1779Z" fill="#141414"/>
<path d="M45.7637 19.9013L54.6905 25.1779V15.8438L45.7637 19.9013Z" fill="#393939"/>
</g>
</g>
</g>
</svg>
