<?xml version="1.0" encoding="UTF-8"?>
<!DOCTYPE svg PUBLIC "-//W3C//DTD SVG 1.1//EN" "http://www.w3.org/Graphics/SVG/1.1/DTD/svg11.dtd">
<svg xmlns="http://www.w3.org/2000/svg" version="1.1" width="77px" height="40px" style="shape-rendering:geometricPrecision; text-rendering:geometricPrecision; image-rendering:optimizeQuality; fill-rule:evenodd; clip-rule:evenodd" xmlns:xlink="http://www.w3.org/1999/xlink">
<g><path style="opacity:0.962" fill="#2d384c" d="M 12.5,-0.5 C 17.1667,-0.5 21.8333,-0.5 26.5,-0.5C 28.7686,0.97576 31.1019,2.47576 33.5,4C 35.0657,6.32558 36.7324,8.49224 38.5,10.5C 35.9041,16.4843 35.9041,22.4843 38.5,28.5C 36.7324,30.5078 35.0657,32.6744 33.5,35C 31.1019,36.5242 28.7686,38.0242 26.5,39.5C 21.8333,39.5 17.1667,39.5 12.5,39.5C 10.2314,38.0242 7.89805,36.5242 5.5,35C 3.24806,32.2639 1.24806,29.4305 -0.5,26.5C -0.5,21.8333 -0.5,17.1667 -0.5,12.5C 0.97576,10.2314 2.47576,7.89805 4,5.5C 6.73612,3.24806 9.56945,1.24806 12.5,-0.5 Z"/></g>
<g><path style="opacity:0.98" fill="#2b76ca" d="M 50.5,-0.5 C 54.5,-0.5 58.5,-0.5 62.5,-0.5C 68.8333,2.5 73.5,7.16667 76.5,13.5C 76.5,17.5 76.5,21.5 76.5,25.5C 73.5,31.8333 68.8333,36.5 62.5,39.5C 58.5,39.5 54.5,39.5 50.5,39.5C 45.2738,37.278 41.2738,33.6114 38.5,28.5C 35.9041,22.4843 35.9041,16.4843 38.5,10.5C 41.2738,5.38862 45.2738,1.72195 50.5,-0.5 Z"/></g>
<g><path style="opacity:1" fill="#eff4fb" d="M 50.5,5.5 C 51.4972,5.47008 52.1639,5.97008 52.5,7C 45.2371,10.7005 42.7371,16.5339 45,24.5C 46.6667,27.5 49,29.8333 52,31.5C 52.6667,32.5 52.6667,33.5 52,34.5C 41.9648,29.3942 39.2981,21.7275 44,11.5C 46.0627,9.26589 48.2294,7.26589 50.5,5.5 Z"/></g>
<g><path style="opacity:1" fill="#eef4fb" d="M 60.5,5.5 C 71.1457,10.1446 73.9791,17.8113 69,28.5C 66.8699,31.23 64.2032,33.23 61,34.5C 60.3333,33.5 60.3333,32.5 61,31.5C 68.4974,27.0031 70.4974,20.6698 67,12.5C 65.5867,10.5864 63.7534,9.25307 61.5,8.5C 60.6143,7.67504 60.281,6.67504 60.5,5.5 Z"/></g>
<g><path style="opacity:1" fill="#f4f7fc" d="M 55.5,9.5 C 57.4656,11.4197 59.4656,13.4197 61.5,15.5C 61,15.8333 60.5,16.1667 60,16.5C 57.6795,13.8776 55.5128,13.8776 53.5,16.5C 55.6106,17.9488 57.9439,18.9488 60.5,19.5C 61.641,21.4213 61.8077,23.4213 61,25.5C 59.0283,26.3052 57.5283,27.6385 56.5,29.5C 54.2588,27.5483 52.2588,25.3816 50.5,23C 51,22.8333 51.5,22.6667 52,22.5C 54.5255,25.9052 57.0255,26.0718 59.5,23C 57.1613,21.2824 54.6613,19.7824 52,18.5C 51.8333,17.6667 51.6667,16.8333 51.5,16C 53.1811,14.0109 54.5144,11.8442 55.5,9.5 Z"/></g>
<g><path style="opacity:1" fill="#eaecee" d="M 18.5,12.5 C 15.9226,17.5941 13.0892,22.5941 10,27.5C 9.32924,28.2524 8.4959,28.5858 7.5,28.5C 6.83333,28.5 6.5,28.1667 6.5,27.5C 6.39151,25.4862 7.05817,23.8195 8.5,22.5C 9.73465,19.6987 11.2347,17.0321 13,14.5C 14.4443,12.8446 16.2776,12.178 18.5,12.5 Z"/></g>
<g><path style="opacity:1" fill="#ecedef" d="M 20.5,12.5 C 22.4832,12.1568 23.8166,12.8235 24.5,14.5C 21.263,19.2985 18.263,24.2985 15.5,29.5C 14.8333,30.5 14.1667,31.5 13.5,32.5C 12.8333,32.1667 12.1667,31.8333 11.5,31.5C 13.6692,24.8259 16.6692,18.4926 20.5,12.5 Z"/></g>
<g><path style="opacity:1" fill="#777d8a" d="M 18.5,12.5 C 19.1667,12.5 19.8333,12.5 20.5,12.5C 16.6692,18.4926 13.6692,24.8259 11.5,31.5C 9.76967,30.9744 8.43634,29.9744 7.5,28.5C 8.4959,28.5858 9.32924,28.2524 10,27.5C 13.0892,22.5941 15.9226,17.5941 18.5,12.5 Z"/></g>
<g><path style="opacity:1" fill="#2b9ce9" d="M 27.5,28.5 C 26.713,30.1042 25.3797,30.7709 23.5,30.5C 22.3773,28.4194 21.3773,26.2527 20.5,24C 20.7804,22.605 21.4471,21.4383 22.5,20.5C 24.6782,22.8584 26.3449,25.5251 27.5,28.5 Z"/></g>
<g><path style="opacity:1" fill="#8aaecb" d="M 13.5,32.5 C 14.1667,31.5 14.8333,30.5 15.5,29.5C 15.979,31.8445 17.479,33.1778 20,33.5C 21.6424,33.0222 22.8091,32.0222 23.5,30.5C 25.3797,30.7709 26.713,30.1042 27.5,28.5C 28.4916,28.6716 29.1583,28.3382 29.5,27.5C 31.256,26.4479 31.9227,24.7812 31.5,22.5C 31.8226,18.774 31.4892,15.1073 30.5,11.5C 27.0654,9.3666 23.5654,7.3666 20,5.5C 15.7507,7.41821 11.7507,9.75154 8,12.5C 7.1925,16.0267 7.35916,19.3601 8.5,22.5C 7.05817,23.8195 6.39151,25.4862 6.5,27.5C 5.34926,22.3497 5.18259,17.0164 6,11.5C 10.2394,8.04811 14.9061,5.38144 20,3.5C 24.3427,5.25529 28.5094,7.42196 32.5,10C 33.642,16.0844 33.8087,22.2511 33,28.5C 29.5,30.6667 26,32.8333 22.5,35C 18.9661,35.8639 15.9661,35.0306 13.5,32.5 Z"/></g>
<g><path style="opacity:1" fill="#2b9ae6" d="M 24.5,14.5 C 27.287,16.7198 29.6203,19.3864 31.5,22.5C 31.9227,24.7812 31.256,26.4479 29.5,27.5C 25.9133,23.9799 24.2467,19.6466 24.5,14.5 Z"/></g>
<g><path style="opacity:1" fill="#313b4f" d="M 31.5,22.5 C 29.6203,19.3864 27.287,16.7198 24.5,14.5C 23.8166,12.8235 22.4832,12.1568 20.5,12.5C 19.8333,12.5 19.1667,12.5 18.5,12.5C 16.2776,12.178 14.4443,12.8446 13,14.5C 11.2347,17.0321 9.73465,19.6987 8.5,22.5C 7.35916,19.3601 7.1925,16.0267 8,12.5C 11.7507,9.75154 15.7507,7.41821 20,5.5C 23.5654,7.3666 27.0654,9.3666 30.5,11.5C 31.4892,15.1073 31.8226,18.774 31.5,22.5 Z"/></g>
<g><path style="opacity:1" fill="#32445e" d="M 24.5,14.5 C 24.2467,19.6466 25.9133,23.9799 29.5,27.5C 29.1583,28.3382 28.4916,28.6716 27.5,28.5C 26.3449,25.5251 24.6782,22.8584 22.5,20.5C 21.4471,21.4383 20.7804,22.605 20.5,24C 21.3773,26.2527 22.3773,28.4194 23.5,30.5C 22.8091,32.0222 21.6424,33.0222 20,33.5C 17.479,33.1778 15.979,31.8445 15.5,29.5C 18.263,24.2985 21.263,19.2985 24.5,14.5 Z"/></g>
</svg>
