<?xml version="1.0" encoding="UTF-8"?>
<!DOCTYPE svg PUBLIC "-//W3C//DTD SVG 1.1//EN" "http://www.w3.org/Graphics/SVG/1.1/DTD/svg11.dtd">
<svg xmlns="http://www.w3.org/2000/svg" version="1.1" width="61px" height="32px" style="shape-rendering:geometricPrecision; text-rendering:geometricPrecision; image-rendering:optimizeQuality; fill-rule:evenodd; clip-rule:evenodd" xmlns:xlink="http://www.w3.org/1999/xlink">
<g><path style="opacity:0.968" fill="#d5d8dd" d="M 9.5,-0.5 C 13.5,-0.5 17.5,-0.5 21.5,-0.5C 25.1203,1.45279 28.1203,4.11945 30.5,7.5C 27.8333,12.8333 27.8333,18.1667 30.5,23.5C 28.1203,26.8805 25.1203,29.5472 21.5,31.5C 17.5,31.5 13.5,31.5 9.5,31.5C 5.16667,29.1667 1.83333,25.8333 -0.5,21.5C -0.5,17.5 -0.5,13.5 -0.5,9.5C 1.83333,5.16667 5.16667,1.83333 9.5,-0.5 Z"/></g>
<g><path style="opacity:0.99" fill="#2a76ca" d="M 39.5,-0.5 C 42.8333,-0.5 46.1667,-0.5 49.5,-0.5C 54.5,1.83333 58.1667,5.5 60.5,10.5C 60.5,13.8333 60.5,17.1667 60.5,20.5C 59.1077,22.2726 57.941,24.2726 57,26.5C 54.5205,28.3141 52.0205,29.9808 49.5,31.5C 46.1667,31.5 42.8333,31.5 39.5,31.5C 35.8797,29.5472 32.8797,26.8805 30.5,23.5C 27.8333,18.1667 27.8333,12.8333 30.5,7.5C 32.8797,4.11945 35.8797,1.45279 39.5,-0.5 Z"/></g>
<g><path style="opacity:1" fill="#8c8c8d" d="M 16.5,5.5 C 15.8347,7.69789 15.1681,10.0312 14.5,12.5C 12.1419,13.1539 10.4752,14.4872 9.5,16.5C 8.42654,15.7494 8.25988,14.7494 9,13.5C 11,10.1667 13,6.83333 15,3.5C 15.7172,4.0442 16.2172,4.71087 16.5,5.5 Z"/></g>
<g><path style="opacity:1" fill="#eff4fb" d="M 39.5,4.5 C 40.3764,4.36912 41.0431,4.70245 41.5,5.5C 32.3541,12.0112 32.1874,18.6779 41,25.5C 41.6667,26.1667 41.6667,26.8333 41,27.5C 33.1122,23.7168 30.7788,17.7168 34,9.5C 35.7297,7.59809 37.563,5.93142 39.5,4.5 Z"/></g>
<g><path style="opacity:1" fill="#eef3fa" d="M 47.5,4.5 C 53.2432,6.08695 56.2432,9.92028 56.5,16C 56.2175,21.7359 53.3842,25.5693 48,27.5C 48.0861,25.0566 49.4194,23.3899 52,22.5C 54.7525,18.6665 55.0858,14.6665 53,10.5C 50.91,8.58366 49.0767,6.58366 47.5,4.5 Z"/></g>
<g><path style="opacity:1" fill="#f2f6fb" d="M 43.5,7.5 C 45.4304,8.76347 47.0971,10.4301 48.5,12.5C 48.1667,12.8333 47.8333,13.1667 47.5,13.5C 46.1585,11.9951 44.4918,11.3285 42.5,11.5C 42.5,12.5 42.5,13.5 42.5,14.5C 47.3269,13.8479 49.1603,15.8479 48,20.5C 46.6861,21.3128 45.5195,22.3128 44.5,23.5C 43.4805,22.3128 42.3139,21.3128 41,20.5C 40.3333,19.5 40.3333,18.5 41,17.5C 42.4443,19.1554 44.2776,19.822 46.5,19.5C 46.5,18.5 46.5,17.5 46.5,16.5C 43.3833,17.0727 41.3833,15.906 40.5,13C 41.5617,11.159 42.5617,9.32565 43.5,7.5 Z"/></g>
<g><path style="opacity:1" fill="#2a2a2a" d="M 16.5,5.5 C 18.4203,8.33883 20.0869,11.3388 21.5,14.5C 20.1879,16.4788 18.5212,18.1455 16.5,19.5C 14.0462,18.7729 11.7128,17.7729 9.5,16.5C 10.4752,14.4872 12.1419,13.1539 14.5,12.5C 15.1681,10.0312 15.8347,7.69789 16.5,5.5 Z"/></g>
<g><path style="opacity:1" fill="#989a9d" d="M 21.5,14.5 C 22.9302,16.4547 22.5969,18.1214 20.5,19.5C 20.5654,19.0618 20.3988,18.7284 20,18.5C 18.8873,19.305 17.7206,19.9717 16.5,20.5C 16.5,20.1667 16.5,19.8333 16.5,19.5C 18.5212,18.1455 20.1879,16.4788 21.5,14.5 Z"/></g>
<g><path style="opacity:1" fill="#929293" d="M 15.5,20.5 C 15.2155,22.4147 15.5489,24.0813 16.5,25.5C 16.1034,26.525 15.4368,26.6917 14.5,26C 12.8333,23.6667 11.1667,21.3333 9.5,19C 11.5056,19.1503 13.5056,19.6503 15.5,20.5 Z"/></g>
<g><path style="opacity:1" fill="#454545" d="M 20.5,19.5 C 18.7745,21.2279 17.4411,23.2279 16.5,25.5C 15.5489,24.0813 15.2155,22.4147 15.5,20.5C 15.8333,20.5 16.1667,20.5 16.5,20.5C 17.7206,19.9717 18.8873,19.305 20,18.5C 20.3988,18.7284 20.5654,19.0618 20.5,19.5 Z"/></g>
</svg>
