<?xml version="1.0" encoding="UTF-8"?>
<!DOCTYPE svg PUBLIC "-//W3C//DTD SVG 1.1//EN" "http://www.w3.org/Graphics/SVG/1.1/DTD/svg11.dtd">
<svg xmlns="http://www.w3.org/2000/svg" version="1.1" width="61px" height="32px" style="shape-rendering:geometricPrecision; text-rendering:geometricPrecision; image-rendering:optimizeQuality; fill-rule:evenodd; clip-rule:evenodd" xmlns:xlink="http://www.w3.org/1999/xlink">
<g><path style="opacity:0.951" fill="#fe0a22" d="M 9.5,-0.5 C 13.5,-0.5 17.5,-0.5 21.5,-0.5C 25.1203,1.45279 28.1203,4.11945 30.5,7.5C 27.8333,12.8333 27.8333,18.1667 30.5,23.5C 28.1203,26.8805 25.1203,29.5472 21.5,31.5C 17.5,31.5 13.5,31.5 9.5,31.5C 5.16667,29.1667 1.83333,25.8333 -0.5,21.5C -0.5,17.5 -0.5,13.5 -0.5,9.5C 1.83333,5.16667 5.16667,1.83333 9.5,-0.5 Z"/></g>
<g><path style="opacity:0.99" fill="#2b76ca" d="M 39.5,-0.5 C 42.8333,-0.5 46.1667,-0.5 49.5,-0.5C 54.5,1.83333 58.1667,5.5 60.5,10.5C 60.5,13.8333 60.5,17.1667 60.5,20.5C 59.1077,22.2726 57.941,24.2726 57,26.5C 54.5205,28.3141 52.0205,29.9808 49.5,31.5C 46.1667,31.5 42.8333,31.5 39.5,31.5C 35.8797,29.5472 32.8797,26.8805 30.5,23.5C 27.8333,18.1667 27.8333,12.8333 30.5,7.5C 32.8797,4.11945 35.8797,1.45279 39.5,-0.5 Z"/></g>
<g><path style="opacity:1" fill="#eff4fb" d="M 39.5,4.5 C 40.3764,4.36912 41.0431,4.70245 41.5,5.5C 32.3541,12.0112 32.1874,18.6779 41,25.5C 41.6667,26.1667 41.6667,26.8333 41,27.5C 33.1122,23.7168 30.7788,17.7168 34,9.5C 35.7297,7.59809 37.563,5.93142 39.5,4.5 Z"/></g>
<g><path style="opacity:1" fill="#eef3fa" d="M 47.5,4.5 C 53.2432,6.08695 56.2432,9.92028 56.5,16C 56.2175,21.7359 53.3842,25.5693 48,27.5C 48.0861,25.0566 49.4194,23.3899 52,22.5C 54.7525,18.6665 55.0858,14.6665 53,10.5C 50.91,8.58366 49.0767,6.58366 47.5,4.5 Z"/></g>
<g><path style="opacity:1" fill="#f2f6fb" d="M 43.5,7.5 C 45.4304,8.76347 47.0971,10.4301 48.5,12.5C 48.1667,12.8333 47.8333,13.1667 47.5,13.5C 46.1585,11.9951 44.4918,11.3285 42.5,11.5C 42.5,12.5 42.5,13.5 42.5,14.5C 47.3269,13.8479 49.1603,15.8479 48,20.5C 46.6861,21.3128 45.5195,22.3128 44.5,23.5C 43.4805,22.3128 42.3139,21.3128 41,20.5C 40.3333,19.5 40.3333,18.5 41,17.5C 42.4443,19.1554 44.2776,19.822 46.5,19.5C 46.5,18.5 46.5,17.5 46.5,16.5C 43.3833,17.0727 41.3833,15.906 40.5,13C 41.5617,11.159 42.5617,9.32565 43.5,7.5 Z"/></g>
<g><path style="opacity:1" fill="#ffe3e5" d="M 7.5,9.5 C 14.5363,9.65265 16.3696,12.986 13,19.5C 8.46664,22.8328 5.63331,21.8328 4.5,16.5C 4.69457,13.7819 5.69457,11.4486 7.5,9.5 Z"/></g>
<g><path style="opacity:1" fill="#ffdbde" d="M 17.5,9.5 C 19.5273,9.33788 21.5273,9.50454 23.5,10C 26.7787,15.2704 25.112,17.7704 18.5,17.5C 17.968,21.9579 16.968,22.2912 15.5,18.5C 16.1722,15.4877 16.8389,12.4877 17.5,9.5 Z"/></g>
<g><path style="opacity:1" fill="#ff1f2d" d="M 8.5,12.5 C 9.5,12.5 10.5,12.5 11.5,12.5C 12.4015,16.2407 11.0681,18.2407 7.5,18.5C 7.32526,16.3792 7.65859,14.3792 8.5,12.5 Z"/></g>
<g><path style="opacity:1" fill="#ff0f26" d="M 19.5,12.5 C 20.675,12.281 21.675,12.6143 22.5,13.5C 20.9483,14.7979 19.9483,14.4646 19.5,12.5 Z"/></g>
</svg>
