<?xml version="1.0" encoding="UTF-8"?>
<!DOCTYPE svg PUBLIC "-//W3C//DTD SVG 1.1//EN" "http://www.w3.org/Graphics/SVG/1.1/DTD/svg11.dtd">
<svg xmlns="http://www.w3.org/2000/svg" version="1.1" width="77px" height="40px" style="shape-rendering:geometricPrecision; text-rendering:geometricPrecision; image-rendering:optimizeQuality; fill-rule:evenodd; clip-rule:evenodd" xmlns:xlink="http://www.w3.org/1999/xlink">
<g><path style="opacity:0.979" fill="#28a17b" d="M 52.5,-0.5 C 54.8333,-0.5 57.1667,-0.5 59.5,-0.5C 63.3429,0.754663 67.0095,2.588 70.5,5C 72.9205,8.35067 74.9205,11.8507 76.5,15.5C 76.5,18.1667 76.5,20.8333 76.5,23.5C 74.2621,31.4051 69.2621,36.7384 61.5,39.5C 58.1667,39.5 54.8333,39.5 51.5,39.5C 45.674,37.6799 41.3407,34.0132 38.5,28.5C 37.6802,25.5522 37.0135,22.5522 36.5,19.5C 37.1722,16.4877 37.8389,13.4877 38.5,10.5C 41.7208,4.90132 46.3875,1.23465 52.5,-0.5 Z"/></g>
<g><path style="opacity:1" fill="#f79827" d="M 12.5,-0.5 C 17.1667,-0.5 21.8333,-0.5 26.5,-0.5C 28.7686,0.97576 31.1019,2.47576 33.5,4C 35.0657,6.32558 36.7324,8.49224 38.5,10.5C 37.8389,13.4877 37.1722,16.4877 36.5,19.5C 37.0135,22.5522 37.6802,25.5522 38.5,28.5C 36.7324,30.5078 35.0657,32.6744 33.5,35C 31.1019,36.5242 28.7686,38.0242 26.5,39.5C 21.8333,39.5 17.1667,39.5 12.5,39.5C 10.2314,38.0242 7.89805,36.5242 5.5,35C 3.24806,32.2639 1.24806,29.4305 -0.5,26.5C -0.5,21.8333 -0.5,17.1667 -0.5,12.5C 0.97576,10.2314 2.47576,7.89805 4,5.5C 6.73612,3.24806 9.56945,1.24806 12.5,-0.5 Z"/></g>
<g><path style="opacity:1" fill="#fff5ea" d="M 18.5,6.5 C 20.045,7.22967 20.8784,8.563 21,10.5C 21.8333,9.5 22.6667,8.5 23.5,7.5C 24.5474,10.7103 26.214,13.5436 28.5,16C 28.2231,17.8916 27.2231,19.2249 25.5,20C 28.9974,26.3628 26.9974,29.1962 19.5,28.5C 19.5,29.5 19.5,30.5 19.5,31.5C 18.325,31.719 17.325,31.3857 16.5,30.5C 17.5896,29.3914 17.5896,28.3914 16.5,27.5C 15.6143,28.325 15.281,29.325 15.5,30.5C 12.7952,30.6198 12.1285,29.6198 13.5,27.5C 8.67194,25.9122 8.50527,24.2455 13,22.5C 13.4574,19.204 14.2907,16.0373 15.5,13C 11.6968,10.5236 12.3634,9.19023 17.5,9C 18.2524,8.32924 18.5858,7.4959 18.5,6.5 Z"/></g>
<g><path style="opacity:1" fill="#bee2d7" d="M 58.5,14.5 C 60.2646,13.5386 62.2646,13.2053 64.5,13.5C 64.5,12.5 64.5,11.5 64.5,10.5C 58.8333,10.5 53.1667,10.5 47.5,10.5C 47.5,11.5 47.5,12.5 47.5,13.5C 49.7354,13.2053 51.7354,13.5386 53.5,14.5C 51.1667,14.5 48.8333,14.5 46.5,14.5C 46.5,12.8333 46.5,11.1667 46.5,9.5C 52.8333,9.5 59.1667,9.5 65.5,9.5C 65.5,11.1667 65.5,12.8333 65.5,14.5C 63.1667,14.5 60.8333,14.5 58.5,14.5 Z"/></g>
<g><path style="opacity:1" fill="#fdfefd" d="M 58.5,14.5 C 58.5,16.5 58.5,18.5 58.5,20.5C 56.8333,20.5 55.1667,20.5 53.5,20.5C 53.5,18.5 53.5,16.5 53.5,14.5C 51.7354,13.5386 49.7354,13.2053 47.5,13.5C 47.5,12.5 47.5,11.5 47.5,10.5C 53.1667,10.5 58.8333,10.5 64.5,10.5C 64.5,11.5 64.5,12.5 64.5,13.5C 62.2646,13.2053 60.2646,13.5386 58.5,14.5 Z"/></g>
<g><path style="opacity:1" fill="#f89d35" d="M 19.5,13.5 C 23.1612,13.3501 24.1612,14.8501 22.5,18C 18.6682,18.514 17.6682,17.014 19.5,13.5 Z"/></g>
<g><path style="opacity:1" fill="#8ecdb8" d="M 53.5,21.5 C 53.5,21.8333 53.5,22.1667 53.5,22.5C 49.9502,22.8671 46.9502,21.8671 44.5,19.5C 45.6927,17.6163 47.3594,17.1163 49.5,18C 48.376,18.2492 47.376,18.7492 46.5,19.5C 48.7067,20.6348 51.0401,21.3015 53.5,21.5 Z"/></g>
<g><path style="opacity:1" fill="#f89d34" d="M 17.5,20.5 C 21.1262,19.8607 22.9595,21.194 23,24.5C 18.0155,26.6736 16.1822,25.3402 17.5,20.5 Z"/></g>
<g><path style="opacity:1" fill="#88cbb5" d="M 58.5,22.5 C 58.5,22.1667 58.5,21.8333 58.5,21.5C 60.8901,21.0874 63.2235,20.4207 65.5,19.5C 64.624,18.7492 63.624,18.2492 62.5,18C 64.6406,17.1163 66.3073,17.6163 67.5,19.5C 65.0498,21.8671 62.0498,22.8671 58.5,22.5 Z"/></g>
<g><path style="opacity:1" fill="#fafdfc" d="M 53.5,21.5 C 55.1667,21.5 56.8333,21.5 58.5,21.5C 58.5,21.8333 58.5,22.1667 58.5,22.5C 58.5,25.5 58.5,28.5 58.5,31.5C 56.8333,31.5 55.1667,31.5 53.5,31.5C 53.5,28.5 53.5,25.5 53.5,22.5C 53.5,22.1667 53.5,21.8333 53.5,21.5 Z"/></g>
</svg>
