<?xml version="1.0" encoding="UTF-8"?>
<!DOCTYPE svg PUBLIC "-//W3C//DTD SVG 1.1//EN" "http://www.w3.org/Graphics/SVG/1.1/DTD/svg11.dtd">
<svg xmlns="http://www.w3.org/2000/svg" version="1.1" width="77px" height="40px" style="shape-rendering:geometricPrecision; text-rendering:geometricPrecision; image-rendering:optimizeQuality; fill-rule:evenodd; clip-rule:evenodd" xmlns:xlink="http://www.w3.org/1999/xlink">
<g><path style="opacity:0.962" fill="#f0ba15" d="M 12.5,-0.5 C 17.1667,-0.5 21.8333,-0.5 26.5,-0.5C 28.7686,0.97576 31.1019,2.47576 33.5,4C 35.0657,6.32558 36.7324,8.49224 38.5,10.5C 35.9609,16.485 35.9609,22.485 38.5,28.5C 36.7324,30.5078 35.0657,32.6744 33.5,35C 31.1019,36.5242 28.7686,38.0242 26.5,39.5C 21.8333,39.5 17.1667,39.5 12.5,39.5C 10.2314,38.0242 7.89805,36.5242 5.5,35C 3.24806,32.2639 1.24806,29.4305 -0.5,26.5C -0.5,21.8333 -0.5,17.1667 -0.5,12.5C 0.97576,10.2314 2.47576,7.89805 4,5.5C 6.73612,3.24806 9.56945,1.24806 12.5,-0.5 Z"/></g>
<g><path style="opacity:0.979" fill="#28a17b" d="M 52.5,-0.5 C 54.8333,-0.5 57.1667,-0.5 59.5,-0.5C 63.3429,0.754663 67.0095,2.588 70.5,5C 72.9205,8.35067 74.9205,11.8507 76.5,15.5C 76.5,18.1667 76.5,20.8333 76.5,23.5C 74.2621,31.4051 69.2621,36.7384 61.5,39.5C 58.1667,39.5 54.8333,39.5 51.5,39.5C 45.674,37.6799 41.3407,34.0132 38.5,28.5C 35.9609,22.485 35.9609,16.485 38.5,10.5C 41.7208,4.90132 46.3875,1.23465 52.5,-0.5 Z"/></g>
<g><path style="opacity:1" fill="#fef7e5" d="M 18.5,6.5 C 20.7802,7.64011 23.1136,8.80678 25.5,10C 23.5415,11.579 21.5415,11.4124 19.5,9.5C 17.5878,11.1561 15.5878,11.4895 13.5,10.5C 15.21,9.11276 16.8767,7.77943 18.5,6.5 Z"/></g>
<g><path style="opacity:1" fill="#bee2d7" d="M 58.5,14.5 C 60.2646,13.5386 62.2646,13.2053 64.5,13.5C 64.5,12.5 64.5,11.5 64.5,10.5C 58.8333,10.5 53.1667,10.5 47.5,10.5C 47.5,11.5 47.5,12.5 47.5,13.5C 49.7354,13.2053 51.7354,13.5386 53.5,14.5C 51.1667,14.5 48.8333,14.5 46.5,14.5C 46.5,12.8333 46.5,11.1667 46.5,9.5C 52.8333,9.5 59.1667,9.5 65.5,9.5C 65.5,11.1667 65.5,12.8333 65.5,14.5C 63.1667,14.5 60.8333,14.5 58.5,14.5 Z"/></g>
<g><path style="opacity:1" fill="#fdfefd" d="M 58.5,14.5 C 58.5,16.5 58.5,18.5 58.5,20.5C 56.8333,20.5 55.1667,20.5 53.5,20.5C 53.5,18.5 53.5,16.5 53.5,14.5C 51.7354,13.5386 49.7354,13.2053 47.5,13.5C 47.5,12.5 47.5,11.5 47.5,10.5C 53.1667,10.5 58.8333,10.5 64.5,10.5C 64.5,11.5 64.5,12.5 64.5,13.5C 62.2646,13.2053 60.2646,13.5386 58.5,14.5 Z"/></g>
<g><path style="opacity:1" fill="#fef9ec" d="M 9.5,11.5 C 10.675,11.281 11.675,11.6143 12.5,12.5C 9.68656,17.6876 8.68656,17.3542 9.5,11.5 Z"/></g>
<g><path style="opacity:1" fill="#fdf7e4" d="M 18.5,11.5 C 19.7562,11.4614 20.7562,11.9614 21.5,13C 20.1667,13.6667 18.8333,13.6667 17.5,13C 18.056,12.6174 18.3893,12.1174 18.5,11.5 Z"/></g>
<g><path style="opacity:1" fill="#fdf4dc" d="M 26.5,11.5 C 29.7643,11.7264 30.7643,13.2264 29.5,16C 28.0096,15.5512 26.6763,14.5512 25.5,13C 26.056,12.6174 26.3893,12.1174 26.5,11.5 Z"/></g>
<g><path style="opacity:1" fill="#fefaf1" d="M 13.5,14.5 C 17.5,15.8333 21.5,15.8333 25.5,14.5C 26.0768,17.5497 24.9101,19.5497 22,20.5C 21.964,22.9412 21.1307,24.9412 19.5,26.5C 18.8333,26.1667 18.1667,25.8333 17.5,25.5C 16.8333,23.5 16.1667,21.5 15.5,19.5C 12.6514,18.5846 11.9848,16.918 13.5,14.5 Z"/></g>
<g><path style="opacity:1" fill="#fef9eb" d="M 8.5,17.5 C 10.13,19.0261 10.9633,21.0261 11,23.5C 16.9239,28.9132 16.2572,29.5799 9,25.5C 8.50258,22.854 8.33591,20.1873 8.5,17.5 Z"/></g>
<g><path style="opacity:1" fill="#fef9eb" d="M 28.5,18.5 C 29.4682,20.6074 29.8016,22.9407 29.5,25.5C 27.6954,26.2371 26.0287,27.2371 24.5,28.5C 23.3736,26.4937 24.0403,25.1604 26.5,24.5C 27.1687,22.3691 27.8354,20.3691 28.5,18.5 Z"/></g>
<g><path style="opacity:1" fill="#f8e094" d="M 28.5,18.5 C 28.56,17.9569 28.8933,17.6236 29.5,17.5C 30.8003,20.3092 30.8003,22.9759 29.5,25.5C 29.8016,22.9407 29.4682,20.6074 28.5,18.5 Z"/></g>
<g><path style="opacity:1" fill="#8ecdb8" d="M 53.5,21.5 C 53.5,21.8333 53.5,22.1667 53.5,22.5C 49.9502,22.8671 46.9502,21.8671 44.5,19.5C 45.6927,17.6163 47.3594,17.1163 49.5,18C 48.376,18.2492 47.376,18.7492 46.5,19.5C 48.7067,20.6348 51.0401,21.3015 53.5,21.5 Z"/></g>
<g><path style="opacity:1" fill="#88cbb5" d="M 58.5,22.5 C 58.5,22.1667 58.5,21.8333 58.5,21.5C 60.8901,21.0874 63.2235,20.4207 65.5,19.5C 64.624,18.7492 63.624,18.2492 62.5,18C 64.6406,17.1163 66.3073,17.6163 67.5,19.5C 65.0498,21.8671 62.0498,22.8671 58.5,22.5 Z"/></g>
<g><path style="opacity:1" fill="#fefcf4" d="M 24.5,20.5 C 25.7759,21.3864 25.7759,22.3864 24.5,23.5C 23.4376,22.5754 23.4376,21.5754 24.5,20.5 Z"/></g>
<g><path style="opacity:1" fill="#fafdfc" d="M 53.5,21.5 C 55.1667,21.5 56.8333,21.5 58.5,21.5C 58.5,21.8333 58.5,22.1667 58.5,22.5C 58.5,25.5 58.5,28.5 58.5,31.5C 56.8333,31.5 55.1667,31.5 53.5,31.5C 53.5,28.5 53.5,25.5 53.5,22.5C 53.5,22.1667 53.5,21.8333 53.5,21.5 Z"/></g>
<g><path style="opacity:1" fill="#fdf4d8" d="M 12.5,20.5 C 13.9953,20.4148 14.9953,21.0815 15.5,22.5C 13.6043,23.6394 12.6043,22.9728 12.5,20.5 Z"/></g>
<g><path style="opacity:1" fill="#fef4db" d="M 16.5,27.5 C 18.0861,28.4132 19.5861,28.4132 21,27.5C 21.7672,30.9033 20.6006,31.9033 17.5,30.5C 16.6143,29.675 16.281,28.675 16.5,27.5 Z"/></g>
</svg>
