<svg width="77" height="40" viewBox="0 0 77 40" fill="none" xmlns="http://www.w3.org/2000/svg">
<g clip-path="url(#clip0_609_14442)">
<path opacity="0.944" fill-rule="evenodd" clip-rule="evenodd" d="M13 0C17.3333 0 21.6667 0 26 0C31.7159 2.02572 36.0492 5.69239 39 11C36.4041 16.9843 36.4041 22.9843 39 29C36.0492 34.3076 31.7159 37.9743 26 40C22 40 18 40 14 40C7 37.6667 2.33333 33 0 26C0 22 0 18 0 14C2.24343 7.4222 6.57676 2.75553 13 0Z" fill="#06A3FE"/>
<path fill-rule="evenodd" clip-rule="evenodd" d="M19.5 6.5C19.5 8.5 19.5 10.5 19.5 12.5C17.4832 13.5294 15.4832 14.5294 13.5 15.5C14.7589 11.9754 16.7589 8.97537 19.5 6.5Z" fill="#EBF7FF"/>
<path fill-rule="evenodd" clip-rule="evenodd" d="M19.5 6.5C21.8288 8.84126 23.8288 11.5079 25.5 14.5C25.1667 14.8333 24.8333 15.1667 24.5 15.5C22.9713 14.2371 21.3046 13.2371 19.5 12.5C19.5 10.5 19.5 8.5 19.5 6.5Z" fill="#8CD5FF"/>
<path fill-rule="evenodd" clip-rule="evenodd" d="M19.499 12.5C20.5895 19.2437 18.5895 20.7437 13.499 17C12.2607 16.31 12.2607 15.81 13.499 15.5C15.4822 14.5294 17.4822 13.5294 19.499 12.5Z" fill="#97D9FF"/>
<path fill-rule="evenodd" clip-rule="evenodd" d="M12.4994 19.5C14.4728 23.4469 16.4728 27.4469 18.4994 31.5C17.6744 32.3857 16.6744 32.719 15.4994 32.5C9.50108 29.1692 8.16775 24.5026 11.4994 18.5C12.1061 18.6236 12.4394 18.9569 12.4994 19.5Z" fill="#F3FAFE"/>
<path fill-rule="evenodd" clip-rule="evenodd" d="M15.5 32.4999C16.675 32.7189 17.675 32.3856 18.5 31.4999C16.4734 27.4468 14.4734 23.4468 12.5 19.4999C14.9538 20.227 17.2872 21.227 19.5 22.4999C19.335 25.8498 19.5017 29.1831 20 32.4999C22.4277 28.2555 24.5944 23.9221 26.5 19.4999C27.0768 18.2266 27.7435 18.2266 28.5 19.4999C30.3826 30.2845 26.0493 34.6178 15.5 32.4999Z" fill="#94D7FF"/>
<path fill-rule="evenodd" clip-rule="evenodd" d="M26.4991 19.5C24.5935 23.9222 22.4268 28.2556 19.9991 32.5C19.5008 29.1832 19.3341 25.8499 19.4991 22.5C21.7119 21.2271 24.0453 20.2271 26.4991 19.5Z" fill="#37B6FF"/>
<mask id="mask0_609_14442" style="mask-type:luminance" maskUnits="userSpaceOnUse" x="37" y="0" width="40" height="40">
<path d="M77 0H37V40H77V0Z" fill="white"/>
</mask>
<g mask="url(#mask0_609_14442)">
<mask id="mask1_609_14442" style="mask-type:luminance" maskUnits="userSpaceOnUse" x="37" y="0" width="40" height="40">
<path d="M77 0H37V40H77V0Z" fill="white"/>
</mask>
<g mask="url(#mask1_609_14442)">
<path d="M57 40C68.0457 40 77 31.0457 77 20C77 8.95431 68.0457 0 57 0C45.9543 0 37 8.95431 37 20C37 31.0457 45.9543 40 57 40Z" fill="#D7DADF"/>
<mask id="mask2_609_14442" style="mask-type:luminance" maskUnits="userSpaceOnUse" x="47" y="5" width="19" height="30">
<path d="M65.6229 5.08984H47.7637V34.1807H65.6229V5.08984Z" fill="white"/>
</mask>
<g mask="url(#mask2_609_14442)">
<path d="M56.6891 5.08984L56.4941 5.75259V24.9838L56.6891 25.1785L65.6161 19.9018L56.6891 5.08984Z" fill="#343434"/>
<path d="M56.6906 5.08984L47.7637 19.9018L56.6906 25.1785V15.8443V5.08984Z" fill="#8C8C8C"/>
<path d="M56.6919 26.8678L56.582 27.0016V33.8522L56.6919 34.1733L65.6241 21.5938L56.6919 26.8678Z" fill="#3C3C3B"/>
<path d="M56.6906 34.1733V26.8678L47.7637 21.5938L56.6906 34.1733Z" fill="#8C8C8C"/>
<path d="M56.6914 25.1779L65.6181 19.9013L56.6914 15.8438V25.1779Z" fill="#141414"/>
<path d="M47.7637 19.9013L56.6905 25.1779V15.8438L47.7637 19.9013Z" fill="#393939"/>
</g>
</g>
</g>
</g>
<defs>
<clipPath id="clip0_609_14442">
<rect width="77" height="40" fill="white"/>
</clipPath>
</defs>
</svg>
