<?xml version="1.0" encoding="UTF-8"?>
<!DOCTYPE svg PUBLIC "-//W3C//DTD SVG 1.1//EN" "http://www.w3.org/Graphics/SVG/1.1/DTD/svg11.dtd">
<svg xmlns="http://www.w3.org/2000/svg" version="1.1" width="77px" height="40px" style="shape-rendering:geometricPrecision; text-rendering:geometricPrecision; image-rendering:optimizeQuality; fill-rule:evenodd; clip-rule:evenodd" xmlns:xlink="http://www.w3.org/1999/xlink">
<g><path style="opacity:0.953" fill="#0ca4fd" d="M 12.5,-0.5 C 16.8333,-0.5 21.1667,-0.5 25.5,-0.5C 31.2159,1.52572 35.5492,5.19239 38.5,10.5C 37.2159,16.4866 37.2159,22.4866 38.5,28.5C 35.5492,33.8076 31.2159,37.4743 25.5,39.5C 21.5,39.5 17.5,39.5 13.5,39.5C 6.5,37.1667 1.83333,32.5 -0.5,25.5C -0.5,21.5 -0.5,17.5 -0.5,13.5C 1.74343,6.9222 6.07676,2.25553 12.5,-0.5 Z"/></g>
<g><path style="opacity:0.971" fill="#27a17b" d="M 53.5,-0.5 C 55.5,-0.5 57.5,-0.5 59.5,-0.5C 68.1667,2.16667 73.8333,7.83333 76.5,16.5C 76.5,18.5 76.5,20.5 76.5,22.5C 74.6797,30.9862 69.6797,36.6529 61.5,39.5C 58.1667,39.5 54.8333,39.5 51.5,39.5C 45.674,37.6799 41.3407,34.0132 38.5,28.5C 37.2159,22.4866 37.2159,16.4866 38.5,10.5C 41.9067,4.63281 46.9067,0.966146 53.5,-0.5 Z"/></g>
<g><path style="opacity:1" fill="#ebf7ff" d="M 19.5,6.5 C 19.5,8.5 19.5,10.5 19.5,12.5C 17.4832,13.5294 15.4832,14.5294 13.5,15.5C 14.7589,11.9754 16.7589,8.97537 19.5,6.5 Z"/></g>
<g><path style="opacity:1" fill="#8cd5ff" d="M 19.5,6.5 C 21.8288,8.84126 23.8288,11.5079 25.5,14.5C 25.1667,14.8333 24.8333,15.1667 24.5,15.5C 22.9713,14.2371 21.3046,13.2371 19.5,12.5C 19.5,10.5 19.5,8.5 19.5,6.5 Z"/></g>
<g><path style="opacity:1" fill="#bee2d7" d="M 58.5,14.5 C 60.2646,13.5386 62.2646,13.2053 64.5,13.5C 64.5,12.5 64.5,11.5 64.5,10.5C 58.8333,10.5 53.1667,10.5 47.5,10.5C 47.5,11.5 47.5,12.5 47.5,13.5C 49.7354,13.2053 51.7354,13.5386 53.5,14.5C 51.1667,14.5 48.8333,14.5 46.5,14.5C 46.5,12.8333 46.5,11.1667 46.5,9.5C 52.8333,9.5 59.1667,9.5 65.5,9.5C 65.5,11.1667 65.5,12.8333 65.5,14.5C 63.1667,14.5 60.8333,14.5 58.5,14.5 Z"/></g>
<g><path style="opacity:1" fill="#fdfefd" d="M 58.5,14.5 C 58.5,16.5 58.5,18.5 58.5,20.5C 56.8333,20.5 55.1667,20.5 53.5,20.5C 53.5,18.5 53.5,16.5 53.5,14.5C 51.7354,13.5386 49.7354,13.2053 47.5,13.5C 47.5,12.5 47.5,11.5 47.5,10.5C 53.1667,10.5 58.8333,10.5 64.5,10.5C 64.5,11.5 64.5,12.5 64.5,13.5C 62.2646,13.2053 60.2646,13.5386 58.5,14.5 Z"/></g>
<g><path style="opacity:1" fill="#97d9ff" d="M 19.5,12.5 C 20.5905,19.2437 18.5905,20.7437 13.5,17C 12.2617,16.31 12.2617,15.81 13.5,15.5C 15.4832,14.5294 17.4832,13.5294 19.5,12.5 Z"/></g>
<g><path style="opacity:1" fill="#8ecdb8" d="M 53.5,21.5 C 53.5,21.8333 53.5,22.1667 53.5,22.5C 49.9502,22.8671 46.9502,21.8671 44.5,19.5C 45.6927,17.6163 47.3594,17.1163 49.5,18C 48.376,18.2492 47.376,18.7492 46.5,19.5C 48.7067,20.6348 51.0401,21.3015 53.5,21.5 Z"/></g>
<g><path style="opacity:1" fill="#f3faff" d="M 12.5,19.5 C 14.0367,23.7114 16.0367,27.7114 18.5,31.5C 17.675,32.3857 16.675,32.719 15.5,32.5C 9.50167,29.1692 8.16834,24.5026 11.5,18.5C 12.1067,18.6236 12.44,18.9569 12.5,19.5 Z"/></g>
<g><path style="opacity:1" fill="#94d8ff" d="M 15.5,32.5 C 16.675,32.719 17.675,32.3857 18.5,31.5C 16.0367,27.7114 14.0367,23.7114 12.5,19.5C 14.8398,20.086 17.0065,21.086 19,22.5C 19.3333,25.8333 19.6667,29.1667 20,32.5C 22.1609,27.5076 24.8276,22.8409 28,18.5C 30.9052,29.7429 26.7386,34.4096 15.5,32.5 Z"/></g>
<g><path style="opacity:1" fill="#88cbb5" d="M 58.5,22.5 C 58.5,22.1667 58.5,21.8333 58.5,21.5C 60.8901,21.0874 63.2235,20.4207 65.5,19.5C 64.624,18.7492 63.624,18.2492 62.5,18C 64.6406,17.1163 66.3073,17.6163 67.5,19.5C 65.0498,21.8671 62.0498,22.8671 58.5,22.5 Z"/></g>
<g><path style="opacity:1" fill="#fafdfc" d="M 53.5,21.5 C 55.1667,21.5 56.8333,21.5 58.5,21.5C 58.5,21.8333 58.5,22.1667 58.5,22.5C 58.5,25.5 58.5,28.5 58.5,31.5C 56.8333,31.5 55.1667,31.5 53.5,31.5C 53.5,28.5 53.5,25.5 53.5,22.5C 53.5,22.1667 53.5,21.8333 53.5,21.5 Z"/></g>
</svg>
