<?xml version="1.0" encoding="UTF-8"?>
<!DOCTYPE svg PUBLIC "-//W3C//DTD SVG 1.1//EN" "http://www.w3.org/Graphics/SVG/1.1/DTD/svg11.dtd">
<svg xmlns="http://www.w3.org/2000/svg" version="1.1" width="77px" height="40px" style="shape-rendering:geometricPrecision; text-rendering:geometricPrecision; image-rendering:optimizeQuality; fill-rule:evenodd; clip-rule:evenodd" xmlns:xlink="http://www.w3.org/1999/xlink">
<g><path style="opacity:0.944" fill="#06a3fe" d="M 12.5,-0.5 C 16.8333,-0.5 21.1667,-0.5 25.5,-0.5C 31.2159,1.52572 35.5492,5.19239 38.5,10.5C 35.9041,16.4843 35.9041,22.4843 38.5,28.5C 35.5492,33.8076 31.2159,37.4743 25.5,39.5C 21.5,39.5 17.5,39.5 13.5,39.5C 6.5,37.1667 1.83333,32.5 -0.5,25.5C -0.5,21.5 -0.5,17.5 -0.5,13.5C 1.74343,6.9222 6.07676,2.25553 12.5,-0.5 Z"/></g>
<g><path style="opacity:0.973" fill="#2b76ca" d="M 50.5,-0.5 C 54.5,-0.5 58.5,-0.5 62.5,-0.5C 68.8333,2.5 73.5,7.16667 76.5,13.5C 76.5,17.5 76.5,21.5 76.5,25.5C 73.5,31.8333 68.8333,36.5 62.5,39.5C 58.5,39.5 54.5,39.5 50.5,39.5C 45.2495,37.2516 41.2495,33.5849 38.5,28.5C 35.9041,22.4843 35.9041,16.4843 38.5,10.5C 41.2495,5.41507 45.2495,1.7484 50.5,-0.5 Z"/></g>
<g><path style="opacity:1" fill="#eef4fb" d="M 50.5,5.5 C 51.4972,5.47008 52.1639,5.97008 52.5,7C 45.2371,10.7005 42.7371,16.5339 45,24.5C 46.6667,27.5 49,29.8333 52,31.5C 52.6667,32.5 52.6667,33.5 52,34.5C 41.9648,29.3942 39.2981,21.7275 44,11.5C 45.914,9.14354 48.0807,7.14354 50.5,5.5 Z"/></g>
<g><path style="opacity:1" fill="#eef4fb" d="M 60.5,5.5 C 71.1457,10.1446 73.9791,17.8113 69,28.5C 66.8699,31.23 64.2032,33.23 61,34.5C 60.3333,33.5 60.3333,32.5 61,31.5C 68.4974,27.0031 70.4974,20.6698 67,12.5C 65.5867,10.5864 63.7534,9.25307 61.5,8.5C 60.6143,7.67504 60.281,6.67504 60.5,5.5 Z"/></g>
<g><path style="opacity:1" fill="#ebf7ff" d="M 19.5,6.5 C 19.5,8.5 19.5,10.5 19.5,12.5C 17.4832,13.5294 15.4832,14.5294 13.5,15.5C 14.7589,11.9754 16.7589,8.97537 19.5,6.5 Z"/></g>
<g><path style="opacity:1" fill="#8cd5ff" d="M 19.5,6.5 C 21.8288,8.84126 23.8288,11.5079 25.5,14.5C 25.1667,14.8333 24.8333,15.1667 24.5,15.5C 22.9713,14.2371 21.3046,13.2371 19.5,12.5C 19.5,10.5 19.5,8.5 19.5,6.5 Z"/></g>
<g><path style="opacity:1" fill="#f4f8fc" d="M 55.5,9.5 C 57.4656,11.4197 59.4656,13.4197 61.5,15.5C 61,15.8333 60.5,16.1667 60,16.5C 57.6795,13.8776 55.5128,13.8776 53.5,16.5C 55.6106,17.9488 57.9439,18.9488 60.5,19.5C 61.641,21.4213 61.8077,23.4213 61,25.5C 59.0283,26.3052 57.5283,27.6385 56.5,29.5C 54.2588,27.5483 52.2588,25.3816 50.5,23C 51,22.8333 51.5,22.6667 52,22.5C 54.5255,25.9052 57.0255,26.0718 59.5,23C 57.1613,21.2824 54.6613,19.7824 52,18.5C 51.8333,17.6667 51.6667,16.8333 51.5,16C 53.1811,14.0109 54.5144,11.8442 55.5,9.5 Z"/></g>
<g><path style="opacity:1" fill="#97d9ff" d="M 19.5,12.5 C 20.5905,19.2437 18.5905,20.7437 13.5,17C 12.2617,16.31 12.2617,15.81 13.5,15.5C 15.4832,14.5294 17.4832,13.5294 19.5,12.5 Z"/></g>
<g><path style="opacity:1" fill="#f3fafe" d="M 12.5,19.5 C 14.4734,23.4469 16.4734,27.4469 18.5,31.5C 17.675,32.3857 16.675,32.719 15.5,32.5C 9.50167,29.1692 8.16834,24.5026 11.5,18.5C 12.1067,18.6236 12.44,18.9569 12.5,19.5 Z"/></g>
<g><path style="opacity:1" fill="#94d7ff" d="M 15.5,32.5 C 16.675,32.719 17.675,32.3857 18.5,31.5C 16.4734,27.4469 14.4734,23.4469 12.5,19.5C 14.9538,20.2271 17.2872,21.2271 19.5,22.5C 19.335,25.8499 19.5017,29.1832 20,32.5C 22.4277,28.2556 24.5944,23.9222 26.5,19.5C 27.0768,18.2267 27.7435,18.2267 28.5,19.5C 30.3826,30.2846 26.0493,34.6179 15.5,32.5 Z"/></g>
<g><path style="opacity:1" fill="#37b6ff" d="M 26.5,19.5 C 24.5944,23.9222 22.4277,28.2556 20,32.5C 19.5017,29.1832 19.335,25.8499 19.5,22.5C 21.7128,21.2271 24.0462,20.2271 26.5,19.5 Z"/></g>
</svg>
