
<svg
width="29"
height="20"
viewBox="0 0 29 20"
fill="none"
xmlns="http://www.w3.org/2000/svg"
>
<path
  id="Vector"
  d="M25.0168 2.21708C22.5286 0.334125 18.5925 0.0155847 18.4252 0.00205592C18.1626 -0.0188521 17.913 0.121355 17.8058 0.347654C17.798 0.362412 17.7117 0.548125 17.6163 0.837148C19.2616 1.09788 21.2832 1.62428 23.1128 2.69305C23.4055 2.864 23.4957 3.22682 23.314 3.50354C23.1964 3.6831 22.9912 3.78149 22.7822 3.78149C22.6698 3.78149 22.5561 3.75321 22.4528 3.69294C19.3086 1.85795 15.3803 1.76571 14.625 1.76571C13.8697 1.76571 9.94006 1.85795 6.79847 3.69294C6.50443 3.86513 6.12023 3.77903 5.93727 3.50354C5.75432 3.22682 5.84579 2.86523 6.13852 2.69305C7.96807 1.62551 9.98841 1.09788 11.635 0.837148C11.5383 0.546895 11.452 0.362412 11.4455 0.347654C11.337 0.121355 11.0887 -0.021312 10.8248 0.00328572C10.6588 0.0155846 6.72267 0.334125 4.20051 2.24414C2.88324 3.38916 0.25 10.0896 0.25 15.8823C0.25 15.9844 0.27875 16.0853 0.332329 16.1738C2.15011 19.1784 7.10818 19.9656 8.23858 20C8.24511 20 8.25165 20 8.25818 20C8.45813 20 8.64631 19.9102 8.76392 19.7577L9.90739 18.2794C6.8246 17.5292 5.24989 16.2562 5.15841 16.1812C4.89966 15.966 4.87483 15.5945 5.10352 15.351C5.33222 15.1075 5.72557 15.0841 5.98432 15.2981C6.02222 15.3301 8.92205 17.646 14.625 17.646C20.3384 17.646 23.2382 15.3203 23.267 15.2969C23.5257 15.0854 23.9204 15.1075 24.1478 15.3523C24.3752 15.5958 24.3503 15.966 24.0929 16.18C24.0014 16.2562 22.4267 17.5279 19.3439 18.2782L20.4874 19.7565C20.605 19.909 20.7932 19.9988 20.9931 19.9988C20.9997 19.9988 21.0062 19.9988 21.0127 19.9988C22.1431 19.9656 27.1012 19.1784 28.919 16.1726C28.9712 16.084 29 15.9844 29 15.8823C29 10.0896 26.3668 3.38916 25.0168 2.21708ZM10.5621 13.5296C9.3546 13.5296 8.37449 12.4756 8.37449 11.1768C8.37449 9.87804 9.35329 8.82403 10.5621 8.82403C11.7709 8.82403 12.7497 9.87804 12.7497 11.1768C12.7497 12.4756 11.7709 13.5296 10.5621 13.5296ZM18.6879 13.5296C17.4804 13.5296 16.5003 12.4756 16.5003 11.1768C16.5003 9.87804 17.4791 8.82403 18.6879 8.82403C19.8954 8.82403 20.8755 9.87804 20.8755 11.1768C20.8755 12.4756 19.8954 13.5296 18.6879 13.5296Z"
  fill="#687386"
/>
</svg>